<?xml version="1.0" standalone="no"?>
<!DOCTYPE svg PUBLIC "-//W3C//DTD SVG 1.1//EN" "http://www.w3.org/Graphics/SVG/1.1/DTD/svg11.dtd" >
<svg xmlns="http://www.w3.org/2000/svg" xmlns:xlink="http://www.w3.org/1999/xlink" version="1.1">
<metadata>
Created by FontForge 20170731 at Sat Nov 29 09:50:52 2003
 By Aleksey,,,
Copyright (c) ITF, 2003. All rights reserved.
</metadata>
<defs>
<font id="JollyRoger" horiz-adv-x="1104" >
  <font-face 
    font-family="JollyRoger"
    font-weight="400"
    font-stretch="normal"
    units-per-em="2048"
    panose-1="2 0 0 0 0 0 0 0 0 0"
    ascent="1638"
    descent="-410"
    x-height="987"
    cap-height="1499"
    bbox="-563 -698 2879 2066"
    underline-thickness="102"
    underline-position="-307"
    unicode-range="U+0001-2122"
  />
<missing-glyph horiz-adv-x="512" 
 />
    <glyph glyph-name=".notdef" horiz-adv-x="512" 
 />
    <glyph glyph-name=".null" horiz-adv-x="0" 
 />
    <glyph glyph-name="nonmarkingreturn" horiz-adv-x="512" 
 />
    <glyph glyph-name="Eth" horiz-adv-x="1282" 
d="M1145 1499q65 0 119.5 -23t95.5 -64t67 -99t33 -129q16 -153 -13 -298t-90 -273.5t-146 -236.5t-181 -188q-55 -46 -125.5 -81t-148.5 -59t-160.5 -36t-161.5 -12h-434q75 120 149 246q32 54 66 114t67.5 123t66 126.5t59.5 123.5q5 9 8 19.5t8 19.5q-52 -1 -96.5 -2
t-76.5 -2q-38 -1 -69 -2q8 18 12.5 39.5t6.5 41.5q3 23 4 46q66 -5 132 -4.5t140 2.5q32 76 54 139t36 116.5t20.5 98t6.5 84.5q0 26 -3.5 48t-12 42t-23 39.5t-37.5 40.5h627zM754 543q90 65 162.5 139t123.5 147.5t79 142.5t28 124q0 66 -29 102.5t-82 36.5
q-43 0 -80.5 -25t-68.5 -70t-55 -106.5t-41 -134.5q40 0 78.5 -1.5t72.5 -4.5q-8 -18 -12 -40t-6 -42q-3 -23 -4 -45q-29 3 -68 4.5t-84 1.5q-8 -56 -11 -113t-3 -116z" />
    <glyph glyph-name="eth" 
d="M414 1055q-5 19 -14.5 39t-18.5 37q-11 20 -23 40q27 17 47 31t40.5 29t43.5 32.5t56 41.5q-68 46 -164.5 91t-230.5 72q59 19 125.5 22t135 -6.5t136 -31t127.5 -51.5q45 33 81 59.5t68 49t62 41t61 36.5q4 -19 12.5 -38.5t18.5 -36.5q11 -19 24 -37
q-21 -12 -42.5 -25.5t-46 -30t-54 -37t-67.5 -47.5q92 -59 163 -136t118 -172t68 -209.5t13 -248.5q-4 -82 -26 -163.5t-59.5 -156t-90.5 -139t-119.5 -112.5t-146 -75.5t-170.5 -28.5q-109 -1 -181 30t-116.5 80t-65.5 109t-28 116.5t-4.5 102.5t4.5 67q6 57 29 123.5
t62 132.5t93 128t122 111.5t149.5 82.5t174.5 41q-10 30 -28 64q-16 29 -42.5 67t-68.5 80q-58 -42 -100 -74t-71 -55q-33 -26 -56 -45zM596 623q-19 -81 -23 -142.5t3.5 -105.5t23 -72.5t35 -45t40 -22t36.5 -4.5q50 6 81 42t49 91.5t25.5 125t10.5 141.5q1 32 -4 73
t-17.5 77.5t-33 60.5t-50.5 22q-34 -2 -63 -29t-52 -64t-38.5 -77.5t-22.5 -70.5z" />
    <glyph glyph-name="Lslash" horiz-adv-x="1298" 
d="M0 0q119 155 223 329t183 351q-72 -29 -128.5 -51.5t-95.5 -38.5q-46 -18 -80 -33q0 19 -3.5 40.5t-8.5 41.5q-5 23 -12 45q63 20 160 58t233 92q57 148 89 279.5t32 234.5q0 35 -9.5 68t-31.5 83h829q-46 -20 -79.5 -36t-61 -32.5t-52.5 -35.5t-54 -43
q-90 -78 -168.5 -174.5t-135.5 -198.5q148 59 245 96.5t155 52.5q0 -20 3.5 -42t8.5 -40q5 -21 12 -42q-30 -9 -78 -26t-111.5 -41t-141.5 -54.5t-168 -65.5q-19 -51 -28 -97.5t-9 -86.5q0 -74 43.5 -117t116.5 -43q50 0 95 19t78.5 51.5t53.5 75t20 90.5q0 10 -0.5 18.5
t-2 18t-4 21.5t-7.5 28q105 -50 165 -134t60 -204q0 -97 -42 -180.5t-116 -145t-174.5 -96.5t-218.5 -35h-784z" />
    <glyph glyph-name="lslash" horiz-adv-x="686" 
d="M2 0q45 71 90.5 157t88 173.5t79.5 171t64 147.5q-55 -22 -96 -38t-68 -27l-54 -21q0 19 -3.5 40.5t-8.5 41.5q-5 23 -12 45q57 19 128.5 44t174.5 67q27 68 56.5 151t52.5 174t36 186.5t7 186.5h454q2 -24 -5 -59.5t-20.5 -78t-32.5 -90t-39.5 -96.5t-42.5 -97.5
t-42 -92.5q-2 -3 -3 -6t-3 -8q54 22 89.5 36.5t61.5 24.5t47 17t46 14q0 -20 3.5 -41.5t8.5 -40.5q5 -22 12 -43q-27 -7 -56 -17.5t-67 -25t-88.5 -34.5t-120.5 -48q-15 -42 -31 -87.5t-29.5 -91.5t-24 -91t-15.5 -86q-9 -67 -13 -126t-4 -115q0 -55 3.5 -108.5t7.5 -107.5
h-631z" />
    <glyph glyph-name="Scaron" horiz-adv-x="1208" 
d="M223 705q97 -183 192.5 -270t202.5 -87q35 0 64.5 14.5t51 37.5t33.5 51t13 55q1 22 -3 41.5t-21.5 48t-53 71t-98.5 109.5q-80 85 -117.5 169.5t-37.5 180.5q0 95 35.5 174t99.5 137t151.5 90t192.5 32q84 0 157.5 -25.5t128 -69.5t86 -104t31.5 -129q0 -46 -17 -86.5
t-46.5 -70.5t-68.5 -47t-83 -17q-40 0 -75 13.5t-61 38t-41 58.5t-15 74q0 36 14 68t38 56t56 38t68 14q6 0 17 -1.5t24 -4.5q-18 18 -34.5 31t-33 20.5t-34.5 11t-40 3.5q-43 0 -80.5 -17t-65.5 -47t-44 -70t-16 -86q0 -36 6.5 -63.5t24.5 -56t51.5 -61.5t87.5 -81
q239 -212 239 -483q0 -130 -47.5 -243.5t-130 -198.5t-193 -134t-235.5 -49q-57 0 -118 10t-122 28.5t-120 45t-113 60.5zM1366 1991q-70 -58 -118.5 -114.5t-78.5 -101.5q-35 -53 -57 -100h-440q-9 47 -26 99q-14 45 -38.5 101t-60.5 116h272q18 -32 37 -58t36 -46
q19 -23 38 -42q27 15 57 36q26 18 56.5 45.5t62.5 64.5h260z" />
    <glyph glyph-name="scaron" horiz-adv-x="883" 
d="M457 -131q-13 0 -55.5 3t-101.5 19.5t-129.5 51t-139.5 96.5q1 5 4.5 25.5t9.5 51.5t13.5 69t14.5 77q18 92 38 205q45 -53 94 -96q21 -18 45 -36t49.5 -32.5t52.5 -23.5t54 -11q11 0 22.5 1t21 5.5t16 12.5t7.5 22q1 16 -9 30.5t-28.5 31.5t-44 38t-55.5 50
q-15 15 -31 33.5t-29 44.5t-21.5 60.5t-8.5 80.5q0 72 32.5 137t87 114.5t125.5 80t148 32.5q58 3 124 -10t122.5 -45.5t93.5 -85t37 -129.5q0 -35 -13 -69t-36 -61t-54 -43.5t-67 -16.5q-66 0 -102.5 36t-36.5 95q0 38 15.5 62.5t37 37.5t45 16t39.5 0q0 18 -13.5 31
t-33 20.5t-41 9.5t-37.5 -1q-27 -6 -51 -20.5t-42.5 -35.5t-29 -47.5t-10.5 -56.5q0 -36 15.5 -64.5t38 -52t48.5 -44.5t47 -42q62 -58 100.5 -122.5t38.5 -147.5q0 -81 -30 -151.5t-84.5 -123t-131.5 -82.5t-171 -30zM1154 1479q-70 -58 -118.5 -114.5t-78.5 -101.5
q-35 -53 -57 -100h-440q-9 47 -26 99q-14 45 -38.5 101t-60.5 116h272q18 -32 37 -58t36 -46q19 -23 38 -42q27 15 57 36q26 18 56.5 45.5t62.5 64.5h260z" />
    <glyph glyph-name="Yacute" horiz-adv-x="1761" 
d="M20 0q81 41 164 96t160.5 118.5t145.5 132t118.5 136t79.5 130t29 114.5q0 40 -13.5 95t-37.5 124q-29 81 -50 139t-35 102.5t-22 79.5t-11 69.5t-2.5 73t3.5 89.5h573q-48 -51 -82.5 -94.5t-57 -85.5t-33.5 -85.5t-11 -94.5q0 -73 22 -130t68 -108q65 53 104.5 121
t60 145.5t24.5 162t-3 169.5h1039q-150 -73 -260 -131.5t-195.5 -110t-153 -101t-133.5 -105.5q-239 -204 -359 -407t-120 -404q0 -30 2.5 -55t9 -52t19 -58.5t31.5 -74.5h-1074v0zM1845.83 1990.57q-74.4287 -40.2588 -148.858 -89.5752
q-31.1797 -21.1357 -65.8799 -46.2979q-34.6992 -25.1621 -69.3994 -54.3496t-68.3945 -60.8916q-33.6943 -31.7031 -63.8682 -66.9297h-294.699q69.4004 54.3496 119.188 110.208q49.7871 55.8594 81.9727 102.157q38.2197 54.3486 62.3594 105.679h447.58z" />
    <glyph glyph-name="yacute" horiz-adv-x="1178" 
d="M541 -559q-100 0 -172 26t-120.5 69t-75 100t-35 119.5t-0.5 126t28 120.5q24 -30 54 -58t64.5 -49t73 -34t78.5 -13q66 0 115.5 27.5t85 73.5t57 106t31.5 125q-30 -37 -63 -71.5t-69.5 -61.5t-78 -43t-88.5 -16q-57 0 -103.5 19.5t-80.5 55.5t-54.5 87.5t-25.5 115.5
q-3 37 5.5 85t25 103t40 114t50.5 118q33 73 52 129t30 94q12 45 16 78h442q-21 -26 -48 -66t-54.5 -88t-53.5 -100.5t-45.5 -103.5t-30.5 -97t-8.5 -81t20.5 -55.5t56 -20.5q35 0 58.5 14.5t48.5 48.5q31 43 56.5 89.5t45.5 93t35.5 92t27.5 86.5q27 96 40 188h401
q-36 -47 -70.5 -113.5t-67.5 -145.5t-65 -166.5t-63 -176.5q-36 -103 -60.5 -201t-45 -185.5t-41 -162t-48.5 -129.5q-22 -45 -58 -92t-83 -85.5t-105 -63.5t-124 -25zM1416 1479q-74 -40 -148 -89q-31 -21 -65.5 -46t-69 -54t-68 -60.5t-63.5 -66.5h-293q69 54 118.5 109.5
t81.5 101.5q38 54 62 105h445z" />
    <glyph glyph-name="Thorn" horiz-adv-x="1452" 
d="M717 295q-4 -46 -3 -95q1 -42 7 -94.5t22 -105.5h-743q81 99 159.5 220t148.5 253t127.5 269.5t96 271t55.5 257.5t5 228h577q-23 -36 -43 -76q-17 -34 -34.5 -74.5t-28.5 -78.5h237q63 0 114.5 -22.5t88 -64.5t56.5 -101.5t20 -133.5q0 -122 -38 -214t-103 -160.5
t-151 -115.5t-182 -79t-195.5 -51.5t-192.5 -32.5zM778 481q80 41 149 102t119 128t78.5 133t26.5 117q-2 37 -26 62.5t-64 25.5q-29 0 -58 -12.5t-55.5 -35t-49 -54.5t-38.5 -70q-18 -42 -30 -77t-20.5 -78t-15.5 -99.5t-16 -141.5z" />
    <glyph glyph-name="thorn" horiz-adv-x="1223" 
d="M387 895q13 32 27.5 95.5t24.5 146t12.5 177.5t-7.5 189h463q-12 -17 -28 -53.5t-33 -83.5t-34.5 -102t-33.5 -110q-38 -128 -78 -280q16 18 49.5 44t77 50t92.5 41t97 17q75 0 125 -34t79.5 -87t41.5 -116.5t10 -122.5q-2 -76 -18 -160.5t-45.5 -166.5t-73 -157
t-101 -132t-128.5 -90.5t-156 -33.5q-63 0 -110.5 20t-82 54t-56.5 80t-34 98q-12 -23 -22 -51q-8 -24 -15 -56t-8 -69q-2 -108 -6.5 -200.5t-24.5 -155.5q-18 -80 -57.5 -137t-98.5 -92.5t-135.5 -50.5t-167.5 -11q-20 1 -36 4t-27 7q-13 4 -23 9q0 40 10.5 98.5t29 128.5
t43.5 147t53.5 154.5t59 151t60.5 135.5zM608 467q0 -36 8.5 -60t21 -39t27.5 -22.5t27 -9.5q48 -10 93.5 12.5t84 64t68 95.5t47.5 108q21 62 25 110t-5 81t-29.5 51t-47.5 21q-38 3 -77 -17t-74.5 -55t-66.5 -80t-53.5 -91.5t-35.5 -91t-13 -77.5z" />
    <glyph glyph-name="Zcaron" horiz-adv-x="1372" 
d="M248 528q99 29 198.5 90t196.5 146q50 44 92 87.5t81 92t77 105.5t80 129q-35 24 -94 38.5t-127 14.5q-38 0 -75 -6t-75 -18t-79.5 -30.5t-88.5 -43.5l109 366h1136q-13 -34 -24.5 -58.5t-26 -47t-34.5 -46t-50 -55.5q-40 -43 -92 -94t-109 -104t-115.5 -104t-109.5 -93
q-84 -68 -134.5 -112t-82.5 -77.5t-52 -65t-42 -75.5q59 -7 120.5 -10t119.5 2.5t110 20.5t91.5 44.5t64 74.5t26.5 110q41 -43 57.5 -97t16.5 -132q0 -121 -44 -227t-121 -184.5t-181.5 -123.5t-226.5 -45h-748zM1552 1991q-70 -58 -118.5 -114.5t-78.5 -101.5
q-35 -53 -57 -100h-440q-9 47 -26 99q-14 45 -38.5 101t-60.5 116h272q18 -32 37 -58t36 -46q19 -23 38 -42q27 15 57 36q26 18 56.5 45.5t62.5 64.5h260z" />
    <glyph glyph-name="zcaron" horiz-adv-x="885" 
d="M106 367q36 12 78 34.5t84.5 50t81.5 58t68 57.5q14 13 40 37.5t51.5 54.5t44.5 62t19 59q0 12 -8 20t-20.5 12t-26.5 5.5t-26 1.5q-42 0 -89 -14t-87 -31q-47 -20 -93 -45l76 258h719q-19 -75 -47 -133t-64 -105.5t-78.5 -89t-88.5 -84.5t-95.5 -91t-99.5 -109
q64 -11 112.5 -5t86.5 23.5t68.5 45t57.5 59.5q5 -5 14.5 -19.5t17.5 -38.5t12.5 -58t-1.5 -77q-10 -88 -45.5 -146.5t-81.5 -94t-95.5 -50t-88.5 -14.5h-602zM1134 1479q-70 -58 -118.5 -114.5t-78.5 -101.5q-35 -53 -57 -100h-440q-9 47 -26 99q-14 45 -38.5 101
t-60.5 116h272q18 -32 37 -58t36 -46q19 -23 38 -42q27 15 57 36q26 18 56.5 45.5t62.5 64.5h260z" />
    <glyph glyph-name="onehalf" horiz-adv-x="1763" 
d="M406 -98q-55 -4 -99.5 2t-79.5 18t-61 28t-44 34q-43 41 -61 96q80 -5 166 32q37 16 78.5 42t85 67t88.5 98.5t88 135.5q35 64 67.5 144.5t66 169.5t69 181t78 178t93.5 162.5t114 133t140.5 89.5t172.5 33q45 0 89 -13t79.5 -38.5t60 -63t31.5 -85.5q-81 15 -148.5 1.5
t-122 -49.5t-97 -91t-72.5 -122q-31 -69 -61.5 -155.5t-63 -181.5t-68.5 -192.5t-79 -190t-94 -174.5t-113 -144.5t-137 -101t-166 -43.5zM186 684q-1 27 7 65t21.5 82t30.5 91.5t35 94t36 89t32 76.5q19 45 30 84t11 77q0 22 -6.5 48.5t-22.5 58.5l330 92q5 -26 5.5 -45
t-1 -35.5t-5.5 -31.5t-9 -33q-42 -141 -72 -242t-48.5 -174.5t-27 -125t-8.5 -93.5q0 -20 2 -48.5t2 -49.5h-340zM1120 295q84 41 149.5 83.5t111.5 86t70 87t24 85.5q0 20 -9 37t-23.5 28.5t-33 16t-37.5 -1.5q25 -9 42.5 -31.5t17.5 -54.5q0 -22 -8.5 -42t-23.5 -36
t-36 -25.5t-45 -9.5q-26 0 -48.5 9.5t-38.5 27t-25 40.5t-9 50q0 45 20.5 85t56 70t82.5 47t101 17q56 0 102.5 -16.5t80 -45.5t52.5 -70t19 -89q0 -93 -63.5 -170t-178.5 -131q-47 -22 -66.5 -32t-24.5 -12q-6 -3 1 1q60 5 120.5 9t113.5 9l-96 -317h-486z" />
    <glyph glyph-name="onequarter" horiz-adv-x="1784" 
d="M406 -98q-55 -4 -99.5 2t-79.5 18t-61 28t-44 34q-43 41 -61 96q80 -5 166 32q37 16 78.5 42t85 67t88.5 98.5t88 135.5q35 64 67.5 144.5t66 169.5t69 181t78 178t93.5 162.5t114 133t140.5 89.5t172.5 33q45 0 89 -13t79.5 -38.5t60 -63t31.5 -85.5q-81 15 -148.5 1.5
t-122 -49.5t-97 -91t-72.5 -122q-31 -69 -61.5 -155.5t-63 -181.5t-68.5 -192.5t-79 -190t-94 -174.5t-113 -144.5t-137 -101t-166 -43.5zM186 684q-1 27 7 65t21.5 82t30.5 91.5t35 94t36 89t32 76.5q19 45 30 84t11 77q0 22 -6.5 48.5t-22.5 58.5l330 92q5 -26 5.5 -45
t-1 -35.5t-5.5 -31.5t-9 -33q-42 -141 -72 -242t-48.5 -174.5t-27 -125t-8.5 -93.5q0 -20 2 -48.5t2 -49.5h-340zM1272 14q-9 35 7 92t44 136q-38 -8 -80 -16.5t-76 -14.5q-31 49 -48.5 115.5t-20.5 140.5q15 29 26.5 51t25 46t32.5 53.5t47 74.5q38 62 73 109.5t62 79.5
q32 38 59 65q13 -16 23 -34q8 -15 15 -34.5t7 -39.5q0 -11 -2.5 -24t-7.5 -30l316 90q-14 -44 -34 -115.5t-41.5 -155t-42.5 -171t-37.5 -163.5t-27 -133t-10.5 -79q0 -3 0.5 -15.5t3.5 -41.5h-309zM1401 473q17 48 29 94q11 39 19.5 80.5t8.5 69.5q0 11 -1.5 20t-6.5 25
q-8 -19 -19 -43t-28 -53q-28 -54 -44.5 -87.5t-25.5 -54t-11.5 -32.5t-2.5 -23z" />
    <glyph glyph-name="onesuperior" horiz-adv-x="530" 
d="M193 694q-1 27 7 65t21 82t30 91.5t35 94t36 89t32 76.5q19 45 30 84.5t11 77.5q0 21 -6.5 47.5t-21.5 58.5l331 92q5 -26 6 -45t-1 -35.5t-6 -31.5t-9 -33q-42 -141 -72 -241.5t-49 -174t-28 -125.5t-9 -94q0 -20 2.5 -48.5t2.5 -49.5h-340z" />
    <glyph glyph-name="threequarters" horiz-adv-x="1942" 
d="M563 -98q-55 -4 -99.5 2t-79 18t-60.5 28t-44 34q-43 41 -61 96q80 -5 166 32q37 16 78.5 42t85 67t88.5 98.5t88 135.5q35 64 67.5 144.5t65.5 169.5t69 181t78.5 178t93.5 162.5t114 133t140.5 89.5t172.5 33q45 0 89 -13t79.5 -38.5t60 -63t31.5 -85.5
q-81 15 -148.5 1.5t-122.5 -49.5t-97 -91t-72 -122q-31 -69 -61.5 -155.5t-63 -181.5t-68.5 -192.5t-79 -190t-94 -174.5t-113.5 -144.5t-137.5 -101t-166 -43.5zM1430 14q-10 35 6.5 92t44.5 136q-38 -8 -80 -16.5t-76 -14.5q-31 49 -48.5 115.5t-21.5 140.5q15 29 26.5 51
t25.5 46t32.5 53.5t46.5 74.5q38 62 73 109.5t62 79.5q32 38 60 65q13 -16 23 -34q8 -15 15 -34.5t7 -39.5q0 -11 -2.5 -24t-7.5 -30l315 90q-14 -44 -34 -115.5t-41 -155t-42 -171t-37.5 -163.5t-27 -133t-10.5 -79q0 -3 0.5 -15.5t3.5 -41.5h-309zM1559 473q17 48 29 94
q11 39 19.5 80.5t8.5 69.5q0 11 -1.5 20t-6.5 25q-8 -19 -19 -43t-28 -53q-28 -54 -44.5 -87.5t-25.5 -54t-11.5 -32.5t-2.5 -23zM264 1036q35 -59 68.5 -85.5t70.5 -26.5q38 0 61 19t23 48t-19 46.5t-48 17.5q-22 0 -43 -6.5t-38 -14.5q-20 -10 -38 -22q17 38 27.5 65.5
t16 52.5t6.5 50t-1 59q12 -8 30 -15q15 -6 36 -10.5t47 -3.5q24 1 46 12t38.5 29t26.5 41t10 47q0 35 -21.5 58.5t-58.5 23.5q17 -12 26 -31t9 -42q0 -47 -29 -76t-74 -29q-49 0 -80.5 34t-31.5 87q0 40 16.5 72.5t46 56t71 36.5t91.5 13q54 0 99 -15t76.5 -42t49 -65
t17.5 -85q0 -37 -8 -67t-26.5 -54t-48.5 -43t-73 -36q60 -45 86 -95.5t24 -119.5q0 -71 -28.5 -127.5t-76 -95.5t-109.5 -60t-130 -21q-31 0 -64.5 6t-66 17.5t-62.5 28.5t-54 39z" />
    <glyph glyph-name="threesuperior" horiz-adv-x="678" 
d="M264 1032q35 -59 68.5 -85.5t70.5 -26.5q38 0 61 19t23 48t-19 46.5t-48 17.5q-22 0 -43 -6.5t-38 -14.5q-20 -10 -38 -22q17 38 27.5 65.5t16 52.5t6.5 50t-1 59q12 -8 30 -15q15 -6 36 -10.5t47 -3.5q24 1 46 12t38.5 29t26.5 41t10 47q0 35 -21.5 58.5t-58.5 23.5
q35 -25 35 -74q0 -46 -29 -75t-74 -29q-49 0 -80.5 34t-31.5 87q0 40 16.5 72.5t46 56t71 36.5t91.5 13q54 0 99 -15t76.5 -42t49 -65t17.5 -85q0 -37 -8 -67t-26.5 -54t-48.5 -43.5t-73 -36.5q60 -45 86 -95t24 -120q0 -70 -28.5 -126.5t-76 -95.5t-109.5 -60t-130 -21
q-31 0 -64.5 6t-66 17.5t-62.5 28.5t-54 38z" />
    <glyph glyph-name="twosuperior" horiz-adv-x="659" 
d="M231 969q84 41 150 83.5t111.5 86t69.5 87t24 85.5q0 20 -9 37t-23 28.5t-32.5 16t-38.5 -1.5q25 -10 42.5 -32t17.5 -54q0 -22 -8.5 -42t-23.5 -36t-35.5 -25.5t-45.5 -9.5q-26 0 -48.5 9.5t-38.5 27t-25 40.5t-9 50q0 45 20.5 85t56 70t82.5 47t101 17
q56 0 102.5 -16.5t80 -45.5t52.5 -70t19 -89q0 -93 -63.5 -170t-177.5 -131q-47 -23 -67 -32.5t-25 -11.5q-6 -3 2 1q60 5 120 9t113 9l-96 -317h-486z" />
    <glyph glyph-name="brokenbar" horiz-adv-x="872" 
d="M532 475h170l-192 -938h-172zM758 1559h170l-193 -938h-172z" />
    <glyph glyph-name="minus" horiz-adv-x="1358" 
d="M328 672q207 -5 412 -8q87 -1 182.5 -2t191 -1.5t187.5 0t172 1.5l-109 -238q-97 7 -255 12q-134 5 -348.5 10t-522.5 7z" />
    <glyph glyph-name="multiply" horiz-adv-x="1358" 
d="M872 -10q-24 45 -51 100q-23 47 -54.5 111t-68.5 139q-66 -77 -122.5 -143t-98.5 -116q-49 -58 -90 -106l-225 74q244 294 430 516q-30 67 -60 134.5t-57.5 133.5t-51.5 128t-42 118l258 -30q14 -29 33 -70q17 -35 40 -86.5t54 -120.5q65 78 116 138.5t86 102.5
q41 49 72 85l252 -70q-40 -47 -89.5 -104t-104.5 -120.5t-113 -131t-117 -135.5q51 -116 111 -256t131 -308z" />
    <glyph glyph-name="space" unicode=" " horiz-adv-x="512" 
 />
    <glyph glyph-name="space" unicode="&#xa0;" horiz-adv-x="512" 
 />
    <glyph glyph-name="exclam" unicode="!" horiz-adv-x="825" 
d="M459 483q17 27 29 60q11 28 19.5 66t8.5 81q0 59 -11 118.5t-23.5 120t-21 121.5t-3.5 122.5t28.5 124.5t75.5 126q38 47 86.5 76.5t101.5 46.5t108 23.5t107 5.5q121 -2 250 -35q-92 -90 -176 -192q-36 -43 -74 -93.5t-74 -106t-68 -114.5t-56 -119q-27 -67 -49 -141
t-38 -140.5t-24.5 -120.5t-7.5 -83zM276 197q0 41 17 79.5t47 68t70.5 47.5t87.5 18q44 0 82 -18t66 -47.5t44.5 -68.5t16.5 -81q0 -40 -13.5 -80.5t-41 -72.5t-69.5 -52.5t-98 -20.5q-45 0 -83.5 18.5t-66 49.5t-43.5 72.5t-16 87.5z" />
    <glyph glyph-name="quotedbl" unicode="&#x22;" horiz-adv-x="881" 
d="M573 1503q39 -15 79.5 -14t79.5 5.5t75 6.5t67 -10l-163 -264q-6 -10 -23.5 -38.5t-40.5 -64.5t-46.5 -73t-41.5 -64q-16 5 -30 7.5t-36 4t-55.5 2t-89.5 0.5q24 39 41 69.5t31.5 57.5t28 55t30.5 62q23 48 36.5 80t23 58.5t17 53.5t17.5 66zM963 1503q39 -15 79 -14
t79 5.5t75.5 6.5t67.5 -10l-164 -264q-6 -10 -23.5 -38.5t-40.5 -64.5t-46.5 -73t-41.5 -64q-16 5 -30 7.5t-36 4t-55.5 2t-89.5 0.5q24 39 41 69.5t31.5 57.5t28 55t30.5 62q23 48 36.5 80t23.5 58.5t17.5 53.5t17.5 66z" />
    <glyph glyph-name="numbersign" unicode="#" horiz-adv-x="1225" 
d="M588 1253q19 48 31.5 79.5t22.5 58t19.5 52.5t22.5 62q33 -8 59 -14t50 -6q25 0 49.5 7.5t54.5 25.5q-18 -42 -31 -71t-24.5 -56.5t-24.5 -59t-33 -76.5l166 5q18 46 30 76.5t21.5 56l19 51t21.5 61.5q34 -8 60.5 -13.5t50.5 -5t49 7.5t55 24q-18 -42 -31 -70.5t-25 -55
t-25 -56.5t-31 -74q44 1 73.5 1.5t57 2t58.5 3t77 3.5q-18 -21 -32 -41t-24.5 -44t-19.5 -55t-18 -73q-36 2 -62 2.5l-52 1t-57 1t-77 1.5l-63 -156q44 1 74 1.5t58 1.5t59 3t77 5q-18 -22 -31 -42.5t-23.5 -45t-19.5 -55t-18 -72.5q-36 2 -62 2.5l-52 1t-57 1t-77 1.5
q-18 -46 -29.5 -77t-21 -57.5t-19 -52.5t-22.5 -63q-33 8 -60 12t-52 3.5t-51 -6.5t-58 -19q20 44 32.5 74t23.5 56.5t22.5 56t29.5 73.5q-29 1 -46.5 1.5t-32.5 0.5h-32q-16 0 -45 -2q-17 -45 -28 -75.5t-20.5 -56l-19 -51t-22.5 -61.5q-60 17 -111 11t-110 -27
q18 44 31 73.5t24.5 56t23.5 56t30 72.5q-46 3 -74.5 5t-53.5 1t-55 -5.5t-79 -13.5q47 41 64.5 91t25.5 116q42 2 68.5 3t50.5 1q25 0 53.5 -2t74.5 -6l64 164q-35 2 -81.5 0t-87.5 -5q-48 -4 -99 -9q26 20 41.5 42t25 47.5t14.5 54.5t11 62q43 2 70.5 2.5t52 0t54 -1.5
t77.5 -3zM807 905l63 160h-161l-64 -162z" />
    <glyph glyph-name="dollar" unicode="$" horiz-adv-x="952" 
d="M408 303q2 23 2.5 46t5.5 44q-69 8 -128 37.5t-103 62.5q-51 39 -93 85l92 450q37 -50 78 -94q35 -38 80 -75t92 -56l82 180q-52 40 -92 87q-17 20 -33.5 43t-29.5 49t-21 53.5t-8 56.5q0 70 31 132t85.5 108.5t129 74t161.5 27.5q11 12 18.5 26t12.5 26q6 14 10 28h121
q-4 -20 -8 -38q-4 -16 -8 -31.5t-8 -25.5q67 -17 121 -50q23 -14 45 -32.5t39.5 -42.5t29 -54t12.5 -66q1 -43 -7.5 -83t-28.5 -70.5t-52 -49t-78 -18.5q-35 0 -62.5 10.5t-46 28.5t-28.5 42t-10 50q0 50 20.5 76t46 37t48 12t26.5 0q-3 15 -13 28q-8 11 -24 21t-43 12
q-41 5 -75.5 -4.5t-59.5 -31t-39 -53.5t-14 -71q0 -43 20.5 -80t51.5 -71.5t67.5 -69t67.5 -72.5t52.5 -81.5t21.5 -96.5q1 -90 -31.5 -164t-90.5 -128.5t-138 -89t-175 -46.5q-3 -8 -5.5 -23t-4.5 -29q-3 -17 -4 -36h-108zM563 758q23 -10 45.5 -11t42 6.5t34 23t20.5 38.5
q9 34 -8.5 67.5t-51.5 55.5q-20 -36 -37 -69q-14 -29 -27.5 -59.5t-17.5 -51.5z" />
    <glyph glyph-name="percent" unicode="%" horiz-adv-x="1970" 
d="M1016 291q0 80 26 159t71 150t106.5 132t131.5 105.5t146.5 69.5t151.5 25q58 0 100.5 -14.5t72.5 -38.5t48.5 -55.5t29 -66t14 -69t3.5 -65.5q0 -125 -25.5 -227t-68.5 -181t-99.5 -136.5t-118 -95t-124 -55.5t-117.5 -18q-94 0 -160 32t-108 85.5t-61 122t-19 141.5z
M330 459q30 -15 69 -26q33 -10 79.5 -18.5t103.5 -8.5q35 0 71 9t71 24t68 34t63 39q70 47 134 106q-14 -183 -84 -327q-30 -61 -74 -120t-107 -105.5t-146.5 -74.5t-192.5 -28q-45 0 -82.5 10.5t-63.5 24.5q-31 16 -55 35zM1419 383q0 -26 5 -55t17.5 -53t32.5 -40t50 -16
q36 0 70 20.5t64 55t55 78.5t43 90.5t28 92.5t10 83q0 27 -5.5 55t-19.5 50.5t-36.5 36.5t-57.5 14q-30 0 -60.5 -19.5t-59 -52.5t-53.5 -75.5t-43.5 -88.5t-29 -91.5t-10.5 -84.5zM1214 903q60 187 150 334q38 63 86.5 123t107 107t128 75.5t149.5 28.5q41 0 79.5 -10.5
t69.5 -23.5q36 -15 68 -34l-129 -393q-33 15 -70 26q-32 10 -72.5 17.5t-84.5 7.5q-38 0 -79 -11t-82 -29t-80.5 -41.5t-75.5 -47.5q-84 -57 -165 -129zM236 926q0 80 26 158.5t71 149.5t106 131.5t131.5 105t146.5 69.5t151 25q59 0 102 -14.5t73 -38.5t48 -55.5t28.5 -66
t14 -69t3.5 -64.5q0 -126 -25.5 -227.5t-68.5 -180.5t-99 -136.5t-117 -94.5t-123.5 -55t-117.5 -18q-94 0 -160.5 32t-108.5 85t-61.5 121.5t-19.5 142.5zM641 1018q0 -26 5 -55.5t17 -54t32 -40.5t50 -16q36 0 70 20.5t64.5 55t56 78.5t44 90.5t28.5 92.5t10 83
q0 28 -6 56t-20 50.5t-37 37t-58 14.5q-30 0 -60.5 -19.5t-59 -52.5t-53.5 -75.5t-43.5 -88.5t-29 -91.5t-10.5 -84.5z" />
    <glyph glyph-name="ampersand" unicode="&#x26;" horiz-adv-x="1290" 
d="M477 -49q-97 1 -181.5 31t-146.5 86t-98 138.5t-35 188.5q-1 78 18 141.5t51 114t74 88.5t86 66q103 65 234 96q-27 29 -49 65q-19 31 -34 72.5t-15 89.5q0 96 35.5 168.5t96.5 121.5t142.5 73.5t173.5 24.5q29 0 66 -8t76 -24t76.5 -40.5t66.5 -57.5t47 -75t17 -94
q0 -36 -12 -66t-34.5 -52.5t-54 -35t-69.5 -12.5q-29 0 -54 10.5t-43 29t-28.5 43t-10.5 52.5q-1 42 14.5 67.5t35.5 40.5q23 18 51 25q-9 16 -25 28q-14 11 -35 19t-51 8q-38 0 -75.5 -17t-67 -46t-48 -69t-18.5 -85q0 -51 18 -86t51 -55.5t80 -27.5t105 -1
q4 -44 -14.5 -71.5t-51 -44.5t-75 -26.5t-87.5 -18.5t-89.5 -20.5t-80 -31.5t-58 -53t-25.5 -84q-1 -50 16 -85t45.5 -57.5t64 -33t69.5 -10.5q27 0 62 7t66.5 22.5t53.5 40t22 59.5q0 11 -6 19.5t-15.5 14t-20.5 8.5t-21 3q-20 0 -39.5 -9.5t-34.5 -20.5q-18 -13 -33 -30
q-4 2 -11 8.5t-14 16.5t-11.5 22t-4.5 25q0 30 14.5 55t49 45.5t91 37t140.5 28.5q119 20 216 61t166 101.5t107 138.5t38 172q0 32 -11.5 67.5t-33 65.5t-52.5 50t-71 20q-22 0 -42 -9.5t-36 -21.5q-18 -14 -35 -31q-24 32 -21 64.5t24.5 59.5t57 44t76.5 17
q68 0 122.5 -23t96.5 -61.5t72 -88t50 -102t31 -104.5t13 -95q4 -58 -2.5 -125t-26.5 -134t-54 -129.5t-84 -110.5t-117 -76.5t-154 -28.5q-51 0 -93.5 7.5t-73.5 15.5q-36 10 -66 22q16 -32 27 -69q9 -32 14.5 -73.5t-0.5 -88.5q-12 -79 -57 -150t-119 -124t-173.5 -84
t-220.5 -29z" />
    <glyph glyph-name="quotesingle" unicode="'" horiz-adv-x="516" 
d="M573 1503q39 -15 79.5 -14t79.5 5.5t75 6.5t67 -10l-163 -264q-6 -10 -23.5 -38.5t-40.5 -64.5t-46.5 -73t-41.5 -64q-16 5 -30 7.5t-36 4t-55.5 2t-89.5 0.5q24 39 41 69.5t31.5 57.5t28 55t30.5 62q23 48 36.5 80t23 58.5t17 53.5t17.5 66z" />
    <glyph glyph-name="parenleft" unicode="(" horiz-adv-x="694" 
d="M473 -322q-93 6 -163.5 44.5t-117 104t-69 155.5t-19.5 198q4 117 24.5 231t52.5 220.5t72.5 204t83 183t85 156.5t78.5 125q27 41 61 85.5t72 87t78.5 80.5t80.5 65t77.5 40.5t70.5 8.5q-2 -8 -18.5 -52.5t-43 -117t-60 -168.5t-69.5 -206.5t-72 -232t-67 -243.5
q-18 -70 -33.5 -149t-28.5 -160.5t-23.5 -162t-18.5 -153.5q-19 -172 -33 -344z" />
    <glyph glyph-name="parenright" unicode=")" horiz-adv-x="760" 
d="M594 1686q93 -6 163.5 -44.5t117 -104t69 -155.5t19.5 -198q-4 -117 -24.5 -231t-52.5 -220.5t-72.5 -204t-83 -183t-85 -157t-78.5 -125.5q-27 -41 -61 -85.5t-72 -86.5t-78.5 -80t-80.5 -65t-77.5 -40.5t-70.5 -8.5q2 8 18.5 52.5t43 117t60 168.5t69.5 206.5t72 232
t67 243.5q18 71 33.5 150t28.5 160t24 161.5t19 153.5q19 172 32 344z" />
    <glyph glyph-name="asterisk" unicode="*" horiz-adv-x="831" 
d="M559 956q0 19 10 35.5t25.5 31.5t36 28t41.5 24q49 26 112 45q-34 9 -65 15q-26 5 -53.5 9.5t-44.5 4.5q-31 0 -51 -8t-32 -22.5t-19 -35t-13 -45.5q-18 6 -34 23q-14 14 -25.5 39.5t-14.5 68.5q-2 35 3.5 66.5t21.5 55t42 37.5t64 13q41 -1 80 -21t71 -44q37 -28 70 -64
q-15 43 -29 80q-12 32 -25 61t-21 38q-19 28 -45 37t-50 10q-28 1 -57 -8q9 45 32 80q20 30 57 54.5t99 24.5q26 0 48 -7t39 -21t27 -34.5t11 -47.5q1 -37 -1 -70t-5 -57q-4 -28 -8 -52q30 27 54 57q20 26 38 56.5t21 59.5q2 19 -5 37t-18 32q-12 17 -28 33q67 9 121 -2
q23 -5 44.5 -14.5t38.5 -27t27 -43t10 -61.5q0 -22 -9 -41.5t-23 -36t-32.5 -30t-37.5 -24.5q-45 -26 -101 -42q30 -9 58 -16q24 -6 51 -11t47 -5q35 0 58 17.5t37 38.5q16 25 24 56q16 -16 29 -34q11 -16 20 -37.5t10 -47.5q1 -33 -7 -66t-24 -59t-40.5 -42.5t-57.5 -16.5
q-29 0 -60.5 19t-60 41.5t-53 41.5t-39.5 19q17 -13 26.5 -34t16 -44.5t13 -48t17.5 -44t29.5 -32t49.5 -12.5q7 0 19.5 2t25.5 4q15 3 31 6q1 -29 -15 -57.5t-42 -50.5t-59.5 -35.5t-68.5 -13.5q-25 0 -48.5 10.5t-42 28.5t-29.5 43t-11 53q0 24 3.5 42t6.5 34.5t4 34
t-4 40.5q-15 -26 -35.5 -46.5t-39 -40.5t-31 -42.5t-12.5 -52.5q0 -18 8.5 -35t18.5 -30q11 -15 26 -29q-39 -26 -82 -19.5t-79.5 32.5t-60.5 65t-24 77z" />
    <glyph glyph-name="plus" unicode="+" horiz-adv-x="1358" 
d="M893 1110q53 -13 100 -20q40 -6 78.5 -8t54.5 8l-170 -431q74 -4 153 -5q68 -1 151.5 0.5t164.5 7.5l-108 -238q-88 4 -168 8q-34 2 -70 3t-70 1h-65q-30 0 -53 -2l-166 -465q-50 9 -97 16q-40 6 -81.5 11.5t-67.5 5.5l164 432l-453 19l91 219q65 -8 137 -13
q62 -5 139.5 -6t157.5 4l178 453v0z" />
    <glyph glyph-name="comma" unicode="," horiz-adv-x="604" 
d="M41 -250q8 19 23 37q13 16 33.5 34.5t52.5 35.5q27 16 46.5 36.5t33.5 39.5q16 22 26 44q-8 -3 -19 -6q-20 -5 -49 -2q-21 2 -38 16t-29.5 33.5t-19.5 41t-7 38.5q0 49 15.5 90.5t43.5 71.5t66.5 47t83.5 17q39 0 75 -16.5t63 -45.5t43 -67t16 -82q0 -45 -11.5 -86
t-33 -76t-53 -62t-72.5 -43q-24 -9 -49 -15.5t-49.5 -13.5t-49.5 -16t-49 -22q-14 -8 -27 -16.5t-23 -16.5l-22 -18l-20 22v0z" />
    <glyph glyph-name="hyphen" unicode="-" horiz-adv-x="1102" 
d="M195 541q0 51 11 95t26 85t31 83.5t26 90.5q29 -28 56.5 -44.5t57.5 -25.5t65 -11.5t77 -2.5q71 0 132.5 6.5t120.5 14t120 14t131 6.5q35 0 62 -12.5t45.5 -33.5t28 -49t9.5 -59q0 -42 -8.5 -79t-20 -73t-22 -74t-13.5 -83q-55 26 -108.5 35t-105 7.5t-101.5 -11
t-98.5 -20t-96 -19t-94.5 -8.5h-51q-31 0 -68 3.5t-74.5 12.5t-68 28t-50 49t-19.5 75z" />
    <glyph glyph-name="period" unicode="." horiz-adv-x="604" 
d="M92 197q0 41 17 79.5t46.5 68t70 47.5t87.5 18q44 0 82 -18t66.5 -47.5t44.5 -68.5t16 -81q0 -40 -13.5 -80.5t-41 -72.5t-69 -52.5t-97.5 -20.5q-45 0 -83.5 18.5t-66.5 49.5t-43.5 72.5t-15.5 87.5z" />
    <glyph glyph-name="slash" unicode="/" horiz-adv-x="1495" 
d="M610 563q44 59 85.5 132.5t85 153.5t89.5 163t97.5 160.5t110.5 145.5t128 118.5t150 80t176 29.5q45 0 89 -13t79.5 -38.5t60 -63t31.5 -85.5q-81 15 -148.5 1.5t-122 -49.5t-97 -91t-72.5 -122q-52 -113 -88 -229t-73 -231.5t-82.5 -229t-115.5 -221.5
q-36 -57 -81.5 -104t-99.5 -82.5t-115 -57.5t-128 -28q-73 -7 -144.5 3t-138 34t-128.5 61t-117 84q84 31 177 93q80 53 182 146.5t210 239.5z" />
    <glyph glyph-name="zero" unicode="0" horiz-adv-x="1300" 
d="M573 -82q-100 0 -186.5 38t-149.5 105t-99 158t-36 197q0 144 32.5 283.5t91 264t138 230t174 182t200 119.5t214.5 43q91 0 163 -30t122.5 -86.5t77 -137.5t26.5 -182q0 -153 -29.5 -300.5t-81.5 -279t-124 -242.5t-157 -191.5t-180.5 -125.5t-195.5 -45zM807 485
q54 0 103.5 25t92.5 67.5t78 99.5t59.5 121t38 131.5t13.5 131.5q0 57 -12 103.5t-34.5 79.5t-54 51t-71.5 18q-59 0 -113 -27t-100 -73t-83.5 -106t-64 -126t-41 -133.5t-14.5 -128.5q0 -50 15.5 -92.5t42.5 -74t64 -49.5t81 -18z" />
    <glyph glyph-name="one" unicode="1" horiz-adv-x="745" 
d="M2 0q-1 36 8 86.5t26 111t40 128t48.5 136t52 135t50.5 126t43.5 109t32.5 83.5q28 71 48 134.5t27 123.5t-0.5 118t-35.5 118l541 147q5 -29 5.5 -52.5t-2.5 -47t-10 -49.5t-18 -61q-69 -225 -119.5 -391t-85.5 -290.5t-56 -215.5t-30 -165.5t-8.5 -141t8.5 -142.5h-565
v0z" />
    <glyph glyph-name="two" unicode="2" horiz-adv-x="1067" 
d="M135 489q157 76 279.5 162t206.5 173.5t128 172t44 158.5q0 42 -14.5 77.5t-39.5 61.5t-59.5 41t-73.5 15q-35 0 -60 -13t-41 -29q-18 -18 -30 -42l15 5q15 5 32 5q25 0 47 -10.5t39 -28t27 -41.5t10 -51q0 -34 -13 -65.5t-36.5 -56t-56 -39.5t-70.5 -15t-71.5 16
t-58.5 43t-39.5 63t-14.5 76q0 78 35 146t95.5 119t142 80.5t173.5 29.5q95 0 175 -28t138 -78.5t90.5 -119.5t32.5 -151q2 -166 -109 -299.5t-317 -230.5q-93 -43 -153 -74.5t-95 -51.5q-41 -24 -63 -40l541 45l-160 -514h-821z" />
    <glyph glyph-name="three" unicode="3" horiz-adv-x="1114" 
d="M174 567q54 -86 114 -123.5t138 -37.5q43 0 78.5 11.5t60.5 33.5t39 52.5t14 67.5q0 34 -12 62t-33.5 48t-51.5 31t-66 11q-24 0 -42.5 -2t-36 -8t-36.5 -16.5t-43 -26.5q21 48 36 91t24.5 83.5t12.5 80t-1 81.5q28 -15 49 -24.5t39.5 -15t37 -7t40.5 -1.5q53 0 101 21
t84 56.5t57.5 83t21.5 100.5q0 41 -13 76t-37 60.5t-57.5 39.5t-73.5 14q-31 0 -53.5 -8t-37.5 -18q-18 -11 -29 -27q6 1 11 2t10.5 1.5t10.5 0.5q50 0 80.5 -35.5t30.5 -91.5q0 -33 -12 -61.5t-33 -49.5t-49 -33t-60 -12q-37 0 -69.5 14.5t-56 40t-37 60t-13.5 74.5
q0 65 28 119.5t79 93.5t122 60.5t156 21.5q94 0 171 -25t132 -71.5t85 -111.5t30 -145q0 -67 -19.5 -120.5t-60.5 -97t-105 -78.5t-153 -64q67 -42 115 -86.5t78.5 -94.5t45 -107t13.5 -124q-1 -125 -51 -224t-133.5 -168t-193.5 -105.5t-230 -36.5q-55 0 -113 10.5
t-113 29.5t-104.5 47t-89.5 62z" />
    <glyph glyph-name="four" unicode="4" horiz-adv-x="1141" 
d="M434 0q-8 35 -2 81.5t23 104t42 126t54 149.5l-332 -64q-46 79 -73.5 191t-32.5 243q18 37 33 67t30.5 57.5t31.5 55.5t36.5 61t45.5 73.5t58 93.5q72 115 131.5 197t104.5 136q52 63 94 105q16 -19 27 -42q10 -20 18 -46.5t8 -58.5q0 -22 -5 -47t-18.5 -59.5
t-36.5 -82.5t-59 -116q-37 -71 -63 -122.5t-44 -88.5t-28.5 -63t-16.5 -45t-7.5 -33.5t-1.5 -30.5q0 -17 9 -29t29 -10l170 8q27 38 50 95t40.5 123.5t27 137.5t9.5 136q0 27 -3.5 46t-14.5 48l516 145q-1 -11 -4 -24.5t-9 -35t-15.5 -55t-24.5 -86t-36.5 -126t-51.5 -175.5
q-53 -183 -91.5 -330t-63 -265.5t-36.5 -210.5t-12 -164v-24t2 -46h-508v0z" />
    <glyph glyph-name="five" unicode="5" horiz-adv-x="1102" 
d="M156 571q28 -37 68 -67q34 -26 83 -47t115 -21q57 0 107 20t86.5 55.5t57.5 83t21 101.5q0 110 -61 162.5t-189 52.5q-35 0 -72 -6.5t-67 -14.5q-35 -10 -69 -22l227 631h551q26 0 47 5.5t41 15.5q-19 -93 -40 -153.5t-49 -96.5t-64.5 -50t-86.5 -14h-330l-53 -147
q23 11 53 20q26 8 61 13.5t79 5.5q86 0 155.5 -33t119 -93.5t76 -146t26.5 -190.5q0 -160 -48 -293.5t-135 -228.5t-207.5 -148t-265.5 -53q-93 0 -165.5 20.5t-123.5 46.5q-60 30 -104 68z" />
    <glyph glyph-name="six" unicode="6" horiz-adv-x="1157" 
d="M1249 1499q-33 -22 -71.5 -56t-78 -74.5t-79.5 -85t-77 -87.5q-86 -101 -173 -215q18 8 37 13q17 5 38 8.5t44 3.5q51 0 93 -21.5t72 -61t46 -95t16 -123.5q0 -102 -25 -200.5t-69 -186t-105.5 -161t-134.5 -126.5t-155 -83t-168 -30q-92 0 -169 29.5t-132.5 84t-86 130
t-30.5 166.5t32 189.5t84 198t119 196t136 183.5q163 204 370 404h467zM645 262q41 0 79 20.5t71 54.5t59.5 79t45.5 93t29.5 96.5t10.5 90.5q0 78 -31 122t-84 44q-41 0 -79 -22.5t-72 -59.5t-62 -84.5t-48 -98.5t-31 -101.5t-11 -92.5q0 -65 33.5 -103t89.5 -38z" />
    <glyph glyph-name="seven" unicode="7" horiz-adv-x="973" 
d="M-10 0q27 89 69 182t100.5 194.5t135.5 211.5t174 233q80 99 128 160t77.5 99.5t46.5 63t35 50.5q-15 18 -29.5 30t-30 19t-34.5 9.5t-44 2.5q-92 0 -201.5 -41t-217.5 -116q18 64 39 118t45.5 102.5t53.5 92.5t64 88h693q0 -16 1 -30q1 -12 1 -24v-18
q0 -139 -46.5 -302.5t-140.5 -368.5q-63 -134 -107.5 -231.5t-74.5 -168t-47.5 -120.5t-27 -89t-12.5 -73t-5 -74h-645v0z" />
    <glyph glyph-name="eight" unicode="8" horiz-adv-x="1157" 
d="M457 874q-36 29 -61 55.5t-40 53t-21.5 54.5t-6.5 59q0 91 42 175t113 148.5t163.5 103t193.5 38.5q73 0 137 -23.5t111 -68t73.5 -109.5t24.5 -148q-3 -124 -65 -211.5t-185 -152.5q43 -39 73.5 -78.5t49.5 -83.5t28 -93.5t9 -107.5q0 -81 -21.5 -156.5t-60 -141.5
t-93 -121t-120 -94.5t-140.5 -61t-155 -21.5q-98 0 -184.5 34.5t-151 94t-102 138.5t-37.5 168q0 94 30.5 180t86.5 158t134.5 126.5t174.5 85.5zM678 319q40 0 75.5 21t62.5 56.5t42.5 83.5t15.5 102q0 74 -30 116.5t-82 42.5q-43 0 -81 -29t-66.5 -71.5t-45 -91.5
t-16.5 -90q0 -30 9.5 -55.5t26 -44.5t39.5 -29.5t50 -10.5zM852 1071q28 0 53.5 14t45 37.5t31 55t11.5 65.5q0 54 -26.5 85.5t-71.5 31.5q-29 0 -55.5 -14.5t-47 -39t-32.5 -56t-12 -66.5q0 -24 8 -44.5t22 -36t33 -24t41 -8.5z" />
    <glyph glyph-name="nine" unicode="9" horiz-adv-x="1128" 
d="M229 526q30 -31 55.5 -50.5t51.5 -30.5t54.5 -15t64.5 -4q60 0 117.5 20t109 59t96.5 96.5t80 131.5q-45 -31 -81.5 -51.5t-69.5 -33t-65.5 -18t-68.5 -5.5q-73 0 -134.5 27t-106.5 74.5t-70.5 112.5t-25.5 140q0 112 45.5 214.5t122 180.5t177 124t210.5 46
q85 0 152.5 -28.5t114.5 -82.5t72.5 -131t26.5 -174q3 -137 -16.5 -280t-60 -276.5t-102.5 -251t-145.5 -205t-188 -138.5t-230.5 -51q-52 0 -102 9t-94.5 25t-81.5 39.5t-64 51.5zM586 1139q-3 -23 1.5 -46.5t18 -42t36 -30.5t56.5 -12q40 0 74 20.5t58.5 53t38.5 72
t14 77.5q0 29 -8.5 54t-22.5 43.5t-33.5 29t-42.5 10.5q-43 0 -77 -26t-58 -62.5t-38 -75.5t-17 -65z" />
    <glyph glyph-name="colon" unicode=":" horiz-adv-x="604" 
d="M291 801q0 41 17 79t46.5 68t70 48t87.5 18q44 0 82 -18t66.5 -47.5t44.5 -68.5t16 -81q0 -40 -13.5 -80.5t-41 -72.5t-69 -52.5t-97.5 -20.5q-45 0 -83.5 18.5t-66.5 49.5t-43.5 72.5t-15.5 87.5zM92 197q0 41 17 79.5t46.5 68t70 47.5t87.5 18q44 0 82 -18t66.5 -47.5
t44.5 -68.5t16 -81q0 -40 -13.5 -80.5t-41 -72.5t-69 -52.5t-97.5 -20.5q-45 0 -83.5 18.5t-66.5 49.5t-43.5 72.5t-15.5 87.5z" />
    <glyph glyph-name="semicolon" unicode=";" horiz-adv-x="604" 
d="M41 -250q8 19 23 37q13 16 33.5 34.5t52.5 35.5q27 16 46.5 36.5t33.5 39.5q16 22 26 44q-8 -3 -19 -6q-20 -5 -49 -2q-21 2 -38 16t-29.5 33.5t-19.5 41t-7 38.5q0 49 15.5 90.5t43.5 71.5t66.5 47t83.5 17q39 0 75 -16.5t63 -45.5t43 -67t16 -82q0 -45 -11.5 -86
t-33 -76t-53 -62t-72.5 -43q-24 -9 -49 -15.5t-49.5 -13.5t-49.5 -16t-49 -22q-14 -8 -27 -16.5t-23 -16.5l-22 -18l-20 22v0zM299 801q0 41 17 79t46.5 68t70 48t87.5 18q44 0 82 -18t66.5 -47.5t44.5 -68.5t16 -81q0 -40 -13.5 -80.5t-41 -72.5t-69 -52.5t-97.5 -20.5
q-45 0 -83.5 18.5t-66.5 49.5t-43.5 72.5t-15.5 87.5z" />
    <glyph glyph-name="less" unicode="&#x3c;" horiz-adv-x="805" 
d="M414 481q-39 0 -70.5 -5.5t-59.5 -16t-54.5 -26.5t-55.5 -38q62 124 118 243q24 51 49 105.5t48.5 108t44 103.5t35.5 92q30 86 51 172.5t34 156.5q15 82 24 158h585q-72 -106 -138 -225q-28 -51 -58 -109.5t-58 -122t-53 -131t-43 -135.5q-10 -38 -20 -95t-19 -118.5
t-17 -121.5t-13.5 -104.5t-8 -67.5t-2.5 -11q-28 40 -62.5 74t-74.5 59.5t-85.5 40t-96.5 14.5zM217 197q0 41 17 79.5t46.5 68t70 47.5t87.5 18q44 0 82 -18t66.5 -47.5t44.5 -68.5t16 -81q0 -40 -13.5 -80.5t-41 -72.5t-69 -52.5t-97.5 -20.5q-45 0 -83.5 18.5t-66.5 49.5
t-43.5 72.5t-15.5 87.5z" />
    <glyph glyph-name="equal" unicode="=" horiz-adv-x="1358" 
d="M350 928q105 -5 215 -8.5t218.5 -6.5t212.5 -4t198 -1t174 2t141 5l-120 -247q-188 -1 -340 0.5t-271.5 4t-208.5 5.5t-152.5 6.5t-103.5 7t-61 6.5l98 230v0zM240 487q123 -8 295 -12q147 -4 362 -4.5t502 6.5l-119 -250q-116 -1 -239.5 0t-243 3.5t-229 6t-197 7.5
t-147.5 8t-81 6l97 229v0z" />
    <glyph glyph-name="question" unicode="?" horiz-adv-x="1214" 
d="M287 328q0 60 24 122t67 119t103 105.5t133 81.5q47 21 98 42t100.5 44t93.5 50.5t77.5 63.5t52.5 82t17 105q-1 56 -18 103.5t-48 82.5t-75.5 54.5t-102.5 19.5q-30 0 -69 -10.5t-73.5 -29.5t-58.5 -45.5t-24 -57.5q0 2 0 -4q0 -5 2 -7q18 16 41 25.5t51 9.5
q33 0 60.5 -14t47 -37t30 -53t9.5 -62q-1 -40 -18.5 -71t-45 -52.5t-62 -33t-70.5 -11.5q-44 0 -81 17.5t-64 48t-42.5 71.5t-15.5 89q0 90 39 159t105.5 115.5t154.5 70t186 23.5q118 0 212 -35t160 -99t101 -153.5t35 -197.5q0 -58 -15 -120.5t-43.5 -122.5t-70 -114
t-95.5 -96.5t-120 -69.5t-143 -32q-50 -4 -109.5 -2t-120.5 3t-120 -4t-109.5 -23.5t-88.5 -55t-56 -98.5zM340 197q0 41 17 79.5t46.5 68t70 47.5t87.5 18q44 0 82 -18t66.5 -47.5t44.5 -68.5t16 -81q0 -40 -13.5 -80.5t-41 -72.5t-69 -52.5t-97.5 -20.5q-45 0 -83.5 18.5
t-66.5 49.5t-43.5 72.5t-15.5 87.5z" />
    <glyph glyph-name="at" unicode="@" horiz-adv-x="2140" 
d="M1473 246q-53 4 -82 24.5t-43 44.5q-17 28 -21 62q-23 -22 -50 -45.5t-59 -42.5t-68 -31t-77 -12q-67 0 -120.5 29t-90.5 76t-56.5 107t-19.5 122q0 72 25 145t68.5 141.5t101 128.5t122 104.5t133 70.5t132.5 26q43 0 74.5 -8t55 -21.5t40.5 -31.5t31 -39l22 67h314
q-22 -73 -41.5 -138t-38.5 -129t-39.5 -130t-44.5 -143q-6 -17 -11 -32.5t-10 -37.5q-8 -43 14 -71t60.5 -35t86.5 10t91.5 64t76 127.5t40.5 199.5q4 57 -8 123.5t-42 132.5t-79 127.5t-119.5 108.5t-164 75t-212.5 27q-111 -1 -210.5 -28t-186 -72.5t-159 -104.5
t-130 -124t-98.5 -130.5t-64 -124.5q-22 -58 -33 -128t-6.5 -145.5t27.5 -152t67.5 -146.5t113.5 -130t166 -102t225 -62.5t290 -11.5q57 3 109 13t98 24.5t85.5 31.5t71.5 35q76 41 134 92l61 -92q-73 -60 -162 -109q-38 -21 -82.5 -42t-94.5 -38.5t-105 -30t-113 -16.5
q-203 -14 -361.5 7t-279.5 69t-206.5 117.5t-142 151.5t-86.5 171.5t-39 177.5t-0.5 169t28.5 147q28 90 73.5 177.5t111.5 166t153 145.5t197.5 115t246 74.5t297.5 24.5q129 -2 235.5 -30t191.5 -77.5t147.5 -116t104.5 -145t62.5 -166t20.5 -178.5q0 -154 -57.5 -272.5
t-158 -195.5t-237.5 -111.5t-296 -22.5zM1192 694q0 -21 5.5 -40.5t17 -34.5t28.5 -24t41 -9q28 0 55 16t52 43t46 63.5t36.5 78.5t24.5 86.5t9 87.5q0 18 -4 36.5t-13 34t-23 25.5t-35 10q-35 0 -75.5 -30.5t-75.5 -81.5t-60 -118.5t-29 -142.5z" />
    <glyph glyph-name="A" unicode="A" horiz-adv-x="1585" 
d="M-164 -39q23 -13 50 -23q23 -8 53.5 -15t64.5 -7q66 0 125 16.5t114 52t107.5 90t104.5 130.5q104 153 195.5 305.5t171.5 311.5t150.5 326.5t133.5 350.5h756q-77 -138 -146.5 -281t-122.5 -284t-84.5 -276.5t-31.5 -260.5q0 -15 1.5 -43t5 -63.5t8 -75t11 -79
t14.5 -74.5t17 -62h-647q44 38 82.5 70t67.5 66.5t46 76t17 98.5q0 25 -9 47t-24 39t-35 27t-43 10q-45 0 -81 -25.5t-64.5 -67t-51.5 -95t-41.5 -109.5t-34 -110t-30.5 -97q-21 -63 -59.5 -114.5t-88 -87.5t-107.5 -56t-118 -20q-85 1 -161 25.5t-138.5 66.5t-108 98
t-69.5 119zM1190 1057q-48 -36 -93 -84.5t-79.5 -98.5t-55 -97.5t-20.5 -82.5q0 -21 9.5 -39t25.5 -31.5t38.5 -21.5t47.5 -8q39 0 71 15.5t55 43t35.5 65.5t12.5 83q0 33 -3.5 68.5t-10 69.5t-15 64.5t-18.5 53.5z" />
    <glyph glyph-name="B" unicode="B" horiz-adv-x="1317" 
d="M1198 1499q65 0 118.5 -19t92.5 -53t60.5 -81.5t21.5 -104.5q0 -138 -101 -228t-319 -141q75 -41 125 -83.5t80 -88.5t42.5 -98t12.5 -113q0 -107 -42.5 -197t-119 -155t-183 -101t-234.5 -36h-752q57 80 102.5 146t83 124.5t68.5 111.5t58.5 107.5t54 112.5t55.5 125
q42 98 75.5 178t58 148t38.5 126t14.5 111t-12 104t-41.5 105h643zM872 954q154 57 224.5 116.5t70.5 131.5q0 19 -8.5 35.5t-23 28.5t-34 19t-40.5 7q-20 0 -39.5 -6.5t-37 -18.5t-30.5 -28.5t-20 -36.5l-84 -258zM717 532q-7 -21 -4.5 -40.5t13.5 -35t29 -25t42 -9.5
q42 0 80 19t67.5 51.5t46.5 74.5t17 88q0 62 -35.5 96.5t-98.5 34.5q-17 0 -34.5 -1t-40.5 -3z" />
    <glyph glyph-name="C" unicode="C" horiz-adv-x="1384" 
d="M1470 522q-26 -30 -54 -74.5t-56.5 -96t-56 -105t-52 -101.5t-45 -86.5t-35.5 -60.5q-34 -49 -86 -90.5t-113.5 -72t-128.5 -47.5t-132 -17q-118 0 -215 42t-166.5 118t-107.5 182.5t-38 236.5q0 159 38.5 312t106.5 289t162.5 250.5t206.5 197.5t237.5 129.5t256.5 46.5
q85 0 154.5 -24.5t119 -68.5t76.5 -106.5t27 -138.5q0 -69 -25 -130t-67.5 -107t-99.5 -72.5t-122 -26.5q-54 0 -101.5 19.5t-83 52.5t-56.5 77t-21 93q0 41 16 76.5t44 62t66 41.5t81 16q30 1 53 -4t39 -12q18 -8 31 -18q-23 52 -72 78t-108 26q-72 0 -140.5 -24
t-129 -67.5t-111 -103.5t-87 -131.5t-57 -152.5t-20.5 -166q0 -98 27.5 -178t77.5 -137t120.5 -88t157.5 -31q56 0 111 14t111.5 43.5t116.5 75t126 108.5l37 -36z" />
    <glyph glyph-name="D" unicode="D" horiz-adv-x="1282" 
d="M1145 1499q65 0 119.5 -23t95.5 -64t67 -99t33 -129q16 -153 -13 -298t-90 -273.5t-146 -236.5t-181 -188q-55 -46 -125.5 -81t-148.5 -59t-160.5 -36t-161.5 -12h-434q75 120 149 246q32 54 66 114t67.5 123t66 126.5t59.5 123.5q51 112 86 201t57.5 160t32.5 128.5
t10 106.5q0 26 -3.5 48t-12 42t-23 39.5t-37.5 40.5h627zM754 543q90 65 162.5 139t123.5 147.5t79 142.5t28 124q0 66 -29 102.5t-82 36.5q-45 0 -83.5 -27t-69.5 -74.5t-55.5 -113t-40.5 -142.5t-24.5 -162t-8.5 -173z" />
    <glyph glyph-name="E" unicode="E" horiz-adv-x="1323" 
d="M0 0q49 71 89 129.5t72.5 110t60 97.5t52.5 91.5t49 93t50 101.5q122 255 183.5 431t61.5 273q0 37 -10.5 77.5t-42.5 94.5h850l-151 -436q-22 57 -41.5 93t-43 56.5t-52.5 28.5t-70 8q-38 0 -71.5 -12.5t-58 -34.5t-39 -51.5t-14.5 -63.5q0 -46 27.5 -74t71.5 -28
q21 0 39.5 4.5t40 16t49 31.5t65.5 50l-116 -350q-23 19 -41.5 32t-35.5 21t-34 11.5t-37 3.5q-36 0 -67.5 -13.5t-55.5 -36.5t-37.5 -54t-13.5 -66q0 -34 12.5 -63t34 -50.5t50.5 -34t63 -12.5q62 0 108.5 25.5t78 70t47.5 104t16 126.5q100 -40 158.5 -111t58.5 -184
q0 -102 -44.5 -194t-119.5 -161.5t-174 -110t-209 -40.5h-809v0z" />
    <glyph glyph-name="F" unicode="F" horiz-adv-x="1106" 
d="M-236 -279q68 68 123.5 124t101.5 106.5t85 96.5t74.5 94t70.5 99.5t72 112.5q149 245 222 459t73 412q0 35 -2.5 64.5t-8 61t-14.5 67t-22 81.5h966l-159 -452q-28 50 -55 89t-56.5 66t-63.5 41t-75 14t-77 -15.5t-63 -41.5t-43 -61t-16 -74q0 -28 10 -52.5t27.5 -43.5
t40.5 -30t49 -11q18 0 35 4t35.5 13t40 24t49.5 37l-68 -406q-26 36 -48.5 61.5t-44 41t-44 23t-47.5 7.5q-27 0 -52.5 -13t-45 -34.5t-31.5 -49.5t-12 -58q0 -25 8.5 -74.5t19 -106.5t19 -113t8.5 -94q0 -137 -44.5 -243.5t-131.5 -179.5t-214 -110.5t-292 -37.5
q-83 0 -156 15.5t-127 35.5q-63 23 -117 51z" />
    <glyph glyph-name="G" unicode="G" horiz-adv-x="1384" 
d="M1599 809q-30 -44 -53.5 -79.5t-43 -67t-36.5 -61t-34 -62t-35 -70t-41 -84.5q-59 -122 -122 -216t-138 -158t-167.5 -97t-211.5 -33q-117 0 -214.5 41.5t-168.5 116.5t-110.5 178.5t-39.5 226.5q0 50 9.5 109.5t26 122.5t39.5 126t50 120q76 153 172.5 273t208 202.5
t235.5 126t255 43.5q87 0 157 -23.5t120 -67.5t77 -106t27 -139q0 -71 -25.5 -132.5t-69 -107.5t-102.5 -72t-127 -26q-51 0 -96 18.5t-78.5 50.5t-53.5 75t-20 91t16 88t44 69.5t66 46t83 16.5q18 0 32 -2t27.5 -7.5t28.5 -14t33 -21.5q-23 104 -172 104q-73 0 -142 -24
t-130 -67.5t-111.5 -103.5t-87 -132.5t-56.5 -154.5t-20 -169q0 -183 93.5 -281t267.5 -98q81 0 145.5 24.5t130.5 73.5q-24 -7 -49.5 -13.5t-50.5 -10.5t-47.5 -6.5t-40.5 -2.5q-56 0 -103.5 26t-82 70.5t-53.5 103t-19 122.5q0 15 2 35.5t8 48.5q62 -26 107.5 -42t89 -25
t91.5 -12t113 -3q48 0 89 2t86 7t98 13.5t124 20.5z" />
    <glyph glyph-name="H" unicode="H" horiz-adv-x="1530" 
d="M698 0q72 65 133 147.5t105.5 165.5t70 158t25.5 123q0 40 -22.5 64t-57.5 24q-39 0 -71 -33t-60 -87.5t-52.5 -124.5t-49 -145.5t-49 -149.5t-52.5 -136q-34 -75 -87.5 -136.5t-120 -105.5t-143 -68t-156.5 -24q-73 0 -137.5 19t-114.5 53t-82.5 81.5t-42.5 104.5
q84 0 155.5 8t132.5 26.5t113 50t98 79.5q118 119 225 313.5t208 464.5q24 66 42.5 119.5t32 101t22 92.5t14 92.5t8 101.5t3.5 120h459q-53 -67 -90 -117.5t-60.5 -89t-34.5 -68t-11 -55.5t18 -44.5t41 -18.5q30 0 58.5 17t53 46.5t44 68.5t32 82.5t16.5 89.5t-3 89h700
q-57 -41 -121 -99q-55 -50 -125.5 -124t-146.5 -174q-66 -87 -117 -180.5t-90.5 -187.5t-68 -185t-48.5 -172q-47 -191 -61 -377h-535v0z" />
    <glyph glyph-name="I" unicode="I" horiz-adv-x="801" 
d="M0 0q51 63 86.5 111t65.5 93t58 93t62 111q83 152 146.5 297t105.5 282t60 265.5t8 246.5h577q-69 -87 -130.5 -185.5t-112.5 -204t-91.5 -216.5t-68 -222.5t-42.5 -222t-15 -215.5q0 -40 1.5 -69t5 -54t10.5 -50.5t17 -59.5h-743v0z" />
    <glyph glyph-name="J" unicode="J" horiz-adv-x="1137" 
d="M1556 1499q-37 -42 -63.5 -75t-48.5 -65.5t-42.5 -70t-47.5 -88.5q-28 -53 -50.5 -100t-41.5 -94.5t-36.5 -99t-34.5 -113t-35 -136.5t-40 -170q-31 -139 -80 -249.5t-121 -187.5t-171 -118t-232 -41q-94 0 -171 27t-132.5 76t-86 117t-30.5 149q0 77 23 150.5t65 139
t100 121t127 96t147.5 64t160.5 25.5q-58 -34 -97.5 -65.5t-64 -62.5t-35 -63t-10.5 -69q0 -31 11 -57t31.5 -45t48 -29t60.5 -10q39 0 73 14.5t60 40t42 61t18 76.5l22 387q5 81 21.5 152t40.5 129.5t54.5 105t62.5 78.5h503z" />
    <glyph glyph-name="K" unicode="K" horiz-adv-x="1501" 
d="M0 0q105 100 189 184.5t151.5 162t123 151t103.5 151.5q59 95 107 199.5t78.5 214t41.5 220t-3 216.5h524q-63 -66 -117.5 -139.5t-95 -145t-63.5 -135t-23 -108.5q0 -39 37 -39q27 0 59 25.5t65.5 68.5t68 100t66.5 120t60.5 128t50.5 125h519q-39 -22 -66 -40
t-49.5 -38t-45.5 -45t-55 -61q-103 -116 -162 -185.5t-79 -91.5q-35 -37 -67.5 -66.5t-71.5 -55.5t-90 -49t-123 -46q24 -27 40 -57t28 -73.5t20.5 -105t15.5 -151.5q13 -160 43.5 -272.5t82 -183.5t125 -103.5t173.5 -32.5q37 0 67 3.5t60 12.5t64 24.5t79 39.5
q-54 -137 -121.5 -237.5t-144 -166t-161 -97t-173.5 -31.5q-94 0 -172.5 34.5t-135.5 96t-88.5 147t-31.5 187.5q0 53 4.5 103.5t15.5 112t30 139.5t48 185q14 63 22.5 115t8.5 94q0 120 -82 160q-22 -34 -43.5 -88.5t-39 -124t-28 -150.5t-10.5 -168q0 -30 1.5 -55t5.5 -51
t10 -56t16 -71h-862v0z" />
    <glyph glyph-name="L" unicode="L" horiz-adv-x="1298" 
d="M0 0q82 107 158 225.5t142 241t120 245t92 236.5t59 216t21 184q0 35 -9.5 68t-31.5 83h829q-46 -20 -79.5 -36t-61 -32.5t-52.5 -35.5t-54 -43q-86 -74 -162 -167.5t-132.5 -191.5t-89 -192t-32.5 -168t43.5 -117t116.5 -43q50 0 95 19t78.5 51.5t53.5 75t20 90.5
q0 10 -0.5 18.5t-2 18t-4 21.5t-7.5 28q105 -50 165 -134t60 -204q0 -97 -42 -180.5t-116 -145t-174.5 -96.5t-218.5 -35h-784v0z" />
    <glyph glyph-name="M" unicode="M" horiz-adv-x="1794" 
d="M-12 -43q95 73 182 160t164 183t141.5 199.5t112.5 209.5q48 107 90 219.5t73 217.5t49.5 197t20.5 156h547q-59 -66 -105.5 -144t-78.5 -163t-49 -175.5t-17 -180.5q0 -53 16.5 -80t45.5 -27q23 0 49.5 26t56 75t60 119.5t61.5 158.5q23 67 40.5 119t30.5 92t21.5 69
t13.5 49q12 47 13 62h698q-57 -46 -97 -81.5t-71.5 -69t-59.5 -70.5t-61 -86q-59 -88 -107 -199.5t-82.5 -235t-53.5 -253.5t-19 -256q0 -69 12.5 -129.5t28.5 -105.5q18 -53 41 -97q-26 -17 -57 -30q-26 -11 -59 -20t-68 -9q-58 0 -109.5 21t-89.5 57t-60 85t-22 105
q0 42 8 86t25 90q14 38 23 64.5t12 44.5t-1 28t-16 13q-20 5 -38.5 -9t-34.5 -41t-29 -63t-22 -74.5t-14 -76.5t-5 -68q0 -19 1 -33.5t4 -27.5t8 -26.5t14 -31.5h-473q81 72 122 164.5t41 195.5q0 26 -4.5 48.5t-12 39.5t-17.5 27t-21 10q-20 0 -30 -24.5t-13 -63.5
q-12 -142 -55.5 -252t-115 -185t-170 -114t-220.5 -39q-75 0 -140 13t-114 29q-57 18 -104 42z" />
    <glyph glyph-name="N" unicode="N" horiz-adv-x="1534" 
d="M-143 -109q91 38 172.5 94t156 132t142 172.5t131.5 214.5q131 244 200.5 495t75.5 500h447q-33 -54 -59 -112t-44 -117t-27.5 -117t-9.5 -111q0 -19 2.5 -49t7 -64t11.5 -68.5t15.5 -62t19.5 -44.5t24 -17t26.5 16.5t27 46t27 70t26.5 88.5q37 140 56 241t27 168
q10 78 9 132h694q-95 -57 -172.5 -119t-143 -134.5t-122.5 -159t-111 -193.5q-125 -251 -185 -474.5t-48 -418.5h-428q30 42 49 87.5t29.5 87t14.5 73.5t5 47q1 21 -1.5 51t-11.5 62t-25.5 62.5t-43.5 53.5q-7 -167 -51 -303t-119 -233t-177 -149.5t-224 -53.5
q-81 -1 -152.5 15.5t-125.5 36.5q-62 24 -115 54z" />
    <glyph glyph-name="O" unicode="O" horiz-adv-x="1509" 
d="M909 1417q20 96 84 143.5t176 47.5q118 0 210 -39.5t155 -117t96 -190.5t33 -260q0 -131 -28 -266t-80.5 -260t-127.5 -234.5t-169 -190.5t-205 -128t-236 -47q-141 0 -254.5 43.5t-193 124.5t-122 197t-42.5 260q0 99 23 202t62.5 200.5t94 184t117.5 152.5
q30 31 63.5 55t68 42.5t68 31.5t64.5 22q72 21 143 27zM987 340q60 0 118 29.5t110 81t96.5 123t76.5 156t50 178t18 190.5q0 62 -14 112t-40 85.5t-63 55t-82 19.5q-69 0 -133 -34.5t-119.5 -92t-100.5 -133t-77 -157.5t-49.5 -166t-17.5 -158q0 -140 59 -214.5t168 -74.5z
" />
    <glyph glyph-name="P" unicode="P" horiz-adv-x="1452" 
d="M-72 -70q119 86 224.5 191t193 222t157 245t117.5 260.5t73.5 268t25.5 267.5q0 26 -1.5 50t-4.5 65h747q63 0 114.5 -22.5t88 -64.5t56.5 -101t20 -133q0 -121 -47 -228.5t-128 -187t-188.5 -126t-228.5 -46.5q-58 0 -93 -1.5t-56 -5t-32 -10t-20 -16.5
q-12 -13 -19.5 -26.5t-15 -42.5t-17 -81t-26.5 -141q-46 -242 -186 -367.5t-369 -125.5q-41 0 -79.5 6.5t-73 17.5t-65.5 25t-57 29q-61 34 -110 79zM938 711q80 41 149 101.5t119 127.5t78.5 133t26.5 117q-2 37 -26 62.5t-64 25.5q-29 0 -58 -12.5t-55.5 -35t-49 -54.5
t-38.5 -70q-18 -42 -30 -77t-20.5 -77.5t-15.5 -99.5t-16 -141z" />
    <glyph glyph-name="Q" unicode="Q" horiz-adv-x="1567" 
d="M811 -137q-11 -2 -27 -4q-14 -2 -32.5 -3t-44.5 -1q-108 0 -201.5 46t-162.5 126.5t-108.5 189.5t-39.5 236q0 111 28 216t79 197.5t121.5 170t155 133t181 87t198.5 31.5q-8 48 10 90.5t56.5 74t92.5 49.5t118 18q101 0 184.5 -41t143 -116t92.5 -179t33 -230
q0 -101 -16.5 -201t-47 -194.5t-74.5 -182t-98.5 -162.5t-119.5 -136t-138 -103q-47 -27 -75 -43t-43 -27.5t-20 -19.5t-5 -18q0 -11 7.5 -22.5t21.5 -21.5t34.5 -16t46.5 -6q22 0 66 9t96.5 20.5t106.5 21t96 11.5q101 4 196.5 -23t171 -78t125.5 -123t60 -159
q-42 18 -74.5 29t-62.5 18t-61 9.5t-71 2.5q-54 0 -113.5 -16t-124 -40t-133.5 -52t-141.5 -53t-148.5 -43t-154 -21q-76 -3 -139 17t-108.5 57.5t-71 88.5t-25.5 111q0 23 7 47t18 48t25.5 46.5t29.5 42.5q35 47 80 91zM1012 211q60 0 118.5 29t110.5 80t96 121.5t76 154.5
t50 178t18 191q0 65 -16 119.5t-45 93.5t-68.5 60.5t-87.5 21.5q-69 0 -133 -36.5t-119 -97t-100 -140t-77 -165t-49.5 -171.5t-17.5 -161q0 -60 18 -111t50.5 -88t77.5 -58t98 -21z" />
    <glyph glyph-name="R" unicode="R" horiz-adv-x="1497" 
d="M0 0q34 33 76.5 80.5t88 103.5t92 117.5t89.5 121t79.5 114.5t61.5 98q55 92 98.5 188.5t73.5 190t46 180.5t16 162q0 20 -3.5 44.5t-8.5 46.5q-5 26 -13 52h762q67 0 123.5 -26t98 -73t64.5 -111.5t23 -141.5q0 -79 -26.5 -149t-73.5 -127t-112 -101t-142.5 -72
t-165 -39.5t-178.5 -3.5q28 -32 46.5 -61.5t30.5 -64.5t19 -78.5t13 -104.5q7 -76 15 -131t20 -96.5t28.5 -74t40.5 -62.5q31 -40 74 -73t93.5 -56.5t106.5 -36.5t113 -13q27 0 49 2t45.5 6.5t50 12t62.5 18.5q-54 -128 -126.5 -224.5t-156 -162t-172 -98.5t-174.5 -33
q-97 0 -178.5 33.5t-141 93t-93 141t-33.5 177.5q0 41 11.5 96t28 117t35 127.5t33 127.5t22 118t1.5 98q-5 31 -14.5 56.5t-20.5 45.5q-12 23 -27 41q-39 -129 -70 -244q-13 -49 -26 -100t-23 -98t-16 -87t-6 -67h-729v0zM938 817q165 72 252.5 153t87.5 163
q0 24 -8.5 45.5t-24 37t-36 24.5t-44.5 9q-27 0 -48.5 -10t-38.5 -26.5t-29 -36.5t-19 -41q-5 -16 -15 -44.5t-23 -69t-27 -91.5t-27 -113z" />
    <glyph glyph-name="S" unicode="S" horiz-adv-x="1208" 
d="M223 705q97 -183 192.5 -270t202.5 -87q35 0 64.5 14.5t51 37.5t33.5 51t13 55q1 22 -3 41.5t-21.5 48t-53 71t-98.5 109.5q-80 85 -117.5 169.5t-37.5 180.5q0 95 35.5 174t99.5 137t151.5 90t192.5 32q84 0 157.5 -25.5t128 -69.5t86 -104t31.5 -129q0 -46 -17 -86.5
t-46.5 -70.5t-68.5 -47t-83 -17q-40 0 -75 13.5t-61 38t-41 58.5t-15 74q0 36 14 68t38 56t56 38t68 14q6 0 17 -1.5t24 -4.5q-18 18 -34.5 31t-33 20.5t-34.5 11t-40 3.5q-43 0 -80.5 -17t-65.5 -47t-44 -70t-16 -86q0 -36 6.5 -63.5t24.5 -56t51.5 -61.5t87.5 -81
q239 -212 239 -483q0 -130 -47.5 -243.5t-130 -198.5t-193 -134t-235.5 -49q-57 0 -118 10t-122 28.5t-120 45t-113 60.5z" />
    <glyph glyph-name="T" unicode="T" horiz-adv-x="1583" 
d="M174 0q23 23 63 69.5t90 109t106.5 137.5t111.5 155.5t105 163t88.5 160t61.5 146.5t23 122q0 40 -31.5 62t-86.5 22q-46 0 -101 -8.5t-111.5 -24t-111 -36.5t-98.5 -46q21 114 79.5 206.5t144 159.5t193 107t228.5 49q69 6 134 0.5t124.5 -14.5t112 -17.5t96.5 -9.5
q86 -1 161.5 8t147 29.5t142 52.5t145.5 78q24 -84 21 -166t-27 -155t-68 -134.5t-103.5 -106.5t-132 -70t-153.5 -25q-36 0 -65 2.5t-63 10t-80 23t-116 40.5q-36 -43 -65.5 -102.5t-53 -128.5t-41 -142.5t-29 -144t-17 -134.5t-5.5 -114q0 -45 8.5 -102.5t19.5 -109.5
q12 -61 28 -122h-875v0z" />
    <glyph glyph-name="U" unicode="U" horiz-adv-x="1270" 
d="M371 1583q66 62 129.5 88.5t140.5 26.5q68 0 127 -25.5t103.5 -69t70 -102t25.5 -125.5q2 -72 -36.5 -163.5t-109.5 -202.5q-56 -86 -88.5 -140.5t-49.5 -89.5t-21.5 -56.5t-4.5 -41.5q0 -32 11.5 -60t31.5 -48.5t47.5 -32t59.5 -11.5q79 0 151 58.5t126.5 157t87 228
t32.5 271.5q0 40 -2 70.5t-6.5 59t-13 58t-21.5 66.5h559q-89 -72 -152 -148t-95 -141q-15 -30 -31 -70.5t-36.5 -100t-46.5 -141t-61 -193.5q-37 -121 -72.5 -225.5t-76.5 -190t-90 -151.5t-112.5 -111t-144.5 -68t-186 -22q-103 1 -183.5 28t-136 78.5t-84 126
t-28.5 170.5q2 66 15 127t39 115q73 147 126.5 274.5t89 227.5t53 168.5t17.5 97.5q0 77 -41 138t-112 95z" />
    <glyph glyph-name="V" unicode="V" horiz-adv-x="1495" 
d="M51 0q62 58 117.5 139t103 176t85.5 199.5t64.5 209t41 205t14.5 187.5q0 52 -4 99.5t-14 93.5t-26.5 92.5t-41.5 97.5h776q-93 -82 -170.5 -178.5t-134 -195.5t-88 -196t-31.5 -181q0 -31 7.5 -67t20.5 -66t29.5 -48.5t35.5 -15.5q18 3 30.5 33t22 73.5t18 94.5t17.5 96
q38 183 114.5 338t184 267.5t242.5 175.5t290 63q99 0 192.5 -22.5t172.5 -65.5q-73 -29 -137 -60.5t-122 -67t-111.5 -76.5t-104.5 -89q-87 -82 -172 -179t-162.5 -204t-145.5 -222t-123 -233t-93.5 -237.5t-57.5 -235.5h-840v0z" />
    <glyph glyph-name="W" unicode="W" horiz-adv-x="1790" 
d="M0 0q85 65 159.5 150t136 183t109.5 206.5t81 221.5t50 228.5t17 227.5q0 50 -5.5 100.5t-15.5 96t-23.5 84.5t-29.5 65q50 27 101 40t104 13q62 0 107.5 -21t75 -57t44.5 -83t17 -99t-8 -105t-31 -102q-7 -16 -14.5 -35t-10 -35.5t1.5 -27.5t19 -11q20 0 42 25.5t41 66
t34 91t21.5 101.5t2 97.5t-24.5 77.5h504q-91 -72 -141.5 -159.5t-50.5 -172.5q0 -69 12.5 -113t34.5 -44q2 0 8.5 1.5t14.5 12t16.5 34.5t15.5 68q20 129 65.5 230.5t114 171t157.5 106.5t196 37q115 0 218.5 -21.5t186.5 -64.5q-66 -40 -136.5 -94.5t-140 -119
t-135 -137.5t-120.5 -151q-78 -111 -147.5 -242.5t-124.5 -272t-93 -285.5t-53 -283h-557q50 54 95.5 129.5t80.5 162.5t55.5 181t20.5 184q0 44 -13.5 71.5t-31.5 29.5q-22 1 -53.5 -36t-68 -98.5t-74.5 -141t-71.5 -164t-60 -167.5t-39.5 -151h-686v0z" />
    <glyph glyph-name="X" unicode="X" horiz-adv-x="1708" 
d="M-123 -74q80 24 163 59q71 30 154 74t158 103q237 186 355 367t118 374q0 75 -14 147.5t-43 145.5t-73 147.5t-105 155.5h682q-100 -114 -149.5 -225.5t-49.5 -216.5q0 -27 3 -55.5t8.5 -55.5t12.5 -50.5t15 -39.5q18 22 30 43t25 60.5t30 108.5t44 187q24 102 74.5 185
t120 141.5t155.5 90.5t181 32q65 0 129 -12t121.5 -34t106 -52t81.5 -66q-64 -28 -131 -60t-131 -66.5t-123.5 -69.5t-110.5 -70q-208 -143 -309.5 -290t-101.5 -308q0 -66 18 -146t53 -168t87.5 -180t121.5 -182h-745q53 51 89 95t58 85t31.5 79t9.5 77q0 18 -3.5 36
t-8.5 32q-5 17 -13 32q-46 -30 -92 -80q-39 -43 -82 -113t-77 -173q-27 -83 -68.5 -150t-98 -114t-129 -73t-161.5 -26q-60 0 -119.5 15.5t-114 44t-101.5 69t-81 90.5z" />
    <glyph glyph-name="Y" unicode="Y" horiz-adv-x="1761" 
d="M20 0q81 41 164 96t160.5 118.5t145.5 132t118.5 136t79.5 130t29 114.5q0 40 -13.5 95t-37.5 124q-29 81 -50 139t-35 102.5t-22 79.5t-11 69.5t-2.5 73t3.5 89.5h573q-48 -51 -82.5 -94.5t-57 -85.5t-33.5 -85.5t-11 -94.5q0 -73 22 -130t68 -108q65 53 104.5 121
t60 145.5t24.5 162t-3 169.5h1039q-150 -73 -260 -131.5t-195.5 -110t-153 -101t-133.5 -105.5q-239 -204 -359 -407t-120 -404q0 -30 2.5 -55t9 -52t19 -58.5t31.5 -74.5h-1074v0z" />
    <glyph glyph-name="Z" unicode="Z" horiz-adv-x="1372" 
d="M248 528q99 29 198.5 90t196.5 146q50 44 92 87.5t81 92t77 105.5t80 129q-35 24 -94 38.5t-127 14.5q-38 0 -75 -6t-75 -18t-79.5 -30.5t-88.5 -43.5l109 366h1136q-13 -34 -24.5 -58.5t-26 -47t-34.5 -46t-50 -55.5q-40 -43 -92 -94t-109 -104t-115.5 -104t-109.5 -93
q-84 -68 -134.5 -112t-82.5 -77.5t-52 -65t-42 -75.5q59 -7 120.5 -10t119.5 2.5t110 20.5t91.5 44.5t64 74.5t26.5 110q41 -43 57.5 -97t16.5 -132q0 -121 -44 -227t-121 -184.5t-181.5 -123.5t-226.5 -45h-748z" />
    <glyph glyph-name="bracketleft" unicode="[" horiz-adv-x="649" 
d="M1079 1669l-35 -147q-39 -5 -74 -6t-62 1q-32 2 -58 5q-11 -63 -32 -159.5t-52 -217.5t-70 -263t-85 -297.5t-99 -320.5t-111 -332q32 8 66.5 9t63.5 -1q33 -3 65 -8l-35 -145l-588 -10q163 466 267 815t163 583t81 354.5t20 129.5z" />
    <glyph glyph-name="backslash" unicode="\" horiz-adv-x="1784" 
d="M1202 563q54 -73 107.5 -132.5t103.5 -107t96 -83.5t86 -63q93 -62 177 -93q-112 -94 -246 -145t-283 -37q-67 6 -128 28t-115 57.5t-99.5 82.5t-81.5 104q-70 108 -115.5 221.5t-82 229t-73 231.5t-87.5 229q-30 67 -72.5 122t-97 91t-122.5 49.5t-149 -1.5
q7 48 31.5 85.5t60.5 63t80 38.5t89 13q95 0 175.5 -29.5t149.5 -80t128 -118.5t111 -145.5t98 -160.5t89 -163t85 -153.5t85 -132.5z" />
    <glyph glyph-name="bracketright" unicode="]" horiz-adv-x="723" 
d="M-27 -223l35 147q40 5 75 6t62 -1q32 -2 58 -5q26 145 69 320t101 376t128 425.5t150 467.5q-32 -8 -66 -8.5t-63 1.5q-33 3 -65 7l35 146l587 10q-163 -466 -266.5 -815t-162.5 -583t-80.5 -354.5t-20.5 -129.5z" />
    <glyph glyph-name="asciicircum" unicode="^" horiz-adv-x="711" 
d="M186 113q1 128 31 251t73.5 241t93 232.5t89 225.5t61.5 220t11 216h442q12 -39 7.5 -85.5t-19.5 -96.5t-38 -103.5t-48.5 -107t-50.5 -106.5t-45 -103q-43 -107 -80.5 -205t-65 -193t-43.5 -189t-16 -193q0 -45 8 -92.5t24.5 -92.5t41.5 -85t59.5 -69.5t78 -46.5
t97.5 -16v-47q-12 -5 -37 -9.5t-54.5 -8t-60 -6t-55.5 -2.5q-250 9 -377.5 126.5t-126.5 344.5z" />
    <glyph glyph-name="underscore" unicode="_" horiz-adv-x="1374" 
d="M-37 -180h1383l-37 -168h-1381z" />
    <glyph glyph-name="grave" unicode="`" horiz-adv-x="754" 
d="M803 1479q5 -40 21 -90q14 -43 39.5 -100.5t68.5 -125.5h-277q-31 51 -74 106q-37 47 -90.5 102t-123.5 108h436v0z" />
    <glyph glyph-name="a" unicode="a" horiz-adv-x="1272" 
d="M905 -49q-30 0 -53 7.5t-40 19t-28.5 26t-19.5 29.5q-18 35 -21 80q-25 -25 -55 -51t-65.5 -47t-76 -34.5t-85.5 -13.5q-75 0 -134.5 32.5t-100 85t-62 119t-21.5 134.5q0 80 28 161.5t76 158t111.5 143t135 116.5t147.5 78.5t147 28.5q48 0 83 -9t61.5 -24t45.5 -35
t34 -43l24 74h348q-24 -81 -45.5 -153t-42.5 -143t-43.5 -145t-50.5 -159q-6 -19 -14 -42t-8 -36q0 -22 26 -22q16 0 30 9.5t26 22.5t21.5 27.5t16.5 24.5h50q-32 -86 -77.5 -163t-102 -134t-123.5 -90.5t-142 -32.5zM594 467q0 -24 6 -46t18.5 -38.5t31.5 -26.5t46 -10
q30 0 60.5 17.5t58 48t51 71t41 86.5t27.5 95.5t10 97.5q0 20 -4.5 41t-14.5 38.5t-26.5 28.5t-40.5 11q-37 0 -82 -33.5t-84 -90.5t-66.5 -132t-31.5 -158z" />
    <glyph glyph-name="b" unicode="b" horiz-adv-x="1135" 
d="M246 57q-25 0 -52 -8.5t-53 -24.5t-49 -37.5t-41 -47.5l-41 22q35 76 80.5 175t94.5 216.5t98 251.5t92 279.5t76.5 300.5t50.5 315h426q15 -46 15 -86t-13 -81t-38.5 -87.5t-62.5 -105.5q-23 -40 -46 -79.5t-41 -71.5l-40 -70q24 18 52 36.5t58 33t61.5 23.5t62.5 9
q50 0 93.5 -23t76 -66.5t51.5 -106.5t19 -142q0 -87 -20.5 -179.5t-58.5 -181t-91 -167.5t-118 -138.5t-140.5 -94t-157.5 -34.5q-47 0 -83 12.5t-64.5 31.5t-52.5 41t-46.5 41t-46 31.5t-51.5 12.5zM590 451q0 -28 10 -53.5t26 -45t37.5 -30.5t43.5 -11q48 0 88 20t72 52.5
t56 73.5t40 83.5t24 83t8 70.5q0 85 -29 131.5t-81 46.5q-43 0 -81.5 -20.5t-71.5 -54t-59 -77t-44.5 -90.5t-28.5 -93.5t-10 -85.5z" />
    <glyph glyph-name="c" unicode="c" horiz-adv-x="1010" 
d="M135 279q0 79 28 164.5t76.5 167t115.5 155t146 128.5t167.5 87.5t179.5 32.5q51 0 102 -14.5t91.5 -44.5t66 -75.5t25.5 -107.5q0 -37 -15.5 -70t-41.5 -58t-60 -39.5t-72 -14.5q-56 0 -94.5 31t-44.5 84q0 36 12 60t28.5 38.5t35.5 21.5t32 9q17 2 32.5 -1t23.5 -6
q-2 16 -13 28q-9 11 -26 19.5t-47 8.5q-43 0 -89.5 -39.5t-84.5 -106t-63 -154t-25 -184.5q0 -67 13.5 -112.5t35.5 -73.5t50.5 -40.5t57.5 -12.5q20 0 41 7.5t35 18.5q21 18 35.5 30.5t27.5 24t28 23.5t38 27l35 -49q-4 -2 -13.5 -10t-21 -18.5t-23 -21.5t-18.5 -20
q-121 -154 -236 -226.5t-225 -72.5q-81 0 -146 30.5t-110.5 84.5t-69 128.5t-20.5 162.5z" />
    <glyph glyph-name="d" unicode="d" horiz-adv-x="1233" 
d="M723 121q-26 -31 -56.5 -60t-65.5 -51.5t-74 -36.5t-83 -14q-64 0 -120.5 28t-98 75.5t-65.5 110t-25 132.5q-1 92 25.5 180t71.5 167t106 145.5t129.5 115.5t141.5 79t143 34q60 4 103 -11.5t72 -35.5q34 -24 58 -55q15 45 41 110.5t49.5 142t37.5 159.5t5 163h420
q7 -82 -18 -177t-67.5 -196.5t-95 -206t-101 -207t-84.5 -199t-46 -181.5q-3 -22 10.5 -37.5t34.5 -15.5q14 0 30 14.5t30 31.5q17 20 33 46h49q-25 -70 -70.5 -144t-102.5 -134.5t-122.5 -99t-130.5 -38.5q-33 0 -63.5 14t-53 37t-35.5 53t-12 62zM567 477
q2 -66 33.5 -99.5t81.5 -33.5q30 0 57 17.5t50 46t42.5 63.5t34.5 70t24.5 65.5t12.5 50.5q3 15 6.5 38t6 49t1.5 51.5t-8.5 46.5t-22.5 34t-42 13q-31 0 -64 -22t-62 -51.5t-51.5 -59.5t-31.5 -47q-32 -58 -50.5 -112t-17.5 -120z" />
    <glyph glyph-name="e" unicode="e" horiz-adv-x="989" 
d="M123 256q0 106 34 205t92 185.5t135 157t162.5 120.5t175.5 76.5t173 23.5q45 -1 85 -17.5t69.5 -45t46 -68.5t14.5 -88q-2 -75 -34 -133t-83.5 -97t-119 -57.5t-140.5 -15.5q-18 1 -34.5 2.5t-29.5 3.5q-15 2 -28 4q-5 -22 -9 -44q-4 -19 -6.5 -41t-2.5 -42
q0 -29 6 -67.5t21 -72.5t41.5 -57.5t68.5 -23.5q38 0 72.5 13t64 30.5t54.5 35t44 25.5l27 -51q-20 -13 -45 -34q-21 -18 -50.5 -46t-64.5 -67q-37 -42 -81 -77.5t-92 -61t-98.5 -40t-101.5 -14.5q-41 -1 -83 8t-80 26.5t-71.5 43.5t-57.5 61q-35 51 -54.5 113t-19.5 127z
M659 598q50 -9 87 0t63 25t41 34t22 27q19 25 31.5 55t14 57t-9 45t-38.5 19q-31 1 -63.5 -26.5t-62 -68t-52 -86.5t-33.5 -81z" />
    <glyph glyph-name="f" unicode="f" horiz-adv-x="739" 
d="M-532 -264q33 -31 72 -55q33 -20 76.5 -37t94.5 -15q60 2 108 20.5t85.5 47t65 64.5t47.5 73.5t33 73t22 63.5l288 928q-28 4 -55 3q-23 -1 -48.5 -5.5t-45.5 -17.5l27 108q45 -10 85 1q17 5 34.5 14.5t33.5 26t29.5 41.5t21.5 60q17 69 48 144t79 136.5t115 101.5
t156 40q37 0 75.5 -11t70 -34.5t51.5 -60.5t20 -88q0 -24 -10 -53t-29 -54t-45.5 -42t-59.5 -17q-45 0 -75 13t-48 35.5t-26 51.5t-10 60q-26 5 -46.5 -9.5t-33.5 -37t-18.5 -47.5t-2.5 -41q2 -46 17 -80t39 -58.5t53.5 -41t60.5 -26.5q72 -24 164 -24l-20 -88h-156
q-77 -240 -139 -436q-27 -84 -53 -166t-47.5 -150.5t-36 -116t-19.5 -61.5q-31 -105 -92 -191t-144 -146.5t-184.5 -94t-214.5 -33.5q-100 0 -181 27.5t-140 60.5q-69 39 -123 89z" />
    <glyph glyph-name="g" unicode="g" horiz-adv-x="1251" 
d="M436 -649q-113 3 -190.5 43t-126 101.5t-71 136.5t-25.5 147.5t11 135t38 99.5q31 -61 80 -110q21 -21 48.5 -41t61.5 -36t75 -26.5t89 -11.5q75 -2 137.5 26t107.5 76.5t71 114t28 139.5q-21 -37 -57.5 -69t-79 -55.5t-87 -36.5t-81.5 -13q-67 0 -120.5 22t-92.5 60
t-64 89t-35.5 108.5t-6 118.5t23.5 120q35 103 99.5 200t149 172.5t183.5 121t203 45.5q60 0 99.5 -19t63.5 -42q28 -27 44 -62l24 82h359q-55 -125 -96 -246t-71.5 -233t-52.5 -213.5t-39.5 -189.5t-31.5 -160t-29 -125q-29 -105 -90 -193t-145 -150t-187 -95.5t-217 -30.5
zM666 719q-13 -21 -27.5 -56t-25 -76t-15 -82.5t1.5 -76t25.5 -56t56.5 -22.5q28 -4 63 21t69.5 69.5t64 104t47.5 125.5q10 37 12 73t-5.5 64.5t-25.5 46.5t-47 18q-37 0 -67 -15.5t-54 -38.5t-41.5 -49.5t-31.5 -49.5z" />
    <glyph glyph-name="h" unicode="h" horiz-adv-x="1169" 
d="M664 162q0 65 17 125t41.5 116.5t53 111t51.5 106.5q8 18 18 38t19 41t15 41.5t6 38.5q0 26 -12 44t-39 20q-25 1 -51 -15.5t-51.5 -44.5t-49 -65.5t-44 -77.5t-36.5 -80.5t-27 -75.5q-35 -115 -54 -205t-28 -153q-11 -73 -12 -127h-440q9 30 25.5 73t36.5 93t42.5 103
t43.5 103.5t39 94t30 74.5q45 120 77.5 213t55 170t37.5 143t26.5 132.5t21 138.5t20.5 161h419q18 -55 13.5 -104.5t-21.5 -94.5t-42.5 -86.5t-49.5 -80.5q-13 -22 -33.5 -52t-40 -61.5t-33.5 -60.5t-14 -48q60 48 122.5 78.5t131.5 30.5q56 0 100 -23t75.5 -60t48 -84
t16.5 -95q0 -71 -19 -138t-41 -133q-12 -40 -27.5 -78t-15.5 -81q0 -14 3.5 -27t19.5 -16q20 0 38 13t33 30q18 19 33 43h50q-17 -41 -40 -88t-51 -93.5t-62.5 -88.5t-75 -74t-88.5 -50.5t-103 -17.5q-45 0 -78.5 16.5t-55.5 44.5t-33 65t-11 77z" />
    <glyph glyph-name="i" unicode="i" horiz-adv-x="668" 
d="M133 174q0 64 18.5 127.5t47.5 129.5t64 135t67 143q14 32 24.5 68t16.5 72.5t7 71.5t-5 66h438q-45 -104 -85 -197q-17 -40 -34 -81.5t-32 -80t-27 -72t-19 -56.5q-3 -10 -10 -32.5t-14.5 -50.5t-13 -57.5t-5.5 -54.5q0 -9 1 -19.5t5 -20t11.5 -15.5t19.5 -6
q19 0 37 15.5t33 35.5q18 23 33 51h51q-2 -11 -18 -46t-44 -81t-67 -97t-86.5 -94.5t-102.5 -72.5t-116 -31q-54 -2 -91 22t-60.5 61.5t-33.5 82t-10 84.5zM442 1229q0 46 18.5 82.5t49.5 61.5t71.5 38.5t84.5 13.5q37 0 75.5 -13.5t70 -38.5t51.5 -60t20 -78
q0 -24 -11.5 -58t-37.5 -64.5t-67 -52.5t-101 -22q-40 0 -80 13.5t-72 38t-52 60t-20 79.5z" />
    <glyph glyph-name="j" unicode="j" horiz-adv-x="768" 
d="M-246 -205q0 33 5 68t12 64q8 34 18 67q25 -37 56 -65q13 -12 28.5 -23.5t32 -20.5t34.5 -14t37 -4q60 2 113 50t99 126t84 177.5t69 203t53.5 203t36.5 178.5t20 128.5t3 53.5h465q-60 -116 -115 -253q-23 -58 -47 -127t-46 -146.5t-40.5 -161t-30.5 -172.5
q-11 -79 -29 -163t-46.5 -163t-69 -149.5t-98.5 -123t-134.5 -83.5t-175.5 -31q-32 0 -69.5 7.5t-74.5 25t-71.5 46t-60.5 71t-42 99.5t-16 132zM543 1229q0 46 18.5 82.5t49 61.5t71 38.5t84.5 13.5q37 0 75.5 -13.5t70 -38.5t51.5 -60t20 -78q0 -24 -11.5 -58t-37 -64.5
t-67 -52.5t-101.5 -22q-40 0 -80 13.5t-71.5 38t-51.5 60t-20 79.5z" />
    <glyph glyph-name="k" unicode="k" horiz-adv-x="1186" 
d="M879 -109q-49 0 -85.5 16.5t-63.5 44t-44 62t-27 71t-13 71t-1 61.5q3 36 2 78.5t-8 84t-20.5 78.5t-34.5 62q-1 1 -9 -26t-18.5 -71.5t-21.5 -101t-19 -114.5t-10 -112.5t6 -94.5h-489q-1 0 14 35t41 92.5t59 131.5t67 152t66 154t56 137q65 168 106 329.5t41 328.5
q0 16 -0.5 39t-1.5 46q-1 26 -2 54q56 0 92.5 0.5t64.5 0.5h52t54.5 -0.5t71.5 -0.5h105q7 -59 4 -119q-2 -51 -14.5 -111.5t-44.5 -115.5q-6 -11 -21.5 -37t-36.5 -64t-46 -87t-49.5 -105t-47 -117.5t-39.5 -126.5q57 25 99 54t72.5 60t50.5 62t33 59q30 67 30 136h334
q-13 -86 -53 -159q-17 -31 -41 -62.5t-57 -59.5t-76.5 -50.5t-98.5 -34.5l-40 -10t-50.5 -14t-51 -17t-42.5 -19q24 -16 49.5 -34.5t50 -39.5t46.5 -45t38 -51q15 -24 33 -54t40.5 -56.5t50 -44t61.5 -17.5t59.5 12.5t42.5 28.5q20 18 35 41h49q-41 -114 -100 -205
q-25 -39 -56 -75.5t-68.5 -65.5t-81 -46.5t-93.5 -17.5z" />
    <glyph glyph-name="l" unicode="l" horiz-adv-x="686" 
d="M2 0q33 52 66.5 113t66 125t63 129t58 125t50 113t38.5 93t38.5 94.5t45.5 119t45 136.5t37.5 147.5t23.5 152.5t3 151h454q2 -24 -5 -59.5t-20.5 -78t-32.5 -90t-39.5 -96.5t-42.5 -97.5t-42 -92.5q-14 -31 -38.5 -92t-51 -134.5t-49 -153t-31.5 -148.5q-9 -67 -13 -126
t-4 -115q0 -55 3.5 -108.5t7.5 -107.5h-631v0z" />
    <glyph glyph-name="m" unicode="m" horiz-adv-x="1720" 
d="M1171 72q-6 59 2.5 110.5t24.5 96.5t36 85t36 76q13 30 38 76t49 95t41 93t15 70q0 26 -14 47t-39 21q-29 0 -57 -20t-54 -53t-50 -75.5t-45 -86.5t-38.5 -87t-30.5 -78q-14 -39 -31 -92.5t-30.5 -112.5t-19.5 -120.5t2 -116.5h-404q1 62 16 129.5t38 133.5t50.5 129
t53.5 117.5t47.5 97.5t32.5 69q12 28 16 53t4 43q0 26 -15 45t-40 19q-31 0 -61.5 -27.5t-58 -66t-49.5 -80t-36 -70.5q-10 -20 -24 -58t-30 -87.5t-32.5 -107.5t-31 -117t-25 -116t-15.5 -106h-401q4 50 27.5 114t57 137t72 151t72.5 155.5t58 150.5t28 136q2 18 2.5 42
t0.5 47q0 26 -1 54h342q-5 -23 -9 -41l-7.5 -30t-5.5 -17q19 14 50 34.5t68.5 40t79.5 33t82 13.5q27 0 52.5 -8.5t48 -24t40 -37t27.5 -47.5q3 -7 6.5 -19.5t6.5 -27.5t4.5 -30.5t1.5 -26.5q17 21 52 58.5t83 73.5t106.5 62.5t122.5 26.5q51 0 91 -22t67.5 -57t41.5 -80
t13 -91q-1 -48 -11.5 -97t-27 -100t-36 -102.5t-37.5 -103.5q-7 -19 -12.5 -46.5t-2.5 -53t17.5 -44t46.5 -18.5q21 0 40 15t33 33q17 21 31 48h49q-5 -19 -21 -55t-41.5 -80t-59.5 -91t-75.5 -87.5t-90 -69.5t-101.5 -37q-40 -6 -82.5 4t-78.5 35t-60.5 63t-30.5 89z" />
    <glyph glyph-name="n" unicode="n" horiz-adv-x="1161" 
d="M627 131q0 33 9 73t22.5 81t29.5 79t29 66q9 20 24 48.5t31.5 60.5t33 65.5t29.5 64t21 56.5t6 43q0 28 -11.5 51t-43.5 23q-31 1 -61 -23t-57.5 -60.5t-51.5 -80t-42.5 -83.5t-31 -71t-16.5 -41q-42 -110 -59 -199t-21 -152q-4 -74 4 -132h-430q1 24 5 49q3 21 8 44.5
t12 41.5q41 105 94 207t99.5 205.5t76.5 212t26 227.5h336l-18 -86q26 18 56.5 39.5t65.5 39.5t74 29.5t82 10.5q45 0 83.5 -19.5t66 -52.5t44 -77.5t17.5 -94.5q3 -72 -14.5 -131t-41.5 -114.5t-46.5 -112t-30.5 -123.5q-1 -15 3 -31t13.5 -28.5t23 -20.5t30.5 -8
q20 1 37.5 16t31.5 32q16 20 29 46h49q-13 -37 -35 -83t-51.5 -93t-66 -91t-78.5 -78.5t-89 -55.5t-97 -21q-44 0 -82 15.5t-66.5 47t-44.5 78.5t-16 111z" />
    <glyph glyph-name="o" unicode="o" 
d="M541 -106q-109 -1 -181 30t-116.5 80t-65.5 109t-28 116.5t-4.5 102.5t4.5 67q6 62 32.5 132.5t70 140t104 133t135.5 112.5t164 78t190 29q89 0 149.5 -36t95.5 -98t46.5 -144.5t1.5 -176.5q-4 -66 -25 -142t-57 -150.5t-87 -143t-116 -121.5t-143.5 -85t-169.5 -33z
M618 625q-26 -77 -34 -136.5t-3 -104t19.5 -74.5t33.5 -48t40 -25t37 -6q50 6 102 45t94.5 102.5t69.5 147t27 176.5q0 32 -5.5 64t-19.5 58.5t-37.5 43t-58.5 17.5q-42 1 -82.5 -21t-75 -58.5t-62.5 -83.5t-45 -97z" />
    <glyph glyph-name="p" unicode="p" horiz-adv-x="1223" 
d="M-154 -625q0 40 10.5 98.5t29 128.5t43.5 147t53.5 154.5t59 151t60.5 135.5q56 116 106.5 219t88.5 192t62 162.5t28 131.5q1 8 1.5 23.5t1.5 31t1.5 27t1.5 10.5h336l-29 -113q16 18 49.5 44t77 50t92.5 41t97 17q75 0 125 -34t79.5 -87t41.5 -116.5t10 -122.5
q-2 -76 -18 -160.5t-45.5 -166.5t-73 -157t-101 -132t-128.5 -90.5t-156 -33.5q-63 0 -110.5 20t-82 54t-56.5 80t-34 98q-12 -23 -22 -51q-8 -24 -15 -56t-8 -69q-2 -108 -6.5 -200.5t-24.5 -155.5q-18 -80 -57.5 -137t-98.5 -92.5t-135.5 -50.5t-167.5 -11q-20 1 -36 4
t-27 7q-13 4 -23 9zM608 467q0 -36 8.5 -60t21 -39t27.5 -22.5t27 -9.5q48 -10 93.5 12.5t84 64t68 95.5t47.5 108q21 62 25 110t-5 81t-29.5 51t-47.5 21q-38 3 -77 -17t-74.5 -55t-66.5 -80t-53.5 -91.5t-35.5 -91t-13 -77.5z" />
    <glyph glyph-name="q" unicode="q" horiz-adv-x="1239" 
d="M473 -438q0 68 18 125.5t46 107.5t61.5 95t64.5 88t55.5 85.5t33.5 88.5q-59 -79 -139 -127t-179 -48q-69 0 -125 31t-95 83t-59.5 119t-19.5 140q2 68 30.5 145t77 153t113 145.5t136 123t147.5 85.5t147 32q63 0 106 -18.5t69 -41.5q31 -26 49 -61l39 74h354
q-72 -159 -146 -332t-137 -353.5t-109 -365.5t-61 -368q-2 -26 -0.5 -60.5t4.5 -65.5q4 -36 9 -73q-15 -7 -42 -13q-23 -5 -62 -9t-99 -4q-51 0 -102 12t-92 38t-67 68t-26 101zM627 655q-20 -42 -32.5 -92.5t-10 -95.5t23.5 -77t66 -38q43 1 78.5 24.5t64 60.5t50 82.5
t35.5 90.5t21 84t7 62q0 18 -2.5 41.5t-10 44.5t-22.5 35t-41 14q-35 0 -68 -22t-62 -56t-53.5 -76t-43.5 -82z" />
    <glyph glyph-name="r" unicode="r" horiz-adv-x="942" 
d="M43 0q-2 11 0 28t6 33q4 18 10 39q11 39 35.5 93t55.5 117.5t65.5 135t65 145.5t54 148t32.5 144q2 18 2.5 36.5t0.5 33.5q0 18 -1 34h354q-19 -29 -33 -55q-12 -23 -20 -45.5t-4 -36.5q23 19 56 53.5t74 67t88.5 55t98.5 16.5q34 -3 68 -23t53 -54q19 -36 21.5 -74.5
t-5.5 -78t-23 -79t-30 -76.5q-91 -34 -154.5 -57.5t-103.5 -37.5q-47 -17 -76 -27q24 32 43 65q17 28 30 60t13 61q0 22 -11 39.5t-34 17.5t-48 -20t-50 -53t-49 -76t-44.5 -89.5t-36.5 -93t-26 -86.5q1 4 -3 -11t-10 -42.5t-13 -64.5t-11.5 -78.5t-5 -83.5t5.5 -80h-440z
" />
    <glyph glyph-name="s" unicode="s" horiz-adv-x="883" 
d="M457 -131q-13 0 -55.5 3t-101.5 19.5t-129.5 51t-139.5 96.5q1 5 4.5 25.5t9.5 51.5t13.5 69t14.5 77q18 92 38 205q45 -53 94 -96q21 -18 45 -36t49.5 -32.5t52.5 -23.5t54 -11q11 0 22.5 1t21 5.5t16 12.5t7.5 22q1 16 -9 30.5t-28.5 31.5t-44 38t-55.5 50
q-15 15 -31 33.5t-29 44.5t-21.5 60.5t-8.5 80.5q0 72 32.5 137t87 114.5t125.5 80t148 32.5q58 3 124 -10t122.5 -45.5t93.5 -85t37 -129.5q0 -35 -13 -69t-36 -61t-54 -43.5t-67 -16.5q-66 0 -102.5 36t-36.5 95q0 38 15.5 62.5t37 37.5t45 16t39.5 0q0 18 -13.5 31
t-33 20.5t-41 9.5t-37.5 -1q-27 -6 -51 -20.5t-42.5 -35.5t-29 -47.5t-10.5 -56.5q0 -36 15.5 -64.5t38 -52t48.5 -44.5t47 -42q62 -58 100.5 -122.5t38.5 -147.5q0 -81 -30 -151.5t-84.5 -123t-131.5 -82.5t-171 -30z" />
    <glyph glyph-name="t" unicode="t" horiz-adv-x="819" 
d="M133 162q3 56 21.5 113t44 114t54 113t53 109t40.5 102.5t16 93.5q0 24 -8 39.5t-21.5 25t-31 13.5t-35.5 5q-42 2 -96 -11l27 108q72 -17 147.5 -3.5t145.5 47t130.5 81.5t105 100t68.5 103.5t19 91.5h121q-15 -29 -29.5 -58t-26 -59t-19 -61t-7.5 -64q0 -196 172 -178
l-20 -88h-187q-49 -146 -88 -267q-16 -52 -32 -103.5t-28.5 -95.5t-20 -76t-7.5 -46q0 -20 5 -39.5t15 -35t26 -25t38 -8.5q23 1 47.5 21t45.5 44q25 28 48 64l45 -25q-39 -65 -89.5 -135.5t-115 -128.5t-144 -95.5t-177.5 -37.5q-70 0 -118.5 24t-78 60.5t-42.5 81
t-13 86.5z" />
    <glyph glyph-name="u" unicode="u" horiz-adv-x="1190" 
d="M696 172q-31 -30 -63 -63t-68 -61t-77.5 -46t-90.5 -18q-57 0 -104 23.5t-81.5 63.5t-54.5 92.5t-22 110.5q-3 75 11.5 137.5t38 117.5t51.5 106.5t52.5 106t41 114t16.5 131.5h463q-70 -98 -125 -192q-24 -40 -46.5 -83.5t-40 -86t-28 -83t-10.5 -73.5q0 -17 4.5 -35
t13.5 -33t23.5 -24.5t34.5 -9.5q47 0 87 39.5t73 101t59.5 135t47 142.5t35.5 124t24 78h382q-33 -59 -69 -136q-31 -66 -68.5 -158.5t-75.5 -207.5q-11 -34 -21.5 -70t-10.5 -73q0 -17 10.5 -34t32.5 -17q21 0 38 12.5t29 27.5q14 18 25 40h49q-9 -21 -27.5 -59t-46 -83.5
t-63.5 -92t-80 -85t-95 -62.5t-110 -24q-44 0 -75 16.5t-51 45t-29 66t-9 79.5z" />
    <glyph glyph-name="v" unicode="v" horiz-adv-x="1079" 
d="M354 -72q-48 0 -91 17.5t-73.5 55t-45.5 97t-7 144.5q3 39 12.5 76.5t22 75t26.5 74.5t25 75q9 27 26.5 74t29 106t9.5 126.5t-34 137.5h416q11 -48 8 -102.5t-14 -106.5t-27 -98t-31 -78q-17 -37 -35 -76.5t-18 -81.5q0 -44 21.5 -56.5t52.5 -12.5q53 0 100 28.5
t82.5 73.5t56.5 101t21 110q0 50 -10 94.5t-27 83.5t-40 71.5t-50 59.5q28 29 63 51q30 19 71 34.5t91 15.5q56 0 96 -22.5t64.5 -60.5t35.5 -86.5t9 -101.5q-1 -48 -21 -112.5t-55 -137t-83.5 -148.5t-107.5 -148t-126.5 -136.5t-140 -112.5t-149 -76t-153.5 -28z" />
    <glyph glyph-name="w" unicode="w" horiz-adv-x="1632" 
d="M713 190q-52 -57 -96 -102t-86 -76t-86 -47t-95 -16q-58 0 -99 21t-67.5 57.5t-38.5 85t-12 102.5q0 56 18 111.5t44 109.5q21 42 40 88.5t33.5 94.5t23.5 97.5t9 98.5q0 24 -4 54t-9 56q-6 31 -14 62h392q8 -90 2 -151.5t-18.5 -108t-30 -83.5t-33.5 -77
q-13 -31 -28 -63.5t-15 -67.5q0 -22 7 -34.5t18 -18t23.5 -6.5t22.5 0q46 2 82.5 25.5t65 60.5t49 83.5t33.5 94.5t19.5 94t6.5 82q0 18 -2 39.5t-6 44t-10.5 45t-15.5 41.5h391q8 -94 -9 -172.5t-42.5 -143.5t-50 -119t-31.5 -101q0 -31 12 -47.5t43 -24.5q70 0 125.5 32
t94 83.5t58 116.5t17.5 132q1 54 -18 99.5t-42 79.5q-27 40 -61 71q27 30 62 54q30 20 72.5 36.5t96.5 16.5t90.5 -25.5t59 -64.5t32 -85.5t9.5 -88.5q0 -67 -21 -135.5t-56 -136t-81 -134t-96 -129.5q-51 -61 -119.5 -126t-145 -118t-155.5 -87.5t-151 -35.5q-26 0 -52 4.5
t-49.5 15t-42.5 27.5t-31 42q-8 18 -14 46t-10 55q-4 32 -8 66z" />
    <glyph glyph-name="x" unicode="x" horiz-adv-x="1100" 
d="M-215 -84q85 29 148 74t108 121q48 81 95 146t102.5 113t124 80t159.5 48q-46 28 -92.5 65t-84 84t-61 105.5t-22.5 130.5q0 22 1 40.5t3 32.5q2 17 4 31h449q-13 -39 -27 -88t-21.5 -98.5t-4.5 -94t24 -73.5q49 31 88.5 75.5t69 93.5t48.5 97.5t28 87.5h360
q-5 -51 -33 -101.5t-71.5 -98t-100 -89t-118 -73.5t-125 -53t-121.5 -27q31 -31 61.5 -54t59.5 -41t55 -32t47 -27q33 -19 59.5 -45.5t45 -58t28.5 -67t10 -73.5q0 -32 -3.5 -59t-8.5 -47q-5 -23 -12 -41q-133 0 -247.5 -1.5t-195.5 1.5q3 7 17 28t29.5 57t28.5 87.5
t13 118.5q-3 58 -15.5 88.5t-26.5 44.5q-17 17 -37 18q-29 -17 -55 -48q-22 -26 -42 -68.5t-26 -106.5q-1 -15 -4 -44t-8.5 -63.5t-12.5 -70t-18 -64.5q-18 -47 -44.5 -85t-61.5 -65.5t-78 -42.5t-93 -15q-57 0 -114.5 13t-109 34t-96 47.5t-75.5 52.5z" />
    <glyph glyph-name="y" unicode="y" horiz-adv-x="1178" 
d="M541 -559q-100 0 -172 26t-120.5 69t-75 100t-35 119.5t-0.5 126t28 120.5q24 -30 54 -58t64.5 -49t73 -34t78.5 -13q66 0 115.5 27.5t85 73.5t57 106t31.5 125q-30 -37 -63 -71.5t-69.5 -61.5t-78 -43t-88.5 -16q-57 0 -103.5 19.5t-80.5 55.5t-54.5 87.5t-25.5 115.5
q-3 37 5.5 85t25 103t40 114t50.5 118q33 73 52 129t30 94q12 45 16 78h442q-21 -26 -48 -66t-54.5 -88t-53.5 -100.5t-45.5 -103.5t-30.5 -97t-8.5 -81t20.5 -55.5t56 -20.5q35 0 58.5 14.5t48.5 48.5q31 43 56.5 89.5t45.5 93t35.5 92t27.5 86.5q27 96 40 188h401
q-36 -47 -70.5 -113.5t-67.5 -145.5t-65 -166.5t-63 -176.5q-36 -103 -60.5 -201t-45 -185.5t-41 -162t-48.5 -129.5q-22 -45 -58 -92t-83 -85.5t-105 -63.5t-124 -25z" />
    <glyph glyph-name="z" unicode="z" horiz-adv-x="885" 
d="M106 367q36 12 78 34.5t84.5 50t81.5 58t68 57.5q14 13 40 37.5t51.5 54.5t44.5 62t19 59q0 12 -8 20t-20.5 12t-26.5 5.5t-26 1.5q-42 0 -89 -14t-87 -31q-47 -20 -93 -45l76 258h719q-19 -75 -47 -133t-64 -105.5t-78.5 -89t-88.5 -84.5t-95.5 -91t-99.5 -109
q64 -11 112.5 -5t86.5 23.5t68.5 45t57.5 59.5q5 -5 14.5 -19.5t17.5 -38.5t12.5 -58t-1.5 -77q-10 -88 -45.5 -146.5t-81.5 -94t-95.5 -50t-88.5 -14.5h-602z" />
    <glyph glyph-name="braceleft" unicode="{" horiz-adv-x="629" 
d="M453 -231q-78 12 -144 29.5t-111.5 48t-66 78t-8.5 118.5q4 19 19.5 62t36.5 97.5t45 115.5t44.5 116.5t33.5 99.5t13 64q0 59 -24 95t-78 61l27 77q68 9 117 40t87 93t68.5 159t60.5 237q22 98 71.5 160t118.5 93.5t153 33.5t174 -21l-33 -102q-55 0 -103 -27
q-20 -12 -40.5 -30t-38.5 -45.5t-32 -65.5t-22 -88q-18 -120 -49.5 -206t-81 -144.5t-120.5 -94t-169 -53.5q78 -38 119.5 -96t38.5 -135q-1 -27 -14.5 -72.5t-33.5 -100t-42.5 -112.5t-42 -110.5t-32.5 -93.5t-13 -62q0 -24 3.5 -42.5t14 -32.5t30.5 -23.5t54 -16.5
l-30 -104v0z" />
    <glyph glyph-name="bar" unicode="|" horiz-adv-x="872" 
d="M754 1559h170l-336 -1620h-172z" />
    <glyph glyph-name="braceright" unicode="}" horiz-adv-x="686" 
d="M580 1665q78 -12 144 -30t111 -48.5t65.5 -77.5t8.5 -118q-3 -19 -19 -62t-37 -97.5t-45 -115.5t-44 -116.5t-33.5 -99t-13.5 -64.5q0 -59 24 -95t78 -61l-26 -78q-68 -8 -117 -39.5t-87 -93.5t-68.5 -158.5t-61.5 -236.5q-22 -98 -71.5 -160t-118.5 -93.5t-152.5 -34
t-173.5 20.5l32 103q55 0 103 27q20 12 40.5 30t38.5 45.5t32.5 65.5t21.5 88q18 120 49.5 205.5t81.5 144.5t121 94t168 54q-78 38 -119.5 96t-38.5 135q1 27 14.5 72t33.5 99.5t42.5 113t42 111t32.5 94t13 61.5q0 24 -3.5 42t-14 32t-30.5 24t-54 17l31 104v0z" />
    <glyph glyph-name="asciitilde" unicode="~" horiz-adv-x="1022" 
d="M41 0q2 67 28 136.5t62 139.5t75 139t66 134q26 59 46 111t36 103.5t26.5 105.5t16.5 118q110 1 176 1h103q42 0 59 -1l-26 -82q38 30 79 53q35 20 80.5 36t92.5 16q57 0 97.5 -24.5t66.5 -62t38.5 -82t12.5 -85.5q0 -55 -20 -111t-57 -101t-90 -73.5t-120 -28.5t-109 25
t-66 56q-28 36 -42 81q48 12 86 30q16 8 31.5 18t27.5 23t19.5 28.5t7.5 33.5q0 19 -14.5 34t-34.5 15q-19 0 -46 -16.5t-58.5 -55t-64.5 -101.5t-65 -156q-9 -27 -17 -60.5t-15 -70.5t-13 -76t-11 -75q-11 -85 -20 -175h-444z" />
    <glyph glyph-name="Aring" horiz-adv-x="1585" 
d="M-164 -39q23 -13 50 -23q23 -8 53.5 -15t64.5 -7q66 0 125 16.5t114 52t107.5 90t104.5 130.5q104 153 195.5 305.5t171.5 311.5t150.5 326.5t133.5 350.5h756q-77 -138 -146.5 -281t-122.5 -284t-84.5 -276.5t-31.5 -260.5q0 -15 1.5 -43t5 -63.5t8 -75t11 -79
t14.5 -74.5t17 -62h-647q44 38 82.5 70t67.5 66.5t46 76t17 98.5q0 25 -9 47t-24 39t-35 27t-43 10q-45 0 -81 -25.5t-64.5 -67t-51.5 -95t-41.5 -109.5t-34 -110t-30.5 -97q-21 -63 -59.5 -114.5t-88 -87.5t-107.5 -56t-118 -20q-85 1 -161 25.5t-138.5 66.5t-108 98
t-69.5 119zM1190 1057q-48 -36 -93 -84.5t-79.5 -98.5t-55 -97.5t-20.5 -82.5q0 -21 9.5 -39t25.5 -31.5t38.5 -21.5t47.5 -8q39 0 71 15.5t55 43t35.5 65.5t12.5 83q0 33 -3.5 68.5t-10 69.5t-15 64.5t-18.5 53.5zM1249 1827q5 57 31 101t65 75t87 47t97 16q50 0 90 -19
t67.5 -51.5t41 -74.5t10.5 -88q-4 -50 -24.5 -93.5t-56.5 -75.5t-86.5 -50.5t-114.5 -18.5q-48 0 -88.5 18.5t-69 50t-42 73.5t-7.5 90zM1421 1835q-9 -50 10.5 -77t67.5 -27q46 0 80.5 27t44.5 75q9 45 -10.5 72.5t-67.5 27.5q-47 0 -81.5 -26.5t-43.5 -71.5z" />
    <glyph glyph-name="ccedilla" horiz-adv-x="1010" 
d="M135 279q0 79 28 164.5t76.5 167t115.5 155t146 128.5t167.5 87.5t179.5 32.5q51 0 102 -14.5t91.5 -44.5t66 -75.5t25.5 -107.5q0 -37 -15.5 -70t-41.5 -58t-60 -39.5t-72 -14.5q-56 0 -94.5 31t-44.5 84q0 36 12 60t28.5 38.5t35.5 21.5t32 9q17 2 32.5 -1t23.5 -6
q-2 16 -13 28q-9 11 -26 19.5t-47 8.5q-43 0 -89.5 -39.5t-84.5 -106t-63 -154t-25 -184.5q0 -67 13.5 -112.5t35.5 -73.5t50.5 -40.5t57.5 -12.5q20 0 41 7.5t35 18.5q21 18 35.5 30.5t27.5 24t28 23.5t38 27l35 -49q-4 -2 -13.5 -10t-21 -18.5t-23 -21.5t-18.5 -20
q-108 -134 -209 -206.5t-198 -88.5q-12 -20 -28 -38.5t-30 -34.5q-17 -18 -33 -35q82 -10 126.5 -48.5t35.5 -107.5q-12 -96 -103 -151.5t-253 -55.5q-21 0 -39 1t-36.5 3.5t-41 7t-53.5 11.5q19 24 29.5 47.5t15.5 42.5q6 22 8 41q43 -10 70.5 -15.5t56.5 -5.5q53 0 89 21
t44 55q2 15 -3.5 28t-17.5 22.5t-30 15.5t-41 6q-12 0 -24 -1.5t-35 -4.5q27 27 50 55.5t41.5 55.5t33 51t24.5 42q-61 15 -110 50.5t-82.5 87t-50 116.5t-13.5 140z" />
    <glyph glyph-name="eacute" horiz-adv-x="989" 
d="M123 256q0 106 34 205t92 185.5t135 157t162.5 120.5t175.5 76.5t173 23.5q45 -1 85 -17.5t69.5 -45t46 -68.5t14.5 -88q-2 -75 -34 -133t-83.5 -97t-119 -57.5t-140.5 -15.5q-18 1 -34.5 2.5t-29.5 3.5q-15 2 -28 4q-5 -22 -9 -44q-4 -19 -6.5 -41t-2.5 -42
q0 -29 6 -67.5t21 -72.5t41.5 -57.5t68.5 -23.5q38 0 72.5 13t64 30.5t54.5 35t44 25.5l27 -51q-20 -13 -45 -34q-21 -18 -50.5 -46t-64.5 -67q-37 -42 -81 -77.5t-92 -61t-98.5 -40t-101.5 -14.5q-41 -1 -83 8t-80 26.5t-71.5 43.5t-57.5 61q-35 51 -54.5 113t-19.5 127z
M659 598q50 -9 87 0t63 25t41 34t22 27q19 25 31.5 55t14 57t-9 45t-38.5 19q-31 1 -63.5 -26.5t-62 -68t-52 -86.5t-33.5 -81zM1282 1479q-74 -40 -148 -89q-31 -21 -65.5 -46t-69 -54t-68 -60.5t-63.5 -66.5h-293q69 54 118.5 109.5t81.5 101.5q38 54 62 105h445z" />
    <glyph glyph-name="egrave" horiz-adv-x="989" 
d="M123 256q0 106 34 205t92 185.5t135 157t162.5 120.5t175.5 76.5t173 23.5q45 -1 85 -17.5t69.5 -45t46 -68.5t14.5 -88q-2 -75 -34 -133t-83.5 -97t-119 -57.5t-140.5 -15.5q-18 1 -34.5 2.5t-29.5 3.5q-15 2 -28 4q-5 -22 -9 -44q-4 -19 -6.5 -41t-2.5 -42
q0 -29 6 -67.5t21 -72.5t41.5 -57.5t68.5 -23.5q38 0 72.5 13t64 30.5t54.5 35t44 25.5l27 -51q-20 -13 -45 -34q-21 -18 -50.5 -46t-64.5 -67q-37 -42 -81 -77.5t-92 -61t-98.5 -40t-101.5 -14.5q-41 -1 -83 8t-80 26.5t-71.5 43.5t-57.5 61q-35 51 -54.5 113t-19.5 127z
M659 598q50 -9 87 0t63 25t41 34t22 27q19 25 31.5 55t14 57t-9 45t-38.5 19q-31 1 -63.5 -26.5t-62 -68t-52 -86.5t-33.5 -81zM803 1479q5 -40 21 -90q14 -43 39.5 -100.5t68.5 -125.5h-277q-31 51 -74 106q-37 47 -90.5 102t-123.5 108h436v0z" />
    <glyph glyph-name="ecircumflex" horiz-adv-x="989" 
d="M123 256q0 106 34 205t92 185.5t135 157t162.5 120.5t175.5 76.5t173 23.5q45 -1 85 -17.5t69.5 -45t46 -68.5t14.5 -88q-2 -75 -34 -133t-83.5 -97t-119 -57.5t-140.5 -15.5q-18 1 -34.5 2.5t-29.5 3.5q-15 2 -28 4q-5 -22 -9 -44q-4 -19 -6.5 -41t-2.5 -42
q0 -29 6 -67.5t21 -72.5t41.5 -57.5t68.5 -23.5q38 0 72.5 13t64 30.5t54.5 35t44 25.5l27 -51q-20 -13 -45 -34q-21 -18 -50.5 -46t-64.5 -67q-37 -42 -81 -77.5t-92 -61t-98.5 -40t-101.5 -14.5q-41 -1 -83 8t-80 26.5t-71.5 43.5t-57.5 61q-35 51 -54.5 113t-19.5 127z
M659 598q50 -9 87 0t63 25t41 34t22 27q19 25 31.5 55t14 57t-9 45t-38.5 19q-31 1 -63.5 -26.5t-62 -68t-52 -86.5t-33.5 -81zM301 1163q70 58 118.5 114.5t78.5 101.5q35 53 57 100h440q10 -47 27 -99q14 -45 38 -101t60 -116h-272q-17 32 -36.5 58.5t-36.5 46.5
q-19 23 -38 41q-26 -15 -56 -36q-26 -18 -57 -45t-63 -65h-260z" />
    <glyph glyph-name="ugrave" horiz-adv-x="1190" 
d="M696 172q-31 -30 -63 -63t-68 -61t-77.5 -46t-90.5 -18q-57 0 -104 23.5t-81.5 63.5t-54.5 92.5t-22 110.5q-3 75 11.5 137.5t38 117.5t51.5 106.5t52.5 106t41 114t16.5 131.5h463q-70 -98 -125 -192q-24 -40 -46.5 -83.5t-40 -86t-28 -83t-10.5 -73.5q0 -17 4.5 -35
t13.5 -33t23.5 -24.5t34.5 -9.5q47 0 87 39.5t73 101t59.5 135t47 142.5t35.5 124t24 78h382q-33 -59 -69 -136q-31 -66 -68.5 -158.5t-75.5 -207.5q-11 -34 -21.5 -70t-10.5 -73q0 -17 10.5 -34t32.5 -17q21 0 38 12.5t29 27.5q14 18 25 40h49q-9 -21 -27.5 -59t-46 -83.5
t-63.5 -92t-80 -85t-95 -62.5t-110 -24q-44 0 -75 16.5t-51 45t-29 66t-9 79.5zM885 1479q5 -40 21 -90q14 -43 39.5 -100.5t68.5 -125.5h-277q-31 51 -74 106q-37 47 -90.5 102t-123.5 108h436v0z" />
    <glyph glyph-name="ucircumflex" horiz-adv-x="1190" 
d="M696 172q-31 -30 -63 -63t-68 -61t-77.5 -46t-90.5 -18q-57 0 -104 23.5t-81.5 63.5t-54.5 92.5t-22 110.5q-3 75 11.5 137.5t38 117.5t51.5 106.5t52.5 106t41 114t16.5 131.5h463q-70 -98 -125 -192q-24 -40 -46.5 -83.5t-40 -86t-28 -83t-10.5 -73.5q0 -17 4.5 -35
t13.5 -33t23.5 -24.5t34.5 -9.5q47 0 87 39.5t73 101t59.5 135t47 142.5t35.5 124t24 78h382q-33 -59 -69 -136q-31 -66 -68.5 -158.5t-75.5 -207.5q-11 -34 -21.5 -70t-10.5 -73q0 -17 10.5 -34t32.5 -17q21 0 38 12.5t29 27.5q14 18 25 40h49q-9 -21 -27.5 -59t-46 -83.5
t-63.5 -92t-80 -85t-95 -62.5t-110 -24q-44 0 -75 16.5t-51 45t-29 66t-9 79.5zM465 1163q70 58 118.5 114.5t78.5 101.5q35 53 57 100h440q10 -47 27 -99q14 -45 38 -101t60 -116h-272q-17 32 -36.5 58.5t-36.5 46.5q-19 23 -38 41q-26 -15 -56 -36q-26 -18 -57 -45
t-63 -65h-260z" />
    <glyph glyph-name="degree" unicode="&#xa1;" horiz-adv-x="653" 
d="M502 932q-64 -1 -106.5 17.5t-68.5 47t-38.5 63.5t-17 68t-3.5 60t2 39q4 36 18.5 76t39.5 79.5t59.5 75.5t77 63t93.5 43.5t108 16.5q53 0 89.5 -21.5t58 -58t28.5 -85.5t2 -103q-5 -56 -30 -122.5t-68.5 -123.5t-104.5 -95.5t-139 -39.5zM563 1339q-8 -22 -12 -54
t-1.5 -61.5t12.5 -49t30 -17.5q22 3 46 22.5t43.5 50.5t32.5 72t13 87q0 12 -2 25t-6.5 23.5t-12.5 17.5t-20 7q-18 1 -36.5 -9.5t-35 -28t-29.5 -40t-22 -45.5z" />
    <glyph glyph-name="cent" unicode="&#xa2;" horiz-adv-x="1024" 
d="M510 291q-75 -1 -131 19.5t-95.5 54t-64.5 77t-39.5 89t-20 89t-5.5 78.5q0 115 38 220t100 194.5t141 161t161 120.5t160 73t137 18q22 25 34.5 57.5t20.5 61.5q9 34 12 71h115q-15 -35 -28 -71q-11 -31 -21.5 -67.5t-15.5 -68.5q38 -14 70.5 -38t57 -54.5t38.5 -65.5
t14 -73q0 -42 -15.5 -79t-42.5 -65t-63 -44.5t-78 -16.5q-21 0 -45.5 7.5t-45.5 21.5t-35 36t-15 50q-1 37 8 61.5t24 39.5t33 22.5t33 9.5t27.5 1.5t22.5 -2.5q11 -2 20 -5q-7 19 -19 33q-11 12 -27 21t-42 7q-39 -3 -74.5 -25.5t-66 -59.5t-55.5 -86t-42.5 -104
t-27 -113.5t-9.5 -115.5q0 -28 6 -68.5t23.5 -78.5t48.5 -65t82 -29q36 -1 68 17.5t59.5 43t51 47t42.5 29.5l33 -59q-42 -31 -76.5 -73t-60 -90t-41.5 -101.5t-21 -108.5h-106l26 88q-32 -25 -74 -45q-36 -17 -87.5 -31.5t-116.5 -15.5z" />
    <glyph glyph-name="sterling" unicode="&#xa3;" horiz-adv-x="1399" 
d="M0 -49q29 47 59.5 104t60.5 118t58.5 123t53.5 119q59 135 114 275q-8 -2 -22 -2q-13 0 -27 1q-17 1 -35 1q3 13 7 25q3 11 6 21.5t4 15.5t2 15.5t2 21.5q1 13 2 28q20 0 38 -1q16 -1 33 -1q18 0 29 2q29 85 65.5 176.5t82 178t101.5 164t124 135.5t149 92t176 34
q58 0 116.5 -17t106.5 -52t79 -89.5t32 -129.5q1 -41 -13 -84.5t-39.5 -81.5t-62 -66.5t-81.5 -40.5q0 35 -12.5 67t-35 56t-53.5 38.5t-69 14.5q-59 0 -108.5 -17t-90 -44.5t-72.5 -62.5t-57 -72q-58 -86 -92 -197q24 1 48 3q20 2 44 2.5t43 0.5q11 0 32.5 -1t44.5 -3
q26 -2 56 -4q-3 -13 -7 -25q-3 -11 -5.5 -21.5t-3.5 -16.5q-2 -9 -2.5 -20t-1.5 -21q-1 -11 -2 -23q-23 2 -49 4q-22 2 -47.5 3t-49.5 1q-12 0 -36.5 -0.5t-49.5 -2.5q-29 -2 -61 -3q-2 -5 -8.5 -21t-15.5 -37.5t-19 -46.5l-19 -47.5l-16 -40t-10 -24.5q40 15 82 25
q36 8 78.5 12t80.5 -4q111 -25 207 -30t176 4.5t145 33t115 55.5q-26 -60 -61 -130.5t-78.5 -141t-94.5 -135.5t-109.5 -114.5t-124 -77t-136.5 -23.5q-50 3 -100 13t-108.5 21.5t-128 20t-158.5 8.5q-34 0 -82 -10t-93 -21q-52 -13 -106 -30z" />
    <glyph glyph-name="bullet" unicode="&#xa5;" horiz-adv-x="932" 
d="M225 748q0 62 25.5 119.5t70.5 102t105.5 71t130.5 26.5q66 0 123 -26.5t99.5 -71.5t66.5 -103t24 -121q0 -60 -20 -120t-61 -109t-103.5 -79.5t-146.5 -30.5q-68 0 -125.5 27.5t-99.5 74t-65.5 109t-23.5 131.5z" />
    <glyph glyph-name="paragraph" unicode="&#xa6;" horiz-adv-x="1559" 
d="M809 -645q-57 7 -123.5 2t-125.5 -13q-69 -10 -136 -24q6 84 20.5 177.5t35 189.5t45 190.5t49.5 180.5q58 202 128 403q-108 -8 -191.5 27.5t-135.5 104t-70 164.5t6 210q15 74 46 143t73.5 127.5t96 105.5t114.5 78q43 22 85.5 37t90.5 24.5t104 13.5t126 3l778 -8
q-26 -56 -44 -111q-7 -24 -14 -49.5t-10.5 -51t-4 -50t4.5 -45.5l-196 80q3 -168 -7 -336.5t-29 -330t-44.5 -312t-52.5 -281.5q-63 -308 -146 -588q-52 5 -109 5q-49 0 -109.5 -5.5t-123.5 -21.5q134 523 225 935q26 117 49 232t41.5 218.5t30.5 192.5t15 153.5t-4 101.5
t-27 37q-15 0 -39.5 -43t-54.5 -121t-64.5 -188t-69.5 -244.5t-70 -289t-65.5 -322.5t-55.5 -345t-42 -356zM913 1264h-4q-37 0 -63 -2t-47.5 -7t-40.5 -13t-41 -21q-29 -17 -55.5 -43.5t-47.5 -59.5t-36 -71.5t-23 -79.5q-15 -68 -15.5 -121.5t17 -90t54.5 -56t98 -19.5h39
z" />
    <glyph glyph-name="germandbls" unicode="&#xa7;" horiz-adv-x="1497" 
d="M780 721q108 28 192 89q36 26 70 61.5t60.5 83t42 107t14.5 132.5q-1 45 -14.5 76.5t-34.5 52t-47 30t-51 9.5q-23 0 -43.5 -9t-38 -23t-32 -32.5t-26.5 -38.5q-27 -46 -47 -104q-99 -311 -179 -564q-34 -108 -67 -213t-60 -191.5t-45.5 -145t-22.5 -72.5
q-31 -105 -81.5 -191t-121 -146.5t-161.5 -94t-204 -33.5q-54 0 -103.5 9.5t-92.5 23.5l20 72q65 -26 131 0q28 11 59 33.5t61.5 62.5t60.5 100t57 146l295 948q-28 4 -55 3q-23 -1 -49 -5.5t-46 -17.5l27 108q41 -8 79 3q16 5 33.5 14.5t34 26t31.5 41t27 58.5
q80 229 224 343.5t345 111.5q40 0 88.5 -11t97.5 -35t94.5 -62t80 -93t54.5 -127.5t17 -166.5q-1 -54 -14 -102.5t-32.5 -90.5t-44.5 -77.5t-51 -64.5q-61 -67 -136 -116q68 -41 122 -98q23 -24 44.5 -54.5t38 -66t25.5 -76.5t7 -88q-3 -81 -34 -151.5t-86 -123
t-131.5 -82.5t-170.5 -30q-13 0 -46 3t-81 19.5t-109 51t-130 96.5q1 5 4.5 24.5t9 49t12.5 65.5t14 73q17 86 37 193q47 -65 97 -113q21 -21 45.5 -40t50.5 -33.5t53 -21.5t53 -3q71 10 74 76q1 28 -11 60.5t-32.5 66.5t-47 68.5t-54.5 66.5q-66 75 -150 150z" />
    <glyph glyph-name="registered" unicode="&#xa8;" horiz-adv-x="1253" 
d="M287 971q0 119 42.5 222t117 179.5t175 120t216.5 43.5q117 0 219 -43.5t177.5 -118.5t119 -176.5t43.5 -218.5q0 -115 -43 -216t-118 -176.5t-176 -119t-218 -43.5q-115 0 -216 43t-176.5 117.5t-119 174t-43.5 212.5zM379 987q0 -97 36 -182.5t98.5 -149.5t146 -100.5
t178.5 -36.5q97 0 182 36t148.5 98.5t100 147t36.5 181.5q0 96 -36.5 180t-99.5 146.5t-147.5 98.5t-179.5 36t-179.5 -36t-147.5 -98t-99.5 -144.5t-36.5 -176.5zM494 705q-3 -5 11 18.5t36.5 67.5t50 104.5t50 129t37 140.5t11.5 140h305q26 0 48.5 -10.5t39 -29.5t26 -45
t9.5 -57q0 -48 -23 -86t-61.5 -64.5t-89 -38.5t-104.5 -7q39 -23 75 -61.5t63.5 -83.5t44 -92t17.5 -89h-196q-4 59 -15 114q-9 48 -25.5 99t-43.5 88q-16 -51 -29 -97q-11 -39 -20 -78.5t-9 -61.5h-208v0zM786 1032q35 12 64 24t49.5 26.5t31.5 32.5t9 42q-2 20 -18.5 33.5
t-36.5 13.5q-22 0 -39 -14.5t-23 -30.5q-5 -14 -15.5 -45.5t-21.5 -81.5z" />
    <glyph glyph-name="copyright" unicode="&#xa9;" horiz-adv-x="1612" 
d="M96 674q0 101 25 193.5t70 172.5t109 145.5t142.5 112t169 72t189.5 25.5q150 0 280 -55.5t227 -151.5t152.5 -225.5t55.5 -278.5q0 -99 -25 -190t-71.5 -170t-111 -143.5t-143.5 -111t-170 -71.5t-190 -25q-98 0 -189 25t-169.5 70.5t-143 109.5t-111 142t-71.5 167.5
t-25 186.5zM190 694q0 -88 21.5 -168.5t61 -150t95 -126.5t123 -97t146.5 -62t164 -22q130 0 243 48t197 131t132 195.5t48 241.5q0 128 -48 240.5t-131.5 196t-196 131.5t-240.5 48q-127 0 -239 -47.5t-195.5 -130t-132 -193t-48.5 -235.5zM1122 584q-21 -25 -45 -66
t-46 -84.5t-41.5 -82t-31.5 -56.5q-18 -27 -46.5 -50t-62.5 -39.5t-71 -26t-73 -9.5q-65 0 -118 23t-91 65t-59 101t-21 130q0 88 21 172t58.5 159t89.5 138t113.5 108.5t131 71t141.5 25.5q47 0 85 -13t65 -37.5t42 -59t15 -76.5q0 -37 -13.5 -70.5t-37 -59t-55 -40
t-66.5 -14.5q-30 0 -56.5 10.5t-46.5 29t-31.5 42.5t-11.5 51q0 23 9 42.5t24.5 33.5t36.5 22.5t45 9.5q17 0 29.5 -3t20.5 -7q10 -4 17 -10q-12 29 -40 43t-60 14q-59 0 -113 -29t-95.5 -78t-66 -113t-24.5 -134q0 -54 15 -98t43 -75t66.5 -48t86.5 -17q62 0 123 31
t133 100l20 -18z" />
    <glyph glyph-name="trademark" unicode="&#xaa;" horiz-adv-x="1196" 
d="M246 899q12 12 36 40.5t53 66t59.5 81.5t55 87.5t40.5 82.5t16 68q0 16 -13 24.5t-34 8.5q-18 0 -40.5 -3.5t-45.5 -10t-44.5 -14.5t-39.5 -17q8 45 31.5 82t57.5 64t77.5 43t91.5 20q61 3 111.5 -5t98 -12.5t94 2.5t99.5 39q6 -72 -15.5 -121.5t-62.5 -75.5t-97 -28.5
t-118 18.5q-21 -26 -37 -66t-26.5 -83.5t-15.5 -85.5t-5 -72q0 -17 3.5 -40.5t8.5 -43.5q5 -24 11 -49h-350v0zM715 899q75 59 136 128.5t99 154.5q19 43 35.5 88t29 87.5t20.5 79t9 62.5h218q-47 -54 -73 -124t-26 -142q0 -43 25 -43q18 0 41.5 40t48.5 111q19 54 28 85
t14 48q5 19 5 25h281q-23 -18 -39.5 -32.5t-29 -28t-24 -28.5t-24.5 -34q-24 -35 -40 -79.5t-26 -94t-14 -102t-4 -103.5q0 -27 5.5 -51t11.5 -42q7 -21 16 -38q-11 -7 -23 -12q-11 -5 -24 -8.5t-27 -3.5q-23 0 -43.5 8.5t-36 22.5t-24.5 33.5t-9 41.5q0 17 3.5 35t11.5 37
q11 29 3.5 42.5t-18.5 16.5q-12 3 -22.5 -10.5t-18 -34.5t-12 -45.5t-4.5 -42.5q0 -15 2 -24t8 -23h-188q32 29 48.5 66t16.5 77q0 22 -5 35.5t-17 16.5q-13 3 -22 -8.5t-11 -26.5q-5 -57 -20 -89t-32 -48q-19 -18 -42 -23h-217z" />
    <glyph glyph-name="acute" unicode="&#xab;" horiz-adv-x="748" 
d="M1006 1479q-74 -40 -148 -89q-31 -21 -65.5 -46t-69 -54t-68 -60.5t-63.5 -66.5h-293q69 54 118.5 109.5t81.5 101.5q38 54 62 105h445z" />
    <glyph glyph-name="dieresis" unicode="&#xac;" horiz-adv-x="844" 
d="M287 1317q4 36 20.5 64t41 47.5t55 29.5t61.5 10t56 -12.5t42 -32.5t26 -46.5t7 -55.5q-2 -31 -15 -58.5t-35.5 -48t-54.5 -32t-73 -11.5q-30 0 -55.5 11.5t-43 31.5t-26.5 46.5t-6 56.5zM694 1317q4 36 20.5 64t41 47.5t55 29.5t61.5 10t56 -12.5t42.5 -32.5t26.5 -46.5
t7 -55.5q-3 -31 -16 -58.5t-35.5 -48t-54.5 -32t-73 -11.5q-30 0 -55.5 11.5t-43 31.5t-26.5 46.5t-6 56.5z" />
    <glyph glyph-name="AE" unicode="&#xae;" horiz-adv-x="2132" 
d="M887 0q44 38 82.5 70t67.5 66.5t46 76t17 98.5q0 25 -9 47t-24 39t-35 27t-43 10q-45 0 -81 -25.5t-64.5 -67t-51.5 -95t-41.5 -109.5t-34 -110t-30.5 -97q-21 -63 -59.5 -114.5t-88 -87.5t-107.5 -56t-118 -20q-85 1 -161 25.5t-138.5 66.5t-108 98t-69.5 119
q23 -13 50 -23q23 -8 53.5 -15t64.5 -7q66 0 125 16.5t114 52t107.5 90t104.5 130.5q104 153 195.5 305.5t171.5 311.5t150.5 326.5t133.5 350.5h1118l-151 -436q-22 57 -41.5 93t-43 56.5t-52.5 28.5t-70 8q-38 0 -71.5 -12.5t-58 -34.5t-39 -51.5t-14.5 -63.5
q0 -46 27.5 -74t71.5 -28q21 0 39.5 4.5t40 16t49 31.5t65.5 50l-116 -350q-23 19 -41.5 32t-35.5 21t-34 11.5t-37 3.5q-36 0 -67.5 -13.5t-55.5 -36.5t-37.5 -54t-13.5 -66q0 -34 12.5 -63t34 -50.5t50.5 -34t63 -12.5q62 0 108.5 25.5t78 70t47.5 104t16 126.5
q100 -40 158.5 -111t58.5 -184q0 -102 -44.5 -194t-119.5 -161.5t-174 -110t-209 -40.5h-731v0zM1190 1057q-48 -36 -93 -84.5t-79.5 -98.5t-55 -97.5t-20.5 -82.5q0 -21 9.5 -39t25.5 -31.5t38.5 -21.5t47.5 -8q39 0 71 15.5t55 43t35.5 65.5t12.5 83q0 33 -3.5 68.5
t-10 69.5t-15 64.5t-18.5 53.5z" />
    <glyph glyph-name="Oslash" unicode="&#xaf;" horiz-adv-x="1509" 
d="M905 1417q20 96 84 143.5t176 47.5q53 0 99 -9t88 -24q54 34 108.5 49.5t110.5 17.5q45 2 80.5 -8.5t64 -27.5t50 -40t37.5 -47q37 -56 55 -128q-35 15 -73 26q-32 10 -73 18t-84 7q-23 -2 -45 -8t-45 -19q48 -75 73 -177.5t25 -233.5q0 -127 -19.5 -250t-60.5 -242
q-52 -154 -127 -273t-169.5 -200t-206.5 -122.5t-240 -41.5q-62 0 -117 8.5t-104 24.5q-63 -69 -132.5 -111.5t-148.5 -42.5q-64 2 -106.5 24.5t-68.5 50.5q-31 33 -48 73q69 23 133 65t123 99q-69 80 -106 188.5t-37 245.5q0 99 23 202t62.5 200.5t94 184t117.5 152.5
q30 31 63.5 55t67.5 42.5t67.5 31.5t64.5 22q72 21 144 27zM983 340q60 0 118 29.5t110 81t96.5 123t76.5 156t50 178t18 190.5q0 62 -14 112t-40 85.5t-63 55t-82 19.5q-69 0 -133 -34.5t-119.5 -92t-100.5 -133t-77 -157.5t-49.5 -166t-17.5 -158q0 -140 59 -214.5
t168 -74.5z" />
    <glyph glyph-name="plusminus" unicode="&#xb1;" horiz-adv-x="1358" 
d="M1042 1489q54 -12 101 -20q20 -3 40.5 -5.5t38.5 -3t32 1t22 6.5l-170 -430q74 -3 153 -5q68 -2 151.5 -0.5t164.5 7.5l-109 -237q-88 4 -168 8q-34 2 -70 3t-70 1h-65q-30 0 -53 -2l-166 -465q-50 10 -97 17q-40 6 -81 11t-67 5l164 432l-453 18l90 220q65 -8 137 -13
q62 -5 139.5 -6t157.5 4l178 453v0zM158 246q123 -8 295 -12q147 -4 362 -4.5t502 6.5l-119 -244q-116 -1 -240 -1q-123 0 -242.5 2t-229 5t-197 6t-147.5 6.5t-81 5.5l97 230v0z" />
    <glyph glyph-name="yen" unicode="&#xb4;" horiz-adv-x="1761" 
d="M20 0q83 42 168.5 99t165 122.5t148.5 136.5t119 140q-75 -1 -139.5 -1.5t-112.5 -1.5q-55 -1 -101 -1q8 18 12.5 39.5t6.5 41.5q3 23 4 46q30 -3 72 -4t93 -1q52 0 111 0.5t123 1.5q13 29 20 56.5t7 52.5q0 9 -1 20.5t-3 22.5q-80 -1 -148 -1.5t-119 -1.5
q-59 -1 -108 -1q7 18 11.5 39.5t6.5 41.5q3 23 4 46q51 -3 135 -3.5t189 -0.5q-9 27 -18 57q-29 81 -50 139t-35 102.5t-22 79.5t-11 69.5t-2.5 73t3.5 89.5h573q-48 -51 -82.5 -94.5t-57 -85.5t-33.5 -85.5t-11 -94.5q0 -73 22 -130t68 -108q65 53 104.5 121t60 145.5
t24.5 162t-3 169.5h1039q-150 -73 -260 -131.5t-195.5 -110t-153 -101t-133.5 -105.5q-45 -39 -85.5 -77t-75.5 -75q108 0 196 -0.5t133 -5.5q-8 -18 -12 -40t-6 -42q-3 -23 -4 -45q-24 2 -65.5 3.5t-95.5 2.5t-119 1.5t-136 0.5q-29 -37 -54 -74.5t-46 -74.5
q78 2 150.5 2.5t133.5 0t108.5 -2t76.5 -4.5q-8 -19 -12.5 -40.5t-6.5 -41.5q-3 -23 -4 -45q-28 2 -78.5 3.5t-116.5 2.5t-145 1.5t-164 0.5q-51 -132 -51 -262q0 -30 2.5 -55t9 -52t19 -58.5t31.5 -74.5h-1074z" />
    <glyph glyph-name="product" unicode="&#xb8;" horiz-adv-x="1628" 
d="M0 0q87 79 149.5 139t110.5 114t88 107.5t82 120.5q57 90 108.5 193.5t96.5 224.5q29 81 49.5 146.5t35.5 131.5t27 142.5t25 179.5h508q-39 -37 -66.5 -66.5t-49 -58t-41.5 -60t-44 -73.5q-63 -108 -97 -196t-34 -148q0 -37 24.5 -60.5t59.5 -23.5q59 0 108.5 57
t78.5 160l61 217q25 96 59 178t76 150q34 54 81.5 97.5t105 73.5t123 46t135.5 16q75 0 138.5 -17t112.5 -48.5t83 -77.5t49 -104h-56q-95 0 -174 -17.5t-147 -55.5t-129.5 -98.5t-122.5 -146.5q-97 -141 -178 -314.5t-152 -391.5q-18 -56 -34.5 -124t-30 -133.5t-21.5 -122
t-8 -89.5v-68h-440l59 86q44 63 69 100.5t37.5 62t15.5 42t3 39.5q0 26 -19 42.5t-45 16.5q-31 0 -56.5 -17.5t-53.5 -56.5q-42 -60 -64 -126t-22 -138q0 -8 1 -21t1 -30h-676v0z" />
    <glyph glyph-name="ordfeminine" unicode="&#xbb;" horiz-adv-x="891" 
d="M633 772q-42 1 -64.5 18.5t-33.5 39.5q-12 26 -15 57q-18 -18 -39 -36t-45.5 -33t-52 -24.5t-59.5 -9.5q-53 0 -95 22.5t-70.5 59t-43.5 82.5t-15 94q0 57 19.5 114.5t53 111t78.5 100.5t95.5 81.5t103.5 54.5t103 20q33 0 57.5 -6t42.5 -16.5t31.5 -25t24.5 -30.5l16 51
h244q-17 -57 -31.5 -107t-29.5 -99.5t-31 -101.5t-35 -112q-5 -12 -11 -28.5t-6 -24.5q0 -16 19 -16q11 0 21 6.5t18.5 16t15.5 19.5t12 17h33q-22 -61 -53.5 -115t-71 -94t-86.5 -63.5t-100 -22.5zM416 1135q0 -34 17 -60t54 -26q32 0 63 26.5t56 68.5t40.5 93.5
t15.5 101.5q0 15 -3.5 30t-11 27t-19 19.5t-28.5 7.5q-26 0 -57 -23.5t-58 -63t-46.5 -92t-22.5 -109.5z" />
    <glyph glyph-name="ordmasculine" unicode="&#xbc;" horiz-adv-x="772" 
d="M379 733q-76 -1 -126.5 20.5t-81.5 56t-46 76.5t-20 82t-3.5 72t2.5 47q5 43 23 92.5t49 98t73 93t95 78.5t115 54.5t133 20.5q62 0 104.5 -25t67 -68.5t32.5 -101.5t1 -123q-3 -46 -17.5 -99t-39.5 -105.5t-61 -101t-81.5 -85.5t-100 -59t-118.5 -23zM432 1245
q-27 -81 -26.5 -134.5t15.5 -85.5t37.5 -44.5t39.5 -11.5q35 4 71 31.5t65.5 71.5t48.5 102.5t19 123.5q0 23 -4 45.5t-13.5 40.5t-25.5 29.5t-41 11.5q-30 1 -58 -14t-52.5 -40.5t-44 -58t-31.5 -67.5z" />
    <glyph glyph-name="ae" unicode="&#xbe;" horiz-adv-x="1645" 
d="M1145 -123q-76 -2 -149 27t-124 86q-83 -48 -168.5 -73.5t-166.5 -27.5q-91 -1 -170.5 22t-136 66.5t-85.5 105t-20 138.5q7 61 27.5 117t57.5 102t92.5 79t132.5 49t177 13t226 -30q-1 7 -4.5 27t-10.5 45.5t-19 54t-30 52t-43 39t-59 15.5q-39 0 -73.5 -13t-64 -30.5
t-54.5 -35t-44 -25.5l-26 51q19 14 44 35q21 18 50.5 46t64.5 67q38 42 82 72t92 48.5t98 27.5t101 9q36 1 72.5 -6t71 -20.5t66 -34t56.5 -47.5q85 48 173 73.5t169 22.5q45 -1 85 -17.5t69.5 -45t46 -68.5t14.5 -88q-2 -75 -34 -133t-83.5 -97t-118.5 -57.5t-140 -15.5
q-19 1 -35.5 2.5t-29.5 3.5q-15 2 -28 4q-5 -22 -9 -44q-4 -19 -6.5 -41t-2.5 -42q0 -29 6 -67.5t21.5 -72.5t42 -57.5t67.5 -23.5q39 0 73 13t64 30.5t55 35t44 25.5l26 -51q-19 -13 -44 -34q-21 -18 -50.5 -46t-64.5 -67q-38 -42 -82 -77.5t-92 -61t-98 -40t-101 -14.5z
M801 434q-50 9 -92 -7t-75 -44.5t-55.5 -63t-33.5 -63.5q-16 -43 -26 -80.5t-10 -65.5q0 -27 12 -42.5t40 -14.5q38 1 69.5 22t56 54.5t43.5 75t33 83.5t23 80.5t15 65.5zM1315 598q50 -9 87 0t62.5 25t41 34t22.5 27q18 25 30.5 55t14.5 57t-9 45t-38 19q-31 1 -63.5 -26.5
t-62 -68t-52 -86.5t-33.5 -81z" />
    <glyph glyph-name="oslash" unicode="&#xbf;" 
d="M541 -106q-29 0 -54.5 2.5t-48.5 5.5q-46 -47 -98 -76t-109 -29q-51 2 -85.5 20.5t-55.5 40.5q-25 26 -39 58q48 16 92 42.5t86 61.5q-38 50 -56 107.5t-24 111.5t-4 97t5 63q6 62 32.5 132.5t70 140t104 133t135.5 112.5t164 78t190 29h21q11 0 22 -2q40 34 76 52.5
t67.5 27.5t58 10.5t48.5 1.5q34 0 61.5 -8.5t50 -23t40 -32.5t30.5 -37q31 -45 47 -102q-27 11 -58 21q-26 8 -59 14.5t-67 5.5q-60 -3 -109 -37q45 -63 60 -152.5t4 -193.5q-4 -66 -25 -142t-57 -150.5t-87 -143t-116 -121.5t-143.5 -85t-169.5 -33zM618 625
q-26 -77 -34 -136.5t-3 -104t19.5 -74.5t33.5 -48t40 -25t37 -6q50 6 102 45t94.5 102.5t69.5 147t27 176.5q0 32 -5.5 64t-19.5 58.5t-37.5 43t-58.5 17.5q-42 1 -82.5 -21t-75 -58.5t-62.5 -83.5t-45 -97z" />
    <glyph glyph-name="questiondown" unicode="&#xc0;" horiz-adv-x="1051" 
d="M1174 666q0 -61 -24 -123t-67.5 -119t-103.5 -105t-133 -81q-47 -21 -98 -42t-100 -44t-93.5 -51t-77.5 -64t-52 -82t-17 -105q2 -56 18.5 -103.5t47 -82.5t75.5 -54.5t102 -19.5q30 0 69 10.5t74 30t59 45.5t24 58q0 -2 -0.5 3t-2.5 7q-18 -15 -41 -25t-51 -10
q-33 0 -60.5 14t-47 37t-30 53t-9.5 62q2 40 19 71.5t44.5 53t62 32.5t70.5 11q44 0 81 -17.5t64 -47.5t42.5 -71t15.5 -89q0 -91 -39 -160t-105.5 -115.5t-154.5 -70t-186 -23.5q-117 0 -211 35.5t-160 99t-101.5 153t-35.5 197.5q0 58 15 120.5t43.5 122.5t70 114
t95.5 96.5t120 69.5t143 32q50 4 109.5 2t120.5 -3t120 4t109.5 23.5t89 55.5t56.5 99zM1120 797q0 -42 -17 -80.5t-46.5 -68t-70 -47t-87.5 -17.5q-44 0 -82 17.5t-66.5 47.5t-44.5 69t-16 81q0 40 13.5 80t41 72.5t69 52.5t97.5 20q45 0 83.5 -18t66.5 -49t43.5 -72.5
t15.5 -87.5z" />
    <glyph glyph-name="exclamdown" unicode="&#xc1;" horiz-adv-x="662" 
d="M551 510q-16 -27 -28 -60q-11 -28 -20 -65.5t-9 -81.5q0 -59 11 -118.5t23 -119.5t20.5 -121t3.5 -123t-28 -125t-75 -126q-38 -47 -86 -76.5t-101.5 -46.5t-108.5 -23.5t-107 -5.5q-121 2 -251 35q92 90 176 192q36 43 74 93.5t74.5 106t68.5 114.5t56 119
q27 68 49 141.5t38 140t24 121t7 82.5zM733 797q0 -42 -17 -80.5t-46.5 -68t-70 -47t-87.5 -17.5q-44 0 -82 17.5t-66.5 47.5t-44.5 69t-16 81q0 40 13.5 80t41 72.5t69 52.5t97.5 20q45 0 83.5 -18t66.5 -49t43.5 -72.5t15.5 -87.5z" />
    <glyph glyph-name="florin" unicode="&#xc4;" horiz-adv-x="893" 
d="M-532 -264q33 -31 72 -55q33 -20 76.5 -37t94.5 -15q60 2 108 20.5t85.5 47t65 64.5t47.5 73.5t33 73t22 63.5l288 928q-28 4 -55 3q-23 -1 -48.5 -5.5t-45.5 -17.5l27 108q45 -10 85 1q17 5 34.5 14.5t33.5 26t29.5 41.5t21.5 60q17 69 48 144t79 136.5t115 101.5
t156 40q37 0 75.5 -11t70 -34.5t51.5 -60.5t20 -88q0 -24 -10 -53t-29 -54t-45.5 -42t-59.5 -17q-45 0 -75 13t-48 35.5t-26 51.5t-10 60q-26 5 -46.5 -9.5t-33.5 -37t-18.5 -47.5t-2.5 -41q2 -46 17 -80t39 -58.5t53.5 -41t60.5 -26.5q72 -24 164 -24l-20 -88h-156
q-77 -240 -139 -436q-27 -84 -53 -166t-47.5 -150.5t-36 -116t-19.5 -61.5q-31 -105 -92 -191t-144 -146.5t-184.5 -94t-214.5 -33.5q-100 0 -181 27.5t-140 60.5q-69 39 -123 89z" />
    <glyph glyph-name="guillemotleft" unicode="&#xc7;" horiz-adv-x="1116" 
d="M582 944q51 -10 94.5 -12t76.5 0q39 2 72 8q-85 -124 -142.5 -198.5t-94.5 -117.5t-56.5 -62.5t-29.5 -33.5l24 -413q-20 5 -55 4q-30 -1 -78.5 -6.5t-120.5 -22.5l-28 438zM1051 944q51 -10 94.5 -12t76.5 0q39 2 72 8q-85 -124 -142.5 -198.5t-94.5 -117.5t-56.5 -62.5
t-29.5 -33.5l24 -413q-20 5 -55 4q-30 -1 -78.5 -6.5t-120.5 -22.5l-28 438z" />
    <glyph glyph-name="guillemotright" unicode="&#xc8;" horiz-adv-x="1116" 
d="M811 92q-50 11 -94.5 12.5t-77.5 -0.5q-39 -2 -72 -8q57 82 101.5 142.5t78 103t58 70.5t41.5 46t27.5 29.5t17.5 20.5l-25 414q21 -5 56 -5q30 0 78 6t120 23l29 -438zM342 92q-50 11 -94.5 12.5t-77.5 -0.5q-39 -2 -72 -8q57 82 101.5 142.5t78 103t58 70.5t41.5 46
t27.5 29.5t17.5 20.5l-25 414q21 -5 56 -5q30 0 78 6t120 23l29 -438z" />
    <glyph glyph-name="ellipsis" unicode="&#xc9;" horiz-adv-x="1915" 
d="M113 197q0 41 17 79.5t46.5 68t70 47.5t87.5 18q44 0 82 -18t66.5 -47.5t44.5 -68.5t16 -81q0 -40 -13.5 -80.5t-41 -72.5t-69 -52.5t-97.5 -20.5q-45 0 -83.5 18.5t-66.5 49.5t-43.5 72.5t-15.5 87.5zM727 197q0 41 17 79.5t46.5 68t70 47.5t87.5 18q44 0 82 -18
t66.5 -47.5t44.5 -68.5t16 -81q0 -40 -13.5 -80.5t-41 -72.5t-69 -52.5t-97.5 -20.5q-45 0 -83.5 18.5t-66.5 49.5t-43.5 72.5t-15.5 87.5zM1341 197q0 41 17 79.5t47 68t70.5 47.5t87.5 18q44 0 82 -18t66 -47.5t44.5 -68.5t16.5 -81q0 -40 -13.5 -80.5t-41 -72.5
t-69.5 -52.5t-98 -20.5q-45 0 -83.5 18.5t-66 49.5t-43.5 72.5t-16 87.5z" />
    <glyph glyph-name="Agrave" unicode="&#xcb;" horiz-adv-x="1585" 
d="M-164 -39q23 -13 50 -23q23 -8 53.5 -15t64.5 -7q66 0 125 16.5t114 52t107.5 90t104.5 130.5q104 153 195.5 305.5t171.5 311.5t150.5 326.5t133.5 350.5h756q-77 -138 -146.5 -281t-122.5 -284t-84.5 -276.5t-31.5 -260.5q0 -15 1.5 -43t5 -63.5t8 -75t11 -79
t14.5 -74.5t17 -62h-647q44 38 82.5 70t67.5 66.5t46 76t17 98.5q0 25 -9 47t-24 39t-35 27t-43 10q-45 0 -81 -25.5t-64.5 -67t-51.5 -95t-41.5 -109.5t-34 -110t-30.5 -97q-21 -63 -59.5 -114.5t-88 -87.5t-107.5 -56t-118 -20q-85 1 -161 25.5t-138.5 66.5t-108 98
t-69.5 119zM1190 1057q-48 -36 -93 -84.5t-79.5 -98.5t-55 -97.5t-20.5 -82.5q0 -21 9.5 -39t25.5 -31.5t38.5 -21.5t47.5 -8q39 0 71 15.5t55 43t35.5 65.5t12.5 83q0 33 -3.5 68.5t-10 69.5t-15 64.5t-18.5 53.5zM1497 1991q5 -40 21 -90q14 -43 39.5 -100.5t68.5 -125.5
h-277q-31 51 -74 106q-37 47 -90.5 102t-123.5 108h436v0z" />
    <glyph glyph-name="Atilde" unicode="&#xcc;" horiz-adv-x="1585" 
d="M-164 -39q23 -13 50 -23q23 -8 53.5 -15t64.5 -7q66 0 125 16.5t114 52t107.5 90t104.5 130.5q104 153 195.5 305.5t171.5 311.5t150.5 326.5t133.5 350.5h756q-77 -138 -146.5 -281t-122.5 -284t-84.5 -276.5t-31.5 -260.5q0 -15 1.5 -43t5 -63.5t8 -75t11 -79
t14.5 -74.5t17 -62h-647q44 38 82.5 70t67.5 66.5t46 76t17 98.5q0 25 -9 47t-24 39t-35 27t-43 10q-45 0 -81 -25.5t-64.5 -67t-51.5 -95t-41.5 -109.5t-34 -110t-30.5 -97q-21 -63 -59.5 -114.5t-88 -87.5t-107.5 -56t-118 -20q-85 1 -161 25.5t-138.5 66.5t-108 98
t-69.5 119zM1190 1057q-48 -36 -93 -84.5t-79.5 -98.5t-55 -97.5t-20.5 -82.5q0 -21 9.5 -39t25.5 -31.5t38.5 -21.5t47.5 -8q39 0 71 15.5t55 43t35.5 65.5t12.5 83q0 33 -3.5 68.5t-10 69.5t-15 64.5t-18.5 53.5zM1079 1675q5 55 26.5 111t60 101.5t92.5 74.5t124 29
q28 0 63 -15t73 -32.5t75.5 -32.5t69.5 -15q27 0 46 20.5t42 74.5h174q-17 -54 -40.5 -110t-58.5 -102t-83.5 -75t-114.5 -29q-31 0 -68.5 14t-76.5 31t-77.5 31t-70.5 14q-29 0 -49 -22.5t-37 -67.5h-170z" />
    <glyph glyph-name="Otilde" unicode="&#xcd;" horiz-adv-x="1509" 
d="M909 1417q20 96 84 143.5t176 47.5q118 0 210 -39.5t155 -117t96 -190.5t33 -260q0 -131 -28 -266t-80.5 -260t-127.5 -234.5t-169 -190.5t-205 -128t-236 -47q-141 0 -254.5 43.5t-193 124.5t-122 197t-42.5 260q0 99 23 202t62.5 200.5t94 184t117.5 152.5
q30 31 63.5 55t68 42.5t68 31.5t64.5 22q72 21 143 27zM987 340q60 0 118 29.5t110 81t96.5 123t76.5 156t50 178t18 190.5q0 62 -14 112t-40 85.5t-63 55t-82 19.5q-69 0 -133 -34.5t-119.5 -92t-100.5 -133t-77 -157.5t-49.5 -166t-17.5 -158q0 -140 59 -214.5t168 -74.5z
M711 1675q5 55 26.5 111t60 101.5t92.5 74.5t124 29q28 0 63 -15t73 -32.5t75.5 -32.5t69.5 -15q27 0 46 20.5t42 74.5h174q-17 -54 -40.5 -110t-58.5 -102t-83.5 -75t-114.5 -29q-31 0 -68.5 14t-76.5 31t-77.5 31t-70.5 14q-29 0 -49 -22.5t-37 -67.5h-170z" />
    <glyph glyph-name="OE" unicode="&#xce;" horiz-adv-x="2302" 
d="M909 1417q20 96 84 143.5t176 47.5q94 0 171.5 -27.5t134.5 -81.5h919l-151 -436q-22 57 -41.5 93t-43 56.5t-52.5 28.5t-70 8q-38 0 -71.5 -12.5t-58 -34.5t-39 -51.5t-14.5 -63.5q0 -46 27.5 -74t71.5 -28q21 0 39.5 4.5t40 16t49 31.5t65.5 50l-116 -350
q-23 19 -41.5 32t-35.5 21t-34 11.5t-37 3.5q-36 0 -67.5 -13.5t-55.5 -36.5t-37.5 -54t-13.5 -66q0 -34 12.5 -63t34 -50.5t50.5 -34t63 -12.5q62 0 108.5 25.5t78 70t47.5 104t16 126.5q100 -40 158.5 -111t58.5 -184q0 -102 -44.5 -194t-119.5 -161.5t-174 -110
t-209 -40.5h-574q-88 -62 -186.5 -93.5t-210.5 -31.5q-141 0 -254.5 43.5t-193 124.5t-122 197t-42.5 260q0 99 23 202t62.5 200.5t94 184t117.5 152.5q30 31 63.5 55t68 42.5t68 31.5t64.5 22q72 21 143 27zM987 340q60 0 118 29.5t110 81t96.5 123t76.5 156t50 178
t18 190.5q0 62 -14 112t-40 85.5t-63 55t-82 19.5q-69 0 -133 -34.5t-119.5 -92t-100.5 -133t-77 -157.5t-49.5 -166t-17.5 -158q0 -140 59 -214.5t168 -74.5z" />
    <glyph glyph-name="oe" unicode="&#xcf;" horiz-adv-x="1788" 
d="M541 -106q-109 -1 -181 30t-116.5 80t-65.5 109t-28 116.5t-4.5 102.5t4.5 67q6 62 32.5 132.5t70 140t104 133t135.5 112.5t164 78t190 29q65 0 115 -20t85.5 -55.5t57.5 -84.5t31 -108q59 63 127.5 113.5t141.5 85.5t147 53t143 16q45 -1 85 -17.5t69.5 -45t46 -68.5
t14.5 -88q-2 -75 -34 -133t-84 -97t-119 -57.5t-140 -15.5q-18 1 -34.5 2.5t-29.5 3.5q-15 2 -28 4q-5 -22 -9 -44q-4 -19 -7 -41t-3 -42q0 -29 6 -67.5t21.5 -72.5t42 -57.5t68.5 -23.5q38 0 72.5 13t64 30.5t54.5 35t44 25.5l27 -51q-20 -13 -45 -34q-21 -18 -50.5 -46
t-64.5 -67q-37 -42 -81 -77.5t-92 -61t-98.5 -40t-101.5 -14.5q-41 -1 -83 8t-80 26.5t-71.5 43.5t-58.5 61q-15 20 -26 43t-21 47q-37 -45 -81.5 -83.5t-95.5 -67t-108.5 -44.5t-121.5 -17zM618 625q-26 -77 -34 -136.5t-3 -104t19.5 -74.5t33.5 -48t40 -25t37 -6
q50 6 102 45t94.5 102.5t69.5 147t27 176.5q0 32 -5.5 64t-19.5 58.5t-37.5 43t-58.5 17.5q-42 1 -82.5 -21t-75 -58.5t-62.5 -83.5t-45 -97zM1458 598q50 -9 87 0t62.5 25t41 34t22.5 27q18 25 30.5 55t14.5 57t-8.5 45t-38.5 19q-31 1 -63.5 -26.5t-62 -68t-52 -86.5
t-33.5 -81z" />
    <glyph glyph-name="endash" unicode="&#xd0;" horiz-adv-x="1362" 
d="M215 559q0 51 11 89t26 73t31 71.5t26 84.5q29 -28 56.5 -44.5t58 -25.5t65 -11.5t76.5 -2.5q48 0 107 3t124 7.5t132.5 10t131.5 10t122 7.5t104 3q36 0 63.5 -12.5t46.5 -33.5t28.5 -49t9.5 -59q0 -42 -9 -73.5t-20.5 -61.5t-22 -62.5t-12.5 -76.5q-55 26 -124.5 35.5
t-145.5 7.5t-154.5 -11.5t-151.5 -20.5t-136.5 -19.5t-110.5 -8.5h-51t-69 4t-74.5 13.5t-68 28.5t-50 49t-19.5 75z" />
    <glyph glyph-name="emdash" unicode="&#xd1;" horiz-adv-x="1769" 
d="M215 561q0 51 11 88.5t26.5 71t32 69.5t26.5 84q28 -27 55.5 -43.5t57.5 -25.5t65 -11.5t78 -2.5q35 0 95 1.5t135 4.5t161 6.5t174 7.5t174 7.5t160.5 6.5t133.5 4.5t94 1.5q36 0 63.5 -12.5t46 -33.5t28 -48.5t9.5 -58.5q0 -42 -9 -73t-20 -60t-21.5 -61t-12.5 -76
q-42 20 -109 30t-150.5 12.5t-178.5 -1t-191 -10t-189 -15t-173 -16t-142.5 -12.5t-97.5 -5h-51t-69 4t-74.5 13.5t-68 28.5t-50 49t-19.5 75z" />
    <glyph glyph-name="quotedblleft" unicode="&#xd2;" horiz-adv-x="1024" 
d="M1413 1599q-9 -17 -24 -35q-13 -16 -33 -34.5t-51 -36.5q-27 -16 -46.5 -37t-33.5 -39q-16 -21 -27 -43q8 3 19 5q9 2 22 2.5t27 -1.5q21 -2 38 -16t29 -33.5t18.5 -41t6.5 -38.5q-1 -49 -16.5 -90.5t-43.5 -71.5t-66.5 -46.5t-84.5 -16.5q-39 0 -75 17t-63 46t-43 67.5
t-16 82.5q1 45 12.5 85.5t34 75t54.5 61t73 42.5q24 9 49 16t49.5 14t49.5 16t49 22q14 8 26 16.5t23 16.5q12 9 23 18l20 -23v0zM942 1602q-7 -19 -22 -37q-13 -16 -33.5 -34.5t-52.5 -35.5q-27 -16 -46.5 -37t-33.5 -40q-16 -22 -27 -44q8 3 19 6q20 5 49 2q21 -2 38 -16
t29.5 -33.5t19.5 -41t7 -38.5q-1 -49 -16.5 -90.5t-43.5 -71.5t-66.5 -46.5t-84.5 -16.5q-39 0 -75 16.5t-63 45t-43 67t-16 82.5q1 45 12.5 86t33.5 75.5t54 61.5t72 43q24 9 49 16t49.5 14t49.5 16t49 22q14 8 27 16.5t23 16.5l22 18l20 -22v0z" />
    <glyph glyph-name="quotedblright" unicode="&#xd3;" horiz-adv-x="1024" 
d="M399 1018q9 18 24 36q13 16 33.5 35.5t51.5 36.5q27 16 46.5 36t33.5 39q16 22 26 44q-8 -2 -19 -4q-9 -2 -20.5 -3t-25.5 1q-21 2 -38.5 16t-30 33.5t-19 41t-6.5 38.5q0 48 15.5 89.5t43 71.5t66 47t84.5 17q39 0 74.5 -17t62.5 -46t43 -67.5t16 -82.5q0 -43 -11.5 -84
t-33 -75.5t-53.5 -61.5t-74 -43q-24 -10 -48.5 -17t-49.5 -14t-49.5 -15.5t-48.5 -22.5q-13 -7 -25.5 -15.5t-23.5 -16.5q-12 -9 -23 -18l-21 21v0zM870 1018q8 18 23 36q13 16 33.5 35.5t52.5 36.5q27 16 46.5 36t33.5 39q16 22 26 44q-8 -2 -19 -4q-9 -2 -21 -3t-27 1
q-21 2 -38 16t-29 33.5t-18.5 41t-6.5 38.5q0 48 15.5 89.5t43 71.5t66 47t84.5 17q39 0 74.5 -17t62.5 -46t43 -67.5t16 -82.5q0 -43 -11.5 -84t-33 -75.5t-53.5 -61.5t-74 -43q-24 -10 -48.5 -17t-49.5 -14t-49.5 -15.5t-48.5 -22.5q-14 -7 -27 -15.5t-23 -16.5l-22 -18
l-21 21v0z" />
    <glyph glyph-name="quoteleft" unicode="&#xd4;" horiz-adv-x="492" 
d="M881 1602q-8 -19 -23 -37q-13 -16 -33.5 -34.5t-52.5 -35.5q-27 -16 -46.5 -37t-33.5 -40q-16 -22 -26 -44q8 3 19 6q20 5 48 2q21 -2 38 -16t29.5 -33.5t19.5 -41t7 -38.5q-1 -49 -16.5 -90.5t-43.5 -71.5t-66.5 -46.5t-84.5 -16.5q-39 0 -74.5 16.5t-62.5 45t-43 67
t-16 82.5q1 45 12.5 86t33.5 75.5t53.5 61.5t72.5 43q24 9 48.5 16t49.5 14t49.5 16t48.5 22q14 8 27 16.5t23 16.5l22 18l21 -22v0z" />
    <glyph glyph-name="quoteright" unicode="&#xd5;" horiz-adv-x="492" 
d="M399 1018q9 18 24 36q13 16 33.5 35.5t51.5 36.5q27 16 46.5 36t33.5 39q16 22 26 44q-8 -2 -19 -4q-9 -2 -20.5 -3t-25.5 1q-21 2 -38.5 16t-30 33.5t-19 41t-6.5 38.5q0 48 15.5 89.5t43 71.5t66 47t84.5 17q39 0 74.5 -17t62.5 -46t43 -67.5t16 -82.5q0 -43 -11.5 -84
t-33 -75.5t-53.5 -61.5t-74 -43q-24 -10 -48.5 -17t-49.5 -14t-49.5 -15.5t-48.5 -22.5q-13 -7 -25.5 -15.5t-23.5 -16.5q-12 -9 -23 -18l-21 21v0z" />
    <glyph glyph-name="ydieresis" unicode="&#xd8;" horiz-adv-x="1178" 
d="M541 -559q-100 0 -172 26t-120.5 69t-75 100t-35 119.5t-0.5 126t28 120.5q24 -30 54 -58t64.5 -49t73 -34t78.5 -13q66 0 115.5 27.5t85 73.5t57 106t31.5 125q-30 -37 -63 -71.5t-69.5 -61.5t-78 -43t-88.5 -16q-57 0 -103.5 19.5t-80.5 55.5t-54.5 87.5t-25.5 115.5
q-3 37 5.5 85t25 103t40 114t50.5 118q33 73 52 129t30 94q12 45 16 78h442q-21 -26 -48 -66t-54.5 -88t-53.5 -100.5t-45.5 -103.5t-30.5 -97t-8.5 -81t20.5 -55.5t56 -20.5q35 0 58.5 14.5t48.5 48.5q31 43 56.5 89.5t45.5 93t35.5 92t27.5 86.5q27 96 40 188h401
q-36 -47 -70.5 -113.5t-67.5 -145.5t-65 -166.5t-63 -176.5q-36 -103 -60.5 -201t-45 -185.5t-41 -162t-48.5 -129.5q-22 -45 -58 -92t-83 -85.5t-105 -63.5t-124 -25zM549 1317q4 36 20.5 64t41 47.5t55 29.5t61.5 10t56 -12.5t42 -32.5t26 -46.5t7 -55.5q-2 -31 -15 -58.5
t-35.5 -48t-54.5 -32t-73 -11.5q-30 0 -55.5 11.5t-43 31.5t-26.5 46.5t-6 56.5zM956 1317q4 36 20.5 64t41 47.5t55 29.5t61.5 10t56 -12.5t42.5 -32.5t26.5 -46.5t7 -55.5q-3 -31 -16 -58.5t-35.5 -48t-54.5 -32t-73 -11.5q-30 0 -55.5 11.5t-43 31.5t-26.5 46.5t-6 56.5z
" />
    <glyph glyph-name="Ydieresis" unicode="&#xd9;" horiz-adv-x="1761" 
d="M20 0q81 41 164 96t160.5 118.5t145.5 132t118.5 136t79.5 130t29 114.5q0 40 -13.5 95t-37.5 124q-29 81 -50 139t-35 102.5t-22 79.5t-11 69.5t-2.5 73t3.5 89.5h573q-48 -51 -82.5 -94.5t-57 -85.5t-33.5 -85.5t-11 -94.5q0 -73 22 -130t68 -108q65 53 104.5 121
t60 145.5t24.5 162t-3 169.5h1039q-150 -73 -260 -131.5t-195.5 -110t-153 -101t-133.5 -105.5q-239 -204 -359 -407t-120 -404q0 -30 2.5 -55t9 -52t19 -58.5t31.5 -74.5h-1074v0zM969 1829q4 36 20.5 64t41 47.5t55 29.5t61.5 10t56 -12.5t42 -32.5t26 -46.5t7 -55.5
q-2 -31 -15 -58.5t-35.5 -48t-54.5 -32t-73 -11.5q-30 0 -55.5 11.5t-43 31.5t-26.5 46.5t-6 56.5zM1376 1829q4 36 20.5 64t41 47.5t55 29.5t61.5 10t56 -12.5t42.5 -32.5t26.5 -46.5t7 -55.5q-3 -31 -16 -58.5t-35.5 -48t-54.5 -32t-73 -11.5q-30 0 -55.5 11.5t-43 31.5
t-26.5 46.5t-6 56.5z" />
    <glyph glyph-name="fraction" unicode="&#xda;" horiz-adv-x="1270" 
d="M283 -98q-55 -4 -99.5 2t-79 18t-60.5 28t-44 34q-43 41 -61 96q81 -5 166 32q36 16 77.5 42t85 67t88.5 98.5t88 135.5q35 64 67.5 144.5t66 169.5t69 181t78 178t93.5 162.5t114 133t140.5 89.5t172.5 33q45 0 89 -13t79.5 -38.5t60 -63t31.5 -85.5q-81 15 -148.5 1.5
t-122 -49.5t-97 -91t-72.5 -122q-31 -69 -61.5 -155.5t-63 -181.5t-68.5 -192.5t-79 -190t-94 -174.5t-113 -144.5t-137 -101t-166 -43.5z" />
    <glyph glyph-name="Euro" unicode="&#xdb;" horiz-adv-x="1458" 
d="M1444 625q-23 -103 -64 -198t-96 -176.5t-121 -148t-139.5 -113.5t-151.5 -72.5t-157 -25.5q-108 0 -195.5 38t-148.5 105t-94 158t-33 197q0 21 1 46t2.5 51t3.5 51.5t5 46.5q-46 -1 -84.5 -1.5t-65.5 -1.5q-32 -1 -57 -1q8 18 12.5 39.5t6.5 41.5q3 23 4 46
q42 -4 93 -4.5t111 -0.5q8 35 18 67.5t21 64.5q-48 -1 -87 -2t-68 -2q-33 -1 -60 -1q8 18 12.5 40t6.5 42q3 23 4 45q46 -3 107 -3.5t132 -0.5q58 127 138 234t175 185t201.5 122t217.5 45q84 1 147.5 -16.5t108.5 -48t74 -72t44.5 -90.5t18.5 -102t-4 -107q-35 66 -83 119
q-21 23 -46 44t-55 37.5t-64.5 26.5t-73.5 10q-61 -1 -118 -34t-107 -85.5t-90.5 -119.5t-69.5 -135q117 2 216 2t159 -6q-8 -19 -12.5 -40.5t-6.5 -41.5q-3 -23 -4 -45q-26 2 -67 3.5t-92 2.5t-111 1q-59 0 -121 -1q-8 -31 -11 -61.5t-3 -59.5v-4q55 1 107 1.5t98 0.5
t85 -1.5t68 -4.5q-8 -18 -12 -40t-6 -42q-3 -23 -4 -45q-47 5 -131.5 5.5t-188.5 0.5q-1 -56 20 -103q9 -20 23.5 -39.5t36.5 -35t52.5 -27t70.5 -14.5q47 -4 93.5 4.5t90.5 25.5t85 40t76 48q83 58 157 136z" />
    <glyph glyph-name="guilsinglleft" unicode="&#xdc;" horiz-adv-x="647" 
d="M582 944q51 -10 94.5 -12t76.5 0q39 2 72 8q-85 -124 -142.5 -198.5t-94.5 -117.5t-56.5 -62.5t-29.5 -33.5l24 -413q-20 5 -55 4q-30 -1 -78.5 -6.5t-120.5 -22.5l-28 438z" />
    <glyph glyph-name="guilsinglright" unicode="&#xdd;" horiz-adv-x="647" 
d="M328 92q-50 11 -94.5 12.5t-77.5 -0.5q-39 -2 -72 -8q85 124 142.5 198.5t94.5 117.5t57 62.5t30 33.5l-25 414q20 -5 55 -5q30 0 78.5 6t120.5 23l29 -438z" />
    <glyph glyph-name="fi" unicode="&#xde;" horiz-adv-x="1335" 
d="M-532 -264q33 -31 72 -55q33 -20 76.5 -37t94.5 -15q60 2 108 20.5t85.5 47t65 64.5t47.5 73.5t33 73t22 63.5l288 928q-28 4 -55 3q-23 -1 -48.5 -5.5t-45.5 -17.5l27 108q45 -10 85 1q17 5 34.5 14.5t33.5 26t29.5 41.5t21.5 60q17 69 48 144t79 136.5t115 101.5
t156 40q37 0 75.5 -11t70 -34.5t51.5 -60.5t20 -88q0 -24 -10 -53t-29 -54t-45.5 -42t-59.5 -17q-45 0 -75 13t-48 35.5t-26 51.5t-10 60q-26 5 -46.5 -9.5t-33.5 -37t-18.5 -47.5t-2.5 -41q2 -46 20.5 -80t48 -58.5t66.5 -41t76 -26.5q91 -24 205 -24h410
q-45 -104 -85 -197q-17 -40 -34 -81.5t-32 -80t-27 -72t-19 -56.5q-3 -10 -10 -32.5t-14.5 -50.5t-13 -57.5t-5.5 -54.5q0 -9 1 -19.5t5 -20t11.5 -15.5t19.5 -6q19 0 37 15.5t32 35.5q17 23 33 51h52q-2 -11 -18.5 -46t-44.5 -81t-66.5 -97t-86 -94.5t-103 -72.5
t-116.5 -31q-54 -2 -91 22t-60 61.5t-33 82t-10 84.5q0 64 18.5 127.5t47 129.5t63.5 135t67 143q19 43 31.5 92.5t15.5 97.5h-233q-77 -240 -139 -436q-27 -84 -53 -166t-47.5 -150.5t-36 -116t-19.5 -61.5q-31 -105 -92 -191t-144 -146.5t-184.5 -94t-214.5 -33.5
q-100 0 -181 27.5t-140 60.5q-69 39 -123 89zM1110 1229q0 46 18.5 82.5t49.5 61.5t71.5 38.5t83.5 13.5q37 0 75.5 -13.5t70 -38.5t51.5 -60t20 -78q0 -24 -11.5 -58t-37 -64.5t-67 -52.5t-101.5 -22q-40 0 -79.5 13.5t-71.5 38t-52 60t-20 79.5z" />
    <glyph glyph-name="fl" unicode="&#xdf;" horiz-adv-x="1333" 
d="M-532 -264q33 -31 72 -55q33 -20 76.5 -37t94.5 -15q60 2 108 20.5t85.5 47t65 64.5t47.5 73.5t33 73t22 63.5l288 928q-28 4 -55 3q-23 -1 -48.5 -5.5t-45.5 -17.5l27 108q45 -10 85 1q17 5 34.5 14.5t33.5 26t29.5 41.5t21.5 60q17 69 48 144t79 136.5t115 101.5
t156 40q37 0 75.5 -11t70 -34.5t51.5 -60.5t20 -88q0 -24 -10 -53t-29 -54t-45.5 -42t-59.5 -17q-45 0 -75 13t-48 35.5t-26 51.5t-10 60q-26 5 -46.5 -9.5t-33.5 -37t-18.5 -47.5t-2.5 -41q2 -60 35 -100.5t81 -66t104 -38.5t105 -18.5t83 -6t39 -0.5q19 59 36 122.5
t29 129t17.5 131t1.5 129.5h454q3 -37 -13.5 -97t-44 -130.5t-61 -145.5t-63.5 -141q-14 -31 -38.5 -92t-51 -134.5t-49 -153t-31.5 -148.5q-9 -67 -12.5 -126t-3.5 -115q0 -55 3 -108.5t7 -107.5h-631q33 52 66.5 113t66 125t63 129t58 125t50 113t38.5 93q16 39 36 90
t42 111h-258q-77 -240 -139 -436q-27 -84 -53 -166t-47.5 -150.5t-36 -116t-19.5 -61.5q-31 -105 -92 -191t-144 -146.5t-184.5 -94t-214.5 -33.5q-100 0 -181 27.5t-140 60.5q-69 39 -123 89z" />
    <glyph glyph-name="daggerdbl" unicode="&#xe0;" horiz-adv-x="1333" 
d="M-532 -264q33 -31 72 -55q33 -20 76.5 -37t94.5 -15q60 2 108 20.5t85.5 47t65 64.5t47.5 73.5t33 73t22 63.5l288 928q-28 4 -55 3q-23 -1 -48.5 -5.5t-45.5 -17.5l27 108q45 -10 85 1q17 5 34.5 14.5t33.5 26t29.5 41.5t21.5 60q17 69 48 144t79 136.5t115 101.5
t156 40q37 0 75.5 -11t70 -34.5t51.5 -60.5t20 -88q0 -24 -10 -53t-29 -54t-45.5 -42t-59.5 -17q-45 0 -75 13t-48 35.5t-26 51.5t-10 60q-26 5 -46.5 -9.5t-33.5 -37t-18.5 -47.5t-2.5 -41q2 -60 35 -100.5t81 -66t103.5 -38.5t104.5 -18.5t83 -6t38 -0.5q25 65 46 129.5
t35 128.5t19.5 127.5t-0.5 126.5h442q12 -39 8 -85.5t-19 -96.5t-38 -103.5t-48.5 -107t-51 -106.5t-45.5 -103q-43 -107 -80.5 -205t-65 -193t-43.5 -189t-16 -193q0 -45 8 -92.5t24.5 -92.5t41.5 -85t59.5 -69.5t78 -46.5t97.5 -16v-47q-12 -5 -36.5 -9.5t-54 -8t-60.5 -6
t-56 -2.5q-250 9 -377 126.5t-126 344.5q1 105 21.5 206t52.5 199t71.5 193t77.5 188h-252q-77 -240 -139 -436q-27 -84 -53 -166t-47.5 -150.5t-36 -116t-19.5 -61.5q-31 -105 -92 -191t-144 -146.5t-184.5 -94t-214.5 -33.5q-100 0 -181 27.5t-140 60.5q-69 39 -123 89z
" />
    <glyph glyph-name="periodcentered" unicode="&#xe1;" horiz-adv-x="602" 
d="M307 815q0 42 17 80.5t46.5 68t70 47t87.5 17.5q44 0 82 -17.5t66.5 -47.5t44.5 -69t16 -81q0 -40 -13.5 -80t-41 -72t-69 -52.5t-97.5 -20.5q-45 0 -83.5 18t-66.5 49t-43.5 72.5t-15.5 87.5z" />
    <glyph glyph-name="quotesinglbase" unicode="&#xe2;" horiz-adv-x="604" 
d="M41 -250q8 19 23 37q13 16 33.5 34.5t52.5 35.5q27 16 46.5 36.5t33.5 39.5q16 22 26 44q-8 -3 -19 -6q-20 -5 -49 -2q-21 2 -38 16t-29.5 33.5t-19.5 41t-7 38.5q0 49 15.5 90.5t43.5 71.5t66.5 47t83.5 17q39 0 75 -16.5t63 -45.5t43 -67t16 -82q0 -45 -11.5 -86
t-33 -76t-53 -62t-72.5 -43q-24 -9 -49 -15.5t-49.5 -13.5t-49.5 -16t-49 -22q-14 -8 -27 -16.5t-23 -16.5l-22 -18l-20 22v0z" />
    <glyph glyph-name="quotedblbase" unicode="&#xe3;" horiz-adv-x="1077" 
d="M41 -252q9 19 24 37q13 16 33.5 35t51.5 37q27 15 46.5 35.5t33.5 38.5q16 21 26 44q-8 -3 -19 -5q-9 -2 -21 -2.5t-26 1.5q-21 1 -38.5 15.5t-30 34t-19 41t-6.5 38.5q0 48 15.5 89.5t43 72t66 47.5t84.5 17q39 0 75 -17t63 -46t43 -67.5t16 -82.5t-11.5 -85
t-33.5 -75.5t-54 -61.5t-73 -43q-24 -10 -49 -16.5t-49.5 -13.5t-49.5 -16t-49 -23q-13 -8 -25.5 -16t-23.5 -16q-12 -9 -23 -17l-20 20v0zM512 -252q8 19 23 37q13 16 33.5 35t52.5 37q27 15 46.5 35.5t33.5 38.5q16 21 26 44q-8 -3 -19 -5q-9 -2 -21.5 -2.5t-27.5 1.5
q-21 1 -38 15.5t-29 34t-18.5 41t-6.5 38.5q0 48 15.5 89.5t43 72t66 47.5t84.5 17q39 0 75 -17t63 -46t43 -67.5t16 -82.5t-11.5 -85t-33.5 -75.5t-54 -61.5t-73 -43q-24 -10 -49 -16.5t-49.5 -13.5t-49.5 -16t-49 -23q-14 -8 -27 -16t-23 -16q-11 -9 -22 -17l-20 20v0z
" />
    <glyph glyph-name="perthousand" unicode="&#xe4;" horiz-adv-x="2910" 
d="M1016 291q0 80 26 159t71 150t106.5 132t131.5 105.5t146.5 69.5t151.5 25q58 0 100.5 -14.5t72.5 -38.5t48.5 -55.5t29 -66t14 -69t3.5 -65.5q0 -125 -25.5 -227t-68.5 -181t-99.5 -136.5t-118 -95t-124 -55.5t-117.5 -18q-94 0 -160 32t-108 85.5t-61 122t-19 141.5z
M330 459q30 -15 69 -26q33 -10 79.5 -18.5t103.5 -8.5q35 0 71 9t71 24t68 34t63 39q70 47 134 106q-14 -183 -84 -327q-30 -61 -74 -120t-107 -105.5t-146.5 -74.5t-192.5 -28q-45 0 -82.5 10.5t-63.5 24.5q-31 16 -55 35zM1419 383q0 -26 5 -55t17.5 -53t32.5 -40t50 -16
q36 0 70 20.5t64 55t55 78.5t43 90.5t28 92.5t10 83q0 27 -5.5 55t-19.5 50.5t-36.5 36.5t-57.5 14q-30 0 -60.5 -19.5t-59 -52.5t-53.5 -75.5t-43.5 -88.5t-29 -91.5t-10.5 -84.5zM1214 903q60 187 150 334q38 63 86.5 123t107 107t128 75.5t149.5 28.5q41 0 79.5 -10.5
t69.5 -23.5q36 -15 68 -34l-129 -393q-33 15 -70 26q-32 10 -72.5 17.5t-84.5 7.5q-38 0 -79 -11t-82 -29t-80.5 -41.5t-75.5 -47.5q-84 -57 -165 -129zM236 926q0 80 26 158.5t71 149.5t106 131.5t131.5 105t146.5 69.5t151 25q59 0 102 -14.5t73 -38.5t48 -55.5t28.5 -66
t14 -69t3.5 -64.5q0 -126 -25.5 -227.5t-68.5 -180.5t-99 -136.5t-117 -94.5t-123.5 -55t-117.5 -18q-94 0 -160.5 32t-108.5 85t-61.5 121.5t-19.5 142.5zM641 1018q0 -26 5 -55.5t17 -54t32 -40.5t50 -16q36 0 70 20.5t64.5 55t56 78.5t44 90.5t28.5 92.5t10 83
q0 28 -6 56t-20 50.5t-37 37t-58 14.5q-30 0 -60.5 -19.5t-59 -52.5t-53.5 -75.5t-43.5 -88.5t-29 -91.5t-10.5 -84.5zM1978 291q0 80 26 159t71 150t106 132t131.5 105.5t146.5 69.5t152 25q88 0 140.5 -31t81 -77.5t37.5 -100.5t9 -100q0 -125 -25.5 -227t-68 -181
t-98.5 -136.5t-117 -95t-123.5 -55.5t-117.5 -18q-94 0 -160.5 32t-109 85.5t-62 122t-19.5 141.5zM2384 383q0 -26 5 -55t17 -53t31.5 -40t48.5 -16q36 0 70 20.5t64.5 55t56 78.5t44 90.5t28.5 92.5t10 83q0 27 -5.5 55t-19.5 50.5t-37.5 36.5t-58.5 14q-30 0 -60.5 -19.5
t-58.5 -52.5t-52.5 -75.5t-43 -88.5t-29 -91.5t-10.5 -84.5z" />
    <glyph glyph-name="Acircumflex" unicode="&#xe5;" horiz-adv-x="1585" 
d="M-164 -39q23 -13 50 -23q23 -8 53.5 -15t64.5 -7q66 0 125 16.5t114 52t107.5 90t104.5 130.5q104 153 195.5 305.5t171.5 311.5t150.5 326.5t133.5 350.5h756q-77 -138 -146.5 -281t-122.5 -284t-84.5 -276.5t-31.5 -260.5q0 -15 1.5 -43t5 -63.5t8 -75t11 -79
t14.5 -74.5t17 -62h-647q44 38 82.5 70t67.5 66.5t46 76t17 98.5q0 25 -9 47t-24 39t-35 27t-43 10q-45 0 -81 -25.5t-64.5 -67t-51.5 -95t-41.5 -109.5t-34 -110t-30.5 -97q-21 -63 -59.5 -114.5t-88 -87.5t-107.5 -56t-118 -20q-85 1 -161 25.5t-138.5 66.5t-108 98
t-69.5 119zM1190 1057q-48 -36 -93 -84.5t-79.5 -98.5t-55 -97.5t-20.5 -82.5q0 -21 9.5 -39t25.5 -31.5t38.5 -21.5t47.5 -8q39 0 71 15.5t55 43t35.5 65.5t12.5 83q0 33 -3.5 68.5t-10 69.5t-15 64.5t-18.5 53.5zM1081 1675q70 58 118.5 114.5t78.5 101.5q35 53 57 100
h440q10 -47 27 -99q14 -45 38 -101t60 -116h-272q-17 32 -36.5 58.5t-36.5 46.5q-19 23 -38 41q-26 -15 -56 -36q-26 -18 -57 -45t-63 -65h-260z" />
    <glyph glyph-name="Ecircumflex" unicode="&#xe6;" horiz-adv-x="1323" 
d="M0 0q49 71 89 129.5t72.5 110t60 97.5t52.5 91.5t49 93t50 101.5q122 255 183.5 431t61.5 273q0 37 -10.5 77.5t-42.5 94.5h850l-151 -436q-22 57 -41.5 93t-43 56.5t-52.5 28.5t-70 8q-38 0 -71.5 -12.5t-58 -34.5t-39 -51.5t-14.5 -63.5q0 -46 27.5 -74t71.5 -28
q21 0 39.5 4.5t40 16t49 31.5t65.5 50l-116 -350q-23 19 -41.5 32t-35.5 21t-34 11.5t-37 3.5q-36 0 -67.5 -13.5t-55.5 -36.5t-37.5 -54t-13.5 -66q0 -34 12.5 -63t34 -50.5t50.5 -34t63 -12.5q62 0 108.5 25.5t78 70t47.5 104t16 126.5q100 -40 158.5 -111t58.5 -184
q0 -102 -44.5 -194t-119.5 -161.5t-174 -110t-209 -40.5h-809v0zM604 1675q70 58 118.5 114.5t78.5 101.5q35 53 57 100h440q10 -47 27 -99q14 -45 38 -101t60 -116h-272q-17 32 -36.5 58.5t-36.5 46.5q-19 23 -38 41q-26 -15 -56 -36q-26 -18 -57 -45t-63 -65h-260z" />
    <glyph glyph-name="Aacute" unicode="&#xe7;" horiz-adv-x="1585" 
d="M-164 -39q23 -13 50 -23q23 -8 53.5 -15t64.5 -7q66 0 125 16.5t114 52t107.5 90t104.5 130.5q104 153 195.5 305.5t171.5 311.5t150.5 326.5t133.5 350.5h756q-77 -138 -146.5 -281t-122.5 -284t-84.5 -276.5t-31.5 -260.5q0 -15 1.5 -43t5 -63.5t8 -75t11 -79
t14.5 -74.5t17 -62h-647q44 38 82.5 70t67.5 66.5t46 76t17 98.5q0 25 -9 47t-24 39t-35 27t-43 10q-45 0 -81 -25.5t-64.5 -67t-51.5 -95t-41.5 -109.5t-34 -110t-30.5 -97q-21 -63 -59.5 -114.5t-88 -87.5t-107.5 -56t-118 -20q-85 1 -161 25.5t-138.5 66.5t-108 98
t-69.5 119zM1190 1057q-48 -36 -93 -84.5t-79.5 -98.5t-55 -97.5t-20.5 -82.5q0 -21 9.5 -39t25.5 -31.5t38.5 -21.5t47.5 -8q39 0 71 15.5t55 43t35.5 65.5t12.5 83q0 33 -3.5 68.5t-10 69.5t-15 64.5t-18.5 53.5zM2010 1991q-74 -40 -148 -89q-31 -21 -65.5 -46t-69 -54
t-68 -60.5t-63.5 -66.5h-293q69 54 118.5 109.5t81.5 101.5q38 54 62 105h445z" />
    <glyph glyph-name="Edieresis" unicode="&#xe8;" horiz-adv-x="1323" 
d="M0 0q49 71 89 129.5t72.5 110t60 97.5t52.5 91.5t49 93t50 101.5q122 255 183.5 431t61.5 273q0 37 -10.5 77.5t-42.5 94.5h850l-151 -436q-22 57 -41.5 93t-43 56.5t-52.5 28.5t-70 8q-38 0 -71.5 -12.5t-58 -34.5t-39 -51.5t-14.5 -63.5q0 -46 27.5 -74t71.5 -28
q21 0 39.5 4.5t40 16t49 31.5t65.5 50l-116 -350q-23 19 -41.5 32t-35.5 21t-34 11.5t-37 3.5q-36 0 -67.5 -13.5t-55.5 -36.5t-37.5 -54t-13.5 -66q0 -34 12.5 -63t34 -50.5t50.5 -34t63 -12.5q62 0 108.5 25.5t78 70t47.5 104t16 126.5q100 -40 158.5 -111t58.5 -184
q0 -102 -44.5 -194t-119.5 -161.5t-174 -110t-209 -40.5h-809v0zM666 1829q4 36 20.5 64t41 47.5t55 29.5t61.5 10t56 -12.5t42 -32.5t26 -46.5t7 -55.5q-2 -31 -15 -58.5t-35.5 -48t-54.5 -32t-73 -11.5q-30 0 -55.5 11.5t-43 31.5t-26.5 46.5t-6 56.5zM1073 1829
q4 36 20.5 64t41 47.5t55 29.5t61.5 10t56 -12.5t42.5 -32.5t26.5 -46.5t7 -55.5q-3 -31 -16 -58.5t-35.5 -48t-54.5 -32t-73 -11.5q-30 0 -55.5 11.5t-43 31.5t-26.5 46.5t-6 56.5z" />
    <glyph glyph-name="Egrave" unicode="&#xe9;" horiz-adv-x="1323" 
d="M0 0q49 71 89 129.5t72.5 110t60 97.5t52.5 91.5t49 93t50 101.5q122 255 183.5 431t61.5 273q0 37 -10.5 77.5t-42.5 94.5h850l-151 -436q-22 57 -41.5 93t-43 56.5t-52.5 28.5t-70 8q-38 0 -71.5 -12.5t-58 -34.5t-39 -51.5t-14.5 -63.5q0 -46 27.5 -74t71.5 -28
q21 0 39.5 4.5t40 16t49 31.5t65.5 50l-116 -350q-23 19 -41.5 32t-35.5 21t-34 11.5t-37 3.5q-36 0 -67.5 -13.5t-55.5 -36.5t-37.5 -54t-13.5 -66q0 -34 12.5 -63t34 -50.5t50.5 -34t63 -12.5q62 0 108.5 25.5t78 70t47.5 104t16 126.5q100 -40 158.5 -111t58.5 -184
q0 -102 -44.5 -194t-119.5 -161.5t-174 -110t-209 -40.5h-809v0zM1036 1991q5 -40 21 -90q14 -43 39.5 -100.5t68.5 -125.5h-277q-31 51 -74 106q-37 47 -90.5 102t-123.5 108h436v0z" />
    <glyph glyph-name="Iacute" unicode="&#xea;" horiz-adv-x="801" 
d="M0 0q51 63 86.5 111t65.5 93t58 93t62 111q83 152 146.5 297t105.5 282t60 265.5t8 246.5h577q-69 -87 -130.5 -185.5t-112.5 -204t-91.5 -216.5t-68 -222.5t-42.5 -222t-15 -215.5q0 -40 1.5 -69t5 -54t10.5 -50.5t17 -59.5h-743v0zM1448 1991q-74 -40 -148 -89
q-31 -21 -65.5 -46t-69 -54t-68 -60.5t-63.5 -66.5h-293q69 54 118.5 109.5t81.5 101.5q38 54 62 105h445z" />
    <glyph glyph-name="Icircumflex" unicode="&#xeb;" horiz-adv-x="801" 
d="M0 0q51 63 86.5 111t65.5 93t58 93t62 111q83 152 146.5 297t105.5 282t60 265.5t8 246.5h577q-69 -87 -130.5 -185.5t-112.5 -204t-91.5 -216.5t-68 -222.5t-42.5 -222t-15 -215.5q0 -40 1.5 -69t5 -54t10.5 -50.5t17 -59.5h-743v0zM481 1675q70 58 118.5 114.5
t78.5 101.5q35 53 57 100h440q10 -47 27 -99q14 -45 38 -101t60 -116h-272q-17 32 -36.5 58.5t-36.5 46.5q-19 23 -38 41q-26 -15 -56 -36q-26 -18 -57 -45t-63 -65h-260z" />
    <glyph glyph-name="Idieresis" unicode="&#xec;" horiz-adv-x="801" 
d="M0 0q51 63 86.5 111t65.5 93t58 93t62 111q83 152 146.5 297t105.5 282t60 265.5t8 246.5h577q-69 -87 -130.5 -185.5t-112.5 -204t-91.5 -216.5t-68 -222.5t-42.5 -222t-15 -215.5q0 -40 1.5 -69t5 -54t10.5 -50.5t17 -59.5h-743v0zM545 1829q4 36 20.5 64t41 47.5
t55 29.5t61.5 10t56 -12.5t42 -32.5t26 -46.5t7 -55.5q-2 -31 -15 -58.5t-35.5 -48t-54.5 -32t-73 -11.5q-30 0 -55.5 11.5t-43 31.5t-26.5 46.5t-6 56.5zM952 1829q4 36 20.5 64t41 47.5t55 29.5t61.5 10t56 -12.5t42.5 -32.5t26.5 -46.5t7 -55.5q-3 -31 -16 -58.5
t-35.5 -48t-54.5 -32t-73 -11.5q-30 0 -55.5 11.5t-43 31.5t-26.5 46.5t-6 56.5z" />
    <glyph glyph-name="Igrave" unicode="&#xed;" horiz-adv-x="801" 
d="M0 0q51 63 86.5 111t65.5 93t58 93t62 111q83 152 146.5 297t105.5 282t60 265.5t8 246.5h577q-69 -87 -130.5 -185.5t-112.5 -204t-91.5 -216.5t-68 -222.5t-42.5 -222t-15 -215.5q0 -40 1.5 -69t5 -54t10.5 -50.5t17 -59.5h-743v0zM875 1991q5 -40 21 -90
q14 -43 39.5 -100.5t68.5 -125.5h-277q-31 51 -74 106q-37 47 -90.5 102t-123.5 108h436v0z" />
    <glyph glyph-name="Oacute" unicode="&#xee;" horiz-adv-x="1509" 
d="M909 1417q20 96 84 143.5t176 47.5q118 0 210 -39.5t155 -117t96 -190.5t33 -260q0 -131 -28 -266t-80.5 -260t-127.5 -234.5t-169 -190.5t-205 -128t-236 -47q-141 0 -254.5 43.5t-193 124.5t-122 197t-42.5 260q0 99 23 202t62.5 200.5t94 184t117.5 152.5
q30 31 63.5 55t68 42.5t68 31.5t64.5 22q72 21 143 27zM987 340q60 0 118 29.5t110 81t96.5 123t76.5 156t50 178t18 190.5q0 62 -14 112t-40 85.5t-63 55t-82 19.5q-69 0 -133 -34.5t-119.5 -92t-100.5 -133t-77 -157.5t-49.5 -166t-17.5 -158q0 -140 59 -214.5t168 -74.5z
M1573 1991q-74 -40 -148 -89q-31 -21 -65.5 -46t-69 -54t-68 -60.5t-63.5 -66.5h-293q69 54 118.5 109.5t81.5 101.5q38 54 62 105h445z" />
    <glyph glyph-name="Ocircumflex" unicode="&#xef;" horiz-adv-x="1509" 
d="M909 1417q20 96 84 143.5t176 47.5q118 0 210 -39.5t155 -117t96 -190.5t33 -260q0 -131 -28 -266t-80.5 -260t-127.5 -234.5t-169 -190.5t-205 -128t-236 -47q-141 0 -254.5 43.5t-193 124.5t-122 197t-42.5 260q0 99 23 202t62.5 200.5t94 184t117.5 152.5
q30 31 63.5 55t68 42.5t68 31.5t64.5 22q72 21 143 27zM987 340q60 0 118 29.5t110 81t96.5 123t76.5 156t50 178t18 190.5q0 62 -14 112t-40 85.5t-63 55t-82 19.5q-69 0 -133 -34.5t-119.5 -92t-100.5 -133t-77 -157.5t-49.5 -166t-17.5 -158q0 -140 59 -214.5t168 -74.5z
M717 1675q70 58 118.5 114.5t78.5 101.5q35 53 57 100h440q10 -47 27 -99q14 -45 38 -101t60 -116h-272q-17 32 -36.5 58.5t-36.5 46.5q-19 23 -38 41q-26 -15 -56 -36q-26 -18 -57 -45t-63 -65h-260z" />
    <glyph glyph-name="Ograve" unicode="&#xf1;" horiz-adv-x="1509" 
d="M909 1417q20 96 84 143.5t176 47.5q118 0 210 -39.5t155 -117t96 -190.5t33 -260q0 -131 -28 -266t-80.5 -260t-127.5 -234.5t-169 -190.5t-205 -128t-236 -47q-141 0 -254.5 43.5t-193 124.5t-122 197t-42.5 260q0 99 23 202t62.5 200.5t94 184t117.5 152.5
q30 31 63.5 55t68 42.5t68 31.5t64.5 22q72 21 143 27zM987 340q60 0 118 29.5t110 81t96.5 123t76.5 156t50 178t18 190.5q0 62 -14 112t-40 85.5t-63 55t-82 19.5q-69 0 -133 -34.5t-119.5 -92t-100.5 -133t-77 -157.5t-49.5 -166t-17.5 -158q0 -140 59 -214.5t168 -74.5z
M1125 1991q5 -40 21 -90q14 -43 39.5 -100.5t68.5 -125.5h-277q-31 51 -74 106q-37 47 -90.5 102t-123.5 108h436v0z" />
    <glyph glyph-name="Uacute" unicode="&#xf2;" horiz-adv-x="1270" 
d="M371 1583q66 62 129.5 88.5t140.5 26.5q68 0 127 -25.5t103.5 -69t70 -102t25.5 -125.5q2 -72 -36.5 -163.5t-109.5 -202.5q-56 -86 -88.5 -140.5t-49.5 -89.5t-21.5 -56.5t-4.5 -41.5q0 -32 11.5 -60t31.5 -48.5t47.5 -32t59.5 -11.5q79 0 151 58.5t126.5 157t87 228
t32.5 271.5q0 40 -2 70.5t-6.5 59t-13 58t-21.5 66.5h559q-89 -72 -152 -148t-95 -141q-15 -30 -31 -70.5t-36.5 -100t-46.5 -141t-61 -193.5q-37 -121 -72.5 -225.5t-76.5 -190t-90 -151.5t-112.5 -111t-144.5 -68t-186 -22q-103 1 -183.5 28t-136 78.5t-84 126
t-28.5 170.5q2 66 15 127t39 115q73 147 126.5 274.5t89 227.5t53 168.5t17.5 97.5q0 77 -41 138t-112 95zM1604 1991q-74 -40 -148 -89q-31 -21 -65.5 -46t-69 -54t-68 -60.5t-63.5 -66.5h-293q69 54 118.5 109.5t81.5 101.5q38 54 62 105h445z" />
    <glyph glyph-name="Ucircumflex" unicode="&#xf3;" horiz-adv-x="1270" 
d="M371 1583q66 62 129.5 88.5t140.5 26.5q68 0 127 -25.5t103.5 -69t70 -102t25.5 -125.5q2 -72 -36.5 -163.5t-109.5 -202.5q-56 -86 -88.5 -140.5t-49.5 -89.5t-21.5 -56.5t-4.5 -41.5q0 -32 11.5 -60t31.5 -48.5t47.5 -32t59.5 -11.5q79 0 151 58.5t126.5 157t87 228
t32.5 271.5q0 40 -2 70.5t-6.5 59t-13 58t-21.5 66.5h559q-89 -72 -152 -148t-95 -141q-15 -30 -31 -70.5t-36.5 -100t-46.5 -141t-61 -193.5q-37 -121 -72.5 -225.5t-76.5 -190t-90 -151.5t-112.5 -111t-144.5 -68t-186 -22q-103 1 -183.5 28t-136 78.5t-84 126
t-28.5 170.5q2 66 15 127t39 115q73 147 126.5 274.5t89 227.5t53 168.5t17.5 97.5q0 77 -41 138t-112 95zM651 1675q70 58 118.5 114.5t78.5 101.5q35 53 57 100h440q10 -47 27 -99q14 -45 38 -101t60 -116h-272q-17 32 -36.5 58.5t-36.5 46.5q-19 23 -38 41
q-26 -15 -56 -36q-26 -18 -57 -45t-63 -65h-260z" />
    <glyph glyph-name="Ugrave" unicode="&#xf4;" horiz-adv-x="1270" 
d="M371 1583q66 62 129.5 88.5t140.5 26.5q68 0 127 -25.5t103.5 -69t70 -102t25.5 -125.5q2 -72 -36.5 -163.5t-109.5 -202.5q-56 -86 -88.5 -140.5t-49.5 -89.5t-21.5 -56.5t-4.5 -41.5q0 -32 11.5 -60t31.5 -48.5t47.5 -32t59.5 -11.5q79 0 151 58.5t126.5 157t87 228
t32.5 271.5q0 40 -2 70.5t-6.5 59t-13 58t-21.5 66.5h559q-89 -72 -152 -148t-95 -141q-15 -30 -31 -70.5t-36.5 -100t-46.5 -141t-61 -193.5q-37 -121 -72.5 -225.5t-76.5 -190t-90 -151.5t-112.5 -111t-144.5 -68t-186 -22q-103 1 -183.5 28t-136 78.5t-84 126
t-28.5 170.5q2 66 15 127t39 115q73 147 126.5 274.5t89 227.5t53 168.5t17.5 97.5q0 77 -41 138t-112 95zM1104 1991q5 -40 21 -90q14 -43 39.5 -100.5t68.5 -125.5h-277q-31 51 -74 106q-37 47 -90.5 102t-123.5 108h436v0z" />
    <glyph glyph-name="dotlessi" unicode="&#xf5;" horiz-adv-x="668" 
d="M133 174q0 64 18.5 127.5t47.5 129.5t64 135t67 143q14 32 24.5 68t16.5 72.5t7 71.5t-5 66h438q-45 -104 -85 -197q-17 -40 -34 -81.5t-32 -80t-27 -72t-19 -56.5q-3 -10 -10 -32.5t-14.5 -50.5t-13 -57.5t-5.5 -54.5q0 -9 1 -19.5t5 -20t11.5 -15.5t19.5 -6
q19 0 37 15.5t33 35.5q18 23 33 51h51q-2 -11 -18 -46t-44 -81t-67 -97t-86.5 -94.5t-102.5 -72.5t-116 -31q-54 -2 -91 22t-60.5 61.5t-33.5 82t-10 84.5z" />
    <glyph glyph-name="circumflex" unicode="&#xf6;" horiz-adv-x="946" 
d="M301 1163q70 58 118.5 114.5t78.5 101.5q35 53 57 100h440q10 -47 27 -99q14 -45 38 -101t60 -116h-272q-17 32 -36.5 58.5t-36.5 46.5q-19 23 -38 41q-26 -15 -56 -36q-26 -18 -57 -45t-63 -65h-260z" />
    <glyph glyph-name="tilde" unicode="&#xf7;" horiz-adv-x="872" 
d="M295 1163q5 55 26.5 111t60 101.5t92.5 74.5t124 29q28 0 63 -15t73 -32.5t75.5 -32.5t69.5 -15q27 0 46 20.5t42 74.5h174q-17 -54 -40.5 -110t-58.5 -102t-83.5 -75t-114.5 -29q-31 0 -68.5 14t-76.5 31t-77.5 31t-70.5 14q-29 0 -49 -22.5t-37 -67.5h-170z" />
    <glyph glyph-name="macron" unicode="&#xf8;" horiz-adv-x="821" 
d="M1020 1423q-14 -25 -21.5 -58t-12.5 -63q-5 -35 -7 -71h-651q12 35 22 69q8 29 14.5 62.5t4.5 60.5h651z" />
    <glyph glyph-name="breve" unicode="&#xf9;" horiz-adv-x="879" 
d="M506 1479q14 -59 59.5 -94t126.5 -35q39 0 70.5 8t57.5 24t48.5 40.5t44.5 56.5h144q-24 -75 -61 -135.5t-88 -104t-116.5 -67t-146.5 -23.5q-73 0 -128.5 23.5t-92 67t-52 104t-7.5 135.5h141z" />
    <glyph glyph-name="dotaccent" unicode="&#xfa;" horiz-adv-x="401" 
d="M287 1317q4 36 20.5 64t41 47.5t55 29.5t61.5 10t56 -12.5t42 -32.5t26 -46.5t7 -55.5q-2 -31 -15 -58.5t-35.5 -48t-54.5 -32t-73 -11.5q-30 0 -55.5 11.5t-43 31.5t-26.5 46.5t-6 56.5z" />
    <glyph glyph-name="ring" unicode="&#xfb;" horiz-adv-x="631" 
d="M334 1315q5 57 31 101t65 75t87 47t97 16q50 0 90 -19t67.5 -51.5t41 -74.5t10.5 -88q-4 -50 -24.5 -93.5t-56.5 -75.5t-86.5 -50.5t-114.5 -18.5q-48 0 -88.5 18.5t-69 50t-42 73.5t-7.5 90zM506 1323q-9 -50 10.5 -77t67.5 -27q46 0 80.5 27t44.5 75q9 45 -10.5 72.5
t-67.5 27.5q-47 0 -81.5 -26.5t-43.5 -71.5z" />
    <glyph glyph-name="cedilla" unicode="&#xfc;" horiz-adv-x="610" 
d="M455 92q-5 -20 -23.5 -46t-38.5 -49q-23 -27 -51 -56q82 -10 126.5 -48.5t35.5 -107.5q-13 -96 -104 -151.5t-253 -55.5q-21 0 -39 1t-36.5 3.5t-41 7t-53.5 11.5q19 24 30 47.5t16 42.5q6 22 8 41q43 -10 70.5 -15.5t56.5 -5.5q52 0 88.5 21t44.5 55q2 15 -3.5 28
t-17.5 22.5t-30 15.5t-41 6q-13 0 -25 -1.5t-35 -4.5q40 39 70.5 81.5t52.5 77.5q26 41 45 80h148z" />
    <glyph glyph-name="hungarumlaut" unicode="&#xfd;" horiz-adv-x="1120" 
d="M950 1479q-74 -40 -148 -89q-31 -21 -65.5 -46t-69 -54t-67.5 -60.5t-63 -66.5h-242q69 54 118.5 109.5t81.5 101.5q38 54 62 105h393zM1417 1479q-74 -40 -148 -89q-31 -21 -65.5 -46t-69 -54t-67.5 -60.5t-63 -66.5h-242q69 54 118.5 109.5t81.5 101.5q38 54 62 105
h393z" />
    <glyph glyph-name="ogonek" unicode="&#xfe;" horiz-adv-x="502" 
d="M352 -422q-18 -3 -30.5 -5.5t-23.5 -4t-21.5 -2t-24.5 -0.5q-66 0 -115.5 17.5t-80.5 47.5t-43 70.5t-3 87.5q10 51 35.5 94t72.5 77.5t120.5 60t179.5 40.5l-4 -61q-158 -21 -183 -139q-11 -51 16 -82t81 -31q9 0 18 0.5t25 5.5q-14 -34 -19.5 -75.5t0.5 -100.5z" />
    <glyph glyph-name="caron" unicode="&#xff;" horiz-adv-x="946" 
d="M1194 1479q-70 -58 -118.5 -114.5t-78.5 -101.5q-35 -53 -57 -100h-440q-9 47 -26 99q-14 45 -38.5 101t-60.5 116h272q18 -32 37 -58t36 -46q19 -23 38 -42q27 15 57 36q26 18 56.5 45.5t62.5 64.5h260z" />
    <glyph glyph-name="aring" unicode="&#x152;" horiz-adv-x="1272" 
d="M905 -49q-30 0 -53 7.5t-40 19t-28.5 26t-19.5 29.5q-18 35 -21 80q-25 -25 -55 -51t-65.5 -47t-76 -34.5t-85.5 -13.5q-75 0 -134.5 32.5t-100 85t-62 119t-21.5 134.5q0 80 28 161.5t76 158t111.5 143t135 116.5t147.5 78.5t147 28.5q48 0 83 -9t61.5 -24t45.5 -35
t34 -43l24 74h348q-24 -81 -45.5 -153t-42.5 -143t-43.5 -145t-50.5 -159q-6 -19 -14 -42t-8 -36q0 -22 26 -22q16 0 30 9.5t26 22.5t21.5 27.5t16.5 24.5h50q-32 -86 -77.5 -163t-102 -134t-123.5 -90.5t-142 -32.5zM594 467q0 -24 6 -46t18.5 -38.5t31.5 -26.5t46 -10
q30 0 60.5 17.5t58 48t51 71t41 86.5t27.5 95.5t10 97.5q0 20 -4.5 41t-14.5 38.5t-26.5 28.5t-40.5 11q-37 0 -82 -33.5t-84 -90.5t-66.5 -132t-31.5 -158zM631 1315q5 57 31 101t65 75t87 47t97 16q50 0 90 -19t67.5 -51.5t41 -74.5t10.5 -88q-4 -50 -24.5 -93.5
t-56.5 -75.5t-86.5 -50.5t-114.5 -18.5q-48 0 -88.5 18.5t-69 50t-42 73.5t-7.5 90zM803 1323q-9 -50 10.5 -77t67.5 -27q46 0 80.5 27t44.5 75q9 45 -10.5 72.5t-67.5 27.5q-47 0 -81.5 -26.5t-43.5 -71.5z" />
    <glyph glyph-name="uacute" unicode="&#x153;" horiz-adv-x="1190" 
d="M696 172q-31 -30 -63 -63t-68 -61t-77.5 -46t-90.5 -18q-57 0 -104 23.5t-81.5 63.5t-54.5 92.5t-22 110.5q-3 75 11.5 137.5t38 117.5t51.5 106.5t52.5 106t41 114t16.5 131.5h463q-70 -98 -125 -192q-24 -40 -46.5 -83.5t-40 -86t-28 -83t-10.5 -73.5q0 -17 4.5 -35
t13.5 -33t23.5 -24.5t34.5 -9.5q47 0 87 39.5t73 101t59.5 135t47 142.5t35.5 124t24 78h382q-33 -59 -69 -136q-31 -66 -68.5 -158.5t-75.5 -207.5q-11 -34 -21.5 -70t-10.5 -73q0 -17 10.5 -34t32.5 -17q21 0 38 12.5t29 27.5q14 18 25 40h49q-9 -21 -27.5 -59t-46 -83.5
t-63.5 -92t-80 -85t-95 -62.5t-110 -24q-44 0 -75 16.5t-51 45t-29 66t-9 79.5zM1397 1479q-74 -40 -148 -89q-31 -21 -65.5 -46t-69 -54t-68 -60.5t-63.5 -66.5h-293q69 54 118.5 109.5t81.5 101.5q38 54 62 105h445z" />
    <glyph glyph-name="adieresis" unicode="&#x160;" horiz-adv-x="1272" 
d="M905 -49q-30 0 -53 7.5t-40 19t-28.5 26t-19.5 29.5q-18 35 -21 80q-25 -25 -55 -51t-65.5 -47t-76 -34.5t-85.5 -13.5q-75 0 -134.5 32.5t-100 85t-62 119t-21.5 134.5q0 80 28 161.5t76 158t111.5 143t135 116.5t147.5 78.5t147 28.5q48 0 83 -9t61.5 -24t45.5 -35
t34 -43l24 74h348q-24 -81 -45.5 -153t-42.5 -143t-43.5 -145t-50.5 -159q-6 -19 -14 -42t-8 -36q0 -22 26 -22q16 0 30 9.5t26 22.5t21.5 27.5t16.5 24.5h50q-32 -86 -77.5 -163t-102 -134t-123.5 -90.5t-142 -32.5zM594 467q0 -24 6 -46t18.5 -38.5t31.5 -26.5t46 -10
q30 0 60.5 17.5t58 48t51 71t41 86.5t27.5 95.5t10 97.5q0 20 -4.5 41t-14.5 38.5t-26.5 28.5t-40.5 11q-37 0 -82 -33.5t-84 -90.5t-66.5 -132t-31.5 -158zM535 1317q4 36 20.5 64t41 47.5t55 29.5t61.5 10t56 -12.5t42 -32.5t26 -46.5t7 -55.5q-2 -31 -15 -58.5t-35.5 -48
t-54.5 -32t-73 -11.5q-30 0 -55.5 11.5t-43 31.5t-26.5 46.5t-6 56.5zM942 1317q4 36 20.5 64t41 47.5t55 29.5t61.5 10t56 -12.5t42.5 -32.5t26.5 -46.5t7 -55.5q-3 -31 -16 -58.5t-35.5 -48t-54.5 -32t-73 -11.5q-30 0 -55.5 11.5t-43 31.5t-26.5 46.5t-6 56.5z" />
    <glyph glyph-name="odieresis" unicode="&#x161;" 
d="M541 -106q-109 -1 -181 30t-116.5 80t-65.5 109t-28 116.5t-4.5 102.5t4.5 67q6 62 32.5 132.5t70 140t104 133t135.5 112.5t164 78t190 29q89 0 149.5 -36t95.5 -98t46.5 -144.5t1.5 -176.5q-4 -66 -25 -142t-57 -150.5t-87 -143t-116 -121.5t-143.5 -85t-169.5 -33z
M618 625q-26 -77 -34 -136.5t-3 -104t19.5 -74.5t33.5 -48t40 -25t37 -6q50 6 102 45t94.5 102.5t69.5 147t27 176.5q0 32 -5.5 64t-19.5 58.5t-37.5 43t-58.5 17.5q-42 1 -82.5 -21t-75 -58.5t-62.5 -83.5t-45 -97zM430 1317q4 36 20.5 64t41 47.5t55 29.5t61.5 10
t56 -12.5t42 -32.5t26 -46.5t7 -55.5q-2 -31 -15 -58.5t-35.5 -48t-54.5 -32t-73 -11.5q-30 0 -55.5 11.5t-43 31.5t-26.5 46.5t-6 56.5zM837 1317q4 36 20.5 64t41 47.5t55 29.5t61.5 10t56 -12.5t42.5 -32.5t26.5 -46.5t7 -55.5q-3 -31 -16 -58.5t-35.5 -48t-54.5 -32
t-73 -11.5q-30 0 -55.5 11.5t-43 31.5t-26.5 46.5t-6 56.5z" />
    <glyph glyph-name="udieresis" unicode="&#x178;" horiz-adv-x="1190" 
d="M696 172q-31 -30 -63 -63t-68 -61t-77.5 -46t-90.5 -18q-57 0 -104 23.5t-81.5 63.5t-54.5 92.5t-22 110.5q-3 75 11.5 137.5t38 117.5t51.5 106.5t52.5 106t41 114t16.5 131.5h463q-70 -98 -125 -192q-24 -40 -46.5 -83.5t-40 -86t-28 -83t-10.5 -73.5q0 -17 4.5 -35
t13.5 -33t23.5 -24.5t34.5 -9.5q47 0 87 39.5t73 101t59.5 135t47 142.5t35.5 124t24 78h382q-33 -59 -69 -136q-31 -66 -68.5 -158.5t-75.5 -207.5q-11 -34 -21.5 -70t-10.5 -73q0 -17 10.5 -34t32.5 -17q21 0 38 12.5t29 27.5q14 18 25 40h49q-9 -21 -27.5 -59t-46 -83.5
t-63.5 -92t-80 -85t-95 -62.5t-110 -24q-44 0 -75 16.5t-51 45t-29 66t-9 79.5zM514 1317q4 36 20.5 64t41 47.5t55 29.5t61.5 10t56 -12.5t42 -32.5t26 -46.5t7 -55.5q-2 -31 -15 -58.5t-35.5 -48t-54.5 -32t-73 -11.5q-30 0 -55.5 11.5t-43 31.5t-26.5 46.5t-6 56.5z
M921 1317q4 36 20.5 64t41 47.5t55 29.5t61.5 10t56 -12.5t42.5 -32.5t26.5 -46.5t7 -55.5q-3 -31 -16 -58.5t-35.5 -48t-54.5 -32t-73 -11.5q-30 0 -55.5 11.5t-43 31.5t-26.5 46.5t-6 56.5z" />
    <glyph glyph-name="Eacute" unicode="&#x192;" horiz-adv-x="1323" 
d="M0 0q49 71 89 129.5t72.5 110t60 97.5t52.5 91.5t49 93t50 101.5q122 255 183.5 431t61.5 273q0 37 -10.5 77.5t-42.5 94.5h850l-151 -436q-22 57 -41.5 93t-43 56.5t-52.5 28.5t-70 8q-38 0 -71.5 -12.5t-58 -34.5t-39 -51.5t-14.5 -63.5q0 -46 27.5 -74t71.5 -28
q21 0 39.5 4.5t40 16t49 31.5t65.5 50l-116 -350q-23 19 -41.5 32t-35.5 21t-34 11.5t-37 3.5q-36 0 -67.5 -13.5t-55.5 -36.5t-37.5 -54t-13.5 -66q0 -34 12.5 -63t34 -50.5t50.5 -34t63 -12.5q62 0 108.5 25.5t78 70t47.5 104t16 126.5q100 -40 158.5 -111t58.5 -184
q0 -102 -44.5 -194t-119.5 -161.5t-174 -110t-209 -40.5h-809v0zM1565 1991q-74 -40 -148 -89q-31 -21 -65.5 -46t-69 -54t-68 -60.5t-63.5 -66.5h-293q69 54 118.5 109.5t81.5 101.5q38 54 62 105h445z" />
    <glyph glyph-name="agrave" unicode="&#x2c6;" horiz-adv-x="1272" 
d="M905 -49q-30 0 -53 7.5t-40 19t-28.5 26t-19.5 29.5q-18 35 -21 80q-25 -25 -55 -51t-65.5 -47t-76 -34.5t-85.5 -13.5q-75 0 -134.5 32.5t-100 85t-62 119t-21.5 134.5q0 80 28 161.5t76 158t111.5 143t135 116.5t147.5 78.5t147 28.5q48 0 83 -9t61.5 -24t45.5 -35
t34 -43l24 74h348q-24 -81 -45.5 -153t-42.5 -143t-43.5 -145t-50.5 -159q-6 -19 -14 -42t-8 -36q0 -22 26 -22q16 0 30 9.5t26 22.5t21.5 27.5t16.5 24.5h50q-32 -86 -77.5 -163t-102 -134t-123.5 -90.5t-142 -32.5zM594 467q0 -24 6 -46t18.5 -38.5t31.5 -26.5t46 -10
q30 0 60.5 17.5t58 48t51 71t41 86.5t27.5 95.5t10 97.5q0 20 -4.5 41t-14.5 38.5t-26.5 28.5t-40.5 11q-37 0 -82 -33.5t-84 -90.5t-66.5 -132t-31.5 -158zM918 1479q5 -40 21 -90q14 -43 39.5 -100.5t68.5 -125.5h-277q-31 51 -74 106q-37 47 -90.5 102t-123.5 108h436v0z
" />
    <glyph glyph-name="ograve" unicode="&#x2dc;" 
d="M541 -106q-109 -1 -181 30t-116.5 80t-65.5 109t-28 116.5t-4.5 102.5t4.5 67q6 62 32.5 132.5t70 140t104 133t135.5 112.5t164 78t190 29q89 0 149.5 -36t95.5 -98t46.5 -144.5t1.5 -176.5q-4 -66 -25 -142t-57 -150.5t-87 -143t-116 -121.5t-143.5 -85t-169.5 -33z
M618 625q-26 -77 -34 -136.5t-3 -104t19.5 -74.5t33.5 -48t40 -25t37 -6q50 6 102 45t94.5 102.5t69.5 147t27 176.5q0 32 -5.5 64t-19.5 58.5t-37.5 43t-58.5 17.5q-42 1 -82.5 -21t-75 -58.5t-62.5 -83.5t-45 -97zM803 1479q5 -40 21 -90q14 -43 39.5 -100.5t68.5 -125.5
h-277q-31 51 -74 106q-37 47 -90.5 102t-123.5 108h436v0z" />
    <glyph glyph-name="ntilde" unicode="&#x2013;" horiz-adv-x="1161" 
d="M627 131q0 33 9 73t22.5 81t29.5 79t29 66q9 20 24 48.5t31.5 60.5t33 65.5t29.5 64t21 56.5t6 43q0 28 -11.5 51t-43.5 23q-31 1 -61 -23t-57.5 -60.5t-51.5 -80t-42.5 -83.5t-31 -71t-16.5 -41q-42 -110 -59 -199t-21 -152q-4 -74 4 -132h-430q1 24 5 49q3 21 8 44.5
t12 41.5q41 105 94 207t99.5 205.5t76.5 212t26 227.5h336l-18 -86q26 18 56.5 39.5t65.5 39.5t74 29.5t82 10.5q45 0 83.5 -19.5t66 -52.5t44 -77.5t17.5 -94.5q3 -72 -14.5 -131t-41.5 -114.5t-46.5 -112t-30.5 -123.5q-1 -15 3 -31t13.5 -28.5t23 -20.5t30.5 -8
q20 1 37.5 16t31.5 32q16 20 29 46h49q-13 -37 -35 -83t-51.5 -93t-66 -91t-78.5 -78.5t-89 -55.5t-97 -21q-44 0 -82 15.5t-66.5 47t-44.5 78.5t-16 111zM434 1163q5 55 26.5 111t60 101.5t92.5 74.5t124 29q28 0 63 -15t73 -32.5t75.5 -32.5t69.5 -15q27 0 46 20.5
t42 74.5h174q-17 -54 -40.5 -110t-58.5 -102t-83.5 -75t-114.5 -29q-31 0 -68.5 14t-76.5 31t-77.5 31t-70.5 14q-29 0 -49 -22.5t-37 -67.5h-170z" />
    <glyph glyph-name="oacute" unicode="&#x2014;" 
d="M541 -106q-109 -1 -181 30t-116.5 80t-65.5 109t-28 116.5t-4.5 102.5t4.5 67q6 62 32.5 132.5t70 140t104 133t135.5 112.5t164 78t190 29q89 0 149.5 -36t95.5 -98t46.5 -144.5t1.5 -176.5q-4 -66 -25 -142t-57 -150.5t-87 -143t-116 -121.5t-143.5 -85t-169.5 -33z
M618 625q-26 -77 -34 -136.5t-3 -104t19.5 -74.5t33.5 -48t40 -25t37 -6q50 6 102 45t94.5 102.5t69.5 147t27 176.5q0 32 -5.5 64t-19.5 58.5t-37.5 43t-58.5 17.5q-42 1 -82.5 -21t-75 -58.5t-62.5 -83.5t-45 -97zM1285 1479q-74 -40 -148 -89q-31 -21 -65.5 -46t-69 -54
t-68 -60.5t-63.5 -66.5h-293q69 54 118.5 109.5t81.5 101.5q38 54 62 105h445z" />
    <glyph glyph-name="edieresis" unicode="&#x2018;" horiz-adv-x="989" 
d="M123 256q0 106 34 205t92 185.5t135 157t162.5 120.5t175.5 76.5t173 23.5q45 -1 85 -17.5t69.5 -45t46 -68.5t14.5 -88q-2 -75 -34 -133t-83.5 -97t-119 -57.5t-140.5 -15.5q-18 1 -34.5 2.5t-29.5 3.5q-15 2 -28 4q-5 -22 -9 -44q-4 -19 -6.5 -41t-2.5 -42
q0 -29 6 -67.5t21 -72.5t41.5 -57.5t68.5 -23.5q38 0 72.5 13t64 30.5t54.5 35t44 25.5l27 -51q-20 -13 -45 -34q-21 -18 -50.5 -46t-64.5 -67q-37 -42 -81 -77.5t-92 -61t-98.5 -40t-101.5 -14.5q-41 -1 -83 8t-80 26.5t-71.5 43.5t-57.5 61q-35 51 -54.5 113t-19.5 127z
M659 598q50 -9 87 0t63 25t41 34t22 27q19 25 31.5 55t14 57t-9 45t-38.5 19q-31 1 -63.5 -26.5t-62 -68t-52 -86.5t-33.5 -81zM426 1317q4 36 20.5 64t41 47.5t55 29.5t61.5 10t56 -12.5t42 -32.5t26 -46.5t7 -55.5q-2 -31 -15 -58.5t-35.5 -48t-54.5 -32t-73 -11.5
q-30 0 -55.5 11.5t-43 31.5t-26.5 46.5t-6 56.5zM833 1317q4 36 20.5 64t41 47.5t55 29.5t61.5 10t56 -12.5t42.5 -32.5t26.5 -46.5t7 -55.5q-3 -31 -16 -58.5t-35.5 -48t-54.5 -32t-73 -11.5q-30 0 -55.5 11.5t-43 31.5t-26.5 46.5t-6 56.5z" />
    <glyph glyph-name="iacute" unicode="&#x2019;" horiz-adv-x="668" 
d="M133 174q0 64 18.5 127.5t47.5 129.5t64 135t67 143q14 32 24.5 68t16.5 72.5t7 71.5t-5 66h438q-45 -104 -85 -197q-17 -40 -34 -81.5t-32 -80t-27 -72t-19 -56.5q-3 -10 -10 -32.5t-14.5 -50.5t-13 -57.5t-5.5 -54.5q0 -9 1 -19.5t5 -20t11.5 -15.5t19.5 -6
q19 0 37 15.5t33 35.5q18 23 33 51h51q-2 -11 -18 -46t-44 -81t-67 -97t-86.5 -94.5t-102.5 -72.5t-116 -31q-54 -2 -91 22t-60.5 61.5t-33.5 82t-10 84.5zM1158 1479q-74 -40 -148 -89q-31 -21 -65.5 -46t-69 -54t-68 -60.5t-63.5 -66.5h-293q69 54 118.5 109.5t81.5 101.5
q38 54 62 105h445z" />
    <glyph glyph-name="Ccedilla" unicode="&#x201a;" horiz-adv-x="1384" 
d="M1470 522q-26 -30 -54 -74.5t-56.5 -96t-56 -105t-52 -101.5t-45 -86.5t-35.5 -60.5q-30 -44 -75.5 -82t-99.5 -67.5t-113.5 -48.5t-118.5 -25q-13 -20 -29 -39.5t-30 -35.5q-17 -18 -33 -36q81 -9 126 -47.5t36 -108.5q-13 -95 -104 -150.5t-253 -55.5q-21 0 -39 1
t-36.5 3.5t-41 6.5t-53.5 11q19 25 29.5 48t15.5 42q6 22 8 41q44 -9 71 -14.5t56 -5.5q53 0 89.5 20.5t44.5 55.5q5 29 -20.5 50t-72.5 21q-12 0 -24 -1.5t-35 -4.5q26 27 48.5 55.5t41.5 55.5t33 50.5t24 41.5q-98 15 -178 62.5t-136.5 121.5t-87 172t-30.5 215
q0 159 38.5 312t106.5 289t162.5 250.5t206.5 197.5t237.5 129.5t256.5 46.5q85 0 154.5 -24.5t119 -68.5t76.5 -106.5t27 -138.5q0 -69 -25 -130t-67.5 -107t-99.5 -72.5t-122 -26.5q-54 0 -101.5 19.5t-83 52.5t-56.5 77t-21 93q0 41 16 76.5t44 62t66 41.5t81 16
q30 1 53 -4t39 -12q18 -8 31 -18q-23 52 -72 78t-108 26q-72 0 -140.5 -24t-129 -67.5t-111 -103.5t-87 -131.5t-57 -152.5t-20.5 -166q0 -98 27.5 -178t77.5 -137t120.5 -88t157.5 -31q56 0 111 14t111.5 43.5t116.5 75t126 108.5l37 -36z" />
    <glyph glyph-name="igrave" unicode="&#x201c;" horiz-adv-x="668" 
d="M133 174q0 64 18.5 127.5t47.5 129.5t64 135t67 143q14 32 24.5 68t16.5 72.5t7 71.5t-5 66h438q-45 -104 -85 -197q-17 -40 -34 -81.5t-32 -80t-27 -72t-19 -56.5q-3 -10 -10 -32.5t-14.5 -50.5t-13 -57.5t-5.5 -54.5q0 -9 1 -19.5t5 -20t11.5 -15.5t19.5 -6
q19 0 37 15.5t33 35.5q18 23 33 51h51q-2 -11 -18 -46t-44 -81t-67 -97t-86.5 -94.5t-102.5 -72.5t-116 -31q-54 -2 -91 22t-60.5 61.5t-33.5 82t-10 84.5zM659 1479q5 -40 21 -90q14 -43 39.5 -100.5t68.5 -125.5h-277q-31 51 -74 106q-37 47 -90.5 102t-123.5 108h436v0z
" />
    <glyph glyph-name="icircumflex" unicode="&#x201d;" horiz-adv-x="668" 
d="M133 174q0 64 18.5 127.5t47.5 129.5t64 135t67 143q14 32 24.5 68t16.5 72.5t7 71.5t-5 66h438q-45 -104 -85 -197q-17 -40 -34 -81.5t-32 -80t-27 -72t-19 -56.5q-3 -10 -10 -32.5t-14.5 -50.5t-13 -57.5t-5.5 -54.5q0 -9 1 -19.5t5 -20t11.5 -15.5t19.5 -6
q19 0 37 15.5t33 35.5q18 23 33 51h51q-2 -11 -18 -46t-44 -81t-67 -97t-86.5 -94.5t-102.5 -72.5t-116 -31q-54 -2 -91 22t-60.5 61.5t-33.5 82t-10 84.5zM175 1163q70 58 118.5 114.5t78.5 101.5q35 53 57 100h440q10 -47 27 -99q14 -45 38 -101t60 -116h-272
q-17 32 -36.5 58.5t-36.5 46.5q-19 23 -38 41q-26 -15 -56 -36q-26 -18 -57 -45t-63 -65h-260z" />
    <glyph glyph-name="Ntilde" unicode="&#x201e;" horiz-adv-x="1534" 
d="M-143 -109q91 38 172.5 94t156 132t142 172.5t131.5 214.5q131 244 200.5 495t75.5 500h447q-33 -54 -59 -112t-44 -117t-27.5 -117t-9.5 -111q0 -19 2.5 -49t7 -64t11.5 -68.5t15.5 -62t19.5 -44.5t24 -17t26.5 16.5t27 46t27 70t26.5 88.5q37 140 56 241t27 168
q10 78 9 132h694q-95 -57 -172.5 -119t-143 -134.5t-122.5 -159t-111 -193.5q-125 -251 -185 -474.5t-48 -418.5h-428q30 42 49 87.5t29.5 87t14.5 73.5t5 47q1 21 -1.5 51t-11.5 62t-25.5 62.5t-43.5 53.5q-7 -167 -51 -303t-119 -233t-177 -149.5t-224 -53.5
q-81 -1 -152.5 15.5t-125.5 36.5q-62 24 -115 54zM967 1675q5 55 26.5 111t60 101.5t92.5 74.5t124 29q28 0 63 -15t73 -32.5t75.5 -32.5t69.5 -15q27 0 46 20.5t42 74.5h174q-17 -54 -40.5 -110t-58.5 -102t-83.5 -75t-114.5 -29q-31 0 -68.5 14t-76.5 31t-77.5 31
t-70.5 14q-29 0 -49 -22.5t-37 -67.5h-170z" />
    <glyph glyph-name="Udieresis" unicode="&#x2020;" horiz-adv-x="1270" 
d="M371 1583q66 62 129.5 88.5t140.5 26.5q68 0 127 -25.5t103.5 -69t70 -102t25.5 -125.5q2 -72 -36.5 -163.5t-109.5 -202.5q-56 -86 -88.5 -140.5t-49.5 -89.5t-21.5 -56.5t-4.5 -41.5q0 -32 11.5 -60t31.5 -48.5t47.5 -32t59.5 -11.5q79 0 151 58.5t126.5 157t87 228
t32.5 271.5q0 40 -2 70.5t-6.5 59t-13 58t-21.5 66.5h559q-89 -72 -152 -148t-95 -141q-15 -30 -31 -70.5t-36.5 -100t-46.5 -141t-61 -193.5q-37 -121 -72.5 -225.5t-76.5 -190t-90 -151.5t-112.5 -111t-144.5 -68t-186 -22q-103 1 -183.5 28t-136 78.5t-84 126
t-28.5 170.5q2 66 15 127t39 115q73 147 126.5 274.5t89 227.5t53 168.5t17.5 97.5q0 77 -41 138t-112 95zM709 1829q4 36 20.5 64t41 47.5t55 29.5t61.5 10t56 -12.5t42 -32.5t26 -46.5t7 -55.5q-2 -31 -15 -58.5t-35.5 -48t-54.5 -32t-73 -11.5q-30 0 -55.5 11.5t-43 31.5
t-26.5 46.5t-6 56.5zM1116 1829q4 36 20.5 64t41 47.5t55 29.5t61.5 10t56 -12.5t42.5 -32.5t26.5 -46.5t7 -55.5q-3 -31 -16 -58.5t-35.5 -48t-54.5 -32t-73 -11.5q-30 0 -55.5 11.5t-43 31.5t-26.5 46.5t-6 56.5z" />
    <glyph glyph-name="aacute" unicode="&#x2021;" horiz-adv-x="1272" 
d="M905 -49q-30 0 -53 7.5t-40 19t-28.5 26t-19.5 29.5q-18 35 -21 80q-25 -25 -55 -51t-65.5 -47t-76 -34.5t-85.5 -13.5q-75 0 -134.5 32.5t-100 85t-62 119t-21.5 134.5q0 80 28 161.5t76 158t111.5 143t135 116.5t147.5 78.5t147 28.5q48 0 83 -9t61.5 -24t45.5 -35
t34 -43l24 74h348q-24 -81 -45.5 -153t-42.5 -143t-43.5 -145t-50.5 -159q-6 -19 -14 -42t-8 -36q0 -22 26 -22q16 0 30 9.5t26 22.5t21.5 27.5t16.5 24.5h50q-32 -86 -77.5 -163t-102 -134t-123.5 -90.5t-142 -32.5zM594 467q0 -24 6 -46t18.5 -38.5t31.5 -26.5t46 -10
q30 0 60.5 17.5t58 48t51 71t41 86.5t27.5 95.5t10 97.5q0 20 -4.5 41t-14.5 38.5t-26.5 28.5t-40.5 11q-37 0 -82 -33.5t-84 -90.5t-66.5 -132t-31.5 -158zM1440 1479q-74 -40 -148 -89q-31 -21 -65.5 -46t-69 -54t-68 -60.5t-63.5 -66.5h-293q69 54 118.5 109.5
t81.5 101.5q38 54 62 105h445z" />
    <glyph glyph-name="idieresis" unicode="&#x2022;" horiz-adv-x="668" 
d="M133 174q0 64 18.5 127.5t47.5 129.5t64 135t67 143q14 32 24.5 68t16.5 72.5t7 71.5t-5 66h438q-45 -104 -85 -197q-17 -40 -34 -81.5t-32 -80t-27 -72t-19 -56.5q-3 -10 -10 -32.5t-14.5 -50.5t-13 -57.5t-5.5 -54.5q0 -9 1 -19.5t5 -20t11.5 -15.5t19.5 -6
q19 0 37 15.5t33 35.5q18 23 33 51h51q-2 -11 -18 -46t-44 -81t-67 -97t-86.5 -94.5t-102.5 -72.5t-116 -31q-54 -2 -91 22t-60.5 61.5t-33.5 82t-10 84.5zM247 1317q4 36 20.5 64t41 47.5t55 29.5t61.5 10t56 -12.5t42 -32.5t26 -46.5t7 -55.5q-2 -31 -15 -58.5t-35.5 -48
t-54.5 -32t-73 -11.5q-30 0 -55.5 11.5t-43 31.5t-26.5 46.5t-6 56.5zM654 1317q4 36 20.5 64t41 47.5t55 29.5t61.5 10t56 -12.5t42.5 -32.5t26.5 -46.5t7 -55.5q-3 -31 -16 -58.5t-35.5 -48t-54.5 -32t-73 -11.5q-30 0 -55.5 11.5t-43 31.5t-26.5 46.5t-6 56.5z" />
    <glyph glyph-name="Odieresis" unicode="&#x2026;" horiz-adv-x="1509" 
d="M909 1417q20 96 84 143.5t176 47.5q118 0 210 -39.5t155 -117t96 -190.5t33 -260q0 -131 -28 -266t-80.5 -260t-127.5 -234.5t-169 -190.5t-205 -128t-236 -47q-141 0 -254.5 43.5t-193 124.5t-122 197t-42.5 260q0 99 23 202t62.5 200.5t94 184t117.5 152.5
q30 31 63.5 55t68 42.5t68 31.5t64.5 22q72 21 143 27zM987 340q60 0 118 29.5t110 81t96.5 123t76.5 156t50 178t18 190.5q0 62 -14 112t-40 85.5t-63 55t-82 19.5q-69 0 -133 -34.5t-119.5 -92t-100.5 -133t-77 -157.5t-49.5 -166t-17.5 -158q0 -140 59 -214.5t168 -74.5z
M750 1829q4 36 20.5 64t41 47.5t55 29.5t61.5 10t56 -12.5t42 -32.5t26 -46.5t7 -55.5q-2 -31 -15 -58.5t-35.5 -48t-54.5 -32t-73 -11.5q-30 0 -55.5 11.5t-43 31.5t-26.5 46.5t-6 56.5zM1157 1829q4 36 20.5 64t41 47.5t55 29.5t61.5 10t56 -12.5t42.5 -32.5t26.5 -46.5
t7 -55.5q-3 -31 -16 -58.5t-35.5 -48t-54.5 -32t-73 -11.5q-30 0 -55.5 11.5t-43 31.5t-26.5 46.5t-6 56.5z" />
    <glyph glyph-name="acircumflex" unicode="&#x2030;" horiz-adv-x="1272" 
d="M905 -49q-30 0 -53 7.5t-40 19t-28.5 26t-19.5 29.5q-18 35 -21 80q-25 -25 -55 -51t-65.5 -47t-76 -34.5t-85.5 -13.5q-75 0 -134.5 32.5t-100 85t-62 119t-21.5 134.5q0 80 28 161.5t76 158t111.5 143t135 116.5t147.5 78.5t147 28.5q48 0 83 -9t61.5 -24t45.5 -35
t34 -43l24 74h348q-24 -81 -45.5 -153t-42.5 -143t-43.5 -145t-50.5 -159q-6 -19 -14 -42t-8 -36q0 -22 26 -22q16 0 30 9.5t26 22.5t21.5 27.5t16.5 24.5h50q-32 -86 -77.5 -163t-102 -134t-123.5 -90.5t-142 -32.5zM594 467q0 -24 6 -46t18.5 -38.5t31.5 -26.5t46 -10
q30 0 60.5 17.5t58 48t51 71t41 86.5t27.5 95.5t10 97.5q0 20 -4.5 41t-14.5 38.5t-26.5 28.5t-40.5 11q-37 0 -82 -33.5t-84 -90.5t-66.5 -132t-31.5 -158zM471 1163q70 58 118.5 114.5t78.5 101.5q35 53 57 100h440q10 -47 27 -99q14 -45 38 -101t60 -116h-272
q-17 32 -36.5 58.5t-36.5 46.5q-19 23 -38 41q-26 -15 -56 -36q-26 -18 -57 -45t-63 -65h-260z" />
    <glyph glyph-name="atilde" unicode="&#x2039;" horiz-adv-x="1272" 
d="M905 -49q-30 0 -53 7.5t-40 19t-28.5 26t-19.5 29.5q-18 35 -21 80q-25 -25 -55 -51t-65.5 -47t-76 -34.5t-85.5 -13.5q-75 0 -134.5 32.5t-100 85t-62 119t-21.5 134.5q0 80 28 161.5t76 158t111.5 143t135 116.5t147.5 78.5t147 28.5q48 0 83 -9t61.5 -24t45.5 -35
t34 -43l24 74h348q-24 -81 -45.5 -153t-42.5 -143t-43.5 -145t-50.5 -159q-6 -19 -14 -42t-8 -36q0 -22 26 -22q16 0 30 9.5t26 22.5t21.5 27.5t16.5 24.5h50q-32 -86 -77.5 -163t-102 -134t-123.5 -90.5t-142 -32.5zM594 467q0 -24 6 -46t18.5 -38.5t31.5 -26.5t46 -10
q30 0 60.5 17.5t58 48t51 71t41 86.5t27.5 95.5t10 97.5q0 20 -4.5 41t-14.5 38.5t-26.5 28.5t-40.5 11q-37 0 -82 -33.5t-84 -90.5t-66.5 -132t-31.5 -158zM467 1163q5 55 26.5 111t60 101.5t92.5 74.5t124 29q28 0 63 -15t73 -32.5t75.5 -32.5t69.5 -15q27 0 46 20.5
t42 74.5h174q-17 -54 -40.5 -110t-58.5 -102t-83.5 -75t-114.5 -29q-31 0 -68.5 14t-76.5 31t-77.5 31t-70.5 14q-29 0 -49 -22.5t-37 -67.5h-170z" />
    <glyph glyph-name="otilde" unicode="&#x203a;" 
d="M541 -106q-109 -1 -181 30t-116.5 80t-65.5 109t-28 116.5t-4.5 102.5t4.5 67q6 62 32.5 132.5t70 140t104 133t135.5 112.5t164 78t190 29q89 0 149.5 -36t95.5 -98t46.5 -144.5t1.5 -176.5q-4 -66 -25 -142t-57 -150.5t-87 -143t-116 -121.5t-143.5 -85t-169.5 -33z
M618 625q-26 -77 -34 -136.5t-3 -104t19.5 -74.5t33.5 -48t40 -25t37 -6q50 6 102 45t94.5 102.5t69.5 147t27 176.5q0 32 -5.5 64t-19.5 58.5t-37.5 43t-58.5 17.5q-42 1 -82.5 -21t-75 -58.5t-62.5 -83.5t-45 -97zM363 1163q5 55 26.5 111t60 101.5t92.5 74.5t124 29
q28 0 63 -15t73 -32.5t75.5 -32.5t69.5 -15q27 0 46 20.5t42 74.5h174q-17 -54 -40.5 -110t-58.5 -102t-83.5 -75t-114.5 -29q-31 0 -68.5 14t-76.5 31t-77.5 31t-70.5 14q-29 0 -49 -22.5t-37 -67.5h-170z" />
    <glyph glyph-name="Adieresis" unicode="&#x20ac;" horiz-adv-x="1585" 
d="M-164 -39q23 -13 50 -23q23 -8 53.5 -15t64.5 -7q66 0 125 16.5t114 52t107.5 90t104.5 130.5q104 153 195.5 305.5t171.5 311.5t150.5 326.5t133.5 350.5h756q-77 -138 -146.5 -281t-122.5 -284t-84.5 -276.5t-31.5 -260.5q0 -15 1.5 -43t5 -63.5t8 -75t11 -79
t14.5 -74.5t17 -62h-647q44 38 82.5 70t67.5 66.5t46 76t17 98.5q0 25 -9 47t-24 39t-35 27t-43 10q-45 0 -81 -25.5t-64.5 -67t-51.5 -95t-41.5 -109.5t-34 -110t-30.5 -97q-21 -63 -59.5 -114.5t-88 -87.5t-107.5 -56t-118 -20q-85 1 -161 25.5t-138.5 66.5t-108 98
t-69.5 119zM1190 1057q-48 -36 -93 -84.5t-79.5 -98.5t-55 -97.5t-20.5 -82.5q0 -21 9.5 -39t25.5 -31.5t38.5 -21.5t47.5 -8q39 0 71 15.5t55 43t35.5 65.5t12.5 83q0 33 -3.5 68.5t-10 69.5t-15 64.5t-18.5 53.5zM1155 1829q4 36 20.5 64t41 47.5t55 29.5t61.5 10
t56 -12.5t42 -32.5t26 -46.5t7 -55.5q-2 -31 -15 -58.5t-35.5 -48t-54.5 -32t-73 -11.5q-30 0 -55.5 11.5t-43 31.5t-26.5 46.5t-6 56.5zM1562 1829q4 36 20.5 64t41 47.5t55 29.5t61.5 10t56 -12.5t42.5 -32.5t26.5 -46.5t7 -55.5q-3 -31 -16 -58.5t-35.5 -48t-54.5 -32
t-73 -11.5q-30 0 -55.5 11.5t-43 31.5t-26.5 46.5t-6 56.5z" />
    <glyph glyph-name="ocircumflex" unicode="&#x2122;" 
d="M541 -106q-109 -1 -181 30t-116.5 80t-65.5 109t-28 116.5t-4.5 102.5t4.5 67q6 62 32.5 132.5t70 140t104 133t135.5 112.5t164 78t190 29q89 0 149.5 -36t95.5 -98t46.5 -144.5t1.5 -176.5q-4 -66 -25 -142t-57 -150.5t-87 -143t-116 -121.5t-143.5 -85t-169.5 -33z
M618 625q-26 -77 -34 -136.5t-3 -104t19.5 -74.5t33.5 -48t40 -25t37 -6q50 6 102 45t94.5 102.5t69.5 147t27 176.5q0 32 -5.5 64t-19.5 58.5t-37.5 43t-58.5 17.5q-42 1 -82.5 -21t-75 -58.5t-62.5 -83.5t-45 -97zM330 1163q70 58 118.5 114.5t78.5 101.5q35 53 57 100
h440q10 -47 27 -99q14 -45 38 -101t60 -116h-272q-17 32 -36.5 58.5t-36.5 46.5q-19 23 -38 41q-26 -15 -56 -36q-26 -18 -57 -45t-63 -65h-260z" />
    </font>
</defs>
</svg>
