<?xml version="1.0" standalone="no"?>
<!DOCTYPE svg PUBLIC "-//W3C//DTD SVG 1.1//EN" "http://www.w3.org/Graphics/SVG/1.1/DTD/svg11.dtd" >
<svg xmlns="http://www.w3.org/2000/svg" xmlns:xlink="http://www.w3.org/1999/xlink" version="1.1">
<metadata>
Created by FontForge 20170731 at Tue Aug  8 22:06:28 1995
 By Aleksey,,,
From the WSI-Font Collection.  Digital font data Copyright (c)1995 Weatherly Systems, Inc.  All Rights Reserved.  Redistribution strictly prohibited.
</metadata>
<defs>
<font id="RogersHand-Plain" horiz-adv-x="424" >
  <font-face 
    font-family="RogersHand"
    font-weight="5"
    font-stretch="normal"
    units-per-em="1000"
    panose-1="0 0 0 0 0 0 0 0 0 0"
    ascent="800"
    descent="-200"
    x-height="273"
    cap-height="650"
    bbox="-235 -449 1162 1126"
    underline-thickness="20"
    underline-position="-130"
    unicode-range="U+0020-F002"
  />
<missing-glyph horiz-adv-x="800" 
d="M50 0v800h700v-800h-700zM700 50v700h-600v-700h600z" />
    <glyph glyph-name=".notdef" horiz-adv-x="800" 
d="M50 0v800h700v-800h-700zM700 50v700h-600v-700h600z" />
    <glyph glyph-name=".null" horiz-adv-x="0" 
 />
    <glyph glyph-name="nonmarkingreturn" 
 />
    <glyph glyph-name="space" unicode=" " 
 />
    <glyph glyph-name="exclam" unicode="!" horiz-adv-x="343" 
d="M238 806q0 -30 -12 -127q-6 -49 -6 -77q0 -57 2.5 -145t2.5 -101q0 -20 -16 -30q-10 -6 -35 -10q-7 25 -11 59.5t-4 60.5q0 61 3 123q9 186 9 208q0 43 10 67q14 33 49 41q4 -18 6 -33.5t2 -35.5zM320 146q0 -44 -58 -90.5t-104 -46.5q-34 0 -51.5 20.5t-17.5 56.5
q0 45 25 97q30 62 70 62q15 0 65.5 -26.5t60.5 -40.5t10 -32zM253 147h-30q-35 0 -47 -5q-21 -9 -21 -38q0 -10 1.5 -22t5.5 -26q36 19 54 36q23 22 37 55z" />
    <glyph glyph-name="quotedbl" unicode="&#x22;" horiz-adv-x="297" 
d="M296 686q0 -37 -1 -50.5t-9 -87.5q-27 22 -39 54t-12 71q0 45 11 93q5 22 16 55q20 -22 27 -58.5t7 -76.5zM72 697q0 -29 -3 -50t-12 -66q-31 7 -44.5 31t-13.5 58t11 76q6 23 23 74q22 -23 30.5 -54.5t8.5 -68.5z" />
    <glyph glyph-name="numbersign" unicode="#" horiz-adv-x="906" 
d="M906 501q-77 -9 -130 -23q-80 -21 -124 -57q-56 -46 -56 -114q37 0 87 21q114 48 142 48q12 -24 12 -45l-218 -66q-61 -30 -80 -152q-19 17 -33 39.5t-24 51.5q-158 -27 -169 -108q-7 -52 -39 -74q-11 51 -11 114q-16 0 -68 -12q-26 -6 -41 -6q-30 0 -51 19q15 8 112 42
q117 41 117 128q-21 -6 -84 -29q-91 -33 -146 -33q-11 0 -24.5 1.5t-20.5 2.5q17 36 58 61q34 21 79 31q-5 -14 -5 -21q0 -4 5 -6l14 -4q128 33 177 87l96 150l1 -15q0 -27 -8 -59.5t-16 -62.5q83 19 126 50q35 26 68.5 83.5t68.5 118.5l7 -26q0 -32 -27 -86
q-13 -25 -25 -49q32 0 73 11q123 33 125 33q17 -8 23 -17q3 -5 9 -27zM538 387q-72 -20 -105 -49t-67 -99l27 -1q70 0 107.5 39.5t37.5 109.5z" />
    <glyph glyph-name="dollar" unicode="$" horiz-adv-x="470" 
d="M449 250q0 -59 -72.5 -97t-72.5 -62q0 -21 19 -43q43 -50 43 -59v-11q-1 2 -1 3q-7 0 -15 -6q-1 -1 -7 -8q-21 14 -42 49q-47 77 -60 86l-70 46q-39 31 -45 67q38 -26 48 -30q17 -8 34 -8q15 0 32 5q-5 52 -10 105q-13 45 -67.5 65t-54.5 44q0 29 56.5 78.5t56.5 64.5
l-3 42q0 20 5 62t5 64q2 4 2 5q1 3 4 7l29 -12q0 -89 1.5 -106t10.5 -54q20 7 40.5 12.5t37.5 5.5q10 0 22 -1.5t26 -5.5q-43 -19 -86 -37q-53 -28 -53 -70t93.5 -87t93.5 -114zM229 398q-3 18 -9.5 30.5t-13.5 26.5q-18 -14 -26.5 -24.5t-20.5 -31.5q9 -2 17 -3t20 -1z
M385 253q0 32 -35 54q-27 17 -64 23q-7 -28 -7 -49q0 -20 7 -52t10 -48q34 8 57 23q32 21 32 49z" />
    <glyph glyph-name="percent" unicode="%" horiz-adv-x="642" 
d="M635 132q0 -48 -53 -89t-102 -41q-48 0 -83 45q-26 34 -42 89q-40 -66 -54 -82q-39 -46 -80 -46q-7 1 -11 1l-16 2q9 52 61 117q46 55 92 111q47 66 47 122q0 57 -25 100q-29 50 -82 57q-22 -8 -56 -40q-66 -62 -105 -62q-28 0 -41 29q-9 21 -9 55q0 62 64 108
q58 42 124 42q20 0 36 -32q10 -25 21 -49q36 -34 72 -67q54 -50 54 -126q0 -15 -6 -44t-6 -43q0 -6 5 -20.5t6 -18.5q15 4 35 4q55 0 104.5 -34.5t49.5 -87.5zM240 569q-20 -2 -25 -5t-22 -18l2 15q0 7 -8 9q-19 0 -31.5 -15.5t-12.5 -36.5q0 -8 2 -19.5t4 -20.5
q56 35 91 91zM590 146q0 26 -20.5 42.5t-46.5 16.5q-37 0 -66.5 -35t-29.5 -73q0 -25 15 -40t41 -15q37 0 72 34t35 70z" />
    <glyph glyph-name="ampersand" unicode="&#x26;" horiz-adv-x="515" 
d="M297 683q0 -20 -2.5 -36.5t-8.5 -41.5q-25 12 -36 24q-15 16 -15 40q0 20 9 46t18 49q35 -31 35 -81zM515 113q-92 -50 -129 -68q-69 -34 -135 -56q23 -18 35.5 -49t12.5 -63q0 -24 -5.5 -44.5t-18.5 -37.5q-16 25 -25 49.5t-9 50.5t9 53q2 7 13 31q-122 12 -135 16
q-75 23 -75 97q0 33 22 68q32 51 36 61q-2 12 -29 54q-12 19 -12 38q0 59 107 160q97 91 166 120l46 -23q-116 -92 -182 -144.5t-66 -106.5q0 -21 17.5 -28t48.5 -7q11 0 29 1t23 1q38 0 73 -13q-101 -57 -162 -91.5t-61 -76.5q0 -37 23 -56t62 -19q49 0 205 47z" />
    <glyph glyph-name="quotesingle" unicode="'" horiz-adv-x="194" 
d="M187 770q0 -52 -15 -93q-19 -51 -58 -73q-13 29 -13 58q0 16 6 44t7.5 53.5t3.5 69.5q7 52 42 72q14 -29 20.5 -61.5t6.5 -69.5z" />
    <glyph glyph-name="parenleft" unicode="(" horiz-adv-x="263" 
d="M251 604q0 -40 -44 -104q-74 -107 -82 -122q-44 -83 -44 -171q0 -81 44 -151q14 9 28 19q25 15 53 15q-5 -34 -25 -60q-23 -31 -55 -31q-51 0 -81 80q-23 62 -23 125q0 113 63 231q69 129 166 169z" />
    <glyph glyph-name="parenright" unicode=")" horiz-adv-x="229" 
d="M194 353q0 -108 -27 -183q-21 -60 -88 -162q-9 -14 -17 -22q-13 -13 -25 -13t-21.5 2t-15.5 3q14 52 53 104q49 65 61 92q30 65 30 155t-36 141q-39 44 -78 89q0 18 7 32t24 14q54 0 97 -102q36 -86 36 -150z" />
    <glyph glyph-name="asterisk" unicode="*" horiz-adv-x="688" 
d="M666 549l-252 -57q-28 -6 -43 -18q-20 -16 -20 -41q0 -23 12 -54q28 -73 28 -93q-19 16 -32 35t-25 45q-4 -13 -9 -32q-8 -28 -7 -33l-20 -15q-10 25 -14.5 72.5t-8.5 64.5l-69 -91q0 25 3 39t21 64q-10 1 -17.5 1.5t-12.5 0.5q-18 0 -46 -1.5t-29 -1.5q-31 0 -53.5 10.5
t-37.5 36.5q44 29 48 31q10 6 33 14l11 -46q39 6 79 13q51 15 51 54q0 28 -12 72q-26 95 -26 124q0 12 1.5 21t5.5 16q16 -18 36 -77q14 -40 25 -86q30 79 32 84q22 49 49 76l1 -25q0 -20 -4 -50q-9 -67 -9 -85q23 32 31.5 39.5t24.5 13.5q21 -7 37 -18l-103 -103l28 -3
q34 0 82 11q109 25 135 25q23 0 43.5 -7.5t32.5 -25.5z" />
    <glyph glyph-name="plus" unicode="+" horiz-adv-x="596" 
d="M597 377q-1 -12 -1 -24l-207 -46q-19 -4 -26 -21t-7 -41v-17t1 -15q0 -35 -12.5 -44.5t-47.5 -9.5q0 62 -23 114q-94 -39 -103 -42q-33 -10 -67 -10q-24 0 -47 6q26 29 80 45l92 24q41 13 56 68l24 92q20 -17 31 -47q6 -16 14 -56q113 23 143 27q48 7 88 7h10q2 0 2 -10z
" />
    <glyph glyph-name="comma" unicode="," horiz-adv-x="183" 
d="M185 11q0 -72 -28 -158q-32 -97 -78 -137q-4 9 -6 22t-2 27q0 36 18 86q39 109 39 141q0 18 -8 52t-8 51q0 33 25 52l11 -12q23 -25 30 -53.5t7 -70.5z" />
    <glyph glyph-name="hyphen" unicode="-" 
d="M424 250q-40 -16 -115.5 -20.5t-98.5 -8.5t-38 -6t-24 -2q-46 0 -60.5 10t-19.5 50q16 4 37.5 6t42.5 2q14 0 28.5 -0.5t29.5 -0.5q19 0 83 12q32 6 51 6q30 0 51.5 -11t32.5 -37z" />
    <glyph glyph-name="period" unicode="." horiz-adv-x="183" 
d="M177 57q0 -31 -23 -50t-55 -19q-22 0 -32.5 14t-10.5 37q0 70 70 70q23 0 37 -14t14 -38z" />
    <glyph glyph-name="slash" unicode="/" horiz-adv-x="573" 
d="M561 593q0 -58 -71 -160q-46 -66 -148.5 -185.5t-127.5 -156.5q-17 -25 -34 -73q-36 -101 -39 -105q-11 -14 -30.5 -20t-42.5 -6q0 50 25 105q20 44 56 94q23 32 88 119q28 38 87 117.5t87 122.5l64 92q19 23 38 36q23 16 48 20z" />
    <glyph glyph-name="zero" unicode="0" horiz-adv-x="470" 
d="M469 404q0 -116 -95 -234q-100 -124 -214 -124q-51 0 -75 41q-19 32 -19 87q0 96 33 171.5t103 140.5q49 48 84.5 65.5t67.5 17.5q54 0 87 -58q28 -49 28 -107zM417 424q0 41 -22 71.5t-63 30.5q-42 0 -66 -43q-35 -63 -44 -71q-51 -47 -79 -102q-31 -60 -31 -126
q0 -35 13.5 -57.5t47.5 -22.5q92 0 171 116q73 107 73 204z" />
    <glyph glyph-name="one" unicode="1" horiz-adv-x="171" 
d="M171 98q0 -32 -13.5 -51t-44.5 -26q-15 72 -23.5 161.5t-8.5 170.5q0 16 -14 65q-7 25 -7 39q0 18 11 28t31 16q22 -62 34 -124t12 -127q0 -12 1.5 -25.5t6 -33.5t10 -48t5.5 -45z" />
    <glyph glyph-name="two" unicode="2" horiz-adv-x="538" 
d="M538 125q-20 -29 -48 -40q-20 -8 -56 -8q-10 0 -32.5 1t-35.5 1q-21 0 -126 -61q-50 -29 -99 -29q-36 0 -59.5 24.5t-23.5 60.5q0 40 44 64q37 20 81 20q13 0 51 -7q22 -4 31 -4q39 0 58 50q14 36 14 83q0 56 -45 117q-49 66 -104 66q-30 0 -40 -26q-34 7 -43 18t-14 47
q34 10 73 10q91 0 159.5 -64.5t68.5 -154.5q0 -33 -9 -75.5t-17 -81.5q35 -8 71 -9.5t101 -1.5zM230 89q-9 2 -25.5 5t-24.5 3q-13 0 -34 -11q-14 -8 -32 -19q12 -6 29 -12t28 -6q15 0 33 14q10 8 26 26z" />
    <glyph glyph-name="three" unicode="3" horiz-adv-x="515" 
d="M512 496q0 -42 -88 -121q-36 -33 -69 -57q46 -21 71 -49q33 -36 33 -80q0 -67 -97 -131q-90 -59 -162 -59q-38 0 -66 23t-28 60q0 18 8 34.5t22 30.5q0 -42 11 -64q16 -33 54 -33q46 0 126 55q84 58 84 100q0 30 -56.5 49t-148.5 19q12 40 78 79q148 86 163 127
q-21 4 -47.5 5.5t-37.5 1.5q-47 0 -136 -22t-129 -22q-15 0 -22 1l-19 2q24 57 123 80q64 15 157 15h43q74 0 103.5 -11.5t29.5 -32.5z" />
    <glyph glyph-name="four" unicode="4" horiz-adv-x="470" 
d="M470 307q-80 0 -111 -33q-25 -27 -25 -83q0 -20 3.5 -64t3.5 -64q0 -38 -6 -57q-9 -28 -37 -40q-9 23 -13.5 53t-4.5 57q0 13 1 39t1 39q0 30 -1.5 41t-6.5 32q-73 -31 -112.5 -47t-60.5 -16q-39 0 -39 45q0 42 22 107q28 81 30.5 101t2.5 28q0 13 -3 39t-3 39l3 35
q22 -27 31.5 -58.5t9.5 -69.5q0 -23 -3 -55q-7 -74 -7 -92l2 -44q36 8 73.5 26.5t61.5 42.5q3 18 4 44.5t1 31.5q0 18 -0.5 36t-0.5 37v10q0 32 5.5 36.5t40.5 9.5q11 -86 23 -172q10 1 20 2.5t24 1.5q22 0 37.5 -5t33.5 -10v-23z" />
    <glyph glyph-name="five" unicode="5" horiz-adv-x="722" 
d="M722 535q0 -48 -115.5 -77t-232.5 -57q-146 -49 -203 -140q86 -19 147 -50q94 -47 94 -107q0 -62 -72 -99q-60 -31 -128 -31q-61 0 -104 26q-52 32 -52 89q0 32 35 70l34 34l-69 23q4 23 153 141q66 52 66 98q99 0 215 28q85 20 208 64q12 -12 24 -12zM350 103
q0 40 -59 67q-50 23 -97 23q-28 0 -59.5 -32.5t-31.5 -60.5q0 -38 38 -56q30 -14 73 -14q41 0 83 17q53 22 53 56z" />
    <glyph glyph-name="six" unicode="6" horiz-adv-x="389" 
d="M394 170q0 -63 -85 -127q-81 -61 -147 -61q-65 0 -94 75q-20 52 -20 132q0 105 41 218q38 105 104 197q10 -9 15 -14t14 -17q-36 -81 -71 -162q-35 -92 -35 -173q0 -44 9 -80q35 54 89 84.5t118 30.5q34 0 50 -36q12 -27 12 -67zM354 199q0 20 -16 24.5t-29 4.5
q-43 0 -101.5 -63.5t-92.5 -63.5q5 -26 17 -42q16 -21 40 -21q40 0 111 61t71 100z" />
    <glyph glyph-name="seven" unicode="7" horiz-adv-x="343" 
d="M349 420q0 -41 -21.5 -93.5t-41.5 -98.5q-7 -20 -10.5 -42.5t-3.5 -46.5q0 -23 1 -47l2 -48q-39 0 -58 13q-24 16 -24 53q0 40 65 180q30 65 30 110q0 47 -31 65q-23 13 -71 13q-10 0 -30 -1t-28 -1q-24 0 -39.5 2.5t-32.5 10.5q39 23 77.5 35t83.5 12q53 0 92.5 -32
t39.5 -84z" />
    <glyph glyph-name="eight" unicode="8" horiz-adv-x="366" 
d="M356 178q0 -59 -29 -100q-33 -46 -91 -46q-38 0 -55 23.5t-17 64.5q0 29 13 67q29 85 29 100q0 31 -71.5 47t-71.5 59q0 55 90 118q85 59 145 59q16 -69 25.5 -113t8.5 -47l-23 -67q-1 -4 23 -72t24 -93zM283 421q0 19 -10.5 44t-20.5 48q-76 -48 -94 -63
q-25 -22 -44 -52q36 -16 54 -23q37 -14 56 -14q26 0 42.5 17.5t16.5 42.5zM307 166q0 24 -15 56q-9 20 -29 52q-17 -27 -35 -75t-18 -75q0 -13 5.5 -21t18.5 -8q29 0 51 21t22 50z" />
    <glyph glyph-name="nine" unicode="9" 
d="M417 470q0 -15 -18 -58.5t-21 -58.5q-6 -32 -14.5 -158.5t-33.5 -187.5q-20 -7 -44 -7q0 35 7 85q16 114 16 131q0 46 -2.5 69.5t-8.5 43.5q-36 -14 -72 -27q-49 -17 -73 -17q-45 0 -74 44q-25 39 -25 87q0 74 68 124q63 46 141 46q56 0 101 -29q53 -34 53 -87zM344 474
q0 38 -25.5 55.5t-65.5 17.5q-56 0 -108.5 -41.5t-52.5 -96.5q0 -38 26.5 -55t66.5 -17q61 0 108 37q51 41 51 100z" />
    <glyph glyph-name="colon" unicode=":" horiz-adv-x="171" 
d="M152 379q0 -61 -62 -61q-15 0 -24.5 13t-9.5 30q0 24 19 49.5t41 25.5q21 0 31 -30q5 -16 5 -27zM167 81q0 -28 -12 -49q-15 -26 -41 -26q-23 0 -36 15t-13 38q0 28 19.5 50.5t48.5 22.5q18 0 26 -15.5t8 -35.5z" />
    <glyph glyph-name="semicolon" unicode=";" horiz-adv-x="217" 
d="M215 314q0 -20 -22.5 -47t-43.5 -40q-12 17 -20.5 36t-8.5 37q0 22 14 32t37 10q17 0 30.5 -6t13.5 -22zM202 17q0 -58 -44.5 -111.5t-100.5 -53.5q5 45 55.5 122t58.5 117q31 -28 31 -74z" />
    <glyph glyph-name="less" unicode="&#x3c;" horiz-adv-x="607" 
d="M607 433q-20 -39 -114 -89q-70 -36 -140 -71q-27 -16 -63 -41q-26 -19 -38 -27q17 -8 163 -20q114 -9 135 -61q-24 -4 -56 -4t-98 8t-99 8q-25 0 -99 -7q-42 -4 -61 -4q-39 0 -81 11q26 53 122 102q112 49 154 69q34 16 94 58q99 69 168 69z" />
    <glyph glyph-name="equal" unicode="=" horiz-adv-x="561" 
d="M516 445q-4 -30 -7 -37q-8 -20 -49 -20q-10 10 -21.5 12.5t-16.5 2.5h-16q-56 0 -133.5 -23.5t-157.5 -48.5q-28 0 -37 15q-5 9 -8 42q152 32 243.5 49t116.5 17q44 0 86 -9zM561 227q-17 -14 -42.5 -23t-53.5 -13q-61 -5 -121 -10q-89 -22 -177 -43q-46 0 -77 32
q92 22 191 45t180 23q56 0 100 -11z" />
    <glyph glyph-name="greater" unicode="&#x3e;" horiz-adv-x="596" 
d="M596 376q-53 -37 -126 -71q-59 -28 -118 -55q-69 -36 -135 -91q-11 -9 -23.5 -15.5t-32 -12.5t-43.5 -10t-61 -8q0 37 29 61q7 5 57 27l62 26q40 17 79 40q119 70 129 75q-13 6 -186 23q-128 13 -147 79q52 0 155 -17t154 -17q18 0 58.5 2t43.5 2q39 0 64 -6.5t41 -31.5z
" />
    <glyph glyph-name="question" unicode="?" 
d="M410 742q0 -70 -76 -152q-71 -67 -141 -133q-77 -75 -77 -124q0 -27 34 -58q20 -18 110 -74l-27 -1q-64 0 -116 34q-58 38 -58 99q0 52 66 131q67 71 134 143q82 88 104 143q-23 12 -53 18t-58 6t-102 -9q-41 -5 -63 -5q17 40 74 60q45 16 99 16q59 0 98 -18
q52 -24 52 -76zM282 55q0 -38 -24 -61t-63 -23q-38 0 -61 26t-23 64q0 36 26.5 67.5t63.5 31.5q36 0 60 -35q21 -31 21 -70zM248 64q0 22 -16 35t-38 13q-42 0 -42 -46q0 -21 10.5 -36t30.5 -15q21 0 38 14.5t17 34.5z" />
    <glyph glyph-name="at" unicode="@" horiz-adv-x="699" 
d="M676 136q-86 -61 -189 -98.5t-202 -37.5q-91 0 -142 102q-41 82 -41 182q0 166 121 314q128 156 291 156q81 0 123 -67q35 -56 35 -142q0 -106 -59 -214q-69 -127 -167 -127q-13 0 -53 10q-24 6 -34 6q-8 0 -50 -14q-21 -7 -37 -7q-31 0 -44.5 20t-13.5 52q0 69 58 145
q62 81 128 81q30 0 48 -31t18 -63q0 -26 -12 -65q-17 -56 -19 -64q85 19 139 105q50 79 50 171q0 59 -20 97q-26 50 -80 50q-138 0 -250 -132q-107 -126 -107 -266q0 -101 31 -165q42 -86 130 -86q60 0 175 44t173 44zM390 424v20q-43 -30 -60 -57q-21 -32 -21 -80
q41 27 58 48q23 29 23 69z" />
    <glyph glyph-name="A" unicode="A" horiz-adv-x="504" 
d="M504 -10q-45 24 -93 121q-39 79 -157 100l-20 -9q-5 -7 -41 -105q-22 -59 -79 -76q-3 14 -4 19q-1 7 -1 21q0 27 9 55q2 7 13 31q31 68 54 136q19 55 36 122q11 41 34 144q4 16 8 26.5t13 30.5q13 29 32 60q60 96 62 101q8 -10 10 -12q5 -4 13 -1q13 -54 17.5 -100
t4.5 -103q0 -58 -1 -97t-2 -73q0 -55 22.5 -132t46 -151.5t23.5 -107.5zM363 334q0 65 -4.5 130t-15.5 117q-1 -5 -39 -131q-26 -87 -26 -130q0 -28 25 -42q15 -8 51 -16q5 16 7 34.5t2 37.5z" />
    <glyph glyph-name="B" unicode="B" horiz-adv-x="607" 
d="M595 182q0 -78 -112 -139q-98 -53 -185 -53q-89 0 -130 62q-34 52 -34 145q0 46 7 139t7 140v105q-14 1 -24.5 3t-44.5 9l1 17l-2 29q30 3 73.5 6t73.5 3q92 0 172 -29q109 -39 109 -113q0 -23 -29.5 -53.5t-29.5 -52.5q0 -28 74 -90t74 -128zM544 185q0 46 -102 122
t-102 101q0 22 29 38q64 35 64 59q0 38 -57 66q-49 24 -93 24q-77 0 -77 -71l-1 -195l-3 -90q0 -37 10 -62.5t39 -40.5l-46 -46q32 -15 64 -23.5t65 -8.5q55 0 127 37q83 43 83 90z" />
    <glyph glyph-name="C" unicode="C" horiz-adv-x="538" 
d="M504 56q-12 -32 -38 -45t-63 -13q-152 0 -206 28q-84 43 -84 180q0 118 71 248t170 196q24 16 34 22q23 13 39 13q3 0 11.5 -3.5t10.5 -3.5q20 -22 30.5 -53t10.5 -64q0 -73 -55 -117q-7 19 -16 75t-29 84q-93 -59 -161.5 -180.5t-68.5 -230.5q0 -77 43 -107
q34 -24 103 -24q21 0 64 3t64 3q27 0 40 -1.5t30 -9.5z" />
    <glyph glyph-name="D" unicode="D" horiz-adv-x="642" 
d="M634 402q0 -149 -131 -265q-115 -102 -274 -137q-3 8 -5.5 21t-2.5 21l8 19q31 21 154 80q95 46 137 91q60 65 60 165q0 66 -90 159q-95 98 -176 98q-24 0 -36.5 -40t-12.5 -112q0 -56 2 -97q6 -123 6 -153q0 -55 -10 -105q-15 1 -35 1h-11q-4 21 -6 47.5t-2 48.5
q0 38 5 86q12 114 12 157q0 64 -3.5 104t-15.5 91q-17 -3 -26.5 -5.5t-23.5 -8.5q-7 -18 -7 -42q-32 18 -47 32q-21 19 -33 48l184 68q26 -42 83 -67q71 -31 89 -47q27 -25 42 -37t27 -20h11q44 -45 89 -89q39 -48 39 -112z" />
    <glyph glyph-name="E" unicode="E" horiz-adv-x="584" 
d="M573 387q-182 -51 -229 -74q-133 -66 -133 -178q0 -29 6 -56q53 9 121.5 29.5t131.5 39.5q16 -14 23 -22q13 -14 13 -28q0 -17 -15 -25l-337 -68q-22 0 -38 5.5t-25 22.5q38 22 41 24q13 7 28 11q-4 9 -8.5 24.5t-4.5 23.5q0 24 12 72t12 74l-11 10q25 53 41.5 102.5
t16.5 110.5l-1 39q-32 -13 -63 -25q-22 8 -40 25q108 67 205 112q109 51 219 82l23 -23q-25 -40 -107 -67q-101 -34 -129 -54q-62 -46 -62 -141q0 -29 2 -48t10 -44q67 24 135 49q111 39 123 39q18 0 26.5 -11t13.5 -31z" />
    <glyph glyph-name="F" unicode="F" horiz-adv-x="550" 
d="M573 638q-23 -56 -122 -86q-83 -24 -166 -47q-83 -34 -83 -107q0 -19 5 -46q2 -11 10 -45l234 50q8 2 16 1t26 -5l-2 -18l2 -27q-108 -18 -135 -24q-77 -17 -130 -45q-43 -23 -55.5 -128.5t-70.5 -121.5l-3 38q0 46 35 221q16 80 16 135q0 37 -42 66q-23 16 -29 41
q20 7 69 37q33 20 80 20q55 0 151 43q74 35 148 71q7 -7 23 -13.5t23 -9.5z" />
    <glyph glyph-name="G" unicode="G" horiz-adv-x="550" 
d="M527 239q-28 -35 -42 -65q-17 -37 -17 -76q0 -36 16 -77q36 -91 36 -102q0 -19 -14.5 -32.5t-35.5 -22.5q-11 33 -43 141q-13 42 -26 85q-66 -41 -98 -56q-62 -30 -107 -30q-60 0 -89 51q-23 41 -23 107q0 150 95 309q108 180 249 180l19 -1q-16 -44 -102 -107
q-99 -72 -140 -132q-71 -105 -71 -272q0 -39 16.5 -61t54.5 -22q48 0 116 41q75 45 75 87q0 12 -21 43q-16 23 -31 46q30 8 59 8q33 0 64 -10.5t60 -31.5z" />
    <glyph glyph-name="H" unicode="H" horiz-adv-x="596" 
d="M596 262q-40 -15 -80 -29q-38 -21 -38 -67q0 -15 7 -61q4 -26 4 -37q0 -26 -13.5 -39.5t-40.5 -18.5q-8 29 -21 121q-6 44 -13 73q-88 -20 -118 -48q-23 -22 -23 -69q0 -16 1.5 -44.5t1.5 -32.5q0 -21 -2 -42.5t-9 -46.5q-24 23 -32 48.5t-8 54.5v21.5t1 21.5
q0 34 -20 48q-27 18 -103 18l-33 3q14 40 55 67q31 21 82 35q-9 -14 -14 -20q-12 -14 -32 -25l25 -3q34 0 49 88q5 31 17 181q9 112 25 145q12 -30 16.5 -60t4.5 -69q0 -20 -3.5 -76t-3.5 -84q0 -48 8 -87q81 22 108 47.5t27 69.5q0 9 -4.5 63t-4.5 84q0 55 12 90
q16 46 57 68q7 -1 19 -6t15 -6q-23 -101 -25 -114q-12 -64 -12 -117q0 -60 14 -122q32 7 65 15q18 -7 24 -13t15 -25z" />
    <glyph glyph-name="I" unicode="I" horiz-adv-x="676" 
d="M676 604q-19 -10 -56.5 -19.5t-54.5 -13.5q-53 -13 -84 -38q-38 -29 -46 -77l-80 -366q23 5 135 49t118 43q12 -8 23 -26q7 -11 11 -20q-29 -12 -157 -58q-174 -62 -242 -86q-128 -44 -138 -44q-13 0 -25 4.5t-24 14.5q38 55 104 55q69 0 124 96q44 76 72 202
q24 106 24 177l-3 16q-83 -18 -165 -36l-19 1q14 31 115 70q79 31 197 63q74 19 148 39z" />
    <glyph glyph-name="J" unicode="J" 
d="M428 182q0 -78 -65 -128q-60 -46 -140 -46q-73 0 -118 38q-48 41 -48 113l92 -66q63 -41 99 -41q60 0 94 66q28 54 28 119q0 75 -30 164q-9 28 -58 141q-31 72 -31 98q0 37 35 55q66 -159 70 -169q36 -91 52 -161q20 -88 20 -183z" />
    <glyph glyph-name="K" unicode="K" horiz-adv-x="619" 
d="M619 33l-20 -2q-32 0 -66 27q-96 76 -97 77q-50 18 -125 38q-60 16 -129 31q-5 -17 -7 -36t-2 -38v-23.5t1 -22.5q0 -41 -10 -60q-13 -25 -50 -34q-10 23 -14 47.5t-4 51.5q0 61 12 137.5t24.5 158.5t12.5 143t8 108.5t30 93.5q17 -21 23 -48t6 -62q0 -31 -15 -143
q-7 -52 -7 -88q0 -28 5 -47q145 125 226 191q86 71 117 71q0 -35 -66 -101q-2 -2 -136 -123q-83 -75 -108 -118q32 -15 137.5 -48t127.5 -33q20 -25 59 -48q61 -36 67 -100z" />
    <glyph glyph-name="L" unicode="L" horiz-adv-x="458" 
d="M458 67q-27 -14 -38.5 -18t-25.5 -4h-15q-36 3 -43 3q-41 0 -101 -15q-131 -33 -167 -33q0 55 10.5 122.5t21.5 131.5q7 47 12 116q12 176 15.5 205.5t13.5 55.5q15 41 42 53q9 -42 9 -86q0 -64 -19 -157q-42 -206 -42 -260q0 -28 4 -57t13 -56q49 18 99 29t96 11
q36 0 65 -9t50 -32z" />
    <glyph glyph-name="M" unicode="M" horiz-adv-x="596" 
d="M596 22q-57 13 -107 93q-38 60 -75 163q-24 71 -48 143q-3 -17 -4 -42.5t-1 -28.5q0 -15 1 -46t1 -47q0 -82 -25 -118q-21 -30 -63 -37q-14 61 -40.5 137.5t-50.5 147.5q-4 -137 -8 -220q-9 -157 -74 -167q0 111 3 238.5t13 220.5q15 139 42 168h7q7 0 12 -4q4 -5 9 -9
q2 -3 29 -105t49 -184q29 -111 32 -121q19 40 28.5 160t12.5 138q14 82 50 102q34 -143 69 -285z" />
    <glyph glyph-name="N" unicode="N" horiz-adv-x="642" 
d="M642 570q-33 11 -53.5 17t-24.5 6q-47 0 -67 -94q-14 -67 -14 -177v-51t1 -41q0 -72 -9 -116q-14 -67 -51 -104q-44 55 -82 133q-27 56 -62 152q-26 74 -52 149q-2 -10 -18 -141.5t-34 -193.5q-28 -94 -74 -109q-3 11 -4 22.5t-1 27.5q0 31 10.5 79t15.5 71
q11 191 33 294t72 121q23 -55 55 -145q50 -141 52 -147q31 -79 65 -142q11 79 23 158q19 126 45 196q36 97 91 97q26 0 49 -20q17 -14 34 -42z" />
    <glyph glyph-name="O" unicode="O" horiz-adv-x="538" 
d="M517 363q0 -108 -90 -232q-97 -133 -200 -133q-65 0 -102 65q-31 54 -31 124q0 119 83 253q93 150 206 150q63 0 102 -85q32 -70 32 -142zM469 382q0 52 -23 102q-29 62 -75 62q-88 0 -158 -143q-60 -123 -60 -224q0 -46 14 -77q20 -44 61 -44q82 0 164 122
q77 114 77 202z" />
    <glyph glyph-name="P" unicode="P" horiz-adv-x="619" 
d="M609 420q0 -72 -63 -123q-13 -10 -221 -105q-21 -11 -21 -41q0 -14 4.5 -39t4.5 -30q0 -56 -50 -92q-22 62 -25 122.5t-113 160.5l30 2q15 0 28 -6t45 -31q4 15 6 34.5t2 38.5q0 128 -24 169t-133 102q24 42 65.5 61t93.5 19q108 0 230 -67q141 -77 141 -175zM556 424
q0 72 -108 131q-81 44 -174 61q-4 -15 -6 -41.5t-2 -45.5q0 -47 5.5 -138.5t16 -116t47.5 -24.5q60 0 138 57q83 60 83 117zM212 576q0 8 -2 19t-4 20q-14 -3 -29 -10q-25 -11 -29 -12q14 -18 27.5 -32t30.5 -26q2 10 4 21t2 20z" />
    <glyph glyph-name="Q" unicode="Q" horiz-adv-x="573" 
d="M543 411q0 -83 -58 -178q-39 -64 -54 -102q3 -12 53 -93q20 -32 20 -60l-23 -2q-40 0 -67 39q-12 18 -36 75q-57 -41 -75 -51q-48 -28 -86 -28q-73 0 -100 70q-17 44 -17 132q0 93 20 194q26 130 76 210q62 99 152 99q89 0 146 -112q49 -95 49 -193zM499 428
q0 70 -27 131.5t-83 100.5l-46 -68q-18 8 -22 9q-13 4 -24 4q-53 0 -90 -92q-28 -69 -45 -187q-13 -90 -13 -147q0 -64 19 -89.5t53 -25.5q66 0 90 35q18 26 18 84q0 14 -0.5 28.5t-0.5 29.5v9q0 9 4 21q21 -11 38 -28.5t31 -39.5q48 38 73 98.5t25 126.5z" />
    <glyph glyph-name="R" unicode="R" horiz-adv-x="607" 
d="M630 33q-10 -5 -26 -10t-28 -5q-8 0 -56 64q-61 81 -112 121q-83 65 -175 65q-7 0 -15.5 -4t-13.5 -7q-6 -13 -8 -34t-2 -25q0 -20 2.5 -51.5t2.5 -34.5q0 -45 -11 -68q-14 -30 -52 -43l-3 210q0 28 13 138q6 51 6 82q0 25 -4 81t-4 72q0 39 8 69.5t30 53.5
q26 -56 36 -103q52 108 53 110q43 73 84 73q47 0 77 -53q26 -45 26 -96q0 -60 -48 -128q-14 -20 -170 -180q143 -50 227 -108q108 -75 163 -189zM401 643q0 29 -9 50q-13 30 -37 30q-45 0 -91 -114q-41 -101 -41 -156q0 -27 6 -53q106 75 141 131q31 50 31 112z" />
    <glyph glyph-name="S" unicode="S" horiz-adv-x="607" 
d="M585 182q0 -92 -132 -143q-101 -39 -213 -39q-42 0 -92 30q-57 34 -57 71q0 20 13 30t33 10q21 0 46 -5q-24 -14 -47 -34q40 -24 80.5 -37.5t82.5 -13.5q66 0 140 35q89 42 89 100q0 75 -110 117q-102 30 -204 61q-110 39 -110 109q0 13 3 27t8 28q16 38 136.5 123.5
t162.5 85.5q20 0 38 -13t18 -33q0 -23 -18 -31t-45 -8h-15t-13 1q-55 0 -135.5 -63.5t-80.5 -116.5q0 -45 109 -75q171 -46 203 -62q110 -53 110 -154z" />
    <glyph glyph-name="T" unicode="T" horiz-adv-x="584" 
d="M722 581q-26 -17 -66 -30q-24 -8 -72 -19q-140 -33 -168.5 -69t-28.5 -175q0 -53 -1 -104l-2 -102q0 -51 -53 -72q0 49 8 148t8 149q0 82 -15 149l-188 -40q-5 -1 -14 -1q-23 0 -44 15t-30 36q33 19 39 22q24 12 43 12q15 0 34 -7q45 -17 48 -17q33 0 146 37
q53 18 196 69q102 37 111 37q15 0 28 -11t21 -27z" />
    <glyph glyph-name="U" unicode="U" horiz-adv-x="607" 
d="M607 33l-58 -33q-19 35 -38 63q-28 41 -42 61q-16 -11 -63 -54q-72 -66 -121 -66q-86 0 -133 113q-35 85 -35 187q0 89 9 152q16 115 59 115q15 0 21.5 -13t6.5 -30q0 -25 -15 -72t-15 -69q0 -162 23 -228q27 -78 84 -78q101 0 131 116q13 112 27.5 233t79.5 140
q5 -11 9.5 -23.5t4.5 -18.5q0 -15 -26 -163q-14 -80 -14 -123q0 -49 41 -109q57 -83 64 -100z" />
    <glyph glyph-name="V" unicode="V" horiz-adv-x="561" 
d="M554 747q0 -49 -57 -237t-118 -333q-72 -172 -108 -172q-7 0 -16 7q-4 3 -9 8.5t-38 108.5q-39 121 -59 195q-30 109 -30 129q0 30 6 59q40 -12 89 -171l60 -216q34 30 96 174q39 90 106 274q71 193 74 202z" />
    <glyph glyph-name="W" unicode="W" horiz-adv-x="825" 
d="M871 593q-165 0 -228 -135q-19 -41 -63 -267q-31 -158 -110 -191l-104 319q-30 -131 -49 -180q-44 -111 -112 -139q-37 69 -69 221t-32 242q0 38 10 72q37 -42 55 -126q2 -8 23 -155q13 -92 37 -141q28 80 56 161q49 119 95 119q30 0 70 -161q23 -93 30 -108
q20 36 67 189q44 142 85 203q65 95 167 95q39 0 72 -18z" />
    <glyph glyph-name="X" unicode="X" horiz-adv-x="504" 
d="M479 43q0 -7 -2.5 -15.5t-6.5 -17.5q-49 21 -121 101q-31 35 -62 71q-20 -48 -39 -95q-53 -121 -99 -143q-7 13 -11.5 28t-4.5 29q0 47 56.5 130t56.5 126q0 28 -63 127.5t-69 150.5q51 -15 112 -118q35 -65 48 -87q54 136 64 157q51 107 97 129q4 -15 4 -35
q0 -55 -60 -162t-60 -149q0 -46 80 -121t80 -106z" />
    <glyph glyph-name="Y" unicode="Y" horiz-adv-x="493" 
d="M493 764q-32 -109 -98 -202q-82 -114 -98 -152q-44 -102 -44 -274q0 -49 -10 -77q-14 -40 -49 -59q-5 17 -7 37t-2 40q0 31 2 56q7 88 7 94q0 27 -13.5 75t-13.5 70q0 19 9.5 54t9.5 51q0 40 -31.5 120.5t-31.5 118.5l2 14q46 -25 91 -143q18 -49 36 -97q70 116 104 162
q83 112 137 112z" />
    <glyph glyph-name="Z" unicode="Z" horiz-adv-x="779" 
d="M768 56q-72 -28 -193 -48.5t-204 -20.5q-59 0 -118 15q-84 21 -84 61q0 27 117 102.5t236 151.5q143 97 189 162q-19 9 -48 14.5t-54 5.5q-64 0 -141.5 -22t-156 -44t-137.5 -22q-24 0 -42 8t-30 26q18 11 148 37q100 20 239.5 42.5t163.5 22.5q61 0 90 -20
q25 -17 25 -48q0 -66 -113 -145q-38 -27 -227 -135q-140 -80 -177 -131q22 -12 49 -18t54 -6q56 0 124 10q170 25 210 25q22 0 42.5 -5t37.5 -18z" />
    <glyph glyph-name="bracketleft" unicode="[" horiz-adv-x="343" 
d="M321 -2q0 -17 -23 -27q-17 -7 -38 -7q-74 0 -115 9q-75 17 -75 63q0 35 9 93q20 128 20 160q0 43 7 129t7 129q0 38 47 63q40 21 85 21q26 0 45 -9t30 -30q-11 -6 -58 -32t-52 -30q-21 -20 -30 -52.5t-9 -67.5q0 -68 -4.5 -114.5t-30.5 -239.5q66 -4 107 -9
q78 -10 78 -49z" />
    <glyph glyph-name="backslash" unicode="\" horiz-adv-x="550" 
d="M550 45l-28 -4q-47 0 -95 35q-35 25 -74 73q-50 57 -100 115q-82 95 -124 152q-61 84 -61 117q0 22 12 37q41 -37 90 -106q64 -90 81 -111q52 -52 104 -103v-12q55 -56 82 -83q49 -49 90 -76h11z" />
    <glyph glyph-name="bracketright" unicode="]" 
d="M424 582q0 -23 -20 -160q-12 -83 -40 -254q-22 -134 -25 -137q-6 -7 -16 -10.5t-23 -3.5q-12 0 -20 1q-31 4 -32 4q-22 0 -44 -3q-67 -9 -74 -9q-22 0 -39 11t-17 33q0 15 27 20.5t62 5.5q13 0 23.5 -0.5t19.5 -0.5q40 0 61.5 24.5t28.5 66.5q15 88 31 183t16 170
q0 45 -53 65q-61 23 -73 51q17 4 34 6t37 2q62 0 103 -21q33 -17 33 -44z" />
    <glyph glyph-name="asciicircum" unicode="^" horiz-adv-x="435" 
d="M428 366q-22 -10 -41 -10q-69 0 -130 116q-35 74 -48 99q-30 -75 -59 -150q-46 -97 -99 -112q0 43 21 97q58 149 59 154q9 60 19 121q10 42 25.5 60.5t35.5 22.5q24 -73 49 -146q32 -88 63 -139q42 -68 105 -113z" />
    <glyph glyph-name="underscore" unicode="_" horiz-adv-x="389" 
d="M389 0q-12 -71 -89 -71l-83 3q-25 0 -56 -10q-78 -25 -97 -25q-24 0 -39 11.5t-25 35.5q81 28 151 44q87 20 157 20q44 0 81 -8z" />
    <glyph glyph-name="grave" unicode="`" horiz-adv-x="183" 
d="M183 707q-13 -6 -25 -9.5t-25 -3.5q-27 0 -79 48t-52 65q0 8 7 19q4 7 13 18q72 -36 95 -53q48 -35 66 -84z" />
    <glyph glyph-name="a" unicode="a" horiz-adv-x="481" 
d="M493 90q0 -51 -35 -79t-88 -28q-47 0 -87 23q-25 14 -49 29l-100 -26q-35 0 -56 16t-21 50q0 66 33 120.5t93 77.5q25 12 38 18q26 12 41 12q25 0 51.5 -22.5t26.5 -47.5q0 -12 -21 -71q-11 -31 -11 -50q0 -31 6 -46q10 -26 36 -26q19 0 51 14q79 34 92 36zM264 235
l-1 15q-60 -29 -90 -67q-36 -44 -36 -105q55 10 91 55t36 102z" />
    <glyph glyph-name="b" unicode="b" horiz-adv-x="401" 
d="M391 164q0 -70 -67 -119q-62 -45 -136 -45q-66 0 -92 58q-19 42 -19 124q0 17 1 48t1 43q0 30 -2 98.5t-2 72.5q0 58 5.5 103.5t22.5 91.5q5 -6 10 -11q4 -3 12 -2q9 -37 11 -134.5t12 -138.5q27 27 40 37q28 22 50 22q52 0 105 -99q48 -90 48 -149zM339 181
q0 49 -32.5 96t-78.5 75l-38 -50q-41 -58 -41 -98q0 -9 7 -31q4 -13 4 -18q0 -10 -18 -24t-18 -30q0 -22 15.5 -31t39.5 -9q60 0 106 29q54 34 54 91z" />
    <glyph glyph-name="c" unicode="c" horiz-adv-x="401" 
d="M401 22q-57 -11 -86 -15q-50 -8 -86 -8q-88 0 -127 47q-35 43 -35 133q0 101 58 214q68 133 159 133q29 0 44 -26q12 -21 12 -53t-10 -59.5t-32 -45.5q-10 20 -19 56q-12 48 -15 57q-64 -44 -108 -119.5t-44 -149.5q0 -54 20 -89q25 -43 75 -43q24 0 68.5 12.5t63.5 12.5
q27 0 41 -14.5t21 -42.5z" />
    <glyph glyph-name="d" unicode="d" 
d="M424 22l-33 -5q-8 0 -29 18q-56 49 -61 51q-16 -6 -81 -55q-53 -40 -97 -40q-24 0 -40.5 38.5t-16.5 68.5q0 97 60 160l136 110q3 24 3 48q0 13 -1 40t-1 41q0 51 10 76q15 37 58 42q0 -51 8 -154t8 -154q0 -25 -1 -41q-4 -63 -4 -68q0 -31 24 -68q56 -87 58 -108z
M262 199q0 23 -3 42t-9 45q-42 -10 -69.5 -40.5t-44.5 -74.5q-10 -27 -13 -36q-7 -23 -7 -38q0 -32 29 -32q54 0 87 42q30 38 30 92z" />
    <glyph glyph-name="e" unicode="e" horiz-adv-x="470" 
d="M504 22q-67 -11 -107 -15.5t-71 -4.5q-93 0 -167 46q-86 53 -86 142q0 55 71.5 132.5t124.5 77.5q29 0 47 -29q15 -24 15 -56q0 -41 -35.5 -78.5t-76.5 -37.5q-34 0 -60 28q-4 -19 -4 -43q0 -62 38 -96t102 -34q28 0 66 9q88 21 109 21q22 0 30 -22q4 -12 4 -40zM263 329
q-24 -8 -25 -8q-11 -4 -19.5 -12.5l-15.5 -15.5q-12 -13 -12 -17q0 -3 11 -13q7 -7 15 -13q33 19 39.5 30.5t6.5 48.5z" />
    <glyph glyph-name="f" unicode="f" horiz-adv-x="504" 
d="M504 513l-61 1q-112 0 -174 -96q-53 -83 -53 -202q71 -7 89 -12q52 -15 61 -57q-53 -10 -115 -10q4 -27 14.5 -57t20.5 -58q-14 -5 -25 -8.5t-19 -3.5q-20 0 -49 58q-12 24 -33 80q-23 -10 -45 -20q-36 -15 -45 -15q-11 0 -26 5t-22 7q19 45 79 61.5t66 43.5q2 8 3 20
t1 23q9 86 81 186q80 110 159 110q29 0 53 -16q20 -13 40 -40z" />
    <glyph glyph-name="g" unicode="g" 
d="M450 -269q0 -74 -15 -115q-24 -65 -85 -65q-48 0 -79.5 37.5t-31.5 85.5l1 18q15 0 43 -16q78 -44 80 -45q18 13 22 23.5t4 38.5q0 120 -17 205q-22 109 -75 192q-55 -41 -78 -56q-55 -35 -86 -35t-48 25.5t-17 58.5q0 69 63 154q67 90 134 90q46 0 63 -35q13 -26 13 -76
q0 -14 -0.5 -27.5t-0.5 -25.5q0 -36 28 -116q51 -147 53 -153q29 -97 29 -163zM303 243q0 16 -14 29t-32 13q-36 0 -81.5 -68.5t-45.5 -106.5q0 -9 2 -20t4 -21q62 15 105 72q30 44 46 67q6 8 11 17.5t5 17.5z" />
    <glyph glyph-name="h" unicode="h" horiz-adv-x="366" 
d="M366 33q-11 -4 -24 -8.5t-23 -4.5q-44 0 -70 75q-16 55 -31 110q-66 -46 -85 -130q-15 -68 -66 -76q0 172 5 270q11 217 42 256q11 -23 15.5 -50.5t4.5 -58.5q0 -13 -1 -40t-1 -41q0 -30 3 -50t13 -46q46 28 53 31q29 14 61 14q14 -49 29 -97q29 -99 41 -120h11z" />
    <glyph glyph-name="i" unicode="i" horiz-adv-x="217" 
d="M171 387q-21 -14 -41 -14q-9 0 -16 4l-1 24q0 16 5 24.5t20 8.5q27 0 31 -13q0 -21 2 -34zM206 24q0 -13 -12.5 -19.5t-26.5 -6.5q-46 0 -71 32t-25 79q0 45 19 98q5 13 23 55q7 -7 16 -14.5t11 -14.5l-18 -116q0 -38 18 -54q13 -11 54 -19q1 -6 6.5 -10.5t5.5 -9.5z" />
    <glyph glyph-name="j" unicode="j" horiz-adv-x="320" 
d="M206 501l-40 -15q-3 0 -15.5 12.5l-13.5 13.5l21 12q14 8 22 8q6 0 15 -13q4 -5 11 -18zM308 11q-20 -44 -29 -66q-17 -41 -17 -68v-19q0 -105 -11.5 -149.5t-35.5 -44.5q-38 0 -84 89q-42 82 -42 127q0 41 66 66t66 91q0 53 -31.5 154.5t-31.5 150.5v18q0 4 4 19l31 8
q22 -93 45.5 -195t23.5 -181l26 1zM223 -140q0 33 -7 61q-32 -5 -51 -17q-24 -16 -24 -44t22 -64q12 -20 41 -56q11 46 13 59q6 33 6 61z" />
    <glyph glyph-name="k" unicode="k" horiz-adv-x="412" 
d="M401 10q-81 0 -149 59t-91 59q-19 0 -27 -15.5t-8 -39.5q0 -9 1 -24.5t1 -19.5q0 -8 -15 -17q-4 -2 -23 -12q-7 18 -10.5 44t-3.5 50q0 66 -1 110t-2 83q0 111 10.5 193.5t42.5 146.5q31 -29 31 -71q0 -28 -3 -67q-7 -91 -7 -116q0 -44 2.5 -71t10.5 -63q21 6 129 130
q46 53 84 53l16 -1q-90 -145 -103 -162q-40 -51 -80 -77q68 -64 77 -72q38 -33 83 -66q13 -5 27 -9q4 -4 8 -25z" />
    <glyph glyph-name="l" unicode="l" horiz-adv-x="194" 
d="M169 455q0 -25 -14 -99q-7 -37 -7 -60l2 -153q0 -48 -2.5 -74.5t-11.5 -67.5q-27 4 -40.5 16t-13.5 38q0 18 2 34q7 54 7 58v66q0 108 7.5 180t37.5 143q16 -14 24.5 -36t8.5 -45z" />
    <glyph glyph-name="m" unicode="m" horiz-adv-x="607" 
d="M619 56q-50 -42 -52 -43q-20 -13 -37 -13q-47 0 -60 85l-12 120q-52 -95 -53 -96q-37 -53 -85 -64l-22 227q-36 -41 -56 -66q-39 -48 -48 -69q-16 -42 -31 -84q-21 -45 -61 -63q-30 104 -30 217q0 43 3 60q7 38 28 52q11 -22 21.5 -55t23.5 -94q48 68 82 106
q50 56 102 88q17 -30 28 -66q6 -21 17 -71q43 69 69 107q49 72 80 87q8 -21 11 -41.5t3 -45.5q0 -28 -4 -69q-9 -93 -9 -118q0 -59 17 -73q13 -11 75 -18z" />
    <glyph glyph-name="n" unicode="n" horiz-adv-x="458" 
d="M481 67q-21 -32 -42 -47q-27 -19 -61 -19q-83 0 -119 103q-16 50 -31 101q-20 -55 -57 -110q-33 -49 -80 -96q-8 20 -11.5 42t-3.5 49q0 13 -0.5 28t-0.5 32q0 87 10 140q15 79 52 97q4 -15 6 -35t2 -40q0 -12 -1 -37t-1 -37q0 -26 5 -56q38 68 64 111q50 81 79 81
q18 0 24 -17t6 -38q0 -22 -10 -93q-5 -36 -5 -57q0 -51 14 -80q19 -39 65 -39q22 0 48 5q6 1 48 12z" />
    <glyph glyph-name="o" unicode="o" horiz-adv-x="412" 
d="M401 262q0 -81 -68 -169q-72 -93 -151 -93q-54 0 -89 40t-35 95q0 87 72 177q77 96 162 96q56 0 85 -48q24 -39 24 -98zM365 277q0 44 -18.5 66t-61.5 22q-71 0 -123 -74q-47 -67 -47 -142q0 -39 13 -64q17 -33 53 -33q69 0 128 79q56 74 56 146z" />
    <glyph glyph-name="p" unicode="p" horiz-adv-x="401" 
d="M398 231q0 -71 -58 -118l-108 -66q-58 -38 -58 -86q0 -21 15 -95q7 -34 7 -58q0 -35 -13.5 -57t-46.5 -35q-6 40 -25 142q-30 159 -30 242q0 30 4.5 62t6.5 49.5t8.5 28t20.5 11.5q41 5 101 80q27 34 52 34q44 0 84 -45t40 -89zM344 232q0 27 -24.5 54.5t-49.5 27.5
q-42 0 -77 -73q-30 -63 -30 -113q0 -29 6 -59q58 20 110 62q65 52 65 101z" />
    <glyph glyph-name="q" unicode="q" horiz-adv-x="355" 
d="M393 -215q0 -13 -62.5 -76.5t-77.5 -63.5q-10 0 -20.5 5t-13.5 7l-5 10q4 17 4 41q0 12 -2 36t-2 37q0 41 10 171q5 65 5 103q-24 -21 -47 -33.5t-49 -12.5q-36 0 -54 34q-14 27 -14 68q0 69 62 128q44 42 124 80l12 -12q35 4 56 -44q16 -37 16 -77q0 -58 -35 -178
t-35 -174q0 -42 9 -84q30 32 37 38q34 31 78 31q3 -14 3 -17q1 -7 1 -17zM263 217q0 10 -2.5 20t-7.5 24q-43 -17 -86 -56q-51 -46 -51 -84q0 -19 14.5 -36.5t34.5 -17.5q33 0 67 60q31 54 31 90z" />
    <glyph glyph-name="r" unicode="r" horiz-adv-x="309" 
d="M309 284q-10 0 -30 3t-29 3q-79 0 -91 -145t-45 -145q-21 0 -30.5 12.5t-9.5 34.5q0 15 2.5 38.5t2.5 27.5q0 26 -2 57q-5 77 -5 96q0 48 5 74q9 49 36 59q15 -64 23 -115l48 32q31 19 52 19q20 0 41 -17q12 -10 32 -34z" />
    <glyph glyph-name="s" unicode="s" horiz-adv-x="412" 
d="M401 467q0 -59 -79 -103q-90 -50 -105 -91h12q53 -40 86 -74q54 -56 54 -95q0 -49 -49 -79q-43 -26 -96 -26q-58 0 -98 27q-47 32 -47 87q32 -21 69 -42.5t70 -21.5t62 14q37 18 37 48q0 48 -61.5 86.5t-125.5 78.5q0 36 115 109q99 63 156 82z" />
    <glyph glyph-name="t" unicode="t" horiz-adv-x="401" 
d="M424 307q-27 -12 -141 -34.5t-114 -168.5q0 -30 10.5 -45t40.5 -15q17 0 41 5t37 7q-19 -26 -46.5 -43t-57.5 -17q-37 0 -55 35q-14 28 -14 69q0 20 4 50q9 67 9 83l-1 17q-11 -2 -28.5 -5.5t-24.5 -3.5q-13 0 -23 10q-4 4 -17 22q103 36 138 45q81 22 144 22
q42 0 63 -8.5t35 -24.5z" />
    <glyph glyph-name="u" unicode="u" horiz-adv-x="401" 
d="M401 -10l-29 -3q-30 0 -53 27q-10 12 -33 53q-56 -33 -77 -43q-51 -25 -81 -25q-39 0 -55 38q-11 27 -11 74q0 76 40 151q13 -28 23 -105l12 -112q144 43 156 176q6 67 39 85q18 -36 18 -77q0 -11 -3.5 -44t-3.5 -49q0 -33 20 -76q1 -2 38 -70z" />
    <glyph glyph-name="v" unicode="v" horiz-adv-x="378" 
d="M401 398q-6 -9 -51 -56q-21 -22 -32 -38q-14 -21 -68 -173q-42 -118 -90 -131q-37 120 -73 240q0 25 4 44q28 -28 61 -89q22 -41 31 -59q62 130 119 199t99 63z" />
    <glyph glyph-name="w" unicode="w" horiz-adv-x="653" 
d="M711 478q-24 -22 -102 -52q-61 -24 -94 -79q-18 -30 -37 -125q-22 -111 -34 -147q-25 -74 -66 -85q-11 32 -26.5 66.5t-30.5 67.5q-35 -23 -82 -74q-23 -25 -45 -50q-23 35 -39 99q-22 85 -30 105q-18 -11 -28.5 -15.5t-28.5 -6.5q8 26 24.5 50t67.5 75q31 -31 46 -125
q8 -59 11 -81q36 58 60 89q16 21 43 48q19 -23 37.5 -49.5t32.5 -52.5q29 125 50 175q31 74 82 112q57 42 166 67q7 -9 8 -10q5 -1 15 -2z" />
    <glyph glyph-name="x" unicode="x" horiz-adv-x="332" 
d="M320 330q-31 -39 -56 -85q-34 -62 -34 -94q0 -24 42.5 -70.5t42.5 -66.5q0 -11 -12 -18t-24 -7q-25 0 -66 57q-16 22 -31 44q-19 -27 -37 -53q-25 -29 -56 -29l-21 2q3 16 50 98q20 34 20 61q0 25 -12 56q-28 73 -28 92q0 25 16 59q20 -17 33 -53q30 -79 48 -96l36 70
q29 46 57 46q8 0 16.5 -3.5t15.5 -9.5z" />
    <glyph glyph-name="y" unicode="y" horiz-adv-x="366" 
d="M367 -149v-12q0 -35 -5 -52q-9 -30 -33 -30q-26 0 -57 25q-25 20 -44 48q35 0 70 -11q10 41 10 89q0 98 -44 194q-22 -36 -51 -63q-39 -36 -70 -36q-40 0 -59 74q-13 50 -13 107q0 37 8.5 67.5t33.5 44.5q15 -40 19 -126t16 -125q40 25 93 148q25 59 56 80
q19 -39 44.5 -202t25.5 -220z" />
    <glyph glyph-name="z" unicode="z" horiz-adv-x="584" 
d="M584 0h-16q-23 0 -71 11t-73 11q-47 0 -194 -10q-74 -5 -116 -5q-15 0 -24.5 4.5t-9.5 18.5q0 54 84 111q13 9 134 74q-47 13 -90 13q-31 0 -69 -10.5t-73 -20.5q-21 -6 -35 18q-6 11 -9 24q46 0 138 17t137 17q38 0 54.5 -11t16.5 -30q0 -27 -83 -87l-114 -78
q10 -3 27 -4t31 -1q37 0 68 2q107 7 115 7q80 0 121 -20q34 -17 51 -51z" />
    <glyph glyph-name="braceleft" unicode="{" horiz-adv-x="378" 
d="M378 672q-12 -33 -57 -58q-97 -54 -104 -79q-17 -93 -33 -186q6 -16 8 -24q6 -22 6 -44q0 -35 -22.5 -101.5t-22.5 -98.5q0 -20 14.5 -28t38.5 -8l11 10q5 0 18.5 2t15.5 2q12 0 28 -5t31 -9q-8 -32 -31.5 -45t-60.5 -13h-23t-24 -1q-46 0 -68 9q-32 13 -32 50
q0 35 24 102t24 101q0 36 -25 56q-31 25 -35 39q7 16 24 34q39 41 45 55.5t15 87.5q13 115 74 131q32 8 55 16.5t34.5 12.5t24.5 4t23 -2.5t24 -9.5z" />
    <glyph glyph-name="bar" unicode="|" horiz-adv-x="229" 
d="M182 208q0 -43 -6 -86.5t-17 -88.5q-33 5 -43.5 15.5t-10.5 29.5q0 16 2 30q7 47 7 51l-2 163q0 34 -4 102t-4 102q0 51 6 88.5t27 69.5q26 -22 35 -63q6 -26 6 -74q0 -28 -2 -61q-5 -83 -5 -104q0 -27 7 -108q4 -46 4 -66z" />
    <glyph glyph-name="braceright" unicode="}" horiz-adv-x="435" 
d="M405 629q0 -30 -25 -91q-30 -65 -38 -83q23 -11 34 -19q20 -15 20 -31q-25 -53 -45 -100q-23 -53 -26 -83q-2 -69 -4 -128t-21 -73q-9 -6 -23.5 -9t-28.5 -3q-16 0 -30.5 1t-27.5 2q-15 0 -42.5 -5.5t-36.5 -5.5q-16 0 -24.5 12t-8.5 29q0 22 20 30t50 8q11 0 20 -0.5
t15 -0.5q55 0 66 83q3 62 7 124q5 26 7.5 42.5t2.5 29.5q0 9 -9 31t-9 36q0 18 28 65t28 84q0 35 -63 54q-74 22 -93 56q30 12 61 12q77 0 117 -8q79 -16 79 -59z" />
    <glyph glyph-name="asciitilde" unicode="~" horiz-adv-x="401" 
d="M401 421q-19 -24 -43.5 -39.5t-51.5 -15.5q-34 0 -65 24q-24 18 -47 54l-126 -103l-1 17q0 42 54.5 92.5t95.5 50.5q18 0 31 -26q28 -58 72 -58q14 0 46.5 2t34.5 2z" />
    <glyph glyph-name="nonbreakingspace" unicode="&#xa0;" 
 />
    <glyph glyph-name="exclamdown" unicode="&#xa1;" horiz-adv-x="343" 
d="M280 851q0 -45 -25 -97q-30 -62 -70 -62q-15 0 -65.5 26.5t-60.5 40.5t-10 32q0 44 58 90.5t104 46.5q34 0 51.5 -20.5t17.5 -56.5zM201 430q0 -61 -3 -123q-9 -186 -9 -208q0 -43 -10 -67q-14 -33 -50 -41q-7 32 -7 69q0 30 12 127q6 49 6 77q0 57 -1 92q-4 141 -4 154
q0 20 16 30q10 6 35 10q7 -25 11 -59.5t4 -60.5zM214 833q0 10 -1.5 22t-5.5 26q-36 -19 -54 -36q-23 -22 -37 -55h30q35 0 47 5q21 9 21 38z" />
    <glyph glyph-name="cent" unicode="&#xa2;" horiz-adv-x="401" 
d="M401 22l-140 -22l-7 -50q-19 5 -26 12q-12 12 -12 37q-81 0 -117 48q-32 43 -32 132q0 77 39 172q45 109 109 152q0 47 4.5 80t18.5 67q16 -21 22.5 -54t6.5 -71l17 1q29 0 44 -26q12 -21 12 -53t-10 -59.5t-32 -45.5q-8 17 -15 39q-11 47 -17 68q0 -20 -2 -61t-2 -62
q0 -32 4 -94t4 -93l-3 -74q28 8 44.5 11t27.5 3q27 0 41 -14.5t21 -42.5zM222 86v175q0 38 -1 57q-5 96 -5 97q-46 -46 -75 -108.5t-29 -120.5q0 -54 20 -89q25 -43 75 -43l13 1z" />
    <glyph glyph-name="sterling" unicode="&#xa3;" horiz-adv-x="458" 
d="M458 67q-23 -12 -46 -12q-14 0 -69 15q-29 8 -49 8q-39 0 -138 -53q-47 -25 -88 -25q0 37 10 94q22 125 22 160l3 77q-16 7 -31 7q-17 0 -34 -25.5t-35 -25.5q-12 0 -22 24q-1 4 -4 12q1 1 41 38q22 21 46 21q13 0 21 -3t20 -12q4 90 8 181q14 133 65 133q21 0 49 -9
q62 -20 70 -20q10 0 23 5q4 -18 -43 -28q-33 -7 -69 -7q-45 0 -49 -130.5t-10 -157.5q14 -7 29 -7q12 0 23 25.5t35 25.5q13 0 24 -24q1 -4 4 -12q-3 -2 -31 -38q-17 -21 -45 -21q-13 0 -23.5 4.5t-21.5 13.5q-12 -69 -12 -120q0 -28 4 -57t13 -56q21 7 75 43q41 27 78 27
q32 0 83.5 -23t73.5 -48z" />
    <glyph glyph-name="currency" unicode="&#xa4;" horiz-adv-x="500" 
d="M474 601q6 -6 6 -15q0 -16 -29 -48q14 -24 14 -70q0 -42 -19.5 -90t-53.5 -91q31 -35 48 -60q22 -33 22 -53q0 -12 -8 -20t-30 10q-10 8 -21 19l-54 58q-39 -35 -82 -54.5t-88 -19.5q-24 0 -45.5 9t-36.5 23q-37 -25 -59 -25q-12 0 -20 8t10 30q8 10 19 21l17 16
q-17 40 -17 88q0 36 12.5 81.5t35.5 86.5q-37 39 -50.5 60t-13.5 33q0 8 5 13t14 5q17 0 45 -25q16 -17 33 -33l2 -5q18 20 39.5 31.5t45.5 11.5q14 0 33 -6q28 -10 57 -19q6 -2 19 -2q12 0 23 1l22 2l31 -2q15 12 25 19q24 16 38 16q7 0 11 -4zM429 501q0 19 -47.5 26.5
t-147.5 7.5q-59 0 -104 -76q-38 -65 -38 -122q0 -52 22.5 -88.5t55.5 -36.5q83 0 160 64q99 83 99 225z" />
    <glyph glyph-name="yen" unicode="&#xa5;" horiz-adv-x="493" 
d="M493 764q-27 -95 -78 -173q-42 -60 -84 -119q-45 -71 -62 -156q20 3 29 4t29 1q30 0 47 -6.5t28 -27.5q-30 -9 -65 -12.5t-76 -3.5l-4 -37l38 3q27 0 42.5 -6.5t25.5 -27.5q-25 -8 -51 -11.5t-58 -3.5l-1 -52q0 -49 -10 -77q-14 -40 -49 -59q-4 13 -6 31.5t-2 34.5
q0 19 3 58t3 59l-4 -1l-28 -3.5t-19 -1.5q-38 0 -49 7t-15 36q16 3 40 4t29 1h24.5h16.5h7q0 10 -1.5 21.5t-2.5 17.5l-34 -3q-42 0 -54 7t-17 36q12 2 34.5 3t35.5 1h23q-3 11 -7 27.5t-4 36.5q0 19 9.5 54t9.5 51q0 40 -31.5 120.5t-31.5 118.5l2 14q46 -25 91 -143
q18 -49 36 -97q70 116 104 162q83 112 137 112z" />
    <glyph glyph-name="brokenbar" unicode="&#xa6;" horiz-adv-x="229" 
d="M188 441q0 -33 -21 -73q-24 0 -36.5 4t-12.5 15q0 5 4 16t4 18l-2 68q0 10 -3.5 40t-3.5 45q0 22 5.5 37.5t24.5 29.5q23 -9 30 -23.5t7 -34.5q0 -11 -3 -34t-3 -35t5 -36t5 -37zM182 71q0 -22 -5.5 -44t-17.5 -45q-26 0 -39.5 5t-13.5 18q0 6 6 25q3 10 3 16l-2 82
q0 17 -4 52t-4 52q0 26 6 45t27 35q25 -11 34 -32q6 -14 6 -37q0 -17 -3.5 -46.5t-3.5 -37.5q0 -14 7 -55q4 -23 4 -33z" />
    <glyph glyph-name="section" unicode="&#xa7;" horiz-adv-x="577" 
d="M556 283q0 -62 -71 -103q-58 -34 -145 -48q96 -27 128 -55q28 -25 28 -60q0 -26 -10 -49q-14 -33 -120 -109.5t-143 -76.5q-18 0 -33.5 11.5t-15.5 29.5q0 21 15 28t40 7q18 -1 25 -1q49 0 119.5 56t70.5 104q0 41 -96 67q-149 41 -178 55q-97 47 -97 136q0 61 67 103
q55 34 140 49q-70 20 -101 40q-43 28 -43 70q0 23 10 48q14 33 120 108t141 75q18 0 33.5 -11.5t15.5 -28.5q0 -20 -15 -27t-40 -7q-18 1 -25 1q-49 0 -118.5 -55.5t-69.5 -102.5q0 -40 95 -66q150 -41 177 -54q96 -46 96 -134zM506 287q0 45 -36 71q-46 34 -146 34
q-58 0 -123 -31q-78 -37 -78 -89q0 -44 31 -68q45 -35 153 -35q59 0 122 30q77 37 77 88z" />
    <glyph glyph-name="dieresis" unicode="&#xa8;" horiz-adv-x="408" 
d="M346 741q0 -31 -23 -50t-55 -19q-22 0 -32.5 14t-10.5 37q0 70 70 70q23 0 37 -14t14 -38zM158 745q0 -31 -23 -50t-55 -19q-22 0 -32.5 14t-10.5 37q0 70 70 70q23 0 37 -14t14 -38z" />
    <glyph glyph-name="copyright" unicode="&#xa9;" horiz-adv-x="835" 
d="M780 505q0 -199 -126 -355q-144 -178 -379 -178q-112 0 -175 98q-53 83 -53 199q0 81 35 184q39 117 99 187q73 86 158 86q47 0 151 -14t148 -14q89 0 119 -52q23 -40 23 -141zM745 572q0 46 -45.5 60t-158.5 14q-38 0 -79 -0.5t-86 -0.5q-113 0 -199 -134
q-78 -121 -78 -242q0 -86 35 -157q44 -89 120 -89q250 0 380 173q111 148 111 376zM472 116q-9 -24 -27.5 -34t-47.5 -10q-141 0 -179.5 38.5t-38.5 118.5q0 88 53.5 185.5t127.5 147.5q18 12 26 16q18 10 29 10l16 -5q31 -34 31 -88q0 -55 -41 -88q-6 14 -12.5 56t-21.5 63
q-70 -44 -121.5 -135t-51.5 -173q0 -59 33 -81q25 -17 79 -17q15 0 47 2t47 2q17 0 29.5 -1.5t22.5 -6.5z" />
    <glyph glyph-name="ordfeminine" unicode="&#xaa;" horiz-adv-x="270" 
d="M234 493q0 -25 -17 -39t-44 -14q-21 0 -36 7q-19 12 -32 19q-25 -7 -50 -13q-18 0 -28.5 7.5t-10.5 25.5q0 33 16.5 60.5t46.5 38.5q13 6 19 9q13 6 21 6q12 0 25.5 -11.5t13.5 -23.5q0 -6 -10 -35q-6 -17 -6 -26q0 -15 4 -25.5t17 -10.5q9 0 25 7q39 17 46 18zM120 566
l-1 7q-30 -14 -46.5 -34.5t-16.5 -51.5q27 5 45.5 27.5t18.5 51.5z" />
    <glyph glyph-name="guillemotleft" unicode="&#xab;" horiz-adv-x="935" 
d="M921 513q-20 -39 -114 -89q-70 -36 -140 -71q-27 -16 -63 -41q-26 -19 -38 -27q17 -8 163 -20q114 -9 135 -61q-24 -4 -56 -4t-98 8t-99 8q-25 0 -99 -7q-42 -4 -61 -4q-39 0 -81 11q26 53 122 102q112 49 154 69q34 16 94 58q99 69 168 69zM559 433q-20 -39 -114 -89
q-70 -36 -140 -71q-27 -16 -63 -41q-26 -19 -38 -27q17 -8 163 -20q114 -9 135 -61q-24 -4 -56 -4t-98 8t-99 8q-25 0 -99 -7q-42 -4 -61 -4q-39 0 -81 11q26 53 122 102q112 49 154 69q34 16 94 58q99 69 168 69z" />
    <glyph glyph-name="logicalnot" unicode="&#xac;" horiz-adv-x="1200" 
d="M1162 -83h-1123v765h1123v-765zM1067 255v18h-16q-21 0 -29 5t-8 27v250q0 10 -0.5 20t-0.5 19q0 24 9.5 31.5t44.5 7.5v18h-160v-18q37 0 45 -7t8 -37v-24v-258q0 -22 -9.5 -28t-29.5 -6h-14v-18h160zM1141 27q0 50 -78 66t-78 50q0 21 15.5 33.5t37.5 12.5
q16 0 31 -7.5t27 -21.5q3 -14 4 -17q1 -6 1 -18l16 -1q0 17 3 37.5t4 31.5q-42 13 -80 13q-44 0 -71 -18q-32 -22 -32 -64q0 -53 77.5 -68t77.5 -51q0 -25 -18 -38.5t-44 -13.5q-42 0 -57 15t-15 56h-16q0 -11 -2 -37.5t-2 -29.5q0 -10 22.5 -16.5t59.5 -6.5q47 0 79 22
q38 26 38 71zM941 184h-86q0 24 1 48.5t4 46.5q28 23 42 44q18 27 18 58q0 88 -115 98t-115 74q0 38 27 59t67 21q19 0 44 -7.5t38 -18.5q5 -11 5 -34v-20h18q0 30 1.5 43t7.5 37q-53 21 -111 21q-62 0 -102 -29q-45 -33 -45 -93q0 -87 115.5 -98t115.5 -75q0 -42 -32 -64
t-76 -22q-26 0 -52 8q-35 11 -42 29l-1 48h-19v-33v-14q0 -20 -3 -40q51 -21 106 -21q27 0 51 6q5 -40 5 -72q-19 -11 -45 -19v-12h45v-157q0 -62 64 -62q8 0 18 2t18 4l27 34l-8 11q-13 -15 -32 -15t-29.5 14t-10.5 53v13v108q8 0 25.5 1t25.5 1q15 0 29 -3zM802 -60v17
q-29 0 -37 5t-8 23q1 20 1 33v92q0 96 -93 96q-25 0 -50 -15t-43 -38q1 18 1 27q0 16 -5 26q-23 -10 -46 -16t-47 -6v-17q11 1 17 1q13 0 21.5 -3.5t8.5 -13.5v-172q0 -11 -5 -17t-21 -6q-14 1 -21 1v-17h144l-1 17q-30 0 -39.5 8.5t-9.5 31.5q0 6 1 23.5t1 29.5v28
q0 46 10 64q16 28 63 28q38 0 53 -23q12 -19 12 -62v-54v-12q0 -44 -4 -79h97zM680 633v18h-119v-18q14 0 32 -2.5t18 -10.5q0 -25 -38 -154l-40 -130l-116 318h-14l-122 -315q-16 67 -32 138t-28 131q-4 6 -3 10q0 10 15 12.5t22 2.5h12v18h-143v-18q26 0 32.5 -6.5
t12.5 -35.5q10 -43 22 -88q28 -105 32 -149q-23 0 -58.5 -32.5t-46.5 -57.5q-4 -10 -5.5 -21t-1.5 -30v-30l-40 -20v-10l40 4l1 -153q0 -32 -8.5 -39.5t-41.5 -7.5v-17h155v17h-17q-19 0 -25 2q-16 6 -16 39l1 160q17 0 35 -0.5t36 -0.5l5 25l-2 2h-74v36v25q0 32 8.5 50
t35.5 18q17 0 29 -9l11 -54h29q27 80 57 156q22 57 65 155q9 -26 58 -154q37 -98 54 -157h30q15 61 54 198q46 160 60 181q7 4 29 4zM487 80q0 56 -36 91t-93 35q-61 0 -102 -36t-41 -97q0 -59 34 -99t92 -40q64 0 105 41t41 105zM434 56q0 -41 -16 -69q-20 -34 -59 -34
q-46 0 -70 49q-19 38 -19 90q0 39 19 68t56 29q48 0 71 -45q18 -35 18 -88z" />
    <glyph glyph-name="minus" unicode="&#xad;" 
d="M391 250q-40 -16 -115 -20.5t-98 -8.5t-38 -6t-25 -2q-46 0 -60.5 10t-19.5 50q16 4 37.5 6t43.5 2q14 0 28.5 -0.5t29.5 -0.5q19 0 83 12q32 6 51 6q31 0 51.5 -11t31.5 -37z" />
    <glyph glyph-name="registered" unicode="&#xae;" horiz-adv-x="835" 
d="M780 505q0 -133 -39 -250q-47 -141 -137 -220q-106 -93 -265 -93q-115 0 -207 113q-85 105 -85 214q0 81 35 184q39 117 99 187q73 86 158 86q47 0 151 -14t148 -14q89 0 119 -52q23 -40 23 -141zM745 572q0 46 -45.5 60t-158.5 14q-38 0 -79 -0.5t-86 -0.5
q-113 0 -199 -134q-78 -121 -78 -242q0 -77 67 -172q74 -104 152 -104q168 0 270 90q88 77 126 218q31 114 31 271zM594 129q-10 -3 -22.5 -6t-23.5 -3q-56 59 -126 102q-77 48 -162 48q-7 0 -14.5 -3t-9.5 -4q-6 -9 -7.5 -17.5t-1.5 -16.5q0 -12 2.5 -31.5t2.5 -21.5
q0 -26 -9 -40q-12 -19 -44 -26l-2 125q0 23 8 67t8 65q0 16 -2 34q-5 46 -5 58q0 25 6 42t26 32q11 -19 18 -32t12 -30l44 66q36 44 71 44q38 0 64 -32q22 -28 22 -58q0 -35 -40 -76q-15 -16 -143 -108q119 -29 191 -65q90 -44 137 -113zM401 494q0 18 -7 30q-10 18 -31 18
q-37 0 -76 -68q-35 -61 -35 -94q0 -14 5 -31q72 36 100 60q44 38 44 85z" />
    <glyph glyph-name="macron" unicode="&#xaf;" horiz-adv-x="376" 
d="M294 631q-27 -11 -81.5 -15t-73 -7.5t-37.5 -3.5q-32 0 -42 7t-14 36q19 4 42 4q10 0 20.5 -0.5t20.5 -0.5t14 1q13 0 34 4q47 9 59 9q21 0 36 -7.5t22 -26.5z" />
    <glyph glyph-name="degree" unicode="&#xb0;" horiz-adv-x="285" 
d="M211 536q0 -30 -26 -63.5t-55 -33.5q-20 0 -33 15t-13 35q0 32 27.5 67t59.5 35q20 0 30 -16.5t10 -38.5zM198 542q0 33 -30 33q-27 0 -45 -26t-18 -55q0 -13 6 -24.5t19 -11.5q25 0 46.5 28.5t21.5 55.5z" />
    <glyph glyph-name="plusminus" unicode="&#xb1;" horiz-adv-x="560" 
d="M460 433l-1 -23l-149 -45q-13 -4 -18 -19.5t-5 -39.5v-17.5t1 -15.5q0 -34 -9.5 -43.5t-34.5 -9.5q0 60 -16 111q-30 -17 -62.5 -33.5t-59.5 -16.5q-20 0 -34 5q19 28 57 44q33 12 67 24q30 13 39 62.5t18 94.5q16 -19 23 -46q4 -14 9 -55q64 18 82 22q47 11 84 11h8z
M465 147q-50 -12 -142 -16t-124 -7.5t-64 -3.5q-55 0 -72 7.5t-23 36.5q22 3 54 4.5t70 1.5h24.5h17.5q24 0 59 4q80 9 101 9q38 0 62 -7.5t37 -28.5z" />
    <glyph glyph-name="twosuperior" unicode="&#xb2;" horiz-adv-x="255" 
d="M229 444q-11 -15 -22.5 -19.5t-29.5 -4.5q-22 1 -34 1q-17 0 -38 -14q-49 -32 -75 -32q-17 0 -29 12t-12 30q0 20 20.5 31t41.5 11q7 0 21 -2t20 -2q20 0 28 21t8 44q0 29 -22 59q-25 34 -52 34q-15 0 -20 -13q-18 4 -22 8q-5 5 -7 23q14 6 28 6q6 -1 9 -1
q45 0 79.5 -31.5t34.5 -76.5q0 -19 -4.5 -39.5t-8.5 -40.5q9 -2 26.5 -3t27.5 -1h32zM75 426l-25 4q-6 0 -15.5 -5.5t-17.5 -9.5q13 -9 28 -9q8 0 15 5.5t15 14.5z" />
    <glyph glyph-name="threesuperior" unicode="&#xb3;" horiz-adv-x="292" 
d="M240 620q0 -17 -31 -48q-22 -22 -47 -41q22 -11 35 -24q17 -18 17 -40q0 -34 -47 -65t-83 -31q-19 0 -33 11.5t-14 30.5q0 10 3.5 17t11.5 16q0 -18 2 -25q7 -24 31 -24t64.5 28t40.5 50q0 15 -28 24.5t-75 9.5q6 20 39 39q74 43 82 64q-19 4 -43 4q-72 -11 -143 -22
l-10 1q12 28 54 37.5t86 9.5h22q30 0 48 -4t18 -18z" />
    <glyph glyph-name="acute" unicode="&#xb4;" horiz-adv-x="364" 
d="M322 861q-3 -34 -13.5 -64.5t-29.5 -62.5q-27 -46 -59 -73q-41 -34 -87 -34q3 31 18 56q8 15 24 32q24 25 27 30q23 37 47 74q32 42 73 42z" />
    <glyph glyph-name="mu" unicode="&#xb5;" horiz-adv-x="401" 
d="M401 -10l-29 -3q-30 0 -53 27q-10 12 -33 53q-35 -21 -69 -42q-44 -24 -73 -24q7 -27 15.5 -72.5t10.5 -69.5q-56 0 -85 86q-23 69 -23 166q0 76 40 151q13 -28 23 -105l12 -112q144 43 156 176q6 67 39 85q18 -36 18 -77q0 -11 -3.5 -44t-3.5 -49q0 -33 20 -76
q1 -2 38 -70z" />
    <glyph glyph-name="paragraph" unicode="&#xb6;" horiz-adv-x="534" 
d="M493 583l-19 -13q4 -16 6 -44t2 -48q0 -27 -2 -90.5t-2 -67.5q0 -29 3.5 -87.5t3.5 -79.5q0 -83 -15 -167q-17 3 -24 10q-10 10 -10 33q0 12 3 38t3 39l-1 154q-78 -85 -80 -143.5t-21 -122.5q-42 36 -42 92q0 4 5 41q2 15 2 28q0 15 -3.5 24.5t-13.5 15.5
q-75 38 -149 76q-88 59 -88 150q0 97 117 174q102 67 193 67q45 0 78 -18t54 -61zM436 593q-25 11 -49 22q-2 -15 -3.5 -25.5t-1.5 -12.5q0 -14 2 -24.5t3 -16.5q16 13 27 26q8 9 22 31zM441 276q0 30 -3 91t-3 91v37t4 50q-50 -39 -63.5 -81.5t-13.5 -150.5q0 -40 7 -72
q23 21 28 24q17 12 33 12zM337 530q0 28 -1.5 46.5t-5.5 39.5q-79 -17 -145 -60q-90 -58 -90 -131q0 -57 69 -116q65 -56 116 -56q31 0 39 24t13 109.5t5 143.5z" />
    <glyph glyph-name="periodcentered" unicode="&#xb7;" horiz-adv-x="240" 
d="M189 318q0 -31 -23 -50t-55 -19q-22 0 -32.5 14t-10.5 37q0 70 70 70q23 0 37 -14t14 -38z" />
    <glyph glyph-name="periodcentered" unicode="&#x2219;" horiz-adv-x="240" 
d="M189 318q0 -31 -23 -50t-55 -19q-22 0 -32.5 14t-10.5 37q0 70 70 70q23 0 37 -14t14 -38z" />
    <glyph glyph-name="cedilla" unicode="&#xb8;" horiz-adv-x="276" 
d="M196 -61q0 -27 -30 -59q-34 -36 -86 -51q-9 6 -9 18q0 15 31 43t31 42q0 6 -8.5 19.5t-8.5 19.5q0 12 27 19l12 -4q28 -9 36 -22q5 -7 5 -25z" />
    <glyph glyph-name="onesuperior" unicode="&#xb9;" horiz-adv-x="128" 
d="M71 368q0 -31 -29 -38q-17 77 -17 166q0 9 -5 26t-5 26t5.5 13.5t15.5 8.5q23 -61 23 -126q0 -6 1 -13q0 -1 2 -12t5.5 -28t3.5 -23z" />
    <glyph glyph-name="ordmasculine" unicode="&#xba;" horiz-adv-x="210" 
d="M187 601q0 -40 -35 -85.5t-74 -45.5q-27 0 -44.5 20.5t-17.5 47.5q0 43 37.5 89.5t79.5 46.5q28 0 41 -21.5t13 -51.5zM169 609q0 44 -40 44q-36 0 -60.5 -35t-24.5 -73q0 -20 7.5 -34.5t25.5 -14.5q35 0 63.5 38t28.5 75z" />
    <glyph glyph-name="guillemotright" unicode="&#xbb;" horiz-adv-x="872" 
d="M870 361q-53 -37 -126 -71q-59 -28 -118 -55q-69 -36 -135 -91q-11 -9 -23.5 -15.5t-32 -12.5t-43.5 -10t-61 -8q0 37 29 61q7 5 57 27l62 26q40 17 79 40q119 70 129 75q-13 6 -186 23q-128 13 -147 79q52 0 155 -17t154 -17q18 0 58.5 2t43.5 2q39 0 64 -6.5t41 -31.5z
M555 292q-53 -37 -126 -71q-59 -28 -118 -55q-69 -36 -135 -91q-11 -9 -23.5 -15.5t-32 -12.5t-43.5 -10t-61 -8q0 37 29 61q7 5 57 27l62 26q40 17 79 40q119 70 129 75q-13 6 -186 23q-128 13 -147 79q52 0 155 -17t154 -17q18 0 58.5 2t43.5 2q39 0 64 -6.5t41 -31.5z
" />
    <glyph glyph-name="onequarter" unicode="&#xbc;" horiz-adv-x="540" 
d="M470 148q-41 0 -54.5 -14.5t-13.5 -44.5q0 -14 1.5 -38t1.5 -25q0 -19 -4 -31.5t-17 -18.5q-4 10 -6.5 25.5t-2.5 28.5v20t1 20q0 22 -4 38q-8 -3 -41.5 -18t-45.5 -15q-19 0 -19 24q0 20 12 56.5t14 49.5q1 10 0 24t-2 27l2 16q20 -25 20 -64q0 -15 -2.5 -41t-2.5 -31
l1 -22q20 4 37.5 12.5t30.5 20.5q3 21 3 40q0 10 -0.5 20t-0.5 21q0 16 4 19q2 1 19 4q5 -43 11 -86l22 2l24 -2l6 -7h6v-10zM115 373q0 -31 -29 -38q-17 77 -17 166q0 9 -5 26t-5 26t5.5 13.5t15.5 8.5q23 -61 23 -126q0 -6 1 -13q0 -1 2 -12t5.5 -28t3.5 -23zM422 563
q-12 -56 -82 -152q-40 -54 -142 -174q-94 -110 -121 -148q-18 -24 -39 -69q-46 -97 -48 -99q-11 -14 -25.5 -19.5t-31.5 -5.5q13 60 51 123q13 22 46 66q128 168 257 337q31 44 63 88q18 22 34 34q20 16 38 19z" />
    <glyph glyph-name="onehalf" unicode="&#xbd;" horiz-adv-x="549" 
d="M494 64q-11 -15 -22.5 -19.5t-29.5 -4.5q-22 1 -34 1q-17 0 -38 -14q-49 -32 -75 -32q-17 0 -29 12t-12 30q0 20 20.5 31t41.5 11q7 0 21 -2t20 -2q20 0 28 21t8 44q0 29 -22 59q-25 34 -52 34q-15 0 -20 -13q-18 4 -22 8q-5 5 -7 23q14 6 28 6q6 -1 9 -1
q45 0 79.5 -31.5t34.5 -76.5q0 -19 -4.5 -39.5t-8.5 -40.5q9 -2 26.5 -3t27.5 -1h32zM340 46l-25 4q-6 0 -15.5 -5.5t-17.5 -9.5q13 -9 28 -9q8 0 15 5.5t15 14.5zM128 378q0 -31 -29 -38q-17 77 -17 166q0 9 -5 26t-5 26t5.5 13.5t15.5 8.5q23 -61 23 -126q0 -6 1 -13
q0 -1 2 -12t5.5 -28t3.5 -23zM413 563q-12 -56 -82 -152q-40 -54 -142 -174q-94 -110 -121 -148q-18 -24 -39 -69q-46 -97 -48 -99q-11 -14 -25.5 -19.5t-31.5 -5.5q13 60 51 123q13 22 46 66q128 168 257 337q31 44 63 88q18 22 34 34q20 16 38 19z" />
    <glyph glyph-name="threequarters" unicode="&#xbe;" horiz-adv-x="591" 
d="M248 615q0 -17 -31 -48q-22 -22 -47 -41q22 -11 35 -24q17 -18 17 -40q0 -34 -47 -65t-83 -31q-19 0 -33 11.5t-14 30.5q0 10 3.5 17t11.5 16q0 -18 2 -25q7 -24 31 -24t64.5 28t40.5 50q0 15 -28 24.5t-75 9.5q6 20 39 39q74 43 82 64q-19 4 -43 4q-72 -11 -143 -22
l-10 1q12 28 54 37.5t86 9.5h22q30 0 48 -4t18 -18zM528 149q-41 0 -54.5 -14.5t-13.5 -44.5q0 -14 1.5 -38t1.5 -25q0 -19 -4 -31.5t-17 -18.5q-4 10 -6.5 25.5t-2.5 28.5v20t1 20q0 22 -4 38q-8 -3 -41.5 -18t-45.5 -15q-19 0 -19 24q0 20 12 56.5t14 49.5q1 10 0 24
t-2 27l2 16q20 -25 20 -64q0 -15 -2.5 -41t-2.5 -31l1 -22q20 4 37.5 12.5t30.5 20.5q3 21 3 40q0 10 -0.5 20t-0.5 21q0 16 4 19q2 1 19 4q5 -43 11 -86l22 2l24 -2l6 -7h6v-10zM477 563q-12 -56 -82 -152q-40 -54 -142 -174q-94 -110 -121 -148q-18 -24 -39 -69
q-46 -97 -48 -99q-11 -14 -25.5 -19.5t-31.5 -5.5q13 60 51 123q13 22 46 66q128 168 257 337q31 44 63 88q18 22 34 34q20 16 38 19z" />
    <glyph glyph-name="questiondown" unicode="&#xbf;" 
d="M311 849q0 -36 -26.5 -67.5t-63.5 -31.5q-36 0 -58.5 33t-22.5 72q0 38 24 61t63 23q38 0 61 -26t23 -64zM360 505q0 -52 -66 -131q-67 -72 -134 -143q-82 -88 -104 -142q50 -25 111 -25q28 0 102 9q41 5 63 5q-17 -40 -74 -60q-45 -16 -99 -16q-59 0 -98 18
q-52 24 -52 76q0 70 76 152q70 66 141 133q77 75 77 124q0 27 -34 58q-20 18 -110 74l27 1q64 0 116 -34q58 -38 58 -99zM270 844q0 21 -10.5 36t-30.5 15q-21 0 -38 -14.5t-17 -34.5q0 -22 16 -35t38 -13q42 0 42 46z" />
    <glyph glyph-name="Agrave" unicode="&#xc0;" horiz-adv-x="504" 
d="M504 -10q-45 24 -93 121q-39 79 -157 100l-20 -9q-5 -7 -41 -105q-22 -59 -79 -76q-3 14 -4 19q-1 7 -1 21q0 27 9 55q2 7 13 31q31 68 54 136q19 55 36 122q11 41 34 144q4 16 8 26.5t13 30.5q13 29 32 60q60 96 62 101q8 -10 10 -12q5 -4 13 -1q13 -54 17.5 -100
t4.5 -103q0 -58 -1 -97t-2 -73q0 -55 22.5 -132t46 -151.5t23.5 -107.5zM363 334q0 65 -4.5 130t-15.5 117q-1 -5 -39 -131q-26 -87 -26 -130q0 -28 25 -42q15 -8 51 -16q5 16 7 34.5t2 37.5zM404 850q-13 -6 -25 -9.5t-25 -3.5q-27 0 -79 48t-52 65q0 8 7 19q4 7 13 18
q72 -36 95 -53q48 -35 66 -84z" />
    <glyph glyph-name="Aacute" unicode="&#xc1;" horiz-adv-x="504" 
d="M504 -10q-45 24 -93 121q-39 79 -157 100l-20 -9q-5 -7 -41 -105q-22 -59 -79 -76q-3 14 -4 19q-1 7 -1 21q0 27 9 55q2 7 13 31q31 68 54 136q19 55 36 122q11 41 34 144q4 16 8 26.5t13 30.5q13 29 32 60q60 96 62 101q8 -10 10 -12q5 -4 13 -1q13 -54 17.5 -100
t4.5 -103q0 -58 -1 -97t-2 -73q0 -55 22.5 -132t46 -151.5t23.5 -107.5zM363 334q0 65 -4.5 130t-15.5 117q-1 -5 -39 -131q-26 -87 -26 -130q0 -28 25 -42q15 -8 51 -16q5 16 7 34.5t2 37.5zM575 1074q-3 -34 -13.5 -64.5t-29.5 -62.5q-27 -46 -59 -73q-41 -34 -87 -34
q3 31 18 56q8 15 24 32q24 25 27 30q23 37 47 74q32 42 73 42z" />
    <glyph glyph-name="Acircumflex" unicode="&#xc2;" horiz-adv-x="504" 
d="M504 -10q-45 24 -93 121q-39 79 -157 100l-20 -9q-5 -7 -41 -105q-22 -59 -79 -76q-3 14 -4 19q-1 7 -1 21q0 27 9 55q2 7 13 31q31 68 54 136q19 55 36 122q11 41 34 144q4 16 8 26.5t13 30.5q13 29 32 60q60 96 62 101q8 -10 10 -12q5 -4 13 -1q13 -54 17.5 -100
t4.5 -103q0 -58 -1 -97t-2 -73q0 -55 22.5 -132t46 -151.5t23.5 -107.5zM363 334q0 65 -4.5 130t-15.5 117q-1 -5 -39 -131q-26 -87 -26 -130q0 -28 25 -42q15 -8 51 -16q5 16 7 34.5t2 37.5zM545 766q-18 -7 -32 -7q-55 0 -104 76q-28 49 -38 65q-42 -90 -46 -98
q-37 -63 -80 -73q0 30 16 63q47 98 48 101q8 39 16 79q6 22 14 33q12 18 34 21q67 -156 81 -176q34 -51 91 -84z" />
    <glyph glyph-name="Atilde" unicode="&#xc3;" horiz-adv-x="504" 
d="M504 -10q-45 24 -93 121q-39 79 -157 100l-20 -9q-5 -7 -41 -105q-22 -59 -79 -76q-3 14 -4 19q-1 7 -1 21q0 27 9 55q2 7 13 31q31 68 54 136q19 55 36 122q11 41 34 144q4 16 8 26.5t13 30.5q13 29 32 60q60 96 62 101q8 -10 10 -12q5 -4 13 -1q13 -54 17.5 -100
t4.5 -103q0 -58 -1 -97t-2 -73q0 -55 22.5 -132t46 -151.5t23.5 -107.5zM363 334q0 65 -4.5 130t-15.5 117q-1 -5 -39 -131q-26 -87 -26 -130q0 -28 25 -42q15 -8 51 -16q5 16 7 34.5t2 37.5zM492 850q-11 -11 -25 -18.5t-30 -7.5q-20 0 -35 10t-30 27l-73 -49v8
q-2 14 18 33q36 34 69 34q10 0 17 -12q16 -27 42 -27z" />
    <glyph glyph-name="Adieresis" unicode="&#xc4;" horiz-adv-x="504" 
d="M504 -10q-45 24 -93 121q-39 79 -157 100l-20 -9q-5 -7 -41 -105q-22 -59 -79 -76q-3 14 -4 19q-1 7 -1 21q0 27 9 55q2 7 13 31q31 68 54 136q19 55 36 122q11 41 34 144q4 16 8 26.5t13 30.5q13 29 32 60q60 96 62 101q8 -10 10 -12q5 -4 13 -1q13 -54 17.5 -100
t4.5 -103q0 -58 -1 -97t-2 -73q0 -55 22.5 -132t46 -151.5t23.5 -107.5zM363 334q0 65 -4.5 130t-15.5 117q-1 -5 -39 -131q-26 -87 -26 -130q0 -28 25 -42q15 -8 51 -16q5 16 7 34.5t2 37.5zM545 874q0 -31 -23 -50t-55 -19q-22 0 -32.5 14t-10.5 37q0 70 70 70
q23 0 37 -14t14 -38zM357 878q0 -31 -23 -50t-55 -19q-22 0 -32.5 14t-10.5 37q0 70 70 70q23 0 37 -14t14 -38z" />
    <glyph glyph-name="Aring" unicode="&#xc5;" horiz-adv-x="504" 
d="M504 -10q-45 24 -93 121q-39 79 -157 100l-20 -9q-5 -7 -41 -105q-22 -59 -79 -76q-3 14 -4 19q-1 7 -1 21q0 27 9 55q2 7 13 31q31 68 54 136q19 55 36 122q11 41 34 144q4 16 8 26.5t13 30.5q13 29 32 60q60 96 62 101q8 -10 10 -12q5 -4 13 -1q13 -54 17.5 -100
t4.5 -103q0 -58 -1 -97t-2 -73q0 -55 22.5 -132t46 -151.5t23.5 -107.5zM363 334q0 65 -4.5 130t-15.5 117q-1 -5 -39 -131q-26 -87 -26 -130q0 -28 25 -42q15 -8 51 -16q5 16 7 34.5t2 37.5zM509 937q0 -38 -32 -80t-69 -42q-25 0 -41 19t-16 44q0 41 34 83.5t74 42.5
q26 0 38 -20t12 -47zM493 944q0 40 -37 40q-33 0 -56 -32.5t-23 -67.5q0 -17 7 -31t24 -14q32 0 58.5 35.5t26.5 69.5z" />
    <glyph glyph-name="AE" unicode="&#xc6;" horiz-adv-x="750" 
d="M762 381q-160 -45 -197 -60q-120 -50 -152 -127l16 -117q51 10 112 28.5t118 36.5q16 -14 23 -22q13 -14 13 -28q0 -22 -15 -25l-246 -51l-3 -26q-11 5 -16 9q-2 1 -13 11l-53 -11l-13 111l5 23q-15 18 -42 31t-76 21l-22 -8q-8 -8 -61 -92q-33 -53 -93 -67l3 35
q4 19 14 39q6 12 24 37q42 58 79 120q32 53 59 108q10 20 61 128q7 14 14 25l18 24q19 27 43 53q80 87 81 88l6 -9q6 -4 15 -1l1 -33q50 23 120.5 42t141.5 38l23 -23q-25 -40 -107 -67q-101 -34 -129 -54q-62 -46 -62 -141q0 -29 2 -48t10 -44q67 24 135 49q111 39 123 39
l25 -8q10 -14 15 -34zM381 512q-4 -8 -63 -116q-43 -78 -51 -115q-5 -24 18 -37q14 -8 47 -14q8 13 13 29t10 35q11 51 18.5 111t7.5 107z" />
    <glyph glyph-name="Ccedilla" unicode="&#xc7;" horiz-adv-x="538" 
d="M504 56q-12 -32 -38 -45t-63 -13q-152 0 -206 28q-84 43 -84 180q0 118 71 248t170 196q24 16 34 22q23 13 39 13q3 0 11.5 -3.5t10.5 -3.5q20 -22 30.5 -53t10.5 -64q0 -73 -55 -117q-7 19 -16 75t-29 84q-93 -59 -161.5 -180.5t-68.5 -230.5q0 -77 43 -107
q34 -24 103 -24q21 0 64 3t64 3q27 0 40 -1.5t30 -9.5zM382 -61q0 -27 -30 -59q-34 -36 -86 -51q-9 6 -9 18q0 15 31 43t31 42q0 6 -8.5 19.5t-8.5 19.5q0 12 27 19l12 -4q28 -9 36 -22q5 -7 5 -25z" />
    <glyph glyph-name="Egrave" unicode="&#xc8;" horiz-adv-x="584" 
d="M573 387q-182 -51 -229 -74q-133 -66 -133 -178q0 -29 6 -56q53 9 121.5 29.5t131.5 39.5q16 -14 23 -22q13 -14 13 -28q0 -17 -15 -25l-337 -68q-22 0 -38 5.5t-25 22.5q38 22 41 24q13 7 28 11q-4 9 -8.5 24.5t-4.5 23.5q0 24 12 72t12 74l-11 10q25 53 41.5 102.5
t16.5 110.5l-1 39q-32 -13 -63 -25q-22 8 -40 25q108 67 205 112q109 51 219 82l23 -23q-25 -40 -107 -67q-101 -34 -129 -54q-62 -46 -62 -141q0 -29 2 -48t10 -44q67 24 135 49q111 39 123 39q18 0 26.5 -11t13.5 -31zM405 749q-13 -6 -25 -9.5t-25 -3.5q-27 0 -79 48
t-52 65q0 8 7 19q4 7 13 18q72 -36 95 -53q48 -35 66 -84z" />
    <glyph glyph-name="Eacute" unicode="&#xc9;" horiz-adv-x="584" 
d="M573 387q-182 -51 -229 -74q-133 -66 -133 -178q0 -29 6 -56q53 9 121.5 29.5t131.5 39.5q16 -14 23 -22q13 -14 13 -28q0 -17 -15 -25l-337 -68q-22 0 -38 5.5t-25 22.5q38 22 41 24q13 7 28 11q-4 9 -8.5 24.5t-4.5 23.5q0 24 12 72t12 74l-11 10q25 53 41.5 102.5
t16.5 110.5l-1 39q-32 -13 -63 -25q-22 8 -40 25q108 67 205 112q109 51 219 82l23 -23q-25 -40 -107 -67q-101 -34 -129 -54q-62 -46 -62 -141q0 -29 2 -48t10 -44q67 24 135 49q111 39 123 39q18 0 26.5 -11t13.5 -31zM489 955q-3 -34 -13.5 -64.5t-29.5 -62.5
q-27 -46 -59 -73q-41 -34 -87 -34q3 31 18 56q8 15 24 32q24 25 27 30q23 37 47 74q32 42 73 42z" />
    <glyph glyph-name="Ecircumflex" unicode="&#xca;" horiz-adv-x="584" 
d="M573 387q-182 -51 -229 -74q-133 -66 -133 -178q0 -29 6 -56q53 9 121.5 29.5t131.5 39.5q16 -14 23 -22q13 -14 13 -28q0 -17 -15 -25l-337 -68q-22 0 -38 5.5t-25 22.5q38 22 41 24q13 7 28 11q-4 9 -8.5 24.5t-4.5 23.5q0 24 12 72t12 74l-11 10q25 53 41.5 102.5
t16.5 110.5l-1 39q-32 -13 -63 -25q-22 8 -40 25q108 67 205 112q109 51 219 82l23 -23q-25 -40 -107 -67q-101 -34 -129 -54q-62 -46 -62 -141q0 -29 2 -48t10 -44q67 24 135 49q111 39 123 39q18 0 26.5 -11t13.5 -31zM528 747q-18 -7 -32 -7q-55 0 -104 76q-28 49 -38 65
q-42 -90 -46 -98q-37 -63 -80 -73q0 30 16 63q47 98 48 101q8 39 16 79q6 22 14 33q12 18 34 21q67 -156 81 -176q34 -51 91 -84z" />
    <glyph glyph-name="Edieresis" unicode="&#xcb;" horiz-adv-x="584" 
d="M573 387q-182 -51 -229 -74q-133 -66 -133 -178q0 -29 6 -56q53 9 121.5 29.5t131.5 39.5q16 -14 23 -22q13 -14 13 -28q0 -17 -15 -25l-337 -68q-22 0 -38 5.5t-25 22.5q38 22 41 24q13 7 28 11q-4 9 -8.5 24.5t-4.5 23.5q0 24 12 72t12 74l-11 10q25 53 41.5 102.5
t16.5 110.5l-1 39q-32 -13 -63 -25q-22 8 -40 25q108 67 205 112q109 51 219 82l23 -23q-25 -40 -107 -67q-101 -34 -129 -54q-62 -46 -62 -141q0 -29 2 -48t10 -44q67 24 135 49q111 39 123 39q18 0 26.5 -11t13.5 -31zM451 797q0 -31 -23 -50t-55 -19q-22 0 -32.5 14
t-10.5 37q0 70 70 70q23 0 37 -14t14 -38zM263 801q0 -31 -23 -50t-55 -19q-22 0 -32.5 14t-10.5 37q0 70 70 70q23 0 37 -14t14 -38z" />
    <glyph glyph-name="Igrave" unicode="&#xcc;" horiz-adv-x="676" 
d="M676 604q-19 -10 -56.5 -19.5t-54.5 -13.5q-53 -13 -84 -38q-38 -29 -46 -77l-80 -366q23 5 135 49t118 43q12 -8 23 -26q7 -11 11 -20q-29 -12 -157 -58q-174 -62 -242 -86q-128 -44 -138 -44q-13 0 -25 4.5t-24 14.5q38 55 104 55q69 0 124 96q44 76 72 202
q24 106 24 177l-3 16q-83 -18 -165 -36l-19 1q14 31 115 70q79 31 197 63q74 19 148 39zM466 672q-13 -6 -25 -9.5t-25 -3.5q-27 0 -79 48t-52 65q0 8 7 19q4 7 13 18q72 -36 95 -53q48 -35 66 -84z" />
    <glyph glyph-name="Iacute" unicode="&#xcd;" horiz-adv-x="676" 
d="M676 604q-19 -10 -56.5 -19.5t-54.5 -13.5q-53 -13 -84 -38q-38 -29 -46 -77l-80 -366q23 5 135 49t118 43q12 -8 23 -26q7 -11 11 -20q-29 -12 -157 -58q-174 -62 -242 -86q-128 -44 -138 -44q-13 0 -25 4.5t-24 14.5q38 55 104 55q69 0 124 96q44 76 72 202
q24 106 24 177l-3 16q-83 -18 -165 -36l-19 1q14 31 115 70q79 31 197 63q74 19 148 39zM554 886q-3 -34 -13.5 -64.5t-29.5 -62.5q-27 -46 -59 -73q-41 -34 -87 -34q3 31 18 56q8 15 24 32q24 25 27 30q23 37 47 74q32 42 73 42z" />
    <glyph glyph-name="Icircumflex" unicode="&#xce;" horiz-adv-x="676" 
d="M676 604q-19 -10 -56.5 -19.5t-54.5 -13.5q-53 -13 -84 -38q-38 -29 -46 -77l-80 -366q23 5 135 49t118 43q12 -8 23 -26q7 -11 11 -20q-29 -12 -157 -58q-174 -62 -242 -86q-128 -44 -138 -44q-13 0 -25 4.5t-24 14.5q38 55 104 55q69 0 124 96q44 76 72 202
q24 106 24 177l-3 16q-83 -18 -165 -36l-19 1q14 31 115 70q79 31 197 63q74 19 148 39zM578 688q-18 -7 -32 -7q-55 0 -104 76q-28 49 -38 65q-42 -90 -46 -98q-37 -63 -80 -73q0 30 16 63q47 98 48 101q8 39 16 79q6 22 14 33q12 18 34 21q67 -156 81 -176q34 -51 91 -84z
" />
    <glyph glyph-name="Idieresis" unicode="&#xcf;" horiz-adv-x="676" 
d="M676 604q-19 -10 -56.5 -19.5t-54.5 -13.5q-53 -13 -84 -38q-38 -29 -46 -77l-80 -366q23 5 135 49t118 43q12 -8 23 -26q7 -11 11 -20q-29 -12 -157 -58q-174 -62 -242 -86q-128 -44 -138 -44q-13 0 -25 4.5t-24 14.5q38 55 104 55q69 0 124 96q44 76 72 202
q24 106 24 177l-3 16q-83 -18 -165 -36l-19 1q14 31 115 70q79 31 197 63q74 19 148 39zM563 741q0 -31 -23 -50t-55 -19q-22 0 -32.5 14t-10.5 37q0 70 70 70q23 0 37 -14t14 -38zM375 745q0 -31 -23 -50t-55 -19q-22 0 -32.5 14t-10.5 37q0 70 70 70q23 0 37 -14t14 -38z
" />
    <glyph glyph-name="Eth" unicode="&#xd0;" horiz-adv-x="642" 
d="M634 402q0 -149 -131 -265q-115 -102 -274 -137q-3 8 -5.5 21t-2.5 21l8 19q31 21 154 80q95 46 137 91q60 65 60 165q0 66 -90 159q-95 98 -176 98q-24 0 -36.5 -40t-12.5 -112l1 -70q17 3 30.5 5t28.5 2q31 0 51.5 -11t31.5 -37q-32 -13 -64.5 -17.5t-74.5 -4.5
q0 -17 2 -60.5t2 -56.5q0 -55 -10 -105l-18 1h-28q-4 21 -6 47.5t-2 48.5q0 37 1.5 53t7.5 68l-26 -4q-20 -3 -35 -5t-25 -2q-46 0 -60.5 10t-19.5 50q16 4 37.5 6t43.5 2q14 0 28.5 -0.5t29.5 -0.5l33 4l2 62q0 64 -3.5 104t-15.5 91q-17 -3 -26.5 -5.5t-23.5 -8.5
q-7 -18 -7 -42q-32 18 -47 32q-21 19 -33 48l184 68q26 -42 83 -67q71 -31 89 -47q27 -25 42 -37t27 -20h11q44 -45 89 -89q39 -48 39 -112z" />
    <glyph glyph-name="Ntilde" unicode="&#xd1;" horiz-adv-x="642" 
d="M642 570q-33 11 -53.5 17t-24.5 6q-47 0 -67 -94q-14 -67 -14 -177v-51t1 -41q0 -72 -9 -116q-14 -67 -51 -104q-44 55 -82 133q-27 56 -62 152q-26 74 -52 149q-2 -10 -18 -141.5t-34 -193.5q-28 -94 -74 -109q-3 11 -4 22.5t-1 27.5q0 31 10.5 79t15.5 71
q11 191 33 294t72 121q23 -55 55 -145q50 -141 52 -147q31 -79 65 -142q11 79 23 158q19 126 45 196q36 97 91 97q26 0 49 -20q17 -14 34 -42zM499 734q-11 -11 -25 -18.5t-30 -7.5q-20 0 -35 10t-30 27l-73 -49v8q-2 14 18 33q36 34 69 34q10 0 17 -12q16 -27 42 -27z" />
    <glyph glyph-name="Ograve" unicode="&#xd2;" horiz-adv-x="538" 
d="M517 363q0 -108 -90 -232q-97 -133 -200 -133q-65 0 -102 65q-31 54 -31 124q0 119 83 253q93 150 206 150q63 0 102 -85q32 -70 32 -142zM469 382q0 52 -23 102q-29 62 -75 62q-88 0 -158 -143q-60 -123 -60 -224q0 -46 14 -77q20 -44 61 -44q82 0 164 122
q77 114 77 202zM416 661q-13 -6 -25 -9.5t-25 -3.5q-27 0 -79 48t-52 65q0 8 7 19q4 7 13 18q72 -36 95 -53q48 -35 66 -84z" />
    <glyph glyph-name="Oacute" unicode="&#xd3;" horiz-adv-x="538" 
d="M517 363q0 -108 -90 -232q-97 -133 -200 -133q-65 0 -102 65q-31 54 -31 124q0 119 83 253q93 150 206 150q63 0 102 -85q32 -70 32 -142zM469 382q0 52 -23 102q-29 62 -75 62q-88 0 -158 -143q-60 -123 -60 -224q0 -46 14 -77q20 -44 61 -44q82 0 164 122
q77 114 77 202zM540 884q-3 -34 -13.5 -64.5t-29.5 -62.5q-27 -46 -59 -73q-41 -34 -87 -34q3 31 18 56q8 15 24 32q24 25 27 30q23 37 47 74q32 42 73 42z" />
    <glyph glyph-name="Ocircumflex" unicode="&#xd4;" horiz-adv-x="538" 
d="M517 363q0 -108 -90 -232q-97 -133 -200 -133q-65 0 -102 65q-31 54 -31 124q0 119 83 253q93 150 206 150q63 0 102 -85q32 -70 32 -142zM469 382q0 52 -23 102q-29 62 -75 62q-88 0 -158 -143q-60 -123 -60 -224q0 -46 14 -77q20 -44 61 -44q82 0 164 122
q77 114 77 202zM539 638q-18 -7 -32 -7q-55 0 -104 76q-28 49 -38 65q-42 -90 -46 -98q-37 -63 -80 -73q0 30 16 63q47 98 48 101q8 39 16 79q6 22 14 33q12 18 34 21q67 -156 81 -176q34 -51 91 -84z" />
    <glyph glyph-name="Otilde" unicode="&#xd5;" horiz-adv-x="538" 
d="M517 363q0 -108 -90 -232q-97 -133 -200 -133q-65 0 -102 65q-31 54 -31 124q0 119 83 253q93 150 206 150q63 0 102 -85q32 -70 32 -142zM469 382q0 52 -23 102q-29 62 -75 62q-88 0 -158 -143q-60 -123 -60 -224q0 -46 14 -77q20 -44 61 -44q82 0 164 122
q77 114 77 202zM488 675q-11 -11 -25 -18.5t-30 -7.5q-20 0 -35 10t-30 27l-73 -49v8q-2 14 18 33q36 34 69 34q10 0 17 -12q16 -27 42 -27z" />
    <glyph glyph-name="Odieresis" unicode="&#xd6;" horiz-adv-x="538" 
d="M517 363q0 -108 -90 -232q-97 -133 -200 -133q-65 0 -102 65q-31 54 -31 124q0 119 83 253q93 150 206 150q63 0 102 -85q32 -70 32 -142zM469 382q0 52 -23 102q-29 62 -75 62q-88 0 -158 -143q-60 -123 -60 -224q0 -46 14 -77q20 -44 61 -44q82 0 164 122
q77 114 77 202zM548 718q0 -31 -23 -50t-55 -19q-22 0 -32.5 14t-10.5 37q0 70 70 70q23 0 37 -14t14 -38zM360 722q0 -31 -23 -50t-55 -19q-22 0 -32.5 14t-10.5 37q0 70 70 70q23 0 37 -14t14 -38z" />
    <glyph glyph-name="multiply" unicode="&#xd7;" 
d="M374 240l-6 -7l-16 -15l-110 49q-17 8 -48 -23q-19 -20 -26 -27q-25 -25 -38 -25q-8 0 -21 13q39 38 67 84q-54 9 -55 9q-30 7 -45 22q-10 10 -14 22q17 5 29 5q15 0 33 -6l50 -20q8 -2 11 -2q22 0 61 30q54 42 64 47q-4 -20 -19 -43q-10 -15 -32 -42q69 -34 73 -36
q19 -11 38 -30z" />
    <glyph glyph-name="Oslash" unicode="&#xd8;" horiz-adv-x="538" 
d="M565 617q-6 -29 -23.5 -61.5t-47.5 -74.5q10 -27 16.5 -61t6.5 -57q0 -108 -90 -232q-97 -133 -200 -133q-41 0 -69 25q-7 -15 -12.5 -27t-12.5 -21q-11 -14 -25.5 -19.5t-31.5 -5.5q5 25 12 44q11 29 35 72q-14 26 -21.5 58t-7.5 63q0 119 83 253q93 150 206 150
q27 0 47.5 -14t38.5 -42l24 30q18 22 34 34q20 16 38 19zM441 492q-13 26 -30 40t-40 14q-88 0 -158 -143q-60 -123 -60 -224q0 -30 7 -57l13 17q128 168 257 337zM469 382q0 27 -7 55q-29 -37 -88 -107q-47 -55 -87 -103q-47 -56 -67 -84q-11 -15 -24 -39q-4 -7 -13 -27
q19 -19 45 -19q82 0 164 122q77 114 77 202z" />
    <glyph glyph-name="Ugrave" unicode="&#xd9;" horiz-adv-x="607" 
d="M607 33l-58 -33q-19 35 -38 63q-28 41 -42 61q-16 -11 -63 -54q-72 -66 -121 -66q-86 0 -133 113q-35 85 -35 187q0 89 9 152q16 115 59 115q15 0 21.5 -13t6.5 -30q0 -25 -15 -72t-15 -69q0 -162 23 -228q27 -78 84 -78q101 0 131 116q13 112 27.5 233t79.5 140
q5 -11 9.5 -23.5t4.5 -18.5q0 -15 -26 -163q-14 -80 -14 -123q0 -49 41 -109q57 -83 64 -100zM417 638q-13 -6 -25 -9.5t-25 -3.5q-27 0 -79 48t-52 65q0 8 7 19q4 7 13 18q72 -36 95 -53q48 -35 66 -84z" />
    <glyph glyph-name="Uacute" unicode="&#xda;" horiz-adv-x="607" 
d="M607 33l-58 -33q-19 35 -38 63q-28 41 -42 61q-16 -11 -63 -54q-72 -66 -121 -66q-86 0 -133 113q-35 85 -35 187q0 89 9 152q16 115 59 115q15 0 21.5 -13t6.5 -30q0 -25 -15 -72t-15 -69q0 -162 23 -228q27 -78 84 -78q101 0 131 116q13 112 27.5 233t79.5 140
q5 -11 9.5 -23.5t4.5 -18.5q0 -15 -26 -163q-14 -80 -14 -123q0 -49 41 -109q57 -83 64 -100zM503 873q-3 -34 -13.5 -64.5t-29.5 -62.5q-27 -46 -59 -73q-41 -34 -87 -34q3 31 18 56q8 15 24 32q24 25 27 30q23 37 47 74q32 42 73 42z" />
    <glyph glyph-name="Ucircumflex" unicode="&#xdb;" horiz-adv-x="607" 
d="M607 33l-58 -33q-19 35 -38 63q-28 41 -42 61q-16 -11 -63 -54q-72 -66 -121 -66q-86 0 -133 113q-35 85 -35 187q0 89 9 152q16 115 59 115q15 0 21.5 -13t6.5 -30q0 -25 -15 -72t-15 -69q0 -162 23 -228q27 -78 84 -78q101 0 131 116q13 112 27.5 233t79.5 140
q5 -11 9.5 -23.5t4.5 -18.5q0 -15 -26 -163q-14 -80 -14 -123q0 -49 41 -109q57 -83 64 -100zM509 649q-18 -7 -32 -7q-55 0 -104 76q-28 49 -38 65q-42 -90 -46 -98q-37 -63 -80 -73q0 30 16 63q47 98 48 101q8 39 16 79q6 22 14 33q12 18 34 21q67 -156 81 -176
q34 -51 91 -84z" />
    <glyph glyph-name="Udieresis" unicode="&#xdc;" horiz-adv-x="607" 
d="M607 33l-58 -33q-19 35 -38 63q-28 41 -42 61q-16 -11 -63 -54q-72 -66 -121 -66q-86 0 -133 113q-35 85 -35 187q0 89 9 152q16 115 59 115q15 0 21.5 -13t6.5 -30q0 -25 -15 -72t-15 -69q0 -162 23 -228q27 -78 84 -78q101 0 131 116q13 112 27.5 233t79.5 140
q5 -11 9.5 -23.5t4.5 -18.5q0 -15 -26 -163q-14 -80 -14 -123q0 -49 41 -109q57 -83 64 -100zM511 681q0 -31 -23 -50t-55 -19q-22 0 -32.5 14t-10.5 37q0 70 70 70q23 0 37 -14t14 -38zM323 685q0 -31 -23 -50t-55 -19q-22 0 -32.5 14t-10.5 37q0 70 70 70q23 0 37 -14
t14 -38z" />
    <glyph glyph-name="Yacute" unicode="&#xdd;" horiz-adv-x="493" 
d="M493 764q-32 -109 -98 -202q-82 -114 -98 -152q-44 -102 -44 -274q0 -49 -10 -77q-14 -40 -49 -59q-5 17 -7 37t-2 40q0 31 2 56q7 88 7 94q0 27 -13.5 75t-13.5 70q0 19 9.5 54t9.5 51q0 40 -31.5 120.5t-31.5 118.5l2 14q46 -25 91 -143q18 -49 36 -97q70 116 104 162
q83 112 137 112zM460 1000q-3 -34 -13.5 -64.5t-29.5 -62.5q-27 -46 -59 -73q-41 -34 -87 -34q3 31 18 56q8 15 24 32q24 25 27 30q23 37 47 74q32 42 73 42z" />
    <glyph glyph-name="Thorn" unicode="&#xde;" horiz-adv-x="619" 
d="M609 420q0 -92 -107 -181q-10 -8 -177 -119q-16 -11 -23 -59t-39 -71q-21 59 -23.5 84t-114.5 127l30 2q15 0 28 -6t45 -31q4 15 6 34.5t2 38.5q0 128 -24 169t-133 102q21 37 54.5 56t78.5 23q2 4 4.5 18t2.5 33q0 18 -3.5 55t-3.5 51q29 -7 33 -9q22 -8 29 -27
q0 -19 -3.5 -50t-3.5 -46q0 -6 1 -14t1 -12q100 -11 144 -20q90 -18 136 -48q60 -39 60 -100zM556 352q0 72 -108 131q-81 44 -174 61q-4 -15 -6 -41.5t-2 -45.5q0 -47 5.5 -138.5t16 -116t47.5 -24.5q60 0 138 57q83 60 83 117zM212 504q0 8 -2 19t-4 20q-14 -3 -29 -10
q-25 -11 -29 -12q14 -18 27.5 -32t30.5 -26q2 10 4 21t2 20z" />
    <glyph glyph-name="germandbls" unicode="&#xdf;" horiz-adv-x="607" 
d="M595 182q0 -76 -109 -112q-78 -26 -182 -26q0 33 7 45.5t29 22.5q78 0 124 10q80 17 80 63t-102 122t-102 101q0 22 29 38q64 35 64 59q0 38 -57 66q-49 24 -93 24q-77 0 -77 -71l-1 -195l-3 -258q0 -37 10 -62.5t39 -40.5q-11 -21 -19 -33q-26 -37 -58 -57
q-20 27 -30 67.5t-10 83.5q0 48 4 153q10 264 10 294q0 80 13 118q18 54 64 54q92 0 172 -29q109 -39 109 -113q0 -23 -29.5 -53.5t-29.5 -52.5q0 -28 74 -90t74 -128z" />
    <glyph glyph-name="agrave" unicode="&#xe0;" horiz-adv-x="481" 
d="M493 90q0 -51 -35 -79t-88 -28q-47 0 -87 23q-25 14 -49 29l-100 -26q-35 0 -56 16t-21 50q0 66 33 120.5t93 77.5q25 12 38 18q26 12 41 12q25 0 51.5 -22.5t26.5 -47.5q0 -12 -21 -71q-11 -31 -11 -50q0 -31 6 -46q10 -26 36 -26q19 0 51 14q79 34 92 36zM264 235
l-1 15q-60 -29 -90 -67q-36 -44 -36 -105q55 10 91 55t36 102zM308 392q-13 -6 -25 -9.5t-25 -3.5q-27 0 -79 48t-52 65q0 8 7 19q4 7 13 18q72 -36 95 -53q48 -35 66 -84z" />
    <glyph glyph-name="aacute" unicode="&#xe1;" horiz-adv-x="481" 
d="M493 90q0 -51 -35 -79t-88 -28q-47 0 -87 23q-25 14 -49 29l-100 -26q-35 0 -56 16t-21 50q0 66 33 120.5t93 77.5q25 12 38 18q26 12 41 12q25 0 51.5 -22.5t26.5 -47.5q0 -12 -21 -71q-11 -31 -11 -50q0 -31 6 -46q10 -26 36 -26q19 0 51 14q79 34 92 36zM264 235
l-1 15q-60 -29 -90 -67q-36 -44 -36 -105q55 10 91 55t36 102zM447 604q-3 -34 -13.5 -64.5t-29.5 -62.5q-27 -46 -59 -73q-41 -34 -87 -34q3 31 18 56q8 15 24 32q24 25 27 30q23 37 47 74q32 42 73 42z" />
    <glyph glyph-name="acircumflex" unicode="&#xe2;" horiz-adv-x="481" 
d="M493 90q0 -51 -35 -79t-88 -28q-47 0 -87 23q-25 14 -49 29l-100 -26q-35 0 -56 16t-21 50q0 66 33 120.5t93 77.5q25 12 38 18q26 12 41 12q25 0 51.5 -22.5t26.5 -47.5q0 -12 -21 -71q-11 -31 -11 -50q0 -31 6 -46q10 -26 36 -26q19 0 51 14q79 34 92 36zM264 235
l-1 15q-60 -29 -90 -67q-36 -44 -36 -105q55 10 91 55t36 102zM447 365q-18 -7 -32 -7q-55 0 -104 76q-28 49 -38 65q-42 -90 -46 -98q-37 -63 -80 -73q0 30 16 63q47 98 48 101q8 39 16 79q6 22 14 33q12 18 34 21q67 -156 81 -176q34 -51 91 -84z" />
    <glyph glyph-name="atilde" unicode="&#xe3;" horiz-adv-x="481" 
d="M493 90q0 -51 -35 -79t-88 -28q-47 0 -87 23q-25 14 -49 29l-100 -26q-35 0 -56 16t-21 50q0 66 33 120.5t93 77.5q25 12 38 18q26 12 41 12q25 0 51.5 -22.5t26.5 -47.5q0 -12 -21 -71q-11 -31 -11 -50q0 -31 6 -46q10 -26 36 -26q19 0 51 14q79 34 92 36zM264 235
l-1 15q-60 -29 -90 -67q-36 -44 -36 -105q55 10 91 55t36 102zM330 827q-11 -11 -25 -18.5t-30 -7.5q-20 0 -35 10t-30 27l-73 -49v8q-2 14 18 33q36 34 69 34q10 0 17 -12q16 -27 42 -27z" />
    <glyph glyph-name="adieresis" unicode="&#xe4;" horiz-adv-x="481" 
d="M493 90q0 -51 -35 -79t-88 -28q-47 0 -87 23q-25 14 -49 29l-100 -26q-35 0 -56 16t-21 50q0 66 33 120.5t93 77.5q25 12 38 18q26 12 41 12q25 0 51.5 -22.5t26.5 -47.5q0 -12 -21 -71q-11 -31 -11 -50q0 -31 6 -46q10 -26 36 -26q19 0 51 14q79 34 92 36zM264 235
l-1 15q-60 -29 -90 -67q-36 -44 -36 -105q55 10 91 55t36 102zM456 421q0 -31 -23 -50t-55 -19q-22 0 -32.5 14t-10.5 37q0 70 70 70q23 0 37 -14t14 -38zM268 425q0 -31 -23 -50t-55 -19q-22 0 -32.5 14t-10.5 37q0 70 70 70q23 0 37 -14t14 -38z" />
    <glyph glyph-name="aring" unicode="&#xe5;" horiz-adv-x="481" 
d="M493 90q0 -51 -35 -79t-88 -28q-47 0 -87 23q-25 14 -49 29l-100 -26q-35 0 -56 16t-21 50q0 66 33 120.5t93 77.5q25 12 38 18q26 12 41 12q25 0 51.5 -22.5t26.5 -47.5q0 -12 -21 -71q-11 -31 -11 -50q0 -31 6 -46q10 -26 36 -26q19 0 51 14q79 34 92 36zM264 235
l-1 15q-60 -29 -90 -67q-36 -44 -36 -105q55 10 91 55t36 102zM396 471q0 -38 -32 -80t-69 -42q-25 0 -41 19t-16 44q0 41 34 83.5t74 42.5q26 0 38 -20t12 -47zM380 478q0 40 -37 40q-33 0 -56 -32.5t-23 -67.5q0 -17 7 -31t24 -14q32 0 58.5 35.5t26.5 69.5z" />
    <glyph glyph-name="ae" unicode="&#xe6;" horiz-adv-x="624" 
d="M678 17q-39 -5 -89.5 -10t-88.5 -5q-72 0 -139 23q-4 -13 -26.5 -27t-39.5 -14q-20 0 -32 13q-15 22 -29 38l-100 -26q-35 0 -56 16t-21 50q0 66 33 120.5t93 77.5q25 12 38 18q26 12 41 12q20 0 40.5 -13t30.5 -33q31 22 58 34t51 12q29 0 46 -21t17 -44q0 -30 -36 -59
t-77 -29q-17 0 -32 5.5t-28 16.5q-5 -19 -4 -33q0 -47 38 -72.5t102 -25.5q29 0 111 15q44 8 65 8q23 0 30 -16q4 -9 4 -31zM436 249q-13 -3 -24 -6t-22 -11q-5 -4 -15.5 -12.5t-10.5 -10.5t11 -10q7 -5 15 -10q32 15 39 23.5t7 36.5zM264 235l-1 15q-60 -29 -90 -67
q-36 -44 -36 -105q55 10 91 55t36 102z" />
    <glyph glyph-name="ccedilla" unicode="&#xe7;" horiz-adv-x="401" 
d="M401 22q-57 -11 -86 -15q-50 -8 -86 -8q-88 0 -127 47q-35 43 -35 133q0 101 58 214q68 133 159 133q29 0 44 -26q12 -21 12 -53t-10 -59.5t-32 -45.5q-10 20 -19 56q-12 48 -15 57q-64 -44 -108 -119.5t-44 -149.5q0 -54 20 -89q25 -43 75 -43q24 0 68.5 12.5t63.5 12.5
q27 0 41 -14.5t21 -42.5zM287 -73q0 -27 -30 -59q-34 -36 -86 -51q-9 6 -9 18q0 15 31 43t31 42q0 6 -8.5 19.5t-8.5 19.5q0 12 27 19l12 -4q28 -9 36 -22q5 -7 5 -25z" />
    <glyph glyph-name="egrave" unicode="&#xe8;" horiz-adv-x="470" 
d="M504 22q-67 -11 -107 -15.5t-71 -4.5q-93 0 -167 46q-86 53 -86 142q0 55 71.5 132.5t124.5 77.5q29 0 47 -29q15 -24 15 -56q0 -41 -35.5 -78.5t-76.5 -37.5q-34 0 -60 28q-4 -19 -4 -43q0 -62 38 -96t102 -34q28 0 66 9q88 21 109 21q22 0 30 -22q4 -12 4 -40zM263 329
q-24 -8 -25 -8q-11 -4 -19.5 -12.5l-15.5 -15.5q-12 -13 -12 -17q0 -3 11 -13q7 -7 15 -13q33 19 39.5 30.5t6.5 48.5zM287 470q-13 -6 -25 -9.5t-25 -3.5q-27 0 -79 48t-52 65q0 8 7 19q4 7 13 18q72 -36 95 -53q48 -35 66 -84z" />
    <glyph glyph-name="eacute" unicode="&#xe9;" horiz-adv-x="470" 
d="M504 22q-67 -11 -107 -15.5t-71 -4.5q-93 0 -167 46q-86 53 -86 142q0 55 71.5 132.5t124.5 77.5q29 0 47 -29q15 -24 15 -56q0 -41 -35.5 -78.5t-76.5 -37.5q-34 0 -60 28q-4 -19 -4 -43q0 -62 38 -96t102 -34q28 0 66 9q88 21 109 21q22 0 30 -22q4 -12 4 -40zM263 329
q-24 -8 -25 -8q-11 -4 -19.5 -12.5l-15.5 -15.5q-12 -13 -12 -17q0 -3 11 -13q7 -7 15 -13q33 19 39.5 30.5t6.5 48.5zM447 707q-3 -34 -13.5 -64.5t-29.5 -62.5q-27 -46 -59 -73q-41 -34 -87 -34q3 31 18 56q8 15 24 32q24 25 27 30q23 37 47 74q32 42 73 42z" />
    <glyph glyph-name="ecircumflex" unicode="&#xea;" horiz-adv-x="470" 
d="M504 22q-67 -11 -107 -15.5t-71 -4.5q-93 0 -167 46q-86 53 -86 142q0 55 71.5 132.5t124.5 77.5q29 0 47 -29q15 -24 15 -56q0 -41 -35.5 -78.5t-76.5 -37.5q-34 0 -60 28q-4 -19 -4 -43q0 -62 38 -96t102 -34q28 0 66 9q88 21 109 21q22 0 30 -22q4 -12 4 -40zM263 329
q-24 -8 -25 -8q-11 -4 -19.5 -12.5l-15.5 -15.5q-12 -13 -12 -17q0 -3 11 -13q7 -7 15 -13q33 19 39.5 30.5t6.5 48.5zM442 462q-18 -7 -32 -7q-55 0 -104 76q-28 49 -38 65q-42 -90 -46 -98q-37 -63 -80 -73q0 30 16 63q47 98 48 101q8 39 16 79q6 22 14 33q12 18 34 21
q67 -156 81 -176q34 -51 91 -84z" />
    <glyph glyph-name="edieresis" unicode="&#xeb;" horiz-adv-x="470" 
d="M504 22q-67 -11 -107 -15.5t-71 -4.5q-93 0 -167 46q-86 53 -86 142q0 55 71.5 132.5t124.5 77.5q29 0 47 -29q15 -24 15 -56q0 -41 -35.5 -78.5t-76.5 -37.5q-34 0 -60 28q-4 -19 -4 -43q0 -62 38 -96t102 -34q28 0 66 9q88 21 109 21q22 0 30 -22q4 -12 4 -40zM263 329
q-24 -8 -25 -8q-11 -4 -19.5 -12.5l-15.5 -15.5q-12 -13 -12 -17q0 -3 11 -13q7 -7 15 -13q33 19 39.5 30.5t6.5 48.5zM428 509q0 -31 -23 -50t-55 -19q-22 0 -32.5 14t-10.5 37q0 70 70 70q23 0 37 -14t14 -38zM240 513q0 -31 -23 -50t-55 -19q-22 0 -32.5 14t-10.5 37
q0 70 70 70q23 0 37 -14t14 -38z" />
    <glyph glyph-name="igrave" unicode="&#xec;" horiz-adv-x="217" 
d="M206 24q0 -13 -12.5 -19.5t-26.5 -6.5q-46 0 -71 32t-25 79q0 45 19 98q5 13 23 55q7 -7 16 -14.5t11 -14.5l-18 -116q0 -38 18 -53q15 -12 54 -19l1 -5q11 -9 11 -16zM252 332q-13 -6 -25 -9.5t-25 -3.5q-27 0 -79 48t-52 65q0 8 7 19q4 7 13 18q72 -36 95 -53
q48 -35 66 -84z" />
    <glyph glyph-name="iacute" unicode="&#xed;" horiz-adv-x="217" 
d="M206 24q0 -13 -12.5 -19.5t-26.5 -6.5q-46 0 -71 32t-25 79q0 45 19 98q5 13 23 55q7 -7 16 -14.5t11 -14.5l-18 -116q0 -38 18 -53q15 -12 54 -19l1 -5q11 -9 11 -16zM308 577q-3 -34 -13.5 -64.5t-29.5 -62.5q-27 -46 -59 -73q-41 -34 -87 -34q3 31 18 56q8 15 24 32
q24 25 27 30q23 37 47 74q32 42 73 42z" />
    <glyph glyph-name="icircumflex" unicode="&#xee;" horiz-adv-x="217" 
d="M206 24q0 -13 -12.5 -19.5t-26.5 -6.5q-46 0 -71 32t-25 79q0 45 19 98q5 13 23 55q7 -7 16 -14.5t11 -14.5l-18 -116q0 -38 18 -53q15 -12 54 -19l1 -5q11 -9 11 -16zM371 307q-18 -7 -32 -7q-55 0 -104 76q-28 49 -38 65q-42 -90 -46 -98q-37 -63 -80 -73q0 30 16 63
q47 98 48 101q8 39 16 79q6 22 14 33q12 18 34 21q67 -156 81 -176q34 -51 91 -84z" />
    <glyph glyph-name="idieresis" unicode="&#xef;" horiz-adv-x="217" 
d="M206 24q0 -13 -12.5 -19.5t-26.5 -6.5q-46 0 -71 32t-25 79q0 45 19 98q5 13 23 55q7 -7 16 -14.5t11 -14.5l-18 -116q0 -38 18 -53q15 -12 54 -19l1 -5q11 -9 11 -16zM380 390q0 -31 -23 -50t-55 -19q-22 0 -32.5 14t-10.5 37q0 70 70 70q23 0 37 -14t14 -38zM192 394
q0 -31 -23 -50t-55 -19q-22 0 -32.5 14t-10.5 37q0 70 70 70q23 0 37 -14t14 -38z" />
    <glyph glyph-name="eth" unicode="&#xf0;" 
d="M449 490q-19 -16 -43 -26q-9 -4 -47 -16q9 -107 19 -213q3 -15 21 -58.5t18 -58.5q0 -52 -52 -86q-46 -30 -102 -30q-78 0 -140 45q-69 50 -69 125q0 48 25 87q29 44 74 44q31 0 92 -23q26 -11 53 -21q6 23 8.5 51.5t2.5 61.5l-4 53l-25 -9q-10 -3 -18 -4t-11 -1
q-19 0 -34 35q15 9 37.5 15t43.5 12q-5 29 -8.5 59.5t-3.5 55.5q24 0 44 -7q8 -20 13 -38.5t9 -44.5q7 3 16 7t19 6.5t20 2.5q25 0 42 -24zM344 114q0 59 -49 98t-110 39q-40 0 -66.5 -16.5t-26.5 -55.5q0 -55 54 -98q50 -40 107 -40q39 0 63 16q28 19 28 57z" />
    <glyph glyph-name="ntilde" unicode="&#xf1;" horiz-adv-x="458" 
d="M481 67q-21 -32 -42 -47q-27 -19 -61 -19q-83 0 -119 103q-16 50 -31 101q-20 -55 -57 -110q-33 -49 -80 -96q-8 20 -11.5 42t-3.5 49q0 13 -0.5 28t-0.5 32q0 87 10 140q15 79 52 97q4 -15 6 -35t2 -40q0 -12 -1 -37t-1 -37q0 -26 5 -56q38 68 64 111q50 81 79 81
q18 0 24 -17t6 -38q0 -22 -10 -93q-5 -36 -5 -57q0 -51 14 -80q19 -39 65 -39q22 0 48 5q6 1 48 12zM360 462q-11 -11 -25 -18.5t-30 -7.5q-20 0 -35 10t-30 27l-73 -49v8q-2 14 18 33q36 34 69 34q10 0 17 -12q16 -27 42 -27z" />
    <glyph glyph-name="ograve" unicode="&#xf2;" horiz-adv-x="412" 
d="M401 262q0 -81 -68 -169q-72 -93 -151 -93q-54 0 -89 40t-35 95q0 87 72 177q77 96 162 96q56 0 85 -48q24 -39 24 -98zM365 277q0 44 -18.5 66t-61.5 22q-71 0 -123 -74q-47 -67 -47 -142q0 -39 13 -64q17 -33 53 -33q69 0 128 79q56 74 56 146zM318 467
q-13 -6 -25 -9.5t-25 -3.5q-27 0 -79 48t-52 65q0 8 7 19q4 7 13 18q72 -36 95 -53q48 -35 66 -84z" />
    <glyph glyph-name="oacute" unicode="&#xf3;" horiz-adv-x="412" 
d="M401 262q0 -81 -68 -169q-72 -93 -151 -93q-54 0 -89 40t-35 95q0 87 72 177q77 96 162 96q56 0 85 -48q24 -39 24 -98zM365 277q0 44 -18.5 66t-61.5 22q-71 0 -123 -74q-47 -67 -47 -142q0 -39 13 -64q17 -33 53 -33q69 0 128 79q56 74 56 146zM454 705
q-3 -34 -13.5 -64.5t-29.5 -62.5q-27 -46 -59 -73q-41 -34 -87 -34q3 31 18 56q8 15 24 32q24 25 27 30q23 37 47 74q32 42 73 42z" />
    <glyph glyph-name="ocircumflex" unicode="&#xf4;" horiz-adv-x="412" 
d="M401 262q0 -81 -68 -169q-72 -93 -151 -93q-54 0 -89 40t-35 95q0 87 72 177q77 96 162 96q56 0 85 -48q24 -39 24 -98zM365 277q0 44 -18.5 66t-61.5 22q-71 0 -123 -74q-47 -67 -47 -142q0 -39 13 -64q17 -33 53 -33q69 0 128 79q56 74 56 146zM444 465q-18 -7 -32 -7
q-55 0 -104 76q-28 49 -38 65q-42 -90 -46 -98q-37 -63 -80 -73q0 30 16 63q47 98 48 101q8 39 16 79q6 22 14 33q12 18 34 21q67 -156 81 -176q34 -51 91 -84z" />
    <glyph glyph-name="otilde" unicode="&#xf5;" horiz-adv-x="412" 
d="M401 262q0 -81 -68 -169q-72 -93 -151 -93q-54 0 -89 40t-35 95q0 87 72 177q77 96 162 96q56 0 85 -48q24 -39 24 -98zM365 277q0 44 -18.5 66t-61.5 22q-71 0 -123 -74q-47 -67 -47 -142q0 -39 13 -64q17 -33 53 -33q69 0 128 79q56 74 56 146zM391 491
q-11 -11 -25 -18.5t-30 -7.5q-20 0 -35 10t-30 27l-73 -49v8q-2 14 18 33q36 34 69 34q10 0 17 -12q16 -27 42 -27z" />
    <glyph glyph-name="odieresis" unicode="&#xf6;" horiz-adv-x="412" 
d="M401 262q0 -81 -68 -169q-72 -93 -151 -93q-54 0 -89 40t-35 95q0 87 72 177q77 96 162 96q56 0 85 -48q24 -39 24 -98zM365 277q0 44 -18.5 66t-61.5 22q-71 0 -123 -74q-47 -67 -47 -142q0 -39 13 -64q17 -33 53 -33q69 0 128 79q56 74 56 146zM462 528q0 -31 -23 -50
t-55 -19q-22 0 -32.5 14t-10.5 37q0 70 70 70q23 0 37 -14t14 -38zM274 532q0 -31 -23 -50t-55 -19q-22 0 -32.5 14t-10.5 37q0 70 70 70q23 0 37 -14t14 -38z" />
    <glyph glyph-name="divide" unicode="&#xf7;" 
d="M267 453q0 -30 -16 -41t-49 -11q-22 0 -32.5 14t-10.5 37q0 31 12 42t45 11q23 0 37 -14t14 -38zM390 292q-40 -16 -115 -20.5t-98 -8.5t-38 -6t-25 -2q-46 0 -60.5 10t-19.5 50q16 4 37.5 6t43.5 2q14 0 28.5 -0.5t29.5 -0.5q19 0 83 12q32 6 51 6q31 0 51.5 -11
t31.5 -37zM269 154q0 -31 -23 -50t-55 -19q-22 0 -32.5 14t-10.5 37q0 70 70 70q23 0 37 -14t14 -38z" />
    <glyph glyph-name="oslash" unicode="&#xf8;" horiz-adv-x="412" 
d="M441 480q-10 -47 -63 -123q11 -18 17 -44t6 -51q0 -81 -68 -169q-72 -93 -151 -93q-28 0 -52 12q-14 -31 -19 -44q-9 -21 -15 -29t-17.5 -14t-27.5 -6q11 54 48 115q-41 39 -41 101q0 87 72 177q77 96 162 96q35 0 59 -19l32 47q14 17 28.5 29t29.5 15zM329 356
q-14 6 -22 7.5t-22 1.5q-71 0 -123 -74q-47 -67 -47 -142q0 -19 3.5 -36t11.5 -32q99 137 199 275zM365 277q0 29 -9 49q-30 -42 -129 -165q-51 -63 -62 -80l-13 -22q14 -7 29 -7q69 0 128 79q56 74 56 146z" />
    <glyph glyph-name="ugrave" unicode="&#xf9;" horiz-adv-x="401" 
d="M401 -10l-29 -3q-30 0 -53 27q-10 12 -33 53q-56 -33 -77 -43q-51 -25 -81 -25q-39 0 -55 38q-11 27 -11 74q0 76 40 151q13 -28 23 -105l12 -112q144 43 156 176q6 67 39 85q18 -36 18 -77q0 -11 -3.5 -44t-3.5 -49q0 -33 20 -76q1 -2 38 -70zM243 355q-13 -6 -25 -9.5
t-25 -3.5q-27 0 -79 48t-52 65q0 8 7 19q4 7 13 18q72 -36 95 -53q48 -35 66 -84z" />
    <glyph glyph-name="uacute" unicode="&#xfa;" horiz-adv-x="401" 
d="M401 -10l-29 -3q-30 0 -53 27q-10 12 -33 53q-56 -33 -77 -43q-51 -25 -81 -25q-39 0 -55 38q-11 27 -11 74q0 76 40 151q13 -28 23 -105l12 -112q144 43 156 176q6 67 39 85q18 -36 18 -77q0 -11 -3.5 -44t-3.5 -49q0 -33 20 -76q1 -2 38 -70zM379 573
q-3 -34 -13.5 -64.5t-29.5 -62.5q-27 -46 -59 -73q-41 -34 -87 -34q3 31 18 56q8 15 24 32q24 25 27 30q23 37 47 74q32 42 73 42z" />
    <glyph glyph-name="ucircumflex" unicode="&#xfb;" horiz-adv-x="401" 
d="M401 -10l-29 -3q-30 0 -53 27q-10 12 -33 53q-56 -33 -77 -43q-51 -25 -81 -25q-39 0 -55 38q-11 27 -11 74q0 76 40 151q13 -28 23 -105l12 -112q144 43 156 176q6 67 39 85q18 -36 18 -77q0 -11 -3.5 -44t-3.5 -49q0 -33 20 -76q1 -2 38 -70zM363 358q-18 -7 -32 -7
q-55 0 -104 76q-28 49 -38 65q-42 -90 -46 -98q-37 -63 -80 -73q0 30 16 63q47 98 48 101q8 39 16 79q6 22 14 33q12 18 34 21q67 -156 81 -176q34 -51 91 -84z" />
    <glyph glyph-name="udieresis" unicode="&#xfc;" horiz-adv-x="401" 
d="M401 -10l-29 -3q-30 0 -53 27q-10 12 -33 53q-56 -33 -77 -43q-51 -25 -81 -25q-39 0 -55 38q-11 27 -11 74q0 76 40 151q13 -28 23 -105l12 -112q144 43 156 176q6 67 39 85q18 -36 18 -77q0 -11 -3.5 -44t-3.5 -49q0 -33 20 -76q1 -2 38 -70zM371 410q0 -31 -23 -50
t-55 -19q-22 0 -32.5 14t-10.5 37q0 70 70 70q23 0 37 -14t14 -38zM183 414q0 -31 -23 -50t-55 -19q-22 0 -32.5 14t-10.5 37q0 70 70 70q23 0 37 -14t14 -38z" />
    <glyph glyph-name="yacute" unicode="&#xfd;" horiz-adv-x="366" 
d="M367 -149v-12q0 -35 -5 -52q-9 -30 -33 -30q-26 0 -57 25q-25 20 -44 48q35 0 70 -11q10 41 10 89q0 98 -44 194q-22 -36 -51 -63q-39 -36 -70 -36q-40 0 -59 74q-13 50 -13 107q0 37 8.5 67.5t33.5 44.5q15 -40 19 -126t16 -125q40 25 93 148q25 59 56 80
q19 -39 44.5 -202t25.5 -220zM382 573q-3 -34 -13.5 -64.5t-29.5 -62.5q-27 -46 -59 -73q-41 -34 -87 -34q3 31 18 56q8 15 24 32q24 25 27 30q23 37 47 74q32 42 73 42z" />
    <glyph glyph-name="thorn" unicode="&#xfe;" horiz-adv-x="401" 
d="M398 231q0 -71 -58 -118l-108 -66q-58 -38 -58 -86q0 -21 15 -95q7 -34 7 -58q0 -35 -13.5 -57t-46.5 -35q-6 40 -25 142q-30 159 -30 242q0 144 4 232q9 192 33 192q15 0 21 -4q12 -8 17 -35.5t5 -52.5q0 -9 -0.5 -22t-0.5 -30q0 -29 1.5 -49.5t7.5 -63.5q17 12 53 61
q28 37 52 37q44 0 84 -45t40 -89zM344 232q0 27 -24.5 54.5t-49.5 27.5q-42 0 -77 -73q-30 -63 -30 -113q0 -29 6 -59q58 20 110 62q65 52 65 101z" />
    <glyph glyph-name="ydieresis" unicode="&#xff;" horiz-adv-x="366" 
d="M367 -149v-12q0 -35 -5 -52q-9 -30 -33 -30q-26 0 -57 25q-25 20 -44 48q35 0 70 -11q10 41 10 89q0 98 -44 194q-22 -36 -51 -63q-39 -36 -70 -36q-40 0 -59 74q-13 50 -13 107q0 37 8.5 67.5t33.5 44.5q15 -40 19 -126t16 -125q40 25 93 148q25 59 56 80
q19 -39 44.5 -202t25.5 -220zM380 426q0 -31 -23 -50t-55 -19q-22 0 -32.5 14t-10.5 37q0 70 70 70q23 0 37 -14t14 -38zM192 430q0 -31 -23 -50t-55 -19q-22 0 -32.5 14t-10.5 37q0 70 70 70q23 0 37 -14t14 -38z" />
    <glyph glyph-name="dotlessi" unicode="&#x131;" horiz-adv-x="217" 
d="M206 24q0 -13 -12.5 -19.5t-26.5 -6.5q-46 0 -71 32t-25 79q0 45 19 98q5 13 23 55q7 -7 16 -14.5t11 -14.5l-18 -116q0 -38 18 -53q15 -12 54 -19l1 -5q11 -9 11 -16z" />
    <glyph glyph-name="Lslash" unicode="&#x141;" horiz-adv-x="458" 
d="M458 67q-27 -14 -38.5 -18t-25.5 -4h-15q-36 3 -43 3q-41 0 -101 -15q-131 -33 -167 -33q0 51 10 121q14 82 20 121q-14 -13 -31 -22q-33 -19 -45 -19q-13 0 -28 18q15 13 45 30q38 22 47 28l19 13q10 137 21 274q5 41 15 67q15 41 42 53q9 -42 9 -86q0 -70 -22 -173
q-12 -52 -23 -103l26 17q26 15 47 15q12 0 24 -6q-20 -21 -50 -42q-38 -25 -56 -37q-7 -41 -7 -88q0 -28 4 -57t13 -56q49 18 99 29t96 11q36 0 65 -9t50 -32z" />
    <glyph glyph-name="lslash" unicode="&#x142;" horiz-adv-x="194" 
d="M220 253q-14 -17 -33 -31q-12 -9 -38 -25l1 -54q0 -48 -2.5 -74.5t-11.5 -67.5q-27 4 -40.5 16t-13.5 38q0 18 2 34q7 54 7 58v7l-14 -9q-25 -14 -35 -14q-12 0 -27 19q8 8 26 19q24 14 48 29q2 127 7 172q10 91 40 166q16 -14 24.5 -36t8.5 -45q0 -25 -14 -99
q-7 -37 -7 -60l1 -52l10 7q19 11 35 11q12 0 26 -9z" />
    <glyph glyph-name="OE" unicode="&#x152;" horiz-adv-x="802" 
d="M802 387q-166 -47 -198 -60q-68 -28 -108 -66q-20 -56 -55 -109l-1 -17q0 -29 6 -56q53 9 121.5 29.5t131.5 39.5q16 -14 23 -22q13 -14 13 -28q0 -17 -15 -25l-337 -68q-22 0 -37 5t-24 19q-25 -16 -47 -23.5t-48 -7.5q-65 0 -102 65q-31 54 -31 124q0 119 83 253
q93 150 206 150q27 0 48 -15q84 46 164 81q88 38 172 62l23 -23q-24 -39 -97 -64q-104 -36 -121 -46q-63 -36 -76 -107q21 -62 21 -115l-1 -18q81 30 137 50q97 34 109 34l25 -8q10 -14 15 -34zM447 481q-7 16 -9 19q-3 7 -11 16q-15 -8 -23.5 -11.5t-20.5 -5.5
q-22 8 -40 25l35 21l-7 1q-88 0 -158 -143q-60 -123 -60 -224q0 -46 14 -77q20 -44 61 -44q38 0 81 31q37 27 73 76q6 24 12 49.5t6 47.5l-11 10q25 53 41.5 101.5t16.5 107.5zM389 68l-5 12l-28 -26q16 10 33 14z" />
    <glyph glyph-name="oe" unicode="&#x153;" horiz-adv-x="788" 
d="M788 22q-67 -11 -107 -15.5t-71 -4.5q-77 0 -145 34q-78 39 -100 105q-33 -60 -82 -100.5t-101 -40.5q-54 0 -89 40t-35 95q0 87 72 177q77 96 162 96q50 0 78 -37q24 -31 30 -84q34 47 76.5 80t76.5 33q29 0 47 -29q15 -24 15 -56q0 -41 -35.5 -78.5t-76.5 -37.5
q-34 0 -60 28q-4 -19 -4 -43q0 -62 38 -96t102 -34q28 0 66 9q88 21 109 21q22 0 30 -22q4 -12 4 -40zM547 329q-24 -8 -25 -8q-11 -4 -19.5 -12.5l-15.5 -15.5q-12 -13 -12 -17q0 -3 11 -13q7 -7 15 -13q33 19 39.5 30.5t6.5 48.5zM365 277q0 44 -18.5 66t-61.5 22
q-71 0 -123 -74q-47 -67 -47 -142q0 -39 13 -64q17 -33 53 -33q69 0 128 79q56 74 56 146z" />
    <glyph glyph-name="Scaron" unicode="&#x160;" horiz-adv-x="607" 
d="M585 182q0 -92 -132 -143q-101 -39 -213 -39q-42 0 -92 30q-57 34 -57 71q0 20 13 30t33 10q21 0 46 -5q-24 -14 -47 -34q40 -24 80.5 -37.5t82.5 -13.5q66 0 140 35q89 42 89 100q0 75 -110 117q-102 30 -204 61q-110 39 -110 109q0 13 3 27t8 28q16 38 136.5 123.5
t162.5 85.5q20 0 38 -13t18 -33q0 -23 -18 -31t-45 -8h-15t-13 1q-55 0 -135.5 -63.5t-80.5 -116.5q0 -45 109 -75q171 -46 203 -62q110 -53 110 -154zM531 1126q0 -33 -17 -70q-49 -108 -50 -112q-9 -44 -17 -87q-6 -23 -15 -37q-13 -20 -35 -24q-71 173 -85 195
q-37 57 -96 94q19 7 34 7q39 0 73 -36q14 -14 75 -120q24 54 49 109q39 70 84 81z" />
    <glyph glyph-name="scaron" unicode="&#x161;" horiz-adv-x="412" 
d="M401 467q0 -59 -79 -103q-90 -50 -105 -91h12q53 -40 86 -74q54 -56 54 -95q0 -49 -49 -79q-43 -26 -96 -26q-58 0 -98 27q-47 32 -47 87q32 -21 69 -42.5t70 -21.5t62 14q37 18 37 48q0 48 -61.5 86.5t-125.5 78.5q0 36 115 109q99 63 156 82zM470 846q0 -33 -17 -70
q-49 -108 -50 -112q-9 -44 -17 -87q-6 -23 -15 -37q-13 -20 -35 -24q-71 173 -85 195q-37 57 -96 94q19 7 34 7q39 0 73 -36q14 -14 75 -120q24 54 49 109q39 70 84 81z" />
    <glyph glyph-name="Ydieresis" unicode="&#x178;" horiz-adv-x="493" 
d="M493 764q-32 -109 -98 -202q-82 -114 -98 -152q-44 -102 -44 -274q0 -49 -10 -77q-14 -40 -49 -59q-5 17 -7 37t-2 40q0 31 2 56q7 88 7 94q0 27 -13.5 75t-13.5 70q0 19 9.5 54t9.5 51q0 40 -31.5 120.5t-31.5 118.5l2 14q46 -25 91 -143q18 -49 36 -97q70 116 104 162
q83 112 137 112zM465 861q0 -31 -23 -50t-55 -19q-22 0 -32.5 14t-10.5 37q0 70 70 70q23 0 37 -14t14 -38zM277 865q0 -31 -23 -50t-55 -19q-22 0 -32.5 14t-10.5 37q0 70 70 70q23 0 37 -14t14 -38z" />
    <glyph glyph-name="Zcaron" unicode="&#x17d;" horiz-adv-x="779" 
d="M768 56q-72 -28 -193 -48.5t-204 -20.5q-59 0 -118 15q-84 21 -84 61q0 27 117 102.5t236 151.5q143 97 189 162q-19 9 -48 14.5t-54 5.5q-64 0 -141.5 -22t-156 -44t-137.5 -22q-24 0 -42 8t-30 26q18 11 148 37q100 20 239.5 42.5t163.5 22.5q61 0 90 -20
q25 -17 25 -48q0 -66 -113 -145q-38 -27 -227 -135q-140 -80 -177 -131q22 -12 49 -18t54 -6q56 0 124 10q170 25 210 25q22 0 42.5 -5t37.5 -18zM716 945q0 -33 -17 -70q-49 -108 -50 -112q-9 -44 -17 -87q-6 -23 -15 -37q-13 -20 -35 -24q-71 173 -85 195q-37 57 -96 94
q19 7 34 7q39 0 73 -36q14 -14 75 -120q24 54 49 109q39 70 84 81z" />
    <glyph glyph-name="zcaron" unicode="&#x17e;" horiz-adv-x="584" 
d="M584 0h-16q-23 0 -71 11t-73 11q-47 0 -194 -10q-74 -5 -116 -5q-15 0 -24.5 4.5t-9.5 18.5q0 54 84 111q13 9 134 74q-47 13 -90 13q-31 0 -69 -10.5t-73 -20.5q-21 -6 -35 18q-6 11 -9 24q46 0 138 17t137 17q38 0 54.5 -11t16.5 -30q0 -27 -83 -87l-114 -78
q10 -3 27 -4t31 -1q37 0 68 2q107 7 115 7q80 0 121 -20q34 -17 51 -51zM408 663q0 -33 -17 -70q-49 -108 -50 -112q-9 -44 -17 -87q-6 -23 -15 -37q-13 -20 -35 -24q-71 173 -85 195q-37 57 -96 94q19 7 34 7q39 0 73 -36q14 -14 75 -120q24 54 49 109q39 70 84 81z" />
    <glyph glyph-name="florin" unicode="&#x192;" horiz-adv-x="421" 
d="M606 469l-62 1q-116 0 -204 -117q-74 -99 -107 -248q71 -8 87 -14q49 -18 49 -70q-26 -6 -59.5 -9t-61.5 -3q-1 -11 -1 -25v-16t1 -20q0 -66 -33 -97q-54 -51 -205 -51q-91 0 -154.5 25t-90.5 68q24 -4 149 -23q85 -13 96 -13q148 0 148 91v32.5t1 28.5q0 9 -1 13
q-26 -13 -52 -25q-39 -18 -50 -18t-25 6l-21 9q29 51 122 83q41 14 54 46q2 6 7 22t9 30q31 106 131 228q111 135 192 135q29 0 50 -20q17 -16 31 -49z" />
    <glyph glyph-name="circumflex" unicode="&#x2c6;" horiz-adv-x="548" 
d="M441 585q-18 -7 -32 -7q-55 0 -104 76q-28 49 -38 65q-42 -90 -46 -98q-37 -63 -80 -73q0 30 16 63q47 98 48 101q8 39 16 79q6 22 14 33q12 18 34 21q67 -156 81 -176q34 -51 91 -84z" />
    <glyph glyph-name="caron" unicode="&#x2c7;" horiz-adv-x="552" 
d="M423 828q0 -33 -17 -70q-49 -108 -50 -112q-9 -44 -17 -87q-6 -23 -15 -37q-13 -20 -35 -24q-71 173 -85 195q-37 57 -96 94q19 7 34 7q39 0 73 -36q14 -14 75 -120q24 54 49 109q39 70 84 81z" />
    <glyph glyph-name="ring" unicode="&#x2da;" horiz-adv-x="414" 
d="M272 717q0 -38 -32 -80t-69 -42q-25 0 -41 19t-16 44q0 41 34 83.5t74 42.5q26 0 38 -20t12 -47zM256 724q0 40 -37 40q-33 0 -56 -32.5t-23 -67.5q0 -17 7 -31t24 -14q32 0 58.5 35.5t26.5 69.5z" />
    <glyph glyph-name="tilde" unicode="&#x2dc;" horiz-adv-x="428" 
d="M292 752q-11 -11 -25 -18.5t-30 -7.5q-20 0 -35 10t-30 27l-73 -49v8q-2 14 18 33q36 34 69 34q10 0 17 -12q16 -27 42 -27z" />
    <glyph glyph-name="endash" unicode="&#x2013;" horiz-adv-x="366" 
d="M366 250q-40 -16 -115 -20.5t-98 -8.5t-38 -6t-25 -2q-46 0 -60.5 10t-19.5 50q16 4 37.5 6t43.5 2q14 0 28.5 -0.5t29.5 -0.5q19 0 83 12q32 6 51 6q31 0 51.5 -11t31.5 -37z" />
    <glyph glyph-name="emdash" unicode="&#x2014;" horiz-adv-x="518" 
d="M501 243q-33 -13 -135 -16.5t-216 -6.5q-20 -3 -35 -5t-25 -2q-46 0 -60.5 10t-19.5 50q16 4 37.5 6t42.5 2q14 0 28.5 -0.5t29.5 -0.5q28 0 93 3q172 8 176 8q30 0 51.5 -11t32.5 -37z" />
    <glyph glyph-name="quoteleft" unicode="&#x2018;" horiz-adv-x="206" 
d="M171 630q-21 -24 -40 -38q-26 -19 -49 -19q-27 0 -43 24.5t-16 52.5q0 36 22 85q26 58 56 58l36 -3l-34 -72q-16 -40 -16 -78l3 -22q17 0 42.5 5t38.5 7z" />
    <glyph glyph-name="quoteright" unicode="&#x2019;" horiz-adv-x="160" 
d="M133 724q0 -42 -18.5 -69t-57.5 -48q0 25 17 78t17 81q0 19 -8 41q-1 3 10.5 8t20.5 9q9 -29 14 -53t5 -47z" />
    <glyph glyph-name="quotesinglbase" unicode="&#x201a;" horiz-adv-x="192" 
d="M107 78q0 -52 -15 -93q-19 -51 -58 -73q-13 29 -13 58q0 16 6 44t7.5 53.5t3.5 69.5q7 52 42 72q14 -29 20.5 -61.5t6.5 -69.5z" />
    <glyph glyph-name="quotedblleft" unicode="&#x201c;" horiz-adv-x="274" 
d="M263 535q-23 16 -34 31q-14 19 -14 43q0 16 5.5 34.5t7.5 28.5q14 -21 24 -66q7 -31 11 -71zM79 502q-10 -3 -29 -13q-8 -5 -16 -9q-11 22 -20 52.5t-9 53.5q0 40 14 67t48 43q0 -24 -2 -43q-7 -68 -7 -73q0 -23 4.5 -38.5t16.5 -39.5z" />
    <glyph glyph-name="quotedblright" unicode="&#x201d;" horiz-adv-x="320" 
d="M320 627q0 -35 -14 -62.5t-43 -52.5l-4 30q0 18 5 37q8 24 11 37.5t3 25.5t-1 27t-1 18q0 14 1.5 21t8.5 21q16 -27 25 -51t9 -51zM104 611q0 -44 -13 -76t-45 -58q-6 5 -12 12t-6 14q16 29 28.5 54.5t12.5 56.5q0 9 -8.5 34.5t-8.5 29.5q0 10 12 16.5t28 11.5
q7 -31 9.5 -50t2.5 -45z" />
    <glyph glyph-name="quotedblbase" unicode="&#x201e;" horiz-adv-x="457" 
d="M365 -48q0 -35 -14 -62.5t-43 -52.5l-4 30q0 18 5 37q8 24 11 37.5t3 25.5t-1 27t-1 18q0 14 1.5 21t8.5 21q16 -27 25 -51t9 -51zM149 -64q0 -44 -13 -76t-45 -58q-6 6 -12 12.5t-6 13.5q16 29 28.5 54.5t12.5 56.5q0 9 -8.5 34.5t-8.5 29.5q0 10 12 16.5t28 11.5
q7 -31 9.5 -50t2.5 -45z" />
    <glyph glyph-name="dagger" unicode="&#x2020;" 
d="M371 420q-31 -12 -69.5 -17.5t-75.5 -5.5v-15q0 -27 7 -108q4 -46 4 -66q0 -43 -6 -86.5t-17 -88.5q-33 5 -43.5 15.5t-10.5 29.5q0 16 2 30q7 47 7 51l-1 163l-3 70l-10 -2q-20 -3 -35 -5t-25 -2q-46 0 -60.5 10t-19.5 50q16 4 37.5 6t43.5 2q14 0 28.5 -0.5t29.5 -0.5
h7q0 12 -1 37.5t-1 38.5q0 51 6 88.5t27 69.5q26 -22 35 -63q6 -26 6 -74q0 -14 -2 -48t-2 -37q14 2 30 4t29 2q31 0 51.5 -11t31.5 -37z" />
    <glyph glyph-name="daggerdbl" unicode="&#x2021;" 
d="M396 460q-37 -15 -73.5 -19.5t-85.5 -4.5l-1 -54l1 -28q14 3 35 6t36 3q31 0 51.5 -11t31.5 -37q-32 -12 -71.5 -17.5t-77.5 -5.5q0 -18 2.5 -48t2.5 -36q0 -43 -6 -86.5t-17 -88.5q-33 5 -43.5 15.5t-10.5 29.5q0 16 2 30q7 47 7 51l-1 127l-3 -1q-20 -3 -35 -5t-25 -2
q-46 0 -60.5 10t-19.5 50q16 4 37.5 6t43.5 2q14 0 28.5 -0.5t29.5 -0.5h4l-5 84q-16 -3 -28.5 -4.5t-24.5 -1.5q-46 0 -60.5 10t-19.5 50q20 5 36 6t44 1h49v36q0 51 6 88.5t27 69.5q26 -22 35 -63q6 -26 6 -74l-2 -48q14 3 36 6t36 3q31 0 51.5 -11t31.5 -37z" />
    <glyph glyph-name="bullet" unicode="&#x2022;" horiz-adv-x="330" 
d="M263 305q0 -50 -38 -81t-89 -31q-35 0 -52.5 23t-17.5 59q0 52 30 83t84 31q37 0 60 -24t23 -60z" />
    <glyph glyph-name="ellipsis" unicode="&#x2026;" horiz-adv-x="620" 
d="M177 57q0 -31 -23 -50t-55 -19q-22 0 -32.5 14t-10.5 37q0 70 70 70q23 0 37 -14t14 -38zM357 57q0 -31 -23 -50t-55 -19q-22 0 -32.5 14t-10.5 37q0 70 70 70q23 0 37 -14t14 -38zM547 57q0 -31 -23 -50t-55 -19q-22 0 -32.5 14t-10.5 37q0 70 70 70q23 0 37 -14t14 -38
z" />
    <glyph glyph-name="perthousand" unicode="&#x2030;" horiz-adv-x="1062" 
d="M1005 132q0 -48 -53 -89t-102 -41q-53 0 -89 39.5t-36 94.5q0 43 58 84q48 34 68 34q55 0 104.5 -34.5t49.5 -87.5zM635 132q0 -48 -53 -89t-102 -41q-48 0 -83 45q-26 34 -42 89q-40 -66 -54 -82q-39 -46 -80 -46q-7 1 -11 1l-16 2q9 52 61 117q46 55 92 111
q47 66 47 122q0 57 -25 100q-29 50 -82 57q-22 -8 -56 -40q-66 -62 -105 -62q-28 0 -41 29q-9 21 -9 55q0 62 64 108q58 42 124 42q20 0 36 -32q10 -25 21 -49q36 -34 72 -67q54 -50 54 -126q0 -15 -6 -44t-6 -43q0 -6 5 -20.5t6 -18.5q15 4 35 4q55 0 104.5 -34.5
t49.5 -87.5zM960 146q0 26 -20.5 42.5t-46.5 16.5q-37 0 -66.5 -35t-29.5 -73q0 -25 15 -40t41 -15q37 0 72 34t35 70zM240 569q-20 -2 -25 -5t-22 -18l2 15q0 7 -8 9q-19 0 -31.5 -15.5t-12.5 -36.5q0 -8 2 -19.5t4 -20.5q56 35 91 91zM590 146q0 26 -20.5 42.5t-46.5 16.5
q-37 0 -66.5 -35t-29.5 -73q0 -25 15 -40t41 -15q37 0 72 34t35 70z" />
    <glyph glyph-name="guilsinglleft" unicode="&#x2039;" horiz-adv-x="607" 
d="M603 433q-20 -39 -114 -89q-70 -36 -140 -71q-27 -16 -63 -41q-26 -19 -38 -27q17 -8 163 -20q114 -9 135 -61q-24 -4 -56 -4t-98 8t-99 8q-25 0 -99 -7q-42 -4 -61 -4q-39 0 -81 11q26 53 122 102q112 49 154 69q34 16 94 58q99 69 168 69z" />
    <glyph glyph-name="guilsinglright" unicode="&#x203a;" horiz-adv-x="596" 
d="M566 371q-53 -37 -126 -71q-59 -28 -118 -55q-69 -36 -135 -91q-11 -9 -23.5 -15.5t-32 -12.5t-43.5 -10t-61 -8q0 37 29 61q7 5 57 27l62 26q40 17 79 40q119 70 129 75q-13 6 -186 23q-128 13 -147 79q52 0 155 -17t154 -17q18 0 58.5 2t43.5 2q39 0 64 -6.5t41 -31.5z
" />
    <glyph glyph-name="trademark" unicode="&#x2122;" horiz-adv-x="649" 
d="M320 724q-14 -9 -38 -16q-14 -4 -26 -7q-65 -16 -78.5 -32.5t-13.5 -81.5v-12q0 -18 -0.5 -36.5t-0.5 -36.5v-11q0 -24 -25 -33q0 23 4 69t4 69q0 38 -7 69l-88 -18q-12 -2 -23.5 5t-17.5 18q11 6 22 13q7 3 16 3t22.5 -5.5t15.5 -5.5q19 0 79 20l132 46q14 0 23 -17z
M536 453q-33 8 -61 70q-27 73 -35 94q-1 -7 -1.5 -15.5t-0.5 -13.5v-19.5t1 -18.5q0 -29 -5 -41q-8 -19 -31 -23q-6 28 -17 58t-21 59q-2 -10 -3 -82t-31 -77q0 79 4.5 160.5t19.5 97.5q6 0 12 -6l45 -168q9 17 13.5 85t24.5 79q14 -59 29 -117z" />
    <glyph glyph-name="fraction" unicode="&#x2215;" horiz-adv-x="200" 
d="M343 563q-12 -56 -82 -152q-40 -54 -142 -174q-94 -110 -121 -148q-18 -24 -39 -69q-46 -97 -48 -99q-11 -14 -25.5 -19.5t-31.5 -5.5q13 60 51 123q13 22 46 66q128 168 257 337q31 44 63 88q18 22 34 34q20 16 38 19z" />
    <glyph glyph-name="fi" unicode="&#xf001;" horiz-adv-x="516" 
d="M516 335l-55 -10l-1 16v6q0 13 5 20.5t19 7.5q29 0 30 -18t2 -22zM549 21q0 -12 -11.5 -17.5t-25.5 -5.5q-45 0 -69 28t-24 68q0 24 6 41q11 23 18 39q-41 -13 -103.5 -25t-88.5 -12q4 -27 14.5 -57t20.5 -58q-14 -5 -25 -8.5t-19 -3.5q-20 0 -49 58q-12 24 -33 80
q-23 -10 -45 -20q-36 -15 -45 -15q-11 0 -26 5t-22 7q19 45 79 61.5t66 43.5q2 8 3 20t1 23q9 86 81 186q80 110 159 110q29 0 53 -16q20 -13 40 -40l-61 1q-112 0 -174 -96q-53 -83 -53 -202q6 -1 22 -1q34 0 120 6t102 6q9 -7 14 -11q9 -8 12 -15l-18 -100q0 -33 17 -46
q13 -10 53 -16l1 -4q10 -8 10 -14z" />
    <glyph glyph-name="fl" unicode="&#xf002;" horiz-adv-x="525" 
d="M512 451q0 -25 -14 -99q-7 -37 -7 -60l2 -153q0 -48 -2.5 -74.5t-11.5 -67.5q-27 4 -40.5 16t-13.5 38q0 18 2 34q7 54 7 58v63q0 103 6.5 171t31.5 136l-29 1q-112 0 -174 -96q-53 -83 -53 -202q71 -7 89 -12q52 -15 61 -57q-53 -10 -115 -10q4 -27 14.5 -57t20.5 -58
q-14 -5 -25 -8.5t-19 -3.5q-20 0 -49 58q-12 24 -33 80q-23 -10 -45 -20q-36 -15 -45 -15q-11 0 -26 5t-22 7q19 45 79 61.5t66 43.5q2 8 3 20t1 23q9 86 81 186q80 110 159 110q29 0 53 -16q20 -13 40 -40h-9q17 -26 17 -62z" />
    </font>
</defs>
</svg>
