<?xml version="1.0" encoding="UTF-8"?>
<svg xmlns="http://www.w3.org/2000/svg" xmlns:xlink="http://www.w3.org/1999/xlink" width="504pt" height="432pt" viewBox="0 0 504 432" version="1.1">
<defs>
<g>
<symbol overflow="visible" id="glyph0-0">
<path style="stroke:none;" d="M 1.664063 0 L 1.664063 -7.5 L 7.664063 -7.5 L 7.664063 0 Z M 1.851563 -0.1875 L 7.476563 -0.1875 L 7.476563 -7.3125 L 1.851563 -7.3125 Z M 1.851563 -0.1875 "/>
</symbol>
<symbol overflow="visible" id="glyph0-1">
<path style="stroke:none;" d="M 1.195313 -7.726563 L 1.195313 -7.945313 L 4.601563 -7.945313 L 4.601563 -7.726563 L 4.3125 -7.726563 C 3.988281 -7.722656 3.75 -7.628906 3.601563 -7.441406 C 3.503906 -7.316406 3.457031 -7.015625 3.460938 -6.539063 L 3.460938 -2.65625 C 3.457031 -2.054688 3.390625 -1.570313 3.265625 -1.199219 C 3.132813 -0.828125 2.910156 -0.503906 2.589844 -0.230469 C 2.269531 0.0429688 1.882813 0.175781 1.429688 0.179688 C 1.0625 0.175781 0.773438 0.0898438 0.5625 -0.0898438 C 0.351563 -0.269531 0.246094 -0.480469 0.246094 -0.714844 C 0.246094 -0.902344 0.292969 -1.046875 0.390625 -1.148438 C 0.519531 -1.265625 0.671875 -1.324219 0.84375 -1.328125 C 0.96875 -1.324219 1.078125 -1.285156 1.179688 -1.207031 C 1.273438 -1.125 1.402344 -0.90625 1.558594 -0.550781 C 1.648438 -0.339844 1.761719 -0.234375 1.90625 -0.234375 C 2.007813 -0.234375 2.105469 -0.296875 2.199219 -0.425781 C 2.285156 -0.554688 2.332031 -0.785156 2.335938 -1.113281 L 2.335938 -6.539063 C 2.332031 -6.9375 2.308594 -7.203125 2.261719 -7.335938 C 2.222656 -7.433594 2.140625 -7.515625 2.015625 -7.585938 C 1.847656 -7.675781 1.667969 -7.722656 1.484375 -7.726563 Z M 1.195313 -7.726563 "/>
</symbol>
<symbol overflow="visible" id="glyph0-2">
<path style="stroke:none;" d="M 3 -5.523438 C 3.8125 -5.519531 4.464844 -5.210938 4.957031 -4.601563 C 5.375 -4.070313 5.582031 -3.464844 5.585938 -2.78125 C 5.582031 -2.300781 5.46875 -1.816406 5.238281 -1.324219 C 5.003906 -0.832031 4.683594 -0.460938 4.285156 -0.210938 C 3.878906 0.0390625 3.429688 0.164063 2.9375 0.164063 C 2.125 0.164063 1.484375 -0.15625 1.007813 -0.804688 C 0.605469 -1.34375 0.402344 -1.953125 0.40625 -2.632813 C 0.402344 -3.117188 0.523438 -3.605469 0.769531 -4.097656 C 1.011719 -4.582031 1.335938 -4.941406 1.734375 -5.175781 C 2.132813 -5.402344 2.554688 -5.519531 3 -5.523438 Z M 2.820313 -5.144531 C 2.609375 -5.144531 2.402344 -5.082031 2.195313 -4.957031 C 1.984375 -4.832031 1.816406 -4.617188 1.6875 -4.3125 C 1.554688 -4.003906 1.488281 -3.605469 1.492188 -3.125 C 1.488281 -2.339844 1.644531 -1.667969 1.957031 -1.101563 C 2.269531 -0.53125 2.679688 -0.246094 3.1875 -0.25 C 3.566406 -0.246094 3.878906 -0.402344 4.125 -0.71875 C 4.367188 -1.027344 4.488281 -1.566406 4.492188 -2.332031 C 4.488281 -3.285156 4.285156 -4.035156 3.878906 -4.582031 C 3.597656 -4.957031 3.242188 -5.144531 2.820313 -5.144531 Z M 2.820313 -5.144531 "/>
</symbol>
<symbol overflow="visible" id="glyph0-3">
<path style="stroke:none;" d="M 1.953125 -8.332031 L 1.953125 -4.40625 C 2.382813 -4.882813 2.726563 -5.1875 2.980469 -5.320313 C 3.234375 -5.453125 3.488281 -5.519531 3.742188 -5.523438 C 4.046875 -5.519531 4.308594 -5.4375 4.53125 -5.273438 C 4.746094 -5.105469 4.910156 -4.839844 5.015625 -4.484375 C 5.085938 -4.230469 5.121094 -3.773438 5.125 -3.109375 L 5.125 -1.210938 C 5.121094 -0.871094 5.148438 -0.640625 5.210938 -0.515625 C 5.242188 -0.421875 5.308594 -0.347656 5.40625 -0.292969 C 5.496094 -0.238281 5.667969 -0.210938 5.921875 -0.210938 L 5.921875 0 L 3.289063 0 L 3.289063 -0.210938 L 3.410156 -0.210938 C 3.660156 -0.210938 3.832031 -0.246094 3.929688 -0.324219 C 4.027344 -0.394531 4.097656 -0.507813 4.136719 -0.664063 C 4.148438 -0.722656 4.152344 -0.90625 4.15625 -1.210938 L 4.15625 -3.109375 C 4.152344 -3.695313 4.121094 -4.082031 4.0625 -4.265625 C 4 -4.445313 3.90625 -4.582031 3.773438 -4.675781 C 3.640625 -4.769531 3.480469 -4.816406 3.292969 -4.816406 C 3.101563 -4.816406 2.902344 -4.765625 2.695313 -4.664063 C 2.484375 -4.5625 2.234375 -4.355469 1.953125 -4.046875 L 1.953125 -1.210938 C 1.949219 -0.84375 1.96875 -0.617188 2.011719 -0.527344 C 2.050781 -0.433594 2.128906 -0.355469 2.238281 -0.300781 C 2.347656 -0.238281 2.539063 -0.210938 2.820313 -0.210938 L 2.820313 0 L 0.15625 0 L 0.15625 -0.210938 C 0.394531 -0.210938 0.582031 -0.246094 0.71875 -0.320313 C 0.792969 -0.359375 0.855469 -0.433594 0.90625 -0.546875 C 0.949219 -0.652344 0.972656 -0.875 0.976563 -1.210938 L 0.976563 -6.070313 C 0.972656 -6.683594 0.957031 -7.058594 0.933594 -7.203125 C 0.902344 -7.339844 0.859375 -7.4375 0.800781 -7.488281 C 0.738281 -7.535156 0.65625 -7.558594 0.554688 -7.5625 C 0.472656 -7.558594 0.339844 -7.527344 0.15625 -7.46875 L 0.078125 -7.675781 L 1.679688 -8.332031 Z M 1.953125 -8.332031 "/>
</symbol>
<symbol overflow="visible" id="glyph0-4">
<path style="stroke:none;" d="M 1.9375 -4.390625 C 2.566406 -5.140625 3.167969 -5.519531 3.738281 -5.523438 C 4.03125 -5.519531 4.28125 -5.445313 4.496094 -5.304688 C 4.703125 -5.15625 4.871094 -4.917969 5 -4.582031 C 5.078125 -4.347656 5.121094 -3.988281 5.125 -3.503906 L 5.125 -1.210938 C 5.121094 -0.871094 5.148438 -0.640625 5.210938 -0.523438 C 5.25 -0.421875 5.320313 -0.347656 5.417969 -0.292969 C 5.511719 -0.238281 5.6875 -0.210938 5.945313 -0.210938 L 5.945313 0 L 3.292969 0 L 3.292969 -0.210938 L 3.40625 -0.210938 C 3.652344 -0.210938 3.828125 -0.246094 3.929688 -0.324219 C 4.027344 -0.394531 4.097656 -0.507813 4.136719 -0.664063 C 4.152344 -0.71875 4.160156 -0.902344 4.160156 -1.210938 L 4.160156 -3.410156 C 4.160156 -3.894531 4.09375 -4.246094 3.96875 -4.472656 C 3.839844 -4.691406 3.628906 -4.804688 3.328125 -4.804688 C 2.863281 -4.804688 2.398438 -4.550781 1.9375 -4.042969 L 1.9375 -1.210938 C 1.933594 -0.847656 1.957031 -0.625 2.003906 -0.539063 C 2.058594 -0.421875 2.132813 -0.335938 2.230469 -0.289063 C 2.324219 -0.234375 2.519531 -0.210938 2.8125 -0.210938 L 2.8125 0 L 0.15625 0 L 0.15625 -0.210938 L 0.273438 -0.210938 C 0.546875 -0.210938 0.730469 -0.277344 0.828125 -0.417969 C 0.921875 -0.550781 0.972656 -0.816406 0.972656 -1.210938 L 0.972656 -3.203125 C 0.972656 -3.847656 0.957031 -4.242188 0.925781 -4.382813 C 0.894531 -4.523438 0.847656 -4.617188 0.792969 -4.667969 C 0.730469 -4.71875 0.652344 -4.746094 0.550781 -4.746094 C 0.441406 -4.746094 0.308594 -4.714844 0.15625 -4.65625 L 0.0703125 -4.867188 L 1.6875 -5.523438 L 1.9375 -5.523438 Z M 1.9375 -4.390625 "/>
</symbol>
<symbol overflow="visible" id="glyph0-5">
<path style="stroke:none;" d="M 5.5 -8.125 L 5.5 -5.378906 L 5.285156 -5.378906 C 5.214844 -5.90625 5.085938 -6.324219 4.90625 -6.640625 C 4.71875 -6.949219 4.460938 -7.199219 4.128906 -7.382813 C 3.789063 -7.5625 3.441406 -7.652344 3.085938 -7.65625 C 2.675781 -7.652344 2.339844 -7.527344 2.078125 -7.285156 C 1.808594 -7.035156 1.675781 -6.753906 1.679688 -6.4375 C 1.675781 -6.195313 1.761719 -5.976563 1.933594 -5.777344 C 2.175781 -5.480469 2.75 -5.089844 3.664063 -4.605469 C 4.398438 -4.207031 4.90625 -3.898438 5.179688 -3.6875 C 5.453125 -3.46875 5.660156 -3.21875 5.808594 -2.933594 C 5.953125 -2.640625 6.027344 -2.339844 6.03125 -2.027344 C 6.027344 -1.425781 5.792969 -0.90625 5.328125 -0.472656 C 4.859375 -0.0390625 4.261719 0.175781 3.527344 0.179688 C 3.292969 0.175781 3.074219 0.160156 2.875 0.128906 C 2.753906 0.109375 2.503906 0.0390625 2.125 -0.0820313 C 1.742188 -0.207031 1.5 -0.269531 1.398438 -0.269531 C 1.300781 -0.269531 1.222656 -0.238281 1.167969 -0.179688 C 1.109375 -0.121094 1.070313 -0.00390625 1.042969 0.179688 L 0.828125 0.179688 L 0.828125 -2.542969 L 1.042969 -2.542969 C 1.144531 -1.972656 1.28125 -1.542969 1.453125 -1.261719 C 1.625 -0.972656 1.886719 -0.738281 2.242188 -0.554688 C 2.59375 -0.363281 2.980469 -0.269531 3.40625 -0.273438 C 3.890625 -0.269531 4.277344 -0.398438 4.558594 -0.660156 C 4.839844 -0.914063 4.980469 -1.21875 4.984375 -1.578125 C 4.980469 -1.765625 4.925781 -1.964844 4.824219 -2.167969 C 4.714844 -2.367188 4.550781 -2.550781 4.324219 -2.726563 C 4.167969 -2.835938 3.75 -3.085938 3.074219 -3.46875 C 2.390625 -3.851563 1.90625 -4.15625 1.625 -4.382813 C 1.335938 -4.609375 1.121094 -4.859375 0.972656 -5.132813 C 0.824219 -5.40625 0.75 -5.707031 0.75 -6.035156 C 0.75 -6.605469 0.96875 -7.09375 1.40625 -7.507813 C 1.84375 -7.914063 2.398438 -8.121094 3.078125 -8.125 C 3.496094 -8.121094 3.945313 -8.019531 4.417969 -7.816406 C 4.636719 -7.71875 4.789063 -7.667969 4.882813 -7.671875 C 4.976563 -7.667969 5.058594 -7.699219 5.128906 -7.761719 C 5.191406 -7.820313 5.246094 -7.941406 5.285156 -8.125 Z M 5.5 -8.125 "/>
</symbol>
<symbol overflow="visible" id="glyph0-6">
<path style="stroke:none;" d="M 5.078125 -5.367188 L 5.078125 -2.117188 C 5.074219 -1.492188 5.089844 -1.113281 5.121094 -0.972656 C 5.152344 -0.832031 5.199219 -0.734375 5.261719 -0.683594 C 5.324219 -0.625 5.398438 -0.597656 5.492188 -0.601563 C 5.609375 -0.597656 5.746094 -0.632813 5.898438 -0.703125 L 5.984375 -0.5 L 4.375 0.164063 L 4.113281 0.164063 L 4.113281 -0.972656 C 3.652344 -0.472656 3.300781 -0.15625 3.058594 -0.0273438 C 2.816406 0.101563 2.558594 0.164063 2.289063 0.164063 C 1.988281 0.164063 1.726563 0.078125 1.507813 -0.0976563 C 1.285156 -0.269531 1.132813 -0.492188 1.050781 -0.769531 C 0.960938 -1.039063 0.917969 -1.425781 0.921875 -1.929688 L 0.921875 -4.324219 C 0.917969 -4.574219 0.890625 -4.75 0.839844 -4.851563 C 0.78125 -4.949219 0.699219 -5.023438 0.59375 -5.078125 C 0.484375 -5.128906 0.292969 -5.152344 0.0117188 -5.148438 L 0.0117188 -5.367188 L 1.890625 -5.367188 L 1.890625 -1.773438 C 1.886719 -1.269531 1.972656 -0.941406 2.152344 -0.789063 C 2.324219 -0.628906 2.535156 -0.550781 2.78125 -0.554688 C 2.949219 -0.550781 3.140625 -0.605469 3.351563 -0.714844 C 3.5625 -0.820313 3.816406 -1.019531 4.113281 -1.320313 L 4.113281 -4.359375 C 4.113281 -4.664063 4.054688 -4.867188 3.945313 -4.976563 C 3.832031 -5.082031 3.601563 -5.140625 3.25 -5.148438 L 3.25 -5.367188 Z M 5.078125 -5.367188 "/>
</symbol>
<symbol overflow="visible" id="glyph0-7">
<path style="stroke:none;" d="M 3.84375 -5.523438 L 3.84375 -3.695313 L 3.648438 -3.695313 C 3.5 -4.269531 3.308594 -4.660156 3.078125 -4.867188 C 2.84375 -5.074219 2.550781 -5.179688 2.191406 -5.179688 C 1.917969 -5.179688 1.695313 -5.105469 1.527344 -4.960938 C 1.359375 -4.816406 1.277344 -4.65625 1.277344 -4.484375 C 1.277344 -4.261719 1.339844 -4.074219 1.464844 -3.921875 C 1.585938 -3.757813 1.832031 -3.589844 2.203125 -3.410156 L 3.058594 -2.992188 C 3.851563 -2.605469 4.246094 -2.097656 4.25 -1.464844 C 4.246094 -0.976563 4.0625 -0.582031 3.695313 -0.285156 C 3.324219 0.015625 2.910156 0.164063 2.453125 0.164063 C 2.121094 0.164063 1.746094 0.105469 1.328125 -0.0117188 C 1.199219 -0.0507813 1.09375 -0.0703125 1.015625 -0.0703125 C 0.921875 -0.0703125 0.851563 -0.0195313 0.804688 0.0820313 L 0.609375 0.0820313 L 0.609375 -1.835938 L 0.804688 -1.835938 C 0.910156 -1.285156 1.121094 -0.875 1.429688 -0.597656 C 1.734375 -0.316406 2.078125 -0.175781 2.46875 -0.179688 C 2.734375 -0.175781 2.953125 -0.253906 3.125 -0.417969 C 3.292969 -0.574219 3.378906 -0.765625 3.382813 -0.992188 C 3.378906 -1.257813 3.285156 -1.484375 3.097656 -1.667969 C 2.90625 -1.851563 2.527344 -2.085938 1.960938 -2.367188 C 1.394531 -2.648438 1.023438 -2.902344 0.851563 -3.128906 C 0.671875 -3.347656 0.585938 -3.628906 0.585938 -3.972656 C 0.585938 -4.410156 0.734375 -4.777344 1.039063 -5.078125 C 1.335938 -5.371094 1.730469 -5.519531 2.214844 -5.523438 C 2.425781 -5.519531 2.679688 -5.476563 2.984375 -5.390625 C 3.179688 -5.332031 3.3125 -5.300781 3.382813 -5.304688 C 3.441406 -5.300781 3.492188 -5.316406 3.527344 -5.34375 C 3.558594 -5.367188 3.597656 -5.425781 3.648438 -5.523438 Z M 3.84375 -5.523438 "/>
</symbol>
<symbol overflow="visible" id="glyph0-8">
<path style="stroke:none;" d="M 3.414063 -0.773438 C 2.863281 -0.34375 2.519531 -0.0976563 2.378906 -0.0351563 C 2.167969 0.0585938 1.941406 0.105469 1.703125 0.109375 C 1.332031 0.105469 1.027344 -0.0195313 0.789063 -0.269531 C 0.546875 -0.519531 0.425781 -0.851563 0.429688 -1.273438 C 0.425781 -1.53125 0.484375 -1.757813 0.601563 -1.953125 C 0.761719 -2.214844 1.039063 -2.464844 1.4375 -2.703125 C 1.828125 -2.933594 2.488281 -3.21875 3.414063 -3.554688 L 3.414063 -3.765625 C 3.410156 -4.300781 3.324219 -4.667969 3.160156 -4.867188 C 2.988281 -5.066406 2.742188 -5.167969 2.421875 -5.167969 C 2.171875 -5.167969 1.976563 -5.101563 1.835938 -4.96875 C 1.679688 -4.835938 1.605469 -4.683594 1.609375 -4.511719 L 1.625 -4.171875 C 1.621094 -3.992188 1.574219 -3.851563 1.484375 -3.753906 C 1.390625 -3.65625 1.273438 -3.609375 1.125 -3.609375 C 0.976563 -3.609375 0.855469 -3.660156 0.769531 -3.761719 C 0.675781 -3.863281 0.632813 -4 0.632813 -4.179688 C 0.632813 -4.507813 0.804688 -4.816406 1.148438 -5.101563 C 1.492188 -5.378906 1.972656 -5.519531 2.59375 -5.523438 C 3.070313 -5.519531 3.460938 -5.441406 3.765625 -5.285156 C 3.996094 -5.160156 4.167969 -4.96875 4.277344 -4.71875 C 4.347656 -4.546875 4.382813 -4.203125 4.382813 -3.6875 L 4.382813 -1.863281 C 4.382813 -1.347656 4.390625 -1.03125 4.410156 -0.921875 C 4.429688 -0.804688 4.460938 -0.730469 4.507813 -0.691406 C 4.550781 -0.652344 4.605469 -0.632813 4.664063 -0.632813 C 4.726563 -0.632813 4.78125 -0.644531 4.828125 -0.671875 C 4.910156 -0.722656 5.066406 -0.867188 5.304688 -1.101563 L 5.304688 -0.773438 C 4.863281 -0.1875 4.445313 0.105469 4.046875 0.105469 C 3.855469 0.105469 3.703125 0.0390625 3.589844 -0.09375 C 3.476563 -0.226563 3.417969 -0.453125 3.414063 -0.773438 Z M 3.414063 -1.15625 L 3.414063 -3.199219 C 2.824219 -2.964844 2.445313 -2.796875 2.273438 -2.703125 C 1.964844 -2.527344 1.742188 -2.347656 1.613281 -2.164063 C 1.476563 -1.972656 1.410156 -1.769531 1.414063 -1.546875 C 1.410156 -1.265625 1.496094 -1.03125 1.664063 -0.847656 C 1.828125 -0.660156 2.019531 -0.566406 2.242188 -0.570313 C 2.535156 -0.566406 2.925781 -0.761719 3.414063 -1.15625 Z M 3.414063 -1.15625 "/>
</symbol>
<symbol overflow="visible" id="glyph0-9">
<path style="stroke:none;" d="M 5.492188 -2.660156 L 2.414063 -2.660156 L 1.875 -1.40625 C 1.742188 -1.097656 1.675781 -0.867188 1.675781 -0.714844 C 1.675781 -0.589844 1.730469 -0.480469 1.847656 -0.394531 C 1.960938 -0.300781 2.210938 -0.242188 2.59375 -0.21875 L 2.59375 0 L 0.09375 0 L 0.09375 -0.21875 C 0.425781 -0.273438 0.640625 -0.351563 0.738281 -0.445313 C 0.9375 -0.632813 1.15625 -1.011719 1.398438 -1.585938 L 4.195313 -8.125 L 4.398438 -8.125 L 7.164063 -1.515625 C 7.386719 -0.980469 7.589844 -0.636719 7.773438 -0.480469 C 7.953125 -0.324219 8.207031 -0.234375 8.53125 -0.21875 L 8.53125 0 L 5.398438 0 L 5.398438 -0.21875 C 5.710938 -0.230469 5.925781 -0.285156 6.035156 -0.375 C 6.144531 -0.460938 6.199219 -0.570313 6.203125 -0.703125 C 6.199219 -0.875 6.121094 -1.144531 5.96875 -1.515625 Z M 5.328125 -3.09375 L 3.976563 -6.304688 L 2.59375 -3.09375 Z M 5.328125 -3.09375 "/>
</symbol>
<symbol overflow="visible" id="glyph0-10">
<path style="stroke:none;" d="M 2.21875 -8.332031 L 2.21875 -1.210938 C 2.214844 -0.875 2.238281 -0.652344 2.292969 -0.546875 C 2.339844 -0.433594 2.417969 -0.351563 2.519531 -0.296875 C 2.621094 -0.238281 2.808594 -0.210938 3.085938 -0.210938 L 3.085938 0 L 0.457031 0 L 0.457031 -0.210938 C 0.703125 -0.210938 0.871094 -0.234375 0.960938 -0.285156 C 1.046875 -0.335938 1.117188 -0.421875 1.171875 -0.539063 C 1.222656 -0.65625 1.246094 -0.878906 1.25 -1.210938 L 1.25 -6.085938 C 1.246094 -6.691406 1.234375 -7.0625 1.207031 -7.203125 C 1.175781 -7.339844 1.128906 -7.4375 1.074219 -7.488281 C 1.011719 -7.535156 0.9375 -7.558594 0.84375 -7.5625 C 0.742188 -7.558594 0.613281 -7.527344 0.457031 -7.46875 L 0.359375 -7.675781 L 1.957031 -8.332031 Z M 2.21875 -8.332031 "/>
</symbol>
<symbol overflow="visible" id="glyph0-11">
<path style="stroke:none;" d="M 1.742188 -8.332031 C 1.898438 -8.332031 2.039063 -8.273438 2.15625 -8.15625 C 2.273438 -8.039063 2.332031 -7.898438 2.332031 -7.742188 C 2.332031 -7.570313 2.273438 -7.429688 2.15625 -7.316406 C 2.039063 -7.195313 1.898438 -7.136719 1.742188 -7.140625 C 1.570313 -7.136719 1.429688 -7.195313 1.316406 -7.316406 C 1.195313 -7.429688 1.136719 -7.570313 1.140625 -7.742188 C 1.136719 -7.898438 1.195313 -8.039063 1.3125 -8.15625 C 1.429688 -8.273438 1.570313 -8.332031 1.742188 -8.332031 Z M 2.226563 -5.523438 L 2.226563 -1.210938 C 2.226563 -0.875 2.25 -0.652344 2.300781 -0.542969 C 2.347656 -0.429688 2.417969 -0.347656 2.515625 -0.292969 C 2.609375 -0.238281 2.785156 -0.210938 3.039063 -0.210938 L 3.039063 0 L 0.433594 0 L 0.433594 -0.210938 C 0.695313 -0.210938 0.871094 -0.234375 0.960938 -0.285156 C 1.046875 -0.335938 1.117188 -0.421875 1.171875 -0.539063 C 1.226563 -0.65625 1.253906 -0.878906 1.253906 -1.210938 L 1.253906 -3.28125 C 1.253906 -3.863281 1.234375 -4.238281 1.203125 -4.414063 C 1.171875 -4.535156 1.128906 -4.621094 1.070313 -4.671875 C 1.011719 -4.71875 0.933594 -4.746094 0.832031 -4.746094 C 0.722656 -4.746094 0.589844 -4.714844 0.433594 -4.65625 L 0.351563 -4.867188 L 1.96875 -5.523438 Z M 2.226563 -5.523438 "/>
</symbol>
</g>
</defs>
<g id="surface49">
<rect x="0" y="0" width="504" height="432" style="fill:rgb(100%,100%,100%);fill-opacity:1;stroke:none;"/>
<path style="fill:none;stroke-width:0.75;stroke-linecap:round;stroke-linejoin:round;stroke:rgb(66.27451%,66.27451%,66.27451%);stroke-opacity:1;stroke-miterlimit:10;" d="M 80.480469 401.425781 L 423.519531 401.425781 "/>
<path style="fill:none;stroke-width:0.75;stroke-linecap:round;stroke-linejoin:round;stroke:rgb(66.27451%,66.27451%,66.27451%);stroke-opacity:1;stroke-miterlimit:10;" d="M 66.574219 387.519531 L 66.574219 44.480469 "/>
<path style="fill:none;stroke-width:0.75;stroke-linecap:round;stroke-linejoin:round;stroke:rgb(66.27451%,66.27451%,66.27451%);stroke-opacity:1;stroke-miterlimit:10;" d="M 427.59375 391.59375 L 76.40625 40.40625 "/>
<path style="fill-rule:nonzero;fill:rgb(90.196078%,62.352941%,0%);fill-opacity:1;stroke-width:0.75;stroke-linecap:round;stroke-linejoin:round;stroke:rgb(0%,0%,0%);stroke-opacity:1;stroke-miterlimit:10;" d="M 80.480469 401.425781 C 80.480469 409.105469 74.253906 415.332031 66.574219 415.332031 C 58.894531 415.332031 52.667969 409.105469 52.667969 401.425781 C 52.667969 393.746094 58.894531 387.519531 66.574219 387.519531 C 74.253906 387.519531 80.480469 393.746094 80.480469 401.425781 "/>
<path style="fill-rule:nonzero;fill:rgb(90.196078%,62.352941%,0%);fill-opacity:1;stroke-width:0.75;stroke-linecap:round;stroke-linejoin:round;stroke:rgb(0%,0%,0%);stroke-opacity:1;stroke-miterlimit:10;" d="M 451.332031 401.425781 C 451.332031 409.105469 445.105469 415.332031 437.425781 415.332031 C 429.746094 415.332031 423.519531 409.105469 423.519531 401.425781 C 423.519531 393.746094 429.746094 387.519531 437.425781 387.519531 C 445.105469 387.519531 451.332031 393.746094 451.332031 401.425781 "/>
<path style="fill-rule:nonzero;fill:rgb(90.196078%,62.352941%,0%);fill-opacity:1;stroke-width:0.75;stroke-linecap:round;stroke-linejoin:round;stroke:rgb(0%,0%,0%);stroke-opacity:1;stroke-miterlimit:10;" d="M 80.480469 30.574219 C 80.480469 38.253906 74.253906 44.480469 66.574219 44.480469 C 58.894531 44.480469 52.667969 38.253906 52.667969 30.574219 C 52.667969 22.894531 58.894531 16.667969 66.574219 16.667969 C 74.253906 16.667969 80.480469 22.894531 80.480469 30.574219 "/>
<g style="fill:rgb(0%,0%,54.509804%);fill-opacity:1;">
  <use xlink:href="#glyph0-1" x="55.238281" y="405.5"/>
  <use xlink:href="#glyph0-2" x="59.908203" y="405.5"/>
  <use xlink:href="#glyph0-3" x="65.908203" y="405.5"/>
  <use xlink:href="#glyph0-4" x="71.908203" y="405.5"/>
</g>
<g style="fill:rgb(0%,0%,54.509804%);fill-opacity:1;">
  <use xlink:href="#glyph0-5" x="423.089844" y="405.398438"/>
  <use xlink:href="#glyph0-6" x="429.763672" y="405.398438"/>
  <use xlink:href="#glyph0-7" x="435.763672" y="405.398438"/>
  <use xlink:href="#glyph0-8" x="440.433594" y="405.398438"/>
  <use xlink:href="#glyph0-4" x="445.759766" y="405.398438"/>
</g>
<g style="fill:rgb(0%,0%,54.509804%);fill-opacity:1;">
  <use xlink:href="#glyph0-9" x="58.90625" y="34.738281"/>
  <use xlink:href="#glyph0-10" x="67.572266" y="34.738281"/>
  <use xlink:href="#glyph0-11" x="70.90625" y="34.738281"/>
</g>
</g>
</svg>
