<?xml version="1.0" encoding="UTF-8"?>
<svg xmlns="http://www.w3.org/2000/svg" xmlns:xlink="http://www.w3.org/1999/xlink" width="504" height="432" viewBox="0 0 504 432">
<defs>
<g>
<g id="glyph-0-0">
<path d="M 1.195312 -7.726562 L 1.195312 -7.945312 L 4.601562 -7.945312 L 4.601562 -7.726562 L 4.3125 -7.726562 C 3.988281 -7.726562 3.75 -7.632812 3.601562 -7.441406 C 3.507812 -7.316406 3.460938 -7.015625 3.460938 -6.539062 L 3.460938 -2.65625 C 3.460938 -2.054688 3.398438 -1.570312 3.265625 -1.203125 C 3.136719 -0.828125 2.910156 -0.507812 2.589844 -0.230469 C 2.269531 0.0429688 1.882812 0.179688 1.429688 0.179688 C 1.0625 0.179688 0.773438 0.0898438 0.5625 -0.0898438 C 0.351562 -0.273438 0.246094 -0.480469 0.246094 -0.714844 C 0.246094 -0.90625 0.292969 -1.050781 0.390625 -1.148438 C 0.523438 -1.269531 0.671875 -1.328125 0.84375 -1.328125 C 0.96875 -1.328125 1.082031 -1.289062 1.179688 -1.207031 C 1.28125 -1.125 1.40625 -0.90625 1.558594 -0.550781 C 1.648438 -0.339844 1.765625 -0.234375 1.90625 -0.234375 C 2.007812 -0.234375 2.109375 -0.296875 2.199219 -0.429688 C 2.292969 -0.554688 2.335938 -0.785156 2.335938 -1.113281 L 2.335938 -6.539062 C 2.335938 -6.941406 2.3125 -7.207031 2.261719 -7.335938 C 2.222656 -7.433594 2.140625 -7.515625 2.015625 -7.585938 C 1.847656 -7.679688 1.671875 -7.726562 1.484375 -7.726562 Z M 1.195312 -7.726562 "/>
</g>
<g id="glyph-0-1">
<path d="M 3 -5.523438 C 3.8125 -5.523438 4.464844 -5.214844 4.957031 -4.601562 C 5.375 -4.070312 5.585938 -3.464844 5.585938 -2.78125 C 5.585938 -2.304688 5.46875 -1.816406 5.238281 -1.324219 C 5.007812 -0.832031 4.691406 -0.460938 4.285156 -0.210938 C 3.882812 0.0390625 3.429688 0.164062 2.9375 0.164062 C 2.125 0.164062 1.484375 -0.160156 1.007812 -0.804688 C 0.605469 -1.34375 0.40625 -1.953125 0.40625 -2.632812 C 0.40625 -3.125 0.527344 -3.613281 0.769531 -4.097656 C 1.015625 -4.585938 1.335938 -4.945312 1.734375 -5.175781 C 2.132812 -5.410156 2.554688 -5.523438 3 -5.523438 M 2.820312 -5.144531 C 2.609375 -5.144531 2.402344 -5.082031 2.195312 -4.960938 C 1.984375 -4.835938 1.816406 -4.621094 1.6875 -4.3125 C 1.558594 -4.003906 1.492188 -3.605469 1.492188 -3.125 C 1.492188 -2.339844 1.648438 -1.667969 1.960938 -1.101562 C 2.269531 -0.535156 2.679688 -0.25 3.1875 -0.25 C 3.566406 -0.25 3.878906 -0.40625 4.125 -0.71875 C 4.371094 -1.03125 4.492188 -1.570312 4.492188 -2.332031 C 4.492188 -3.285156 4.289062 -4.035156 3.878906 -4.582031 C 3.601562 -4.957031 3.246094 -5.144531 2.820312 -5.144531 Z M 2.820312 -5.144531 "/>
</g>
<g id="glyph-0-2">
<path d="M 1.953125 -8.332031 L 1.953125 -4.40625 C 2.382812 -4.882812 2.726562 -5.1875 2.984375 -5.324219 C 3.234375 -5.457031 3.488281 -5.523438 3.742188 -5.523438 C 4.046875 -5.523438 4.308594 -5.441406 4.53125 -5.273438 C 4.746094 -5.105469 4.910156 -4.839844 5.015625 -4.484375 C 5.089844 -4.230469 5.125 -3.773438 5.125 -3.109375 L 5.125 -1.210938 C 5.125 -0.875 5.152344 -0.640625 5.210938 -0.515625 C 5.246094 -0.421875 5.3125 -0.347656 5.40625 -0.292969 C 5.5 -0.238281 5.671875 -0.210938 5.921875 -0.210938 L 5.921875 0 L 3.289062 0 L 3.289062 -0.210938 L 3.410156 -0.210938 C 3.660156 -0.210938 3.832031 -0.25 3.929688 -0.324219 C 4.027344 -0.402344 4.097656 -0.511719 4.136719 -0.664062 C 4.148438 -0.722656 4.15625 -0.90625 4.15625 -1.210938 L 4.15625 -3.109375 C 4.15625 -3.695312 4.125 -4.082031 4.0625 -4.265625 C 4.003906 -4.449219 3.90625 -4.585938 3.773438 -4.679688 C 3.640625 -4.769531 3.480469 -4.816406 3.292969 -4.816406 C 3.101562 -4.816406 2.902344 -4.765625 2.695312 -4.664062 C 2.488281 -4.5625 2.238281 -4.355469 1.953125 -4.046875 L 1.953125 -1.210938 C 1.953125 -0.84375 1.972656 -0.617188 2.011719 -0.527344 C 2.054688 -0.4375 2.128906 -0.363281 2.242188 -0.300781 C 2.351562 -0.242188 2.542969 -0.210938 2.820312 -0.210938 L 2.820312 0 L 0.15625 0 L 0.15625 -0.210938 C 0.394531 -0.210938 0.582031 -0.246094 0.71875 -0.320312 C 0.796875 -0.359375 0.859375 -0.433594 0.90625 -0.546875 C 0.953125 -0.652344 0.976562 -0.875 0.976562 -1.210938 L 0.976562 -6.070312 C 0.976562 -6.683594 0.964844 -7.0625 0.933594 -7.203125 C 0.90625 -7.34375 0.859375 -7.4375 0.800781 -7.488281 C 0.738281 -7.539062 0.65625 -7.5625 0.554688 -7.5625 C 0.476562 -7.5625 0.339844 -7.53125 0.15625 -7.46875 L 0.078125 -7.675781 L 1.679688 -8.332031 Z M 1.953125 -8.332031 "/>
</g>
<g id="glyph-0-3">
<path d="M 1.9375 -4.390625 C 2.566406 -5.144531 3.167969 -5.523438 3.738281 -5.523438 C 4.03125 -5.523438 4.28125 -5.453125 4.492188 -5.304688 C 4.703125 -5.160156 4.871094 -4.917969 5 -4.582031 C 5.082031 -4.347656 5.125 -3.988281 5.125 -3.503906 L 5.125 -1.210938 C 5.125 -0.875 5.152344 -0.640625 5.210938 -0.523438 C 5.25 -0.421875 5.320312 -0.347656 5.417969 -0.292969 C 5.511719 -0.238281 5.6875 -0.210938 5.945312 -0.210938 L 5.945312 0 L 3.292969 0 L 3.292969 -0.210938 L 3.40625 -0.210938 C 3.652344 -0.210938 3.828125 -0.25 3.929688 -0.324219 C 4.027344 -0.402344 4.097656 -0.511719 4.136719 -0.664062 C 4.152344 -0.71875 4.160156 -0.902344 4.160156 -1.210938 L 4.160156 -3.410156 C 4.160156 -3.898438 4.097656 -4.253906 3.96875 -4.472656 C 3.84375 -4.695312 3.628906 -4.804688 3.328125 -4.804688 C 2.863281 -4.804688 2.398438 -4.550781 1.9375 -4.042969 L 1.9375 -1.210938 C 1.9375 -0.851562 1.960938 -0.625 2.003906 -0.539062 C 2.058594 -0.425781 2.132812 -0.34375 2.230469 -0.289062 C 2.324219 -0.238281 2.519531 -0.210938 2.8125 -0.210938 L 2.8125 0 L 0.15625 0 L 0.15625 -0.210938 L 0.273438 -0.210938 C 0.546875 -0.210938 0.734375 -0.28125 0.828125 -0.417969 C 0.925781 -0.558594 0.972656 -0.820312 0.972656 -1.210938 L 0.972656 -3.203125 C 0.972656 -3.851562 0.957031 -4.242188 0.929688 -4.382812 C 0.898438 -4.523438 0.855469 -4.617188 0.792969 -4.671875 C 0.734375 -4.71875 0.652344 -4.746094 0.550781 -4.746094 C 0.441406 -4.746094 0.308594 -4.714844 0.15625 -4.65625 L 0.0703125 -4.867188 L 1.6875 -5.523438 L 1.9375 -5.523438 Z M 1.9375 -4.390625 "/>
</g>
<g id="glyph-0-4">
<path d="M 5.5 -8.125 L 5.5 -5.378906 L 5.285156 -5.378906 C 5.214844 -5.90625 5.089844 -6.324219 4.90625 -6.640625 C 4.726562 -6.949219 4.464844 -7.199219 4.132812 -7.382812 C 3.792969 -7.566406 3.445312 -7.65625 3.085938 -7.65625 C 2.679688 -7.65625 2.34375 -7.535156 2.078125 -7.285156 C 1.8125 -7.039062 1.679688 -6.757812 1.679688 -6.4375 C 1.679688 -6.195312 1.765625 -5.976562 1.933594 -5.777344 C 2.175781 -5.484375 2.75 -5.09375 3.664062 -4.605469 C 4.402344 -4.207031 4.910156 -3.902344 5.183594 -3.6875 C 5.453125 -3.476562 5.664062 -3.222656 5.808594 -2.9375 C 5.957031 -2.644531 6.03125 -2.34375 6.03125 -2.027344 C 6.03125 -1.425781 5.796875 -0.90625 5.328125 -0.472656 C 4.863281 -0.0351562 4.261719 0.179688 3.527344 0.179688 C 3.296875 0.179688 3.078125 0.164062 2.875 0.128906 C 2.753906 0.109375 2.503906 0.0390625 2.125 -0.0859375 C 1.742188 -0.207031 1.5 -0.269531 1.398438 -0.269531 C 1.300781 -0.269531 1.226562 -0.242188 1.167969 -0.179688 C 1.113281 -0.125 1.070312 0 1.042969 0.179688 L 0.828125 0.179688 L 0.828125 -2.542969 L 1.042969 -2.542969 C 1.144531 -1.972656 1.28125 -1.546875 1.453125 -1.261719 C 1.625 -0.980469 1.886719 -0.742188 2.242188 -0.554688 C 2.59375 -0.367188 2.984375 -0.273438 3.40625 -0.273438 C 3.890625 -0.273438 4.277344 -0.40625 4.5625 -0.664062 C 4.84375 -0.921875 4.984375 -1.226562 4.984375 -1.578125 C 4.984375 -1.769531 4.933594 -1.96875 4.824219 -2.167969 C 4.71875 -2.367188 4.550781 -2.550781 4.324219 -2.726562 C 4.171875 -2.839844 3.757812 -3.089844 3.078125 -3.472656 C 2.398438 -3.851562 1.914062 -4.15625 1.625 -4.382812 C 1.339844 -4.609375 1.121094 -4.859375 0.972656 -5.132812 C 0.824219 -5.40625 0.75 -5.707031 0.75 -6.035156 C 0.75 -6.605469 0.96875 -7.097656 1.40625 -7.507812 C 1.84375 -7.921875 2.398438 -8.125 3.078125 -8.125 C 3.5 -8.125 3.945312 -8.023438 4.417969 -7.816406 C 4.636719 -7.71875 4.789062 -7.671875 4.882812 -7.671875 C 4.980469 -7.671875 5.066406 -7.699219 5.128906 -7.761719 C 5.195312 -7.820312 5.246094 -7.941406 5.285156 -8.125 Z M 5.5 -8.125 "/>
</g>
<g id="glyph-0-5">
<path d="M 5.078125 -5.367188 L 5.078125 -2.117188 C 5.078125 -1.492188 5.09375 -1.113281 5.125 -0.976562 C 5.152344 -0.835938 5.199219 -0.738281 5.265625 -0.6875 C 5.328125 -0.628906 5.402344 -0.601562 5.492188 -0.601562 C 5.609375 -0.601562 5.75 -0.636719 5.898438 -0.703125 L 5.984375 -0.5 L 4.375 0.164062 L 4.113281 0.164062 L 4.113281 -0.972656 C 3.652344 -0.472656 3.300781 -0.15625 3.058594 -0.03125 C 2.816406 0.101562 2.5625 0.164062 2.289062 0.164062 C 1.992188 0.164062 1.730469 0.078125 1.507812 -0.0976562 C 1.289062 -0.269531 1.132812 -0.492188 1.046875 -0.765625 C 0.960938 -1.039062 0.921875 -1.425781 0.921875 -1.929688 L 0.921875 -4.324219 C 0.921875 -4.578125 0.890625 -4.753906 0.835938 -4.851562 C 0.78125 -4.949219 0.703125 -5.023438 0.59375 -5.078125 C 0.488281 -5.128906 0.292969 -5.152344 0.0117188 -5.148438 L 0.0117188 -5.367188 L 1.890625 -5.367188 L 1.890625 -1.773438 C 1.890625 -1.273438 1.980469 -0.945312 2.152344 -0.789062 C 2.328125 -0.632812 2.539062 -0.554688 2.78125 -0.554688 C 2.949219 -0.554688 3.140625 -0.609375 3.355469 -0.714844 C 3.566406 -0.820312 3.820312 -1.019531 4.113281 -1.320312 L 4.113281 -4.359375 C 4.113281 -4.664062 4.058594 -4.871094 3.945312 -4.976562 C 3.835938 -5.085938 3.601562 -5.140625 3.25 -5.148438 L 3.25 -5.367188 Z M 5.078125 -5.367188 "/>
</g>
<g id="glyph-0-6">
<path d="M 3.84375 -5.523438 L 3.84375 -3.695312 L 3.648438 -3.695312 C 3.5 -4.273438 3.3125 -4.660156 3.078125 -4.867188 C 2.847656 -5.074219 2.550781 -5.179688 2.191406 -5.179688 C 1.917969 -5.179688 1.695312 -5.105469 1.53125 -4.960938 C 1.359375 -4.816406 1.277344 -4.65625 1.277344 -4.484375 C 1.277344 -4.261719 1.339844 -4.074219 1.464844 -3.921875 C 1.585938 -3.757812 1.832031 -3.589844 2.203125 -3.410156 L 3.058594 -2.992188 C 3.851562 -2.609375 4.25 -2.097656 4.25 -1.464844 C 4.25 -0.976562 4.0625 -0.582031 3.695312 -0.285156 C 3.324219 0.015625 2.914062 0.164062 2.453125 0.164062 C 2.125 0.164062 1.75 0.105469 1.328125 -0.0117188 C 1.203125 -0.0507812 1.09375 -0.0703125 1.015625 -0.0703125 C 0.921875 -0.0703125 0.851562 -0.0195312 0.804688 0.0820312 L 0.609375 0.0820312 L 0.609375 -1.835938 L 0.804688 -1.835938 C 0.910156 -1.285156 1.121094 -0.875 1.429688 -0.597656 C 1.738281 -0.320312 2.082031 -0.179688 2.46875 -0.179688 C 2.734375 -0.179688 2.957031 -0.261719 3.125 -0.417969 C 3.296875 -0.578125 3.382812 -0.765625 3.382812 -0.992188 C 3.382812 -1.257812 3.285156 -1.484375 3.097656 -1.671875 C 2.90625 -1.851562 2.527344 -2.085938 1.960938 -2.367188 C 1.394531 -2.648438 1.023438 -2.902344 0.851562 -3.128906 C 0.671875 -3.351562 0.585938 -3.632812 0.585938 -3.972656 C 0.585938 -4.414062 0.738281 -4.78125 1.039062 -5.078125 C 1.34375 -5.375 1.734375 -5.523438 2.214844 -5.523438 C 2.425781 -5.523438 2.679688 -5.480469 2.984375 -5.390625 C 3.179688 -5.332031 3.3125 -5.304688 3.382812 -5.304688 C 3.441406 -5.304688 3.492188 -5.316406 3.527344 -5.34375 C 3.5625 -5.371094 3.601562 -5.429688 3.648438 -5.523438 Z M 3.84375 -5.523438 "/>
</g>
<g id="glyph-0-7">
<path d="M 3.414062 -0.773438 C 2.867188 -0.347656 2.519531 -0.101562 2.378906 -0.0351562 C 2.167969 0.0625 1.941406 0.109375 1.703125 0.109375 C 1.332031 0.109375 1.027344 -0.015625 0.789062 -0.269531 C 0.546875 -0.523438 0.429688 -0.855469 0.429688 -1.273438 C 0.429688 -1.53125 0.484375 -1.757812 0.601562 -1.953125 C 0.761719 -2.214844 1.042969 -2.46875 1.4375 -2.703125 C 1.835938 -2.9375 2.492188 -3.21875 3.414062 -3.554688 L 3.414062 -3.765625 C 3.414062 -4.300781 3.332031 -4.667969 3.160156 -4.867188 C 2.992188 -5.066406 2.742188 -5.167969 2.421875 -5.167969 C 2.171875 -5.167969 1.976562 -5.101562 1.835938 -4.96875 C 1.683594 -4.835938 1.609375 -4.683594 1.609375 -4.511719 L 1.625 -4.171875 C 1.625 -3.992188 1.578125 -3.851562 1.484375 -3.757812 C 1.394531 -3.65625 1.273438 -3.609375 1.125 -3.609375 C 0.980469 -3.609375 0.863281 -3.660156 0.769531 -3.761719 C 0.679688 -3.863281 0.632812 -4 0.632812 -4.179688 C 0.632812 -4.511719 0.804688 -4.820312 1.148438 -5.101562 C 1.492188 -5.382812 1.976562 -5.523438 2.59375 -5.523438 C 3.070312 -5.523438 3.460938 -5.445312 3.765625 -5.285156 C 3.996094 -5.164062 4.167969 -4.976562 4.277344 -4.71875 C 4.347656 -4.546875 4.382812 -4.203125 4.382812 -3.6875 L 4.382812 -1.863281 C 4.382812 -1.351562 4.390625 -1.039062 4.414062 -0.921875 C 4.429688 -0.808594 4.464844 -0.730469 4.507812 -0.691406 C 4.554688 -0.652344 4.605469 -0.632812 4.664062 -0.632812 C 4.726562 -0.632812 4.78125 -0.644531 4.828125 -0.671875 C 4.910156 -0.722656 5.070312 -0.867188 5.304688 -1.101562 L 5.304688 -0.773438 C 4.863281 -0.1875 4.445312 0.105469 4.046875 0.105469 C 3.855469 0.105469 3.703125 0.0390625 3.59375 -0.09375 C 3.476562 -0.226562 3.417969 -0.453125 3.414062 -0.773438 M 3.414062 -1.15625 L 3.414062 -3.199219 C 2.824219 -2.964844 2.445312 -2.796875 2.273438 -2.703125 C 1.964844 -2.527344 1.742188 -2.347656 1.609375 -2.164062 C 1.476562 -1.976562 1.414062 -1.769531 1.414062 -1.546875 C 1.414062 -1.265625 1.496094 -1.03125 1.664062 -0.847656 C 1.832031 -0.660156 2.023438 -0.570312 2.242188 -0.570312 C 2.539062 -0.570312 2.929688 -0.765625 3.414062 -1.15625 Z M 3.414062 -1.15625 "/>
</g>
<g id="glyph-0-8">
<path d="M 5.492188 -2.660156 L 2.414062 -2.660156 L 1.875 -1.40625 C 1.742188 -1.097656 1.675781 -0.867188 1.675781 -0.714844 C 1.675781 -0.59375 1.734375 -0.488281 1.847656 -0.394531 C 1.964844 -0.304688 2.210938 -0.242188 2.59375 -0.21875 L 2.59375 0 L 0.09375 0 L 0.09375 -0.21875 C 0.425781 -0.273438 0.640625 -0.351562 0.738281 -0.445312 C 0.9375 -0.632812 1.15625 -1.015625 1.398438 -1.585938 L 4.195312 -8.125 L 4.398438 -8.125 L 7.164062 -1.515625 C 7.390625 -0.984375 7.589844 -0.640625 7.773438 -0.484375 C 7.953125 -0.324219 8.207031 -0.234375 8.53125 -0.21875 L 8.53125 0 L 5.398438 0 L 5.398438 -0.21875 C 5.710938 -0.230469 5.925781 -0.285156 6.039062 -0.375 C 6.148438 -0.464844 6.203125 -0.574219 6.203125 -0.703125 C 6.203125 -0.875 6.125 -1.144531 5.96875 -1.515625 L 5.492188 -2.660156 M 5.328125 -3.09375 L 3.976562 -6.304688 L 2.59375 -3.09375 Z M 5.328125 -3.09375 "/>
</g>
<g id="glyph-0-9">
<path d="M 2.21875 -8.332031 L 2.21875 -1.210938 C 2.21875 -0.875 2.246094 -0.652344 2.292969 -0.546875 C 2.34375 -0.433594 2.417969 -0.351562 2.519531 -0.296875 C 2.621094 -0.238281 2.808594 -0.210938 3.085938 -0.210938 L 3.085938 0 L 0.457031 0 L 0.457031 -0.210938 C 0.703125 -0.210938 0.871094 -0.234375 0.960938 -0.289062 C 1.050781 -0.335938 1.121094 -0.421875 1.171875 -0.539062 C 1.222656 -0.65625 1.246094 -0.878906 1.25 -1.210938 L 1.25 -6.085938 C 1.246094 -6.691406 1.234375 -7.066406 1.207031 -7.203125 C 1.179688 -7.34375 1.136719 -7.4375 1.074219 -7.488281 C 1.015625 -7.539062 0.9375 -7.5625 0.84375 -7.5625 C 0.742188 -7.5625 0.613281 -7.53125 0.457031 -7.46875 L 0.359375 -7.675781 L 1.957031 -8.332031 Z M 2.21875 -8.332031 "/>
</g>
<g id="glyph-0-10">
<path d="M 1.742188 -8.332031 C 1.90625 -8.332031 2.042969 -8.273438 2.160156 -8.160156 C 2.273438 -8.042969 2.332031 -7.90625 2.332031 -7.742188 C 2.332031 -7.578125 2.273438 -7.4375 2.160156 -7.320312 C 2.042969 -7.203125 1.90625 -7.140625 1.742188 -7.140625 C 1.578125 -7.140625 1.433594 -7.203125 1.320312 -7.320312 C 1.199219 -7.4375 1.140625 -7.578125 1.140625 -7.742188 C 1.140625 -7.90625 1.199219 -8.042969 1.316406 -8.160156 C 1.429688 -8.273438 1.570312 -8.332031 1.742188 -8.332031 M 2.226562 -5.523438 L 2.226562 -1.210938 C 2.226562 -0.875 2.25 -0.652344 2.300781 -0.542969 C 2.347656 -0.429688 2.421875 -0.347656 2.515625 -0.292969 C 2.613281 -0.238281 2.785156 -0.210938 3.039062 -0.210938 L 3.039062 0 L 0.433594 0 L 0.433594 -0.210938 C 0.695312 -0.210938 0.871094 -0.234375 0.960938 -0.289062 C 1.050781 -0.335938 1.121094 -0.421875 1.175781 -0.539062 C 1.226562 -0.65625 1.253906 -0.878906 1.253906 -1.210938 L 1.253906 -3.28125 C 1.253906 -3.863281 1.234375 -4.238281 1.203125 -4.414062 C 1.171875 -4.535156 1.128906 -4.625 1.070312 -4.671875 C 1.015625 -4.722656 0.933594 -4.746094 0.832031 -4.746094 C 0.722656 -4.746094 0.589844 -4.714844 0.433594 -4.65625 L 0.351562 -4.867188 L 1.96875 -5.523438 Z M 2.226562 -5.523438 "/>
</g>
</g>
</defs>
<rect x="-50.4" y="-43.2" width="604.8" height="518.4" fill="rgb(100%, 100%, 100%)" fill-opacity="1"/>
<path fill="none" stroke-width="0.75" stroke-linecap="round" stroke-linejoin="round" stroke="rgb(66.27451%, 66.27451%, 66.27451%)" stroke-opacity="1" stroke-miterlimit="10" d="M 80.480469 401.425781 L 423.519531 401.425781 "/>
<path fill="none" stroke-width="0.75" stroke-linecap="round" stroke-linejoin="round" stroke="rgb(66.27451%, 66.27451%, 66.27451%)" stroke-opacity="1" stroke-miterlimit="10" d="M 427.59375 391.59375 L 76.40625 40.40625 "/>
<path fill-rule="nonzero" fill="rgb(90.196078%, 62.352941%, 0%)" fill-opacity="1" stroke-width="0.75" stroke-linecap="round" stroke-linejoin="round" stroke="rgb(0%, 0%, 0%)" stroke-opacity="1" stroke-miterlimit="10" d="M 80.480469 401.425781 C 80.480469 409.105469 74.253906 415.332031 66.574219 415.332031 C 58.894531 415.332031 52.667969 409.105469 52.667969 401.425781 C 52.667969 393.746094 58.894531 387.519531 66.574219 387.519531 C 74.253906 387.519531 80.480469 393.746094 80.480469 401.425781 "/>
<path fill-rule="nonzero" fill="rgb(90.196078%, 62.352941%, 0%)" fill-opacity="1" stroke-width="0.75" stroke-linecap="round" stroke-linejoin="round" stroke="rgb(0%, 0%, 0%)" stroke-opacity="1" stroke-miterlimit="10" d="M 451.332031 401.425781 C 451.332031 409.105469 445.105469 415.332031 437.425781 415.332031 C 429.746094 415.332031 423.519531 409.105469 423.519531 401.425781 C 423.519531 393.746094 429.746094 387.519531 437.425781 387.519531 C 445.105469 387.519531 451.332031 393.746094 451.332031 401.425781 "/>
<path fill-rule="nonzero" fill="rgb(90.196078%, 62.352941%, 0%)" fill-opacity="1" stroke-width="0.75" stroke-linecap="round" stroke-linejoin="round" stroke="rgb(0%, 0%, 0%)" stroke-opacity="1" stroke-miterlimit="10" d="M 80.480469 30.574219 C 80.480469 38.253906 74.253906 44.480469 66.574219 44.480469 C 58.894531 44.480469 52.667969 38.253906 52.667969 30.574219 C 52.667969 22.894531 58.894531 16.667969 66.574219 16.667969 C 74.253906 16.667969 80.480469 22.894531 80.480469 30.574219 "/>
<g fill="rgb(0%, 0%, 54.509804%)" fill-opacity="1">
<use xlink:href="#glyph-0-0" x="55.238281" y="405.5"/>
<use xlink:href="#glyph-0-1" x="59.908203" y="405.5"/>
<use xlink:href="#glyph-0-2" x="65.908203" y="405.5"/>
<use xlink:href="#glyph-0-3" x="71.908203" y="405.5"/>
</g>
<g fill="rgb(0%, 0%, 54.509804%)" fill-opacity="1">
<use xlink:href="#glyph-0-4" x="423.089844" y="405.398438"/>
<use xlink:href="#glyph-0-5" x="429.763672" y="405.398438"/>
<use xlink:href="#glyph-0-6" x="435.763672" y="405.398438"/>
<use xlink:href="#glyph-0-7" x="440.433594" y="405.398438"/>
<use xlink:href="#glyph-0-3" x="445.759766" y="405.398438"/>
</g>
<g fill="rgb(0%, 0%, 54.509804%)" fill-opacity="1">
<use xlink:href="#glyph-0-8" x="58.90625" y="34.738281"/>
<use xlink:href="#glyph-0-9" x="67.572266" y="34.738281"/>
<use xlink:href="#glyph-0-10" x="70.90625" y="34.738281"/>
</g>
</svg>
