<?xml version="1.0" encoding="UTF-8"?>
<svg xmlns="http://www.w3.org/2000/svg" xmlns:xlink="http://www.w3.org/1999/xlink" width="504" height="180" viewBox="0 0 504 180">
<defs>
<g>
<g id="glyph-0-0">
<path d="M 5.492188 -2.660156 L 2.414062 -2.660156 L 1.875 -1.40625 C 1.742188 -1.097656 1.675781 -0.867188 1.675781 -0.714844 C 1.675781 -0.59375 1.734375 -0.488281 1.847656 -0.394531 C 1.964844 -0.304688 2.210938 -0.242188 2.59375 -0.21875 L 2.59375 0 L 0.09375 0 L 0.09375 -0.21875 C 0.425781 -0.273438 0.640625 -0.351562 0.738281 -0.445312 C 0.9375 -0.632812 1.15625 -1.015625 1.398438 -1.585938 L 4.195312 -8.125 L 4.398438 -8.125 L 7.164062 -1.515625 C 7.390625 -0.984375 7.589844 -0.640625 7.773438 -0.484375 C 7.953125 -0.324219 8.207031 -0.234375 8.53125 -0.21875 L 8.53125 0 L 5.398438 0 L 5.398438 -0.21875 C 5.710938 -0.230469 5.925781 -0.285156 6.039062 -0.375 C 6.148438 -0.464844 6.203125 -0.574219 6.203125 -0.703125 C 6.203125 -0.875 6.125 -1.144531 5.96875 -1.515625 L 5.492188 -2.660156 M 5.328125 -3.09375 L 3.976562 -6.304688 L 2.59375 -3.09375 Z M 5.328125 -3.09375 "/>
</g>
<g id="glyph-0-1">
<path d="M 1.9375 -4.390625 C 2.566406 -5.144531 3.167969 -5.523438 3.738281 -5.523438 C 4.03125 -5.523438 4.28125 -5.453125 4.492188 -5.304688 C 4.703125 -5.160156 4.871094 -4.917969 5 -4.582031 C 5.082031 -4.347656 5.125 -3.988281 5.125 -3.503906 L 5.125 -1.210938 C 5.125 -0.875 5.152344 -0.640625 5.210938 -0.523438 C 5.25 -0.421875 5.320312 -0.347656 5.417969 -0.292969 C 5.511719 -0.238281 5.6875 -0.210938 5.945312 -0.210938 L 5.945312 0 L 3.292969 0 L 3.292969 -0.210938 L 3.40625 -0.210938 C 3.652344 -0.210938 3.828125 -0.25 3.929688 -0.324219 C 4.027344 -0.402344 4.097656 -0.511719 4.136719 -0.664062 C 4.152344 -0.71875 4.160156 -0.902344 4.160156 -1.210938 L 4.160156 -3.410156 C 4.160156 -3.898438 4.097656 -4.253906 3.96875 -4.472656 C 3.84375 -4.695312 3.628906 -4.804688 3.328125 -4.804688 C 2.863281 -4.804688 2.398438 -4.550781 1.9375 -4.042969 L 1.9375 -1.210938 C 1.9375 -0.851562 1.960938 -0.625 2.003906 -0.539062 C 2.058594 -0.425781 2.132812 -0.34375 2.230469 -0.289062 C 2.324219 -0.238281 2.519531 -0.210938 2.8125 -0.210938 L 2.8125 0 L 0.15625 0 L 0.15625 -0.210938 L 0.273438 -0.210938 C 0.546875 -0.210938 0.734375 -0.28125 0.828125 -0.417969 C 0.925781 -0.558594 0.972656 -0.820312 0.972656 -1.210938 L 0.972656 -3.203125 C 0.972656 -3.851562 0.957031 -4.242188 0.929688 -4.382812 C 0.898438 -4.523438 0.855469 -4.617188 0.792969 -4.671875 C 0.734375 -4.71875 0.652344 -4.746094 0.550781 -4.746094 C 0.441406 -4.746094 0.308594 -4.714844 0.15625 -4.65625 L 0.0703125 -4.867188 L 1.6875 -5.523438 L 1.9375 -5.523438 Z M 1.9375 -4.390625 "/>
</g>
<g id="glyph-0-2">
<path d="M 3.414062 -0.773438 C 2.867188 -0.347656 2.519531 -0.101562 2.378906 -0.0351562 C 2.167969 0.0625 1.941406 0.109375 1.703125 0.109375 C 1.332031 0.109375 1.027344 -0.015625 0.789062 -0.269531 C 0.546875 -0.523438 0.429688 -0.855469 0.429688 -1.273438 C 0.429688 -1.53125 0.484375 -1.757812 0.601562 -1.953125 C 0.761719 -2.214844 1.042969 -2.46875 1.4375 -2.703125 C 1.835938 -2.9375 2.492188 -3.21875 3.414062 -3.554688 L 3.414062 -3.765625 C 3.414062 -4.300781 3.332031 -4.667969 3.160156 -4.867188 C 2.992188 -5.066406 2.742188 -5.167969 2.421875 -5.167969 C 2.171875 -5.167969 1.976562 -5.101562 1.835938 -4.96875 C 1.683594 -4.835938 1.609375 -4.683594 1.609375 -4.511719 L 1.625 -4.171875 C 1.625 -3.992188 1.578125 -3.851562 1.484375 -3.757812 C 1.394531 -3.65625 1.273438 -3.609375 1.125 -3.609375 C 0.980469 -3.609375 0.863281 -3.660156 0.769531 -3.761719 C 0.679688 -3.863281 0.632812 -4 0.632812 -4.179688 C 0.632812 -4.511719 0.804688 -4.820312 1.148438 -5.101562 C 1.492188 -5.382812 1.976562 -5.523438 2.59375 -5.523438 C 3.070312 -5.523438 3.460938 -5.445312 3.765625 -5.285156 C 3.996094 -5.164062 4.167969 -4.976562 4.277344 -4.71875 C 4.347656 -4.546875 4.382812 -4.203125 4.382812 -3.6875 L 4.382812 -1.863281 C 4.382812 -1.351562 4.390625 -1.039062 4.414062 -0.921875 C 4.429688 -0.808594 4.464844 -0.730469 4.507812 -0.691406 C 4.554688 -0.652344 4.605469 -0.632812 4.664062 -0.632812 C 4.726562 -0.632812 4.78125 -0.644531 4.828125 -0.671875 C 4.910156 -0.722656 5.070312 -0.867188 5.304688 -1.101562 L 5.304688 -0.773438 C 4.863281 -0.1875 4.445312 0.105469 4.046875 0.105469 C 3.855469 0.105469 3.703125 0.0390625 3.59375 -0.09375 C 3.476562 -0.226562 3.417969 -0.453125 3.414062 -0.773438 M 3.414062 -1.15625 L 3.414062 -3.199219 C 2.824219 -2.964844 2.445312 -2.796875 2.273438 -2.703125 C 1.964844 -2.527344 1.742188 -2.347656 1.609375 -2.164062 C 1.476562 -1.976562 1.414062 -1.769531 1.414062 -1.546875 C 1.414062 -1.265625 1.496094 -1.03125 1.664062 -0.847656 C 1.832031 -0.660156 2.023438 -0.570312 2.242188 -0.570312 C 2.539062 -0.570312 2.929688 -0.765625 3.414062 -1.15625 Z M 3.414062 -1.15625 "/>
</g>
<g id="glyph-0-3">
<path d="M 5.542969 -4.054688 C 6.09375 -3.9375 6.503906 -3.75 6.78125 -3.492188 C 7.15625 -3.132812 7.347656 -2.691406 7.347656 -2.171875 C 7.347656 -1.777344 7.222656 -1.402344 6.972656 -1.039062 C 6.722656 -0.679688 6.378906 -0.414062 5.945312 -0.25 C 5.507812 -0.0820312 4.84375 0 3.949219 0 L 0.199219 0 L 0.199219 -0.21875 L 0.5 -0.21875 C 0.828125 -0.21875 1.066406 -0.320312 1.210938 -0.53125 C 1.300781 -0.667969 1.347656 -0.960938 1.347656 -1.40625 L 1.347656 -6.539062 C 1.347656 -7.03125 1.289062 -7.34375 1.179688 -7.46875 C 1.023438 -7.640625 0.796875 -7.726562 0.5 -7.726562 L 0.199219 -7.726562 L 0.199219 -7.945312 L 3.632812 -7.945312 C 4.273438 -7.945312 4.789062 -7.898438 5.171875 -7.804688 C 5.757812 -7.664062 6.207031 -7.414062 6.515625 -7.058594 C 6.824219 -6.699219 6.976562 -6.289062 6.976562 -5.824219 C 6.976562 -5.425781 6.855469 -5.070312 6.617188 -4.753906 C 6.371094 -4.441406 6.015625 -4.207031 5.542969 -4.054688 M 2.472656 -4.371094 C 2.617188 -4.34375 2.78125 -4.324219 2.96875 -4.308594 C 3.152344 -4.296875 3.359375 -4.289062 3.578125 -4.289062 C 4.148438 -4.289062 4.578125 -4.351562 4.867188 -4.472656 C 5.152344 -4.597656 5.375 -4.785156 5.523438 -5.039062 C 5.679688 -5.292969 5.753906 -5.570312 5.753906 -5.871094 C 5.753906 -6.335938 5.5625 -6.734375 5.1875 -7.0625 C 4.804688 -7.390625 4.253906 -7.554688 3.527344 -7.554688 C 3.136719 -7.554688 2.785156 -7.507812 2.472656 -7.421875 L 2.472656 -4.371094 M 2.472656 -0.574219 C 2.925781 -0.46875 3.371094 -0.414062 3.8125 -0.414062 C 4.519531 -0.414062 5.058594 -0.574219 5.429688 -0.894531 C 5.800781 -1.210938 5.988281 -1.605469 5.988281 -2.074219 C 5.988281 -2.382812 5.902344 -2.679688 5.734375 -2.964844 C 5.566406 -3.25 5.292969 -3.476562 4.914062 -3.640625 C 4.535156 -3.804688 4.066406 -3.882812 3.507812 -3.882812 C 3.265625 -3.882812 3.058594 -3.878906 2.890625 -3.875 C 2.714844 -3.863281 2.578125 -3.851562 2.472656 -3.832031 Z M 2.472656 -0.574219 "/>
</g>
<g id="glyph-0-4">
<path d="M 1.277344 -3.34375 C 1.273438 -2.546875 1.464844 -1.921875 1.859375 -1.46875 C 2.246094 -1.015625 2.707031 -0.789062 3.234375 -0.789062 C 3.585938 -0.789062 3.890625 -0.886719 4.152344 -1.082031 C 4.410156 -1.273438 4.628906 -1.605469 4.804688 -2.074219 L 4.984375 -1.957031 C 4.90625 -1.421875 4.664062 -0.933594 4.273438 -0.496094 C 3.875 -0.0546875 3.382812 0.164062 2.789062 0.164062 C 2.144531 0.164062 1.59375 -0.0859375 1.132812 -0.589844 C 0.675781 -1.089844 0.445312 -1.765625 0.445312 -2.613281 C 0.445312 -3.53125 0.679688 -4.246094 1.152344 -4.761719 C 1.621094 -5.273438 2.214844 -5.53125 2.921875 -5.53125 C 3.523438 -5.53125 4.019531 -5.332031 4.40625 -4.9375 C 4.792969 -4.539062 4.984375 -4.007812 4.984375 -3.34375 L 1.277344 -3.34375 M 1.277344 -3.6875 L 3.761719 -3.6875 C 3.742188 -4.027344 3.699219 -4.273438 3.640625 -4.414062 C 3.539062 -4.628906 3.394531 -4.800781 3.203125 -4.929688 C 3.007812 -5.050781 2.804688 -5.113281 2.59375 -5.117188 C 2.269531 -5.113281 1.980469 -4.988281 1.726562 -4.738281 C 1.46875 -4.484375 1.320312 -4.132812 1.277344 -3.6875 Z M 1.277344 -3.6875 "/>
</g>
<g id="glyph-0-5">
<path d="M 7.226562 -8.125 L 7.40625 -5.425781 L 7.226562 -5.425781 C 6.980469 -6.234375 6.636719 -6.816406 6.1875 -7.171875 C 5.738281 -7.527344 5.199219 -7.703125 4.570312 -7.703125 C 4.042969 -7.703125 3.566406 -7.570312 3.140625 -7.304688 C 2.714844 -7.035156 2.378906 -6.609375 2.136719 -6.023438 C 1.890625 -5.4375 1.769531 -4.707031 1.769531 -3.835938 C 1.769531 -3.117188 1.882812 -2.496094 2.117188 -1.96875 C 2.34375 -1.441406 2.691406 -1.035156 3.15625 -0.757812 C 3.617188 -0.476562 4.144531 -0.332031 4.742188 -0.335938 C 5.257812 -0.332031 5.710938 -0.445312 6.105469 -0.664062 C 6.5 -0.886719 6.933594 -1.324219 7.40625 -1.980469 L 7.585938 -1.863281 C 7.1875 -1.15625 6.722656 -0.640625 6.195312 -0.3125 C 5.660156 0.015625 5.03125 0.179688 4.300781 0.179688 C 2.984375 0.179688 1.964844 -0.308594 1.242188 -1.28125 C 0.703125 -2.007812 0.433594 -2.863281 0.433594 -3.851562 C 0.433594 -4.640625 0.609375 -5.371094 0.96875 -6.035156 C 1.320312 -6.699219 1.8125 -7.214844 2.433594 -7.578125 C 3.058594 -7.945312 3.738281 -8.125 4.476562 -8.125 C 5.050781 -8.125 5.617188 -7.984375 6.175781 -7.703125 C 6.339844 -7.617188 6.457031 -7.578125 6.527344 -7.578125 C 6.632812 -7.578125 6.722656 -7.613281 6.804688 -7.6875 C 6.902344 -7.792969 6.976562 -7.9375 7.019531 -8.125 Z M 7.226562 -8.125 "/>
</g>
<g id="glyph-0-6">
<path d="M 2.21875 -8.332031 L 2.21875 -1.210938 C 2.21875 -0.875 2.246094 -0.652344 2.292969 -0.546875 C 2.34375 -0.433594 2.417969 -0.351562 2.519531 -0.296875 C 2.621094 -0.238281 2.808594 -0.210938 3.085938 -0.210938 L 3.085938 0 L 0.457031 0 L 0.457031 -0.210938 C 0.703125 -0.210938 0.871094 -0.234375 0.960938 -0.289062 C 1.050781 -0.335938 1.121094 -0.421875 1.171875 -0.539062 C 1.222656 -0.65625 1.246094 -0.878906 1.25 -1.210938 L 1.25 -6.085938 C 1.246094 -6.691406 1.234375 -7.066406 1.207031 -7.203125 C 1.179688 -7.34375 1.136719 -7.4375 1.074219 -7.488281 C 1.015625 -7.539062 0.9375 -7.5625 0.84375 -7.5625 C 0.742188 -7.5625 0.613281 -7.53125 0.457031 -7.46875 L 0.359375 -7.675781 L 1.957031 -8.332031 Z M 2.21875 -8.332031 "/>
</g>
<g id="glyph-0-7">
<path d="M 3 -5.523438 C 3.8125 -5.523438 4.464844 -5.214844 4.957031 -4.601562 C 5.375 -4.070312 5.585938 -3.464844 5.585938 -2.78125 C 5.585938 -2.304688 5.46875 -1.816406 5.238281 -1.324219 C 5.007812 -0.832031 4.691406 -0.460938 4.285156 -0.210938 C 3.882812 0.0390625 3.429688 0.164062 2.9375 0.164062 C 2.125 0.164062 1.484375 -0.160156 1.007812 -0.804688 C 0.605469 -1.34375 0.40625 -1.953125 0.40625 -2.632812 C 0.40625 -3.125 0.527344 -3.613281 0.769531 -4.097656 C 1.015625 -4.585938 1.335938 -4.945312 1.734375 -5.175781 C 2.132812 -5.410156 2.554688 -5.523438 3 -5.523438 M 2.820312 -5.144531 C 2.609375 -5.144531 2.402344 -5.082031 2.195312 -4.960938 C 1.984375 -4.835938 1.816406 -4.621094 1.6875 -4.3125 C 1.558594 -4.003906 1.492188 -3.605469 1.492188 -3.125 C 1.492188 -2.339844 1.648438 -1.667969 1.960938 -1.101562 C 2.269531 -0.535156 2.679688 -0.25 3.1875 -0.25 C 3.566406 -0.25 3.878906 -0.40625 4.125 -0.71875 C 4.371094 -1.03125 4.492188 -1.570312 4.492188 -2.332031 C 4.492188 -3.285156 4.289062 -4.035156 3.878906 -4.582031 C 3.601562 -4.957031 3.246094 -5.144531 2.820312 -5.144531 Z M 2.820312 -5.144531 "/>
</g>
<g id="glyph-0-8">
<path d="M 0.203125 0 L 0.203125 -0.21875 L 0.503906 -0.21875 C 0.839844 -0.21875 1.078125 -0.324219 1.21875 -0.539062 C 1.304688 -0.667969 1.347656 -0.957031 1.347656 -1.40625 L 1.347656 -6.539062 C 1.347656 -7.035156 1.292969 -7.34375 1.183594 -7.46875 C 1.03125 -7.640625 0.804688 -7.726562 0.503906 -7.726562 L 0.203125 -7.726562 L 0.203125 -7.945312 L 3.4375 -7.945312 C 4.625 -7.945312 5.53125 -7.8125 6.148438 -7.539062 C 6.769531 -7.273438 7.265625 -6.820312 7.644531 -6.195312 C 8.019531 -5.5625 8.210938 -4.835938 8.210938 -4.015625 C 8.210938 -2.90625 7.871094 -1.984375 7.203125 -1.242188 C 6.445312 -0.414062 5.296875 0 3.757812 0 L 0.203125 0 M 2.472656 -0.574219 C 2.96875 -0.464844 3.382812 -0.410156 3.71875 -0.410156 C 4.625 -0.410156 5.378906 -0.730469 5.976562 -1.367188 C 6.574219 -2 6.875 -2.863281 6.875 -3.953125 C 6.875 -5.050781 6.574219 -5.917969 5.976562 -6.550781 C 5.378906 -7.183594 4.609375 -7.5 3.671875 -7.5 C 3.320312 -7.5 2.921875 -7.441406 2.472656 -7.328125 Z M 2.472656 -0.574219 "/>
</g>
<g id="glyph-0-9">
<path d="M 0.101562 -5.367188 L 2.625 -5.367188 L 2.625 -5.148438 L 2.460938 -5.148438 C 2.308594 -5.148438 2.191406 -5.113281 2.113281 -5.039062 C 2.03125 -4.964844 1.992188 -4.863281 1.992188 -4.742188 C 1.992188 -4.601562 2.03125 -4.441406 2.117188 -4.253906 L 3.363281 -1.289062 L 4.617188 -4.367188 C 4.707031 -4.582031 4.75 -4.75 4.75 -4.863281 C 4.75 -4.917969 4.734375 -4.960938 4.703125 -5 C 4.660156 -5.054688 4.605469 -5.097656 4.539062 -5.117188 C 4.472656 -5.140625 4.339844 -5.148438 4.136719 -5.148438 L 4.136719 -5.367188 L 5.890625 -5.367188 L 5.890625 -5.148438 C 5.683594 -5.132812 5.542969 -5.09375 5.46875 -5.027344 C 5.328125 -4.910156 5.207031 -4.714844 5.097656 -4.441406 L 3.195312 0.164062 L 2.953125 0.164062 L 1.039062 -4.367188 C 0.949219 -4.578125 0.867188 -4.726562 0.789062 -4.820312 C 0.710938 -4.910156 0.613281 -4.988281 0.492188 -5.050781 C 0.425781 -5.085938 0.292969 -5.117188 0.101562 -5.148438 Z M 0.101562 -5.367188 "/>
</g>
<g id="glyph-0-10">
<path d="M 1.742188 -8.332031 C 1.90625 -8.332031 2.042969 -8.273438 2.160156 -8.160156 C 2.273438 -8.042969 2.332031 -7.90625 2.332031 -7.742188 C 2.332031 -7.578125 2.273438 -7.4375 2.160156 -7.320312 C 2.042969 -7.203125 1.90625 -7.140625 1.742188 -7.140625 C 1.578125 -7.140625 1.433594 -7.203125 1.320312 -7.320312 C 1.199219 -7.4375 1.140625 -7.578125 1.140625 -7.742188 C 1.140625 -7.90625 1.199219 -8.042969 1.316406 -8.160156 C 1.429688 -8.273438 1.570312 -8.332031 1.742188 -8.332031 M 2.226562 -5.523438 L 2.226562 -1.210938 C 2.226562 -0.875 2.25 -0.652344 2.300781 -0.542969 C 2.347656 -0.429688 2.421875 -0.347656 2.515625 -0.292969 C 2.613281 -0.238281 2.785156 -0.210938 3.039062 -0.210938 L 3.039062 0 L 0.433594 0 L 0.433594 -0.210938 C 0.695312 -0.210938 0.871094 -0.234375 0.960938 -0.289062 C 1.050781 -0.335938 1.121094 -0.421875 1.175781 -0.539062 C 1.226562 -0.65625 1.253906 -0.878906 1.253906 -1.210938 L 1.253906 -3.28125 C 1.253906 -3.863281 1.234375 -4.238281 1.203125 -4.414062 C 1.171875 -4.535156 1.128906 -4.625 1.070312 -4.671875 C 1.015625 -4.722656 0.933594 -4.746094 0.832031 -4.746094 C 0.722656 -4.746094 0.589844 -4.714844 0.433594 -4.65625 L 0.351562 -4.867188 L 1.96875 -5.523438 Z M 2.226562 -5.523438 "/>
</g>
<g id="glyph-0-11">
<path d="M 4.164062 -0.601562 C 3.902344 -0.332031 3.648438 -0.132812 3.398438 -0.015625 C 3.148438 0.105469 2.878906 0.164062 2.589844 0.164062 C 2.003906 0.164062 1.492188 -0.0820312 1.054688 -0.570312 C 0.617188 -1.0625 0.398438 -1.691406 0.398438 -2.460938 C 0.398438 -3.230469 0.640625 -3.933594 1.125 -4.574219 C 1.609375 -5.210938 2.234375 -5.53125 2.992188 -5.53125 C 3.464844 -5.53125 3.855469 -5.378906 4.164062 -5.078125 L 4.164062 -6.070312 C 4.164062 -6.683594 4.152344 -7.0625 4.121094 -7.203125 C 4.09375 -7.34375 4.046875 -7.4375 3.984375 -7.488281 C 3.921875 -7.539062 3.84375 -7.5625 3.75 -7.5625 C 3.648438 -7.5625 3.511719 -7.53125 3.34375 -7.46875 L 3.269531 -7.675781 L 4.867188 -8.332031 L 5.132812 -8.332031 L 5.132812 -2.125 C 5.132812 -1.496094 5.148438 -1.113281 5.175781 -0.976562 C 5.207031 -0.835938 5.253906 -0.738281 5.316406 -0.6875 C 5.382812 -0.628906 5.457031 -0.601562 5.542969 -0.601562 C 5.648438 -0.601562 5.789062 -0.636719 5.964844 -0.703125 L 6.03125 -0.5 L 4.4375 0.164062 L 4.164062 0.164062 L 4.164062 -0.601562 M 4.164062 -1.015625 L 4.164062 -3.78125 C 4.140625 -4.042969 4.070312 -4.285156 3.953125 -4.507812 C 3.835938 -4.722656 3.683594 -4.890625 3.488281 -5 C 3.296875 -5.113281 3.105469 -5.167969 2.921875 -5.167969 C 2.578125 -5.167969 2.273438 -5.011719 2.003906 -4.703125 C 1.648438 -4.296875 1.46875 -3.703125 1.46875 -2.921875 C 1.46875 -2.132812 1.640625 -1.53125 1.984375 -1.109375 C 2.328125 -0.691406 2.710938 -0.480469 3.132812 -0.480469 C 3.488281 -0.480469 3.832031 -0.65625 4.164062 -1.015625 Z M 4.164062 -1.015625 "/>
</g>
<g id="glyph-0-12">
<path d="M 6.878906 -2.195312 L 7.070312 -2.15625 L 6.390625 0 L 0.242188 0 L 0.242188 -0.21875 L 0.539062 -0.21875 C 0.875 -0.21875 1.113281 -0.324219 1.257812 -0.546875 C 1.34375 -0.667969 1.382812 -0.957031 1.382812 -1.414062 L 1.382812 -6.539062 C 1.382812 -7.035156 1.328125 -7.34375 1.21875 -7.46875 C 1.066406 -7.640625 0.839844 -7.726562 0.539062 -7.726562 L 0.242188 -7.726562 L 0.242188 -7.945312 L 3.835938 -7.945312 L 3.835938 -7.726562 C 3.414062 -7.730469 3.121094 -7.695312 2.949219 -7.609375 C 2.78125 -7.53125 2.664062 -7.425781 2.601562 -7.300781 C 2.539062 -7.175781 2.507812 -6.875 2.507812 -6.40625 L 2.507812 -1.414062 C 2.507812 -1.085938 2.539062 -0.863281 2.601562 -0.742188 C 2.648438 -0.664062 2.71875 -0.601562 2.820312 -0.5625 C 2.914062 -0.523438 3.21875 -0.503906 3.734375 -0.503906 L 4.3125 -0.503906 C 4.921875 -0.503906 5.351562 -0.546875 5.59375 -0.640625 C 5.84375 -0.726562 6.066406 -0.886719 6.269531 -1.117188 C 6.472656 -1.34375 6.675781 -1.703125 6.878906 -2.195312 Z M 6.878906 -2.195312 "/>
</g>
<g id="glyph-0-13">
<path d="M 5.078125 -5.367188 L 5.078125 -2.117188 C 5.078125 -1.492188 5.09375 -1.113281 5.125 -0.976562 C 5.152344 -0.835938 5.199219 -0.738281 5.265625 -0.6875 C 5.328125 -0.628906 5.402344 -0.601562 5.492188 -0.601562 C 5.609375 -0.601562 5.75 -0.636719 5.898438 -0.703125 L 5.984375 -0.5 L 4.375 0.164062 L 4.113281 0.164062 L 4.113281 -0.972656 C 3.652344 -0.472656 3.300781 -0.15625 3.058594 -0.03125 C 2.816406 0.101562 2.5625 0.164062 2.289062 0.164062 C 1.992188 0.164062 1.730469 0.078125 1.507812 -0.0976562 C 1.289062 -0.269531 1.132812 -0.492188 1.046875 -0.765625 C 0.960938 -1.039062 0.921875 -1.425781 0.921875 -1.929688 L 0.921875 -4.324219 C 0.921875 -4.578125 0.890625 -4.753906 0.835938 -4.851562 C 0.78125 -4.949219 0.703125 -5.023438 0.59375 -5.078125 C 0.488281 -5.128906 0.292969 -5.152344 0.0117188 -5.148438 L 0.0117188 -5.367188 L 1.890625 -5.367188 L 1.890625 -1.773438 C 1.890625 -1.273438 1.980469 -0.945312 2.152344 -0.789062 C 2.328125 -0.632812 2.539062 -0.554688 2.78125 -0.554688 C 2.949219 -0.554688 3.140625 -0.609375 3.355469 -0.714844 C 3.566406 -0.820312 3.820312 -1.019531 4.113281 -1.320312 L 4.113281 -4.359375 C 4.113281 -4.664062 4.058594 -4.871094 3.945312 -4.976562 C 3.835938 -5.085938 3.601562 -5.140625 3.25 -5.148438 L 3.25 -5.367188 Z M 5.078125 -5.367188 "/>
</g>
<g id="glyph-0-14">
<path d="M 1.960938 -8.332031 L 1.960938 -2.992188 L 3.328125 -4.234375 C 3.617188 -4.5 3.785156 -4.671875 3.832031 -4.742188 C 3.863281 -4.789062 3.878906 -4.835938 3.878906 -4.882812 C 3.878906 -4.957031 3.847656 -5.027344 3.78125 -5.082031 C 3.71875 -5.140625 3.609375 -5.171875 3.460938 -5.179688 L 3.460938 -5.367188 L 5.796875 -5.367188 L 5.796875 -5.179688 C 5.472656 -5.171875 5.207031 -5.121094 4.996094 -5.03125 C 4.78125 -4.941406 4.546875 -4.78125 4.296875 -4.554688 L 2.917969 -3.28125 L 4.296875 -1.539062 C 4.675781 -1.0625 4.933594 -0.757812 5.070312 -0.625 C 5.257812 -0.441406 5.421875 -0.324219 5.5625 -0.269531 C 5.65625 -0.230469 5.828125 -0.210938 6.070312 -0.210938 L 6.070312 0 L 3.460938 0 L 3.460938 -0.210938 C 3.609375 -0.214844 3.710938 -0.238281 3.765625 -0.277344 C 3.816406 -0.320312 3.84375 -0.375 3.84375 -0.453125 C 3.84375 -0.539062 3.765625 -0.6875 3.609375 -0.882812 L 1.960938 -2.988281 L 1.960938 -1.207031 C 1.960938 -0.859375 1.988281 -0.628906 2.035156 -0.523438 C 2.085938 -0.410156 2.152344 -0.335938 2.242188 -0.289062 C 2.332031 -0.242188 2.527344 -0.214844 2.828125 -0.210938 L 2.828125 0 L 0.101562 0 L 0.101562 -0.210938 C 0.371094 -0.210938 0.578125 -0.242188 0.714844 -0.3125 C 0.796875 -0.351562 0.859375 -0.417969 0.902344 -0.507812 C 0.960938 -0.636719 0.992188 -0.859375 0.992188 -1.179688 L 0.992188 -6.0625 C 0.992188 -6.6875 0.976562 -7.066406 0.949219 -7.203125 C 0.921875 -7.34375 0.875 -7.4375 0.8125 -7.492188 C 0.75 -7.542969 0.667969 -7.570312 0.570312 -7.570312 C 0.484375 -7.570312 0.363281 -7.535156 0.199219 -7.46875 L 0.101562 -7.675781 L 1.695312 -8.332031 Z M 1.960938 -8.332031 "/>
</g>
</g>
</defs>
<rect x="-50.4" y="-18" width="604.8" height="216" fill="rgb(100%, 100%, 100%)" fill-opacity="1"/>
<path fill="none" stroke-width="0.75" stroke-linecap="round" stroke-linejoin="round" stroke="rgb(66.27451%, 66.27451%, 66.27451%)" stroke-opacity="1" stroke-miterlimit="10" d="M 282.058594 79.691406 L 323.953125 104.820312 "/>
<path fill="none" stroke-width="0.75" stroke-linecap="round" stroke-linejoin="round" stroke="rgb(66.27451%, 66.27451%, 66.27451%)" stroke-opacity="1" stroke-miterlimit="10" d="M 289.070312 148.65625 L 276.910156 81.660156 "/>
<path fill="none" stroke-width="0.75" stroke-linecap="round" stroke-linejoin="round" stroke="rgb(66.27451%, 66.27451%, 66.27451%)" stroke-opacity="1" stroke-miterlimit="10" d="M 271.988281 69.917969 L 238.683594 17.957031 "/>
<path fill="none" stroke-width="0.75" stroke-linecap="round" stroke-linejoin="round" stroke="rgb(66.27451%, 66.27451%, 66.27451%)" stroke-opacity="1" stroke-miterlimit="10" d="M 294.871094 150.132812 L 325.285156 112.28125 "/>
<path fill-rule="nonzero" fill="rgb(66.27451%, 66.27451%, 66.27451%)" fill-opacity="1" stroke-width="0.75" stroke-linecap="round" stroke-linejoin="round" stroke="rgb(66.27451%, 66.27451%, 66.27451%)" stroke-opacity="1" stroke-miterlimit="10" d="M 309.34375 101.179688 L 310.578125 101.199219 L 311.890625 101.269531 L 313.3125 101.398438 L 314.878906 101.621094 L 316.679688 101.980469 L 318.929688 102.613281 L 323.917969 104.882812 L 323.992188 104.757812 L 319.640625 101.429688 L 318.023438 99.742188 L 316.859375 98.320312 L 315.925781 97.042969 L 315.140625 95.851562 L 314.460938 94.726562 L 313.863281 93.648438 Z M 309.34375 101.179688 "/>
<path fill-rule="nonzero" fill="rgb(66.27451%, 66.27451%, 66.27451%)" fill-opacity="1" stroke-width="0.75" stroke-linecap="round" stroke-linejoin="round" stroke="rgb(66.27451%, 66.27451%, 66.27451%)" stroke-opacity="1" stroke-miterlimit="10" d="M 283.800781 95.042969 L 283.003906 94.101562 L 282.1875 93.070312 L 281.351562 91.914062 L 280.484375 90.589844 L 279.570312 89 L 278.558594 86.890625 L 276.980469 81.644531 L 276.839844 81.671875 L 277.203125 87.136719 L 277 89.464844 L 276.699219 91.277344 L 276.351562 92.824219 L 275.976562 94.199219 L 275.574219 95.449219 L 275.160156 96.613281 Z M 283.800781 95.042969 "/>
<path fill-rule="nonzero" fill="rgb(66.27451%, 66.27451%, 66.27451%)" fill-opacity="1" stroke-width="0.75" stroke-linecap="round" stroke-linejoin="round" stroke="rgb(66.27451%, 66.27451%, 66.27451%)" stroke-opacity="1" stroke-miterlimit="10" d="M 250.152344 27.710938 L 249.054688 27.144531 L 247.910156 26.5 L 246.695312 25.75 L 245.390625 24.855469 L 243.9375 23.730469 L 242.203125 22.167969 L 238.746094 17.917969 L 238.625 17.996094 L 241.042969 22.910156 L 241.738281 25.140625 L 242.152344 26.929688 L 242.417969 28.492188 L 242.59375 29.90625 L 242.699219 31.21875 L 242.757812 32.449219 Z M 250.152344 27.710938 "/>
<path fill-rule="nonzero" fill="rgb(66.27451%, 66.27451%, 66.27451%)" fill-opacity="1" stroke-width="0.75" stroke-linecap="round" stroke-linejoin="round" stroke="rgb(66.27451%, 66.27451%, 66.27451%)" stroke-opacity="1" stroke-miterlimit="10" d="M 319.691406 126.257812 L 319.878906 125.039062 L 320.125 123.746094 L 320.449219 122.359375 L 320.882812 120.835938 L 321.484375 119.101562 L 322.414062 116.957031 L 325.34375 112.328125 L 325.230469 112.238281 L 321.339844 116.09375 L 319.445312 117.464844 L 317.882812 118.425781 L 316.488281 119.175781 L 315.203125 119.792969 L 313.992188 120.308594 L 312.84375 120.757812 Z M 319.691406 126.257812 "/>
<path fill-rule="nonzero" fill="rgb(90.196078%, 62.352941%, 0%)" fill-opacity="1" stroke-width="0.75" stroke-linecap="round" stroke-linejoin="round" stroke="rgb(0%, 0%, 0%)" stroke-opacity="1" stroke-miterlimit="10" d="M 281.644531 75.984375 C 281.644531 79.167969 279.0625 81.75 275.878906 81.75 C 272.695312 81.75 270.109375 79.167969 270.109375 75.984375 C 270.109375 72.800781 272.695312 70.214844 275.878906 70.214844 C 279.0625 70.214844 281.644531 72.800781 281.644531 75.984375 "/>
<path fill-rule="nonzero" fill="rgb(90.196078%, 62.352941%, 0%)" fill-opacity="1" stroke-width="0.75" stroke-linecap="round" stroke-linejoin="round" stroke="rgb(0%, 0%, 0%)" stroke-opacity="1" stroke-miterlimit="10" d="M 180.867188 166.898438 C 180.867188 170.085938 178.285156 172.667969 175.101562 172.667969 C 171.914062 172.667969 169.332031 170.085938 169.332031 166.898438 C 169.332031 163.714844 171.914062 161.132812 175.101562 161.132812 C 178.285156 161.132812 180.867188 163.714844 180.867188 166.898438 "/>
<path fill-rule="nonzero" fill="rgb(90.196078%, 62.352941%, 0%)" fill-opacity="1" stroke-width="0.75" stroke-linecap="round" stroke-linejoin="round" stroke="rgb(0%, 0%, 0%)" stroke-opacity="1" stroke-miterlimit="10" d="M 296.125 155.75 C 296.125 158.933594 293.542969 161.515625 290.359375 161.515625 C 287.171875 161.515625 284.589844 158.933594 284.589844 155.75 C 284.589844 152.5625 287.171875 149.980469 290.359375 149.980469 C 293.542969 149.980469 296.125 152.5625 296.125 155.75 "/>
<path fill-rule="nonzero" fill="rgb(90.196078%, 62.352941%, 0%)" fill-opacity="1" stroke-width="0.75" stroke-linecap="round" stroke-linejoin="round" stroke="rgb(0%, 0%, 0%)" stroke-opacity="1" stroke-miterlimit="10" d="M 334.667969 107.785156 C 334.667969 110.972656 332.085938 113.554688 328.898438 113.554688 C 325.714844 113.554688 323.132812 110.972656 323.132812 107.785156 C 323.132812 104.601562 325.714844 102.019531 328.898438 102.019531 C 332.085938 102.019531 334.667969 104.601562 334.667969 107.785156 "/>
<path fill-rule="nonzero" fill="rgb(90.196078%, 62.352941%, 0%)" fill-opacity="1" stroke-width="0.75" stroke-linecap="round" stroke-linejoin="round" stroke="rgb(0%, 0%, 0%)" stroke-opacity="1" stroke-miterlimit="10" d="M 241.339844 13.101562 C 241.339844 16.285156 238.757812 18.867188 235.570312 18.867188 C 232.386719 18.867188 229.804688 16.285156 229.804688 13.101562 C 229.804688 9.914062 232.386719 7.332031 235.570312 7.332031 C 238.757812 7.332031 241.339844 9.914062 241.339844 13.101562 "/>
<g fill="rgb(0%, 0%, 54.509804%)" fill-opacity="1">
<use xlink:href="#glyph-0-0" x="262.882812" y="79.992188"/>
<use xlink:href="#glyph-0-1" x="271.548828" y="79.992188"/>
<use xlink:href="#glyph-0-1" x="277.548828" y="79.992188"/>
<use xlink:href="#glyph-0-2" x="283.548828" y="79.992188"/>
</g>
<g fill="rgb(0%, 0%, 54.509804%)" fill-opacity="1">
<use xlink:href="#glyph-0-3" x="165.4375" y="170.789062"/>
<use xlink:href="#glyph-0-4" x="173.441406" y="170.789062"/>
<use xlink:href="#glyph-0-1" x="178.767578" y="170.789062"/>
</g>
<g fill="rgb(0%, 0%, 54.509804%)" fill-opacity="1">
<use xlink:href="#glyph-0-5" x="279.027344" y="159.824219"/>
<use xlink:href="#glyph-0-6" x="287.03125" y="159.824219"/>
<use xlink:href="#glyph-0-4" x="290.365234" y="159.824219"/>
<use xlink:href="#glyph-0-7" x="295.691406" y="159.824219"/>
</g>
<g fill="rgb(0%, 0%, 54.509804%)" fill-opacity="1">
<use xlink:href="#glyph-0-8" x="314.234375" y="111.871094"/>
<use xlink:href="#glyph-0-2" x="322.900391" y="111.871094"/>
<use xlink:href="#glyph-0-9" x="328.226562" y="111.871094"/>
<use xlink:href="#glyph-0-10" x="334.226562" y="111.871094"/>
<use xlink:href="#glyph-0-11" x="337.560547" y="111.871094"/>
</g>
<g fill="rgb(0%, 0%, 54.509804%)" fill-opacity="1">
<use xlink:href="#glyph-0-12" x="223.242188" y="17.183594"/>
<use xlink:href="#glyph-0-13" x="230.572266" y="17.183594"/>
<use xlink:href="#glyph-0-14" x="236.572266" y="17.183594"/>
<use xlink:href="#glyph-0-4" x="242.572266" y="17.183594"/>
</g>
</svg>
