<?xml version="1.0" encoding="UTF-8"?>
<svg xmlns="http://www.w3.org/2000/svg" xmlns:xlink="http://www.w3.org/1999/xlink" width="504pt" height="252pt" viewBox="0 0 504 252" version="1.1">
<defs>
<g>
<symbol overflow="visible" id="glyph0-0">
<path style="stroke:none;" d="M 1.664063 0 L 1.664063 -7.5 L 7.664063 -7.5 L 7.664063 0 Z M 1.851563 -0.1875 L 7.476563 -0.1875 L 7.476563 -7.3125 L 1.851563 -7.3125 Z M 1.851563 -0.1875 "/>
</symbol>
<symbol overflow="visible" id="glyph0-1">
<path style="stroke:none;" d="M 2.46875 -4.257813 L 6.15625 -4.257813 L 6.15625 -6.53125 C 6.152344 -6.933594 6.128906 -7.203125 6.082031 -7.335938 C 6.042969 -7.433594 5.960938 -7.515625 5.835938 -7.585938 C 5.667969 -7.675781 5.488281 -7.722656 5.304688 -7.726563 L 5.023438 -7.726563 L 5.023438 -7.945313 L 8.421875 -7.945313 L 8.421875 -7.726563 L 8.140625 -7.726563 C 7.949219 -7.722656 7.773438 -7.679688 7.605469 -7.59375 C 7.480469 -7.53125 7.394531 -7.433594 7.347656 -7.308594 C 7.300781 -7.175781 7.277344 -6.917969 7.28125 -6.53125 L 7.28125 -1.40625 C 7.277344 -1.003906 7.304688 -0.738281 7.359375 -0.609375 C 7.398438 -0.507813 7.476563 -0.421875 7.601563 -0.359375 C 7.769531 -0.261719 7.949219 -0.214844 8.140625 -0.21875 L 8.421875 -0.21875 L 8.421875 0 L 5.023438 0 L 5.023438 -0.21875 L 5.304688 -0.21875 C 5.625 -0.214844 5.863281 -0.3125 6.011719 -0.503906 C 6.105469 -0.628906 6.152344 -0.929688 6.15625 -1.40625 L 6.15625 -3.828125 L 2.46875 -3.828125 L 2.46875 -1.40625 C 2.464844 -1.003906 2.492188 -0.738281 2.542969 -0.609375 C 2.582031 -0.507813 2.664063 -0.421875 2.789063 -0.359375 C 2.953125 -0.261719 3.128906 -0.214844 3.320313 -0.21875 L 3.609375 -0.21875 L 3.609375 0 L 0.203125 0 L 0.203125 -0.21875 L 0.484375 -0.21875 C 0.808594 -0.214844 1.046875 -0.3125 1.203125 -0.503906 C 1.292969 -0.628906 1.339844 -0.929688 1.34375 -1.40625 L 1.34375 -6.53125 C 1.339844 -6.933594 1.316406 -7.203125 1.265625 -7.335938 C 1.226563 -7.433594 1.144531 -7.515625 1.023438 -7.585938 C 0.847656 -7.675781 0.667969 -7.722656 0.484375 -7.726563 L 0.203125 -7.726563 L 0.203125 -7.945313 L 3.609375 -7.945313 L 3.609375 -7.726563 L 3.320313 -7.726563 C 3.128906 -7.722656 2.953125 -7.679688 2.789063 -7.59375 C 2.667969 -7.53125 2.582031 -7.433594 2.539063 -7.308594 C 2.488281 -7.175781 2.464844 -6.917969 2.46875 -6.53125 Z M 2.46875 -4.257813 "/>
</symbol>
<symbol overflow="visible" id="glyph0-2">
<path style="stroke:none;" d="M 5.5 -1.53125 L 4.945313 0 L 0.257813 0 L 0.257813 -0.21875 C 1.636719 -1.46875 2.605469 -2.496094 3.171875 -3.296875 C 3.730469 -4.089844 4.011719 -4.820313 4.015625 -5.484375 C 4.011719 -5.988281 3.859375 -6.402344 3.550781 -6.726563 C 3.238281 -7.046875 2.867188 -7.207031 2.445313 -7.210938 C 2.050781 -7.207031 1.699219 -7.09375 1.390625 -6.867188 C 1.078125 -6.640625 0.851563 -6.304688 0.703125 -5.867188 L 0.484375 -5.867188 C 0.582031 -6.585938 0.832031 -7.140625 1.238281 -7.527344 C 1.636719 -7.914063 2.144531 -8.109375 2.753906 -8.109375 C 3.394531 -8.109375 3.929688 -7.902344 4.367188 -7.488281 C 4.796875 -7.074219 5.015625 -6.585938 5.015625 -6.023438 C 5.015625 -5.621094 4.921875 -5.21875 4.734375 -4.816406 C 4.445313 -4.183594 3.976563 -3.511719 3.328125 -2.804688 C 2.351563 -1.738281 1.742188 -1.097656 1.507813 -0.882813 L 3.578125 -0.882813 C 3.996094 -0.878906 4.292969 -0.894531 4.464844 -0.929688 C 4.636719 -0.957031 4.789063 -1.019531 4.925781 -1.121094 C 5.0625 -1.214844 5.183594 -1.351563 5.285156 -1.53125 Z M 5.5 -1.53125 "/>
</symbol>
<symbol overflow="visible" id="glyph0-3">
<path style="stroke:none;" d="M 0.609375 -6.433594 C 0.835938 -6.964844 1.121094 -7.375 1.464844 -7.671875 C 1.808594 -7.960938 2.238281 -8.109375 2.757813 -8.109375 C 3.394531 -8.109375 3.882813 -7.902344 4.226563 -7.488281 C 4.476563 -7.175781 4.605469 -6.84375 4.609375 -6.5 C 4.605469 -5.917969 4.242188 -5.320313 3.523438 -4.703125 C 4.007813 -4.511719 4.378906 -4.238281 4.628906 -3.882813 C 4.878906 -3.527344 5.003906 -3.109375 5.003906 -2.632813 C 5.003906 -1.941406 4.785156 -1.347656 4.347656 -0.84375 C 3.777344 -0.1875 2.949219 0.140625 1.867188 0.140625 C 1.332031 0.140625 0.96875 0.0742188 0.773438 -0.0585938 C 0.578125 -0.191406 0.480469 -0.332031 0.484375 -0.484375 C 0.480469 -0.597656 0.527344 -0.699219 0.621094 -0.785156 C 0.714844 -0.871094 0.824219 -0.914063 0.953125 -0.914063 C 1.050781 -0.914063 1.152344 -0.898438 1.253906 -0.867188 C 1.316406 -0.84375 1.464844 -0.769531 1.703125 -0.652344 C 1.933594 -0.527344 2.097656 -0.457031 2.191406 -0.433594 C 2.332031 -0.386719 2.484375 -0.363281 2.65625 -0.367188 C 3.046875 -0.363281 3.394531 -0.519531 3.691406 -0.832031 C 3.988281 -1.140625 4.136719 -1.503906 4.136719 -1.929688 C 4.136719 -2.234375 4.066406 -2.535156 3.929688 -2.828125 C 3.828125 -3.042969 3.71875 -3.210938 3.597656 -3.328125 C 3.425781 -3.484375 3.195313 -3.625 2.90625 -3.753906 C 2.613281 -3.878906 2.3125 -3.941406 2.007813 -3.945313 L 1.820313 -3.945313 L 1.820313 -4.117188 C 2.128906 -4.15625 2.4375 -4.269531 2.75 -4.453125 C 3.058594 -4.632813 3.285156 -4.851563 3.429688 -5.113281 C 3.566406 -5.367188 3.636719 -5.652344 3.640625 -5.964844 C 3.636719 -6.367188 3.511719 -6.691406 3.261719 -6.941406 C 3.007813 -7.1875 2.695313 -7.3125 2.320313 -7.3125 C 1.714844 -7.3125 1.207031 -6.988281 0.804688 -6.339844 Z M 0.609375 -6.433594 "/>
</symbol>
<symbol overflow="visible" id="glyph0-4">
<path style="stroke:none;" d="M 5.585938 -2.929688 L 5.585938 -2.097656 L 4.515625 -2.097656 L 4.515625 0 L 3.550781 0 L 3.550781 -2.097656 L 0.1875 -2.097656 L 0.1875 -2.847656 L 3.875 -8.109375 L 4.515625 -8.109375 L 4.515625 -2.929688 Z M 3.550781 -2.929688 L 3.550781 -6.875 L 0.761719 -2.929688 Z M 3.550781 -2.929688 "/>
</symbol>
<symbol overflow="visible" id="glyph0-5">
<path style="stroke:none;" d="M 5.210938 -7.945313 L 4.75 -6.949219 L 2.359375 -6.949219 L 1.839844 -5.882813 C 2.871094 -5.730469 3.691406 -5.34375 4.300781 -4.726563 C 4.816406 -4.191406 5.074219 -3.566406 5.078125 -2.851563 C 5.074219 -2.433594 4.988281 -2.046875 4.824219 -1.691406 C 4.652344 -1.335938 4.441406 -1.035156 4.183594 -0.785156 C 3.925781 -0.535156 3.636719 -0.332031 3.320313 -0.179688 C 2.871094 0.0351563 2.410156 0.140625 1.9375 0.140625 C 1.460938 0.140625 1.113281 0.0625 0.898438 -0.101563 C 0.679688 -0.257813 0.574219 -0.4375 0.574219 -0.640625 C 0.574219 -0.746094 0.617188 -0.84375 0.707031 -0.929688 C 0.796875 -1.011719 0.910156 -1.054688 1.046875 -1.054688 C 1.148438 -1.054688 1.238281 -1.039063 1.316406 -1.007813 C 1.390625 -0.976563 1.519531 -0.894531 1.703125 -0.765625 C 1.996094 -0.558594 2.292969 -0.457031 2.59375 -0.460938 C 3.050781 -0.457031 3.453125 -0.628906 3.800781 -0.980469 C 4.144531 -1.324219 4.316406 -1.746094 4.320313 -2.242188 C 4.316406 -2.722656 4.164063 -3.171875 3.855469 -3.585938 C 3.542969 -4 3.117188 -4.320313 2.578125 -4.554688 C 2.148438 -4.726563 1.566406 -4.828125 0.835938 -4.859375 L 2.359375 -7.945313 Z M 5.210938 -7.945313 "/>
</symbol>
<symbol overflow="visible" id="glyph0-6">
<path style="stroke:none;" d="M 5.378906 -8.109375 L 5.378906 -7.890625 C 4.863281 -7.839844 4.441406 -7.738281 4.113281 -7.582031 C 3.785156 -7.425781 3.460938 -7.191406 3.148438 -6.878906 C 2.828125 -6.5625 2.566406 -6.207031 2.359375 -5.820313 C 2.148438 -5.429688 1.972656 -4.96875 1.835938 -4.4375 C 2.394531 -4.820313 2.960938 -5.015625 3.527344 -5.015625 C 4.070313 -5.015625 4.539063 -4.796875 4.941406 -4.359375 C 5.335938 -3.921875 5.535156 -3.359375 5.539063 -2.671875 C 5.535156 -2.007813 5.335938 -1.402344 4.933594 -0.855469 C 4.449219 -0.191406 3.808594 0.140625 3.011719 0.140625 C 2.464844 0.140625 2.003906 -0.0390625 1.628906 -0.398438 C 0.886719 -1.09375 0.515625 -2 0.515625 -3.117188 C 0.515625 -3.828125 0.65625 -4.503906 0.941406 -5.144531 C 1.226563 -5.785156 1.632813 -6.351563 2.164063 -6.847656 C 2.691406 -7.34375 3.199219 -7.679688 3.6875 -7.851563 C 4.167969 -8.023438 4.621094 -8.109375 5.039063 -8.109375 Z M 1.734375 -4.007813 C 1.664063 -3.480469 1.628906 -3.054688 1.628906 -2.730469 C 1.628906 -2.355469 1.695313 -1.945313 1.835938 -1.507813 C 1.972656 -1.066406 2.179688 -0.71875 2.453125 -0.460938 C 2.652344 -0.277344 2.894531 -0.1875 3.179688 -0.1875 C 3.519531 -0.1875 3.824219 -0.347656 4.089844 -0.667969 C 4.355469 -0.988281 4.488281 -1.445313 4.492188 -2.039063 C 4.488281 -2.703125 4.355469 -3.28125 4.09375 -3.773438 C 3.824219 -4.261719 3.449219 -4.503906 2.964844 -4.507813 C 2.816406 -4.503906 2.65625 -4.472656 2.488281 -4.414063 C 2.316406 -4.347656 2.066406 -4.214844 1.734375 -4.007813 Z M 1.734375 -4.007813 "/>
</symbol>
<symbol overflow="visible" id="glyph0-7">
<path style="stroke:none;" d="M 1.207031 -7.945313 L 5.46875 -7.945313 L 5.46875 -7.722656 L 2.820313 0.164063 L 2.164063 0.164063 L 4.535156 -6.992188 L 2.351563 -6.992188 C 1.90625 -6.988281 1.59375 -6.9375 1.40625 -6.832031 C 1.078125 -6.652344 0.8125 -6.375 0.617188 -6 L 0.445313 -6.0625 Z M 1.207031 -7.945313 "/>
</symbol>
<symbol overflow="visible" id="glyph0-8">
<path style="stroke:none;" d="M 2.304688 -4 C 1.671875 -4.511719 1.265625 -4.925781 1.085938 -5.242188 C 0.898438 -5.550781 0.808594 -5.875 0.8125 -6.21875 C 0.808594 -6.730469 1.007813 -7.175781 1.410156 -7.550781 C 1.804688 -7.921875 2.335938 -8.109375 3 -8.109375 C 3.640625 -8.109375 4.15625 -7.933594 4.546875 -7.585938 C 4.9375 -7.238281 5.132813 -6.84375 5.132813 -6.398438 C 5.132813 -6.101563 5.027344 -5.796875 4.816406 -5.488281 C 4.605469 -5.179688 4.164063 -4.816406 3.5 -4.398438 C 4.183594 -3.863281 4.640625 -3.445313 4.863281 -3.148438 C 5.160156 -2.742188 5.308594 -2.324219 5.308594 -1.886719 C 5.308594 -1.324219 5.09375 -0.84375 4.667969 -0.453125 C 4.242188 -0.0546875 3.683594 0.140625 2.992188 0.140625 C 2.238281 0.140625 1.652344 -0.09375 1.230469 -0.570313 C 0.894531 -0.945313 0.726563 -1.359375 0.726563 -1.8125 C 0.726563 -2.15625 0.84375 -2.503906 1.082031 -2.855469 C 1.316406 -3.199219 1.722656 -3.582031 2.304688 -4 Z M 3.222656 -4.628906 C 3.691406 -5.050781 3.988281 -5.382813 4.113281 -5.625 C 4.238281 -5.867188 4.300781 -6.144531 4.300781 -6.457031 C 4.300781 -6.863281 4.183594 -7.183594 3.953125 -7.417969 C 3.722656 -7.652344 3.410156 -7.769531 3.011719 -7.769531 C 2.613281 -7.769531 2.289063 -7.652344 2.039063 -7.421875 C 1.789063 -7.191406 1.664063 -6.921875 1.664063 -6.617188 C 1.664063 -6.410156 1.714844 -6.207031 1.820313 -6.007813 C 1.921875 -5.800781 2.070313 -5.609375 2.261719 -5.425781 Z M 2.578125 -3.78125 C 2.253906 -3.5 2.011719 -3.203125 1.859375 -2.882813 C 1.699219 -2.5625 1.621094 -2.214844 1.625 -1.839844 C 1.621094 -1.335938 1.757813 -0.929688 2.035156 -0.628906 C 2.308594 -0.324219 2.660156 -0.175781 3.085938 -0.175781 C 3.503906 -0.175781 3.84375 -0.292969 4.101563 -0.53125 C 4.355469 -0.769531 4.480469 -1.058594 4.484375 -1.398438 C 4.480469 -1.675781 4.40625 -1.929688 4.257813 -2.15625 C 3.980469 -2.570313 3.421875 -3.109375 2.578125 -3.78125 Z M 2.578125 -3.78125 "/>
</symbol>
<symbol overflow="visible" id="glyph0-9">
<path style="stroke:none;" d="M 0.632813 0.164063 L 0.632813 -0.0546875 C 1.140625 -0.0546875 1.613281 -0.171875 2.050781 -0.40625 C 2.488281 -0.632813 2.910156 -1.035156 3.316406 -1.605469 C 3.722656 -2.175781 4.007813 -2.800781 4.171875 -3.484375 C 3.554688 -3.089844 3 -2.894531 2.507813 -2.894531 C 1.949219 -2.894531 1.46875 -3.109375 1.074219 -3.539063 C 0.671875 -3.96875 0.472656 -4.542969 0.476563 -5.261719 C 0.472656 -5.957031 0.671875 -6.574219 1.070313 -7.117188 C 1.550781 -7.777344 2.179688 -8.109375 2.953125 -8.109375 C 3.601563 -8.109375 4.160156 -7.839844 4.628906 -7.300781 C 5.199219 -6.628906 5.484375 -5.804688 5.484375 -4.828125 C 5.484375 -3.945313 5.265625 -3.121094 4.832031 -2.355469 C 4.398438 -1.589844 3.796875 -0.957031 3.023438 -0.457031 C 2.390625 -0.0429688 1.703125 0.164063 0.96875 0.164063 Z M 4.265625 -3.921875 C 4.335938 -4.421875 4.371094 -4.828125 4.371094 -5.140625 C 4.371094 -5.515625 4.304688 -5.925781 4.175781 -6.363281 C 4.046875 -6.800781 3.863281 -7.136719 3.628906 -7.375 C 3.386719 -7.605469 3.121094 -7.722656 2.824219 -7.726563 C 2.476563 -7.722656 2.171875 -7.566406 1.910156 -7.257813 C 1.644531 -6.941406 1.511719 -6.476563 1.515625 -5.867188 C 1.511719 -5.039063 1.6875 -4.394531 2.039063 -3.929688 C 2.292969 -3.59375 2.605469 -3.425781 2.976563 -3.429688 C 3.15625 -3.425781 3.367188 -3.46875 3.613281 -3.558594 C 3.859375 -3.640625 4.078125 -3.761719 4.265625 -3.921875 Z M 4.265625 -3.921875 "/>
</symbol>
<symbol overflow="visible" id="glyph0-10">
<path style="stroke:none;" d="M 1.40625 -7.164063 L 3.339844 -8.109375 L 3.53125 -8.109375 L 3.53125 -1.398438 C 3.527344 -0.953125 3.546875 -0.675781 3.585938 -0.570313 C 3.625 -0.457031 3.703125 -0.375 3.820313 -0.316406 C 3.9375 -0.253906 4.175781 -0.21875 4.535156 -0.21875 L 4.535156 0 L 1.546875 0 L 1.546875 -0.21875 C 1.921875 -0.21875 2.164063 -0.25 2.273438 -0.3125 C 2.382813 -0.367188 2.457031 -0.445313 2.5 -0.542969 C 2.542969 -0.636719 2.566406 -0.921875 2.566406 -1.398438 L 2.566406 -5.6875 C 2.566406 -6.261719 2.546875 -6.632813 2.507813 -6.804688 C 2.480469 -6.925781 2.429688 -7.019531 2.359375 -7.078125 C 2.285156 -7.132813 2.199219 -7.160156 2.097656 -7.164063 C 1.953125 -7.160156 1.75 -7.101563 1.492188 -6.984375 Z M 1.40625 -7.164063 "/>
</symbol>
<symbol overflow="visible" id="glyph0-11">
<path style="stroke:none;" d="M 0.433594 -3.925781 C 0.433594 -4.832031 0.570313 -5.609375 0.84375 -6.265625 C 1.117188 -6.917969 1.480469 -7.40625 1.933594 -7.726563 C 2.285156 -7.980469 2.648438 -8.109375 3.023438 -8.109375 C 3.632813 -8.109375 4.179688 -7.796875 4.664063 -7.179688 C 5.265625 -6.40625 5.566406 -5.363281 5.570313 -4.046875 C 5.566406 -3.121094 5.433594 -2.339844 5.171875 -1.699219 C 4.902344 -1.054688 4.5625 -0.585938 4.15625 -0.296875 C 3.742188 -0.00390625 3.347656 0.140625 2.964844 0.140625 C 2.207031 0.140625 1.574219 -0.304688 1.070313 -1.203125 C 0.644531 -1.953125 0.433594 -2.863281 0.433594 -3.925781 Z M 1.582031 -3.78125 C 1.582031 -2.683594 1.714844 -1.792969 1.984375 -1.101563 C 2.207031 -0.515625 2.539063 -0.222656 2.984375 -0.226563 C 3.1875 -0.222656 3.40625 -0.316406 3.636719 -0.511719 C 3.859375 -0.699219 4.03125 -1.019531 4.15625 -1.464844 C 4.328125 -2.136719 4.417969 -3.082031 4.421875 -4.304688 C 4.417969 -5.207031 4.324219 -5.964844 4.140625 -6.574219 C 3.996094 -7.023438 3.816406 -7.339844 3.597656 -7.53125 C 3.4375 -7.65625 3.242188 -7.722656 3.015625 -7.722656 C 2.746094 -7.722656 2.511719 -7.601563 2.308594 -7.367188 C 2.027344 -7.039063 1.835938 -6.53125 1.734375 -5.835938 C 1.632813 -5.140625 1.582031 -4.453125 1.582031 -3.78125 Z M 1.582031 -3.78125 "/>
</symbol>
<symbol overflow="visible" id="glyph0-12">
<path style="stroke:none;" d="M 5.492188 -2.660156 L 2.414063 -2.660156 L 1.875 -1.40625 C 1.742188 -1.097656 1.675781 -0.867188 1.675781 -0.714844 C 1.675781 -0.589844 1.730469 -0.480469 1.847656 -0.394531 C 1.960938 -0.300781 2.210938 -0.242188 2.59375 -0.21875 L 2.59375 0 L 0.09375 0 L 0.09375 -0.21875 C 0.425781 -0.273438 0.640625 -0.351563 0.738281 -0.445313 C 0.9375 -0.632813 1.15625 -1.011719 1.398438 -1.585938 L 4.195313 -8.125 L 4.398438 -8.125 L 7.164063 -1.515625 C 7.386719 -0.980469 7.589844 -0.636719 7.773438 -0.480469 C 7.953125 -0.324219 8.207031 -0.234375 8.53125 -0.21875 L 8.53125 0 L 5.398438 0 L 5.398438 -0.21875 C 5.710938 -0.230469 5.925781 -0.285156 6.035156 -0.375 C 6.144531 -0.460938 6.199219 -0.570313 6.203125 -0.703125 C 6.199219 -0.875 6.121094 -1.144531 5.96875 -1.515625 Z M 5.328125 -3.09375 L 3.976563 -6.304688 L 2.59375 -3.09375 Z M 5.328125 -3.09375 "/>
</symbol>
</g>
</defs>
<g id="surface134">
<rect x="0" y="0" width="504" height="252" style="fill:rgb(100%,100%,100%);fill-opacity:1;stroke:none;"/>
<path style="fill:none;stroke-width:0.75;stroke-linecap:round;stroke-linejoin:round;stroke:rgb(66.27451%,66.27451%,66.27451%);stroke-opacity:1;stroke-miterlimit:10;" d="M 231.648438 143.273438 L 236.558594 145.371094 "/>
<path style="fill:none;stroke-width:0.75;stroke-linecap:round;stroke-linejoin:round;stroke:rgb(66.27451%,66.27451%,66.27451%);stroke-opacity:1;stroke-miterlimit:10;" d="M 232.230469 139.03125 L 254.988281 136.027344 "/>
<path style="fill:none;stroke-width:0.75;stroke-linecap:round;stroke-linejoin:round;stroke:rgb(66.27451%,66.27451%,66.27451%);stroke-opacity:1;stroke-miterlimit:10;" d="M 226.070313 132.214844 L 234.214844 97.773438 "/>
<path style="fill:none;stroke-width:0.75;stroke-linecap:round;stroke-linejoin:round;stroke:rgb(66.27451%,66.27451%,66.27451%);stroke-opacity:1;stroke-miterlimit:10;" d="M 216.222656 141.410156 L 196.925781 144.597656 "/>
<path style="fill:none;stroke-width:0.75;stroke-linecap:round;stroke-linejoin:round;stroke:rgb(66.27451%,66.27451%,66.27451%);stroke-opacity:1;stroke-miterlimit:10;" d="M 216.113281 140.140625 L 180.488281 140.371094 "/>
<path style="fill:none;stroke-width:0.75;stroke-linecap:round;stroke-linejoin:round;stroke:rgb(66.27451%,66.27451%,66.27451%);stroke-opacity:1;stroke-miterlimit:10;" d="M 216.957031 136.492188 L 182.261719 119.277344 "/>
<path style="fill:none;stroke-width:0.75;stroke-linecap:round;stroke-linejoin:round;stroke:rgb(66.27451%,66.27451%,66.27451%);stroke-opacity:1;stroke-miterlimit:10;" d="M 228.539063 133.253906 L 233.855469 124.859375 "/>
<path style="fill:none;stroke-width:0.75;stroke-linecap:round;stroke-linejoin:round;stroke:rgb(66.27451%,66.27451%,66.27451%);stroke-opacity:1;stroke-miterlimit:10;" d="M 232.070313 142.011719 L 272.46875 151.882813 "/>
<path style="fill:none;stroke-width:0.75;stroke-linecap:round;stroke-linejoin:round;stroke:rgb(66.27451%,66.27451%,66.27451%);stroke-opacity:1;stroke-miterlimit:10;" d="M 217.910156 145.171875 L 184.679688 171.976563 "/>
<path style="fill:none;stroke-width:0.75;stroke-linecap:round;stroke-linejoin:round;stroke:rgb(66.27451%,66.27451%,66.27451%);stroke-opacity:1;stroke-miterlimit:10;" d="M 221.351563 147.660156 L 199.964844 204.300781 "/>
<path style="fill:none;stroke-width:0.75;stroke-linecap:round;stroke-linejoin:round;stroke:rgb(66.27451%,66.27451%,66.27451%);stroke-opacity:1;stroke-miterlimit:10;" d="M 223.578125 132.019531 L 216.464844 40.707031 "/>
<path style="fill:none;stroke-width:0.75;stroke-linecap:round;stroke-linejoin:round;stroke:rgb(66.27451%,66.27451%,66.27451%);stroke-opacity:1;stroke-miterlimit:10;" d="M 231.199219 136.011719 L 251.683594 124.066406 "/>
<path style="fill:none;stroke-width:0.75;stroke-linecap:round;stroke-linejoin:round;stroke:rgb(66.27451%,66.27451%,66.27451%);stroke-opacity:1;stroke-miterlimit:10;" d="M 221.238281 132.5625 L 205.449219 92.519531 "/>
<path style="fill:none;stroke-width:0.75;stroke-linecap:round;stroke-linejoin:round;stroke:rgb(66.27451%,66.27451%,66.27451%);stroke-opacity:1;stroke-miterlimit:10;" d="M 227.574219 147.449219 L 248.386719 192.960938 "/>
<path style="fill:none;stroke-width:0.75;stroke-linecap:round;stroke-linejoin:round;stroke:rgb(66.27451%,66.27451%,66.27451%);stroke-opacity:1;stroke-miterlimit:10;" d="M 223.644531 148.164063 L 219.710938 204.316406 "/>
<path style="fill:none;stroke-width:0.75;stroke-linecap:round;stroke-linejoin:round;stroke:rgb(66.27451%,66.27451%,66.27451%);stroke-opacity:1;stroke-miterlimit:10;" d="M 231.210938 136.03125 L 287.3125 103.5 "/>
<path style="fill:none;stroke-width:0.75;stroke-linecap:round;stroke-linejoin:round;stroke:rgb(66.27451%,66.27451%,66.27451%);stroke-opacity:1;stroke-miterlimit:10;" d="M 250.582031 143.847656 L 256.425781 139.671875 "/>
<path style="fill:none;stroke-width:0.75;stroke-linecap:round;stroke-linejoin:round;stroke:rgb(66.27451%,66.27451%,66.27451%);stroke-opacity:1;stroke-miterlimit:10;" d="M 242.914063 140.535156 L 237.160156 97.917969 "/>
<path style="fill:none;stroke-width:0.75;stroke-linecap:round;stroke-linejoin:round;stroke:rgb(66.27451%,66.27451%,66.27451%);stroke-opacity:1;stroke-miterlimit:10;" d="M 242.484375 140.605469 L 239.699219 125.972656 "/>
<path style="fill:none;stroke-width:0.75;stroke-linecap:round;stroke-linejoin:round;stroke:rgb(66.27451%,66.27451%,66.27451%);stroke-opacity:1;stroke-miterlimit:10;" d="M 247.699219 141.355469 L 254.976563 127.1875 "/>
<path style="fill:none;stroke-width:0.75;stroke-linecap:round;stroke-linejoin:round;stroke:rgb(66.27451%,66.27451%,66.27451%);stroke-opacity:1;stroke-miterlimit:10;" d="M 239.574219 141.777344 L 206.90625 91.765625 "/>
<path style="fill:none;stroke-width:0.75;stroke-linecap:round;stroke-linejoin:round;stroke:rgb(66.27451%,66.27451%,66.27451%);stroke-opacity:1;stroke-miterlimit:10;" d="M 245.195313 156.558594 L 250.554688 192.316406 "/>
<path style="fill:none;stroke-width:0.75;stroke-linecap:round;stroke-linejoin:round;stroke:rgb(66.27451%,66.27451%,66.27451%);stroke-opacity:1;stroke-miterlimit:10;" d="M 241.0625 156.097656 L 222.082031 204.847656 "/>
<path style="fill:none;stroke-width:0.75;stroke-linecap:round;stroke-linejoin:round;stroke:rgb(66.27451%,66.27451%,66.27451%);stroke-opacity:1;stroke-miterlimit:10;" d="M 250.773438 152.980469 L 282.601563 173.769531 "/>
<path style="fill:none;stroke-width:0.75;stroke-linecap:round;stroke-linejoin:round;stroke:rgb(66.27451%,66.27451%,66.27451%);stroke-opacity:1;stroke-miterlimit:10;" d="M 258.859375 128.019531 L 240.230469 96.84375 "/>
<path style="fill:none;stroke-width:0.75;stroke-linecap:round;stroke-linejoin:round;stroke:rgb(66.27451%,66.27451%,66.27451%);stroke-opacity:1;stroke-miterlimit:10;" d="M 256.324219 130.402344 L 244.871094 122.585938 "/>
<path style="fill:none;stroke-width:0.75;stroke-linecap:round;stroke-linejoin:round;stroke:rgb(66.27451%,66.27451%,66.27451%);stroke-opacity:1;stroke-miterlimit:10;" d="M 268.488281 140.925781 L 274.855469 147.847656 "/>
<path style="fill:none;stroke-width:0.75;stroke-linecap:round;stroke-linejoin:round;stroke:rgb(66.27451%,66.27451%,66.27451%);stroke-opacity:1;stroke-miterlimit:10;" d="M 265.394531 142.699219 L 291.117188 226.171875 "/>
<path style="fill:none;stroke-width:0.75;stroke-linecap:round;stroke-linejoin:round;stroke:rgb(66.27451%,66.27451%,66.27451%);stroke-opacity:1;stroke-miterlimit:10;" d="M 260.761719 127.191406 L 260.925781 127.765625 "/>
<path style="fill:none;stroke-width:0.75;stroke-linecap:round;stroke-linejoin:round;stroke:rgb(66.27451%,66.27451%,66.27451%);stroke-opacity:1;stroke-miterlimit:10;" d="M 268.3125 128.851563 L 301.125 91.019531 "/>
<path style="fill:none;stroke-width:0.75;stroke-linecap:round;stroke-linejoin:round;stroke:rgb(66.27451%,66.27451%,66.27451%);stroke-opacity:1;stroke-miterlimit:10;" d="M 265.6875 127.328125 L 281.601563 81.917969 "/>
<path style="fill:none;stroke-width:0.75;stroke-linecap:round;stroke-linejoin:round;stroke:rgb(66.27451%,66.27451%,66.27451%);stroke-opacity:1;stroke-miterlimit:10;" d="M 270.480469 138.082031 L 310.425781 154.757813 "/>
<path style="fill:none;stroke-width:0.75;stroke-linecap:round;stroke-linejoin:round;stroke:rgb(66.27451%,66.27451%,66.27451%);stroke-opacity:1;stroke-miterlimit:10;" d="M 236.683594 97.96875 L 237.582031 109.953125 "/>
<path style="fill:none;stroke-width:0.75;stroke-linecap:round;stroke-linejoin:round;stroke:rgb(66.27451%,66.27451%,66.27451%);stroke-opacity:1;stroke-miterlimit:10;" d="M 233.378906 82.265625 L 218.535156 40.269531 "/>
<path style="fill:none;stroke-width:0.75;stroke-linecap:round;stroke-linejoin:round;stroke:rgb(66.27451%,66.27451%,66.27451%);stroke-opacity:1;stroke-miterlimit:10;" d="M 240.9375 96.371094 L 253.816406 113.519531 "/>
<path style="fill:none;stroke-width:0.75;stroke-linecap:round;stroke-linejoin:round;stroke:rgb(66.27451%,66.27451%,66.27451%);stroke-opacity:1;stroke-miterlimit:10;" d="M 185.554688 138.566406 L 178.398438 123.03125 "/>
<path style="fill:none;stroke-width:0.75;stroke-linecap:round;stroke-linejoin:round;stroke:rgb(66.27451%,66.27451%,66.27451%);stroke-opacity:1;stroke-miterlimit:10;" d="M 186.339844 153.582031 L 180.980469 169.394531 "/>
<path style="fill:none;stroke-width:0.75;stroke-linecap:round;stroke-linejoin:round;stroke:rgb(66.27451%,66.27451%,66.27451%);stroke-opacity:1;stroke-miterlimit:10;" d="M 173.246094 132.375 L 174.160156 123.730469 "/>
<path style="fill:none;stroke-width:0.75;stroke-linecap:round;stroke-linejoin:round;stroke:rgb(66.27451%,66.27451%,66.27451%);stroke-opacity:1;stroke-miterlimit:10;" d="M 173.699219 148.410156 L 177.074219 169.070313 "/>
<path style="fill:none;stroke-width:0.75;stroke-linecap:round;stroke-linejoin:round;stroke:rgb(66.27451%,66.27451%,66.27451%);stroke-opacity:1;stroke-miterlimit:10;" d="M 165.722656 135.84375 L 150.765625 125.585938 "/>
<path style="fill:none;stroke-width:0.75;stroke-linecap:round;stroke-linejoin:round;stroke:rgb(66.27451%,66.27451%,66.27451%);stroke-opacity:1;stroke-miterlimit:10;" d="M 167.039063 117.054688 L 152.070313 119.632813 "/>
<path style="fill:none;stroke-width:0.75;stroke-linecap:round;stroke-linejoin:round;stroke:rgb(66.27451%,66.27451%,66.27451%);stroke-opacity:1;stroke-miterlimit:10;" d="M 283.144531 161.394531 L 286.5625 170.609375 "/>
<path style="fill:none;stroke-width:0.75;stroke-linecap:round;stroke-linejoin:round;stroke:rgb(66.27451%,66.27451%,66.27451%);stroke-opacity:1;stroke-miterlimit:10;" d="M 288.378906 154.675781 L 309.847656 157.003906 "/>
<path style="fill:none;stroke-width:0.75;stroke-linecap:round;stroke-linejoin:round;stroke:rgb(66.27451%,66.27451%,66.27451%);stroke-opacity:1;stroke-miterlimit:10;" d="M 288.296875 152.371094 L 302.296875 149.84375 "/>
<path style="fill:none;stroke-width:0.75;stroke-linecap:round;stroke-linejoin:round;stroke:rgb(66.27451%,66.27451%,66.27451%);stroke-opacity:1;stroke-miterlimit:10;" d="M 295.058594 225.964844 L 308.707031 156.351563 "/>
<path style="fill:none;stroke-width:0.75;stroke-linecap:round;stroke-linejoin:round;stroke:rgb(66.27451%,66.27451%,66.27451%);stroke-opacity:1;stroke-miterlimit:10;" d="M 265.765625 123.894531 L 303.175781 144.503906 "/>
<path style="fill:none;stroke-width:0.75;stroke-linecap:round;stroke-linejoin:round;stroke:rgb(66.27451%,66.27451%,66.27451%);stroke-opacity:1;stroke-miterlimit:10;" d="M 334.160156 210.578125 L 320.28125 165.609375 "/>
<path style="fill:none;stroke-width:0.75;stroke-linecap:round;stroke-linejoin:round;stroke:rgb(66.27451%,66.27451%,66.27451%);stroke-opacity:1;stroke-miterlimit:10;" d="M 333.699219 210.738281 L 313.113281 155.984375 "/>
<path style="fill:none;stroke-width:0.75;stroke-linecap:round;stroke-linejoin:round;stroke:rgb(66.27451%,66.27451%,66.27451%);stroke-opacity:1;stroke-miterlimit:10;" d="M 329.65625 165.980469 L 324.558594 162.46875 "/>
<path style="fill:none;stroke-width:0.75;stroke-linecap:round;stroke-linejoin:round;stroke:rgb(66.27451%,66.27451%,66.27451%);stroke-opacity:1;stroke-miterlimit:10;" d="M 330.15625 165.328125 L 316.429688 153.652344 "/>
<path style="fill:none;stroke-width:0.75;stroke-linecap:round;stroke-linejoin:round;stroke:rgb(66.27451%,66.27451%,66.27451%);stroke-opacity:1;stroke-miterlimit:10;" d="M 351.875 162.078125 L 325.925781 158.871094 "/>
<path style="fill:none;stroke-width:0.75;stroke-linecap:round;stroke-linejoin:round;stroke:rgb(66.27451%,66.27451%,66.27451%);stroke-opacity:1;stroke-miterlimit:10;" d="M 352.144531 160.78125 L 318.023438 150.703125 "/>
<path style="fill:none;stroke-width:0.75;stroke-linecap:round;stroke-linejoin:round;stroke:rgb(66.27451%,66.27451%,66.27451%);stroke-opacity:1;stroke-miterlimit:10;" d="M 257.804688 194.949219 L 304.210938 153.78125 "/>
<path style="fill:none;stroke-width:0.75;stroke-linecap:round;stroke-linejoin:round;stroke:rgb(66.27451%,66.27451%,66.27451%);stroke-opacity:1;stroke-miterlimit:10;" d="M 346.339844 196.050781 L 322.730469 164.367188 "/>
<path style="fill:none;stroke-width:0.75;stroke-linecap:round;stroke-linejoin:round;stroke:rgb(66.27451%,66.27451%,66.27451%);stroke-opacity:1;stroke-miterlimit:10;" d="M 346.292969 196.085938 L 315.144531 154.867188 "/>
<path style="fill:none;stroke-width:0.75;stroke-linecap:round;stroke-linejoin:round;stroke:rgb(66.27451%,66.27451%,66.27451%);stroke-opacity:1;stroke-miterlimit:10;" d="M 321.359375 214.882813 L 318.386719 165.953125 "/>
<path style="fill:none;stroke-width:0.75;stroke-linecap:round;stroke-linejoin:round;stroke:rgb(66.27451%,66.27451%,66.27451%);stroke-opacity:1;stroke-miterlimit:10;" d="M 320.609375 214.960938 L 311.507813 156.40625 "/>
<path style="fill:none;stroke-width:0.75;stroke-linecap:round;stroke-linejoin:round;stroke:rgb(66.27451%,66.27451%,66.27451%);stroke-opacity:1;stroke-miterlimit:10;" d="M 323.511719 95.820313 L 316.917969 66.765625 "/>
<path style="fill:none;stroke-width:0.75;stroke-linecap:round;stroke-linejoin:round;stroke:rgb(66.27451%,66.27451%,66.27451%);stroke-opacity:1;stroke-miterlimit:10;" d="M 319.570313 98 L 312.164063 90.621094 "/>
<path style="fill:none;stroke-width:0.75;stroke-linecap:round;stroke-linejoin:round;stroke:rgb(66.27451%,66.27451%,66.27451%);stroke-opacity:1;stroke-miterlimit:10;" d="M 331.101563 109.359375 L 337.449219 115.535156 "/>
<path style="fill:none;stroke-width:0.75;stroke-linecap:round;stroke-linejoin:round;stroke:rgb(66.27451%,66.27451%,66.27451%);stroke-opacity:1;stroke-miterlimit:10;" d="M 324.207031 111.734375 L 318.992188 149.859375 "/>
<path style="fill:none;stroke-width:0.75;stroke-linecap:round;stroke-linejoin:round;stroke:rgb(66.27451%,66.27451%,66.27451%);stroke-opacity:1;stroke-miterlimit:10;" d="M 322.722656 111.382813 L 312.84375 140.738281 "/>
<path style="fill:none;stroke-width:0.75;stroke-linecap:round;stroke-linejoin:round;stroke:rgb(66.27451%,66.27451%,66.27451%);stroke-opacity:1;stroke-miterlimit:10;" d="M 312.253906 26.15625 L 314.417969 50.808594 "/>
<path style="fill:none;stroke-width:0.75;stroke-linecap:round;stroke-linejoin:round;stroke:rgb(66.27451%,66.27451%,66.27451%);stroke-opacity:1;stroke-miterlimit:10;" d="M 310.925781 26.164063 L 307.046875 76.839844 "/>
<path style="fill:none;stroke-width:0.75;stroke-linecap:round;stroke-linejoin:round;stroke:rgb(66.27451%,66.27451%,66.27451%);stroke-opacity:1;stroke-miterlimit:10;" d="M 309.867188 26.011719 L 295.992188 91.523438 "/>
<path style="fill:none;stroke-width:0.75;stroke-linecap:round;stroke-linejoin:round;stroke:rgb(66.27451%,66.27451%,66.27451%);stroke-opacity:1;stroke-miterlimit:10;" d="M 311.429688 66.074219 L 298.007813 92.238281 "/>
<path style="fill:none;stroke-width:0.75;stroke-linecap:round;stroke-linejoin:round;stroke:rgb(66.27451%,66.27451%,66.27451%);stroke-opacity:1;stroke-miterlimit:10;" d="M 353.449219 109.222656 L 348.503906 115.023438 "/>
<path style="fill:none;stroke-width:0.75;stroke-linecap:round;stroke-linejoin:round;stroke:rgb(66.27451%,66.27451%,66.27451%);stroke-opacity:1;stroke-miterlimit:10;" d="M 352.792969 108.597656 L 316.171875 142.878906 "/>
<path style="fill:none;stroke-width:0.75;stroke-linecap:round;stroke-linejoin:round;stroke:rgb(66.27451%,66.27451%,66.27451%);stroke-opacity:1;stroke-miterlimit:10;" d="M 306.917969 92.984375 L 309.777344 140.332031 "/>
<path style="fill:none;stroke-width:0.75;stroke-linecap:round;stroke-linejoin:round;stroke:rgb(66.27451%,66.27451%,66.27451%);stroke-opacity:1;stroke-miterlimit:10;" d="M 287.277344 81.796875 L 291.316406 91.921875 "/>
<path style="fill:none;stroke-width:0.75;stroke-linecap:round;stroke-linejoin:round;stroke:rgb(66.27451%,66.27451%,66.27451%);stroke-opacity:1;stroke-miterlimit:10;" d="M 286.957031 81.917969 L 307.585938 140.773438 "/>
<path style="fill:none;stroke-width:0.75;stroke-linecap:round;stroke-linejoin:round;stroke:rgb(66.27451%,66.27451%,66.27451%);stroke-opacity:1;stroke-miterlimit:10;" d="M 338.648438 127.835938 L 322.496094 151.21875 "/>
<path style="fill:none;stroke-width:0.75;stroke-linecap:round;stroke-linejoin:round;stroke:rgb(66.27451%,66.27451%,66.27451%);stroke-opacity:1;stroke-miterlimit:10;" d="M 337.007813 126.332031 L 316.503906 143.257813 "/>
<path style="fill:none;stroke-width:0.75;stroke-linecap:round;stroke-linejoin:round;stroke:rgb(66.27451%,66.27451%,66.27451%);stroke-opacity:1;stroke-miterlimit:10;" d="M 295.96875 173.5 L 311.304688 162.574219 "/>
<path style="fill:none;stroke-width:0.75;stroke-linecap:round;stroke-linejoin:round;stroke:rgb(66.27451%,66.27451%,66.27451%);stroke-opacity:1;stroke-miterlimit:10;" d="M 294.023438 171.570313 L 305.617188 155.035156 "/>
<path style="fill:none;stroke-width:0.75;stroke-linecap:round;stroke-linejoin:round;stroke:rgb(66.27451%,66.27451%,66.27451%);stroke-opacity:1;stroke-miterlimit:10;" d="M 297.34375 106.945313 L 314.867188 150.371094 "/>
<path style="fill:none;stroke-width:0.75;stroke-linecap:round;stroke-linejoin:round;stroke:rgb(66.27451%,66.27451%,66.27451%);stroke-opacity:1;stroke-miterlimit:10;" d="M 296.820313 107.136719 L 307.757813 140.714844 "/>
<path style="fill:none;stroke-width:0.75;stroke-linecap:round;stroke-linejoin:round;stroke:rgb(66.27451%,66.27451%,66.27451%);stroke-opacity:1;stroke-miterlimit:10;" d="M 312.816406 151.574219 L 315.34375 154.710938 "/>
<path style="fill-rule:nonzero;fill:rgb(90.196078%,62.352941%,0%);fill-opacity:1;stroke-width:0.75;stroke-linecap:round;stroke-linejoin:round;stroke:rgb(0%,0%,0%);stroke-opacity:1;stroke-miterlimit:10;" d="M 232.300781 140.089844 C 232.300781 144.558594 228.675781 148.183594 224.207031 148.183594 C 219.738281 148.183594 216.113281 144.558594 216.113281 140.089844 C 216.113281 135.621094 219.738281 131.996094 224.207031 131.996094 C 228.675781 131.996094 232.300781 135.621094 232.300781 140.089844 "/>
<path style="fill-rule:nonzero;fill:rgb(90.196078%,62.352941%,0%);fill-opacity:1;stroke-width:0.75;stroke-linecap:round;stroke-linejoin:round;stroke:rgb(0%,0%,0%);stroke-opacity:1;stroke-miterlimit:10;" d="M 252.089844 148.554688 C 252.089844 153.023438 248.46875 156.648438 244 156.648438 C 239.527344 156.648438 235.90625 153.023438 235.90625 148.554688 C 235.90625 144.085938 239.527344 140.460938 244 140.460938 C 248.46875 140.460938 252.089844 144.085938 252.089844 148.554688 "/>
<path style="fill-rule:nonzero;fill:rgb(90.196078%,62.352941%,0%);fill-opacity:1;stroke-width:0.75;stroke-linecap:round;stroke-linejoin:round;stroke:rgb(0%,0%,0%);stroke-opacity:1;stroke-miterlimit:10;" d="M 271.101563 134.964844 C 271.101563 139.4375 267.480469 143.058594 263.011719 143.058594 C 258.539063 143.058594 254.917969 139.4375 254.917969 134.964844 C 254.917969 130.496094 258.539063 126.875 263.011719 126.875 C 267.480469 126.875 271.101563 130.496094 271.101563 134.964844 "/>
<path style="fill-rule:nonzero;fill:rgb(90.196078%,62.352941%,0%);fill-opacity:1;stroke-width:0.75;stroke-linecap:round;stroke-linejoin:round;stroke:rgb(0%,0%,0%);stroke-opacity:1;stroke-miterlimit:10;" d="M 244.171875 89.898438 C 244.171875 94.367188 240.546875 97.992188 236.078125 97.992188 C 231.609375 97.992188 227.984375 94.367188 227.984375 89.898438 C 227.984375 85.429688 231.609375 81.804688 236.078125 81.804688 C 240.546875 81.804688 244.171875 85.429688 244.171875 89.898438 "/>
<path style="fill-rule:nonzero;fill:rgb(90.196078%,62.352941%,0%);fill-opacity:1;stroke-width:0.75;stroke-linecap:round;stroke-linejoin:round;stroke:rgb(0%,0%,0%);stroke-opacity:1;stroke-miterlimit:10;" d="M 197.035156 145.917969 C 197.035156 150.386719 193.410156 154.011719 188.941406 154.011719 C 184.472656 154.011719 180.847656 150.386719 180.847656 145.917969 C 180.847656 141.449219 184.472656 137.824219 188.941406 137.824219 C 193.410156 137.824219 197.035156 141.449219 197.035156 145.917969 "/>
<path style="fill-rule:nonzero;fill:rgb(90.196078%,62.352941%,0%);fill-opacity:1;stroke-width:0.75;stroke-linecap:round;stroke-linejoin:round;stroke:rgb(0%,0%,0%);stroke-opacity:1;stroke-miterlimit:10;" d="M 180.488281 140.425781 C 180.488281 144.894531 176.863281 148.515625 172.394531 148.515625 C 167.925781 148.515625 164.300781 144.894531 164.300781 140.425781 C 164.300781 135.953125 167.925781 132.332031 172.394531 132.332031 C 176.863281 132.332031 180.488281 135.953125 180.488281 140.425781 "/>
<path style="fill-rule:nonzero;fill:rgb(90.196078%,62.352941%,0%);fill-opacity:1;stroke-width:0.75;stroke-linecap:round;stroke-linejoin:round;stroke:rgb(0%,0%,0%);stroke-opacity:1;stroke-miterlimit:10;" d="M 183.105469 115.679688 C 183.105469 120.148438 179.484375 123.773438 175.011719 123.773438 C 170.542969 123.773438 166.921875 120.148438 166.921875 115.679688 C 166.921875 111.210938 170.542969 107.585938 175.011719 107.585938 C 179.484375 107.585938 183.105469 111.210938 183.105469 115.679688 "/>
<path style="fill-rule:nonzero;fill:rgb(90.196078%,62.352941%,0%);fill-opacity:1;stroke-width:0.75;stroke-linecap:round;stroke-linejoin:round;stroke:rgb(0%,0%,0%);stroke-opacity:1;stroke-miterlimit:10;" d="M 246.277344 118.023438 C 246.277344 122.492188 242.65625 126.113281 238.183594 126.113281 C 233.714844 126.113281 230.09375 122.492188 230.09375 118.023438 C 230.09375 113.550781 233.714844 109.929688 238.183594 109.929688 C 242.65625 109.929688 246.277344 113.550781 246.277344 118.023438 "/>
<path style="fill-rule:nonzero;fill:rgb(33.72549%,70.588235%,91.372549%);fill-opacity:1;stroke-width:0.75;stroke-linecap:round;stroke-linejoin:round;stroke:rgb(0%,0%,0%);stroke-opacity:1;stroke-miterlimit:10;" d="M 288.425781 153.804688 C 288.425781 158.273438 284.800781 161.898438 280.332031 161.898438 C 275.863281 161.898438 272.238281 158.273438 272.238281 153.804688 C 272.238281 149.335938 275.863281 145.710938 280.332031 145.710938 C 284.800781 145.710938 288.425781 149.335938 288.425781 153.804688 "/>
<path style="fill-rule:nonzero;fill:rgb(33.72549%,70.588235%,91.372549%);fill-opacity:1;stroke-width:0.75;stroke-linecap:round;stroke-linejoin:round;stroke:rgb(0%,0%,0%);stroke-opacity:1;stroke-miterlimit:10;" d="M 301.59375 233.90625 C 301.59375 238.375 297.972656 242 293.5 242 C 289.03125 242 285.410156 238.375 285.410156 233.90625 C 285.410156 229.4375 289.03125 225.8125 293.5 225.8125 C 297.972656 225.8125 301.59375 229.4375 301.59375 233.90625 "/>
<path style="fill-rule:nonzero;fill:rgb(90.196078%,62.352941%,0%);fill-opacity:1;stroke-width:0.75;stroke-linecap:round;stroke-linejoin:round;stroke:rgb(0%,0%,0%);stroke-opacity:1;stroke-miterlimit:10;" d="M 186.472656 177.058594 C 186.472656 181.527344 182.851563 185.148438 178.378906 185.148438 C 173.910156 185.148438 170.285156 181.527344 170.285156 177.058594 C 170.285156 172.585938 173.910156 168.964844 178.378906 168.964844 C 182.851563 168.964844 186.472656 172.585938 186.472656 177.058594 "/>
<path style="fill-rule:nonzero;fill:rgb(90.196078%,62.352941%,0%);fill-opacity:1;stroke-width:0.75;stroke-linecap:round;stroke-linejoin:round;stroke:rgb(0%,0%,0%);stroke-opacity:1;stroke-miterlimit:10;" d="M 205.203125 211.871094 C 205.203125 216.34375 201.578125 219.964844 197.109375 219.964844 C 192.636719 219.964844 189.015625 216.34375 189.015625 211.871094 C 189.015625 207.402344 192.636719 203.78125 197.109375 203.78125 C 201.578125 203.78125 205.203125 207.402344 205.203125 211.871094 "/>
<path style="fill-rule:nonzero;fill:rgb(90.196078%,62.352941%,0%);fill-opacity:1;stroke-width:0.75;stroke-linecap:round;stroke-linejoin:round;stroke:rgb(0%,0%,0%);stroke-opacity:1;stroke-miterlimit:10;" d="M 223.929688 32.636719 C 223.929688 37.105469 220.308594 40.730469 215.835938 40.730469 C 211.367188 40.730469 207.746094 37.105469 207.746094 32.636719 C 207.746094 28.167969 211.367188 24.542969 215.835938 24.542969 C 220.308594 24.542969 223.929688 28.167969 223.929688 32.636719 "/>
<path style="fill-rule:nonzero;fill:rgb(90.196078%,62.352941%,0%);fill-opacity:1;stroke-width:0.75;stroke-linecap:round;stroke-linejoin:round;stroke:rgb(0%,0%,0%);stroke-opacity:1;stroke-miterlimit:10;" d="M 266.769531 119.992188 C 266.769531 124.460938 263.144531 128.082031 258.675781 128.082031 C 254.207031 128.082031 250.582031 124.460938 250.582031 119.992188 C 250.582031 115.519531 254.207031 111.898438 258.675781 111.898438 C 263.144531 111.898438 266.769531 115.519531 266.769531 119.992188 "/>
<path style="fill-rule:nonzero;fill:rgb(33.72549%,70.588235%,91.372549%);fill-opacity:1;stroke-width:0.75;stroke-linecap:round;stroke-linejoin:round;stroke:rgb(0%,0%,0%);stroke-opacity:1;stroke-miterlimit:10;" d="M 344.640625 218.3125 C 344.640625 222.78125 341.015625 226.40625 336.546875 226.40625 C 332.074219 226.40625 328.453125 222.78125 328.453125 218.3125 C 328.453125 213.84375 332.074219 210.21875 336.546875 210.21875 C 341.015625 210.21875 344.640625 213.84375 344.640625 218.3125 "/>
<path style="fill-rule:nonzero;fill:rgb(33.72549%,70.588235%,91.372549%);fill-opacity:1;stroke-width:0.75;stroke-linecap:round;stroke-linejoin:round;stroke:rgb(0%,0%,0%);stroke-opacity:1;stroke-miterlimit:10;" d="M 344.414063 170.570313 C 344.414063 175.039063 340.789063 178.664063 336.320313 178.664063 C 331.851563 178.664063 328.226563 175.039063 328.226563 170.570313 C 328.226563 166.101563 331.851563 162.476563 336.320313 162.476563 C 340.789063 162.476563 344.414063 166.101563 344.414063 170.570313 "/>
<path style="fill-rule:nonzero;fill:rgb(90.196078%,62.352941%,0%);fill-opacity:1;stroke-width:0.75;stroke-linecap:round;stroke-linejoin:round;stroke:rgb(0%,0%,0%);stroke-opacity:1;stroke-miterlimit:10;" d="M 152.1875 121.003906 C 152.1875 125.476563 148.5625 129.097656 144.09375 129.097656 C 139.625 129.097656 136 125.476563 136 121.003906 C 136 116.535156 139.625 112.914063 144.09375 112.914063 C 148.5625 112.914063 152.1875 116.535156 152.1875 121.003906 "/>
<path style="fill-rule:nonzero;fill:rgb(90.196078%,62.352941%,0%);fill-opacity:1;stroke-width:0.75;stroke-linecap:round;stroke-linejoin:round;stroke:rgb(0%,0%,0%);stroke-opacity:1;stroke-miterlimit:10;" d="M 210.574219 84.988281 C 210.574219 89.457031 206.953125 93.082031 202.480469 93.082031 C 198.011719 93.082031 194.390625 89.457031 194.390625 84.988281 C 194.390625 80.519531 198.011719 76.894531 202.480469 76.894531 C 206.953125 76.894531 210.574219 80.519531 210.574219 84.988281 "/>
<path style="fill-rule:nonzero;fill:rgb(33.72549%,70.588235%,91.372549%);fill-opacity:1;stroke-width:0.75;stroke-linecap:round;stroke-linejoin:round;stroke:rgb(0%,0%,0%);stroke-opacity:1;stroke-miterlimit:10;" d="M 368 163.070313 C 368 167.542969 364.375 171.164063 359.90625 171.164063 C 355.4375 171.164063 351.8125 167.542969 351.8125 163.070313 C 351.8125 158.601563 355.4375 154.980469 359.90625 154.980469 C 364.375 154.980469 368 158.601563 368 163.070313 "/>
<path style="fill-rule:nonzero;fill:rgb(90.196078%,62.352941%,0%);fill-opacity:1;stroke-width:0.75;stroke-linecap:round;stroke-linejoin:round;stroke:rgb(0%,0%,0%);stroke-opacity:1;stroke-miterlimit:10;" d="M 259.84375 200.320313 C 259.84375 204.792969 256.222656 208.414063 251.75 208.414063 C 247.28125 208.414063 243.660156 204.792969 243.660156 200.320313 C 243.660156 195.851563 247.28125 192.230469 251.75 192.230469 C 256.222656 192.230469 259.84375 195.851563 259.84375 200.320313 "/>
<path style="fill-rule:nonzero;fill:rgb(33.72549%,70.588235%,91.372549%);fill-opacity:1;stroke-width:0.75;stroke-linecap:round;stroke-linejoin:round;stroke:rgb(0%,0%,0%);stroke-opacity:1;stroke-miterlimit:10;" d="M 359.265625 202.542969 C 359.265625 207.011719 355.644531 210.632813 351.175781 210.632813 C 346.703125 210.632813 343.082031 207.011719 343.082031 202.542969 C 343.082031 198.070313 346.703125 194.449219 351.175781 194.449219 C 355.644531 194.449219 359.265625 198.070313 359.265625 202.542969 "/>
<path style="fill-rule:nonzero;fill:rgb(90.196078%,62.352941%,0%);fill-opacity:1;stroke-width:0.75;stroke-linecap:round;stroke-linejoin:round;stroke:rgb(0%,0%,0%);stroke-opacity:1;stroke-miterlimit:10;" d="M 227.238281 212.390625 C 227.238281 216.859375 223.617188 220.484375 219.144531 220.484375 C 214.675781 220.484375 211.054688 216.859375 211.054688 212.390625 C 211.054688 207.921875 214.675781 204.296875 219.144531 204.296875 C 223.617188 204.296875 227.238281 207.921875 227.238281 212.390625 "/>
<path style="fill-rule:nonzero;fill:rgb(33.72549%,70.588235%,91.372549%);fill-opacity:1;stroke-width:0.75;stroke-linecap:round;stroke-linejoin:round;stroke:rgb(0%,0%,0%);stroke-opacity:1;stroke-miterlimit:10;" d="M 329.945313 222.960938 C 329.945313 227.429688 326.320313 231.050781 321.851563 231.050781 C 317.382813 231.050781 313.757813 227.429688 313.757813 222.960938 C 313.757813 218.488281 317.382813 214.867188 321.851563 214.867188 C 326.320313 214.867188 329.945313 218.488281 329.945313 222.960938 "/>
<path style="fill-rule:nonzero;fill:rgb(33.72549%,70.588235%,91.372549%);fill-opacity:1;stroke-width:0.75;stroke-linecap:round;stroke-linejoin:round;stroke:rgb(0%,0%,0%);stroke-opacity:1;stroke-miterlimit:10;" d="M 333.394531 103.714844 C 333.394531 108.183594 329.773438 111.808594 325.304688 111.808594 C 320.832031 111.808594 317.210938 108.183594 317.210938 103.714844 C 317.210938 99.246094 320.832031 95.621094 325.304688 95.621094 C 329.773438 95.621094 333.394531 99.246094 333.394531 103.714844 "/>
<path style="fill-rule:nonzero;fill:rgb(33.72549%,70.588235%,91.372549%);fill-opacity:1;stroke-width:0.75;stroke-linecap:round;stroke-linejoin:round;stroke:rgb(0%,0%,0%);stroke-opacity:1;stroke-miterlimit:10;" d="M 319.636719 18.09375 C 319.636719 22.5625 316.015625 26.1875 311.546875 26.1875 C 307.074219 26.1875 303.453125 22.5625 303.453125 18.09375 C 303.453125 13.625 307.074219 10 311.546875 10 C 316.015625 10 319.636719 13.625 319.636719 18.09375 "/>
<path style="fill-rule:nonzero;fill:rgb(33.72549%,70.588235%,91.372549%);fill-opacity:1;stroke-width:0.75;stroke-linecap:round;stroke-linejoin:round;stroke:rgb(0%,0%,0%);stroke-opacity:1;stroke-miterlimit:10;" d="M 323.21875 58.871094 C 323.21875 63.34375 319.59375 66.964844 315.125 66.964844 C 310.65625 66.964844 307.03125 63.34375 307.03125 58.871094 C 307.03125 54.402344 310.65625 50.78125 315.125 50.78125 C 319.59375 50.78125 323.21875 54.402344 323.21875 58.871094 "/>
<path style="fill-rule:nonzero;fill:rgb(33.72549%,70.588235%,91.372549%);fill-opacity:1;stroke-width:0.75;stroke-linecap:round;stroke-linejoin:round;stroke:rgb(0%,0%,0%);stroke-opacity:1;stroke-miterlimit:10;" d="M 366.796875 103.066406 C 366.796875 107.535156 363.171875 111.160156 358.703125 111.160156 C 354.234375 111.160156 350.609375 107.535156 350.609375 103.066406 C 350.609375 98.597656 354.234375 94.972656 358.703125 94.972656 C 363.171875 94.972656 366.796875 98.597656 366.796875 103.066406 "/>
<path style="fill-rule:nonzero;fill:rgb(33.72549%,70.588235%,91.372549%);fill-opacity:1;stroke-width:0.75;stroke-linecap:round;stroke-linejoin:round;stroke:rgb(0%,0%,0%);stroke-opacity:1;stroke-miterlimit:10;" d="M 314.523438 84.90625 C 314.523438 89.378906 310.898438 93 306.429688 93 C 301.960938 93 298.335938 89.378906 298.335938 84.90625 C 298.335938 80.4375 301.960938 76.816406 306.429688 76.816406 C 310.898438 76.816406 314.523438 80.4375 314.523438 84.90625 "/>
<path style="fill-rule:nonzero;fill:rgb(33.72549%,70.588235%,91.372549%);fill-opacity:1;stroke-width:0.75;stroke-linecap:round;stroke-linejoin:round;stroke:rgb(0%,0%,0%);stroke-opacity:1;stroke-miterlimit:10;" d="M 292.371094 74.28125 C 292.371094 78.75 288.75 82.375 284.277344 82.375 C 279.808594 82.375 276.1875 78.75 276.1875 74.28125 C 276.1875 69.8125 279.808594 66.1875 284.277344 66.1875 C 288.75 66.1875 292.371094 69.8125 292.371094 74.28125 "/>
<path style="fill-rule:nonzero;fill:rgb(33.72549%,70.588235%,91.372549%);fill-opacity:1;stroke-width:0.75;stroke-linecap:round;stroke-linejoin:round;stroke:rgb(0%,0%,0%);stroke-opacity:1;stroke-miterlimit:10;" d="M 351.34375 121.179688 C 351.34375 125.648438 347.71875 129.273438 343.25 129.273438 C 338.78125 129.273438 335.15625 125.648438 335.15625 121.179688 C 335.15625 116.707031 338.78125 113.085938 343.25 113.085938 C 347.71875 113.085938 351.34375 116.707031 351.34375 121.179688 "/>
<path style="fill-rule:nonzero;fill:rgb(33.72549%,70.588235%,91.372549%);fill-opacity:1;stroke-width:0.75;stroke-linecap:round;stroke-linejoin:round;stroke:rgb(0%,0%,0%);stroke-opacity:1;stroke-miterlimit:10;" d="M 297.46875 178.195313 C 297.46875 182.667969 293.847656 186.289063 289.378906 186.289063 C 284.90625 186.289063 281.285156 182.667969 281.285156 178.195313 C 281.285156 173.726563 284.90625 170.105469 289.378906 170.105469 C 293.847656 170.105469 297.46875 173.726563 297.46875 178.195313 "/>
<path style="fill-rule:nonzero;fill:rgb(33.72549%,70.588235%,91.372549%);fill-opacity:1;stroke-width:0.75;stroke-linecap:round;stroke-linejoin:round;stroke:rgb(0%,0%,0%);stroke-opacity:1;stroke-miterlimit:10;" d="M 302.410156 99.441406 C 302.410156 103.910156 298.785156 107.535156 294.316406 107.535156 C 289.84375 107.535156 286.222656 103.910156 286.222656 99.441406 C 286.222656 94.972656 289.84375 91.347656 294.316406 91.347656 C 298.785156 91.347656 302.410156 94.972656 302.410156 99.441406 "/>
<path style="fill-rule:nonzero;fill:rgb(33.72549%,70.588235%,91.372549%);fill-opacity:1;stroke-width:0.75;stroke-linecap:round;stroke-linejoin:round;stroke:rgb(0%,0%,0%);stroke-opacity:1;stroke-miterlimit:10;" d="M 325.988281 157.875 C 325.988281 162.347656 322.363281 165.96875 317.894531 165.96875 C 313.425781 165.96875 309.800781 162.347656 309.800781 157.875 C 309.800781 153.40625 313.425781 149.785156 317.894531 149.785156 C 322.363281 149.785156 325.988281 153.40625 325.988281 157.875 "/>
<path style="fill-rule:nonzero;fill:rgb(33.72549%,70.588235%,91.372549%);fill-opacity:1;stroke-width:0.75;stroke-linecap:round;stroke-linejoin:round;stroke:rgb(0%,0%,0%);stroke-opacity:1;stroke-miterlimit:10;" d="M 318.355469 148.410156 C 318.355469 152.878906 314.734375 156.503906 310.261719 156.503906 C 305.792969 156.503906 302.171875 152.878906 302.171875 148.410156 C 302.171875 143.941406 305.792969 140.316406 310.261719 140.316406 C 314.734375 140.316406 318.355469 143.941406 318.355469 148.410156 "/>
<g style="fill:rgb(0%,0%,54.509804%);fill-opacity:1;">
  <use xlink:href="#glyph0-1" x="219.875" y="144.0625"/>
</g>
<g style="fill:rgb(0%,0%,54.509804%);fill-opacity:1;">
  <use xlink:href="#glyph0-2" x="241" y="152.609375"/>
</g>
<g style="fill:rgb(0%,0%,54.509804%);fill-opacity:1;">
  <use xlink:href="#glyph0-3" x="260.011719" y="138.949219"/>
</g>
<g style="fill:rgb(0%,0%,54.509804%);fill-opacity:1;">
  <use xlink:href="#glyph0-4" x="233.078125" y="93.953125"/>
</g>
<g style="fill:rgb(0%,0%,54.509804%);fill-opacity:1;">
  <use xlink:href="#glyph0-5" x="185.941406" y="149.820313"/>
</g>
<g style="fill:rgb(0%,0%,54.509804%);fill-opacity:1;">
  <use xlink:href="#glyph0-6" x="169.394531" y="144.410156"/>
</g>
<g style="fill:rgb(0%,0%,54.509804%);fill-opacity:1;">
  <use xlink:href="#glyph0-7" x="172.011719" y="119.570313"/>
</g>
<g style="fill:rgb(0%,0%,54.509804%);fill-opacity:1;">
  <use xlink:href="#glyph0-8" x="235.183594" y="122.007813"/>
</g>
<g style="fill:rgb(0%,0%,54.509804%);fill-opacity:1;">
  <use xlink:href="#glyph0-9" x="277.332031" y="157.777344"/>
</g>
<g style="fill:rgb(0%,0%,54.509804%);fill-opacity:1;">
  <use xlink:href="#glyph0-10" x="287.5" y="237.890625"/>
  <use xlink:href="#glyph0-11" x="293.5" y="237.890625"/>
</g>
<g style="fill:rgb(0%,0%,54.509804%);fill-opacity:1;">
  <use xlink:href="#glyph0-10" x="172.378906" y="181.113281"/>
  <use xlink:href="#glyph0-10" x="178.378906" y="181.113281"/>
</g>
<g style="fill:rgb(0%,0%,54.509804%);fill-opacity:1;">
  <use xlink:href="#glyph0-10" x="191.109375" y="215.925781"/>
  <use xlink:href="#glyph0-2" x="197.109375" y="215.925781"/>
</g>
<g style="fill:rgb(0%,0%,54.509804%);fill-opacity:1;">
  <use xlink:href="#glyph0-10" x="209.835938" y="36.621094"/>
  <use xlink:href="#glyph0-3" x="215.835938" y="36.621094"/>
</g>
<g style="fill:rgb(0%,0%,54.509804%);fill-opacity:1;">
  <use xlink:href="#glyph0-10" x="252.675781" y="124.046875"/>
  <use xlink:href="#glyph0-4" x="258.675781" y="124.046875"/>
</g>
<g style="fill:rgb(0%,0%,54.509804%);fill-opacity:1;">
  <use xlink:href="#glyph0-10" x="330.546875" y="222.296875"/>
  <use xlink:href="#glyph0-5" x="336.546875" y="222.296875"/>
</g>
<g style="fill:rgb(0%,0%,54.509804%);fill-opacity:1;">
  <use xlink:href="#glyph0-10" x="330.320313" y="174.554688"/>
  <use xlink:href="#glyph0-6" x="336.320313" y="174.554688"/>
</g>
<g style="fill:rgb(0%,0%,54.509804%);fill-opacity:1;">
  <use xlink:href="#glyph0-10" x="138.09375" y="124.976563"/>
  <use xlink:href="#glyph0-7" x="144.09375" y="124.976563"/>
</g>
<g style="fill:rgb(0%,0%,54.509804%);fill-opacity:1;">
  <use xlink:href="#glyph0-10" x="196.480469" y="88.972656"/>
  <use xlink:href="#glyph0-8" x="202.480469" y="88.972656"/>
</g>
<g style="fill:rgb(0%,0%,54.509804%);fill-opacity:1;">
  <use xlink:href="#glyph0-10" x="353.90625" y="167.042969"/>
  <use xlink:href="#glyph0-9" x="359.90625" y="167.042969"/>
</g>
<g style="fill:rgb(0%,0%,54.509804%);fill-opacity:1;">
  <use xlink:href="#glyph0-2" x="245.75" y="204.304688"/>
  <use xlink:href="#glyph0-11" x="251.75" y="204.304688"/>
</g>
<g style="fill:rgb(0%,0%,54.509804%);fill-opacity:1;">
  <use xlink:href="#glyph0-2" x="345.175781" y="206.597656"/>
  <use xlink:href="#glyph0-10" x="351.175781" y="206.597656"/>
</g>
<g style="fill:rgb(0%,0%,54.509804%);fill-opacity:1;">
  <use xlink:href="#glyph0-2" x="213.144531" y="216.445313"/>
  <use xlink:href="#glyph0-2" x="219.144531" y="216.445313"/>
</g>
<g style="fill:rgb(0%,0%,54.509804%);fill-opacity:1;">
  <use xlink:href="#glyph0-2" x="315.851563" y="226.945313"/>
  <use xlink:href="#glyph0-3" x="321.851563" y="226.945313"/>
</g>
<g style="fill:rgb(0%,0%,54.509804%);fill-opacity:1;">
  <use xlink:href="#glyph0-2" x="319.304688" y="107.769531"/>
  <use xlink:href="#glyph0-4" x="325.304688" y="107.769531"/>
</g>
<g style="fill:rgb(0%,0%,54.509804%);fill-opacity:1;">
  <use xlink:href="#glyph0-2" x="305.546875" y="22.078125"/>
  <use xlink:href="#glyph0-5" x="311.546875" y="22.078125"/>
</g>
<g style="fill:rgb(0%,0%,54.509804%);fill-opacity:1;">
  <use xlink:href="#glyph0-2" x="309.125" y="62.855469"/>
  <use xlink:href="#glyph0-6" x="315.125" y="62.855469"/>
</g>
<g style="fill:rgb(0%,0%,54.509804%);fill-opacity:1;">
  <use xlink:href="#glyph0-2" x="352.703125" y="107.039063"/>
  <use xlink:href="#glyph0-7" x="358.703125" y="107.039063"/>
</g>
<g style="fill:rgb(0%,0%,54.509804%);fill-opacity:1;">
  <use xlink:href="#glyph0-2" x="300.429688" y="88.890625"/>
  <use xlink:href="#glyph0-8" x="306.429688" y="88.890625"/>
</g>
<g style="fill:rgb(0%,0%,54.509804%);fill-opacity:1;">
  <use xlink:href="#glyph0-2" x="278.277344" y="78.253906"/>
  <use xlink:href="#glyph0-9" x="284.277344" y="78.253906"/>
</g>
<g style="fill:rgb(0%,0%,54.509804%);fill-opacity:1;">
  <use xlink:href="#glyph0-3" x="337.25" y="125.164063"/>
  <use xlink:href="#glyph0-11" x="343.25" y="125.164063"/>
</g>
<g style="fill:rgb(0%,0%,54.509804%);fill-opacity:1;">
  <use xlink:href="#glyph0-3" x="283.378906" y="182.179688"/>
  <use xlink:href="#glyph0-10" x="289.378906" y="182.179688"/>
</g>
<g style="fill:rgb(0%,0%,54.509804%);fill-opacity:1;">
  <use xlink:href="#glyph0-3" x="288.316406" y="103.425781"/>
  <use xlink:href="#glyph0-2" x="294.316406" y="103.425781"/>
</g>
<g style="fill:rgb(0%,0%,54.509804%);fill-opacity:1;">
  <use xlink:href="#glyph0-3" x="311.894531" y="161.859375"/>
  <use xlink:href="#glyph0-3" x="317.894531" y="161.859375"/>
</g>
<g style="fill:rgb(0%,0%,54.509804%);fill-opacity:1;">
  <use xlink:href="#glyph0-12" x="305.929688" y="152.472656"/>
</g>
</g>
</svg>
