<?xml version="1.0" encoding="UTF-8"?>
<svg xmlns="http://www.w3.org/2000/svg" xmlns:xlink="http://www.w3.org/1999/xlink" width="504pt" height="252pt" viewBox="0 0 504 252" version="1.1">
<g id="surface124">
<rect x="0" y="0" width="504" height="252" style="fill:rgb(100%,100%,100%);fill-opacity:1;stroke:none;"/>
<path style="fill-rule:nonzero;fill:rgb(0%,0%,0%);fill-opacity:1;stroke-width:0.75;stroke-linecap:round;stroke-linejoin:round;stroke:rgb(0%,0%,0%);stroke-opacity:1;stroke-miterlimit:10;" d="M 278.59375 153.691406 L 259.230469 161.164063 L 259.144531 160.945313 L 278.511719 153.472656 Z M 278.59375 153.691406 "/>
<path style="fill-rule:nonzero;fill:rgb(0%,0%,0%);fill-opacity:1;stroke-width:0.75;stroke-linecap:round;stroke-linejoin:round;stroke:rgb(0%,0%,0%);stroke-opacity:1;stroke-miterlimit:10;" d="M 278.875 151.335938 L 242.128906 120.144531 L 242.28125 119.964844 L 279.023438 151.15625 Z M 278.875 151.335938 "/>
<path style="fill-rule:nonzero;fill:rgb(0%,0%,0%);fill-opacity:1;stroke-width:0.75;stroke-linecap:round;stroke-linejoin:round;stroke:rgb(0%,0%,0%);stroke-opacity:1;stroke-miterlimit:10;" d="M 280.507813 150.433594 L 279.363281 121.75 L 279.59375 121.742188 L 280.738281 150.425781 Z M 280.507813 150.433594 "/>
<path style="fill-rule:nonzero;fill:rgb(0%,0%,0%);fill-opacity:1;stroke-width:0.75;stroke-linecap:round;stroke-linejoin:round;stroke:rgb(0%,0%,0%);stroke-opacity:1;stroke-miterlimit:10;" d="M 281.960938 154.707031 L 306.878906 198.636719 L 306.679688 198.75 L 281.761719 154.824219 Z M 281.960938 154.707031 "/>
<path style="fill-rule:nonzero;fill:rgb(0%,0%,0%);fill-opacity:1;stroke-width:0.75;stroke-linecap:round;stroke-linejoin:round;stroke:rgb(0%,0%,0%);stroke-opacity:1;stroke-miterlimit:10;" d="M 283.023438 153.015625 L 331.335938 161.058594 L 331.296875 161.289063 L 282.984375 153.242188 Z M 283.023438 153.015625 "/>
<path style="fill-rule:nonzero;fill:rgb(0%,0%,0%);fill-opacity:1;stroke-width:0.75;stroke-linecap:round;stroke-linejoin:round;stroke:rgb(0%,0%,0%);stroke-opacity:1;stroke-miterlimit:10;" d="M 282.824219 153.726563 L 328.789063 177.964844 L 328.679688 178.167969 L 282.714844 153.933594 Z M 282.824219 153.726563 "/>
<path style="fill-rule:nonzero;fill:rgb(0%,0%,0%);fill-opacity:1;stroke-width:0.75;stroke-linecap:round;stroke-linejoin:round;stroke:rgb(0%,0%,0%);stroke-opacity:1;stroke-miterlimit:10;" d="M 281.207031 150.476563 L 286.082031 132.300781 L 286.304688 132.359375 L 281.429688 150.535156 Z M 281.207031 150.476563 "/>
<path style="fill-rule:nonzero;fill:rgb(0%,0%,0%);fill-opacity:1;stroke-width:0.75;stroke-linecap:round;stroke-linejoin:round;stroke:rgb(0%,0%,0%);stroke-opacity:1;stroke-miterlimit:10;" d="M 278.398438 152.605469 L 225.730469 146.695313 L 225.757813 146.464844 L 278.425781 152.375 Z M 278.398438 152.605469 "/>
<path style="fill-rule:nonzero;fill:rgb(0%,0%,0%);fill-opacity:1;stroke-width:0.75;stroke-linecap:round;stroke-linejoin:round;stroke:rgb(0%,0%,0%);stroke-opacity:1;stroke-miterlimit:10;" d="M 282.496094 154.238281 L 313.011719 182.503906 L 312.851563 182.671875 L 282.339844 154.410156 Z M 282.496094 154.238281 "/>
<path style="fill-rule:nonzero;fill:rgb(0%,0%,0%);fill-opacity:1;stroke-width:0.75;stroke-linecap:round;stroke-linejoin:round;stroke:rgb(0%,0%,0%);stroke-opacity:1;stroke-miterlimit:10;" d="M 282.835938 151.796875 L 329.542969 133.628906 L 329.625 133.847656 L 282.921875 152.015625 Z M 282.835938 151.796875 "/>
<path style="fill-rule:nonzero;fill:rgb(0%,0%,0%);fill-opacity:1;stroke-width:0.75;stroke-linecap:round;stroke-linejoin:round;stroke:rgb(0%,0%,0%);stroke-opacity:1;stroke-miterlimit:10;" d="M 282.070313 150.859375 L 312.714844 112.386719 L 312.898438 112.53125 L 282.253906 151.003906 Z M 282.070313 150.859375 "/>
<path style="fill-rule:nonzero;fill:rgb(0%,0%,0%);fill-opacity:1;stroke-width:0.75;stroke-linecap:round;stroke-linejoin:round;stroke:rgb(0%,0%,0%);stroke-opacity:1;stroke-miterlimit:10;" d="M 278.558594 151.886719 L 244.558594 136.300781 L 244.652344 136.089844 L 278.65625 151.675781 Z M 278.558594 151.886719 "/>
<path style="fill-rule:nonzero;fill:rgb(0%,0%,0%);fill-opacity:1;stroke-width:0.75;stroke-linecap:round;stroke-linejoin:round;stroke:rgb(0%,0%,0%);stroke-opacity:1;stroke-miterlimit:10;" d="M 280.09375 154.984375 L 264.871094 200.65625 L 264.652344 200.585938 L 279.875 154.910156 Z M 280.09375 154.984375 "/>
<path style="fill-rule:nonzero;fill:rgb(0%,0%,0%);fill-opacity:1;stroke-width:0.75;stroke-linecap:round;stroke-linejoin:round;stroke:rgb(0%,0%,0%);stroke-opacity:1;stroke-miterlimit:10;" d="M 278.5 153.445313 L 230.039063 166.050781 L 229.980469 165.824219 L 278.441406 153.21875 Z M 278.5 153.445313 "/>
<path style="fill-rule:nonzero;fill:rgb(0%,0%,0%);fill-opacity:1;stroke-width:0.75;stroke-linecap:round;stroke-linejoin:round;stroke:rgb(0%,0%,0%);stroke-opacity:1;stroke-miterlimit:10;" d="M 280.832031 155.066406 L 280.8125 195.75 L 280.582031 195.75 L 280.601563 155.066406 Z M 280.832031 155.066406 "/>
<path style="fill-rule:nonzero;fill:rgb(0%,0%,0%);fill-opacity:1;stroke-width:0.75;stroke-linecap:round;stroke-linejoin:round;stroke:rgb(0%,0%,0%);stroke-opacity:1;stroke-miterlimit:10;" d="M 279.035156 151.148438 L 233.152344 102.941406 L 233.320313 102.78125 L 279.203125 150.988281 Z M 279.035156 151.148438 "/>
<path style="fill-rule:nonzero;fill:rgb(0%,0%,0%);fill-opacity:1;stroke-width:0.75;stroke-linecap:round;stroke-linejoin:round;stroke:rgb(0%,0%,0%);stroke-opacity:1;stroke-miterlimit:10;" d="M 256.085938 159.765625 L 241.15625 120.761719 L 241.375 120.679688 L 256.300781 159.679688 Z M 256.085938 159.765625 "/>
<path style="fill-rule:nonzero;fill:rgb(0%,0%,0%);fill-opacity:1;stroke-width:0.75;stroke-linecap:round;stroke-linejoin:round;stroke:rgb(0%,0%,0%);stroke-opacity:1;stroke-miterlimit:10;" d="M 258 159.78125 L 278.203125 121.425781 L 278.40625 121.535156 L 258.207031 159.890625 Z M 258 159.78125 "/>
<path style="fill-rule:nonzero;fill:rgb(0%,0%,0%);fill-opacity:1;stroke-width:0.75;stroke-linecap:round;stroke-linejoin:round;stroke:rgb(0%,0%,0%);stroke-opacity:1;stroke-miterlimit:10;" d="M 258.523438 160.117188 L 285.125 131.703125 L 285.292969 131.863281 L 258.695313 160.273438 Z M 258.523438 160.117188 "/>
<path style="fill-rule:nonzero;fill:rgb(0%,0%,0%);fill-opacity:1;stroke-width:0.75;stroke-linecap:round;stroke-linejoin:round;stroke:rgb(0%,0%,0%);stroke-opacity:1;stroke-miterlimit:10;" d="M 255.8125 159.90625 L 243.503906 137.320313 L 243.707031 137.210938 L 256.015625 159.796875 Z M 255.8125 159.90625 "/>
<path style="fill-rule:nonzero;fill:rgb(0%,0%,0%);fill-opacity:1;stroke-width:0.75;stroke-linecap:round;stroke-linejoin:round;stroke:rgb(0%,0%,0%);stroke-opacity:1;stroke-miterlimit:10;" d="M 257.527344 164.15625 L 263.75 200.515625 L 263.519531 200.554688 L 257.300781 164.195313 Z M 257.527344 164.15625 "/>
<path style="fill-rule:nonzero;fill:rgb(0%,0%,0%);fill-opacity:1;stroke-width:0.75;stroke-linecap:round;stroke-linejoin:round;stroke:rgb(0%,0%,0%);stroke-opacity:1;stroke-miterlimit:10;" d="M 254.75 162.367188 L 230.074219 166.273438 L 230.039063 166.042969 L 254.714844 162.136719 Z M 254.75 162.367188 "/>
<path style="fill-rule:nonzero;fill:rgb(0%,0%,0%);fill-opacity:1;stroke-width:0.75;stroke-linecap:round;stroke-linejoin:round;stroke:rgb(0%,0%,0%);stroke-opacity:1;stroke-miterlimit:10;" d="M 258.390625 163.765625 L 279.523438 196.066406 L 279.328125 196.191406 L 258.195313 163.894531 Z M 258.390625 163.765625 "/>
<path style="fill-rule:nonzero;fill:rgb(0%,0%,0%);fill-opacity:1;stroke-width:0.75;stroke-linecap:round;stroke-linejoin:round;stroke:rgb(0%,0%,0%);stroke-opacity:1;stroke-miterlimit:10;" d="M 254.71875 162.183594 L 206.394531 165.878906 L 206.375 165.648438 L 254.699219 161.949219 Z M 254.71875 162.183594 "/>
<path style="fill-rule:nonzero;fill:rgb(0%,0%,0%);fill-opacity:1;stroke-width:0.75;stroke-linecap:round;stroke-linejoin:round;stroke:rgb(0%,0%,0%);stroke-opacity:1;stroke-miterlimit:10;" d="M 242.757813 118.488281 L 277.070313 119.261719 L 277.0625 119.492188 L 242.753906 118.722656 Z M 242.757813 118.488281 "/>
<path style="fill-rule:nonzero;fill:rgb(0%,0%,0%);fill-opacity:1;stroke-width:0.75;stroke-linecap:round;stroke-linejoin:round;stroke:rgb(0%,0%,0%);stroke-opacity:1;stroke-miterlimit:10;" d="M 242.714844 119 L 284.570313 129.417969 L 284.515625 129.640625 L 242.660156 119.226563 Z M 242.714844 119 "/>
<path style="fill-rule:nonzero;fill:rgb(0%,0%,0%);fill-opacity:1;stroke-width:0.75;stroke-linecap:round;stroke-linejoin:round;stroke:rgb(0%,0%,0%);stroke-opacity:1;stroke-miterlimit:10;" d="M 239.324219 120.59375 L 224.746094 144.402344 L 224.550781 144.28125 L 239.125 120.472656 Z M 239.324219 120.59375 "/>
<path style="fill-rule:nonzero;fill:rgb(0%,0%,0%);fill-opacity:1;stroke-width:0.75;stroke-linecap:round;stroke-linejoin:round;stroke:rgb(0%,0%,0%);stroke-opacity:1;stroke-miterlimit:10;" d="M 239.363281 116.492188 L 225.734375 86.839844 L 225.945313 86.742188 L 239.574219 116.398438 Z M 239.363281 116.492188 "/>
<path style="fill-rule:nonzero;fill:rgb(0%,0%,0%);fill-opacity:1;stroke-width:0.75;stroke-linecap:round;stroke-linejoin:round;stroke:rgb(0%,0%,0%);stroke-opacity:1;stroke-miterlimit:10;" d="M 240.835938 120.839844 L 242.328125 132.914063 L 242.097656 132.941406 L 240.605469 120.871094 Z M 240.835938 120.839844 "/>
<path style="fill-rule:nonzero;fill:rgb(0%,0%,0%);fill-opacity:1;stroke-width:0.75;stroke-linecap:round;stroke-linejoin:round;stroke:rgb(0%,0%,0%);stroke-opacity:1;stroke-miterlimit:10;" d="M 238.992188 116.734375 L 212.378906 79.519531 L 212.570313 79.386719 L 239.179688 116.597656 Z M 238.992188 116.734375 "/>
<path style="fill-rule:nonzero;fill:rgb(0%,0%,0%);fill-opacity:1;stroke-width:0.75;stroke-linecap:round;stroke-linejoin:round;stroke:rgb(0%,0%,0%);stroke-opacity:1;stroke-miterlimit:10;" d="M 238.390625 117.453125 L 205.679688 97.691406 L 205.796875 97.492188 L 238.511719 117.253906 Z M 238.390625 117.453125 "/>
<path style="fill-rule:nonzero;fill:rgb(0%,0%,0%);fill-opacity:1;stroke-width:0.75;stroke-linecap:round;stroke-linejoin:round;stroke:rgb(0%,0%,0%);stroke-opacity:1;stroke-miterlimit:10;" d="M 238.179688 119.101563 L 185.613281 129.148438 L 185.570313 128.921875 L 238.136719 118.875 Z M 238.179688 119.101563 "/>
<path style="fill-rule:nonzero;fill:rgb(0%,0%,0%);fill-opacity:1;stroke-width:0.75;stroke-linecap:round;stroke-linejoin:round;stroke:rgb(0%,0%,0%);stroke-opacity:1;stroke-miterlimit:10;" d="M 280.804688 121.265625 L 285.566406 128.117188 L 285.375 128.25 L 280.613281 121.398438 Z M 280.804688 121.265625 "/>
<path style="fill-rule:nonzero;fill:rgb(0%,0%,0%);fill-opacity:1;stroke-width:0.75;stroke-linecap:round;stroke-linejoin:round;stroke:rgb(0%,0%,0%);stroke-opacity:1;stroke-miterlimit:10;" d="M 281.609375 118.75 L 311.972656 111.101563 L 312.03125 111.324219 L 281.664063 118.972656 Z M 281.609375 118.75 "/>
<path style="fill-rule:nonzero;fill:rgb(0%,0%,0%);fill-opacity:1;stroke-width:0.75;stroke-linecap:round;stroke-linejoin:round;stroke:rgb(0%,0%,0%);stroke-opacity:1;stroke-miterlimit:10;" d="M 277.300781 120.449219 L 244.675781 134.421875 L 244.582031 134.210938 L 277.207031 120.234375 Z M 277.300781 120.449219 "/>
<path style="fill-rule:nonzero;fill:rgb(0%,0%,0%);fill-opacity:1;stroke-width:0.75;stroke-linecap:round;stroke-linejoin:round;stroke:rgb(0%,0%,0%);stroke-opacity:1;stroke-miterlimit:10;" d="M 309.53125 199.035156 L 329.019531 180.65625 L 329.175781 180.824219 L 309.691406 199.203125 Z M 309.53125 199.035156 "/>
<path style="fill-rule:nonzero;fill:rgb(0%,0%,0%);fill-opacity:1;stroke-width:0.75;stroke-linecap:round;stroke-linejoin:round;stroke:rgb(0%,0%,0%);stroke-opacity:1;stroke-miterlimit:10;" d="M 308.6875 198.515625 L 313.652344 186.269531 L 313.867188 186.359375 L 308.902344 198.605469 Z M 308.6875 198.515625 "/>
<path style="fill-rule:nonzero;fill:rgb(0%,0%,0%);fill-opacity:1;stroke-width:0.75;stroke-linecap:round;stroke-linejoin:round;stroke:rgb(0%,0%,0%);stroke-opacity:1;stroke-miterlimit:10;" d="M 333.351563 163.863281 L 331.265625 176.875 L 331.039063 176.839844 L 333.125 163.828125 Z M 333.351563 163.863281 "/>
<path style="fill-rule:nonzero;fill:rgb(0%,0%,0%);fill-opacity:1;stroke-width:0.75;stroke-linecap:round;stroke-linejoin:round;stroke:rgb(0%,0%,0%);stroke-opacity:1;stroke-miterlimit:10;" d="M 332.203125 163.40625 L 316.214844 182.460938 L 316.035156 182.3125 L 332.027344 163.257813 Z M 332.203125 163.40625 "/>
<path style="fill-rule:nonzero;fill:rgb(0%,0%,0%);fill-opacity:1;stroke-width:0.75;stroke-linecap:round;stroke-linejoin:round;stroke:rgb(0%,0%,0%);stroke-opacity:1;stroke-miterlimit:10;" d="M 335.753906 162.441406 L 363.972656 175.78125 L 363.871094 175.992188 L 335.652344 162.652344 Z M 335.753906 162.441406 "/>
<path style="fill-rule:nonzero;fill:rgb(0%,0%,0%);fill-opacity:1;stroke-width:0.75;stroke-linecap:round;stroke-linejoin:round;stroke:rgb(0%,0%,0%);stroke-opacity:1;stroke-miterlimit:10;" d="M 333.09375 178.882813 L 363.695313 176.910156 L 363.710938 177.140625 L 333.109375 179.113281 Z M 333.09375 178.882813 "/>
<path style="fill-rule:nonzero;fill:rgb(0%,0%,0%);fill-opacity:1;stroke-width:0.75;stroke-linecap:round;stroke-linejoin:round;stroke:rgb(0%,0%,0%);stroke-opacity:1;stroke-miterlimit:10;" d="M 221.890625 148.054688 L 205.785156 164.371094 L 205.617188 164.207031 L 221.726563 147.890625 Z M 221.890625 148.054688 "/>
<path style="fill-rule:nonzero;fill:rgb(0%,0%,0%);fill-opacity:1;stroke-width:0.75;stroke-linecap:round;stroke-linejoin:round;stroke:rgb(0%,0%,0%);stroke-opacity:1;stroke-miterlimit:10;" d="M 221.253906 145.53125 L 185.40625 130.476563 L 185.496094 130.261719 L 221.34375 145.316406 Z M 221.253906 145.53125 "/>
<path style="fill-rule:nonzero;fill:rgb(0%,0%,0%);fill-opacity:1;stroke-width:0.75;stroke-linecap:round;stroke-linejoin:round;stroke:rgb(0%,0%,0%);stroke-opacity:1;stroke-miterlimit:10;" d="M 221.414063 145.179688 L 189.308594 124.890625 L 189.433594 124.695313 L 221.539063 144.984375 Z M 221.414063 145.179688 "/>
<path style="fill-rule:nonzero;fill:rgb(0%,0%,0%);fill-opacity:1;stroke-width:0.75;stroke-linecap:round;stroke-linejoin:round;stroke:rgb(0%,0%,0%);stroke-opacity:1;stroke-miterlimit:10;" d="M 223.34375 86.433594 L 189.105469 121.964844 L 188.9375 121.804688 L 223.179688 86.273438 Z M 223.34375 86.433594 "/>
<path style="fill-rule:nonzero;fill:rgb(0%,0%,0%);fill-opacity:1;stroke-width:0.75;stroke-linecap:round;stroke-linejoin:round;stroke:rgb(0%,0%,0%);stroke-opacity:1;stroke-miterlimit:10;" d="M 240.203125 134.863281 L 189.65625 124.148438 L 189.703125 123.921875 L 240.25 134.632813 Z M 240.203125 134.863281 "/>
<path style="fill-rule:nonzero;fill:rgb(0%,0%,0%);fill-opacity:1;stroke-width:0.75;stroke-linecap:round;stroke-linejoin:round;stroke:rgb(0%,0%,0%);stroke-opacity:1;stroke-miterlimit:10;" d="M 155.824219 159.394531 L 181.660156 131.105469 L 181.832031 131.261719 L 155.996094 159.550781 Z M 155.824219 159.394531 "/>
<path style="fill-rule:nonzero;fill:rgb(0%,0%,0%);fill-opacity:1;stroke-width:0.75;stroke-linecap:round;stroke-linejoin:round;stroke:rgb(0%,0%,0%);stroke-opacity:1;stroke-miterlimit:10;" d="M 155.789063 159.367188 L 185.792969 125.222656 L 185.964844 125.375 L 155.964844 159.519531 Z M 155.789063 159.367188 "/>
<path style="fill-rule:nonzero;fill:rgb(0%,0%,0%);fill-opacity:1;stroke-width:0.75;stroke-linecap:round;stroke-linejoin:round;stroke:rgb(0%,0%,0%);stroke-opacity:1;stroke-miterlimit:10;" d="M 144.824219 134.359375 L 180.996094 129.65625 L 181.027344 129.886719 L 144.855469 134.589844 Z M 144.824219 134.359375 "/>
<path style="fill-rule:nonzero;fill:rgb(0%,0%,0%);fill-opacity:1;stroke-width:0.75;stroke-linecap:round;stroke-linejoin:round;stroke:rgb(0%,0%,0%);stroke-opacity:1;stroke-miterlimit:10;" d="M 144.761719 134.097656 L 185.132813 124.003906 L 185.1875 124.230469 L 144.816406 134.324219 Z M 144.761719 134.097656 "/>
<path style="fill-rule:nonzero;fill:rgb(0%,0%,0%);fill-opacity:1;stroke-width:0.75;stroke-linecap:round;stroke-linejoin:round;stroke:rgb(0%,0%,0%);stroke-opacity:1;stroke-miterlimit:10;" d="M 168.925781 168.078125 L 182.398438 131.605469 L 182.617188 131.6875 L 169.144531 168.15625 Z M 168.925781 168.078125 "/>
<path style="fill-rule:nonzero;fill:rgb(0%,0%,0%);fill-opacity:1;stroke-width:0.75;stroke-linecap:round;stroke-linejoin:round;stroke:rgb(0%,0%,0%);stroke-opacity:1;stroke-miterlimit:10;" d="M 169.003906 168.101563 L 186.421875 125.65625 L 186.636719 125.746094 L 169.21875 168.191406 Z M 169.003906 168.101563 "/>
<path style="fill-rule:nonzero;fill:rgb(0%,0%,0%);fill-opacity:1;stroke-width:0.75;stroke-linecap:round;stroke-linejoin:round;stroke:rgb(0%,0%,0%);stroke-opacity:1;stroke-miterlimit:10;" d="M 226.09375 164.910156 L 188.914063 125.324219 L 189.082031 125.167969 L 226.261719 164.75 Z M 226.09375 164.910156 "/>
<path style="fill-rule:nonzero;fill:rgb(0%,0%,0%);fill-opacity:1;stroke-width:0.75;stroke-linecap:round;stroke-linejoin:round;stroke:rgb(0%,0%,0%);stroke-opacity:1;stroke-miterlimit:10;" d="M 146.90625 147.78125 L 181.191406 130.414063 L 181.292969 130.621094 L 147.011719 147.988281 Z M 146.90625 147.78125 "/>
<path style="fill-rule:nonzero;fill:rgb(0%,0%,0%);fill-opacity:1;stroke-width:0.75;stroke-linecap:round;stroke-linejoin:round;stroke:rgb(0%,0%,0%);stroke-opacity:1;stroke-miterlimit:10;" d="M 146.820313 147.644531 L 185.359375 124.644531 L 185.476563 124.84375 L 146.941406 147.84375 Z M 146.820313 147.644531 "/>
<path style="fill-rule:nonzero;fill:rgb(0%,0%,0%);fill-opacity:1;stroke-width:0.75;stroke-linecap:round;stroke-linejoin:round;stroke:rgb(0%,0%,0%);stroke-opacity:1;stroke-miterlimit:10;" d="M 143.714844 119.476563 L 181.089844 128.796875 L 181.03125 129.023438 L 143.65625 119.699219 Z M 143.714844 119.476563 "/>
<path style="fill-rule:nonzero;fill:rgb(0%,0%,0%);fill-opacity:1;stroke-width:0.75;stroke-linecap:round;stroke-linejoin:round;stroke:rgb(0%,0%,0%);stroke-opacity:1;stroke-miterlimit:10;" d="M 143.753906 119.136719 L 185.113281 123.210938 L 185.089844 123.441406 L 143.734375 119.371094 Z M 143.753906 119.136719 "/>
<path style="fill-rule:nonzero;fill:rgb(0%,0%,0%);fill-opacity:1;stroke-width:0.75;stroke-linecap:round;stroke-linejoin:round;stroke:rgb(0%,0%,0%);stroke-opacity:1;stroke-miterlimit:10;" d="M 182.421875 77.308594 L 211.515625 50.660156 L 211.671875 50.832031 L 182.578125 77.480469 Z M 182.421875 77.308594 "/>
<path style="fill-rule:nonzero;fill:rgb(0%,0%,0%);fill-opacity:1;stroke-width:0.75;stroke-linecap:round;stroke-linejoin:round;stroke:rgb(0%,0%,0%);stroke-opacity:1;stroke-miterlimit:10;" d="M 183.101563 78.738281 L 208.800781 77.554688 L 208.8125 77.789063 L 183.113281 78.96875 Z M 183.101563 78.738281 "/>
<path style="fill-rule:nonzero;fill:rgb(0%,0%,0%);fill-opacity:1;stroke-width:0.75;stroke-linecap:round;stroke-linejoin:round;stroke:rgb(0%,0%,0%);stroke-opacity:1;stroke-miterlimit:10;" d="M 178.886719 80.292969 L 160.730469 91.714844 L 160.605469 91.519531 L 178.761719 80.097656 Z M 178.886719 80.292969 "/>
<path style="fill-rule:nonzero;fill:rgb(0%,0%,0%);fill-opacity:1;stroke-width:0.75;stroke-linecap:round;stroke-linejoin:round;stroke:rgb(0%,0%,0%);stroke-opacity:1;stroke-miterlimit:10;" d="M 181.019531 81.269531 L 183.3125 127.148438 L 183.082031 127.160156 L 180.789063 81.28125 Z M 181.019531 81.269531 "/>
<path style="fill-rule:nonzero;fill:rgb(0%,0%,0%);fill-opacity:1;stroke-width:0.75;stroke-linecap:round;stroke-linejoin:round;stroke:rgb(0%,0%,0%);stroke-opacity:1;stroke-miterlimit:10;" d="M 181.246094 81.238281 L 187.183594 121.242188 L 186.953125 121.277344 L 181.015625 81.273438 Z M 181.246094 81.238281 "/>
<path style="fill-rule:nonzero;fill:rgb(0%,0%,0%);fill-opacity:1;stroke-width:0.75;stroke-linecap:round;stroke-linejoin:round;stroke:rgb(0%,0%,0%);stroke-opacity:1;stroke-miterlimit:10;" d="M 238.398438 49.789063 L 215.621094 49.339844 L 215.625 49.109375 L 238.402344 49.558594 Z M 238.398438 49.789063 "/>
<path style="fill-rule:nonzero;fill:rgb(0%,0%,0%);fill-opacity:1;stroke-width:0.75;stroke-linecap:round;stroke-linejoin:round;stroke:rgb(0%,0%,0%);stroke-opacity:1;stroke-miterlimit:10;" d="M 239.109375 51.394531 L 212.894531 76.058594 L 212.734375 75.890625 L 238.949219 51.226563 Z M 239.109375 51.394531 "/>
<path style="fill-rule:nonzero;fill:rgb(0%,0%,0%);fill-opacity:1;stroke-width:0.75;stroke-linecap:round;stroke-linejoin:round;stroke:rgb(0%,0%,0%);stroke-opacity:1;stroke-miterlimit:10;" d="M 240.429688 52.023438 L 232.152344 98.917969 L 231.925781 98.878906 L 240.203125 51.984375 Z M 240.429688 52.023438 "/>
<path style="fill-rule:nonzero;fill:rgb(0%,0%,0%);fill-opacity:1;stroke-width:0.75;stroke-linecap:round;stroke-linejoin:round;stroke:rgb(0%,0%,0%);stroke-opacity:1;stroke-miterlimit:10;" d="M 214.183594 51.328125 L 230.972656 98.957031 L 230.753906 99.03125 L 213.964844 51.40625 Z M 214.183594 51.328125 "/>
<path style="fill-rule:nonzero;fill:rgb(0%,0%,0%);fill-opacity:1;stroke-width:0.75;stroke-linecap:round;stroke-linejoin:round;stroke:rgb(0%,0%,0%);stroke-opacity:1;stroke-miterlimit:10;" d="M 140.277344 94.589844 L 156.382813 92.96875 L 156.40625 93.199219 L 140.300781 94.820313 Z M 140.277344 94.589844 "/>
<path style="fill-rule:nonzero;fill:rgb(0%,0%,0%);fill-opacity:1;stroke-width:0.75;stroke-linecap:round;stroke-linejoin:round;stroke:rgb(0%,0%,0%);stroke-opacity:1;stroke-miterlimit:10;" d="M 140.046875 96 L 185.460938 122.292969 L 185.34375 122.492188 L 139.929688 96.199219 Z M 140.046875 96 "/>
<path style="fill-rule:nonzero;fill:rgb(0%,0%,0%);fill-opacity:1;stroke-width:0.75;stroke-linecap:round;stroke-linejoin:round;stroke:rgb(0%,0%,0%);stroke-opacity:1;stroke-miterlimit:10;" d="M 210.164063 79.679688 L 188.578125 121.546875 L 188.371094 121.441406 L 209.957031 79.574219 Z M 210.164063 79.679688 "/>
<path style="fill-rule:nonzero;fill:rgb(0%,0%,0%);fill-opacity:1;stroke-width:0.75;stroke-linecap:round;stroke-linejoin:round;stroke:rgb(0%,0%,0%);stroke-opacity:1;stroke-miterlimit:10;" d="M 206.058594 96.671875 L 229.371094 100.675781 L 229.328125 100.902344 L 206.019531 96.898438 Z M 206.058594 96.671875 "/>
<path style="fill-rule:nonzero;fill:rgb(0%,0%,0%);fill-opacity:1;stroke-width:0.75;stroke-linecap:round;stroke-linejoin:round;stroke:rgb(0%,0%,0%);stroke-opacity:1;stroke-miterlimit:10;" d="M 202.65625 98.441406 L 188.707031 121.625 L 188.507813 121.507813 L 202.457031 98.320313 Z M 202.65625 98.441406 "/>
<path style="fill-rule:nonzero;fill:rgb(0%,0%,0%);fill-opacity:1;stroke-width:0.75;stroke-linecap:round;stroke-linejoin:round;stroke:rgb(0%,0%,0%);stroke-opacity:1;stroke-miterlimit:10;" d="M 160.09375 94.714844 L 182.113281 127.480469 L 181.921875 127.609375 L 159.902344 94.84375 Z M 160.09375 94.714844 "/>
<path style="fill-rule:nonzero;fill:rgb(0%,0%,0%);fill-opacity:1;stroke-width:0.75;stroke-linecap:round;stroke-linejoin:round;stroke:rgb(0%,0%,0%);stroke-opacity:1;stroke-miterlimit:10;" d="M 160.375 94.46875 L 185.910156 121.78125 L 185.742188 121.941406 L 160.203125 94.628906 Z M 160.375 94.46875 "/>
<path style="fill-rule:nonzero;fill:rgb(0%,0%,0%);fill-opacity:1;stroke-width:0.75;stroke-linecap:round;stroke-linejoin:round;stroke:rgb(0%,0%,0%);stroke-opacity:1;stroke-miterlimit:10;" d="M 202.824219 163.980469 L 184.359375 131.542969 L 184.558594 131.429688 L 203.023438 163.867188 Z M 202.824219 163.980469 "/>
<path style="fill-rule:nonzero;fill:rgb(0%,0%,0%);fill-opacity:1;stroke-width:0.75;stroke-linecap:round;stroke-linejoin:round;stroke:rgb(0%,0%,0%);stroke-opacity:1;stroke-miterlimit:10;" d="M 203.113281 163.824219 L 188.152344 125.757813 L 188.367188 125.671875 L 203.328125 163.738281 Z M 203.113281 163.824219 "/>
<path style="fill-rule:nonzero;fill:rgb(0%,0%,0%);fill-opacity:1;stroke-width:0.75;stroke-linecap:round;stroke-linejoin:round;stroke:rgb(0%,0%,0%);stroke-opacity:1;stroke-miterlimit:10;" d="M 229.691406 102.453125 L 185.371094 128.398438 L 185.253906 128.199219 L 229.574219 102.253906 Z M 229.691406 102.453125 "/>
<path style="fill-rule:nonzero;fill:rgb(0%,0%,0%);fill-opacity:1;stroke-width:0.75;stroke-linecap:round;stroke-linejoin:round;stroke:rgb(0%,0%,0%);stroke-opacity:1;stroke-miterlimit:10;" d="M 229.617188 102.332031 L 189.53125 122.609375 L 189.429688 122.402344 L 229.511719 102.125 Z M 229.617188 102.332031 "/>
<path style="fill-rule:nonzero;fill:rgb(0%,0%,0%);fill-opacity:1;stroke-width:0.75;stroke-linecap:round;stroke-linejoin:round;stroke:rgb(0%,0%,0%);stroke-opacity:1;stroke-miterlimit:10;" d="M 184.539063 127.496094 L 185.992188 125.394531 L 186.183594 125.527344 L 184.726563 127.628906 Z M 184.539063 127.496094 "/>
<path style="fill-rule:nonzero;fill:rgb(87.45098%,32.54902%,41.960784%);fill-opacity:1;stroke-width:0.75;stroke-linecap:round;stroke-linejoin:round;stroke:rgb(0%,0%,0%);stroke-opacity:1;stroke-miterlimit:10;" d="M 283.023438 152.457031 L 282.96875 152.167969 L 282.875 151.890625 L 282.753906 151.628906 L 282.597656 151.382813 L 282.410156 151.15625 L 282.199219 150.957031 L 281.960938 150.785156 L 281.707031 150.644531 L 281.433594 150.539063 L 281.152344 150.464844 L 280.863281 150.429688 L 280.570313 150.429688 L 280.28125 150.464844 L 280 150.539063 L 279.726563 150.644531 L 279.472656 150.785156 L 279.234375 150.957031 L 279.023438 151.15625 L 278.835938 151.382813 L 278.679688 151.628906 L 278.558594 151.890625 L 278.464844 152.167969 L 278.414063 152.457031 L 278.394531 152.746094 L 278.414063 153.039063 L 278.464844 153.324219 L 278.558594 153.601563 L 278.679688 153.867188 L 278.835938 154.113281 L 279.023438 154.335938 L 279.234375 154.539063 L 279.472656 154.707031 L 279.726563 154.847656 L 280 154.957031 L 280.28125 155.03125 L 280.570313 155.066406 L 280.863281 155.066406 L 281.152344 155.03125 L 281.433594 154.957031 L 281.707031 154.847656 L 281.960938 154.707031 L 282.199219 154.539063 L 282.410156 154.335938 L 282.597656 154.113281 L 282.753906 153.867188 L 282.875 153.601563 L 282.96875 153.324219 L 283.023438 153.039063 L 283.039063 152.746094 Z M 283.023438 152.457031 "/>
<path style="fill-rule:nonzero;fill:rgb(87.45098%,32.54902%,41.960784%);fill-opacity:1;stroke-width:0.75;stroke-linecap:round;stroke-linejoin:round;stroke:rgb(0%,0%,0%);stroke-opacity:1;stroke-miterlimit:10;" d="M 259.328125 161.597656 L 259.273438 161.3125 L 259.183594 161.035156 L 259.058594 160.769531 L 258.902344 160.523438 L 258.714844 160.300781 L 258.503906 160.101563 L 258.269531 159.929688 L 258.011719 159.789063 L 257.742188 159.679688 L 257.457031 159.609375 L 257.167969 159.570313 L 256.878906 159.570313 L 256.589844 159.609375 L 256.304688 159.679688 L 256.035156 159.789063 L 255.777344 159.929688 L 255.542969 160.101563 L 255.328125 160.300781 L 255.144531 160.523438 L 254.988281 160.769531 L 254.863281 161.035156 L 254.773438 161.3125 L 254.71875 161.597656 L 254.699219 161.890625 L 254.71875 162.179688 L 254.773438 162.46875 L 254.863281 162.746094 L 254.988281 163.007813 L 255.144531 163.253906 L 255.328125 163.480469 L 255.542969 163.679688 L 255.777344 163.851563 L 256.035156 163.992188 L 256.304688 164.097656 L 256.589844 164.171875 L 256.878906 164.207031 L 257.167969 164.207031 L 257.457031 164.171875 L 257.742188 164.097656 L 258.011719 163.992188 L 258.269531 163.851563 L 258.503906 163.679688 L 258.714844 163.480469 L 258.902344 163.253906 L 259.058594 163.007813 L 259.183594 162.746094 L 259.273438 162.46875 L 259.328125 162.179688 L 259.347656 161.890625 Z M 259.328125 161.597656 "/>
<path style="fill-rule:nonzero;fill:rgb(87.45098%,32.54902%,41.960784%);fill-opacity:1;stroke-width:0.75;stroke-linecap:round;stroke-linejoin:round;stroke:rgb(0%,0%,0%);stroke-opacity:1;stroke-miterlimit:10;" d="M 242.742188 118.261719 L 242.6875 117.976563 L 242.597656 117.699219 L 242.472656 117.433594 L 242.316406 117.1875 L 242.128906 116.964844 L 241.917969 116.761719 L 241.679688 116.589844 L 241.425781 116.453125 L 241.152344 116.34375 L 240.871094 116.269531 L 240.582031 116.234375 L 240.289063 116.234375 L 240 116.269531 L 239.71875 116.34375 L 239.445313 116.453125 L 239.191406 116.589844 L 238.957031 116.761719 L 238.742188 116.964844 L 238.554688 117.1875 L 238.398438 117.433594 L 238.277344 117.699219 L 238.1875 117.976563 L 238.132813 118.261719 L 238.113281 118.554688 L 238.132813 118.84375 L 238.1875 119.132813 L 238.277344 119.410156 L 238.398438 119.671875 L 238.554688 119.917969 L 238.742188 120.144531 L 238.957031 120.34375 L 239.191406 120.515625 L 239.445313 120.65625 L 239.71875 120.761719 L 240 120.835938 L 240.289063 120.871094 L 240.582031 120.871094 L 240.871094 120.835938 L 241.152344 120.761719 L 241.425781 120.65625 L 241.679688 120.515625 L 241.917969 120.34375 L 242.128906 120.144531 L 242.316406 119.917969 L 242.472656 119.671875 L 242.597656 119.410156 L 242.6875 119.132813 L 242.742188 118.84375 L 242.757813 118.554688 Z M 242.742188 118.261719 "/>
<path style="fill-rule:nonzero;fill:rgb(87.45098%,32.54902%,41.960784%);fill-opacity:1;stroke-width:0.75;stroke-linecap:round;stroke-linejoin:round;stroke:rgb(0%,0%,0%);stroke-opacity:1;stroke-miterlimit:10;" d="M 281.691406 119.136719 L 281.636719 118.851563 L 281.546875 118.574219 L 281.421875 118.308594 L 281.265625 118.0625 L 281.078125 117.839844 L 280.867188 117.636719 L 280.628906 117.46875 L 280.375 117.328125 L 280.105469 117.21875 L 279.820313 117.148438 L 279.53125 117.109375 L 279.238281 117.109375 L 278.949219 117.148438 L 278.667969 117.21875 L 278.398438 117.328125 L 278.140625 117.46875 L 277.90625 117.636719 L 277.691406 117.839844 L 277.507813 118.0625 L 277.351563 118.308594 L 277.226563 118.574219 L 277.136719 118.851563 L 277.082031 119.136719 L 277.0625 119.429688 L 277.082031 119.71875 L 277.136719 120.007813 L 277.226563 120.285156 L 277.351563 120.546875 L 277.507813 120.792969 L 277.691406 121.019531 L 277.90625 121.21875 L 278.140625 121.390625 L 278.398438 121.53125 L 278.667969 121.636719 L 278.949219 121.710938 L 279.238281 121.746094 L 279.53125 121.746094 L 279.820313 121.710938 L 280.105469 121.636719 L 280.375 121.53125 L 280.628906 121.390625 L 280.867188 121.21875 L 281.078125 121.019531 L 281.265625 120.792969 L 281.421875 120.546875 L 281.546875 120.285156 L 281.636719 120.007813 L 281.691406 119.71875 L 281.710938 119.429688 Z M 281.691406 119.136719 "/>
<path style="fill-rule:nonzero;fill:rgb(87.45098%,32.54902%,41.960784%);fill-opacity:1;stroke-width:0.75;stroke-linecap:round;stroke-linejoin:round;stroke:rgb(0%,0%,0%);stroke-opacity:1;stroke-miterlimit:10;" d="M 310.230469 200.417969 L 310.175781 200.132813 L 310.082031 199.855469 L 309.960938 199.589844 L 309.804688 199.34375 L 309.617188 199.121094 L 309.40625 198.921875 L 309.167969 198.75 L 308.914063 198.609375 L 308.640625 198.5 L 308.359375 198.429688 L 308.070313 198.390625 L 307.777344 198.390625 L 307.488281 198.429688 L 307.207031 198.5 L 306.933594 198.609375 L 306.679688 198.75 L 306.441406 198.921875 L 306.230469 199.121094 L 306.042969 199.34375 L 305.886719 199.589844 L 305.765625 199.855469 L 305.675781 200.132813 L 305.621094 200.417969 L 305.601563 200.710938 L 305.621094 201 L 305.675781 201.289063 L 305.765625 201.566406 L 305.886719 201.828125 L 306.042969 202.074219 L 306.230469 202.300781 L 306.441406 202.5 L 306.679688 202.671875 L 306.933594 202.8125 L 307.207031 202.917969 L 307.488281 202.992188 L 307.777344 203.027344 L 308.070313 203.027344 L 308.359375 202.992188 L 308.640625 202.917969 L 308.914063 202.8125 L 309.167969 202.671875 L 309.40625 202.5 L 309.617188 202.300781 L 309.804688 202.074219 L 309.960938 201.828125 L 310.082031 201.566406 L 310.175781 201.289063 L 310.230469 201 L 310.246094 200.710938 Z M 310.230469 200.417969 "/>
<path style="fill-rule:nonzero;fill:rgb(87.45098%,32.54902%,41.960784%);fill-opacity:1;stroke-width:0.75;stroke-linecap:round;stroke-linejoin:round;stroke:rgb(0%,0%,0%);stroke-opacity:1;stroke-miterlimit:10;" d="M 335.910156 161.261719 L 335.855469 160.976563 L 335.765625 160.699219 L 335.640625 160.433594 L 335.484375 160.1875 L 335.300781 159.964844 L 335.085938 159.765625 L 334.851563 159.59375 L 334.59375 159.453125 L 334.324219 159.34375 L 334.039063 159.273438 L 333.75 159.234375 L 333.460938 159.234375 L 333.171875 159.273438 L 332.886719 159.34375 L 332.617188 159.453125 L 332.359375 159.59375 L 332.125 159.765625 L 331.914063 159.964844 L 331.726563 160.1875 L 331.570313 160.433594 L 331.445313 160.699219 L 331.355469 160.976563 L 331.300781 161.261719 L 331.28125 161.554688 L 331.300781 161.847656 L 331.355469 162.132813 L 331.445313 162.410156 L 331.570313 162.671875 L 331.726563 162.921875 L 331.914063 163.144531 L 332.125 163.34375 L 332.359375 163.515625 L 332.617188 163.65625 L 332.886719 163.765625 L 333.171875 163.835938 L 333.460938 163.871094 L 333.75 163.871094 L 334.039063 163.835938 L 334.324219 163.765625 L 334.59375 163.65625 L 334.851563 163.515625 L 335.085938 163.34375 L 335.300781 163.144531 L 335.484375 162.921875 L 335.640625 162.671875 L 335.765625 162.410156 L 335.855469 162.132813 L 335.910156 161.847656 L 335.929688 161.554688 Z M 335.910156 161.261719 "/>
<path style="fill-rule:nonzero;fill:rgb(87.45098%,32.54902%,41.960784%);fill-opacity:1;stroke-width:0.75;stroke-linecap:round;stroke-linejoin:round;stroke:rgb(0%,0%,0%);stroke-opacity:1;stroke-miterlimit:10;" d="M 333.089844 178.859375 L 333.035156 178.570313 L 332.945313 178.292969 L 332.820313 178.03125 L 332.664063 177.785156 L 332.480469 177.558594 L 332.265625 177.359375 L 332.03125 177.1875 L 331.773438 177.046875 L 331.503906 176.9375 L 331.222656 176.867188 L 330.933594 176.832031 L 330.640625 176.832031 L 330.351563 176.867188 L 330.066406 176.9375 L 329.796875 177.046875 L 329.542969 177.1875 L 329.304688 177.359375 L 329.09375 177.558594 L 328.90625 177.785156 L 328.75 178.03125 L 328.625 178.292969 L 328.535156 178.570313 L 328.480469 178.859375 L 328.460938 179.148438 L 328.480469 179.441406 L 328.535156 179.726563 L 328.625 180.003906 L 328.75 180.269531 L 328.90625 180.515625 L 329.09375 180.738281 L 329.304688 180.9375 L 329.542969 181.109375 L 329.796875 181.25 L 330.066406 181.359375 L 330.351563 181.429688 L 330.640625 181.46875 L 330.933594 181.46875 L 331.222656 181.429688 L 331.503906 181.359375 L 331.773438 181.25 L 332.03125 181.109375 L 332.265625 180.9375 L 332.480469 180.738281 L 332.664063 180.515625 L 332.820313 180.269531 L 332.945313 180.003906 L 333.035156 179.726563 L 333.089844 179.441406 L 333.109375 179.148438 Z M 333.089844 178.859375 "/>
<path style="fill-rule:nonzero;fill:rgb(87.45098%,32.54902%,41.960784%);fill-opacity:1;stroke-width:0.75;stroke-linecap:round;stroke-linejoin:round;stroke:rgb(0%,0%,0%);stroke-opacity:1;stroke-miterlimit:10;" d="M 289.097656 129.796875 L 289.042969 129.511719 L 288.953125 129.234375 L 288.828125 128.96875 L 288.671875 128.722656 L 288.488281 128.5 L 288.273438 128.300781 L 288.039063 128.128906 L 287.78125 127.988281 L 287.511719 127.878906 L 287.230469 127.808594 L 286.9375 127.769531 L 286.648438 127.769531 L 286.359375 127.808594 L 286.074219 127.878906 L 285.804688 127.988281 L 285.546875 128.128906 L 285.3125 128.300781 L 285.101563 128.5 L 284.914063 128.722656 L 284.757813 128.96875 L 284.632813 129.234375 L 284.542969 129.511719 L 284.488281 129.796875 L 284.46875 130.089844 L 284.488281 130.378906 L 284.542969 130.667969 L 284.632813 130.945313 L 284.757813 131.207031 L 284.914063 131.453125 L 285.101563 131.679688 L 285.3125 131.878906 L 285.546875 132.050781 L 285.804688 132.191406 L 286.074219 132.296875 L 286.359375 132.371094 L 286.648438 132.40625 L 286.9375 132.40625 L 287.230469 132.371094 L 287.511719 132.296875 L 287.78125 132.191406 L 288.039063 132.050781 L 288.273438 131.878906 L 288.488281 131.679688 L 288.671875 131.453125 L 288.828125 131.207031 L 288.953125 130.945313 L 289.042969 130.667969 L 289.097656 130.378906 L 289.117188 130.089844 Z M 289.097656 129.796875 "/>
<path style="fill-rule:nonzero;fill:rgb(87.45098%,32.54902%,41.960784%);fill-opacity:1;stroke-width:0.75;stroke-linecap:round;stroke-linejoin:round;stroke:rgb(0%,0%,0%);stroke-opacity:1;stroke-miterlimit:10;" d="M 225.742188 146.03125 L 225.6875 145.742188 L 225.597656 145.464844 L 225.472656 145.203125 L 225.316406 144.957031 L 225.132813 144.730469 L 224.917969 144.53125 L 224.683594 144.359375 L 224.425781 144.21875 L 224.15625 144.113281 L 223.871094 144.039063 L 223.582031 144.003906 L 223.292969 144.003906 L 223.003906 144.039063 L 222.71875 144.113281 L 222.449219 144.21875 L 222.191406 144.359375 L 221.957031 144.53125 L 221.746094 144.730469 L 221.558594 144.957031 L 221.402344 145.203125 L 221.277344 145.464844 L 221.1875 145.742188 L 221.132813 146.03125 L 221.113281 146.320313 L 221.132813 146.613281 L 221.1875 146.898438 L 221.277344 147.175781 L 221.402344 147.441406 L 221.558594 147.6875 L 221.746094 147.910156 L 221.957031 148.113281 L 222.191406 148.28125 L 222.449219 148.421875 L 222.71875 148.53125 L 223.003906 148.601563 L 223.292969 148.640625 L 223.582031 148.640625 L 223.871094 148.601563 L 224.15625 148.53125 L 224.425781 148.421875 L 224.683594 148.28125 L 224.917969 148.113281 L 225.132813 147.910156 L 225.316406 147.6875 L 225.472656 147.441406 L 225.597656 147.175781 L 225.6875 146.898438 L 225.742188 146.613281 L 225.761719 146.320313 Z M 225.742188 146.03125 "/>
<path style="fill-rule:nonzero;fill:rgb(87.45098%,32.54902%,41.960784%);fill-opacity:1;stroke-width:0.75;stroke-linecap:round;stroke-linejoin:round;stroke:rgb(0%,0%,0%);stroke-opacity:1;stroke-miterlimit:10;" d="M 227.175781 84.390625 L 227.121094 84.105469 L 227.03125 83.828125 L 226.90625 83.5625 L 226.75 83.316406 L 226.566406 83.09375 L 226.351563 82.894531 L 226.117188 82.722656 L 225.859375 82.582031 L 225.589844 82.472656 L 225.308594 82.402344 L 225.019531 82.363281 L 224.726563 82.363281 L 224.4375 82.402344 L 224.152344 82.472656 L 223.882813 82.582031 L 223.628906 82.722656 L 223.390625 82.894531 L 223.179688 83.09375 L 222.992188 83.316406 L 222.835938 83.5625 L 222.710938 83.828125 L 222.621094 84.105469 L 222.566406 84.390625 L 222.546875 84.683594 L 222.566406 84.972656 L 222.621094 85.261719 L 222.710938 85.539063 L 222.835938 85.800781 L 222.992188 86.046875 L 223.179688 86.273438 L 223.390625 86.472656 L 223.628906 86.644531 L 223.882813 86.785156 L 224.152344 86.890625 L 224.4375 86.964844 L 224.726563 87 L 225.019531 87 L 225.308594 86.964844 L 225.589844 86.890625 L 225.859375 86.785156 L 226.117188 86.644531 L 226.351563 86.472656 L 226.566406 86.273438 L 226.75 86.046875 L 226.90625 85.800781 L 227.03125 85.539063 L 227.121094 85.261719 L 227.175781 84.972656 L 227.195313 84.683594 Z M 227.175781 84.390625 "/>
<path style="fill-rule:nonzero;fill:rgb(87.45098%,32.54902%,41.960784%);fill-opacity:1;stroke-width:0.75;stroke-linecap:round;stroke-linejoin:round;stroke:rgb(0%,0%,0%);stroke-opacity:1;stroke-miterlimit:10;" d="M 316.9375 183.875 L 316.882813 183.585938 L 316.792969 183.308594 L 316.667969 183.046875 L 316.511719 182.800781 L 316.328125 182.574219 L 316.113281 182.375 L 315.878906 182.203125 L 315.621094 182.0625 L 315.351563 181.957031 L 315.066406 181.882813 L 314.777344 181.847656 L 314.488281 181.847656 L 314.199219 181.882813 L 313.914063 181.957031 L 313.644531 182.0625 L 313.386719 182.203125 L 313.152344 182.375 L 312.941406 182.574219 L 312.753906 182.800781 L 312.597656 183.046875 L 312.472656 183.308594 L 312.382813 183.585938 L 312.328125 183.875 L 312.308594 184.164063 L 312.328125 184.457031 L 312.382813 184.742188 L 312.472656 185.019531 L 312.597656 185.285156 L 312.753906 185.53125 L 312.941406 185.753906 L 313.152344 185.953125 L 313.386719 186.125 L 313.644531 186.265625 L 313.914063 186.375 L 314.199219 186.445313 L 314.488281 186.484375 L 314.777344 186.484375 L 315.066406 186.445313 L 315.351563 186.375 L 315.621094 186.265625 L 315.878906 186.125 L 316.113281 185.953125 L 316.328125 185.753906 L 316.511719 185.53125 L 316.667969 185.285156 L 316.792969 185.019531 L 316.882813 184.742188 L 316.9375 184.457031 L 316.957031 184.164063 Z M 316.9375 183.875 "/>
<path style="fill-rule:nonzero;fill:rgb(87.45098%,32.54902%,41.960784%);fill-opacity:1;stroke-width:0.75;stroke-linecap:round;stroke-linejoin:round;stroke:rgb(0%,0%,0%);stroke-opacity:1;stroke-miterlimit:10;" d="M 334.050781 132.605469 L 333.996094 132.320313 L 333.90625 132.042969 L 333.78125 131.777344 L 333.625 131.53125 L 333.4375 131.308594 L 333.226563 131.109375 L 332.988281 130.9375 L 332.734375 130.796875 L 332.464844 130.6875 L 332.179688 130.617188 L 331.890625 130.578125 L 331.597656 130.578125 L 331.308594 130.617188 L 331.027344 130.6875 L 330.757813 130.796875 L 330.5 130.9375 L 330.265625 131.109375 L 330.050781 131.308594 L 329.867188 131.53125 L 329.710938 131.777344 L 329.585938 132.042969 L 329.496094 132.320313 L 329.441406 132.605469 L 329.421875 132.898438 L 329.441406 133.1875 L 329.496094 133.476563 L 329.585938 133.753906 L 329.710938 134.015625 L 329.867188 134.261719 L 330.050781 134.488281 L 330.265625 134.6875 L 330.5 134.859375 L 330.757813 135 L 331.027344 135.105469 L 331.308594 135.179688 L 331.597656 135.214844 L 331.890625 135.214844 L 332.179688 135.179688 L 332.464844 135.105469 L 332.734375 135 L 332.988281 134.859375 L 333.226563 134.6875 L 333.4375 134.488281 L 333.625 134.261719 L 333.78125 134.015625 L 333.90625 133.753906 L 333.996094 133.476563 L 334.050781 133.1875 L 334.070313 132.898438 Z M 334.050781 132.605469 "/>
<path style="fill-rule:nonzero;fill:rgb(87.45098%,32.54902%,41.960784%);fill-opacity:1;stroke-width:0.75;stroke-linecap:round;stroke-linejoin:round;stroke:rgb(0%,0%,0%);stroke-opacity:1;stroke-miterlimit:10;" d="M 316.554688 110.355469 L 316.5 110.066406 L 316.410156 109.789063 L 316.285156 109.527344 L 316.128906 109.28125 L 315.945313 109.054688 L 315.730469 108.855469 L 315.496094 108.683594 L 315.242188 108.542969 L 314.96875 108.4375 L 314.6875 108.363281 L 314.398438 108.328125 L 314.105469 108.328125 L 313.816406 108.363281 L 313.535156 108.4375 L 313.261719 108.542969 L 313.007813 108.683594 L 312.769531 108.855469 L 312.558594 109.054688 L 312.371094 109.28125 L 312.214844 109.527344 L 312.089844 109.789063 L 312 110.066406 L 311.945313 110.355469 L 311.929688 110.644531 L 311.945313 110.9375 L 312 111.222656 L 312.089844 111.5 L 312.214844 111.765625 L 312.371094 112.011719 L 312.558594 112.234375 L 312.769531 112.433594 L 313.007813 112.605469 L 313.261719 112.746094 L 313.535156 112.855469 L 313.816406 112.925781 L 314.105469 112.964844 L 314.398438 112.964844 L 314.6875 112.925781 L 314.96875 112.855469 L 315.242188 112.746094 L 315.496094 112.605469 L 315.730469 112.433594 L 315.945313 112.234375 L 316.128906 112.011719 L 316.285156 111.765625 L 316.410156 111.5 L 316.5 111.222656 L 316.554688 110.9375 L 316.574219 110.644531 Z M 316.554688 110.355469 "/>
<path style="fill-rule:nonzero;fill:rgb(87.45098%,32.54902%,41.960784%);fill-opacity:1;stroke-width:0.75;stroke-linecap:round;stroke-linejoin:round;stroke:rgb(0%,0%,0%);stroke-opacity:1;stroke-miterlimit:10;" d="M 244.800781 134.9375 L 244.746094 134.652344 L 244.65625 134.375 L 244.53125 134.109375 L 244.375 133.863281 L 244.191406 133.640625 L 243.976563 133.4375 L 243.742188 133.269531 L 243.484375 133.128906 L 243.214844 133.019531 L 242.933594 132.945313 L 242.644531 132.910156 L 242.351563 132.910156 L 242.0625 132.945313 L 241.777344 133.019531 L 241.507813 133.128906 L 241.253906 133.269531 L 241.015625 133.4375 L 240.804688 133.640625 L 240.617188 133.863281 L 240.460938 134.109375 L 240.335938 134.375 L 240.246094 134.652344 L 240.191406 134.9375 L 240.171875 135.230469 L 240.191406 135.519531 L 240.246094 135.808594 L 240.335938 136.085938 L 240.460938 136.347656 L 240.617188 136.59375 L 240.804688 136.820313 L 241.015625 137.019531 L 241.253906 137.191406 L 241.507813 137.332031 L 241.777344 137.4375 L 242.0625 137.511719 L 242.351563 137.546875 L 242.644531 137.546875 L 242.933594 137.511719 L 243.214844 137.4375 L 243.484375 137.332031 L 243.742188 137.191406 L 243.976563 137.019531 L 244.191406 136.820313 L 244.375 136.59375 L 244.53125 136.347656 L 244.65625 136.085938 L 244.746094 135.808594 L 244.800781 135.519531 L 244.820313 135.230469 Z M 244.800781 134.9375 "/>
<path style="fill-rule:nonzero;fill:rgb(87.45098%,32.54902%,41.960784%);fill-opacity:1;stroke-width:0.75;stroke-linecap:round;stroke-linejoin:round;stroke:rgb(0%,0%,0%);stroke-opacity:1;stroke-miterlimit:10;" d="M 156.652344 160.894531 L 156.597656 160.609375 L 156.503906 160.332031 L 156.382813 160.066406 L 156.226563 159.820313 L 156.039063 159.597656 L 155.828125 159.394531 L 155.589844 159.222656 L 155.335938 159.082031 L 155.0625 158.976563 L 154.78125 158.902344 L 154.492188 158.867188 L 154.199219 158.867188 L 153.910156 158.902344 L 153.628906 158.976563 L 153.355469 159.082031 L 153.101563 159.222656 L 152.863281 159.394531 L 152.652344 159.597656 L 152.464844 159.820313 L 152.308594 160.066406 L 152.1875 160.332031 L 152.097656 160.609375 L 152.042969 160.894531 L 152.023438 161.1875 L 152.042969 161.476563 L 152.097656 161.761719 L 152.1875 162.042969 L 152.308594 162.304688 L 152.464844 162.550781 L 152.652344 162.777344 L 152.863281 162.976563 L 153.101563 163.148438 L 153.355469 163.289063 L 153.628906 163.394531 L 153.910156 163.46875 L 154.199219 163.503906 L 154.492188 163.503906 L 154.78125 163.46875 L 155.0625 163.394531 L 155.335938 163.289063 L 155.589844 163.148438 L 155.828125 162.976563 L 156.039063 162.777344 L 156.226563 162.550781 L 156.382813 162.304688 L 156.503906 162.042969 L 156.597656 161.761719 L 156.652344 161.476563 L 156.667969 161.1875 Z M 156.652344 160.894531 "/>
<path style="fill-rule:nonzero;fill:rgb(87.45098%,32.54902%,41.960784%);fill-opacity:1;stroke-width:0.75;stroke-linecap:round;stroke-linejoin:round;stroke:rgb(0%,0%,0%);stroke-opacity:1;stroke-miterlimit:10;" d="M 144.84375 134.484375 L 144.789063 134.195313 L 144.699219 133.917969 L 144.574219 133.65625 L 144.417969 133.410156 L 144.230469 133.183594 L 144.019531 132.984375 L 143.785156 132.8125 L 143.527344 132.671875 L 143.257813 132.566406 L 142.972656 132.492188 L 142.683594 132.457031 L 142.394531 132.457031 L 142.101563 132.492188 L 141.820313 132.566406 L 141.550781 132.671875 L 141.292969 132.8125 L 141.058594 132.984375 L 140.84375 133.183594 L 140.660156 133.410156 L 140.503906 133.65625 L 140.378906 133.917969 L 140.289063 134.195313 L 140.234375 134.484375 L 140.214844 134.773438 L 140.234375 135.066406 L 140.289063 135.351563 L 140.378906 135.628906 L 140.503906 135.894531 L 140.660156 136.140625 L 140.84375 136.363281 L 141.058594 136.566406 L 141.292969 136.734375 L 141.550781 136.875 L 141.820313 136.984375 L 142.101563 137.054688 L 142.394531 137.09375 L 142.683594 137.09375 L 142.972656 137.054688 L 143.257813 136.984375 L 143.527344 136.875 L 143.785156 136.734375 L 144.019531 136.566406 L 144.230469 136.363281 L 144.417969 136.140625 L 144.574219 135.894531 L 144.699219 135.628906 L 144.789063 135.351563 L 144.84375 135.066406 L 144.863281 134.773438 Z M 144.84375 134.484375 "/>
<path style="fill-rule:nonzero;fill:rgb(87.45098%,32.54902%,41.960784%);fill-opacity:1;stroke-width:0.75;stroke-linecap:round;stroke-linejoin:round;stroke:rgb(0%,0%,0%);stroke-opacity:1;stroke-miterlimit:10;" d="M 368.324219 176.585938 L 368.269531 176.300781 L 368.179688 176.023438 L 368.054688 175.757813 L 367.898438 175.511719 L 367.714844 175.285156 L 367.5 175.085938 L 367.265625 174.914063 L 367.007813 174.773438 L 366.738281 174.667969 L 366.453125 174.59375 L 366.164063 174.558594 L 365.875 174.558594 L 365.585938 174.59375 L 365.300781 174.667969 L 365.03125 174.773438 L 364.773438 174.914063 L 364.539063 175.085938 L 364.324219 175.285156 L 364.140625 175.511719 L 363.984375 175.757813 L 363.859375 176.023438 L 363.769531 176.300781 L 363.714844 176.585938 L 363.695313 176.875 L 363.714844 177.167969 L 363.769531 177.453125 L 363.859375 177.730469 L 363.984375 177.996094 L 364.140625 178.242188 L 364.324219 178.46875 L 364.539063 178.667969 L 364.773438 178.839844 L 365.03125 178.980469 L 365.300781 179.085938 L 365.585938 179.160156 L 365.875 179.195313 L 366.164063 179.195313 L 366.453125 179.160156 L 366.738281 179.085938 L 367.007813 178.980469 L 367.265625 178.839844 L 367.5 178.667969 L 367.714844 178.46875 L 367.898438 178.242188 L 368.054688 177.996094 L 368.179688 177.730469 L 368.269531 177.453125 L 368.324219 177.167969 L 368.34375 176.875 Z M 368.324219 176.585938 "/>
<path style="fill-rule:nonzero;fill:rgb(87.45098%,32.54902%,41.960784%);fill-opacity:1;stroke-width:0.75;stroke-linecap:round;stroke-linejoin:round;stroke:rgb(0%,0%,0%);stroke-opacity:1;stroke-miterlimit:10;" d="M 266.332031 202.53125 L 266.277344 202.242188 L 266.1875 201.964844 L 266.0625 201.703125 L 265.90625 201.457031 L 265.71875 201.230469 L 265.507813 201.03125 L 265.273438 200.859375 L 265.015625 200.71875 L 264.746094 200.613281 L 264.460938 200.539063 L 264.171875 200.503906 L 263.882813 200.503906 L 263.589844 200.539063 L 263.308594 200.613281 L 263.039063 200.71875 L 262.78125 200.859375 L 262.546875 201.03125 L 262.332031 201.230469 L 262.148438 201.457031 L 261.992188 201.703125 L 261.867188 201.964844 L 261.777344 202.242188 L 261.722656 202.53125 L 261.703125 202.820313 L 261.722656 203.113281 L 261.777344 203.398438 L 261.867188 203.675781 L 261.992188 203.941406 L 262.148438 204.1875 L 262.332031 204.410156 L 262.546875 204.613281 L 262.78125 204.78125 L 263.039063 204.921875 L 263.308594 205.03125 L 263.589844 205.105469 L 263.882813 205.140625 L 264.171875 205.140625 L 264.460938 205.105469 L 264.746094 205.03125 L 265.015625 204.921875 L 265.273438 204.78125 L 265.507813 204.613281 L 265.71875 204.410156 L 265.90625 204.1875 L 266.0625 203.941406 L 266.1875 203.675781 L 266.277344 203.398438 L 266.332031 203.113281 L 266.351563 202.820313 Z M 266.332031 202.53125 "/>
<path style="fill-rule:nonzero;fill:rgb(87.45098%,32.54902%,41.960784%);fill-opacity:1;stroke-width:0.75;stroke-linecap:round;stroke-linejoin:round;stroke:rgb(0%,0%,0%);stroke-opacity:1;stroke-miterlimit:10;" d="M 170.535156 170 L 170.480469 169.714844 L 170.390625 169.4375 L 170.265625 169.171875 L 170.109375 168.925781 L 169.921875 168.703125 L 169.710938 168.503906 L 169.476563 168.332031 L 169.21875 168.191406 L 168.949219 168.082031 L 168.664063 168.011719 L 168.375 167.972656 L 168.085938 167.972656 L 167.792969 168.011719 L 167.511719 168.082031 L 167.242188 168.191406 L 166.984375 168.332031 L 166.75 168.503906 L 166.535156 168.703125 L 166.351563 168.925781 L 166.195313 169.171875 L 166.070313 169.4375 L 165.980469 169.714844 L 165.925781 170 L 165.90625 170.292969 L 165.925781 170.582031 L 165.980469 170.871094 L 166.070313 171.148438 L 166.195313 171.410156 L 166.351563 171.660156 L 166.535156 171.882813 L 166.75 172.082031 L 166.984375 172.253906 L 167.242188 172.394531 L 167.511719 172.503906 L 167.792969 172.574219 L 168.085938 172.609375 L 168.375 172.609375 L 168.664063 172.574219 L 168.949219 172.503906 L 169.21875 172.394531 L 169.476563 172.253906 L 169.710938 172.082031 L 169.921875 171.882813 L 170.109375 171.660156 L 170.265625 171.410156 L 170.390625 171.148438 L 170.480469 170.871094 L 170.535156 170.582031 L 170.554688 170.292969 Z M 170.535156 170 "/>
<path style="fill-rule:nonzero;fill:rgb(87.45098%,32.54902%,41.960784%);fill-opacity:1;stroke-width:0.75;stroke-linecap:round;stroke-linejoin:round;stroke:rgb(0%,0%,0%);stroke-opacity:1;stroke-miterlimit:10;" d="M 230.070313 166.230469 L 230.015625 165.941406 L 229.925781 165.664063 L 229.800781 165.402344 L 229.644531 165.15625 L 229.460938 164.929688 L 229.246094 164.730469 L 229.011719 164.558594 L 228.753906 164.417969 L 228.484375 164.3125 L 228.199219 164.238281 L 227.910156 164.203125 L 227.621094 164.203125 L 227.332031 164.238281 L 227.046875 164.3125 L 226.777344 164.417969 L 226.519531 164.558594 L 226.285156 164.730469 L 226.074219 164.929688 L 225.886719 165.15625 L 225.730469 165.402344 L 225.605469 165.664063 L 225.515625 165.941406 L 225.460938 166.230469 L 225.441406 166.519531 L 225.460938 166.8125 L 225.515625 167.097656 L 225.605469 167.375 L 225.730469 167.640625 L 225.886719 167.886719 L 226.074219 168.109375 L 226.285156 168.3125 L 226.519531 168.480469 L 226.777344 168.621094 L 227.046875 168.730469 L 227.332031 168.800781 L 227.621094 168.839844 L 227.910156 168.839844 L 228.199219 168.800781 L 228.484375 168.730469 L 228.753906 168.621094 L 229.011719 168.480469 L 229.246094 168.3125 L 229.460938 168.109375 L 229.644531 167.886719 L 229.800781 167.640625 L 229.925781 167.375 L 230.015625 167.097656 L 230.070313 166.8125 L 230.089844 166.519531 Z M 230.070313 166.230469 "/>
<path style="fill-rule:nonzero;fill:rgb(87.45098%,32.54902%,41.960784%);fill-opacity:1;stroke-width:0.75;stroke-linecap:round;stroke-linejoin:round;stroke:rgb(0%,0%,0%);stroke-opacity:1;stroke-miterlimit:10;" d="M 147.195313 148.640625 L 147.140625 148.355469 L 147.050781 148.078125 L 146.925781 147.8125 L 146.769531 147.566406 L 146.582031 147.34375 L 146.371094 147.144531 L 146.132813 146.972656 L 145.878906 146.832031 L 145.605469 146.722656 L 145.324219 146.652344 L 145.035156 146.613281 L 144.742188 146.613281 L 144.453125 146.652344 L 144.171875 146.722656 L 143.898438 146.832031 L 143.644531 146.972656 L 143.410156 147.144531 L 143.195313 147.34375 L 143.011719 147.566406 L 142.855469 147.8125 L 142.730469 148.078125 L 142.640625 148.355469 L 142.585938 148.640625 L 142.566406 148.933594 L 142.585938 149.222656 L 142.640625 149.511719 L 142.730469 149.789063 L 142.855469 150.050781 L 143.011719 150.296875 L 143.195313 150.523438 L 143.410156 150.722656 L 143.644531 150.894531 L 143.898438 151.035156 L 144.171875 151.140625 L 144.453125 151.214844 L 144.742188 151.25 L 145.035156 151.25 L 145.324219 151.214844 L 145.605469 151.140625 L 145.878906 151.035156 L 146.132813 150.894531 L 146.371094 150.722656 L 146.582031 150.523438 L 146.769531 150.296875 L 146.925781 150.050781 L 147.050781 149.789063 L 147.140625 149.511719 L 147.195313 149.222656 L 147.210938 148.933594 Z M 147.195313 148.640625 "/>
<path style="fill-rule:nonzero;fill:rgb(87.45098%,32.54902%,41.960784%);fill-opacity:1;stroke-width:0.75;stroke-linecap:round;stroke-linejoin:round;stroke:rgb(0%,0%,0%);stroke-opacity:1;stroke-miterlimit:10;" d="M 283 197.78125 L 282.945313 197.492188 L 282.855469 197.214844 L 282.730469 196.953125 L 282.574219 196.707031 L 282.390625 196.480469 L 282.175781 196.28125 L 281.941406 196.109375 L 281.683594 195.96875 L 281.414063 195.863281 L 281.132813 195.789063 L 280.839844 195.753906 L 280.550781 195.753906 L 280.261719 195.789063 L 279.976563 195.863281 L 279.707031 195.96875 L 279.449219 196.109375 L 279.214844 196.28125 L 279.003906 196.480469 L 278.816406 196.707031 L 278.660156 196.953125 L 278.535156 197.214844 L 278.445313 197.492188 L 278.390625 197.78125 L 278.371094 198.070313 L 278.390625 198.363281 L 278.445313 198.648438 L 278.535156 198.925781 L 278.660156 199.191406 L 278.816406 199.4375 L 279.003906 199.660156 L 279.214844 199.859375 L 279.449219 200.03125 L 279.707031 200.171875 L 279.976563 200.28125 L 280.261719 200.351563 L 280.550781 200.390625 L 280.839844 200.390625 L 281.132813 200.351563 L 281.414063 200.28125 L 281.683594 200.171875 L 281.941406 200.03125 L 282.175781 199.859375 L 282.390625 199.660156 L 282.574219 199.4375 L 282.730469 199.191406 L 282.855469 198.925781 L 282.945313 198.648438 L 283 198.363281 L 283.019531 198.070313 Z M 283 197.78125 "/>
<path style="fill-rule:nonzero;fill:rgb(87.45098%,32.54902%,41.960784%);fill-opacity:1;stroke-width:0.75;stroke-linecap:round;stroke-linejoin:round;stroke:rgb(0%,0%,0%);stroke-opacity:1;stroke-miterlimit:10;" d="M 143.738281 118.734375 L 143.683594 118.449219 L 143.59375 118.171875 L 143.472656 117.90625 L 143.316406 117.660156 L 143.128906 117.4375 L 142.914063 117.238281 L 142.679688 117.066406 L 142.425781 116.925781 L 142.152344 116.816406 L 141.871094 116.746094 L 141.582031 116.707031 L 141.289063 116.707031 L 141 116.746094 L 140.71875 116.816406 L 140.445313 116.925781 L 140.191406 117.066406 L 139.953125 117.238281 L 139.742188 117.4375 L 139.554688 117.660156 L 139.398438 117.90625 L 139.273438 118.171875 L 139.183594 118.449219 L 139.128906 118.734375 L 139.113281 119.027344 L 139.128906 119.316406 L 139.183594 119.605469 L 139.273438 119.882813 L 139.398438 120.144531 L 139.554688 120.390625 L 139.742188 120.617188 L 139.953125 120.816406 L 140.191406 120.988281 L 140.445313 121.128906 L 140.71875 121.234375 L 141 121.308594 L 141.289063 121.34375 L 141.582031 121.34375 L 141.871094 121.308594 L 142.152344 121.234375 L 142.425781 121.128906 L 142.679688 120.988281 L 142.914063 120.816406 L 143.128906 120.617188 L 143.316406 120.390625 L 143.472656 120.144531 L 143.59375 119.882813 L 143.683594 119.605469 L 143.738281 119.316406 L 143.757813 119.027344 Z M 143.738281 118.734375 "/>
<path style="fill-rule:nonzero;fill:rgb(87.45098%,32.54902%,41.960784%);fill-opacity:1;stroke-width:0.75;stroke-linecap:round;stroke-linejoin:round;stroke:rgb(0%,0%,0%);stroke-opacity:1;stroke-miterlimit:10;" d="M 183.09375 78.667969 L 183.039063 78.382813 L 182.949219 78.105469 L 182.824219 77.839844 L 182.667969 77.59375 L 182.484375 77.371094 L 182.269531 77.171875 L 182.035156 77 L 181.777344 76.859375 L 181.507813 76.75 L 181.222656 76.679688 L 180.933594 76.640625 L 180.644531 76.640625 L 180.355469 76.679688 L 180.070313 76.75 L 179.800781 76.859375 L 179.542969 77 L 179.308594 77.171875 L 179.09375 77.371094 L 178.910156 77.59375 L 178.753906 77.839844 L 178.628906 78.105469 L 178.539063 78.382813 L 178.484375 78.667969 L 178.464844 78.960938 L 178.484375 79.25 L 178.539063 79.539063 L 178.628906 79.816406 L 178.753906 80.078125 L 178.910156 80.324219 L 179.09375 80.550781 L 179.308594 80.75 L 179.542969 80.921875 L 179.800781 81.0625 L 180.070313 81.167969 L 180.355469 81.242188 L 180.644531 81.277344 L 180.933594 81.277344 L 181.222656 81.242188 L 181.507813 81.167969 L 181.777344 81.0625 L 182.035156 80.921875 L 182.269531 80.75 L 182.484375 80.550781 L 182.667969 80.324219 L 182.824219 80.078125 L 182.949219 79.816406 L 183.039063 79.539063 L 183.09375 79.25 L 183.113281 78.960938 Z M 183.09375 78.667969 "/>
<path style="fill-rule:nonzero;fill:rgb(87.45098%,32.54902%,41.960784%);fill-opacity:1;stroke-width:0.75;stroke-linecap:round;stroke-linejoin:round;stroke:rgb(0%,0%,0%);stroke-opacity:1;stroke-miterlimit:10;" d="M 243.023438 49.429688 L 242.96875 49.140625 L 242.878906 48.863281 L 242.753906 48.601563 L 242.597656 48.355469 L 242.414063 48.128906 L 242.199219 47.929688 L 241.964844 47.757813 L 241.707031 47.617188 L 241.4375 47.511719 L 241.152344 47.4375 L 240.863281 47.402344 L 240.574219 47.402344 L 240.285156 47.4375 L 240 47.511719 L 239.730469 47.617188 L 239.472656 47.757813 L 239.238281 47.929688 L 239.027344 48.128906 L 238.839844 48.355469 L 238.683594 48.601563 L 238.558594 48.863281 L 238.46875 49.140625 L 238.414063 49.429688 L 238.394531 49.71875 L 238.414063 50.011719 L 238.46875 50.296875 L 238.558594 50.574219 L 238.683594 50.839844 L 238.839844 51.085938 L 239.027344 51.308594 L 239.238281 51.507813 L 239.472656 51.679688 L 239.730469 51.820313 L 240 51.929688 L 240.285156 52 L 240.574219 52.039063 L 240.863281 52.039063 L 241.152344 52 L 241.4375 51.929688 L 241.707031 51.820313 L 241.964844 51.679688 L 242.199219 51.507813 L 242.414063 51.308594 L 242.597656 51.085938 L 242.753906 50.839844 L 242.878906 50.574219 L 242.96875 50.296875 L 243.023438 50.011719 L 243.042969 49.71875 Z M 243.023438 49.429688 "/>
<path style="fill-rule:nonzero;fill:rgb(87.45098%,32.54902%,41.960784%);fill-opacity:1;stroke-width:0.75;stroke-linecap:round;stroke-linejoin:round;stroke:rgb(0%,0%,0%);stroke-opacity:1;stroke-miterlimit:10;" d="M 215.609375 48.886719 L 215.554688 48.601563 L 215.464844 48.324219 L 215.339844 48.058594 L 215.183594 47.8125 L 215 47.589844 L 214.785156 47.386719 L 214.550781 47.21875 L 214.292969 47.078125 L 214.023438 46.96875 L 213.738281 46.894531 L 213.449219 46.859375 L 213.160156 46.859375 L 212.871094 46.894531 L 212.585938 46.96875 L 212.316406 47.078125 L 212.058594 47.21875 L 211.824219 47.386719 L 211.609375 47.589844 L 211.425781 47.8125 L 211.269531 48.058594 L 211.144531 48.324219 L 211.054688 48.601563 L 211 48.886719 L 210.980469 49.179688 L 211 49.46875 L 211.054688 49.757813 L 211.144531 50.035156 L 211.269531 50.296875 L 211.425781 50.542969 L 211.609375 50.769531 L 211.824219 50.96875 L 212.058594 51.140625 L 212.316406 51.28125 L 212.585938 51.386719 L 212.871094 51.460938 L 213.160156 51.496094 L 213.449219 51.496094 L 213.738281 51.460938 L 214.023438 51.386719 L 214.292969 51.28125 L 214.550781 51.140625 L 214.785156 50.96875 L 215 50.769531 L 215.183594 50.542969 L 215.339844 50.296875 L 215.464844 50.035156 L 215.554688 49.757813 L 215.609375 49.46875 L 215.628906 49.179688 Z M 215.609375 48.886719 "/>
<path style="fill-rule:nonzero;fill:rgb(87.45098%,32.54902%,41.960784%);fill-opacity:1;stroke-width:0.75;stroke-linecap:round;stroke-linejoin:round;stroke:rgb(0%,0%,0%);stroke-opacity:1;stroke-miterlimit:10;" d="M 140.285156 94.644531 L 140.230469 94.359375 L 140.140625 94.082031 L 140.015625 93.816406 L 139.859375 93.570313 L 139.675781 93.347656 L 139.460938 93.148438 L 139.226563 92.976563 L 138.96875 92.835938 L 138.699219 92.726563 L 138.414063 92.65625 L 138.125 92.617188 L 137.835938 92.617188 L 137.546875 92.65625 L 137.261719 92.726563 L 136.992188 92.835938 L 136.734375 92.976563 L 136.5 93.148438 L 136.285156 93.347656 L 136.101563 93.570313 L 135.945313 93.816406 L 135.820313 94.082031 L 135.730469 94.359375 L 135.675781 94.644531 L 135.65625 94.9375 L 135.675781 95.226563 L 135.730469 95.515625 L 135.820313 95.792969 L 135.945313 96.054688 L 136.101563 96.300781 L 136.285156 96.527344 L 136.5 96.726563 L 136.734375 96.898438 L 136.992188 97.039063 L 137.261719 97.148438 L 137.546875 97.21875 L 137.835938 97.253906 L 138.125 97.253906 L 138.414063 97.21875 L 138.699219 97.148438 L 138.96875 97.039063 L 139.226563 96.898438 L 139.460938 96.726563 L 139.675781 96.527344 L 139.859375 96.300781 L 140.015625 96.054688 L 140.140625 95.792969 L 140.230469 95.515625 L 140.285156 95.226563 L 140.304688 94.9375 Z M 140.285156 94.644531 "/>
<path style="fill-rule:nonzero;fill:rgb(87.45098%,32.54902%,41.960784%);fill-opacity:1;stroke-width:0.75;stroke-linecap:round;stroke-linejoin:round;stroke:rgb(0%,0%,0%);stroke-opacity:1;stroke-miterlimit:10;" d="M 213.429688 77.273438 L 213.375 76.988281 L 213.285156 76.710938 L 213.160156 76.445313 L 213.003906 76.199219 L 212.820313 75.976563 L 212.605469 75.777344 L 212.371094 75.605469 L 212.113281 75.464844 L 211.84375 75.355469 L 211.5625 75.285156 L 211.269531 75.246094 L 210.980469 75.246094 L 210.691406 75.285156 L 210.40625 75.355469 L 210.136719 75.464844 L 209.878906 75.605469 L 209.644531 75.777344 L 209.433594 75.976563 L 209.246094 76.199219 L 209.089844 76.445313 L 208.964844 76.710938 L 208.875 76.988281 L 208.820313 77.273438 L 208.800781 77.566406 L 208.820313 77.855469 L 208.875 78.144531 L 208.964844 78.421875 L 209.089844 78.683594 L 209.246094 78.929688 L 209.433594 79.15625 L 209.644531 79.355469 L 209.878906 79.527344 L 210.136719 79.667969 L 210.40625 79.773438 L 210.691406 79.847656 L 210.980469 79.882813 L 211.269531 79.882813 L 211.5625 79.847656 L 211.84375 79.773438 L 212.113281 79.667969 L 212.371094 79.527344 L 212.605469 79.355469 L 212.820313 79.15625 L 213.003906 78.929688 L 213.160156 78.683594 L 213.285156 78.421875 L 213.375 78.144531 L 213.429688 77.855469 L 213.449219 77.566406 Z M 213.429688 77.273438 "/>
<path style="fill-rule:nonzero;fill:rgb(87.45098%,32.54902%,41.960784%);fill-opacity:1;stroke-width:0.75;stroke-linecap:round;stroke-linejoin:round;stroke:rgb(0%,0%,0%);stroke-opacity:1;stroke-miterlimit:10;" d="M 206.058594 96.101563 L 206.003906 95.816406 L 205.914063 95.539063 L 205.789063 95.273438 L 205.632813 95.027344 L 205.445313 94.804688 L 205.234375 94.601563 L 204.996094 94.433594 L 204.742188 94.292969 L 204.46875 94.183594 L 204.1875 94.113281 L 203.898438 94.074219 L 203.605469 94.074219 L 203.316406 94.113281 L 203.035156 94.183594 L 202.761719 94.292969 L 202.507813 94.433594 L 202.273438 94.601563 L 202.058594 94.804688 L 201.875 95.027344 L 201.714844 95.273438 L 201.59375 95.539063 L 201.503906 95.816406 L 201.449219 96.101563 L 201.429688 96.394531 L 201.449219 96.683594 L 201.503906 96.972656 L 201.59375 97.25 L 201.714844 97.511719 L 201.875 97.757813 L 202.058594 97.984375 L 202.273438 98.183594 L 202.507813 98.355469 L 202.761719 98.496094 L 203.035156 98.601563 L 203.316406 98.675781 L 203.605469 98.710938 L 203.898438 98.710938 L 204.1875 98.675781 L 204.46875 98.601563 L 204.742188 98.496094 L 204.996094 98.355469 L 205.234375 98.183594 L 205.445313 97.984375 L 205.632813 97.757813 L 205.789063 97.511719 L 205.914063 97.25 L 206.003906 96.972656 L 206.058594 96.683594 L 206.074219 96.394531 Z M 206.058594 96.101563 "/>
<path style="fill-rule:nonzero;fill:rgb(87.45098%,32.54902%,41.960784%);fill-opacity:1;stroke-width:0.75;stroke-linecap:round;stroke-linejoin:round;stroke:rgb(0%,0%,0%);stroke-opacity:1;stroke-miterlimit:10;" d="M 161.007813 92.5625 L 160.953125 92.277344 L 160.863281 91.996094 L 160.738281 91.734375 L 160.582031 91.488281 L 160.398438 91.261719 L 160.183594 91.0625 L 159.949219 90.890625 L 159.691406 90.75 L 159.421875 90.644531 L 159.140625 90.570313 L 158.851563 90.535156 L 158.558594 90.535156 L 158.269531 90.570313 L 157.984375 90.644531 L 157.714844 90.75 L 157.460938 90.890625 L 157.222656 91.0625 L 157.011719 91.261719 L 156.824219 91.488281 L 156.667969 91.734375 L 156.542969 91.996094 L 156.453125 92.277344 L 156.398438 92.5625 L 156.382813 92.851563 L 156.398438 93.144531 L 156.453125 93.429688 L 156.542969 93.707031 L 156.667969 93.972656 L 156.824219 94.21875 L 157.011719 94.445313 L 157.222656 94.644531 L 157.460938 94.816406 L 157.714844 94.957031 L 157.984375 95.0625 L 158.269531 95.136719 L 158.558594 95.171875 L 158.851563 95.171875 L 159.140625 95.136719 L 159.421875 95.0625 L 159.691406 94.957031 L 159.949219 94.816406 L 160.183594 94.644531 L 160.398438 94.445313 L 160.582031 94.21875 L 160.738281 93.972656 L 160.863281 93.707031 L 160.953125 93.429688 L 161.007813 93.144531 L 161.027344 92.851563 Z M 161.007813 92.5625 "/>
<path style="fill-rule:nonzero;fill:rgb(87.45098%,32.54902%,41.960784%);fill-opacity:1;stroke-width:0.75;stroke-linecap:round;stroke-linejoin:round;stroke:rgb(0%,0%,0%);stroke-opacity:1;stroke-miterlimit:10;" d="M 206.375 165.648438 L 206.320313 165.363281 L 206.230469 165.085938 L 206.105469 164.820313 L 205.949219 164.574219 L 205.765625 164.347656 L 205.550781 164.148438 L 205.316406 163.976563 L 205.058594 163.835938 L 204.789063 163.730469 L 204.507813 163.65625 L 204.214844 163.621094 L 203.925781 163.621094 L 203.636719 163.65625 L 203.351563 163.730469 L 203.082031 163.835938 L 202.824219 163.976563 L 202.589844 164.148438 L 202.378906 164.347656 L 202.191406 164.574219 L 202.035156 164.820313 L 201.910156 165.085938 L 201.820313 165.363281 L 201.765625 165.648438 L 201.746094 165.9375 L 201.765625 166.230469 L 201.820313 166.515625 L 201.910156 166.792969 L 202.035156 167.058594 L 202.191406 167.304688 L 202.378906 167.53125 L 202.589844 167.730469 L 202.824219 167.902344 L 203.082031 168.042969 L 203.351563 168.148438 L 203.636719 168.222656 L 203.925781 168.257813 L 204.214844 168.257813 L 204.507813 168.222656 L 204.789063 168.148438 L 205.058594 168.042969 L 205.316406 167.902344 L 205.550781 167.730469 L 205.765625 167.53125 L 205.949219 167.304688 L 206.105469 167.058594 L 206.230469 166.792969 L 206.320313 166.515625 L 206.375 166.230469 L 206.394531 165.9375 Z M 206.375 165.648438 "/>
<path style="fill-rule:nonzero;fill:rgb(87.45098%,32.54902%,41.960784%);fill-opacity:1;stroke-width:0.75;stroke-linecap:round;stroke-linejoin:round;stroke:rgb(0%,0%,0%);stroke-opacity:1;stroke-miterlimit:10;" d="M 233.941406 100.890625 L 233.886719 100.605469 L 233.796875 100.328125 L 233.671875 100.0625 L 233.515625 99.816406 L 233.328125 99.59375 L 233.117188 99.390625 L 232.882813 99.222656 L 232.625 99.082031 L 232.355469 98.972656 L 232.070313 98.898438 L 231.78125 98.863281 L 231.492188 98.863281 L 231.199219 98.898438 L 230.917969 98.972656 L 230.648438 99.082031 L 230.390625 99.222656 L 230.15625 99.390625 L 229.941406 99.59375 L 229.757813 99.816406 L 229.601563 100.0625 L 229.476563 100.328125 L 229.386719 100.605469 L 229.332031 100.890625 L 229.3125 101.183594 L 229.332031 101.472656 L 229.386719 101.761719 L 229.476563 102.039063 L 229.601563 102.300781 L 229.757813 102.546875 L 229.941406 102.773438 L 230.15625 102.972656 L 230.390625 103.144531 L 230.648438 103.285156 L 230.917969 103.390625 L 231.199219 103.464844 L 231.492188 103.5 L 231.78125 103.5 L 232.070313 103.464844 L 232.355469 103.390625 L 232.625 103.285156 L 232.882813 103.144531 L 233.117188 102.972656 L 233.328125 102.773438 L 233.515625 102.546875 L 233.671875 102.300781 L 233.796875 102.039063 L 233.886719 101.761719 L 233.941406 101.472656 L 233.960938 101.183594 Z M 233.941406 100.890625 "/>
<path style="fill-rule:nonzero;fill:rgb(87.45098%,32.54902%,41.960784%);fill-opacity:1;stroke-width:0.75;stroke-linecap:round;stroke-linejoin:round;stroke:rgb(0%,0%,0%);stroke-opacity:1;stroke-miterlimit:10;" d="M 185.617188 129.179688 L 185.5625 128.894531 L 185.472656 128.617188 L 185.347656 128.351563 L 185.191406 128.105469 L 185.003906 127.878906 L 184.792969 127.679688 L 184.554688 127.507813 L 184.300781 127.367188 L 184.03125 127.261719 L 183.746094 127.1875 L 183.457031 127.152344 L 183.164063 127.152344 L 182.875 127.1875 L 182.59375 127.261719 L 182.324219 127.367188 L 182.066406 127.507813 L 181.832031 127.679688 L 181.617188 127.878906 L 181.433594 128.105469 L 181.277344 128.351563 L 181.152344 128.617188 L 181.0625 128.894531 L 181.007813 129.179688 L 180.988281 129.472656 L 181.007813 129.761719 L 181.0625 130.046875 L 181.152344 130.324219 L 181.277344 130.589844 L 181.433594 130.835938 L 181.617188 131.0625 L 181.832031 131.261719 L 182.066406 131.433594 L 182.324219 131.574219 L 182.59375 131.679688 L 182.875 131.753906 L 183.164063 131.789063 L 183.457031 131.789063 L 183.746094 131.753906 L 184.03125 131.679688 L 184.300781 131.574219 L 184.554688 131.433594 L 184.792969 131.261719 L 185.003906 131.0625 L 185.191406 130.835938 L 185.347656 130.589844 L 185.472656 130.324219 L 185.5625 130.046875 L 185.617188 129.761719 L 185.636719 129.472656 Z M 185.617188 129.179688 "/>
<path style="fill-rule:nonzero;fill:rgb(87.45098%,32.54902%,41.960784%);fill-opacity:1;stroke-width:0.75;stroke-linecap:round;stroke-linejoin:round;stroke:rgb(0%,0%,0%);stroke-opacity:1;stroke-miterlimit:10;" d="M 189.714844 123.265625 L 189.660156 122.976563 L 189.570313 122.699219 L 189.445313 122.4375 L 189.289063 122.191406 L 189.105469 121.964844 L 188.890625 121.765625 L 188.65625 121.59375 L 188.398438 121.453125 L 188.128906 121.34375 L 187.84375 121.273438 L 187.554688 121.238281 L 187.265625 121.238281 L 186.976563 121.273438 L 186.691406 121.34375 L 186.421875 121.453125 L 186.164063 121.59375 L 185.929688 121.765625 L 185.714844 121.964844 L 185.53125 122.191406 L 185.375 122.4375 L 185.25 122.699219 L 185.160156 122.976563 L 185.105469 123.265625 L 185.085938 123.554688 L 185.105469 123.847656 L 185.160156 124.132813 L 185.25 124.410156 L 185.375 124.675781 L 185.53125 124.921875 L 185.714844 125.144531 L 185.929688 125.34375 L 186.164063 125.515625 L 186.421875 125.65625 L 186.691406 125.765625 L 186.976563 125.835938 L 187.265625 125.875 L 187.554688 125.875 L 187.84375 125.835938 L 188.128906 125.765625 L 188.398438 125.65625 L 188.65625 125.515625 L 188.890625 125.34375 L 189.105469 125.144531 L 189.289063 124.921875 L 189.445313 124.675781 L 189.570313 124.410156 L 189.660156 124.132813 L 189.714844 123.847656 L 189.734375 123.554688 Z M 189.714844 123.265625 "/>
</g>
</svg>
