<?xml version="1.0" encoding="UTF-8"?>
<svg xmlns="http://www.w3.org/2000/svg" xmlns:xlink="http://www.w3.org/1999/xlink" width="504pt" height="180pt" viewBox="0 0 504 180" version="1.1">
<g id="surface144">
<rect x="0" y="0" width="504" height="180" style="fill:rgb(100%,100%,100%);fill-opacity:1;stroke:none;"/>
<path style="fill-rule:nonzero;fill:rgb(0%,0%,0%);fill-opacity:1;stroke-width:0.75;stroke-linecap:round;stroke-linejoin:round;stroke:rgb(0%,0%,0%);stroke-opacity:1;stroke-miterlimit:10;" d="M 217.027344 85.964844 L 224.082031 88.421875 L 224.027344 88.578125 L 216.972656 86.117188 Z M 217.027344 85.964844 "/>
<path style="fill-rule:nonzero;fill:rgb(0%,0%,0%);fill-opacity:1;stroke-width:0.75;stroke-linecap:round;stroke-linejoin:round;stroke:rgb(0%,0%,0%);stroke-opacity:1;stroke-miterlimit:10;" d="M 216.664063 86.609375 L 245.910156 115.949219 L 245.792969 116.0625 L 216.546875 86.726563 Z M 216.664063 86.609375 "/>
<path style="fill-rule:nonzero;fill:rgb(0%,0%,0%);fill-opacity:1;stroke-width:0.75;stroke-linecap:round;stroke-linejoin:round;stroke:rgb(0%,0%,0%);stroke-opacity:1;stroke-miterlimit:10;" d="M 215.222656 87.136719 L 210.898438 110.679688 L 210.738281 110.648438 L 215.058594 87.109375 Z M 215.222656 87.136719 "/>
<path style="fill-rule:nonzero;fill:rgb(0%,0%,0%);fill-opacity:1;stroke-width:0.75;stroke-linecap:round;stroke-linejoin:round;stroke:rgb(0%,0%,0%);stroke-opacity:1;stroke-miterlimit:10;" d="M 214.476563 84.148438 L 193.746094 51.808594 L 193.882813 51.71875 L 214.617188 84.058594 Z M 214.476563 84.148438 "/>
<path style="fill-rule:nonzero;fill:rgb(0%,0%,0%);fill-opacity:1;stroke-width:0.75;stroke-linecap:round;stroke-linejoin:round;stroke:rgb(0%,0%,0%);stroke-opacity:1;stroke-miterlimit:10;" d="M 214.886719 83.9375 L 202.511719 42.394531 L 202.667969 42.347656 L 215.046875 83.886719 Z M 214.886719 83.9375 "/>
<path style="fill-rule:nonzero;fill:rgb(0%,0%,0%);fill-opacity:1;stroke-width:0.75;stroke-linecap:round;stroke-linejoin:round;stroke:rgb(0%,0%,0%);stroke-opacity:1;stroke-miterlimit:10;" d="M 215.375 83.84375 L 215.882813 41.585938 L 216.046875 41.585938 L 215.542969 83.84375 Z M 215.375 83.84375 "/>
<path style="fill-rule:nonzero;fill:rgb(0%,0%,0%);fill-opacity:1;stroke-width:0.75;stroke-linecap:round;stroke-linejoin:round;stroke:rgb(0%,0%,0%);stroke-opacity:1;stroke-miterlimit:10;" d="M 215.234375 87.140625 L 209.480469 120.035156 L 209.320313 120.007813 L 215.074219 87.109375 Z M 215.234375 87.140625 "/>
<path style="fill-rule:nonzero;fill:rgb(0%,0%,0%);fill-opacity:1;stroke-width:0.75;stroke-linecap:round;stroke-linejoin:round;stroke:rgb(0%,0%,0%);stroke-opacity:1;stroke-miterlimit:10;" d="M 217.09375 85.570313 L 260.335938 89.6875 L 260.320313 89.855469 L 217.078125 85.734375 Z M 217.09375 85.570313 "/>
<path style="fill-rule:nonzero;fill:rgb(0%,0%,0%);fill-opacity:1;stroke-width:0.75;stroke-linecap:round;stroke-linejoin:round;stroke:rgb(0%,0%,0%);stroke-opacity:1;stroke-miterlimit:10;" d="M 214.097656 84.527344 L 182.632813 59.300781 L 182.734375 59.171875 L 214.199219 84.398438 Z M 214.097656 84.527344 "/>
<path style="fill-rule:nonzero;fill:rgb(0%,0%,0%);fill-opacity:1;stroke-width:0.75;stroke-linecap:round;stroke-linejoin:round;stroke:rgb(0%,0%,0%);stroke-opacity:1;stroke-miterlimit:10;" d="M 213.800781 85.742188 L 172.566406 89.796875 L 172.550781 89.632813 L 213.785156 85.578125 Z M 213.800781 85.742188 "/>
<path style="fill-rule:nonzero;fill:rgb(0%,0%,0%);fill-opacity:1;stroke-width:0.75;stroke-linecap:round;stroke-linejoin:round;stroke:rgb(0%,0%,0%);stroke-opacity:1;stroke-miterlimit:10;" d="M 214.191406 86.585938 L 182.917969 111.257813 L 182.8125 111.125 L 214.089844 86.457031 Z M 214.191406 86.585938 "/>
<path style="fill-rule:nonzero;fill:rgb(0%,0%,0%);fill-opacity:1;stroke-width:0.75;stroke-linecap:round;stroke-linejoin:round;stroke:rgb(0%,0%,0%);stroke-opacity:1;stroke-miterlimit:10;" d="M 216.863281 86.34375 L 242.183594 103.144531 L 242.089844 103.28125 L 216.769531 86.480469 Z M 216.863281 86.34375 "/>
<path style="fill-rule:nonzero;fill:rgb(0%,0%,0%);fill-opacity:1;stroke-width:0.75;stroke-linecap:round;stroke-linejoin:round;stroke:rgb(0%,0%,0%);stroke-opacity:1;stroke-miterlimit:10;" d="M 213.9375 84.796875 L 193.332031 73.90625 L 193.410156 73.757813 L 214.015625 84.652344 Z M 213.9375 84.796875 "/>
<path style="fill-rule:nonzero;fill:rgb(0%,0%,0%);fill-opacity:1;stroke-width:0.75;stroke-linecap:round;stroke-linejoin:round;stroke:rgb(0%,0%,0%);stroke-opacity:1;stroke-miterlimit:10;" d="M 217.019531 85.007813 L 253.988281 75.59375 L 254.027344 75.753906 L 217.0625 85.167969 Z M 217.019531 85.007813 "/>
<path style="fill-rule:nonzero;fill:rgb(0%,0%,0%);fill-opacity:1;stroke-width:0.75;stroke-linecap:round;stroke-linejoin:round;stroke:rgb(0%,0%,0%);stroke-opacity:1;stroke-miterlimit:10;" d="M 213.832031 85.886719 L 188.246094 90.761719 L 188.214844 90.601563 L 213.800781 85.726563 Z M 213.832031 85.886719 "/>
<path style="fill-rule:nonzero;fill:rgb(0%,0%,0%);fill-opacity:1;stroke-width:0.75;stroke-linecap:round;stroke-linejoin:round;stroke:rgb(0%,0%,0%);stroke-opacity:1;stroke-miterlimit:10;" d="M 216.640625 86.636719 L 254.753906 126.660156 L 254.632813 126.773438 L 216.519531 86.75 Z M 216.640625 86.636719 "/>
<path style="fill-rule:nonzero;fill:rgb(0%,0%,0%);fill-opacity:1;stroke-width:0.75;stroke-linecap:round;stroke-linejoin:round;stroke:rgb(0%,0%,0%);stroke-opacity:1;stroke-miterlimit:10;" d="M 226.683594 90.3125 L 246.082031 115.8125 L 245.949219 115.910156 L 226.550781 90.410156 Z M 226.683594 90.3125 "/>
<path style="fill-rule:nonzero;fill:rgb(0%,0%,0%);fill-opacity:1;stroke-width:0.75;stroke-linecap:round;stroke-linejoin:round;stroke:rgb(0%,0%,0%);stroke-opacity:1;stroke-miterlimit:10;" d="M 224.785156 90.476563 L 211.488281 110.949219 L 211.351563 110.859375 L 224.648438 90.386719 Z M 224.785156 90.476563 "/>
<path style="fill-rule:nonzero;fill:rgb(0%,0%,0%);fill-opacity:1;stroke-width:0.75;stroke-linecap:round;stroke-linejoin:round;stroke:rgb(0%,0%,0%);stroke-opacity:1;stroke-miterlimit:10;" d="M 224.945313 90.558594 L 209.9375 120.210938 L 209.789063 120.136719 L 224.796875 90.484375 Z M 224.945313 90.558594 "/>
<path style="fill-rule:nonzero;fill:rgb(0%,0%,0%);fill-opacity:1;stroke-width:0.75;stroke-linecap:round;stroke-linejoin:round;stroke:rgb(0%,0%,0%);stroke-opacity:1;stroke-miterlimit:10;" d="M 226.933594 90.046875 L 242.304688 102.996094 L 242.199219 103.125 L 226.828125 90.175781 Z M 226.933594 90.046875 "/>
<path style="fill-rule:nonzero;fill:rgb(0%,0%,0%);fill-opacity:1;stroke-width:0.75;stroke-linecap:round;stroke-linejoin:round;stroke:rgb(0%,0%,0%);stroke-opacity:1;stroke-miterlimit:10;" d="M 224.085938 88.410156 L 193.367188 73.84375 L 193.441406 73.695313 L 224.160156 88.261719 Z M 224.085938 88.410156 "/>
<path style="fill-rule:nonzero;fill:rgb(0%,0%,0%);fill-opacity:1;stroke-width:0.75;stroke-linecap:round;stroke-linejoin:round;stroke:rgb(0%,0%,0%);stroke-opacity:1;stroke-miterlimit:10;" d="M 227.085938 88.28125 L 254.074219 75.878906 L 254.144531 76.03125 L 227.152344 88.429688 Z M 227.085938 88.28125 "/>
<path style="fill-rule:nonzero;fill:rgb(0%,0%,0%);fill-opacity:1;stroke-width:0.75;stroke-linecap:round;stroke-linejoin:round;stroke:rgb(0%,0%,0%);stroke-opacity:1;stroke-miterlimit:10;" d="M 223.96875 89.210938 L 188.261719 90.992188 L 188.253906 90.824219 L 223.960938 89.046875 Z M 223.96875 89.210938 "/>
<path style="fill-rule:nonzero;fill:rgb(0%,0%,0%);fill-opacity:1;stroke-width:0.75;stroke-linecap:round;stroke-linejoin:round;stroke:rgb(0%,0%,0%);stroke-opacity:1;stroke-miterlimit:10;" d="M 227.207031 88.582031 L 270.941406 78.195313 L 270.980469 78.355469 L 227.246094 88.742188 Z M 227.207031 88.582031 "/>
<path style="fill-rule:nonzero;fill:rgb(0%,0%,0%);fill-opacity:1;stroke-width:0.75;stroke-linecap:round;stroke-linejoin:round;stroke:rgb(0%,0%,0%);stroke-opacity:1;stroke-miterlimit:10;" d="M 245.367188 117.039063 L 212.148438 112.589844 L 212.171875 112.425781 L 245.390625 116.875 Z M 245.367188 117.039063 "/>
<path style="fill-rule:nonzero;fill:rgb(0%,0%,0%);fill-opacity:1;stroke-width:0.75;stroke-linecap:round;stroke-linejoin:round;stroke:rgb(0%,0%,0%);stroke-opacity:1;stroke-miterlimit:10;" d="M 245.382813 117.453125 L 210.765625 121.539063 L 210.746094 121.375 L 245.367188 117.289063 Z M 245.382813 117.453125 "/>
<path style="fill-rule:nonzero;fill:rgb(0%,0%,0%);fill-opacity:1;stroke-width:0.75;stroke-linecap:round;stroke-linejoin:round;stroke:rgb(0%,0%,0%);stroke-opacity:1;stroke-miterlimit:10;" d="M 247.738281 115.6875 L 261.105469 91.335938 L 261.25 91.417969 L 247.886719 115.765625 Z M 247.738281 115.6875 "/>
<path style="fill-rule:nonzero;fill:rgb(0%,0%,0%);fill-opacity:1;stroke-width:0.75;stroke-linecap:round;stroke-linejoin:round;stroke:rgb(0%,0%,0%);stroke-opacity:1;stroke-miterlimit:10;" d="M 248.527344 117.859375 L 281.113281 134.5625 L 281.035156 134.710938 L 248.449219 118.003906 Z M 248.527344 117.859375 "/>
<path style="fill-rule:nonzero;fill:rgb(0%,0%,0%);fill-opacity:1;stroke-width:0.75;stroke-linecap:round;stroke-linejoin:round;stroke:rgb(0%,0%,0%);stroke-opacity:1;stroke-miterlimit:10;" d="M 246.507813 115.601563 L 243.863281 105.746094 L 244.023438 105.703125 L 246.667969 115.558594 Z M 246.507813 115.601563 "/>
<path style="fill-rule:nonzero;fill:rgb(0%,0%,0%);fill-opacity:1;stroke-width:0.75;stroke-linecap:round;stroke-linejoin:round;stroke:rgb(0%,0%,0%);stroke-opacity:1;stroke-miterlimit:10;" d="M 248.183594 118.351563 L 273.414063 146.425781 L 273.292969 146.535156 L 248.0625 118.460938 Z M 248.183594 118.351563 "/>
<path style="fill-rule:nonzero;fill:rgb(0%,0%,0%);fill-opacity:1;stroke-width:0.75;stroke-linecap:round;stroke-linejoin:round;stroke:rgb(0%,0%,0%);stroke-opacity:1;stroke-miterlimit:10;" d="M 248 118.507813 L 262.300781 139.992188 L 262.164063 140.085938 L 247.863281 118.597656 Z M 248 118.507813 "/>
<path style="fill-rule:nonzero;fill:rgb(0%,0%,0%);fill-opacity:1;stroke-width:0.75;stroke-linecap:round;stroke-linejoin:round;stroke:rgb(0%,0%,0%);stroke-opacity:1;stroke-miterlimit:10;" d="M 248.601563 116.699219 L 294.21875 105.363281 L 294.261719 105.523438 L 248.640625 116.859375 Z M 248.601563 116.699219 "/>
<path style="fill-rule:nonzero;fill:rgb(0%,0%,0%);fill-opacity:1;stroke-width:0.75;stroke-linecap:round;stroke-linejoin:round;stroke:rgb(0%,0%,0%);stroke-opacity:1;stroke-miterlimit:10;" d="M 210.355469 113.9375 L 209.441406 120.027344 L 209.28125 120.003906 L 210.191406 113.914063 Z M 210.355469 113.9375 "/>
<path style="fill-rule:nonzero;fill:rgb(0%,0%,0%);fill-opacity:1;stroke-width:0.75;stroke-linecap:round;stroke-linejoin:round;stroke:rgb(0%,0%,0%);stroke-opacity:1;stroke-miterlimit:10;" d="M 208.867188 112.367188 L 183.21875 112.300781 L 183.222656 112.136719 L 208.867188 112.203125 Z M 208.867188 112.367188 "/>
<path style="fill-rule:nonzero;fill:rgb(0%,0%,0%);fill-opacity:1;stroke-width:0.75;stroke-linecap:round;stroke-linejoin:round;stroke:rgb(0%,0%,0%);stroke-opacity:1;stroke-miterlimit:10;" d="M 212.105469 111.8125 L 241.890625 104.445313 L 241.929688 104.605469 L 212.144531 111.972656 Z M 212.105469 111.8125 "/>
<path style="fill-rule:nonzero;fill:rgb(0%,0%,0%);fill-opacity:1;stroke-width:0.75;stroke-linecap:round;stroke-linejoin:round;stroke:rgb(0%,0%,0%);stroke-opacity:1;stroke-miterlimit:10;" d="M 194.394531 49.613281 L 214.441406 40.539063 L 214.511719 40.691406 L 194.460938 49.765625 Z M 194.394531 49.613281 "/>
<path style="fill-rule:nonzero;fill:rgb(0%,0%,0%);fill-opacity:1;stroke-width:0.75;stroke-linecap:round;stroke-linejoin:round;stroke:rgb(0%,0%,0%);stroke-opacity:1;stroke-miterlimit:10;" d="M 191.601563 51.367188 L 182.808594 57.34375 L 182.714844 57.207031 L 191.507813 51.230469 Z M 191.601563 51.367188 "/>
<path style="fill-rule:nonzero;fill:rgb(0%,0%,0%);fill-opacity:1;stroke-width:0.75;stroke-linecap:round;stroke-linejoin:round;stroke:rgb(0%,0%,0%);stroke-opacity:1;stroke-miterlimit:10;" d="M 203.761719 40.605469 L 214.328125 39.953125 L 214.339844 40.117188 L 203.773438 40.769531 Z M 203.761719 40.605469 "/>
<path style="fill-rule:nonzero;fill:rgb(0%,0%,0%);fill-opacity:1;stroke-width:0.75;stroke-linecap:round;stroke-linejoin:round;stroke:rgb(0%,0%,0%);stroke-opacity:1;stroke-miterlimit:10;" d="M 200.90625 41.914063 L 182.710938 57.203125 L 182.605469 57.078125 L 200.796875 41.789063 Z M 200.90625 41.914063 "/>
<path style="fill-rule:nonzero;fill:rgb(0%,0%,0%);fill-opacity:1;stroke-width:0.75;stroke-linecap:round;stroke-linejoin:round;stroke:rgb(0%,0%,0%);stroke-opacity:1;stroke-miterlimit:10;" d="M 202.554688 39.191406 L 211.5625 11.726563 L 211.71875 11.777344 L 202.710938 39.242188 Z M 202.554688 39.191406 "/>
<path style="fill-rule:nonzero;fill:rgb(0%,0%,0%);fill-opacity:1;stroke-width:0.75;stroke-linecap:round;stroke-linejoin:round;stroke:rgb(0%,0%,0%);stroke-opacity:1;stroke-miterlimit:10;" d="M 215.691406 38.304688 L 212.285156 11.832031 L 212.449219 11.808594 L 215.855469 38.28125 Z M 215.691406 38.304688 "/>
<path style="fill-rule:nonzero;fill:rgb(0%,0%,0%);fill-opacity:1;stroke-width:0.75;stroke-linecap:round;stroke-linejoin:round;stroke:rgb(0%,0%,0%);stroke-opacity:1;stroke-miterlimit:10;" d="M 263.003906 88.632813 L 271.414063 79.078125 L 271.539063 79.1875 L 263.128906 88.742188 Z M 263.003906 88.632813 "/>
<path style="fill-rule:nonzero;fill:rgb(0%,0%,0%);fill-opacity:1;stroke-width:0.75;stroke-linecap:round;stroke-linejoin:round;stroke:rgb(0%,0%,0%);stroke-opacity:1;stroke-miterlimit:10;" d="M 263.515625 90.527344 L 294.367188 104.296875 L 294.300781 104.445313 L 263.449219 90.675781 Z M 263.515625 90.527344 "/>
<path style="fill-rule:nonzero;fill:rgb(0%,0%,0%);fill-opacity:1;stroke-width:0.75;stroke-linecap:round;stroke-linejoin:round;stroke:rgb(0%,0%,0%);stroke-opacity:1;stroke-miterlimit:10;" d="M 263.421875 90.726563 L 290.976563 107.789063 L 290.886719 107.929688 L 263.335938 90.867188 Z M 263.421875 90.726563 "/>
<path style="fill-rule:nonzero;fill:rgb(0%,0%,0%);fill-opacity:1;stroke-width:0.75;stroke-linecap:round;stroke-linejoin:round;stroke:rgb(0%,0%,0%);stroke-opacity:1;stroke-miterlimit:10;" d="M 283.039063 133.8125 L 291.691406 110.253906 L 291.84375 110.3125 L 283.195313 133.867188 Z M 283.039063 133.8125 "/>
<path style="fill-rule:nonzero;fill:rgb(0%,0%,0%);fill-opacity:1;stroke-width:0.75;stroke-linecap:round;stroke-linejoin:round;stroke:rgb(0%,0%,0%);stroke-opacity:1;stroke-miterlimit:10;" d="M 245.167969 104.199219 L 290.699219 108.492188 L 290.683594 108.660156 L 245.152344 104.363281 Z M 245.167969 104.199219 "/>
<path style="fill-rule:nonzero;fill:rgb(0%,0%,0%);fill-opacity:1;stroke-width:0.75;stroke-linecap:round;stroke-linejoin:round;stroke:rgb(0%,0%,0%);stroke-opacity:1;stroke-miterlimit:10;" d="M 327.734375 101.761719 L 297.496094 104.953125 L 297.480469 104.789063 L 327.71875 101.597656 Z M 327.734375 101.761719 "/>
<path style="fill-rule:nonzero;fill:rgb(0%,0%,0%);fill-opacity:1;stroke-width:0.75;stroke-linecap:round;stroke-linejoin:round;stroke:rgb(0%,0%,0%);stroke-opacity:1;stroke-miterlimit:10;" d="M 327.761719 101.90625 L 293.976563 108.496094 L 293.945313 108.332031 L 327.730469 101.742188 Z M 327.761719 101.90625 "/>
<path style="fill-rule:nonzero;fill:rgb(0%,0%,0%);fill-opacity:1;stroke-width:0.75;stroke-linecap:round;stroke-linejoin:round;stroke:rgb(0%,0%,0%);stroke-opacity:1;stroke-miterlimit:10;" d="M 328.128906 112.871094 L 297.433594 105.511719 L 297.472656 105.351563 L 328.167969 112.710938 Z M 328.128906 112.871094 "/>
<path style="fill-rule:nonzero;fill:rgb(0%,0%,0%);fill-opacity:1;stroke-width:0.75;stroke-linecap:round;stroke-linejoin:round;stroke:rgb(0%,0%,0%);stroke-opacity:1;stroke-miterlimit:10;" d="M 328.105469 113.0625 L 293.96875 109.007813 L 293.988281 108.84375 L 328.125 112.898438 Z M 328.105469 113.0625 "/>
<path style="fill-rule:nonzero;fill:rgb(0%,0%,0%);fill-opacity:1;stroke-width:0.75;stroke-linecap:round;stroke-linejoin:round;stroke:rgb(0%,0%,0%);stroke-opacity:1;stroke-miterlimit:10;" d="M 308.5 73.796875 L 296.539063 103.542969 L 296.382813 103.480469 L 308.34375 73.738281 Z M 308.5 73.796875 "/>
<path style="fill-rule:nonzero;fill:rgb(0%,0%,0%);fill-opacity:1;stroke-width:0.75;stroke-linecap:round;stroke-linejoin:round;stroke:rgb(0%,0%,0%);stroke-opacity:1;stroke-miterlimit:10;" d="M 308.425781 73.769531 L 293.101563 107.261719 L 292.949219 107.195313 L 308.277344 73.703125 Z M 308.425781 73.769531 "/>
<path style="fill-rule:nonzero;fill:rgb(0%,0%,0%);fill-opacity:1;stroke-width:0.75;stroke-linecap:round;stroke-linejoin:round;stroke:rgb(0%,0%,0%);stroke-opacity:1;stroke-miterlimit:10;" d="M 256.886719 76.316406 L 291.171875 107.554688 L 291.058594 107.679688 L 256.777344 76.441406 Z M 256.886719 76.316406 "/>
<path style="fill-rule:nonzero;fill:rgb(0%,0%,0%);fill-opacity:1;stroke-width:0.75;stroke-linecap:round;stroke-linejoin:round;stroke:rgb(0%,0%,0%);stroke-opacity:1;stroke-miterlimit:10;" d="M 319.980469 81.4375 L 297.082031 103.945313 L 296.964844 103.828125 L 319.867188 81.320313 Z M 319.980469 81.4375 "/>
<path style="fill-rule:nonzero;fill:rgb(0%,0%,0%);fill-opacity:1;stroke-width:0.75;stroke-linecap:round;stroke-linejoin:round;stroke:rgb(0%,0%,0%);stroke-opacity:1;stroke-miterlimit:10;" d="M 319.988281 81.441406 L 293.570313 107.625 L 293.453125 107.507813 L 319.871094 81.324219 Z M 319.988281 81.441406 "/>
<path style="fill-rule:nonzero;fill:rgb(0%,0%,0%);fill-opacity:1;stroke-width:0.75;stroke-linecap:round;stroke-linejoin:round;stroke:rgb(0%,0%,0%);stroke-opacity:1;stroke-miterlimit:10;" d="M 325.496094 90.566406 L 297.363281 104.390625 L 297.292969 104.242188 L 325.425781 90.417969 Z M 325.496094 90.566406 "/>
<path style="fill-rule:nonzero;fill:rgb(0%,0%,0%);fill-opacity:1;stroke-width:0.75;stroke-linecap:round;stroke-linejoin:round;stroke:rgb(0%,0%,0%);stroke-opacity:1;stroke-miterlimit:10;" d="M 325.535156 90.628906 L 293.828125 108.007813 L 293.746094 107.863281 L 325.453125 90.484375 Z M 325.535156 90.628906 "/>
<path style="fill-rule:nonzero;fill:rgb(0%,0%,0%);fill-opacity:1;stroke-width:0.75;stroke-linecap:round;stroke-linejoin:round;stroke:rgb(0%,0%,0%);stroke-opacity:1;stroke-miterlimit:10;" d="M 300.480469 145.304688 L 276.117188 166.867188 L 276.007813 166.742188 L 300.371094 145.183594 Z M 300.480469 145.304688 "/>
<path style="fill-rule:nonzero;fill:rgb(0%,0%,0%);fill-opacity:1;stroke-width:0.75;stroke-linecap:round;stroke-linejoin:round;stroke:rgb(0%,0%,0%);stroke-opacity:1;stroke-miterlimit:10;" d="M 300.035156 144.445313 L 276.109375 147.578125 L 276.089844 147.414063 L 300.015625 144.28125 Z M 300.035156 144.445313 "/>
<path style="fill-rule:nonzero;fill:rgb(0%,0%,0%);fill-opacity:1;stroke-width:0.75;stroke-linecap:round;stroke-linejoin:round;stroke:rgb(0%,0%,0%);stroke-opacity:1;stroke-miterlimit:10;" d="M 302.96875 143.128906 L 317.683594 132.738281 L 317.777344 132.875 L 303.0625 143.261719 Z M 302.96875 143.128906 "/>
<path style="fill-rule:nonzero;fill:rgb(0%,0%,0%);fill-opacity:1;stroke-width:0.75;stroke-linecap:round;stroke-linejoin:round;stroke:rgb(0%,0%,0%);stroke-opacity:1;stroke-miterlimit:10;" d="M 301.339844 142.527344 L 296.007813 106.691406 L 296.167969 106.667969 L 301.503906 142.5 Z M 301.339844 142.527344 "/>
<path style="fill-rule:nonzero;fill:rgb(0%,0%,0%);fill-opacity:1;stroke-width:0.75;stroke-linecap:round;stroke-linejoin:round;stroke:rgb(0%,0%,0%);stroke-opacity:1;stroke-miterlimit:10;" d="M 301.164063 142.570313 L 292.679688 110.351563 L 292.839844 110.308594 L 301.324219 142.527344 Z M 301.164063 142.570313 "/>
<path style="fill-rule:nonzero;fill:rgb(0%,0%,0%);fill-opacity:1;stroke-width:0.75;stroke-linecap:round;stroke-linejoin:round;stroke:rgb(0%,0%,0%);stroke-opacity:1;stroke-miterlimit:10;" d="M 253.257813 169.601563 L 273.167969 167.953125 L 273.183594 168.117188 L 253.269531 169.765625 Z M 253.257813 169.601563 "/>
<path style="fill-rule:nonzero;fill:rgb(0%,0%,0%);fill-opacity:1;stroke-width:0.75;stroke-linecap:round;stroke-linejoin:round;stroke:rgb(0%,0%,0%);stroke-opacity:1;stroke-miterlimit:10;" d="M 252.746094 168.609375 L 273.214844 148.800781 L 273.328125 148.917969 L 252.863281 168.730469 Z M 252.746094 168.609375 "/>
<path style="fill-rule:nonzero;fill:rgb(0%,0%,0%);fill-opacity:1;stroke-width:0.75;stroke-linecap:round;stroke-linejoin:round;stroke:rgb(0%,0%,0%);stroke-opacity:1;stroke-miterlimit:10;" d="M 251.699219 168.167969 L 255.585938 129.550781 L 255.75 129.566406 L 251.863281 168.183594 Z M 251.699219 168.167969 "/>
<path style="fill-rule:nonzero;fill:rgb(0%,0%,0%);fill-opacity:1;stroke-width:0.75;stroke-linecap:round;stroke-linejoin:round;stroke:rgb(0%,0%,0%);stroke-opacity:1;stroke-miterlimit:10;" d="M 274.039063 166.441406 L 256.46875 129.445313 L 256.617188 129.371094 L 274.1875 166.371094 Z M 274.039063 166.441406 "/>
<path style="fill-rule:nonzero;fill:rgb(0%,0%,0%);fill-opacity:1;stroke-width:0.75;stroke-linecap:round;stroke-linejoin:round;stroke:rgb(0%,0%,0%);stroke-opacity:1;stroke-miterlimit:10;" d="M 331.476563 129.660156 L 320.722656 131.632813 L 320.691406 131.472656 L 331.445313 129.496094 Z M 331.476563 129.660156 "/>
<path style="fill-rule:nonzero;fill:rgb(0%,0%,0%);fill-opacity:1;stroke-width:0.75;stroke-linecap:round;stroke-linejoin:round;stroke:rgb(0%,0%,0%);stroke-opacity:1;stroke-miterlimit:10;" d="M 331.574219 128.609375 L 293.777344 109.550781 L 293.851563 109.402344 L 331.648438 128.460938 Z M 331.574219 128.609375 "/>
<path style="fill-rule:nonzero;fill:rgb(0%,0%,0%);fill-opacity:1;stroke-width:0.75;stroke-linecap:round;stroke-linejoin:round;stroke:rgb(0%,0%,0%);stroke-opacity:1;stroke-miterlimit:10;" d="M 275.074219 146.171875 L 291.574219 110.199219 L 291.722656 110.269531 L 275.222656 146.242188 Z M 275.074219 146.171875 "/>
<path style="fill-rule:nonzero;fill:rgb(0%,0%,0%);fill-opacity:1;stroke-width:0.75;stroke-linecap:round;stroke-linejoin:round;stroke:rgb(0%,0%,0%);stroke-opacity:1;stroke-miterlimit:10;" d="M 262.289063 140 L 256.546875 129.40625 L 256.695313 129.328125 L 262.433594 139.921875 Z M 262.289063 140 "/>
<path style="fill-rule:nonzero;fill:rgb(0%,0%,0%);fill-opacity:1;stroke-width:0.75;stroke-linecap:round;stroke-linejoin:round;stroke:rgb(0%,0%,0%);stroke-opacity:1;stroke-miterlimit:10;" d="M 264.1875 140.125 L 291.175781 109.910156 L 291.296875 110.019531 L 264.3125 140.238281 Z M 264.1875 140.125 "/>
<path style="fill-rule:nonzero;fill:rgb(0%,0%,0%);fill-opacity:1;stroke-width:0.75;stroke-linecap:round;stroke-linejoin:round;stroke:rgb(0%,0%,0%);stroke-opacity:1;stroke-miterlimit:10;" d="M 317.9375 130.65625 L 296.863281 106.347656 L 296.988281 106.238281 L 318.0625 130.546875 Z M 317.9375 130.65625 "/>
<path style="fill-rule:nonzero;fill:rgb(0%,0%,0%);fill-opacity:1;stroke-width:0.75;stroke-linecap:round;stroke-linejoin:round;stroke:rgb(0%,0%,0%);stroke-opacity:1;stroke-miterlimit:10;" d="M 317.777344 130.832031 L 293.535156 109.875 L 293.640625 109.75 L 317.886719 130.707031 Z M 317.777344 130.832031 "/>
<path style="fill-rule:nonzero;fill:rgb(0%,0%,0%);fill-opacity:1;stroke-width:0.75;stroke-linecap:round;stroke-linejoin:round;stroke:rgb(0%,0%,0%);stroke-opacity:1;stroke-miterlimit:10;" d="M 273.707031 79.09375 L 294.832031 103.734375 L 294.707031 103.84375 L 273.582031 79.203125 Z M 273.707031 79.09375 "/>
<path style="fill-rule:nonzero;fill:rgb(0%,0%,0%);fill-opacity:1;stroke-width:0.75;stroke-linecap:round;stroke-linejoin:round;stroke:rgb(0%,0%,0%);stroke-opacity:1;stroke-miterlimit:10;" d="M 273.53125 79.242188 L 291.515625 107.292969 L 291.375 107.382813 L 273.390625 79.328125 Z M 273.53125 79.242188 "/>
<path style="fill-rule:nonzero;fill:rgb(0%,0%,0%);fill-opacity:1;stroke-width:0.75;stroke-linecap:round;stroke-linejoin:round;stroke:rgb(0%,0%,0%);stroke-opacity:1;stroke-miterlimit:10;" d="M 257.226563 127.023438 L 294.367188 105.792969 L 294.449219 105.9375 L 257.308594 127.167969 Z M 257.226563 127.023438 "/>
<path style="fill-rule:nonzero;fill:rgb(0%,0%,0%);fill-opacity:1;stroke-width:0.75;stroke-linecap:round;stroke-linejoin:round;stroke:rgb(0%,0%,0%);stroke-opacity:1;stroke-miterlimit:10;" d="M 257.257813 127.074219 L 290.835938 109.425781 L 290.914063 109.574219 L 257.335938 127.21875 Z M 257.257813 127.074219 "/>
<path style="fill-rule:nonzero;fill:rgb(0%,0%,0%);fill-opacity:1;stroke-width:0.75;stroke-linecap:round;stroke-linejoin:round;stroke:rgb(0%,0%,0%);stroke-opacity:1;stroke-miterlimit:10;" d="M 294.765625 106.300781 L 293.535156 107.589844 L 293.417969 107.476563 L 294.644531 106.183594 Z M 294.765625 106.300781 "/>
<path style="fill-rule:nonzero;fill:rgb(87.45098%,32.54902%,41.960784%);fill-opacity:1;stroke-width:0.75;stroke-linecap:round;stroke-linejoin:round;stroke:rgb(0%,0%,0%);stroke-opacity:1;stroke-miterlimit:10;" d="M 217.082031 85.289063 L 217.042969 85.085938 L 216.980469 84.886719 L 216.890625 84.699219 L 216.777344 84.523438 L 216.644531 84.363281 L 216.496094 84.222656 L 216.328125 84.097656 L 216.144531 84 L 215.949219 83.921875 L 215.75 83.871094 L 215.542969 83.84375 L 215.335938 83.84375 L 215.128906 83.871094 L 214.929688 83.921875 L 214.734375 84 L 214.550781 84.097656 L 214.382813 84.222656 L 214.234375 84.363281 L 214.101563 84.523438 L 213.988281 84.699219 L 213.898438 84.886719 L 213.835938 85.085938 L 213.796875 85.289063 L 213.785156 85.496094 L 213.796875 85.703125 L 213.835938 85.910156 L 213.898438 86.105469 L 213.988281 86.292969 L 214.101563 86.46875 L 214.234375 86.628906 L 214.382813 86.773438 L 214.550781 86.894531 L 214.734375 86.996094 L 214.929688 87.070313 L 215.128906 87.121094 L 215.335938 87.148438 L 215.542969 87.148438 L 215.75 87.121094 L 215.949219 87.070313 L 216.144531 86.996094 L 216.328125 86.894531 L 216.496094 86.773438 L 216.644531 86.628906 L 216.777344 86.46875 L 216.890625 86.292969 L 216.980469 86.105469 L 217.042969 85.910156 L 217.082031 85.703125 L 217.09375 85.496094 Z M 217.082031 85.289063 "/>
<path style="fill-rule:nonzero;fill:rgb(87.45098%,32.54902%,41.960784%);fill-opacity:1;stroke-width:0.75;stroke-linecap:round;stroke-linejoin:round;stroke:rgb(0%,0%,0%);stroke-opacity:1;stroke-miterlimit:10;" d="M 227.257813 88.839844 L 227.21875 88.632813 L 227.15625 88.4375 L 227.066406 88.25 L 226.957031 88.074219 L 226.824219 87.914063 L 226.671875 87.769531 L 226.503906 87.648438 L 226.320313 87.546875 L 226.128906 87.472656 L 225.925781 87.417969 L 225.722656 87.394531 L 225.511719 87.394531 L 225.308594 87.417969 L 225.105469 87.472656 L 224.910156 87.546875 L 224.730469 87.648438 L 224.5625 87.769531 L 224.410156 87.914063 L 224.277344 88.074219 L 224.167969 88.25 L 224.078125 88.4375 L 224.011719 88.632813 L 223.972656 88.839844 L 223.960938 89.046875 L 223.972656 89.253906 L 224.011719 89.457031 L 224.078125 89.65625 L 224.167969 89.84375 L 224.277344 90.019531 L 224.410156 90.179688 L 224.5625 90.320313 L 224.730469 90.445313 L 224.910156 90.542969 L 225.105469 90.621094 L 225.308594 90.671875 L 225.511719 90.699219 L 225.722656 90.699219 L 225.925781 90.671875 L 226.128906 90.621094 L 226.320313 90.542969 L 226.503906 90.445313 L 226.671875 90.320313 L 226.824219 90.179688 L 226.957031 90.019531 L 227.066406 89.84375 L 227.15625 89.65625 L 227.21875 89.457031 L 227.257813 89.253906 L 227.273438 89.046875 Z M 227.257813 88.839844 "/>
<path style="fill-rule:nonzero;fill:rgb(87.45098%,32.54902%,41.960784%);fill-opacity:1;stroke-width:0.75;stroke-linecap:round;stroke-linejoin:round;stroke:rgb(0%,0%,0%);stroke-opacity:1;stroke-miterlimit:10;" d="M 248.660156 116.96875 L 248.621094 116.765625 L 248.554688 116.566406 L 248.46875 116.378906 L 248.355469 116.203125 L 248.222656 116.042969 L 248.070313 115.902344 L 247.902344 115.777344 L 247.722656 115.679688 L 247.527344 115.601563 L 247.328125 115.550781 L 247.121094 115.523438 L 246.914063 115.523438 L 246.707031 115.550781 L 246.503906 115.601563 L 246.3125 115.679688 L 246.128906 115.777344 L 245.960938 115.902344 L 245.808594 116.042969 L 245.675781 116.203125 L 245.566406 116.378906 L 245.476563 116.566406 L 245.414063 116.765625 L 245.375 116.96875 L 245.363281 117.175781 L 245.375 117.382813 L 245.414063 117.589844 L 245.476563 117.785156 L 245.566406 117.972656 L 245.675781 118.148438 L 245.808594 118.308594 L 245.960938 118.453125 L 246.128906 118.574219 L 246.3125 118.675781 L 246.503906 118.75 L 246.707031 118.804688 L 246.914063 118.828125 L 247.121094 118.828125 L 247.328125 118.804688 L 247.527344 118.75 L 247.722656 118.675781 L 247.902344 118.574219 L 248.070313 118.453125 L 248.222656 118.308594 L 248.355469 118.148438 L 248.46875 117.972656 L 248.554688 117.785156 L 248.621094 117.589844 L 248.660156 117.382813 L 248.671875 117.175781 Z M 248.660156 116.96875 "/>
<path style="fill-rule:nonzero;fill:rgb(87.45098%,32.54902%,41.960784%);fill-opacity:1;stroke-width:0.75;stroke-linecap:round;stroke-linejoin:round;stroke:rgb(0%,0%,0%);stroke-opacity:1;stroke-miterlimit:10;" d="M 212.164063 112.082031 L 212.125 111.878906 L 212.058594 111.679688 L 211.972656 111.492188 L 211.859375 111.316406 L 211.726563 111.15625 L 211.574219 111.015625 L 211.40625 110.890625 L 211.226563 110.792969 L 211.03125 110.714844 L 210.832031 110.664063 L 210.625 110.636719 L 210.417969 110.636719 L 210.210938 110.664063 L 210.007813 110.714844 L 209.816406 110.792969 L 209.632813 110.890625 L 209.464844 111.015625 L 209.3125 111.15625 L 209.179688 111.316406 L 209.070313 111.492188 L 208.980469 111.679688 L 208.917969 111.878906 L 208.878906 112.082031 L 208.863281 112.289063 L 208.878906 112.496094 L 208.917969 112.703125 L 208.980469 112.898438 L 209.070313 113.085938 L 209.179688 113.261719 L 209.3125 113.421875 L 209.464844 113.566406 L 209.632813 113.6875 L 209.816406 113.789063 L 210.007813 113.863281 L 210.210938 113.917969 L 210.417969 113.941406 L 210.625 113.941406 L 210.832031 113.917969 L 211.03125 113.863281 L 211.226563 113.789063 L 211.40625 113.6875 L 211.574219 113.566406 L 211.726563 113.421875 L 211.859375 113.261719 L 211.972656 113.085938 L 212.058594 112.898438 L 212.125 112.703125 L 212.164063 112.496094 L 212.175781 112.289063 Z M 212.164063 112.082031 "/>
<path style="fill-rule:nonzero;fill:rgb(87.45098%,32.54902%,41.960784%);fill-opacity:1;stroke-width:0.75;stroke-linecap:round;stroke-linejoin:round;stroke:rgb(0%,0%,0%);stroke-opacity:1;stroke-miterlimit:10;" d="M 194.5625 50.164063 L 194.523438 49.960938 L 194.460938 49.761719 L 194.371094 49.574219 L 194.261719 49.398438 L 194.128906 49.238281 L 193.976563 49.097656 L 193.808594 48.972656 L 193.625 48.875 L 193.433594 48.796875 L 193.230469 48.746094 L 193.027344 48.71875 L 192.816406 48.71875 L 192.613281 48.746094 L 192.410156 48.796875 L 192.21875 48.875 L 192.035156 48.972656 L 191.867188 49.097656 L 191.714844 49.238281 L 191.582031 49.398438 L 191.472656 49.574219 L 191.382813 49.761719 L 191.316406 49.960938 L 191.277344 50.164063 L 191.265625 50.371094 L 191.277344 50.578125 L 191.316406 50.785156 L 191.382813 50.980469 L 191.472656 51.167969 L 191.582031 51.34375 L 191.714844 51.503906 L 191.867188 51.648438 L 192.035156 51.769531 L 192.21875 51.871094 L 192.410156 51.945313 L 192.613281 51.996094 L 192.816406 52.023438 L 193.027344 52.023438 L 193.230469 51.996094 L 193.433594 51.945313 L 193.625 51.871094 L 193.808594 51.769531 L 193.976563 51.648438 L 194.128906 51.503906 L 194.261719 51.34375 L 194.371094 51.167969 L 194.460938 50.980469 L 194.523438 50.785156 L 194.5625 50.578125 L 194.578125 50.371094 Z M 194.5625 50.164063 "/>
<path style="fill-rule:nonzero;fill:rgb(87.45098%,32.54902%,41.960784%);fill-opacity:1;stroke-width:0.75;stroke-linecap:round;stroke-linejoin:round;stroke:rgb(0%,0%,0%);stroke-opacity:1;stroke-miterlimit:10;" d="M 203.761719 40.582031 L 203.722656 40.375 L 203.65625 40.179688 L 203.566406 39.992188 L 203.457031 39.816406 L 203.324219 39.65625 L 203.171875 39.511719 L 203.003906 39.390625 L 202.824219 39.289063 L 202.628906 39.214844 L 202.425781 39.160156 L 202.222656 39.136719 L 202.011719 39.136719 L 201.808594 39.160156 L 201.605469 39.214844 L 201.414063 39.289063 L 201.230469 39.390625 L 201.0625 39.511719 L 200.910156 39.65625 L 200.777344 39.816406 L 200.667969 39.992188 L 200.578125 40.179688 L 200.515625 40.375 L 200.476563 40.582031 L 200.460938 40.789063 L 200.476563 40.996094 L 200.515625 41.199219 L 200.578125 41.398438 L 200.667969 41.585938 L 200.777344 41.761719 L 200.910156 41.921875 L 201.0625 42.0625 L 201.230469 42.1875 L 201.414063 42.285156 L 201.605469 42.363281 L 201.808594 42.414063 L 202.011719 42.441406 L 202.222656 42.441406 L 202.425781 42.414063 L 202.628906 42.363281 L 202.824219 42.285156 L 203.003906 42.1875 L 203.171875 42.0625 L 203.324219 41.921875 L 203.457031 41.761719 L 203.566406 41.585938 L 203.65625 41.398438 L 203.722656 41.199219 L 203.761719 40.996094 L 203.773438 40.789063 Z M 203.761719 40.582031 "/>
<path style="fill-rule:nonzero;fill:rgb(87.45098%,32.54902%,41.960784%);fill-opacity:1;stroke-width:0.75;stroke-linecap:round;stroke-linejoin:round;stroke:rgb(0%,0%,0%);stroke-opacity:1;stroke-miterlimit:10;" d="M 217.625 39.726563 L 217.585938 39.519531 L 217.523438 39.324219 L 217.433594 39.136719 L 217.324219 38.960938 L 217.191406 38.800781 L 217.039063 38.65625 L 216.871094 38.535156 L 216.6875 38.433594 L 216.496094 38.359375 L 216.292969 38.304688 L 216.085938 38.28125 L 215.878906 38.28125 L 215.671875 38.304688 L 215.472656 38.359375 L 215.277344 38.433594 L 215.097656 38.535156 L 214.929688 38.65625 L 214.777344 38.800781 L 214.644531 38.960938 L 214.53125 39.136719 L 214.445313 39.324219 L 214.378906 39.519531 L 214.339844 39.726563 L 214.328125 39.933594 L 214.339844 40.140625 L 214.378906 40.34375 L 214.445313 40.542969 L 214.53125 40.730469 L 214.644531 40.90625 L 214.777344 41.066406 L 214.929688 41.207031 L 215.097656 41.332031 L 215.277344 41.429688 L 215.472656 41.507813 L 215.671875 41.558594 L 215.878906 41.585938 L 216.085938 41.585938 L 216.292969 41.558594 L 216.496094 41.507813 L 216.6875 41.429688 L 216.871094 41.332031 L 217.039063 41.207031 L 217.191406 41.066406 L 217.324219 40.90625 L 217.433594 40.730469 L 217.523438 40.542969 L 217.585938 40.34375 L 217.625 40.140625 L 217.640625 39.933594 Z M 217.625 39.726563 "/>
<path style="fill-rule:nonzero;fill:rgb(87.45098%,32.54902%,41.960784%);fill-opacity:1;stroke-width:0.75;stroke-linecap:round;stroke-linejoin:round;stroke:rgb(0%,0%,0%);stroke-opacity:1;stroke-miterlimit:10;" d="M 210.757813 121.441406 L 210.71875 121.238281 L 210.65625 121.039063 L 210.566406 120.851563 L 210.457031 120.675781 L 210.324219 120.515625 L 210.171875 120.375 L 210.003906 120.253906 L 209.820313 120.152344 L 209.628906 120.074219 L 209.425781 120.023438 L 209.21875 119.996094 L 209.011719 119.996094 L 208.804688 120.023438 L 208.605469 120.074219 L 208.410156 120.152344 L 208.230469 120.253906 L 208.058594 120.375 L 207.910156 120.515625 L 207.777344 120.675781 L 207.664063 120.851563 L 207.578125 121.039063 L 207.511719 121.238281 L 207.472656 121.441406 L 207.460938 121.648438 L 207.472656 121.859375 L 207.511719 122.0625 L 207.578125 122.257813 L 207.664063 122.449219 L 207.777344 122.625 L 207.910156 122.785156 L 208.058594 122.925781 L 208.230469 123.046875 L 208.410156 123.148438 L 208.605469 123.226563 L 208.804688 123.277344 L 209.011719 123.300781 L 209.21875 123.300781 L 209.425781 123.277344 L 209.628906 123.226563 L 209.820313 123.148438 L 210.003906 123.046875 L 210.171875 122.925781 L 210.324219 122.785156 L 210.457031 122.625 L 210.566406 122.449219 L 210.65625 122.257813 L 210.71875 122.0625 L 210.757813 121.859375 L 210.769531 121.648438 Z M 210.757813 121.441406 "/>
<path style="fill-rule:nonzero;fill:rgb(87.45098%,32.54902%,41.960784%);fill-opacity:1;stroke-width:0.75;stroke-linecap:round;stroke-linejoin:round;stroke:rgb(0%,0%,0%);stroke-opacity:1;stroke-miterlimit:10;" d="M 263.617188 89.722656 L 263.578125 89.515625 L 263.511719 89.320313 L 263.425781 89.128906 L 263.3125 88.957031 L 263.179688 88.796875 L 263.027344 88.652344 L 262.859375 88.53125 L 262.679688 88.429688 L 262.484375 88.355469 L 262.285156 88.300781 L 262.078125 88.277344 L 261.871094 88.277344 L 261.664063 88.300781 L 261.460938 88.355469 L 261.269531 88.429688 L 261.085938 88.53125 L 260.917969 88.652344 L 260.765625 88.796875 L 260.632813 88.957031 L 260.523438 89.128906 L 260.433594 89.320313 L 260.371094 89.515625 L 260.332031 89.722656 L 260.316406 89.929688 L 260.332031 90.136719 L 260.371094 90.339844 L 260.433594 90.539063 L 260.523438 90.726563 L 260.632813 90.902344 L 260.765625 91.0625 L 260.917969 91.203125 L 261.085938 91.324219 L 261.269531 91.425781 L 261.460938 91.503906 L 261.664063 91.554688 L 261.871094 91.582031 L 262.078125 91.582031 L 262.285156 91.554688 L 262.484375 91.503906 L 262.679688 91.425781 L 262.859375 91.324219 L 263.027344 91.203125 L 263.179688 91.0625 L 263.3125 90.902344 L 263.425781 90.726563 L 263.511719 90.539063 L 263.578125 90.339844 L 263.617188 90.136719 L 263.628906 89.929688 Z M 263.617188 89.722656 "/>
<path style="fill-rule:nonzero;fill:rgb(87.45098%,32.54902%,41.960784%);fill-opacity:1;stroke-width:0.75;stroke-linecap:round;stroke-linejoin:round;stroke:rgb(0%,0%,0%);stroke-opacity:1;stroke-miterlimit:10;" d="M 284.1875 135.183594 L 284.148438 134.980469 L 284.085938 134.78125 L 283.996094 134.59375 L 283.886719 134.417969 L 283.753906 134.257813 L 283.601563 134.117188 L 283.433594 133.992188 L 283.25 133.894531 L 283.058594 133.816406 L 282.855469 133.765625 L 282.648438 133.738281 L 282.441406 133.738281 L 282.234375 133.765625 L 282.035156 133.816406 L 281.839844 133.894531 L 281.660156 133.992188 L 281.492188 134.117188 L 281.339844 134.257813 L 281.207031 134.417969 L 281.09375 134.59375 L 281.007813 134.78125 L 280.941406 134.980469 L 280.902344 135.183594 L 280.890625 135.390625 L 280.902344 135.597656 L 280.941406 135.804688 L 281.007813 136 L 281.09375 136.1875 L 281.207031 136.363281 L 281.339844 136.523438 L 281.492188 136.667969 L 281.660156 136.789063 L 281.839844 136.890625 L 282.035156 136.964844 L 282.234375 137.015625 L 282.441406 137.042969 L 282.648438 137.042969 L 282.855469 137.015625 L 283.058594 136.964844 L 283.25 136.890625 L 283.433594 136.789063 L 283.601563 136.667969 L 283.753906 136.523438 L 283.886719 136.363281 L 283.996094 136.1875 L 284.085938 136 L 284.148438 135.804688 L 284.1875 135.597656 L 284.203125 135.390625 Z M 284.1875 135.183594 "/>
<path style="fill-rule:nonzero;fill:rgb(87.45098%,32.54902%,41.960784%);fill-opacity:1;stroke-width:0.75;stroke-linecap:round;stroke-linejoin:round;stroke:rgb(0%,0%,0%);stroke-opacity:1;stroke-miterlimit:10;" d="M 183.035156 57.996094 L 182.996094 57.792969 L 182.933594 57.59375 L 182.84375 57.40625 L 182.730469 57.230469 L 182.601563 57.070313 L 182.449219 56.929688 L 182.28125 56.804688 L 182.097656 56.707031 L 181.90625 56.628906 L 181.703125 56.578125 L 181.496094 56.550781 L 181.289063 56.550781 L 181.082031 56.578125 L 180.882813 56.628906 L 180.6875 56.707031 L 180.507813 56.804688 L 180.335938 56.929688 L 180.1875 57.070313 L 180.054688 57.230469 L 179.941406 57.40625 L 179.855469 57.59375 L 179.789063 57.792969 L 179.75 57.996094 L 179.738281 58.203125 L 179.75 58.410156 L 179.789063 58.617188 L 179.855469 58.8125 L 179.941406 59 L 180.054688 59.175781 L 180.1875 59.335938 L 180.335938 59.480469 L 180.507813 59.601563 L 180.6875 59.703125 L 180.882813 59.777344 L 181.082031 59.828125 L 181.289063 59.855469 L 181.496094 59.855469 L 181.703125 59.828125 L 181.90625 59.777344 L 182.097656 59.703125 L 182.28125 59.601563 L 182.449219 59.480469 L 182.601563 59.335938 L 182.730469 59.175781 L 182.84375 59 L 182.933594 58.8125 L 182.996094 58.617188 L 183.035156 58.410156 L 183.046875 58.203125 Z M 183.035156 57.996094 "/>
<path style="fill-rule:nonzero;fill:rgb(87.45098%,32.54902%,41.960784%);fill-opacity:1;stroke-width:0.75;stroke-linecap:round;stroke-linejoin:round;stroke:rgb(0%,0%,0%);stroke-opacity:1;stroke-miterlimit:10;" d="M 172.554688 89.671875 L 172.515625 89.464844 L 172.453125 89.269531 L 172.363281 89.082031 L 172.25 88.90625 L 172.121094 88.746094 L 171.96875 88.601563 L 171.800781 88.480469 L 171.617188 88.378906 L 171.425781 88.304688 L 171.222656 88.25 L 171.015625 88.226563 L 170.808594 88.226563 L 170.601563 88.25 L 170.402344 88.304688 L 170.207031 88.378906 L 170.023438 88.480469 L 169.855469 88.601563 L 169.707031 88.746094 L 169.574219 88.90625 L 169.460938 89.082031 L 169.375 89.269531 L 169.308594 89.464844 L 169.269531 89.671875 L 169.257813 89.878906 L 169.269531 90.085938 L 169.308594 90.289063 L 169.375 90.488281 L 169.460938 90.675781 L 169.574219 90.851563 L 169.707031 91.011719 L 169.855469 91.152344 L 170.023438 91.277344 L 170.207031 91.375 L 170.402344 91.453125 L 170.601563 91.503906 L 170.808594 91.53125 L 171.015625 91.53125 L 171.222656 91.503906 L 171.425781 91.453125 L 171.617188 91.375 L 171.800781 91.277344 L 171.96875 91.152344 L 172.121094 91.011719 L 172.25 90.851563 L 172.363281 90.675781 L 172.453125 90.488281 L 172.515625 90.289063 L 172.554688 90.085938 L 172.566406 89.878906 Z M 172.554688 89.671875 "/>
<path style="fill-rule:nonzero;fill:rgb(87.45098%,32.54902%,41.960784%);fill-opacity:1;stroke-width:0.75;stroke-linecap:round;stroke-linejoin:round;stroke:rgb(0%,0%,0%);stroke-opacity:1;stroke-miterlimit:10;" d="M 183.210938 112.007813 L 183.171875 111.804688 L 183.105469 111.605469 L 183.019531 111.417969 L 182.90625 111.242188 L 182.773438 111.082031 L 182.621094 110.941406 L 182.453125 110.816406 L 182.273438 110.71875 L 182.078125 110.640625 L 181.878906 110.589844 L 181.671875 110.5625 L 181.464844 110.5625 L 181.257813 110.589844 L 181.054688 110.640625 L 180.863281 110.71875 L 180.679688 110.816406 L 180.511719 110.941406 L 180.359375 111.082031 L 180.226563 111.242188 L 180.117188 111.417969 L 180.027344 111.605469 L 179.964844 111.804688 L 179.925781 112.007813 L 179.910156 112.214844 L 179.925781 112.421875 L 179.964844 112.628906 L 180.027344 112.824219 L 180.117188 113.011719 L 180.226563 113.1875 L 180.359375 113.347656 L 180.511719 113.492188 L 180.679688 113.613281 L 180.863281 113.714844 L 181.054688 113.789063 L 181.257813 113.839844 L 181.464844 113.867188 L 181.671875 113.867188 L 181.878906 113.839844 L 182.078125 113.789063 L 182.273438 113.714844 L 182.453125 113.613281 L 182.621094 113.492188 L 182.773438 113.347656 L 182.90625 113.1875 L 183.019531 113.011719 L 183.105469 112.824219 L 183.171875 112.628906 L 183.210938 112.421875 L 183.222656 112.214844 Z M 183.210938 112.007813 "/>
<path style="fill-rule:nonzero;fill:rgb(87.45098%,32.54902%,41.960784%);fill-opacity:1;stroke-width:0.75;stroke-linecap:round;stroke-linejoin:round;stroke:rgb(0%,0%,0%);stroke-opacity:1;stroke-miterlimit:10;" d="M 245.15625 103.917969 L 245.117188 103.714844 L 245.054688 103.515625 L 244.964844 103.328125 L 244.855469 103.152344 L 244.722656 102.992188 L 244.570313 102.851563 L 244.402344 102.730469 L 244.21875 102.628906 L 244.027344 102.550781 L 243.824219 102.5 L 243.617188 102.472656 L 243.410156 102.472656 L 243.203125 102.5 L 243.003906 102.550781 L 242.808594 102.628906 L 242.628906 102.730469 L 242.460938 102.851563 L 242.308594 102.992188 L 242.175781 103.152344 L 242.0625 103.328125 L 241.976563 103.515625 L 241.910156 103.714844 L 241.871094 103.917969 L 241.859375 104.125 L 241.871094 104.335938 L 241.910156 104.539063 L 241.976563 104.734375 L 242.0625 104.925781 L 242.175781 105.101563 L 242.308594 105.261719 L 242.460938 105.402344 L 242.628906 105.523438 L 242.808594 105.625 L 243.003906 105.699219 L 243.203125 105.753906 L 243.410156 105.777344 L 243.617188 105.777344 L 243.824219 105.753906 L 244.027344 105.699219 L 244.21875 105.625 L 244.402344 105.523438 L 244.570313 105.402344 L 244.722656 105.261719 L 244.855469 105.101563 L 244.964844 104.925781 L 245.054688 104.734375 L 245.117188 104.539063 L 245.15625 104.335938 L 245.171875 104.125 Z M 245.15625 103.917969 "/>
<path style="fill-rule:nonzero;fill:rgb(87.45098%,32.54902%,41.960784%);fill-opacity:1;stroke-width:0.75;stroke-linecap:round;stroke-linejoin:round;stroke:rgb(0%,0%,0%);stroke-opacity:1;stroke-miterlimit:10;" d="M 331.011719 101.300781 L 330.972656 101.09375 L 330.910156 100.898438 L 330.820313 100.710938 L 330.710938 100.535156 L 330.578125 100.375 L 330.425781 100.230469 L 330.257813 100.109375 L 330.074219 100.007813 L 329.882813 99.933594 L 329.679688 99.878906 L 329.472656 99.855469 L 329.265625 99.855469 L 329.058594 99.878906 L 328.859375 99.933594 L 328.664063 100.007813 L 328.484375 100.109375 L 328.316406 100.230469 L 328.164063 100.375 L 328.03125 100.535156 L 327.917969 100.710938 L 327.832031 100.898438 L 327.765625 101.09375 L 327.726563 101.300781 L 327.714844 101.507813 L 327.726563 101.714844 L 327.765625 101.917969 L 327.832031 102.117188 L 327.917969 102.304688 L 328.03125 102.480469 L 328.164063 102.640625 L 328.316406 102.78125 L 328.484375 102.90625 L 328.664063 103.003906 L 328.859375 103.082031 L 329.058594 103.132813 L 329.265625 103.160156 L 329.472656 103.160156 L 329.679688 103.132813 L 329.882813 103.082031 L 330.074219 103.003906 L 330.257813 102.90625 L 330.425781 102.78125 L 330.578125 102.640625 L 330.710938 102.480469 L 330.820313 102.304688 L 330.910156 102.117188 L 330.972656 101.917969 L 331.011719 101.714844 L 331.027344 101.507813 Z M 331.011719 101.300781 "/>
<path style="fill-rule:nonzero;fill:rgb(87.45098%,32.54902%,41.960784%);fill-opacity:1;stroke-width:0.75;stroke-linecap:round;stroke-linejoin:round;stroke:rgb(0%,0%,0%);stroke-opacity:1;stroke-miterlimit:10;" d="M 331.398438 112.96875 L 331.359375 112.765625 L 331.296875 112.566406 L 331.207031 112.378906 L 331.097656 112.203125 L 330.964844 112.042969 L 330.8125 111.902344 L 330.644531 111.777344 L 330.460938 111.679688 L 330.269531 111.601563 L 330.066406 111.550781 L 329.859375 111.523438 L 329.652344 111.523438 L 329.445313 111.550781 L 329.246094 111.601563 L 329.050781 111.679688 L 328.871094 111.777344 L 328.703125 111.902344 L 328.550781 112.042969 L 328.417969 112.203125 L 328.304688 112.378906 L 328.21875 112.566406 L 328.152344 112.765625 L 328.113281 112.96875 L 328.101563 113.175781 L 328.113281 113.382813 L 328.152344 113.589844 L 328.21875 113.785156 L 328.304688 113.972656 L 328.417969 114.148438 L 328.550781 114.308594 L 328.703125 114.453125 L 328.871094 114.574219 L 329.050781 114.675781 L 329.246094 114.75 L 329.445313 114.800781 L 329.652344 114.828125 L 329.859375 114.828125 L 330.066406 114.800781 L 330.269531 114.75 L 330.460938 114.675781 L 330.644531 114.574219 L 330.8125 114.453125 L 330.964844 114.308594 L 331.097656 114.148438 L 331.207031 113.972656 L 331.296875 113.785156 L 331.359375 113.589844 L 331.398438 113.382813 L 331.414063 113.175781 Z M 331.398438 112.96875 "/>
<path style="fill-rule:nonzero;fill:rgb(87.45098%,32.54902%,41.960784%);fill-opacity:1;stroke-width:0.75;stroke-linecap:round;stroke-linejoin:round;stroke:rgb(0%,0%,0%);stroke-opacity:1;stroke-miterlimit:10;" d="M 213.800781 9.972656 L 213.761719 9.769531 L 213.695313 9.570313 L 213.609375 9.382813 L 213.496094 9.207031 L 213.363281 9.046875 L 213.210938 8.90625 L 213.042969 8.78125 L 212.863281 8.683594 L 212.667969 8.605469 L 212.46875 8.554688 L 212.261719 8.527344 L 212.054688 8.527344 L 211.847656 8.554688 L 211.644531 8.605469 L 211.453125 8.683594 L 211.269531 8.78125 L 211.101563 8.90625 L 210.949219 9.046875 L 210.816406 9.207031 L 210.707031 9.382813 L 210.617188 9.570313 L 210.554688 9.769531 L 210.515625 9.972656 L 210.5 10.179688 L 210.515625 10.386719 L 210.554688 10.59375 L 210.617188 10.789063 L 210.707031 10.976563 L 210.816406 11.152344 L 210.949219 11.3125 L 211.101563 11.457031 L 211.269531 11.578125 L 211.453125 11.679688 L 211.644531 11.753906 L 211.847656 11.804688 L 212.054688 11.832031 L 212.261719 11.832031 L 212.46875 11.804688 L 212.667969 11.753906 L 212.863281 11.679688 L 213.042969 11.578125 L 213.210938 11.457031 L 213.363281 11.3125 L 213.496094 11.152344 L 213.609375 10.976563 L 213.695313 10.789063 L 213.761719 10.59375 L 213.800781 10.386719 L 213.8125 10.179688 Z M 213.800781 9.972656 "/>
<path style="fill-rule:nonzero;fill:rgb(87.45098%,32.54902%,41.960784%);fill-opacity:1;stroke-width:0.75;stroke-linecap:round;stroke-linejoin:round;stroke:rgb(0%,0%,0%);stroke-opacity:1;stroke-miterlimit:10;" d="M 193.554688 72.851563 L 193.515625 72.648438 L 193.449219 72.449219 L 193.359375 72.261719 L 193.25 72.085938 L 193.117188 71.925781 L 192.964844 71.785156 L 192.796875 71.664063 L 192.613281 71.5625 L 192.421875 71.484375 L 192.21875 71.433594 L 192.015625 71.40625 L 191.804688 71.40625 L 191.601563 71.433594 L 191.398438 71.484375 L 191.207031 71.5625 L 191.023438 71.664063 L 190.855469 71.785156 L 190.703125 71.925781 L 190.570313 72.085938 L 190.460938 72.261719 L 190.371094 72.449219 L 190.308594 72.648438 L 190.269531 72.851563 L 190.253906 73.058594 L 190.269531 73.269531 L 190.308594 73.472656 L 190.371094 73.667969 L 190.460938 73.859375 L 190.570313 74.035156 L 190.703125 74.195313 L 190.855469 74.335938 L 191.023438 74.457031 L 191.207031 74.558594 L 191.398438 74.632813 L 191.601563 74.6875 L 191.804688 74.710938 L 192.015625 74.710938 L 192.21875 74.6875 L 192.421875 74.632813 L 192.613281 74.558594 L 192.796875 74.457031 L 192.964844 74.335938 L 193.117188 74.195313 L 193.25 74.035156 L 193.359375 73.859375 L 193.449219 73.667969 L 193.515625 73.472656 L 193.554688 73.269531 L 193.566406 73.058594 Z M 193.554688 72.851563 "/>
<path style="fill-rule:nonzero;fill:rgb(87.45098%,32.54902%,41.960784%);fill-opacity:1;stroke-width:0.75;stroke-linecap:round;stroke-linejoin:round;stroke:rgb(0%,0%,0%);stroke-opacity:1;stroke-miterlimit:10;" d="M 310.679688 72.027344 L 310.640625 71.820313 L 310.578125 71.625 L 310.488281 71.4375 L 310.378906 71.261719 L 310.246094 71.101563 L 310.09375 70.957031 L 309.925781 70.835938 L 309.742188 70.734375 L 309.550781 70.660156 L 309.347656 70.605469 L 309.140625 70.582031 L 308.933594 70.582031 L 308.726563 70.605469 L 308.527344 70.660156 L 308.332031 70.734375 L 308.152344 70.835938 L 307.984375 70.957031 L 307.832031 71.101563 L 307.699219 71.261719 L 307.585938 71.4375 L 307.5 71.625 L 307.433594 71.820313 L 307.394531 72.027344 L 307.382813 72.234375 L 307.394531 72.441406 L 307.433594 72.644531 L 307.5 72.84375 L 307.585938 73.03125 L 307.699219 73.207031 L 307.832031 73.367188 L 307.984375 73.507813 L 308.152344 73.632813 L 308.332031 73.730469 L 308.527344 73.808594 L 308.726563 73.859375 L 308.933594 73.886719 L 309.140625 73.886719 L 309.347656 73.859375 L 309.550781 73.808594 L 309.742188 73.730469 L 309.925781 73.632813 L 310.09375 73.507813 L 310.246094 73.367188 L 310.378906 73.207031 L 310.488281 73.03125 L 310.578125 72.84375 L 310.640625 72.644531 L 310.679688 72.441406 L 310.695313 72.234375 Z M 310.679688 72.027344 "/>
<path style="fill-rule:nonzero;fill:rgb(87.45098%,32.54902%,41.960784%);fill-opacity:1;stroke-width:0.75;stroke-linecap:round;stroke-linejoin:round;stroke:rgb(0%,0%,0%);stroke-opacity:1;stroke-miterlimit:10;" d="M 257.253906 75.058594 L 257.214844 74.851563 L 257.148438 74.65625 L 257.0625 74.46875 L 256.949219 74.292969 L 256.816406 74.132813 L 256.664063 73.988281 L 256.496094 73.867188 L 256.316406 73.765625 L 256.121094 73.691406 L 255.921875 73.640625 L 255.714844 73.613281 L 255.507813 73.613281 L 255.300781 73.640625 L 255.097656 73.691406 L 254.90625 73.765625 L 254.722656 73.867188 L 254.554688 73.988281 L 254.402344 74.132813 L 254.269531 74.292969 L 254.160156 74.46875 L 254.070313 74.65625 L 254.007813 74.851563 L 253.96875 75.058594 L 253.953125 75.265625 L 253.96875 75.472656 L 254.007813 75.675781 L 254.070313 75.875 L 254.160156 76.0625 L 254.269531 76.238281 L 254.402344 76.398438 L 254.554688 76.539063 L 254.722656 76.664063 L 254.90625 76.761719 L 255.097656 76.839844 L 255.300781 76.890625 L 255.507813 76.917969 L 255.714844 76.917969 L 255.921875 76.890625 L 256.121094 76.839844 L 256.316406 76.761719 L 256.496094 76.664063 L 256.664063 76.539063 L 256.816406 76.398438 L 256.949219 76.238281 L 257.0625 76.0625 L 257.148438 75.875 L 257.214844 75.675781 L 257.253906 75.472656 L 257.265625 75.265625 Z M 257.253906 75.058594 "/>
<path style="fill-rule:nonzero;fill:rgb(87.45098%,32.54902%,41.960784%);fill-opacity:1;stroke-width:0.75;stroke-linecap:round;stroke-linejoin:round;stroke:rgb(0%,0%,0%);stroke-opacity:1;stroke-miterlimit:10;" d="M 322.746094 80.011719 L 322.707031 79.808594 L 322.644531 79.609375 L 322.554688 79.421875 L 322.441406 79.246094 L 322.308594 79.085938 L 322.160156 78.941406 L 321.992188 78.820313 L 321.808594 78.722656 L 321.613281 78.644531 L 321.414063 78.59375 L 321.207031 78.566406 L 321 78.566406 L 320.792969 78.59375 L 320.59375 78.644531 L 320.398438 78.722656 L 320.214844 78.820313 L 320.046875 78.941406 L 319.898438 79.085938 L 319.765625 79.246094 L 319.652344 79.421875 L 319.5625 79.609375 L 319.5 79.808594 L 319.460938 80.011719 L 319.449219 80.21875 L 319.460938 80.425781 L 319.5 80.628906 L 319.5625 80.828125 L 319.652344 81.015625 L 319.765625 81.191406 L 319.898438 81.351563 L 320.046875 81.496094 L 320.214844 81.617188 L 320.398438 81.71875 L 320.59375 81.792969 L 320.792969 81.84375 L 321 81.871094 L 321.207031 81.871094 L 321.414063 81.84375 L 321.613281 81.792969 L 321.808594 81.71875 L 321.992188 81.617188 L 322.160156 81.496094 L 322.308594 81.351563 L 322.441406 81.191406 L 322.554688 81.015625 L 322.644531 80.828125 L 322.707031 80.628906 L 322.746094 80.425781 L 322.757813 80.21875 Z M 322.746094 80.011719 "/>
<path style="fill-rule:nonzero;fill:rgb(87.45098%,32.54902%,41.960784%);fill-opacity:1;stroke-width:0.75;stroke-linecap:round;stroke-linejoin:round;stroke:rgb(0%,0%,0%);stroke-opacity:1;stroke-miterlimit:10;" d="M 188.25 90.785156 L 188.210938 90.578125 L 188.144531 90.382813 L 188.058594 90.191406 L 187.945313 90.019531 L 187.8125 89.859375 L 187.664063 89.714844 L 187.492188 89.59375 L 187.3125 89.492188 L 187.117188 89.417969 L 186.917969 89.363281 L 186.710938 89.339844 L 186.503906 89.339844 L 186.296875 89.363281 L 186.09375 89.417969 L 185.902344 89.492188 L 185.71875 89.59375 L 185.550781 89.714844 L 185.398438 89.859375 L 185.269531 90.019531 L 185.15625 90.191406 L 185.066406 90.382813 L 185.003906 90.578125 L 184.964844 90.785156 L 184.953125 90.992188 L 184.964844 91.199219 L 185.003906 91.402344 L 185.066406 91.601563 L 185.15625 91.789063 L 185.269531 91.964844 L 185.398438 92.125 L 185.550781 92.265625 L 185.71875 92.386719 L 185.902344 92.488281 L 186.09375 92.566406 L 186.296875 92.617188 L 186.503906 92.644531 L 186.710938 92.644531 L 186.917969 92.617188 L 187.117188 92.566406 L 187.3125 92.488281 L 187.492188 92.386719 L 187.664063 92.265625 L 187.8125 92.125 L 187.945313 91.964844 L 188.058594 91.789063 L 188.144531 91.601563 L 188.210938 91.402344 L 188.25 91.199219 L 188.261719 90.992188 Z M 188.25 90.785156 "/>
<path style="fill-rule:nonzero;fill:rgb(87.45098%,32.54902%,41.960784%);fill-opacity:1;stroke-width:0.75;stroke-linecap:round;stroke-linejoin:round;stroke:rgb(0%,0%,0%);stroke-opacity:1;stroke-miterlimit:10;" d="M 328.585938 89.554688 L 328.546875 89.351563 L 328.484375 89.152344 L 328.394531 88.964844 L 328.285156 88.789063 L 328.152344 88.628906 L 328 88.488281 L 327.832031 88.367188 L 327.648438 88.265625 L 327.457031 88.1875 L 327.253906 88.136719 L 327.046875 88.109375 L 326.839844 88.109375 L 326.632813 88.136719 L 326.433594 88.1875 L 326.238281 88.265625 L 326.058594 88.367188 L 325.890625 88.488281 L 325.738281 88.628906 L 325.605469 88.789063 L 325.492188 88.964844 L 325.40625 89.152344 L 325.339844 89.351563 L 325.300781 89.554688 L 325.289063 89.761719 L 325.300781 89.972656 L 325.339844 90.175781 L 325.40625 90.371094 L 325.492188 90.5625 L 325.605469 90.738281 L 325.738281 90.898438 L 325.890625 91.039063 L 326.058594 91.160156 L 326.238281 91.261719 L 326.433594 91.335938 L 326.632813 91.390625 L 326.839844 91.414063 L 327.046875 91.414063 L 327.253906 91.390625 L 327.457031 91.335938 L 327.648438 91.261719 L 327.832031 91.160156 L 328 91.039063 L 328.152344 90.898438 L 328.285156 90.738281 L 328.394531 90.5625 L 328.484375 90.371094 L 328.546875 90.175781 L 328.585938 89.972656 L 328.601563 89.761719 Z M 328.585938 89.554688 "/>
<path style="fill-rule:nonzero;fill:rgb(87.45098%,32.54902%,41.960784%);fill-opacity:1;stroke-width:0.75;stroke-linecap:round;stroke-linejoin:round;stroke:rgb(0%,0%,0%);stroke-opacity:1;stroke-miterlimit:10;" d="M 303.308594 143.941406 L 303.269531 143.738281 L 303.203125 143.539063 L 303.113281 143.351563 L 303.003906 143.175781 L 302.871094 143.015625 L 302.71875 142.875 L 302.550781 142.75 L 302.371094 142.652344 L 302.175781 142.574219 L 301.972656 142.523438 L 301.769531 142.496094 L 301.558594 142.496094 L 301.355469 142.523438 L 301.152344 142.574219 L 300.960938 142.652344 L 300.777344 142.75 L 300.609375 142.875 L 300.457031 143.015625 L 300.324219 143.175781 L 300.214844 143.351563 L 300.125 143.539063 L 300.0625 143.738281 L 300.023438 143.941406 L 300.007813 144.148438 L 300.023438 144.355469 L 300.0625 144.5625 L 300.125 144.757813 L 300.214844 144.945313 L 300.324219 145.121094 L 300.457031 145.28125 L 300.609375 145.425781 L 300.777344 145.546875 L 300.960938 145.648438 L 301.152344 145.722656 L 301.355469 145.773438 L 301.558594 145.800781 L 301.769531 145.800781 L 301.972656 145.773438 L 302.175781 145.722656 L 302.371094 145.648438 L 302.550781 145.546875 L 302.71875 145.425781 L 302.871094 145.28125 L 303.003906 145.121094 L 303.113281 144.945313 L 303.203125 144.757813 L 303.269531 144.5625 L 303.308594 144.355469 L 303.320313 144.148438 Z M 303.308594 143.941406 "/>
<path style="fill-rule:nonzero;fill:rgb(87.45098%,32.54902%,41.960784%);fill-opacity:1;stroke-width:0.75;stroke-linecap:round;stroke-linejoin:round;stroke:rgb(0%,0%,0%);stroke-opacity:1;stroke-miterlimit:10;" d="M 253.257813 169.613281 L 253.21875 169.40625 L 253.15625 169.210938 L 253.066406 169.023438 L 252.957031 168.847656 L 252.824219 168.6875 L 252.671875 168.542969 L 252.503906 168.421875 L 252.320313 168.320313 L 252.128906 168.246094 L 251.925781 168.195313 L 251.722656 168.167969 L 251.511719 168.167969 L 251.304688 168.195313 L 251.105469 168.246094 L 250.910156 168.320313 L 250.730469 168.421875 L 250.5625 168.542969 L 250.410156 168.6875 L 250.277344 168.847656 L 250.167969 169.023438 L 250.078125 169.210938 L 250.011719 169.40625 L 249.972656 169.613281 L 249.960938 169.820313 L 249.972656 170.027344 L 250.011719 170.230469 L 250.078125 170.429688 L 250.167969 170.617188 L 250.277344 170.792969 L 250.410156 170.953125 L 250.5625 171.09375 L 250.730469 171.21875 L 250.910156 171.316406 L 251.105469 171.394531 L 251.304688 171.445313 L 251.511719 171.472656 L 251.722656 171.472656 L 251.925781 171.445313 L 252.128906 171.394531 L 252.320313 171.316406 L 252.503906 171.21875 L 252.671875 171.09375 L 252.824219 170.953125 L 252.957031 170.792969 L 253.066406 170.617188 L 253.15625 170.429688 L 253.21875 170.230469 L 253.257813 170.027344 L 253.273438 169.820313 Z M 253.257813 169.613281 "/>
<path style="fill-rule:nonzero;fill:rgb(87.45098%,32.54902%,41.960784%);fill-opacity:1;stroke-width:0.75;stroke-linecap:round;stroke-linejoin:round;stroke:rgb(0%,0%,0%);stroke-opacity:1;stroke-miterlimit:10;" d="M 276.464844 167.691406 L 276.425781 167.488281 L 276.363281 167.289063 L 276.273438 167.101563 L 276.164063 166.925781 L 276.03125 166.765625 L 275.878906 166.625 L 275.710938 166.5 L 275.527344 166.402344 L 275.335938 166.324219 L 275.132813 166.273438 L 274.925781 166.246094 L 274.71875 166.246094 L 274.511719 166.273438 L 274.3125 166.324219 L 274.117188 166.402344 L 273.9375 166.5 L 273.769531 166.625 L 273.617188 166.765625 L 273.484375 166.925781 L 273.371094 167.101563 L 273.285156 167.289063 L 273.21875 167.488281 L 273.179688 167.691406 L 273.167969 167.898438 L 273.179688 168.105469 L 273.21875 168.3125 L 273.285156 168.507813 L 273.371094 168.695313 L 273.484375 168.871094 L 273.617188 169.03125 L 273.769531 169.175781 L 273.9375 169.296875 L 274.117188 169.398438 L 274.3125 169.472656 L 274.511719 169.523438 L 274.71875 169.550781 L 274.925781 169.550781 L 275.132813 169.523438 L 275.335938 169.472656 L 275.527344 169.398438 L 275.710938 169.296875 L 275.878906 169.175781 L 276.03125 169.03125 L 276.164063 168.871094 L 276.273438 168.695313 L 276.363281 168.507813 L 276.425781 168.3125 L 276.464844 168.105469 L 276.480469 167.898438 Z M 276.464844 167.691406 "/>
<path style="fill-rule:nonzero;fill:rgb(87.45098%,32.54902%,41.960784%);fill-opacity:1;stroke-width:0.75;stroke-linecap:round;stroke-linejoin:round;stroke:rgb(0%,0%,0%);stroke-opacity:1;stroke-miterlimit:10;" d="M 334.730469 129.070313 L 334.691406 128.867188 L 334.625 128.667969 L 334.539063 128.480469 L 334.425781 128.304688 L 334.292969 128.144531 L 334.144531 128.003906 L 333.976563 127.878906 L 333.792969 127.78125 L 333.597656 127.703125 L 333.398438 127.652344 L 333.191406 127.625 L 332.984375 127.625 L 332.777344 127.652344 L 332.574219 127.703125 L 332.382813 127.78125 L 332.199219 127.878906 L 332.03125 128.003906 L 331.878906 128.144531 L 331.75 128.304688 L 331.636719 128.480469 L 331.546875 128.667969 L 331.484375 128.867188 L 331.445313 129.070313 L 331.433594 129.277344 L 331.445313 129.484375 L 331.484375 129.691406 L 331.546875 129.886719 L 331.636719 130.074219 L 331.75 130.25 L 331.878906 130.410156 L 332.03125 130.554688 L 332.199219 130.675781 L 332.382813 130.777344 L 332.574219 130.851563 L 332.777344 130.90625 L 332.984375 130.929688 L 333.191406 130.929688 L 333.398438 130.90625 L 333.597656 130.851563 L 333.792969 130.777344 L 333.976563 130.675781 L 334.144531 130.554688 L 334.292969 130.410156 L 334.425781 130.25 L 334.539063 130.074219 L 334.625 129.886719 L 334.691406 129.691406 L 334.730469 129.484375 L 334.742188 129.277344 Z M 334.730469 129.070313 "/>
<path style="fill-rule:nonzero;fill:rgb(87.45098%,32.54902%,41.960784%);fill-opacity:1;stroke-width:0.75;stroke-linecap:round;stroke-linejoin:round;stroke:rgb(0%,0%,0%);stroke-opacity:1;stroke-miterlimit:10;" d="M 276.101563 147.503906 L 276.0625 147.296875 L 276 147.101563 L 275.910156 146.910156 L 275.796875 146.738281 L 275.667969 146.578125 L 275.515625 146.433594 L 275.347656 146.3125 L 275.164063 146.210938 L 274.972656 146.136719 L 274.769531 146.082031 L 274.5625 146.058594 L 274.355469 146.058594 L 274.148438 146.082031 L 273.949219 146.136719 L 273.753906 146.210938 L 273.570313 146.3125 L 273.402344 146.433594 L 273.253906 146.578125 L 273.121094 146.738281 L 273.007813 146.910156 L 272.921875 147.101563 L 272.855469 147.296875 L 272.816406 147.503906 L 272.804688 147.710938 L 272.816406 147.917969 L 272.855469 148.121094 L 272.921875 148.320313 L 273.007813 148.507813 L 273.121094 148.683594 L 273.253906 148.84375 L 273.402344 148.984375 L 273.570313 149.105469 L 273.753906 149.207031 L 273.949219 149.285156 L 274.148438 149.335938 L 274.355469 149.363281 L 274.5625 149.363281 L 274.769531 149.335938 L 274.972656 149.285156 L 275.164063 149.207031 L 275.347656 149.105469 L 275.515625 148.984375 L 275.667969 148.84375 L 275.796875 148.683594 L 275.910156 148.507813 L 276 148.320313 L 276.0625 148.121094 L 276.101563 147.917969 L 276.113281 147.710938 Z M 276.101563 147.503906 "/>
<path style="fill-rule:nonzero;fill:rgb(87.45098%,32.54902%,41.960784%);fill-opacity:1;stroke-width:0.75;stroke-linecap:round;stroke-linejoin:round;stroke:rgb(0%,0%,0%);stroke-opacity:1;stroke-miterlimit:10;" d="M 264.792969 141.207031 L 264.753906 141.003906 L 264.6875 140.804688 L 264.601563 140.617188 L 264.488281 140.441406 L 264.355469 140.28125 L 264.203125 140.140625 L 264.035156 140.015625 L 263.855469 139.917969 L 263.660156 139.839844 L 263.460938 139.789063 L 263.253906 139.761719 L 263.046875 139.761719 L 262.839844 139.789063 L 262.636719 139.839844 L 262.445313 139.917969 L 262.261719 140.015625 L 262.09375 140.140625 L 261.941406 140.28125 L 261.808594 140.441406 L 261.699219 140.617188 L 261.609375 140.804688 L 261.546875 141.003906 L 261.507813 141.207031 L 261.492188 141.414063 L 261.507813 141.621094 L 261.546875 141.828125 L 261.609375 142.023438 L 261.699219 142.210938 L 261.808594 142.386719 L 261.941406 142.546875 L 262.09375 142.691406 L 262.261719 142.8125 L 262.445313 142.914063 L 262.636719 142.988281 L 262.839844 143.042969 L 263.046875 143.066406 L 263.253906 143.066406 L 263.460938 143.042969 L 263.660156 142.988281 L 263.855469 142.914063 L 264.035156 142.8125 L 264.203125 142.691406 L 264.355469 142.546875 L 264.488281 142.386719 L 264.601563 142.210938 L 264.6875 142.023438 L 264.753906 141.828125 L 264.792969 141.621094 L 264.804688 141.414063 Z M 264.792969 141.207031 "/>
<path style="fill-rule:nonzero;fill:rgb(87.45098%,32.54902%,41.960784%);fill-opacity:1;stroke-width:0.75;stroke-linecap:round;stroke-linejoin:round;stroke:rgb(0%,0%,0%);stroke-opacity:1;stroke-miterlimit:10;" d="M 320.722656 131.644531 L 320.683594 131.441406 L 320.621094 131.242188 L 320.53125 131.054688 L 320.421875 130.878906 L 320.289063 130.71875 L 320.136719 130.578125 L 319.96875 130.453125 L 319.785156 130.355469 L 319.59375 130.277344 L 319.390625 130.226563 L 319.183594 130.199219 L 318.976563 130.199219 L 318.769531 130.226563 L 318.570313 130.277344 L 318.375 130.355469 L 318.195313 130.453125 L 318.027344 130.578125 L 317.875 130.71875 L 317.742188 130.878906 L 317.628906 131.054688 L 317.542969 131.242188 L 317.476563 131.441406 L 317.4375 131.644531 L 317.425781 131.851563 L 317.4375 132.058594 L 317.476563 132.265625 L 317.542969 132.460938 L 317.628906 132.648438 L 317.742188 132.824219 L 317.875 132.984375 L 318.027344 133.128906 L 318.195313 133.25 L 318.375 133.351563 L 318.570313 133.425781 L 318.769531 133.476563 L 318.976563 133.503906 L 319.183594 133.503906 L 319.390625 133.476563 L 319.59375 133.425781 L 319.785156 133.351563 L 319.96875 133.25 L 320.136719 133.128906 L 320.289063 132.984375 L 320.421875 132.824219 L 320.53125 132.648438 L 320.621094 132.460938 L 320.683594 132.265625 L 320.722656 132.058594 L 320.738281 131.851563 Z M 320.722656 131.644531 "/>
<path style="fill-rule:nonzero;fill:rgb(87.45098%,32.54902%,41.960784%);fill-opacity:1;stroke-width:0.75;stroke-linecap:round;stroke-linejoin:round;stroke:rgb(0%,0%,0%);stroke-opacity:1;stroke-miterlimit:10;" d="M 274.210938 77.6875 L 274.171875 77.480469 L 274.109375 77.285156 L 274.019531 77.097656 L 273.90625 76.921875 L 273.777344 76.761719 L 273.625 76.617188 L 273.457031 76.496094 L 273.273438 76.394531 L 273.082031 76.320313 L 272.878906 76.265625 L 272.671875 76.242188 L 272.464844 76.242188 L 272.257813 76.265625 L 272.058594 76.320313 L 271.863281 76.394531 L 271.683594 76.496094 L 271.511719 76.617188 L 271.363281 76.761719 L 271.230469 76.921875 L 271.117188 77.097656 L 271.03125 77.285156 L 270.964844 77.480469 L 270.925781 77.6875 L 270.914063 77.894531 L 270.925781 78.101563 L 270.964844 78.304688 L 271.03125 78.503906 L 271.117188 78.691406 L 271.230469 78.867188 L 271.363281 79.027344 L 271.511719 79.167969 L 271.683594 79.292969 L 271.863281 79.390625 L 272.058594 79.46875 L 272.257813 79.519531 L 272.464844 79.546875 L 272.671875 79.546875 L 272.878906 79.519531 L 273.082031 79.46875 L 273.273438 79.390625 L 273.457031 79.292969 L 273.625 79.167969 L 273.777344 79.027344 L 273.90625 78.867188 L 274.019531 78.691406 L 274.109375 78.503906 L 274.171875 78.304688 L 274.210938 78.101563 L 274.222656 77.894531 Z M 274.210938 77.6875 "/>
<path style="fill-rule:nonzero;fill:rgb(87.45098%,32.54902%,41.960784%);fill-opacity:1;stroke-width:0.75;stroke-linecap:round;stroke-linejoin:round;stroke:rgb(0%,0%,0%);stroke-opacity:1;stroke-miterlimit:10;" d="M 257.476563 127.707031 L 257.4375 127.503906 L 257.371094 127.304688 L 257.285156 127.117188 L 257.171875 126.941406 L 257.039063 126.78125 L 256.890625 126.640625 L 256.71875 126.515625 L 256.539063 126.417969 L 256.34375 126.339844 L 256.144531 126.289063 L 255.9375 126.261719 L 255.730469 126.261719 L 255.523438 126.289063 L 255.320313 126.339844 L 255.128906 126.417969 L 254.945313 126.515625 L 254.777344 126.640625 L 254.625 126.78125 L 254.496094 126.941406 L 254.382813 127.117188 L 254.292969 127.304688 L 254.230469 127.503906 L 254.191406 127.707031 L 254.179688 127.914063 L 254.191406 128.121094 L 254.230469 128.328125 L 254.292969 128.523438 L 254.382813 128.710938 L 254.496094 128.886719 L 254.625 129.046875 L 254.777344 129.191406 L 254.945313 129.3125 L 255.128906 129.414063 L 255.320313 129.488281 L 255.523438 129.539063 L 255.730469 129.566406 L 255.9375 129.566406 L 256.144531 129.539063 L 256.34375 129.488281 L 256.539063 129.414063 L 256.71875 129.3125 L 256.890625 129.191406 L 257.039063 129.046875 L 257.171875 128.886719 L 257.285156 128.710938 L 257.371094 128.523438 L 257.4375 128.328125 L 257.476563 128.121094 L 257.488281 127.914063 Z M 257.476563 127.707031 "/>
<path style="fill-rule:nonzero;fill:rgb(87.45098%,32.54902%,41.960784%);fill-opacity:1;stroke-width:0.75;stroke-linecap:round;stroke-linejoin:round;stroke:rgb(0%,0%,0%);stroke-opacity:1;stroke-miterlimit:10;" d="M 297.488281 104.835938 L 297.449219 104.632813 L 297.382813 104.433594 L 297.296875 104.246094 L 297.183594 104.070313 L 297.050781 103.910156 L 296.898438 103.769531 L 296.730469 103.648438 L 296.550781 103.546875 L 296.355469 103.46875 L 296.15625 103.417969 L 295.949219 103.390625 L 295.742188 103.390625 L 295.535156 103.417969 L 295.332031 103.46875 L 295.140625 103.546875 L 294.957031 103.648438 L 294.789063 103.769531 L 294.636719 103.910156 L 294.503906 104.070313 L 294.394531 104.246094 L 294.304688 104.433594 L 294.242188 104.632813 L 294.203125 104.835938 L 294.1875 105.042969 L 294.203125 105.253906 L 294.242188 105.457031 L 294.304688 105.652344 L 294.394531 105.84375 L 294.503906 106.019531 L 294.636719 106.179688 L 294.789063 106.320313 L 294.957031 106.441406 L 295.140625 106.542969 L 295.332031 106.617188 L 295.535156 106.671875 L 295.742188 106.695313 L 295.949219 106.695313 L 296.15625 106.671875 L 296.355469 106.617188 L 296.550781 106.542969 L 296.730469 106.441406 L 296.898438 106.320313 L 297.050781 106.179688 L 297.183594 106.019531 L 297.296875 105.84375 L 297.382813 105.652344 L 297.449219 105.457031 L 297.488281 105.253906 L 297.5 105.042969 Z M 297.488281 104.835938 "/>
<path style="fill-rule:nonzero;fill:rgb(87.45098%,32.54902%,41.960784%);fill-opacity:1;stroke-width:0.75;stroke-linecap:round;stroke-linejoin:round;stroke:rgb(0%,0%,0%);stroke-opacity:1;stroke-miterlimit:10;" d="M 293.980469 108.523438 L 293.941406 108.320313 L 293.875 108.121094 L 293.789063 107.933594 L 293.675781 107.757813 L 293.542969 107.597656 L 293.390625 107.457031 L 293.222656 107.332031 L 293.042969 107.234375 L 292.847656 107.15625 L 292.648438 107.105469 L 292.441406 107.078125 L 292.234375 107.078125 L 292.027344 107.105469 L 291.824219 107.15625 L 291.632813 107.234375 L 291.449219 107.332031 L 291.28125 107.457031 L 291.128906 107.597656 L 290.996094 107.757813 L 290.886719 107.933594 L 290.796875 108.121094 L 290.734375 108.320313 L 290.695313 108.523438 L 290.683594 108.730469 L 290.695313 108.9375 L 290.734375 109.144531 L 290.796875 109.339844 L 290.886719 109.527344 L 290.996094 109.703125 L 291.128906 109.863281 L 291.28125 110.007813 L 291.449219 110.128906 L 291.632813 110.230469 L 291.824219 110.304688 L 292.027344 110.359375 L 292.234375 110.382813 L 292.441406 110.382813 L 292.648438 110.359375 L 292.847656 110.304688 L 293.042969 110.230469 L 293.222656 110.128906 L 293.390625 110.007813 L 293.542969 109.863281 L 293.675781 109.703125 L 293.789063 109.527344 L 293.875 109.339844 L 293.941406 109.144531 L 293.980469 108.9375 L 293.992188 108.730469 Z M 293.980469 108.523438 "/>
</g>
</svg>
