<?xml version="1.0" encoding="UTF-8"?>
<svg xmlns="http://www.w3.org/2000/svg" xmlns:xlink="http://www.w3.org/1999/xlink" width="504" height="432" viewBox="0 0 504 432">
<rect x="-50.4" y="-43.2" width="604.8" height="518.4" fill="rgb(100%, 100%, 100%)" fill-opacity="1"/>
<path fill-rule="nonzero" fill="rgb(82.745098%, 82.745098%, 82.745098%)" fill-opacity="1" d="M 24.503906 348.890625 L 65.867188 348.890625 L 65.867188 282.445312 L 24.503906 282.445312 Z M 24.503906 348.890625 "/>
<path fill="none" stroke-width="2.25" stroke-linecap="butt" stroke-linejoin="round" stroke="rgb(0%, 0%, 0%)" stroke-opacity="1" stroke-miterlimit="10" d="M 24.503906 315.667969 L 65.867188 315.667969 "/>
<path fill="none" stroke-width="0.75" stroke-linecap="round" stroke-linejoin="round" stroke="rgb(0%, 0%, 0%)" stroke-opacity="1" stroke-dasharray="3 3" stroke-miterlimit="10" d="M 45.183594 415.332031 L 45.183594 348.890625 "/>
<path fill="none" stroke-width="0.75" stroke-linecap="round" stroke-linejoin="round" stroke="rgb(0%, 0%, 0%)" stroke-opacity="1" stroke-dasharray="3 3" stroke-miterlimit="10" d="M 45.183594 182.777344 L 45.183594 282.445312 "/>
<path fill="none" stroke-width="0.75" stroke-linecap="round" stroke-linejoin="round" stroke="rgb(0%, 0%, 0%)" stroke-opacity="1" stroke-miterlimit="10" d="M 34.84375 415.332031 L 55.527344 415.332031 "/>
<path fill="none" stroke-width="0.75" stroke-linecap="round" stroke-linejoin="round" stroke="rgb(0%, 0%, 0%)" stroke-opacity="1" stroke-miterlimit="10" d="M 34.84375 182.777344 L 55.527344 182.777344 "/>
<path fill="none" stroke-width="0.75" stroke-linecap="round" stroke-linejoin="round" stroke="rgb(0%, 0%, 0%)" stroke-opacity="1" stroke-miterlimit="10" d="M 24.503906 348.890625 L 65.867188 348.890625 L 65.867188 282.445312 L 24.503906 282.445312 Z M 24.503906 348.890625 "/>
<path fill-rule="nonzero" fill="rgb(82.745098%, 82.745098%, 82.745098%)" fill-opacity="1" d="M 76.207031 348.890625 L 117.570312 348.890625 L 117.570312 282.445312 L 76.207031 282.445312 Z M 76.207031 348.890625 "/>
<path fill="none" stroke-width="2.25" stroke-linecap="butt" stroke-linejoin="round" stroke="rgb(0%, 0%, 0%)" stroke-opacity="1" stroke-miterlimit="10" d="M 76.207031 315.667969 L 117.570312 315.667969 "/>
<path fill="none" stroke-width="0.75" stroke-linecap="round" stroke-linejoin="round" stroke="rgb(0%, 0%, 0%)" stroke-opacity="1" stroke-dasharray="3 3" stroke-miterlimit="10" d="M 96.890625 415.332031 L 96.890625 348.890625 "/>
<path fill="none" stroke-width="0.75" stroke-linecap="round" stroke-linejoin="round" stroke="rgb(0%, 0%, 0%)" stroke-opacity="1" stroke-dasharray="3 3" stroke-miterlimit="10" d="M 96.890625 182.777344 L 96.890625 282.445312 "/>
<path fill="none" stroke-width="0.75" stroke-linecap="round" stroke-linejoin="round" stroke="rgb(0%, 0%, 0%)" stroke-opacity="1" stroke-miterlimit="10" d="M 86.546875 415.332031 L 107.230469 415.332031 "/>
<path fill="none" stroke-width="0.75" stroke-linecap="round" stroke-linejoin="round" stroke="rgb(0%, 0%, 0%)" stroke-opacity="1" stroke-miterlimit="10" d="M 86.546875 182.777344 L 107.230469 182.777344 "/>
<path fill="none" stroke-width="0.75" stroke-linecap="round" stroke-linejoin="round" stroke="rgb(0%, 0%, 0%)" stroke-opacity="1" stroke-miterlimit="10" d="M 76.207031 348.890625 L 117.570312 348.890625 L 117.570312 282.445312 L 76.207031 282.445312 Z M 76.207031 348.890625 "/>
<path fill-rule="nonzero" fill="rgb(82.745098%, 82.745098%, 82.745098%)" fill-opacity="1" d="M 127.910156 282.445312 L 169.273438 282.445312 L 169.273438 182.777344 L 127.910156 182.777344 Z M 127.910156 282.445312 "/>
<path fill="none" stroke-width="2.25" stroke-linecap="butt" stroke-linejoin="round" stroke="rgb(0%, 0%, 0%)" stroke-opacity="1" stroke-miterlimit="10" d="M 127.910156 216 L 169.273438 216 "/>
<path fill="none" stroke-width="0.75" stroke-linecap="round" stroke-linejoin="round" stroke="rgb(0%, 0%, 0%)" stroke-opacity="1" stroke-dasharray="3 3" stroke-miterlimit="10" d="M 148.59375 382.109375 L 148.59375 282.445312 "/>
<path fill="none" stroke-width="0.75" stroke-linecap="round" stroke-linejoin="round" stroke="rgb(0%, 0%, 0%)" stroke-opacity="1" stroke-dasharray="3 3" stroke-miterlimit="10" d="M 148.59375 83.109375 L 148.59375 182.777344 "/>
<path fill="none" stroke-width="0.75" stroke-linecap="round" stroke-linejoin="round" stroke="rgb(0%, 0%, 0%)" stroke-opacity="1" stroke-miterlimit="10" d="M 138.25 382.109375 L 158.933594 382.109375 "/>
<path fill="none" stroke-width="0.75" stroke-linecap="round" stroke-linejoin="round" stroke="rgb(0%, 0%, 0%)" stroke-opacity="1" stroke-miterlimit="10" d="M 138.25 83.109375 L 158.933594 83.109375 "/>
<path fill="none" stroke-width="0.75" stroke-linecap="round" stroke-linejoin="round" stroke="rgb(0%, 0%, 0%)" stroke-opacity="1" stroke-miterlimit="10" d="M 127.910156 282.445312 L 169.273438 282.445312 L 169.273438 182.777344 L 127.910156 182.777344 Z M 127.910156 282.445312 "/>
<path fill-rule="nonzero" fill="rgb(82.745098%, 82.745098%, 82.745098%)" fill-opacity="1" d="M 179.613281 382.109375 L 220.976562 382.109375 L 220.976562 282.445312 L 179.613281 282.445312 Z M 179.613281 382.109375 "/>
<path fill="none" stroke-width="2.25" stroke-linecap="butt" stroke-linejoin="round" stroke="rgb(0%, 0%, 0%)" stroke-opacity="1" stroke-miterlimit="10" d="M 179.613281 315.667969 L 220.976562 315.667969 "/>
<path fill="none" stroke-width="0.75" stroke-linecap="round" stroke-linejoin="round" stroke="rgb(0%, 0%, 0%)" stroke-opacity="1" stroke-dasharray="3 3" stroke-miterlimit="10" d="M 200.296875 415.332031 L 200.296875 382.109375 "/>
<path fill="none" stroke-width="0.75" stroke-linecap="round" stroke-linejoin="round" stroke="rgb(0%, 0%, 0%)" stroke-opacity="1" stroke-dasharray="3 3" stroke-miterlimit="10" d="M 200.296875 149.554688 L 200.296875 282.445312 "/>
<path fill="none" stroke-width="0.75" stroke-linecap="round" stroke-linejoin="round" stroke="rgb(0%, 0%, 0%)" stroke-opacity="1" stroke-miterlimit="10" d="M 189.957031 415.332031 L 210.636719 415.332031 "/>
<path fill="none" stroke-width="0.75" stroke-linecap="round" stroke-linejoin="round" stroke="rgb(0%, 0%, 0%)" stroke-opacity="1" stroke-miterlimit="10" d="M 189.957031 149.554688 L 210.636719 149.554688 "/>
<path fill="none" stroke-width="0.75" stroke-linecap="round" stroke-linejoin="round" stroke="rgb(0%, 0%, 0%)" stroke-opacity="1" stroke-miterlimit="10" d="M 179.613281 382.109375 L 220.976562 382.109375 L 220.976562 282.445312 L 179.613281 282.445312 Z M 179.613281 382.109375 "/>
<path fill-rule="nonzero" fill="rgb(82.745098%, 82.745098%, 82.745098%)" fill-opacity="1" d="M 231.320312 415.332031 L 272.679688 415.332031 L 272.679688 348.890625 L 231.320312 348.890625 Z M 231.320312 415.332031 "/>
<path fill="none" stroke-width="2.25" stroke-linecap="butt" stroke-linejoin="round" stroke="rgb(0%, 0%, 0%)" stroke-opacity="1" stroke-miterlimit="10" d="M 231.320312 382.109375 L 272.679688 382.109375 "/>
<path fill="none" stroke-width="0.75" stroke-linecap="round" stroke-linejoin="round" stroke="rgb(0%, 0%, 0%)" stroke-opacity="1" stroke-dasharray="3 3" stroke-miterlimit="10" d="M 252 415.332031 L 252 415.332031 "/>
<path fill="none" stroke-width="0.75" stroke-linecap="round" stroke-linejoin="round" stroke="rgb(0%, 0%, 0%)" stroke-opacity="1" stroke-dasharray="3 3" stroke-miterlimit="10" d="M 252 282.445312 L 252 348.890625 "/>
<path fill="none" stroke-width="0.75" stroke-linecap="round" stroke-linejoin="round" stroke="rgb(0%, 0%, 0%)" stroke-opacity="1" stroke-miterlimit="10" d="M 241.660156 415.332031 L 262.339844 415.332031 "/>
<path fill="none" stroke-width="0.75" stroke-linecap="round" stroke-linejoin="round" stroke="rgb(0%, 0%, 0%)" stroke-opacity="1" stroke-miterlimit="10" d="M 241.660156 282.445312 L 262.339844 282.445312 "/>
<path fill="none" stroke-width="0.75" stroke-linecap="round" stroke-linejoin="round" stroke="rgb(0%, 0%, 0%)" stroke-opacity="1" stroke-miterlimit="10" d="M 231.320312 415.332031 L 272.679688 415.332031 L 272.679688 348.890625 L 231.320312 348.890625 Z M 231.320312 415.332031 "/>
<path fill="none" stroke-width="2.25" stroke-linecap="butt" stroke-linejoin="round" stroke="rgb(0%, 0%, 0%)" stroke-opacity="1" stroke-miterlimit="10" d="M 283.023438 415.332031 L 324.386719 415.332031 "/>
<path fill="none" stroke-width="0.75" stroke-linecap="round" stroke-linejoin="round" stroke="rgb(0%, 0%, 0%)" stroke-opacity="1" stroke-dasharray="3 3" stroke-miterlimit="10" d="M 303.703125 415.332031 L 303.703125 415.332031 "/>
<path fill="none" stroke-width="0.75" stroke-linecap="round" stroke-linejoin="round" stroke="rgb(0%, 0%, 0%)" stroke-opacity="1" stroke-dasharray="3 3" stroke-miterlimit="10" d="M 303.703125 415.332031 L 303.703125 415.332031 "/>
<path fill="none" stroke-width="0.75" stroke-linecap="round" stroke-linejoin="round" stroke="rgb(0%, 0%, 0%)" stroke-opacity="1" stroke-miterlimit="10" d="M 293.363281 415.332031 L 314.042969 415.332031 "/>
<path fill="none" stroke-width="0.75" stroke-linecap="round" stroke-linejoin="round" stroke="rgb(0%, 0%, 0%)" stroke-opacity="1" stroke-miterlimit="10" d="M 293.363281 415.332031 L 314.042969 415.332031 "/>
<path fill="none" stroke-width="0.75" stroke-linecap="round" stroke-linejoin="round" stroke="rgb(0%, 0%, 0%)" stroke-opacity="1" stroke-miterlimit="10" d="M 283.023438 415.332031 L 324.386719 415.332031 Z M 283.023438 415.332031 "/>
<path fill="none" stroke-width="2.25" stroke-linecap="butt" stroke-linejoin="round" stroke="rgb(0%, 0%, 0%)" stroke-opacity="1" stroke-miterlimit="10" d="M 334.726562 415.332031 L 376.089844 415.332031 "/>
<path fill="none" stroke-width="0.75" stroke-linecap="round" stroke-linejoin="round" stroke="rgb(0%, 0%, 0%)" stroke-opacity="1" stroke-dasharray="3 3" stroke-miterlimit="10" d="M 355.40625 415.332031 L 355.40625 415.332031 "/>
<path fill="none" stroke-width="0.75" stroke-linecap="round" stroke-linejoin="round" stroke="rgb(0%, 0%, 0%)" stroke-opacity="1" stroke-dasharray="3 3" stroke-miterlimit="10" d="M 355.40625 415.332031 L 355.40625 415.332031 "/>
<path fill="none" stroke-width="0.75" stroke-linecap="round" stroke-linejoin="round" stroke="rgb(0%, 0%, 0%)" stroke-opacity="1" stroke-miterlimit="10" d="M 345.066406 415.332031 L 365.75 415.332031 "/>
<path fill="none" stroke-width="0.75" stroke-linecap="round" stroke-linejoin="round" stroke="rgb(0%, 0%, 0%)" stroke-opacity="1" stroke-miterlimit="10" d="M 345.066406 415.332031 L 365.75 415.332031 "/>
<path fill="none" stroke-width="0.75" stroke-linecap="round" stroke-linejoin="round" stroke="rgb(0%, 0%, 0%)" stroke-opacity="1" stroke-miterlimit="10" d="M 334.726562 415.332031 L 376.089844 415.332031 Z M 334.726562 415.332031 "/>
<path fill="none" stroke-width="2.25" stroke-linecap="butt" stroke-linejoin="round" stroke="rgb(0%, 0%, 0%)" stroke-opacity="1" stroke-miterlimit="10" d="M 386.429688 415.332031 L 427.792969 415.332031 "/>
<path fill="none" stroke-width="0.75" stroke-linecap="round" stroke-linejoin="round" stroke="rgb(0%, 0%, 0%)" stroke-opacity="1" stroke-dasharray="3 3" stroke-miterlimit="10" d="M 407.109375 415.332031 L 407.109375 415.332031 "/>
<path fill="none" stroke-width="0.75" stroke-linecap="round" stroke-linejoin="round" stroke="rgb(0%, 0%, 0%)" stroke-opacity="1" stroke-dasharray="3 3" stroke-miterlimit="10" d="M 407.109375 415.332031 L 407.109375 415.332031 "/>
<path fill="none" stroke-width="0.75" stroke-linecap="round" stroke-linejoin="round" stroke="rgb(0%, 0%, 0%)" stroke-opacity="1" stroke-miterlimit="10" d="M 396.769531 415.332031 L 417.453125 415.332031 "/>
<path fill="none" stroke-width="0.75" stroke-linecap="round" stroke-linejoin="round" stroke="rgb(0%, 0%, 0%)" stroke-opacity="1" stroke-miterlimit="10" d="M 396.769531 415.332031 L 417.453125 415.332031 "/>
<path fill="none" stroke-width="0.75" stroke-linecap="round" stroke-linejoin="round" stroke="rgb(0%, 0%, 0%)" stroke-opacity="1" stroke-miterlimit="10" d="M 386.429688 415.332031 L 427.792969 415.332031 Z M 386.429688 415.332031 "/>
<path fill="none" stroke-width="2.25" stroke-linecap="butt" stroke-linejoin="round" stroke="rgb(0%, 0%, 0%)" stroke-opacity="1" stroke-miterlimit="10" d="M 438.132812 415.332031 L 479.496094 415.332031 "/>
<path fill="none" stroke-width="0.75" stroke-linecap="round" stroke-linejoin="round" stroke="rgb(0%, 0%, 0%)" stroke-opacity="1" stroke-dasharray="3 3" stroke-miterlimit="10" d="M 458.816406 415.332031 L 458.816406 415.332031 "/>
<path fill="none" stroke-width="0.75" stroke-linecap="round" stroke-linejoin="round" stroke="rgb(0%, 0%, 0%)" stroke-opacity="1" stroke-dasharray="3 3" stroke-miterlimit="10" d="M 458.816406 415.332031 L 458.816406 415.332031 "/>
<path fill="none" stroke-width="0.75" stroke-linecap="round" stroke-linejoin="round" stroke="rgb(0%, 0%, 0%)" stroke-opacity="1" stroke-miterlimit="10" d="M 448.472656 415.332031 L 469.15625 415.332031 "/>
<path fill="none" stroke-width="0.75" stroke-linecap="round" stroke-linejoin="round" stroke="rgb(0%, 0%, 0%)" stroke-opacity="1" stroke-miterlimit="10" d="M 448.472656 415.332031 L 469.15625 415.332031 "/>
<path fill="none" stroke-width="0.75" stroke-linecap="round" stroke-linejoin="round" stroke="rgb(0%, 0%, 0%)" stroke-opacity="1" stroke-miterlimit="10" d="M 438.132812 415.332031 L 479.496094 415.332031 Z M 438.132812 415.332031 "/>
<path fill="none" stroke-width="0.75" stroke-linecap="round" stroke-linejoin="round" stroke="rgb(0%, 0%, 0%)" stroke-opacity="1" stroke-miterlimit="10" d="M 45.183594 431.28125 L 458.816406 431.28125 "/>
<path fill="none" stroke-width="0.75" stroke-linecap="round" stroke-linejoin="round" stroke="rgb(0%, 0%, 0%)" stroke-opacity="1" stroke-miterlimit="10" d="M 45.183594 431.28125 L 45.183594 438.480469 "/>
<path fill="none" stroke-width="0.75" stroke-linecap="round" stroke-linejoin="round" stroke="rgb(0%, 0%, 0%)" stroke-opacity="1" stroke-miterlimit="10" d="M 96.890625 431.28125 L 96.890625 438.480469 "/>
<path fill="none" stroke-width="0.75" stroke-linecap="round" stroke-linejoin="round" stroke="rgb(0%, 0%, 0%)" stroke-opacity="1" stroke-miterlimit="10" d="M 148.59375 431.28125 L 148.59375 438.480469 "/>
<path fill="none" stroke-width="0.75" stroke-linecap="round" stroke-linejoin="round" stroke="rgb(0%, 0%, 0%)" stroke-opacity="1" stroke-miterlimit="10" d="M 200.296875 431.28125 L 200.296875 438.480469 "/>
<path fill="none" stroke-width="0.75" stroke-linecap="round" stroke-linejoin="round" stroke="rgb(0%, 0%, 0%)" stroke-opacity="1" stroke-miterlimit="10" d="M 252 431.28125 L 252 438.480469 "/>
<path fill="none" stroke-width="0.75" stroke-linecap="round" stroke-linejoin="round" stroke="rgb(0%, 0%, 0%)" stroke-opacity="1" stroke-miterlimit="10" d="M 303.703125 431.28125 L 303.703125 438.480469 "/>
<path fill="none" stroke-width="0.75" stroke-linecap="round" stroke-linejoin="round" stroke="rgb(0%, 0%, 0%)" stroke-opacity="1" stroke-miterlimit="10" d="M 355.40625 431.28125 L 355.40625 438.480469 "/>
<path fill="none" stroke-width="0.75" stroke-linecap="round" stroke-linejoin="round" stroke="rgb(0%, 0%, 0%)" stroke-opacity="1" stroke-miterlimit="10" d="M 407.109375 431.28125 L 407.109375 438.480469 "/>
<path fill="none" stroke-width="0.75" stroke-linecap="round" stroke-linejoin="round" stroke="rgb(0%, 0%, 0%)" stroke-opacity="1" stroke-miterlimit="10" d="M 458.816406 431.28125 L 458.816406 438.480469 "/>
<path fill="none" stroke-width="0.75" stroke-linecap="round" stroke-linejoin="round" stroke="rgb(0%, 0%, 0%)" stroke-opacity="1" stroke-miterlimit="10" d="M 0.71875 415.332031 L 0.71875 96.398438 "/>
<path fill="none" stroke-width="0.75" stroke-linecap="round" stroke-linejoin="round" stroke="rgb(0%, 0%, 0%)" stroke-opacity="1" stroke-miterlimit="10" d="M 0.71875 415.332031 L -6.480469 415.332031 "/>
<path fill="none" stroke-width="0.75" stroke-linecap="round" stroke-linejoin="round" stroke="rgb(0%, 0%, 0%)" stroke-opacity="1" stroke-miterlimit="10" d="M 0.71875 309.023438 L -6.480469 309.023438 "/>
<path fill="none" stroke-width="0.75" stroke-linecap="round" stroke-linejoin="round" stroke="rgb(0%, 0%, 0%)" stroke-opacity="1" stroke-miterlimit="10" d="M 0.71875 202.710938 L -6.480469 202.710938 "/>
<path fill="none" stroke-width="0.75" stroke-linecap="round" stroke-linejoin="round" stroke="rgb(0%, 0%, 0%)" stroke-opacity="1" stroke-miterlimit="10" d="M 0.71875 96.398438 L -6.480469 96.398438 "/>
<path fill="none" stroke-width="0.75" stroke-linecap="round" stroke-linejoin="round" stroke="rgb(0%, 0%, 0%)" stroke-opacity="1" stroke-miterlimit="10" d="M 0.71875 431.28125 L 503.28125 431.28125 L 503.28125 0.71875 L 0.71875 0.71875 Z M 0.71875 431.28125 "/>
<path fill="none" stroke-width="0.75" stroke-linecap="round" stroke-linejoin="round" stroke="rgb(0%, 0%, 0%)" stroke-opacity="1" stroke-miterlimit="10" d="M 47.210938 415.332031 C 47.210938 418.035156 43.160156 418.035156 43.160156 415.332031 C 43.160156 412.632812 47.210938 412.632812 47.210938 415.332031 "/>
<path fill="none" stroke-width="0.75" stroke-linecap="round" stroke-linejoin="round" stroke="rgb(0%, 0%, 0%)" stroke-opacity="1" stroke-miterlimit="10" d="M 98.914062 415.332031 C 98.914062 418.035156 94.863281 418.035156 94.863281 415.332031 C 94.863281 412.632812 98.914062 412.632812 98.914062 415.332031 "/>
<path fill="none" stroke-width="0.75" stroke-linecap="round" stroke-linejoin="round" stroke="rgb(0%, 0%, 0%)" stroke-opacity="1" stroke-miterlimit="10" d="M 150.617188 348.890625 C 150.617188 351.589844 146.566406 351.589844 146.566406 348.890625 C 146.566406 346.1875 150.617188 346.1875 150.617188 348.890625 "/>
<path fill="none" stroke-width="0.75" stroke-linecap="round" stroke-linejoin="round" stroke="rgb(0%, 0%, 0%)" stroke-opacity="1" stroke-miterlimit="10" d="M 202.320312 415.332031 C 202.320312 418.035156 198.269531 418.035156 198.269531 415.332031 C 198.269531 412.632812 202.320312 412.632812 202.320312 415.332031 "/>
<path fill="none" stroke-width="0.75" stroke-linecap="round" stroke-linejoin="round" stroke="rgb(0%, 0%, 0%)" stroke-opacity="1" stroke-miterlimit="10" d="M 254.023438 415.332031 C 254.023438 418.035156 249.976562 418.035156 249.976562 415.332031 C 249.976562 412.632812 254.023438 412.632812 254.023438 415.332031 "/>
<path fill="none" stroke-width="0.75" stroke-linecap="round" stroke-linejoin="round" stroke="rgb(0%, 0%, 0%)" stroke-opacity="1" stroke-miterlimit="10" d="M 305.730469 415.332031 C 305.730469 418.035156 301.679688 418.035156 301.679688 415.332031 C 301.679688 412.632812 305.730469 412.632812 305.730469 415.332031 "/>
<path fill="none" stroke-width="0.75" stroke-linecap="round" stroke-linejoin="round" stroke="rgb(0%, 0%, 0%)" stroke-opacity="1" stroke-miterlimit="10" d="M 357.433594 415.332031 C 357.433594 418.035156 353.382812 418.035156 353.382812 415.332031 C 353.382812 412.632812 357.433594 412.632812 357.433594 415.332031 "/>
<path fill="none" stroke-width="0.75" stroke-linecap="round" stroke-linejoin="round" stroke="rgb(0%, 0%, 0%)" stroke-opacity="1" stroke-miterlimit="10" d="M 409.136719 415.332031 C 409.136719 418.035156 405.085938 418.035156 405.085938 415.332031 C 405.085938 412.632812 409.136719 412.632812 409.136719 415.332031 "/>
<path fill="none" stroke-width="0.75" stroke-linecap="round" stroke-linejoin="round" stroke="rgb(0%, 0%, 0%)" stroke-opacity="1" stroke-miterlimit="10" d="M 460.839844 415.332031 C 460.839844 418.035156 456.789062 418.035156 456.789062 415.332031 C 456.789062 412.632812 460.839844 412.632812 460.839844 415.332031 "/>
<path fill="none" stroke-width="0.75" stroke-linecap="round" stroke-linejoin="round" stroke="rgb(0%, 0%, 0%)" stroke-opacity="1" stroke-miterlimit="10" d="M 47.210938 116.332031 C 47.210938 119.035156 43.160156 119.035156 43.160156 116.332031 C 43.160156 113.632812 47.210938 113.632812 47.210938 116.332031 "/>
<path fill="none" stroke-width="0.75" stroke-linecap="round" stroke-linejoin="round" stroke="rgb(0%, 0%, 0%)" stroke-opacity="1" stroke-miterlimit="10" d="M 98.914062 198.558594 C 98.914062 201.257812 94.863281 201.257812 94.863281 198.558594 C 94.863281 195.859375 98.914062 195.859375 98.914062 198.558594 "/>
<path fill="none" stroke-width="0.75" stroke-linecap="round" stroke-linejoin="round" stroke="rgb(0%, 0%, 0%)" stroke-opacity="1" stroke-miterlimit="10" d="M 150.617188 116.332031 C 150.617188 119.035156 146.566406 119.035156 146.566406 116.332031 C 146.566406 113.632812 150.617188 113.632812 150.617188 116.332031 "/>
<path fill="none" stroke-width="0.75" stroke-linecap="round" stroke-linejoin="round" stroke="rgb(0%, 0%, 0%)" stroke-opacity="1" stroke-miterlimit="10" d="M 202.320312 216 C 202.320312 218.699219 198.269531 218.699219 198.269531 216 C 198.269531 213.300781 202.320312 213.300781 202.320312 216 "/>
<path fill="none" stroke-width="0.75" stroke-linecap="round" stroke-linejoin="round" stroke="rgb(0%, 0%, 0%)" stroke-opacity="1" stroke-miterlimit="10" d="M 254.023438 315.667969 C 254.023438 318.367188 249.976562 318.367188 249.976562 315.667969 C 249.976562 312.964844 254.023438 312.964844 254.023438 315.667969 "/>
<path fill="none" stroke-width="0.75" stroke-linecap="round" stroke-linejoin="round" stroke="rgb(0%, 0%, 0%)" stroke-opacity="1" stroke-miterlimit="10" d="M 305.730469 364.667969 C 305.730469 367.371094 301.679688 367.371094 301.679688 364.667969 C 301.679688 361.96875 305.730469 361.96875 305.730469 364.667969 "/>
<path fill="none" stroke-width="0.75" stroke-linecap="round" stroke-linejoin="round" stroke="rgb(0%, 0%, 0%)" stroke-opacity="1" stroke-miterlimit="10" d="M 357.433594 382.109375 C 357.433594 384.8125 353.382812 384.8125 353.382812 382.109375 C 353.382812 379.410156 357.433594 379.410156 357.433594 382.109375 "/>
<path fill="none" stroke-width="0.75" stroke-linecap="round" stroke-linejoin="round" stroke="rgb(0%, 0%, 0%)" stroke-opacity="1" stroke-miterlimit="10" d="M 409.136719 415.332031 C 409.136719 418.035156 405.085938 418.035156 405.085938 415.332031 C 405.085938 412.632812 409.136719 412.632812 409.136719 415.332031 "/>
<path fill="none" stroke-width="0.75" stroke-linecap="round" stroke-linejoin="round" stroke="rgb(0%, 0%, 0%)" stroke-opacity="1" stroke-miterlimit="10" d="M 460.839844 415.332031 C 460.839844 418.035156 456.789062 418.035156 456.789062 415.332031 C 456.789062 412.632812 460.839844 412.632812 460.839844 415.332031 "/>
<path fill="none" stroke-width="0.75" stroke-linecap="round" stroke-linejoin="round" stroke="rgb(74.901961%, 74.901961%, 74.901961%)" stroke-opacity="1" stroke-miterlimit="10" d="M 45.183594 415.332031 L 96.890625 415.332031 L 148.59375 348.890625 L 200.296875 415.332031 L 458.816406 415.332031 "/>
<path fill="none" stroke-width="0.75" stroke-linecap="round" stroke-linejoin="round" stroke="rgb(74.901961%, 74.901961%, 74.901961%)" stroke-opacity="1" stroke-miterlimit="10" d="M 45.183594 116.332031 L 96.890625 198.558594 L 148.59375 116.332031 L 252 315.667969 L 303.703125 364.667969 L 355.40625 382.109375 L 407.109375 415.332031 L 458.816406 415.332031 "/>
<path fill-rule="nonzero" fill="rgb(0%, 0%, 0%)" fill-opacity="1" d="M 47.210938 249.222656 C 47.210938 251.921875 43.160156 251.921875 43.160156 249.222656 C 43.160156 246.523438 47.210938 246.523438 47.210938 249.222656 "/>
<path fill-rule="nonzero" fill="rgb(0%, 0%, 0%)" fill-opacity="1" d="M 98.914062 315.667969 C 98.914062 318.367188 94.863281 318.367188 94.863281 315.667969 C 94.863281 312.964844 98.914062 312.964844 98.914062 315.667969 "/>
<path fill-rule="nonzero" fill="rgb(0%, 0%, 0%)" fill-opacity="1" d="M 150.617188 348.890625 C 150.617188 351.589844 146.566406 351.589844 146.566406 348.890625 C 146.566406 346.1875 150.617188 346.1875 150.617188 348.890625 "/>
<path fill-rule="nonzero" fill="rgb(0%, 0%, 0%)" fill-opacity="1" d="M 202.320312 348.890625 C 202.320312 351.589844 198.269531 351.589844 198.269531 348.890625 C 198.269531 346.1875 202.320312 346.1875 202.320312 348.890625 "/>
<path fill-rule="nonzero" fill="rgb(0%, 0%, 0%)" fill-opacity="1" d="M 254.023438 315.667969 C 254.023438 318.367188 249.976562 318.367188 249.976562 315.667969 C 249.976562 312.964844 254.023438 312.964844 254.023438 315.667969 "/>
<path fill-rule="nonzero" fill="rgb(0%, 0%, 0%)" fill-opacity="1" d="M 305.730469 382.109375 C 305.730469 384.8125 301.679688 384.8125 301.679688 382.109375 C 301.679688 379.410156 305.730469 379.410156 305.730469 382.109375 "/>
<path fill-rule="nonzero" fill="rgb(0%, 0%, 0%)" fill-opacity="1" d="M 357.433594 415.332031 C 357.433594 418.035156 353.382812 418.035156 353.382812 415.332031 C 353.382812 412.632812 357.433594 412.632812 357.433594 415.332031 "/>
<path fill-rule="nonzero" fill="rgb(0%, 0%, 0%)" fill-opacity="1" d="M 409.136719 415.332031 C 409.136719 418.035156 405.085938 418.035156 405.085938 415.332031 C 405.085938 412.632812 409.136719 412.632812 409.136719 415.332031 "/>
<path fill-rule="nonzero" fill="rgb(0%, 0%, 0%)" fill-opacity="1" d="M 460.839844 415.332031 C 460.839844 418.035156 456.789062 418.035156 456.789062 415.332031 C 456.789062 412.632812 460.839844 412.632812 460.839844 415.332031 "/>
<path fill="none" stroke-width="2.25" stroke-linecap="round" stroke-linejoin="round" stroke="rgb(0%, 0%, 0%)" stroke-opacity="1" stroke-miterlimit="10" d="M 45.183594 249.222656 L 96.890625 315.667969 L 148.59375 348.890625 L 200.296875 348.890625 L 252 315.667969 L 303.703125 382.109375 L 355.40625 415.332031 L 458.816406 415.332031 "/>
<path fill-rule="nonzero" fill="rgb(0%, 0%, 100%)" fill-opacity="1" d="M 39.785156 307.359375 L 45.183594 301.960938 L 50.585938 307.359375 L 45.183594 312.761719 Z M 39.785156 307.359375 "/>
<path fill-rule="nonzero" fill="rgb(0%, 0%, 100%)" fill-opacity="1" d="M 91.488281 318.65625 L 96.890625 313.257812 L 102.289062 318.65625 L 96.890625 324.058594 Z M 91.488281 318.65625 "/>
<path fill-rule="nonzero" fill="rgb(0%, 0%, 100%)" fill-opacity="1" d="M 143.191406 233.277344 L 148.59375 227.875 L 153.992188 233.277344 L 148.59375 238.675781 Z M 143.191406 233.277344 "/>
<path fill-rule="nonzero" fill="rgb(0%, 0%, 100%)" fill-opacity="1" d="M 194.894531 324.304688 L 200.296875 318.90625 L 205.695312 324.304688 L 200.296875 329.703125 Z M 194.894531 324.304688 "/>
<path fill-rule="nonzero" fill="rgb(0%, 0%, 100%)" fill-opacity="1" d="M 246.601562 373.804688 L 252 368.40625 L 257.398438 373.804688 L 252 379.207031 Z M 246.601562 373.804688 "/>
<path fill-rule="nonzero" fill="rgb(0%, 0%, 100%)" fill-opacity="1" d="M 298.304688 406.363281 L 303.703125 400.964844 L 309.105469 406.363281 L 303.703125 411.761719 Z M 298.304688 406.363281 "/>
<path fill-rule="nonzero" fill="rgb(0%, 0%, 100%)" fill-opacity="1" d="M 350.007812 412.675781 L 355.40625 407.277344 L 360.808594 412.675781 L 355.40625 418.074219 Z M 350.007812 412.675781 "/>
<path fill-rule="nonzero" fill="rgb(0%, 0%, 100%)" fill-opacity="1" d="M 401.710938 414.667969 L 407.109375 409.269531 L 412.511719 414.667969 L 407.109375 420.070312 Z M 401.710938 414.667969 "/>
<path fill-rule="nonzero" fill="rgb(0%, 0%, 100%)" fill-opacity="1" d="M 453.414062 415.332031 L 458.816406 409.933594 L 464.214844 415.332031 L 458.816406 420.734375 Z M 453.414062 415.332031 "/>
</svg>
