<?xml version="1.0" encoding="UTF-8"?>
<svg xmlns="http://www.w3.org/2000/svg" xmlns:xlink="http://www.w3.org/1999/xlink" width="504pt" height="432pt" viewBox="0 0 504 432" version="1.1">
<g id="surface314">
<rect x="0" y="0" width="504" height="432" style="fill:rgb(100%,100%,100%);fill-opacity:1;stroke:none;"/>
<path style=" stroke:none;fill-rule:nonzero;fill:rgb(82.745098%,82.745098%,82.745098%);fill-opacity:1;" d="M 27.089844 125.394531 L 89.132813 125.394531 L 89.132813 16.667969 L 27.089844 16.667969 Z M 27.089844 125.394531 "/>
<path style="fill:none;stroke-width:2.25;stroke-linecap:butt;stroke-linejoin:round;stroke:rgb(0%,0%,0%);stroke-opacity:1;stroke-miterlimit:10;" d="M 27.089844 91.417969 L 89.132813 91.417969 "/>
<path style="fill:none;stroke-width:0.75;stroke-linecap:round;stroke-linejoin:round;stroke:rgb(0%,0%,0%);stroke-opacity:1;stroke-dasharray:3,3;stroke-miterlimit:10;" d="M 58.109375 216 L 58.109375 125.394531 "/>
<path style="fill:none;stroke-width:0.75;stroke-linecap:round;stroke-linejoin:round;stroke:rgb(0%,0%,0%);stroke-opacity:1;stroke-dasharray:3,3;stroke-miterlimit:10;" d="M 58.109375 16.667969 L 58.109375 16.667969 "/>
<path style="fill:none;stroke-width:0.75;stroke-linecap:round;stroke-linejoin:round;stroke:rgb(0%,0%,0%);stroke-opacity:1;stroke-miterlimit:10;" d="M 42.601563 216 L 73.621094 216 "/>
<path style="fill:none;stroke-width:0.75;stroke-linecap:round;stroke-linejoin:round;stroke:rgb(0%,0%,0%);stroke-opacity:1;stroke-miterlimit:10;" d="M 42.601563 16.667969 L 73.621094 16.667969 "/>
<path style="fill:none;stroke-width:0.75;stroke-linecap:round;stroke-linejoin:round;stroke:rgb(0%,0%,0%);stroke-opacity:1;stroke-miterlimit:10;" d="M 27.089844 125.394531 L 89.132813 125.394531 L 89.132813 16.667969 L 27.089844 16.667969 Z M 27.089844 125.394531 "/>
<path style=" stroke:none;fill-rule:nonzero;fill:rgb(82.745098%,82.745098%,82.745098%);fill-opacity:1;" d="M 104.644531 415.332031 L 166.6875 415.332031 L 166.6875 315.667969 L 104.644531 315.667969 Z M 104.644531 415.332031 "/>
<path style="fill:none;stroke-width:2.25;stroke-linecap:butt;stroke-linejoin:round;stroke:rgb(0%,0%,0%);stroke-opacity:1;stroke-miterlimit:10;" d="M 104.644531 340.582031 L 166.6875 340.582031 "/>
<path style="fill:none;stroke-width:0.75;stroke-linecap:round;stroke-linejoin:round;stroke:rgb(0%,0%,0%);stroke-opacity:1;stroke-dasharray:3,3;stroke-miterlimit:10;" d="M 135.667969 415.332031 L 135.667969 415.332031 "/>
<path style="fill:none;stroke-width:0.75;stroke-linecap:round;stroke-linejoin:round;stroke:rgb(0%,0%,0%);stroke-opacity:1;stroke-dasharray:3,3;stroke-miterlimit:10;" d="M 135.667969 205.507813 L 135.667969 315.667969 "/>
<path style="fill:none;stroke-width:0.75;stroke-linecap:round;stroke-linejoin:round;stroke:rgb(0%,0%,0%);stroke-opacity:1;stroke-miterlimit:10;" d="M 120.15625 415.332031 L 151.179688 415.332031 "/>
<path style="fill:none;stroke-width:0.75;stroke-linecap:round;stroke-linejoin:round;stroke:rgb(0%,0%,0%);stroke-opacity:1;stroke-miterlimit:10;" d="M 120.15625 205.507813 L 151.179688 205.507813 "/>
<path style="fill:none;stroke-width:0.75;stroke-linecap:round;stroke-linejoin:round;stroke:rgb(0%,0%,0%);stroke-opacity:1;stroke-miterlimit:10;" d="M 104.644531 415.332031 L 166.6875 415.332031 L 166.6875 315.667969 L 104.644531 315.667969 Z M 104.644531 415.332031 "/>
<path style="fill:none;stroke-width:2.25;stroke-linecap:butt;stroke-linejoin:round;stroke:rgb(0%,0%,0%);stroke-opacity:1;stroke-miterlimit:10;" d="M 182.199219 415.332031 L 244.246094 415.332031 "/>
<path style="fill:none;stroke-width:0.75;stroke-linecap:round;stroke-linejoin:round;stroke:rgb(0%,0%,0%);stroke-opacity:1;stroke-dasharray:3,3;stroke-miterlimit:10;" d="M 213.222656 415.332031 L 213.222656 415.332031 "/>
<path style="fill:none;stroke-width:0.75;stroke-linecap:round;stroke-linejoin:round;stroke:rgb(0%,0%,0%);stroke-opacity:1;stroke-dasharray:3,3;stroke-miterlimit:10;" d="M 213.222656 415.332031 L 213.222656 415.332031 "/>
<path style="fill:none;stroke-width:0.75;stroke-linecap:round;stroke-linejoin:round;stroke:rgb(0%,0%,0%);stroke-opacity:1;stroke-miterlimit:10;" d="M 197.710938 415.332031 L 228.734375 415.332031 "/>
<path style="fill:none;stroke-width:0.75;stroke-linecap:round;stroke-linejoin:round;stroke:rgb(0%,0%,0%);stroke-opacity:1;stroke-miterlimit:10;" d="M 197.710938 415.332031 L 228.734375 415.332031 "/>
<path style="fill:none;stroke-width:0.75;stroke-linecap:round;stroke-linejoin:round;stroke:rgb(0%,0%,0%);stroke-opacity:1;stroke-miterlimit:10;" d="M 182.199219 415.332031 L 244.246094 415.332031 Z M 182.199219 415.332031 "/>
<path style="fill:none;stroke-width:2.25;stroke-linecap:butt;stroke-linejoin:round;stroke:rgb(0%,0%,0%);stroke-opacity:1;stroke-miterlimit:10;" d="M 259.753906 415.332031 L 321.800781 415.332031 "/>
<path style="fill:none;stroke-width:0.75;stroke-linecap:round;stroke-linejoin:round;stroke:rgb(0%,0%,0%);stroke-opacity:1;stroke-dasharray:3,3;stroke-miterlimit:10;" d="M 290.777344 415.332031 L 290.777344 415.332031 "/>
<path style="fill:none;stroke-width:0.75;stroke-linecap:round;stroke-linejoin:round;stroke:rgb(0%,0%,0%);stroke-opacity:1;stroke-dasharray:3,3;stroke-miterlimit:10;" d="M 290.777344 415.332031 L 290.777344 415.332031 "/>
<path style="fill:none;stroke-width:0.75;stroke-linecap:round;stroke-linejoin:round;stroke:rgb(0%,0%,0%);stroke-opacity:1;stroke-miterlimit:10;" d="M 275.265625 415.332031 L 306.289063 415.332031 "/>
<path style="fill:none;stroke-width:0.75;stroke-linecap:round;stroke-linejoin:round;stroke:rgb(0%,0%,0%);stroke-opacity:1;stroke-miterlimit:10;" d="M 275.265625 415.332031 L 306.289063 415.332031 "/>
<path style="fill:none;stroke-width:0.75;stroke-linecap:round;stroke-linejoin:round;stroke:rgb(0%,0%,0%);stroke-opacity:1;stroke-miterlimit:10;" d="M 259.753906 415.332031 L 321.800781 415.332031 Z M 259.753906 415.332031 "/>
<path style="fill:none;stroke-width:2.25;stroke-linecap:butt;stroke-linejoin:round;stroke:rgb(0%,0%,0%);stroke-opacity:1;stroke-miterlimit:10;" d="M 337.3125 415.332031 L 399.355469 415.332031 "/>
<path style="fill:none;stroke-width:0.75;stroke-linecap:round;stroke-linejoin:round;stroke:rgb(0%,0%,0%);stroke-opacity:1;stroke-dasharray:3,3;stroke-miterlimit:10;" d="M 368.332031 415.332031 L 368.332031 415.332031 "/>
<path style="fill:none;stroke-width:0.75;stroke-linecap:round;stroke-linejoin:round;stroke:rgb(0%,0%,0%);stroke-opacity:1;stroke-dasharray:3,3;stroke-miterlimit:10;" d="M 368.332031 415.332031 L 368.332031 415.332031 "/>
<path style="fill:none;stroke-width:0.75;stroke-linecap:round;stroke-linejoin:round;stroke:rgb(0%,0%,0%);stroke-opacity:1;stroke-miterlimit:10;" d="M 352.820313 415.332031 L 383.84375 415.332031 "/>
<path style="fill:none;stroke-width:0.75;stroke-linecap:round;stroke-linejoin:round;stroke:rgb(0%,0%,0%);stroke-opacity:1;stroke-miterlimit:10;" d="M 352.820313 415.332031 L 383.84375 415.332031 "/>
<path style="fill:none;stroke-width:0.75;stroke-linecap:round;stroke-linejoin:round;stroke:rgb(0%,0%,0%);stroke-opacity:1;stroke-miterlimit:10;" d="M 337.3125 415.332031 L 399.355469 415.332031 Z M 337.3125 415.332031 "/>
<path style="fill:none;stroke-width:2.25;stroke-linecap:butt;stroke-linejoin:round;stroke:rgb(0%,0%,0%);stroke-opacity:1;stroke-miterlimit:10;" d="M 414.867188 415.332031 L 476.910156 415.332031 "/>
<path style="fill:none;stroke-width:0.75;stroke-linecap:round;stroke-linejoin:round;stroke:rgb(0%,0%,0%);stroke-opacity:1;stroke-dasharray:3,3;stroke-miterlimit:10;" d="M 445.890625 415.332031 L 445.890625 415.332031 "/>
<path style="fill:none;stroke-width:0.75;stroke-linecap:round;stroke-linejoin:round;stroke:rgb(0%,0%,0%);stroke-opacity:1;stroke-dasharray:3,3;stroke-miterlimit:10;" d="M 445.890625 415.332031 L 445.890625 415.332031 "/>
<path style="fill:none;stroke-width:0.75;stroke-linecap:round;stroke-linejoin:round;stroke:rgb(0%,0%,0%);stroke-opacity:1;stroke-miterlimit:10;" d="M 430.378906 415.332031 L 461.398438 415.332031 "/>
<path style="fill:none;stroke-width:0.75;stroke-linecap:round;stroke-linejoin:round;stroke:rgb(0%,0%,0%);stroke-opacity:1;stroke-miterlimit:10;" d="M 430.378906 415.332031 L 461.398438 415.332031 "/>
<path style="fill:none;stroke-width:0.75;stroke-linecap:round;stroke-linejoin:round;stroke:rgb(0%,0%,0%);stroke-opacity:1;stroke-miterlimit:10;" d="M 414.867188 415.332031 L 476.910156 415.332031 Z M 414.867188 415.332031 "/>
<path style="fill:none;stroke-width:0.75;stroke-linecap:round;stroke-linejoin:round;stroke:rgb(0%,0%,0%);stroke-opacity:1;stroke-miterlimit:10;" d="M 58.109375 431.28125 L 445.890625 431.28125 "/>
<path style="fill:none;stroke-width:0.75;stroke-linecap:round;stroke-linejoin:round;stroke:rgb(0%,0%,0%);stroke-opacity:1;stroke-miterlimit:10;" d="M 58.109375 431.28125 L 58.109375 438.480469 "/>
<path style="fill:none;stroke-width:0.75;stroke-linecap:round;stroke-linejoin:round;stroke:rgb(0%,0%,0%);stroke-opacity:1;stroke-miterlimit:10;" d="M 135.667969 431.28125 L 135.667969 438.480469 "/>
<path style="fill:none;stroke-width:0.75;stroke-linecap:round;stroke-linejoin:round;stroke:rgb(0%,0%,0%);stroke-opacity:1;stroke-miterlimit:10;" d="M 213.222656 431.28125 L 213.222656 438.480469 "/>
<path style="fill:none;stroke-width:0.75;stroke-linecap:round;stroke-linejoin:round;stroke:rgb(0%,0%,0%);stroke-opacity:1;stroke-miterlimit:10;" d="M 290.777344 431.28125 L 290.777344 438.480469 "/>
<path style="fill:none;stroke-width:0.75;stroke-linecap:round;stroke-linejoin:round;stroke:rgb(0%,0%,0%);stroke-opacity:1;stroke-miterlimit:10;" d="M 368.332031 431.28125 L 368.332031 438.480469 "/>
<path style="fill:none;stroke-width:0.75;stroke-linecap:round;stroke-linejoin:round;stroke:rgb(0%,0%,0%);stroke-opacity:1;stroke-miterlimit:10;" d="M 445.890625 431.28125 L 445.890625 438.480469 "/>
<path style="fill:none;stroke-width:0.75;stroke-linecap:round;stroke-linejoin:round;stroke:rgb(0%,0%,0%);stroke-opacity:1;stroke-miterlimit:10;" d="M 0.71875 415.332031 L 0.71875 16.667969 "/>
<path style="fill:none;stroke-width:0.75;stroke-linecap:round;stroke-linejoin:round;stroke:rgb(0%,0%,0%);stroke-opacity:1;stroke-miterlimit:10;" d="M 0.71875 415.332031 L -6.480469 415.332031 "/>
<path style="fill:none;stroke-width:0.75;stroke-linecap:round;stroke-linejoin:round;stroke:rgb(0%,0%,0%);stroke-opacity:1;stroke-miterlimit:10;" d="M 0.71875 335.601563 L -6.480469 335.601563 "/>
<path style="fill:none;stroke-width:0.75;stroke-linecap:round;stroke-linejoin:round;stroke:rgb(0%,0%,0%);stroke-opacity:1;stroke-miterlimit:10;" d="M 0.71875 255.867188 L -6.480469 255.867188 "/>
<path style="fill:none;stroke-width:0.75;stroke-linecap:round;stroke-linejoin:round;stroke:rgb(0%,0%,0%);stroke-opacity:1;stroke-miterlimit:10;" d="M 0.71875 176.132813 L -6.480469 176.132813 "/>
<path style="fill:none;stroke-width:0.75;stroke-linecap:round;stroke-linejoin:round;stroke:rgb(0%,0%,0%);stroke-opacity:1;stroke-miterlimit:10;" d="M 0.71875 96.398438 L -6.480469 96.398438 "/>
<path style="fill:none;stroke-width:0.75;stroke-linecap:round;stroke-linejoin:round;stroke:rgb(0%,0%,0%);stroke-opacity:1;stroke-miterlimit:10;" d="M 0.71875 16.667969 L -6.480469 16.667969 "/>
<path style="fill:none;stroke-width:0.75;stroke-linecap:round;stroke-linejoin:round;stroke:rgb(0%,0%,0%);stroke-opacity:1;stroke-miterlimit:10;" d="M 0.71875 431.28125 L 503.28125 431.28125 L 503.28125 0.71875 L 0.71875 0.71875 Z M 0.71875 431.28125 "/>
<path style="fill:none;stroke-width:0.75;stroke-linecap:round;stroke-linejoin:round;stroke:rgb(0%,0%,0%);stroke-opacity:1;stroke-miterlimit:10;" d="M 60.136719 259.605469 C 60.136719 262.304688 56.085938 262.304688 56.085938 259.605469 C 56.085938 256.902344 60.136719 256.902344 60.136719 259.605469 "/>
<path style="fill:none;stroke-width:0.75;stroke-linecap:round;stroke-linejoin:round;stroke:rgb(0%,0%,0%);stroke-opacity:1;stroke-miterlimit:10;" d="M 137.691406 415.332031 C 137.691406 418.035156 133.640625 418.035156 133.640625 415.332031 C 133.640625 412.632813 137.691406 412.632813 137.691406 415.332031 "/>
<path style="fill:none;stroke-width:0.75;stroke-linecap:round;stroke-linejoin:round;stroke:rgb(0%,0%,0%);stroke-opacity:1;stroke-miterlimit:10;" d="M 215.246094 415.332031 C 215.246094 418.035156 211.195313 418.035156 211.195313 415.332031 C 211.195313 412.632813 215.246094 412.632813 215.246094 415.332031 "/>
<path style="fill:none;stroke-width:0.75;stroke-linecap:round;stroke-linejoin:round;stroke:rgb(0%,0%,0%);stroke-opacity:1;stroke-miterlimit:10;" d="M 292.804688 415.332031 C 292.804688 418.035156 288.753906 418.035156 288.753906 415.332031 C 288.753906 412.632813 292.804688 412.632813 292.804688 415.332031 "/>
<path style="fill:none;stroke-width:0.75;stroke-linecap:round;stroke-linejoin:round;stroke:rgb(0%,0%,0%);stroke-opacity:1;stroke-miterlimit:10;" d="M 370.359375 415.332031 C 370.359375 418.035156 366.308594 418.035156 366.308594 415.332031 C 366.308594 412.632813 370.359375 412.632813 370.359375 415.332031 "/>
<path style="fill:none;stroke-width:0.75;stroke-linecap:round;stroke-linejoin:round;stroke:rgb(0%,0%,0%);stroke-opacity:1;stroke-miterlimit:10;" d="M 447.914063 415.332031 C 447.914063 418.035156 443.863281 418.035156 443.863281 415.332031 C 443.863281 412.632813 447.914063 412.632813 447.914063 415.332031 "/>
<path style="fill:none;stroke-width:0.75;stroke-linecap:round;stroke-linejoin:round;stroke:rgb(0%,0%,0%);stroke-opacity:1;stroke-miterlimit:10;" d="M 60.136719 16.667969 C 60.136719 19.367188 56.085938 19.367188 56.085938 16.667969 C 56.085938 13.964844 60.136719 13.964844 60.136719 16.667969 "/>
<path style="fill:none;stroke-width:0.75;stroke-linecap:round;stroke-linejoin:round;stroke:rgb(0%,0%,0%);stroke-opacity:1;stroke-miterlimit:10;" d="M 137.691406 216 C 137.691406 218.699219 133.640625 218.699219 133.640625 216 C 133.640625 213.300781 137.691406 213.300781 137.691406 216 "/>
<path style="fill:none;stroke-width:0.75;stroke-linecap:round;stroke-linejoin:round;stroke:rgb(0%,0%,0%);stroke-opacity:1;stroke-miterlimit:10;" d="M 215.246094 370.234375 C 215.246094 372.933594 211.195313 372.933594 211.195313 370.234375 C 211.195313 367.535156 215.246094 367.535156 215.246094 370.234375 "/>
<path style="fill:none;stroke-width:0.75;stroke-linecap:round;stroke-linejoin:round;stroke:rgb(0%,0%,0%);stroke-opacity:1;stroke-miterlimit:10;" d="M 292.804688 404.867188 C 292.804688 407.566406 288.753906 407.566406 288.753906 404.867188 C 288.753906 402.167969 292.804688 402.167969 292.804688 404.867188 "/>
<path style="fill:none;stroke-width:0.75;stroke-linecap:round;stroke-linejoin:round;stroke:rgb(0%,0%,0%);stroke-opacity:1;stroke-miterlimit:10;" d="M 370.359375 415.332031 C 370.359375 418.035156 366.308594 418.035156 366.308594 415.332031 C 366.308594 412.632813 370.359375 412.632813 370.359375 415.332031 "/>
<path style="fill:none;stroke-width:0.75;stroke-linecap:round;stroke-linejoin:round;stroke:rgb(0%,0%,0%);stroke-opacity:1;stroke-miterlimit:10;" d="M 447.914063 415.332031 C 447.914063 418.035156 443.863281 418.035156 443.863281 415.332031 C 443.863281 412.632813 447.914063 412.632813 447.914063 415.332031 "/>
<path style="fill:none;stroke-width:0.75;stroke-linecap:round;stroke-linejoin:round;stroke:rgb(74.901961%,74.901961%,74.901961%);stroke-opacity:1;stroke-miterlimit:10;" d="M 58.109375 259.605469 L 135.667969 415.332031 L 445.890625 415.332031 "/>
<path style="fill:none;stroke-width:0.75;stroke-linecap:round;stroke-linejoin:round;stroke:rgb(74.901961%,74.901961%,74.901961%);stroke-opacity:1;stroke-miterlimit:10;" d="M 58.109375 16.667969 L 135.667969 216 L 213.222656 370.234375 L 290.777344 404.867188 L 368.332031 415.332031 L 445.890625 415.332031 "/>
<path style=" stroke:none;fill-rule:nonzero;fill:rgb(0%,0%,0%);fill-opacity:1;" d="M 60.136719 335.601563 C 60.136719 338.300781 56.085938 338.300781 56.085938 335.601563 C 56.085938 332.898438 60.136719 332.898438 60.136719 335.601563 "/>
<path style=" stroke:none;fill-rule:nonzero;fill:rgb(0%,0%,0%);fill-opacity:1;" d="M 137.691406 176.132813 C 137.691406 178.832031 133.640625 178.832031 133.640625 176.132813 C 133.640625 173.433594 137.691406 173.433594 137.691406 176.132813 "/>
<path style=" stroke:none;fill-rule:nonzero;fill:rgb(0%,0%,0%);fill-opacity:1;" d="M 215.246094 335.601563 C 215.246094 338.300781 211.195313 338.300781 211.195313 335.601563 C 211.195313 332.898438 215.246094 332.898438 215.246094 335.601563 "/>
<path style=" stroke:none;fill-rule:nonzero;fill:rgb(0%,0%,0%);fill-opacity:1;" d="M 292.804688 415.332031 C 292.804688 418.035156 288.753906 418.035156 288.753906 415.332031 C 288.753906 412.632813 292.804688 412.632813 292.804688 415.332031 "/>
<path style=" stroke:none;fill-rule:nonzero;fill:rgb(0%,0%,0%);fill-opacity:1;" d="M 370.359375 415.332031 C 370.359375 418.035156 366.308594 418.035156 366.308594 415.332031 C 366.308594 412.632813 370.359375 412.632813 370.359375 415.332031 "/>
<path style=" stroke:none;fill-rule:nonzero;fill:rgb(0%,0%,0%);fill-opacity:1;" d="M 447.914063 415.332031 C 447.914063 418.035156 443.863281 418.035156 443.863281 415.332031 C 443.863281 412.632813 447.914063 412.632813 447.914063 415.332031 "/>
<path style="fill:none;stroke-width:2.25;stroke-linecap:round;stroke-linejoin:round;stroke:rgb(0%,0%,0%);stroke-opacity:1;stroke-miterlimit:10;" d="M 58.109375 335.601563 L 135.667969 176.132813 L 213.222656 335.601563 L 290.777344 415.332031 L 445.890625 415.332031 "/>
<path style=" stroke:none;fill-rule:nonzero;fill:rgb(0%,0%,100%);fill-opacity:1;" d="M 52.710938 88.492188 L 58.109375 83.09375 L 63.511719 88.492188 L 58.109375 93.894531 Z M 52.710938 88.492188 "/>
<path style=" stroke:none;fill-rule:nonzero;fill:rgb(0%,0%,100%);fill-opacity:1;" d="M 130.265625 349.335938 L 135.667969 343.9375 L 141.066406 349.335938 L 135.667969 354.738281 Z M 130.265625 349.335938 "/>
<path style=" stroke:none;fill-rule:nonzero;fill:rgb(0%,0%,100%);fill-opacity:1;" d="M 207.820313 410.453125 L 213.222656 405.054688 L 218.621094 410.453125 L 213.222656 415.855469 Z M 207.820313 410.453125 "/>
<path style=" stroke:none;fill-rule:nonzero;fill:rgb(0%,0%,100%);fill-opacity:1;" d="M 285.378906 414.382813 L 290.777344 408.980469 L 296.179688 414.382813 L 290.777344 419.78125 Z M 285.378906 414.382813 "/>
<path style=" stroke:none;fill-rule:nonzero;fill:rgb(0%,0%,100%);fill-opacity:1;" d="M 362.933594 415.332031 L 368.332031 409.933594 L 373.734375 415.332031 L 368.332031 420.734375 Z M 362.933594 415.332031 "/>
<path style=" stroke:none;fill-rule:nonzero;fill:rgb(0%,0%,100%);fill-opacity:1;" d="M 440.488281 415.332031 L 445.890625 409.933594 L 451.289063 415.332031 L 445.890625 420.734375 Z M 440.488281 415.332031 "/>
</g>
</svg>
