<?xml version="1.0" encoding="UTF-8"?>
<svg xmlns="http://www.w3.org/2000/svg" xmlns:xlink="http://www.w3.org/1999/xlink" width="504" height="432" viewBox="0 0 504 432">
<defs>
<g>
<g id="glyph-0-0">
<path d="M 6.496094 0 L 4.855469 0 L 4.855469 -3.164062 C 4.855469 -3.832031 4.820312 -4.265625 4.75 -4.460938 C 4.679688 -4.65625 4.566406 -4.8125 4.410156 -4.917969 C 4.25 -5.027344 4.0625 -5.082031 3.839844 -5.082031 C 3.554688 -5.082031 3.300781 -5.003906 3.074219 -4.851562 C 2.851562 -4.695312 2.695312 -4.488281 2.613281 -4.230469 C 2.527344 -3.972656 2.484375 -3.5 2.484375 -2.808594 L 2.484375 0 L 0.847656 0 L 0.847656 -6.199219 L 2.371094 -6.199219 L 2.371094 -5.289062 C 2.910156 -5.988281 3.589844 -6.335938 4.410156 -6.335938 C 4.773438 -6.335938 5.105469 -6.273438 5.402344 -6.140625 C 5.703125 -6.011719 5.929688 -5.84375 6.082031 -5.644531 C 6.238281 -5.441406 6.34375 -5.210938 6.40625 -4.953125 C 6.464844 -4.699219 6.496094 -4.332031 6.496094 -3.851562 Z M 6.496094 0 "/>
</g>
<g id="glyph-0-1">
<path d="M 4.445312 -1.972656 L 6.082031 -1.699219 C 5.871094 -1.097656 5.539062 -0.644531 5.085938 -0.328125 C 4.632812 -0.015625 4.066406 0.140625 3.386719 0.140625 C 2.308594 0.140625 1.507812 -0.210938 0.992188 -0.917969 C 0.582031 -1.480469 0.378906 -2.191406 0.378906 -3.050781 C 0.378906 -4.078125 0.648438 -4.882812 1.183594 -5.464844 C 1.722656 -6.046875 2.402344 -6.335938 3.222656 -6.335938 C 4.144531 -6.335938 4.871094 -6.035156 5.402344 -5.425781 C 5.9375 -4.816406 6.191406 -3.882812 6.167969 -2.625 L 2.058594 -2.625 C 2.070312 -2.140625 2.203125 -1.761719 2.457031 -1.492188 C 2.710938 -1.21875 3.023438 -1.085938 3.402344 -1.085938 C 3.660156 -1.085938 3.875 -1.15625 4.050781 -1.296875 C 4.226562 -1.4375 4.359375 -1.660156 4.445312 -1.972656 M 4.539062 -3.628906 C 4.527344 -4.105469 4.40625 -4.464844 4.171875 -4.710938 C 3.9375 -4.960938 3.65625 -5.082031 3.320312 -5.082031 C 2.960938 -5.082031 2.667969 -4.953125 2.433594 -4.691406 C 2.199219 -4.429688 2.085938 -4.078125 2.089844 -3.628906 Z M 4.539062 -3.628906 "/>
</g>
<g id="glyph-0-2">
<path d="M 3.699219 -6.199219 L 3.699219 -4.890625 L 2.578125 -4.890625 L 2.578125 -2.394531 C 2.578125 -1.886719 2.589844 -1.59375 2.613281 -1.507812 C 2.632812 -1.425781 2.679688 -1.355469 2.757812 -1.300781 C 2.832031 -1.246094 2.925781 -1.21875 3.035156 -1.21875 C 3.1875 -1.21875 3.40625 -1.273438 3.695312 -1.378906 L 3.835938 -0.105469 C 3.453125 0.0585938 3.019531 0.140625 2.539062 0.140625 C 2.242188 0.140625 1.976562 0.0898438 1.738281 -0.0078125 C 1.5 -0.109375 1.328125 -0.238281 1.214844 -0.394531 C 1.105469 -0.550781 1.027344 -0.765625 0.984375 -1.03125 C 0.953125 -1.222656 0.933594 -1.609375 0.933594 -2.1875 L 0.933594 -4.890625 L 0.179688 -4.890625 L 0.179688 -6.199219 L 0.933594 -6.199219 L 0.933594 -7.429688 L 2.578125 -8.386719 L 2.578125 -6.199219 Z M 3.699219 -6.199219 "/>
</g>
<g id="glyph-0-3">
<path d="M -0.109375 2.363281 L -0.109375 1.300781 L 6.707031 1.300781 L 6.707031 2.363281 Z M -0.109375 2.363281 "/>
</g>
<g id="glyph-0-4">
<path d="M 0.28125 -1.769531 L 1.925781 -2.019531 C 1.996094 -1.699219 2.136719 -1.457031 2.351562 -1.292969 C 2.566406 -1.128906 2.867188 -1.042969 3.25 -1.042969 C 3.675781 -1.042969 3.992188 -1.121094 4.207031 -1.277344 C 4.351562 -1.386719 4.421875 -1.53125 4.421875 -1.714844 C 4.421875 -1.839844 4.382812 -1.945312 4.308594 -2.023438 C 4.226562 -2.101562 4.042969 -2.175781 3.757812 -2.242188 C 2.433594 -2.53125 1.597656 -2.800781 1.242188 -3.039062 C 0.753906 -3.375 0.507812 -3.839844 0.507812 -4.433594 C 0.507812 -4.972656 0.71875 -5.421875 1.144531 -5.789062 C 1.566406 -6.15625 2.226562 -6.335938 3.117188 -6.335938 C 3.964844 -6.335938 4.59375 -6.199219 5.007812 -5.921875 C 5.417969 -5.648438 5.703125 -5.238281 5.859375 -4.699219 L 4.3125 -4.410156 C 4.246094 -4.652344 4.121094 -4.839844 3.9375 -4.964844 C 3.75 -5.09375 3.488281 -5.160156 3.144531 -5.160156 C 2.714844 -5.160156 2.40625 -5.097656 2.21875 -4.976562 C 2.09375 -4.890625 2.03125 -4.78125 2.03125 -4.644531 C 2.03125 -4.527344 2.085938 -4.429688 2.195312 -4.347656 C 2.34375 -4.238281 2.851562 -4.085938 3.726562 -3.886719 C 4.601562 -3.6875 5.210938 -3.445312 5.554688 -3.15625 C 5.898438 -2.867188 6.070312 -2.457031 6.070312 -1.9375 C 6.070312 -1.371094 5.832031 -0.882812 5.355469 -0.472656 C 4.882812 -0.0625 4.179688 0.140625 3.25 0.140625 C 2.40625 0.140625 1.738281 -0.03125 1.246094 -0.375 C 0.753906 -0.714844 0.433594 -1.179688 0.28125 -1.769531 Z M 0.28125 -1.769531 "/>
</g>
<g id="glyph-0-5">
<path d="M 2.082031 -4.308594 L 0.59375 -4.574219 C 0.761719 -5.175781 1.050781 -5.617188 1.457031 -5.90625 C 1.867188 -6.195312 2.472656 -6.335938 3.28125 -6.335938 C 4.011719 -6.335938 4.554688 -6.25 4.914062 -6.078125 C 5.273438 -5.90625 5.523438 -5.683594 5.667969 -5.417969 C 5.816406 -5.152344 5.886719 -4.664062 5.886719 -3.949219 L 5.871094 -2.035156 C 5.871094 -1.492188 5.898438 -1.089844 5.949219 -0.832031 C 6.003906 -0.574219 6.101562 -0.296875 6.246094 0 L 4.621094 0 C 4.578125 -0.109375 4.527344 -0.269531 4.464844 -0.484375 C 4.4375 -0.582031 4.417969 -0.644531 4.40625 -0.675781 C 4.125 -0.40625 3.828125 -0.199219 3.507812 -0.0625 C 3.1875 0.0703125 2.847656 0.140625 2.484375 0.140625 C 1.847656 0.140625 1.34375 -0.03125 0.976562 -0.378906 C 0.609375 -0.726562 0.425781 -1.164062 0.425781 -1.691406 C 0.425781 -2.042969 0.507812 -2.355469 0.675781 -2.628906 C 0.84375 -2.902344 1.078125 -3.113281 1.378906 -3.257812 C 1.683594 -3.40625 2.117188 -3.53125 2.683594 -3.640625 C 3.449219 -3.785156 3.980469 -3.917969 4.277344 -4.042969 L 4.277344 -4.207031 C 4.277344 -4.523438 4.199219 -4.746094 4.042969 -4.882812 C 3.890625 -5.015625 3.59375 -5.082031 3.164062 -5.082031 C 2.871094 -5.082031 2.644531 -5.027344 2.480469 -4.910156 C 2.316406 -4.796875 2.183594 -4.59375 2.082031 -4.308594 M 4.277344 -2.976562 C 4.066406 -2.90625 3.734375 -2.824219 3.28125 -2.726562 C 2.824219 -2.628906 2.527344 -2.53125 2.386719 -2.4375 C 2.171875 -2.289062 2.066406 -2.09375 2.066406 -1.863281 C 2.066406 -1.632812 2.152344 -1.433594 2.324219 -1.265625 C 2.492188 -1.097656 2.710938 -1.015625 2.976562 -1.015625 C 3.273438 -1.015625 3.554688 -1.113281 3.824219 -1.308594 C 4.019531 -1.457031 4.152344 -1.636719 4.214844 -1.851562 C 4.257812 -1.988281 4.277344 -2.257812 4.277344 -2.648438 Z M 4.277344 -2.976562 "/>
</g>
<g id="glyph-0-6">
<path d="M 2.5625 0 L 0.0625 -6.199219 L 1.785156 -6.199219 L 2.953125 -3.035156 L 3.292969 -1.976562 C 3.382812 -2.246094 3.4375 -2.425781 3.460938 -2.507812 C 3.515625 -2.683594 3.574219 -2.859375 3.636719 -3.035156 L 4.816406 -6.199219 L 6.5 -6.199219 L 4.039062 0 Z M 2.5625 0 "/>
</g>
<g id="glyph-0-7">
</g>
<g id="glyph-0-8">
<path d="M 0.496094 -4.761719 L 0.496094 -6.269531 L 6.476562 -6.269531 L 6.476562 -4.761719 L 0.496094 -4.761719 M 0.496094 -2.171875 L 0.496094 -3.683594 L 6.476562 -3.683594 L 6.476562 -2.171875 Z M 0.496094 -2.171875 "/>
</g>
<g id="glyph-0-9">
<path d="M 0.53125 -2.199219 L 2.164062 -2.371094 C 2.210938 -2 2.351562 -1.707031 2.578125 -1.492188 C 2.808594 -1.273438 3.074219 -1.167969 3.375 -1.167969 C 3.714844 -1.167969 4.003906 -1.304688 4.242188 -1.585938 C 4.480469 -1.863281 4.597656 -2.28125 4.597656 -2.84375 C 4.597656 -3.367188 4.480469 -3.761719 4.246094 -4.023438 C 4.011719 -4.285156 3.703125 -4.417969 3.328125 -4.417969 C 2.855469 -4.417969 2.433594 -4.210938 2.058594 -3.792969 L 0.730469 -3.984375 L 1.570312 -8.4375 L 5.90625 -8.4375 L 5.90625 -6.902344 L 2.8125 -6.902344 L 2.554688 -5.449219 C 2.921875 -5.632812 3.296875 -5.726562 3.675781 -5.726562 C 4.402344 -5.726562 5.019531 -5.460938 5.527344 -4.929688 C 6.03125 -4.402344 6.285156 -3.714844 6.285156 -2.871094 C 6.285156 -2.167969 6.082031 -1.539062 5.671875 -0.984375 C 5.117188 -0.230469 4.34375 0.144531 3.355469 0.144531 C 2.566406 0.144531 1.921875 -0.0664062 1.425781 -0.488281 C 0.925781 -0.914062 0.628906 -1.484375 0.53125 -2.199219 Z M 0.53125 -2.199219 "/>
</g>
<g id="glyph-0-10">
<path d="M 3.28125 -8.589844 C 4.109375 -8.589844 4.757812 -8.292969 5.222656 -7.703125 C 5.78125 -7.003906 6.058594 -5.839844 6.058594 -4.21875 C 6.058594 -2.601562 5.777344 -1.4375 5.21875 -0.730469 C 4.753906 -0.144531 4.109375 0.144531 3.28125 0.144531 C 2.445312 0.144531 1.777344 -0.175781 1.265625 -0.8125 C 0.757812 -1.453125 0.5 -2.59375 0.5 -4.238281 C 0.5 -5.847656 0.78125 -7.007812 1.34375 -7.714844 C 1.804688 -8.296875 2.449219 -8.589844 3.28125 -8.589844 M 3.28125 -7.230469 C 3.082031 -7.230469 2.90625 -7.167969 2.75 -7.042969 C 2.59375 -6.914062 2.472656 -6.6875 2.386719 -6.359375 C 2.273438 -5.9375 2.21875 -5.222656 2.21875 -4.21875 C 2.21875 -3.214844 2.269531 -2.527344 2.371094 -2.152344 C 2.46875 -1.773438 2.597656 -1.523438 2.75 -1.402344 C 2.90625 -1.277344 3.082031 -1.214844 3.28125 -1.214844 C 3.476562 -1.214844 3.65625 -1.277344 3.8125 -1.402344 C 3.964844 -1.53125 4.085938 -1.757812 4.171875 -2.082031 C 4.285156 -2.503906 4.34375 -3.214844 4.34375 -4.21875 C 4.34375 -5.222656 4.292969 -5.914062 4.191406 -6.289062 C 4.089844 -6.664062 3.960938 -6.914062 3.808594 -7.042969 C 3.652344 -7.167969 3.476562 -7.230469 3.28125 -7.230469 Z M 3.28125 -7.230469 "/>
</g>
<g id="glyph-0-11">
<path d="M 6.046875 -1.523438 L 6.046875 0 L 0.296875 0 C 0.359375 -0.574219 0.546875 -1.121094 0.859375 -1.636719 C 1.167969 -2.152344 1.785156 -2.835938 2.703125 -3.6875 C 3.441406 -4.375 3.894531 -4.84375 4.0625 -5.089844 C 4.289062 -5.425781 4.398438 -5.761719 4.398438 -6.09375 C 4.398438 -6.457031 4.300781 -6.738281 4.105469 -6.9375 C 3.910156 -7.132812 3.636719 -7.230469 3.292969 -7.230469 C 2.949219 -7.230469 2.675781 -7.128906 2.472656 -6.921875 C 2.273438 -6.714844 2.15625 -6.371094 2.125 -5.894531 L 0.488281 -6.058594 C 0.585938 -6.960938 0.894531 -7.609375 1.40625 -8 C 1.921875 -8.394531 2.5625 -8.589844 3.332031 -8.589844 C 4.175781 -8.589844 4.839844 -8.363281 5.324219 -7.90625 C 5.804688 -7.453125 6.046875 -6.886719 6.046875 -6.210938 C 6.046875 -5.824219 5.976562 -5.457031 5.839844 -5.109375 C 5.699219 -4.761719 5.480469 -4.394531 5.183594 -4.015625 C 4.984375 -3.761719 4.625 -3.398438 4.109375 -2.921875 C 3.589844 -2.449219 3.261719 -2.132812 3.125 -1.976562 C 2.988281 -1.824219 2.875 -1.671875 2.789062 -1.523438 Z M 6.046875 -1.523438 "/>
</g>
<g id="glyph-1-0">
<path d="M 0.316406 -2.140625 L 0.316406 -3.019531 L 3.003906 -3.019531 L 3.003906 -2.140625 Z M 0.316406 -2.140625 "/>
</g>
<g id="glyph-1-1">
<path d="M 0.414062 -3.515625 C 0.414062 -4.359375 0.5 -5.039062 0.671875 -5.550781 C 0.847656 -6.066406 1.105469 -6.460938 1.445312 -6.742188 C 1.789062 -7.019531 2.21875 -7.160156 2.738281 -7.160156 C 3.121094 -7.160156 3.457031 -7.082031 3.746094 -6.929688 C 4.035156 -6.773438 4.273438 -6.550781 4.460938 -6.261719 C 4.648438 -5.972656 4.796875 -5.617188 4.902344 -5.203125 C 5.007812 -4.785156 5.0625 -4.222656 5.0625 -3.515625 C 5.0625 -2.679688 4.976562 -2.003906 4.804688 -1.492188 C 4.632812 -0.976562 4.375 -0.578125 4.035156 -0.300781 C 3.691406 -0.0195312 3.261719 0.121094 2.738281 0.121094 C 2.050781 0.121094 1.511719 -0.125 1.117188 -0.617188 C 0.648438 -1.210938 0.414062 -2.175781 0.414062 -3.515625 M 1.3125 -3.515625 C 1.3125 -2.347656 1.449219 -1.566406 1.722656 -1.179688 C 1.996094 -0.792969 2.335938 -0.597656 2.738281 -0.597656 C 3.140625 -0.597656 3.476562 -0.792969 3.753906 -1.183594 C 4.027344 -1.570312 4.164062 -2.347656 4.164062 -3.515625 C 4.164062 -4.691406 4.027344 -5.46875 3.753906 -5.855469 C 3.476562 -6.242188 3.136719 -6.433594 2.726562 -6.433594 C 2.328125 -6.433594 2.003906 -6.265625 1.765625 -5.921875 C 1.464844 -5.488281 1.3125 -4.6875 1.3125 -3.515625 Z M 1.3125 -3.515625 "/>
</g>
<g id="glyph-1-2">
<path d="M 0.90625 0 L 0.90625 -0.996094 L 1.902344 -0.996094 L 1.902344 0 Z M 0.90625 0 "/>
</g>
<g id="glyph-1-3">
<path d="M 0.414062 -1.867188 L 1.332031 -1.945312 C 1.402344 -1.496094 1.558594 -1.160156 1.808594 -0.9375 C 2.054688 -0.710938 2.355469 -0.597656 2.703125 -0.597656 C 3.125 -0.597656 3.480469 -0.757812 3.773438 -1.074219 C 4.066406 -1.390625 4.210938 -1.8125 4.210938 -2.339844 C 4.210938 -2.839844 4.070312 -3.234375 3.789062 -3.519531 C 3.511719 -3.808594 3.144531 -3.953125 2.6875 -3.953125 C 2.40625 -3.953125 2.152344 -3.890625 1.925781 -3.761719 C 1.699219 -3.632812 1.519531 -3.46875 1.390625 -3.261719 L 0.570312 -3.371094 L 1.257812 -7.03125 L 4.804688 -7.03125 L 4.804688 -6.195312 L 1.960938 -6.195312 L 1.574219 -4.28125 C 2.003906 -4.578125 2.453125 -4.726562 2.921875 -4.726562 C 3.546875 -4.726562 4.070312 -4.511719 4.5 -4.082031 C 4.925781 -3.648438 5.140625 -3.09375 5.140625 -2.417969 C 5.140625 -1.773438 4.953125 -1.214844 4.578125 -0.742188 C 4.121094 -0.167969 3.496094 0.121094 2.703125 0.121094 C 2.054688 0.121094 1.527344 -0.0585938 1.117188 -0.421875 C 0.707031 -0.785156 0.472656 -1.269531 0.414062 -1.867188 Z M 0.414062 -1.867188 "/>
</g>
<g id="glyph-1-4">
<path d="M 3.710938 0 L 2.835938 0 L 2.835938 -5.578125 C 2.625 -5.378906 2.347656 -5.175781 2.007812 -4.976562 C 1.664062 -4.773438 1.355469 -4.625 1.085938 -4.523438 L 1.085938 -5.367188 C 1.574219 -5.597656 2.003906 -5.878906 2.367188 -6.207031 C 2.734375 -6.53125 2.996094 -6.851562 3.148438 -7.160156 L 3.710938 -7.160156 Z M 3.710938 0 "/>
</g>
<g id="glyph-1-5">
<path d="M 5.015625 -0.839844 L 5.015625 0 L 0.300781 0 C 0.296875 -0.210938 0.328125 -0.414062 0.402344 -0.609375 C 0.523438 -0.929688 0.714844 -1.246094 0.980469 -1.554688 C 1.246094 -1.867188 1.625 -2.226562 2.125 -2.636719 C 2.898438 -3.269531 3.421875 -3.773438 3.695312 -4.144531 C 3.96875 -4.515625 4.105469 -4.867188 4.105469 -5.199219 C 4.105469 -5.546875 3.980469 -5.839844 3.734375 -6.078125 C 3.484375 -6.316406 3.160156 -6.433594 2.761719 -6.433594 C 2.339844 -6.433594 2.003906 -6.308594 1.75 -6.054688 C 1.496094 -5.800781 1.371094 -5.453125 1.367188 -5.003906 L 0.46875 -5.097656 C 0.527344 -5.769531 0.761719 -6.28125 1.164062 -6.632812 C 1.5625 -6.984375 2.105469 -7.160156 2.78125 -7.160156 C 3.464844 -7.160156 4.007812 -6.96875 4.40625 -6.589844 C 4.804688 -6.210938 5.003906 -5.742188 5.003906 -5.179688 C 5.003906 -4.894531 4.945312 -4.613281 4.828125 -4.339844 C 4.710938 -4.0625 4.519531 -3.773438 4.25 -3.46875 C 3.976562 -3.164062 3.527344 -2.746094 2.898438 -2.210938 C 2.375 -1.773438 2.035156 -1.472656 1.886719 -1.316406 C 1.738281 -1.160156 1.613281 -1 1.515625 -0.839844 Z M 5.015625 -0.839844 "/>
</g>
<g id="glyph-1-6">
<path d="M 3.21875 0 L 3.21875 -1.707031 L 0.125 -1.707031 L 0.125 -2.507812 L 3.378906 -7.128906 L 4.09375 -7.128906 L 4.09375 -2.507812 L 5.058594 -2.507812 L 5.058594 -1.707031 L 4.09375 -1.707031 L 4.09375 0 L 3.21875 0 M 3.21875 -2.507812 L 3.21875 -5.722656 L 0.988281 -2.507812 Z M 3.21875 -2.507812 "/>
</g>
<g id="glyph-1-7">
<path d="M 4.957031 -5.382812 L 4.085938 -5.316406 C 4.007812 -5.660156 3.898438 -5.910156 3.753906 -6.066406 C 3.519531 -6.3125 3.226562 -6.4375 2.878906 -6.4375 C 2.601562 -6.4375 2.355469 -6.359375 2.144531 -6.207031 C 1.867188 -6.003906 1.652344 -5.710938 1.492188 -5.324219 C 1.335938 -4.941406 1.25 -4.390625 1.246094 -3.675781 C 1.457031 -3.996094 1.714844 -4.234375 2.019531 -4.390625 C 2.324219 -4.546875 2.640625 -4.625 2.976562 -4.625 C 3.558594 -4.625 4.058594 -4.410156 4.46875 -3.980469 C 4.878906 -3.550781 5.082031 -2.996094 5.082031 -2.316406 C 5.082031 -1.867188 4.984375 -1.453125 4.792969 -1.066406 C 4.601562 -0.683594 4.335938 -0.390625 3.996094 -0.183594 C 3.660156 0.0195312 3.277344 0.121094 2.851562 0.121094 C 2.121094 0.121094 1.527344 -0.148438 1.066406 -0.683594 C 0.605469 -1.21875 0.375 -2.105469 0.375 -3.335938 C 0.375 -4.714844 0.628906 -5.714844 1.136719 -6.339844 C 1.582031 -6.886719 2.179688 -7.160156 2.933594 -7.160156 C 3.492188 -7.160156 3.953125 -7 4.3125 -6.6875 C 4.667969 -6.371094 4.882812 -5.9375 4.957031 -5.382812 M 1.382812 -2.308594 C 1.382812 -2.007812 1.445312 -1.71875 1.574219 -1.445312 C 1.703125 -1.167969 1.878906 -0.957031 2.109375 -0.816406 C 2.339844 -0.671875 2.582031 -0.597656 2.835938 -0.597656 C 3.203125 -0.597656 3.523438 -0.746094 3.789062 -1.046875 C 4.054688 -1.34375 4.1875 -1.75 4.1875 -2.261719 C 4.1875 -2.753906 4.054688 -3.140625 3.792969 -3.425781 C 3.53125 -3.710938 3.199219 -3.851562 2.800781 -3.851562 C 2.40625 -3.851562 2.070312 -3.710938 1.792969 -3.425781 C 1.519531 -3.140625 1.382812 -2.769531 1.382812 -2.308594 Z M 1.382812 -2.308594 "/>
</g>
<g id="glyph-1-8">
<path d="M 1.761719 -3.867188 C 1.398438 -4 1.128906 -4.1875 0.953125 -4.433594 C 0.777344 -4.683594 0.691406 -4.976562 0.691406 -5.320312 C 0.691406 -5.839844 0.878906 -6.273438 1.25 -6.628906 C 1.621094 -6.980469 2.117188 -7.160156 2.738281 -7.160156 C 3.359375 -7.160156 3.863281 -6.976562 4.242188 -6.617188 C 4.621094 -6.253906 4.808594 -5.816406 4.808594 -5.296875 C 4.808594 -4.964844 4.722656 -4.675781 4.550781 -4.433594 C 4.375 -4.1875 4.113281 -4 3.757812 -3.867188 C 4.195312 -3.722656 4.53125 -3.492188 4.757812 -3.175781 C 4.988281 -2.859375 5.101562 -2.480469 5.101562 -2.039062 C 5.101562 -1.429688 4.886719 -0.914062 4.453125 -0.5 C 4.023438 -0.0859375 3.457031 0.121094 2.753906 0.121094 C 2.050781 0.121094 1.480469 -0.0859375 1.050781 -0.503906 C 0.621094 -0.921875 0.402344 -1.441406 0.402344 -2.0625 C 0.402344 -2.527344 0.519531 -2.914062 0.757812 -3.226562 C 0.992188 -3.539062 1.324219 -3.753906 1.761719 -3.867188 M 1.585938 -5.347656 C 1.585938 -5.011719 1.695312 -4.738281 1.910156 -4.523438 C 2.128906 -4.308594 2.410156 -4.203125 2.757812 -4.203125 C 3.09375 -4.203125 3.371094 -4.308594 3.585938 -4.519531 C 3.800781 -4.734375 3.910156 -4.992188 3.910156 -5.300781 C 3.910156 -5.621094 3.800781 -5.890625 3.578125 -6.109375 C 3.355469 -6.328125 3.078125 -6.4375 2.746094 -6.4375 C 2.414062 -6.4375 2.136719 -6.332031 1.917969 -6.117188 C 1.695312 -5.902344 1.585938 -5.648438 1.585938 -5.347656 M 1.304688 -2.058594 C 1.304688 -1.808594 1.363281 -1.566406 1.480469 -1.332031 C 1.597656 -1.097656 1.773438 -0.917969 2.007812 -0.789062 C 2.242188 -0.664062 2.492188 -0.597656 2.761719 -0.597656 C 3.179688 -0.597656 3.527344 -0.734375 3.796875 -1 C 4.070312 -1.269531 4.207031 -1.613281 4.207031 -2.027344 C 4.207031 -2.449219 4.066406 -2.796875 3.785156 -3.074219 C 3.503906 -3.347656 3.15625 -3.488281 2.734375 -3.488281 C 2.320312 -3.488281 1.980469 -3.351562 1.710938 -3.078125 C 1.4375 -2.804688 1.304688 -2.464844 1.304688 -2.058594 Z M 1.304688 -2.058594 "/>
</g>
<g id="glyph-2-0">
<path d="M -3.515625 -0.414062 C -4.359375 -0.414062 -5.039062 -0.5 -5.550781 -0.671875 C -6.066406 -0.847656 -6.460938 -1.105469 -6.742188 -1.445312 C -7.019531 -1.789062 -7.160156 -2.21875 -7.160156 -2.738281 C -7.160156 -3.121094 -7.082031 -3.457031 -6.929688 -3.746094 C -6.773438 -4.035156 -6.550781 -4.273438 -6.261719 -4.460938 C -5.972656 -4.648438 -5.617188 -4.796875 -5.203125 -4.902344 C -4.785156 -5.007812 -4.222656 -5.0625 -3.515625 -5.0625 C -2.679688 -5.0625 -2.003906 -4.976562 -1.492188 -4.804688 C -0.976562 -4.632812 -0.578125 -4.375 -0.300781 -4.035156 C -0.0195312 -3.691406 0.121094 -3.261719 0.121094 -2.738281 C 0.121094 -2.050781 -0.125 -1.511719 -0.617188 -1.117188 C -1.210938 -0.648438 -2.175781 -0.414062 -3.515625 -0.414062 M -3.515625 -1.3125 C -2.347656 -1.3125 -1.566406 -1.449219 -1.179688 -1.722656 C -0.792969 -1.996094 -0.597656 -2.335938 -0.597656 -2.738281 C -0.597656 -3.140625 -0.792969 -3.476562 -1.183594 -3.753906 C -1.570312 -4.027344 -2.347656 -4.164062 -3.515625 -4.164062 C -4.691406 -4.164062 -5.46875 -4.027344 -5.855469 -3.753906 C -6.242188 -3.476562 -6.433594 -3.136719 -6.433594 -2.726562 C -6.433594 -2.328125 -6.265625 -2.003906 -5.921875 -1.765625 C -5.488281 -1.464844 -4.6875 -1.3125 -3.515625 -1.3125 Z M -3.515625 -1.3125 "/>
</g>
<g id="glyph-2-1">
<path d="M -0.839844 -5.015625 L 0 -5.015625 L 0 -0.300781 C -0.210938 -0.296875 -0.414062 -0.328125 -0.609375 -0.402344 C -0.929688 -0.523438 -1.246094 -0.714844 -1.554688 -0.980469 C -1.867188 -1.246094 -2.226562 -1.625 -2.636719 -2.125 C -3.269531 -2.898438 -3.773438 -3.421875 -4.144531 -3.695312 C -4.515625 -3.96875 -4.867188 -4.105469 -5.199219 -4.105469 C -5.546875 -4.105469 -5.839844 -3.980469 -6.078125 -3.734375 C -6.316406 -3.484375 -6.433594 -3.160156 -6.433594 -2.761719 C -6.433594 -2.339844 -6.308594 -2.003906 -6.054688 -1.75 C -5.800781 -1.496094 -5.453125 -1.371094 -5.003906 -1.367188 L -5.097656 -0.46875 C -5.769531 -0.527344 -6.28125 -0.761719 -6.632812 -1.164062 C -6.984375 -1.5625 -7.160156 -2.105469 -7.160156 -2.78125 C -7.160156 -3.464844 -6.96875 -4.007812 -6.589844 -4.40625 C -6.210938 -4.804688 -5.742188 -5.003906 -5.179688 -5.003906 C -4.894531 -5.003906 -4.613281 -4.945312 -4.339844 -4.828125 C -4.0625 -4.710938 -3.773438 -4.519531 -3.46875 -4.25 C -3.164062 -3.976562 -2.746094 -3.527344 -2.210938 -2.898438 C -1.773438 -2.375 -1.472656 -2.035156 -1.316406 -1.886719 C -1.160156 -1.738281 -1 -1.613281 -0.839844 -1.515625 Z M -0.839844 -5.015625 "/>
</g>
<g id="glyph-2-2">
<path d="M 0 -3.21875 L -1.707031 -3.21875 L -1.707031 -0.125 L -2.507812 -0.125 L -7.128906 -3.378906 L -7.128906 -4.09375 L -2.507812 -4.09375 L -2.507812 -5.058594 L -1.707031 -5.058594 L -1.707031 -4.09375 L 0 -4.09375 L 0 -3.21875 M -2.507812 -3.21875 L -5.722656 -3.21875 L -2.507812 -0.988281 Z M -2.507812 -3.21875 "/>
</g>
<g id="glyph-2-3">
<path d="M -5.382812 -4.957031 L -5.316406 -4.085938 C -5.660156 -4.007812 -5.910156 -3.898438 -6.066406 -3.753906 C -6.3125 -3.519531 -6.4375 -3.226562 -6.4375 -2.878906 C -6.4375 -2.601562 -6.359375 -2.355469 -6.207031 -2.144531 C -6.003906 -1.867188 -5.710938 -1.652344 -5.324219 -1.492188 C -4.941406 -1.335938 -4.390625 -1.25 -3.675781 -1.246094 C -3.996094 -1.457031 -4.234375 -1.714844 -4.390625 -2.019531 C -4.546875 -2.324219 -4.625 -2.640625 -4.625 -2.976562 C -4.625 -3.558594 -4.410156 -4.058594 -3.980469 -4.46875 C -3.550781 -4.878906 -2.996094 -5.082031 -2.316406 -5.082031 C -1.867188 -5.082031 -1.453125 -4.984375 -1.066406 -4.792969 C -0.683594 -4.601562 -0.390625 -4.335938 -0.183594 -3.996094 C 0.0195312 -3.660156 0.121094 -3.277344 0.121094 -2.851562 C 0.121094 -2.121094 -0.148438 -1.527344 -0.683594 -1.066406 C -1.21875 -0.605469 -2.105469 -0.375 -3.335938 -0.375 C -4.714844 -0.375 -5.714844 -0.628906 -6.339844 -1.136719 C -6.886719 -1.582031 -7.160156 -2.179688 -7.160156 -2.933594 C -7.160156 -3.492188 -7 -3.953125 -6.6875 -4.3125 C -6.371094 -4.667969 -5.9375 -4.882812 -5.382812 -4.957031 M -2.308594 -1.382812 C -2.007812 -1.382812 -1.71875 -1.445312 -1.445312 -1.574219 C -1.167969 -1.703125 -0.957031 -1.878906 -0.816406 -2.109375 C -0.671875 -2.339844 -0.597656 -2.582031 -0.597656 -2.835938 C -0.597656 -3.203125 -0.746094 -3.523438 -1.046875 -3.789062 C -1.34375 -4.054688 -1.75 -4.1875 -2.261719 -4.1875 C -2.753906 -4.1875 -3.140625 -4.054688 -3.425781 -3.792969 C -3.710938 -3.53125 -3.851562 -3.199219 -3.851562 -2.800781 C -3.851562 -2.40625 -3.710938 -2.070312 -3.425781 -1.792969 C -3.140625 -1.519531 -2.769531 -1.382812 -2.308594 -1.382812 Z M -2.308594 -1.382812 "/>
</g>
<g id="glyph-2-4">
<path d="M -3.867188 -1.761719 C -4 -1.398438 -4.1875 -1.128906 -4.433594 -0.953125 C -4.683594 -0.777344 -4.976562 -0.691406 -5.320312 -0.691406 C -5.839844 -0.691406 -6.273438 -0.878906 -6.628906 -1.25 C -6.980469 -1.621094 -7.160156 -2.117188 -7.160156 -2.738281 C -7.160156 -3.359375 -6.976562 -3.863281 -6.617188 -4.242188 C -6.253906 -4.621094 -5.816406 -4.808594 -5.296875 -4.808594 C -4.964844 -4.808594 -4.675781 -4.722656 -4.433594 -4.550781 C -4.1875 -4.375 -4 -4.113281 -3.867188 -3.757812 C -3.722656 -4.195312 -3.492188 -4.53125 -3.175781 -4.757812 C -2.859375 -4.988281 -2.480469 -5.101562 -2.039062 -5.101562 C -1.429688 -5.101562 -0.914062 -4.886719 -0.5 -4.453125 C -0.0859375 -4.023438 0.121094 -3.457031 0.121094 -2.753906 C 0.121094 -2.050781 -0.0859375 -1.480469 -0.503906 -1.050781 C -0.921875 -0.621094 -1.441406 -0.402344 -2.0625 -0.402344 C -2.527344 -0.402344 -2.914062 -0.519531 -3.226562 -0.757812 C -3.539062 -0.992188 -3.753906 -1.324219 -3.867188 -1.761719 M -5.347656 -1.585938 C -5.011719 -1.585938 -4.738281 -1.695312 -4.523438 -1.910156 C -4.308594 -2.128906 -4.203125 -2.410156 -4.203125 -2.757812 C -4.203125 -3.09375 -4.308594 -3.371094 -4.519531 -3.585938 C -4.734375 -3.800781 -4.992188 -3.910156 -5.300781 -3.910156 C -5.621094 -3.910156 -5.890625 -3.800781 -6.109375 -3.578125 C -6.328125 -3.355469 -6.4375 -3.078125 -6.4375 -2.746094 C -6.4375 -2.414062 -6.332031 -2.136719 -6.117188 -1.917969 C -5.902344 -1.695312 -5.648438 -1.585938 -5.347656 -1.585938 M -2.058594 -1.304688 C -1.808594 -1.304688 -1.566406 -1.363281 -1.332031 -1.480469 C -1.097656 -1.597656 -0.917969 -1.773438 -0.789062 -2.007812 C -0.664062 -2.242188 -0.597656 -2.492188 -0.597656 -2.761719 C -0.597656 -3.179688 -0.734375 -3.527344 -1 -3.796875 C -1.269531 -4.070312 -1.613281 -4.207031 -2.027344 -4.207031 C -2.449219 -4.207031 -2.796875 -4.066406 -3.074219 -3.785156 C -3.347656 -3.503906 -3.488281 -3.15625 -3.488281 -2.734375 C -3.488281 -2.320312 -3.351562 -1.980469 -3.078125 -1.710938 C -2.804688 -1.4375 -2.464844 -1.304688 -2.058594 -1.304688 Z M -2.058594 -1.304688 "/>
</g>
<g id="glyph-2-5">
<path d="M 0 -3.710938 L 0 -2.835938 L -5.578125 -2.835938 C -5.378906 -2.625 -5.175781 -2.347656 -4.976562 -2.007812 C -4.773438 -1.664062 -4.625 -1.355469 -4.523438 -1.085938 L -5.367188 -1.085938 C -5.597656 -1.574219 -5.878906 -2.003906 -6.207031 -2.367188 C -6.53125 -2.734375 -6.851562 -2.996094 -7.160156 -3.148438 L -7.160156 -3.710938 Z M 0 -3.710938 "/>
</g>
</g>
<clipPath id="clip-0">
<path clip-rule="nonzero" d="M 102 216 L 151 216 L 151 223 L 102 223 Z M 102 216 "/>
</clipPath>
<clipPath id="clip-1">
<path clip-rule="nonzero" d="M 354 216 L 403 216 L 403 223 L 354 223 Z M 354 216 "/>
</clipPath>
</defs>
<rect x="-50.4" y="-43.2" width="604.8" height="518.4" fill="rgb(100%, 100%, 100%)" fill-opacity="1"/>
<g fill="rgb(0%, 0%, 0%)" fill-opacity="1">
<use xlink:href="#glyph-0-0" x="103.414062" y="5.078125"/>
<use xlink:href="#glyph-0-1" x="110.71482" y="5.078125"/>
<use xlink:href="#glyph-0-2" x="117.361953" y="5.078125"/>
<use xlink:href="#glyph-0-3" x="121.342062" y="5.078125"/>
<use xlink:href="#glyph-0-4" x="127.989195" y="5.078125"/>
<use xlink:href="#glyph-0-0" x="134.636328" y="5.078125"/>
<use xlink:href="#glyph-0-5" x="141.937086" y="5.078125"/>
</g>
<path fill="none" stroke-width="0.75" stroke-linecap="round" stroke-linejoin="round" stroke="rgb(0%, 0%, 0%)" stroke-opacity="1" stroke-miterlimit="10" d="M 24.402344 215.402344 L 242.113281 215.402344 "/>
<path fill="none" stroke-width="0.75" stroke-linecap="round" stroke-linejoin="round" stroke="rgb(0%, 0%, 0%)" stroke-opacity="1" stroke-miterlimit="10" d="M 24.402344 215.402344 L 24.402344 221.378906 "/>
<path fill="none" stroke-width="0.75" stroke-linecap="round" stroke-linejoin="round" stroke="rgb(0%, 0%, 0%)" stroke-opacity="1" stroke-miterlimit="10" d="M 96.972656 215.402344 L 96.972656 221.378906 "/>
<path fill="none" stroke-width="0.75" stroke-linecap="round" stroke-linejoin="round" stroke="rgb(0%, 0%, 0%)" stroke-opacity="1" stroke-miterlimit="10" d="M 169.542969 215.402344 L 169.542969 221.378906 "/>
<path fill="none" stroke-width="0.75" stroke-linecap="round" stroke-linejoin="round" stroke="rgb(0%, 0%, 0%)" stroke-opacity="1" stroke-miterlimit="10" d="M 242.113281 215.402344 L 242.113281 221.378906 "/>
<g fill="rgb(0%, 0%, 0%)" fill-opacity="1">
<use xlink:href="#glyph-1-0" x="15.820312" y="236.914062"/>
<use xlink:href="#glyph-1-1" x="19.13707" y="236.914062"/>
<use xlink:href="#glyph-1-2" x="24.676348" y="236.914062"/>
<use xlink:href="#glyph-1-3" x="27.443555" y="236.914062"/>
</g>
<g fill="rgb(0%, 0%, 0%)" fill-opacity="1">
<use xlink:href="#glyph-1-1" x="90.050781" y="236.914062"/>
<use xlink:href="#glyph-1-2" x="95.590059" y="236.914062"/>
<use xlink:href="#glyph-1-1" x="98.357266" y="236.914062"/>
</g>
<g fill="rgb(0%, 0%, 0%)" fill-opacity="1">
<use xlink:href="#glyph-1-1" x="162.621094" y="236.914062"/>
<use xlink:href="#glyph-1-2" x="168.160371" y="236.914062"/>
<use xlink:href="#glyph-1-3" x="170.927578" y="236.914062"/>
</g>
<g fill="rgb(0%, 0%, 0%)" fill-opacity="1">
<use xlink:href="#glyph-1-4" x="235.191406" y="236.914062"/>
<use xlink:href="#glyph-1-2" x="240.730684" y="236.914062"/>
<use xlink:href="#glyph-1-1" x="243.497891" y="236.914062"/>
</g>
<path fill="none" stroke-width="0.75" stroke-linecap="round" stroke-linejoin="round" stroke="rgb(0%, 0%, 0%)" stroke-opacity="1" stroke-miterlimit="10" d="M 0.597656 207.445312 L 0.597656 8.554688 "/>
<path fill="none" stroke-width="0.75" stroke-linecap="round" stroke-linejoin="round" stroke="rgb(0%, 0%, 0%)" stroke-opacity="1" stroke-miterlimit="10" d="M 0.597656 207.445312 L -5.378906 207.445312 "/>
<path fill="none" stroke-width="0.75" stroke-linecap="round" stroke-linejoin="round" stroke="rgb(0%, 0%, 0%)" stroke-opacity="1" stroke-miterlimit="10" d="M 0.597656 157.722656 L -5.378906 157.722656 "/>
<path fill="none" stroke-width="0.75" stroke-linecap="round" stroke-linejoin="round" stroke="rgb(0%, 0%, 0%)" stroke-opacity="1" stroke-miterlimit="10" d="M 0.597656 108 L -5.378906 108 "/>
<path fill="none" stroke-width="0.75" stroke-linecap="round" stroke-linejoin="round" stroke="rgb(0%, 0%, 0%)" stroke-opacity="1" stroke-miterlimit="10" d="M 0.597656 58.277344 L -5.378906 58.277344 "/>
<path fill="none" stroke-width="0.75" stroke-linecap="round" stroke-linejoin="round" stroke="rgb(0%, 0%, 0%)" stroke-opacity="1" stroke-miterlimit="10" d="M 0.597656 8.554688 L -5.378906 8.554688 "/>
<path fill-rule="nonzero" fill="rgb(82.745098%, 82.745098%, 82.745098%)" fill-opacity="1" stroke-width="0.75" stroke-linecap="round" stroke-linejoin="round" stroke="rgb(0%, 0%, 0%)" stroke-opacity="1" stroke-miterlimit="10" d="M 9.886719 207.445312 L 38.914062 207.445312 L 38.914062 8.550781 L 9.886719 8.550781 Z M 9.886719 207.445312 "/>
<path fill-rule="nonzero" fill="rgb(82.745098%, 82.745098%, 82.745098%)" fill-opacity="1" stroke-width="0.75" stroke-linecap="round" stroke-linejoin="round" stroke="rgb(0%, 0%, 0%)" stroke-opacity="1" stroke-miterlimit="10" d="M 38.914062 207.445312 L 67.941406 207.445312 L 67.941406 157.722656 L 38.914062 157.722656 Z M 38.914062 207.445312 "/>
<path fill-rule="nonzero" fill="rgb(82.745098%, 82.745098%, 82.745098%)" fill-opacity="1" stroke-width="0.75" stroke-linecap="round" stroke-linejoin="round" stroke="rgb(0%, 0%, 0%)" stroke-opacity="1" stroke-miterlimit="10" d="M 67.941406 207.445312 L 96.96875 207.445312 L 96.96875 167.667969 L 67.941406 167.667969 Z M 67.941406 207.445312 "/>
<path fill="none" stroke-width="0.75" stroke-linecap="round" stroke-linejoin="round" stroke="rgb(0%, 0%, 0%)" stroke-opacity="1" stroke-miterlimit="10" d="M 96.972656 207.445312 L 126 207.445312 Z M 96.972656 207.445312 "/>
<path fill-rule="nonzero" fill="rgb(82.745098%, 82.745098%, 82.745098%)" fill-opacity="1" stroke-width="0.75" stroke-linecap="round" stroke-linejoin="round" stroke="rgb(0%, 0%, 0%)" stroke-opacity="1" stroke-miterlimit="10" d="M 126 207.445312 L 155.027344 207.445312 L 155.027344 127.886719 L 126 127.886719 Z M 126 207.445312 "/>
<path fill-rule="nonzero" fill="rgb(82.745098%, 82.745098%, 82.745098%)" fill-opacity="1" stroke-width="0.75" stroke-linecap="round" stroke-linejoin="round" stroke="rgb(0%, 0%, 0%)" stroke-opacity="1" stroke-miterlimit="10" d="M 155.027344 207.445312 L 184.054688 207.445312 L 184.054688 167.667969 L 155.027344 167.667969 Z M 155.027344 207.445312 "/>
<path fill="none" stroke-width="0.75" stroke-linecap="round" stroke-linejoin="round" stroke="rgb(0%, 0%, 0%)" stroke-opacity="1" stroke-miterlimit="10" d="M 184.058594 207.445312 L 213.085938 207.445312 Z M 184.058594 207.445312 "/>
<path fill-rule="nonzero" fill="rgb(82.745098%, 82.745098%, 82.745098%)" fill-opacity="1" stroke-width="0.75" stroke-linecap="round" stroke-linejoin="round" stroke="rgb(0%, 0%, 0%)" stroke-opacity="1" stroke-miterlimit="10" d="M 213.085938 207.445312 L 242.113281 207.445312 L 242.113281 117.941406 L 213.085938 117.941406 Z M 213.085938 207.445312 "/>
<g fill="rgb(0%, 0%, 0%)" fill-opacity="1">
<use xlink:href="#glyph-0-0" x="357.570312" y="5.078125"/>
<use xlink:href="#glyph-0-6" x="364.87107" y="5.078125"/>
<use xlink:href="#glyph-0-7" x="371.518203" y="5.078125"/>
<use xlink:href="#glyph-0-8" x="374.838852" y="5.078125"/>
<use xlink:href="#glyph-0-7" x="381.818633" y="5.078125"/>
<use xlink:href="#glyph-0-9" x="385.139281" y="5.078125"/>
<use xlink:href="#glyph-0-10" x="391.786414" y="5.078125"/>
</g>
<path fill="none" stroke-width="0.75" stroke-linecap="round" stroke-linejoin="round" stroke="rgb(0%, 0%, 0%)" stroke-opacity="1" stroke-miterlimit="10" d="M 261.886719 215.402344 L 494.113281 215.402344 "/>
<path fill="none" stroke-width="0.75" stroke-linecap="round" stroke-linejoin="round" stroke="rgb(0%, 0%, 0%)" stroke-opacity="1" stroke-miterlimit="10" d="M 261.886719 215.402344 L 261.886719 221.378906 "/>
<path fill="none" stroke-width="0.75" stroke-linecap="round" stroke-linejoin="round" stroke="rgb(0%, 0%, 0%)" stroke-opacity="1" stroke-miterlimit="10" d="M 300.589844 215.402344 L 300.589844 221.378906 "/>
<path fill="none" stroke-width="0.75" stroke-linecap="round" stroke-linejoin="round" stroke="rgb(0%, 0%, 0%)" stroke-opacity="1" stroke-miterlimit="10" d="M 339.296875 215.402344 L 339.296875 221.378906 "/>
<path fill="none" stroke-width="0.75" stroke-linecap="round" stroke-linejoin="round" stroke="rgb(0%, 0%, 0%)" stroke-opacity="1" stroke-miterlimit="10" d="M 378 215.402344 L 378 221.378906 "/>
<path fill="none" stroke-width="0.75" stroke-linecap="round" stroke-linejoin="round" stroke="rgb(0%, 0%, 0%)" stroke-opacity="1" stroke-miterlimit="10" d="M 416.703125 215.402344 L 416.703125 221.378906 "/>
<path fill="none" stroke-width="0.75" stroke-linecap="round" stroke-linejoin="round" stroke="rgb(0%, 0%, 0%)" stroke-opacity="1" stroke-miterlimit="10" d="M 455.410156 215.402344 L 455.410156 221.378906 "/>
<path fill="none" stroke-width="0.75" stroke-linecap="round" stroke-linejoin="round" stroke="rgb(0%, 0%, 0%)" stroke-opacity="1" stroke-miterlimit="10" d="M 494.113281 215.402344 L 494.113281 221.378906 "/>
<g fill="rgb(0%, 0%, 0%)" fill-opacity="1">
<use xlink:href="#glyph-1-0" x="253.304688" y="236.914062"/>
<use xlink:href="#glyph-1-1" x="256.621445" y="236.914062"/>
<use xlink:href="#glyph-1-2" x="262.160723" y="236.914062"/>
<use xlink:href="#glyph-1-5" x="264.92793" y="236.914062"/>
</g>
<g fill="rgb(0%, 0%, 0%)" fill-opacity="1">
<use xlink:href="#glyph-1-1" x="293.667969" y="236.914062"/>
<use xlink:href="#glyph-1-2" x="299.207246" y="236.914062"/>
<use xlink:href="#glyph-1-1" x="301.974453" y="236.914062"/>
</g>
<g fill="rgb(0%, 0%, 0%)" fill-opacity="1">
<use xlink:href="#glyph-1-1" x="332.375" y="236.914062"/>
<use xlink:href="#glyph-1-2" x="337.914277" y="236.914062"/>
<use xlink:href="#glyph-1-5" x="340.681484" y="236.914062"/>
</g>
<g fill="rgb(0%, 0%, 0%)" fill-opacity="1">
<use xlink:href="#glyph-1-1" x="371.078125" y="236.914062"/>
<use xlink:href="#glyph-1-2" x="376.617402" y="236.914062"/>
<use xlink:href="#glyph-1-6" x="379.384609" y="236.914062"/>
</g>
<g fill="rgb(0%, 0%, 0%)" fill-opacity="1">
<use xlink:href="#glyph-1-1" x="409.78125" y="236.914062"/>
<use xlink:href="#glyph-1-2" x="415.320527" y="236.914062"/>
<use xlink:href="#glyph-1-7" x="418.087734" y="236.914062"/>
</g>
<g fill="rgb(0%, 0%, 0%)" fill-opacity="1">
<use xlink:href="#glyph-1-1" x="448.488281" y="236.914062"/>
<use xlink:href="#glyph-1-2" x="454.027559" y="236.914062"/>
<use xlink:href="#glyph-1-8" x="456.794766" y="236.914062"/>
</g>
<g fill="rgb(0%, 0%, 0%)" fill-opacity="1">
<use xlink:href="#glyph-1-4" x="487.191406" y="236.914062"/>
<use xlink:href="#glyph-1-2" x="492.730684" y="236.914062"/>
<use xlink:href="#glyph-1-1" x="495.497891" y="236.914062"/>
</g>
<path fill="none" stroke-width="0.75" stroke-linecap="round" stroke-linejoin="round" stroke="rgb(0%, 0%, 0%)" stroke-opacity="1" stroke-miterlimit="10" d="M 252.597656 207.445312 L 252.597656 29.464844 "/>
<path fill="none" stroke-width="0.75" stroke-linecap="round" stroke-linejoin="round" stroke="rgb(0%, 0%, 0%)" stroke-opacity="1" stroke-miterlimit="10" d="M 252.597656 207.445312 L 246.621094 207.445312 "/>
<path fill="none" stroke-width="0.75" stroke-linecap="round" stroke-linejoin="round" stroke="rgb(0%, 0%, 0%)" stroke-opacity="1" stroke-miterlimit="10" d="M 252.597656 162.953125 L 246.621094 162.953125 "/>
<path fill="none" stroke-width="0.75" stroke-linecap="round" stroke-linejoin="round" stroke="rgb(0%, 0%, 0%)" stroke-opacity="1" stroke-miterlimit="10" d="M 252.597656 118.457031 L 246.621094 118.457031 "/>
<path fill="none" stroke-width="0.75" stroke-linecap="round" stroke-linejoin="round" stroke="rgb(0%, 0%, 0%)" stroke-opacity="1" stroke-miterlimit="10" d="M 252.597656 73.960938 L 246.621094 73.960938 "/>
<path fill="none" stroke-width="0.75" stroke-linecap="round" stroke-linejoin="round" stroke="rgb(0%, 0%, 0%)" stroke-opacity="1" stroke-miterlimit="10" d="M 252.597656 29.464844 L 246.621094 29.464844 "/>
<g fill="rgb(0%, 0%, 0%)" fill-opacity="1">
<use xlink:href="#glyph-2-0" x="238.253906" y="210.214844"/>
</g>
<g fill="rgb(0%, 0%, 0%)" fill-opacity="1">
<use xlink:href="#glyph-2-1" x="238.253906" y="171.261719"/>
<use xlink:href="#glyph-2-0" x="238.253906" y="165.722441"/>
<use xlink:href="#glyph-2-0" x="238.253906" y="160.183164"/>
</g>
<g fill="rgb(0%, 0%, 0%)" fill-opacity="1">
<use xlink:href="#glyph-2-2" x="238.253906" y="126.765625"/>
<use xlink:href="#glyph-2-0" x="238.253906" y="121.226348"/>
<use xlink:href="#glyph-2-0" x="238.253906" y="115.68707"/>
</g>
<g fill="rgb(0%, 0%, 0%)" fill-opacity="1">
<use xlink:href="#glyph-2-3" x="238.253906" y="82.269531"/>
<use xlink:href="#glyph-2-0" x="238.253906" y="76.730254"/>
<use xlink:href="#glyph-2-0" x="238.253906" y="71.190977"/>
</g>
<g fill="rgb(0%, 0%, 0%)" fill-opacity="1">
<use xlink:href="#glyph-2-4" x="238.253906" y="37.773438"/>
<use xlink:href="#glyph-2-0" x="238.253906" y="32.23416"/>
<use xlink:href="#glyph-2-0" x="238.253906" y="26.694883"/>
</g>
<path fill-rule="nonzero" fill="rgb(82.745098%, 82.745098%, 82.745098%)" fill-opacity="1" stroke-width="0.75" stroke-linecap="round" stroke-linejoin="round" stroke="rgb(0%, 0%, 0%)" stroke-opacity="1" stroke-miterlimit="10" d="M 261.886719 207.445312 L 281.238281 207.445312 L 281.238281 101.101562 L 261.886719 101.101562 Z M 261.886719 207.445312 "/>
<path fill-rule="nonzero" fill="rgb(82.745098%, 82.745098%, 82.745098%)" fill-opacity="1" stroke-width="0.75" stroke-linecap="round" stroke-linejoin="round" stroke="rgb(0%, 0%, 0%)" stroke-opacity="1" stroke-miterlimit="10" d="M 281.238281 207.445312 L 300.589844 207.445312 L 300.589844 8.550781 L 281.238281 8.550781 Z M 281.238281 207.445312 "/>
<path fill-rule="nonzero" fill="rgb(82.745098%, 82.745098%, 82.745098%)" fill-opacity="1" stroke-width="0.75" stroke-linecap="round" stroke-linejoin="round" stroke="rgb(0%, 0%, 0%)" stroke-opacity="1" stroke-miterlimit="10" d="M 300.589844 207.445312 L 319.941406 207.445312 L 319.941406 67.285156 L 300.589844 67.285156 Z M 300.589844 207.445312 "/>
<path fill-rule="nonzero" fill="rgb(82.745098%, 82.745098%, 82.745098%)" fill-opacity="1" stroke-width="0.75" stroke-linecap="round" stroke-linejoin="round" stroke="rgb(0%, 0%, 0%)" stroke-opacity="1" stroke-miterlimit="10" d="M 319.941406 207.445312 L 339.292969 207.445312 L 339.292969 134.027344 L 319.941406 134.027344 Z M 319.941406 207.445312 "/>
<path fill-rule="nonzero" fill="rgb(82.745098%, 82.745098%, 82.745098%)" fill-opacity="1" stroke-width="0.75" stroke-linecap="round" stroke-linejoin="round" stroke="rgb(0%, 0%, 0%)" stroke-opacity="1" stroke-miterlimit="10" d="M 339.296875 207.445312 L 358.648438 207.445312 L 358.648438 184.308594 L 339.296875 184.308594 Z M 339.296875 207.445312 "/>
<path fill-rule="nonzero" fill="rgb(82.745098%, 82.745098%, 82.745098%)" fill-opacity="1" stroke-width="0.75" stroke-linecap="round" stroke-linejoin="round" stroke="rgb(0%, 0%, 0%)" stroke-opacity="1" stroke-miterlimit="10" d="M 358.648438 207.445312 L 378 207.445312 L 378 204.332031 L 358.648438 204.332031 Z M 358.648438 207.445312 "/>
<path fill="none" stroke-width="0.75" stroke-linecap="round" stroke-linejoin="round" stroke="rgb(0%, 0%, 0%)" stroke-opacity="1" stroke-miterlimit="10" d="M 378 207.445312 L 397.351562 207.445312 Z M 378 207.445312 "/>
<path fill="none" stroke-width="0.75" stroke-linecap="round" stroke-linejoin="round" stroke="rgb(0%, 0%, 0%)" stroke-opacity="1" stroke-miterlimit="10" d="M 397.351562 207.445312 L 416.703125 207.445312 Z M 397.351562 207.445312 "/>
<path fill="none" stroke-width="0.75" stroke-linecap="round" stroke-linejoin="round" stroke="rgb(0%, 0%, 0%)" stroke-opacity="1" stroke-miterlimit="10" d="M 416.703125 207.445312 L 436.054688 207.445312 Z M 416.703125 207.445312 "/>
<path fill="none" stroke-width="0.75" stroke-linecap="round" stroke-linejoin="round" stroke="rgb(0%, 0%, 0%)" stroke-opacity="1" stroke-miterlimit="10" d="M 436.058594 207.445312 L 455.410156 207.445312 Z M 436.058594 207.445312 "/>
<path fill="none" stroke-width="0.75" stroke-linecap="round" stroke-linejoin="round" stroke="rgb(0%, 0%, 0%)" stroke-opacity="1" stroke-miterlimit="10" d="M 455.410156 207.445312 L 474.761719 207.445312 Z M 455.410156 207.445312 "/>
<path fill-rule="nonzero" fill="rgb(82.745098%, 82.745098%, 82.745098%)" fill-opacity="1" stroke-width="0.75" stroke-linecap="round" stroke-linejoin="round" stroke="rgb(0%, 0%, 0%)" stroke-opacity="1" stroke-miterlimit="10" d="M 474.761719 207.445312 L 494.113281 207.445312 L 494.113281 196.320312 L 474.761719 196.320312 Z M 474.761719 207.445312 "/>
<g clip-path="url(#clip-0)">
<g fill="rgb(0%, 0%, 0%)" fill-opacity="1">
<use xlink:href="#glyph-0-0" x="102.246094" y="221.078125"/>
<use xlink:href="#glyph-0-6" x="109.546852" y="221.078125"/>
<use xlink:href="#glyph-0-7" x="116.193984" y="221.078125"/>
<use xlink:href="#glyph-0-8" x="119.514633" y="221.078125"/>
<use xlink:href="#glyph-0-7" x="126.494414" y="221.078125"/>
<use xlink:href="#glyph-0-11" x="129.815063" y="221.078125"/>
<use xlink:href="#glyph-0-9" x="136.462195" y="221.078125"/>
<use xlink:href="#glyph-0-10" x="143.109328" y="221.078125"/>
</g>
</g>
<path fill="none" stroke-width="0.75" stroke-linecap="round" stroke-linejoin="round" stroke="rgb(0%, 0%, 0%)" stroke-opacity="1" stroke-miterlimit="10" d="M 40.175781 431.402344 L 242.113281 431.402344 "/>
<path fill="none" stroke-width="0.75" stroke-linecap="round" stroke-linejoin="round" stroke="rgb(0%, 0%, 0%)" stroke-opacity="1" stroke-miterlimit="10" d="M 40.175781 431.402344 L 40.175781 437.378906 "/>
<path fill="none" stroke-width="0.75" stroke-linecap="round" stroke-linejoin="round" stroke="rgb(0%, 0%, 0%)" stroke-opacity="1" stroke-miterlimit="10" d="M 80.5625 431.402344 L 80.5625 437.378906 "/>
<path fill="none" stroke-width="0.75" stroke-linecap="round" stroke-linejoin="round" stroke="rgb(0%, 0%, 0%)" stroke-opacity="1" stroke-miterlimit="10" d="M 120.953125 431.402344 L 120.953125 437.378906 "/>
<path fill="none" stroke-width="0.75" stroke-linecap="round" stroke-linejoin="round" stroke="rgb(0%, 0%, 0%)" stroke-opacity="1" stroke-miterlimit="10" d="M 161.339844 431.402344 L 161.339844 437.378906 "/>
<path fill="none" stroke-width="0.75" stroke-linecap="round" stroke-linejoin="round" stroke="rgb(0%, 0%, 0%)" stroke-opacity="1" stroke-miterlimit="10" d="M 201.726562 431.402344 L 201.726562 437.378906 "/>
<path fill="none" stroke-width="0.75" stroke-linecap="round" stroke-linejoin="round" stroke="rgb(0%, 0%, 0%)" stroke-opacity="1" stroke-miterlimit="10" d="M 242.113281 431.402344 L 242.113281 437.378906 "/>
<path fill="none" stroke-width="0.75" stroke-linecap="round" stroke-linejoin="round" stroke="rgb(0%, 0%, 0%)" stroke-opacity="1" stroke-miterlimit="10" d="M 0.597656 423.445312 L 0.597656 222.367188 "/>
<path fill="none" stroke-width="0.75" stroke-linecap="round" stroke-linejoin="round" stroke="rgb(0%, 0%, 0%)" stroke-opacity="1" stroke-miterlimit="10" d="M 0.597656 423.445312 L -5.378906 423.445312 "/>
<path fill="none" stroke-width="0.75" stroke-linecap="round" stroke-linejoin="round" stroke="rgb(0%, 0%, 0%)" stroke-opacity="1" stroke-miterlimit="10" d="M 0.597656 383.230469 L -5.378906 383.230469 "/>
<path fill="none" stroke-width="0.75" stroke-linecap="round" stroke-linejoin="round" stroke="rgb(0%, 0%, 0%)" stroke-opacity="1" stroke-miterlimit="10" d="M 0.597656 343.015625 L -5.378906 343.015625 "/>
<path fill="none" stroke-width="0.75" stroke-linecap="round" stroke-linejoin="round" stroke="rgb(0%, 0%, 0%)" stroke-opacity="1" stroke-miterlimit="10" d="M 0.597656 302.796875 L -5.378906 302.796875 "/>
<path fill="none" stroke-width="0.75" stroke-linecap="round" stroke-linejoin="round" stroke="rgb(0%, 0%, 0%)" stroke-opacity="1" stroke-miterlimit="10" d="M 0.597656 262.582031 L -5.378906 262.582031 "/>
<path fill="none" stroke-width="0.75" stroke-linecap="round" stroke-linejoin="round" stroke="rgb(0%, 0%, 0%)" stroke-opacity="1" stroke-miterlimit="10" d="M 0.597656 222.367188 L -5.378906 222.367188 "/>
<path fill-rule="nonzero" fill="rgb(82.745098%, 82.745098%, 82.745098%)" fill-opacity="1" stroke-width="0.75" stroke-linecap="round" stroke-linejoin="round" stroke="rgb(0%, 0%, 0%)" stroke-opacity="1" stroke-miterlimit="10" d="M 9.886719 423.445312 L 19.984375 423.445312 L 19.984375 420.902344 L 9.886719 420.902344 Z M 9.886719 423.445312 "/>
<path fill-rule="nonzero" fill="rgb(82.745098%, 82.745098%, 82.745098%)" fill-opacity="1" stroke-width="0.75" stroke-linecap="round" stroke-linejoin="round" stroke="rgb(0%, 0%, 0%)" stroke-opacity="1" stroke-miterlimit="10" d="M 19.984375 423.445312 L 30.082031 423.445312 L 30.082031 359.773438 L 19.984375 359.773438 Z M 19.984375 423.445312 "/>
<path fill-rule="nonzero" fill="rgb(82.745098%, 82.745098%, 82.745098%)" fill-opacity="1" stroke-width="0.75" stroke-linecap="round" stroke-linejoin="round" stroke="rgb(0%, 0%, 0%)" stroke-opacity="1" stroke-miterlimit="10" d="M 30.082031 423.445312 L 40.179688 423.445312 L 40.179688 224.550781 L 30.082031 224.550781 Z M 30.082031 423.445312 "/>
<path fill-rule="nonzero" fill="rgb(82.745098%, 82.745098%, 82.745098%)" fill-opacity="1" stroke-width="0.75" stroke-linecap="round" stroke-linejoin="round" stroke="rgb(0%, 0%, 0%)" stroke-opacity="1" stroke-miterlimit="10" d="M 40.175781 423.445312 L 50.273438 423.445312 L 50.273438 253.105469 L 40.175781 253.105469 Z M 40.175781 423.445312 "/>
<path fill-rule="nonzero" fill="rgb(82.745098%, 82.745098%, 82.745098%)" fill-opacity="1" stroke-width="0.75" stroke-linecap="round" stroke-linejoin="round" stroke="rgb(0%, 0%, 0%)" stroke-opacity="1" stroke-miterlimit="10" d="M 50.273438 423.445312 L 60.371094 423.445312 L 60.371094 367.671875 L 50.273438 367.671875 Z M 50.273438 423.445312 "/>
<path fill-rule="nonzero" fill="rgb(82.745098%, 82.745098%, 82.745098%)" fill-opacity="1" stroke-width="0.75" stroke-linecap="round" stroke-linejoin="round" stroke="rgb(0%, 0%, 0%)" stroke-opacity="1" stroke-miterlimit="10" d="M 60.371094 423.445312 L 70.46875 423.445312 L 70.46875 414.613281 L 60.371094 414.613281 Z M 60.371094 423.445312 "/>
<path fill-rule="nonzero" fill="rgb(82.745098%, 82.745098%, 82.745098%)" fill-opacity="1" stroke-width="0.75" stroke-linecap="round" stroke-linejoin="round" stroke="rgb(0%, 0%, 0%)" stroke-opacity="1" stroke-miterlimit="10" d="M 70.46875 423.445312 L 80.566406 423.445312 L 80.566406 422.816406 L 70.46875 422.816406 Z M 70.46875 423.445312 "/>
<path fill-rule="nonzero" fill="rgb(82.745098%, 82.745098%, 82.745098%)" fill-opacity="1" stroke-width="0.75" stroke-linecap="round" stroke-linejoin="round" stroke="rgb(0%, 0%, 0%)" stroke-opacity="1" stroke-miterlimit="10" d="M 80.5625 423.445312 L 90.660156 423.445312 L 90.660156 423.429688 L 80.5625 423.429688 Z M 80.5625 423.445312 "/>
<path fill="none" stroke-width="0.75" stroke-linecap="round" stroke-linejoin="round" stroke="rgb(0%, 0%, 0%)" stroke-opacity="1" stroke-miterlimit="10" d="M 90.660156 423.445312 L 100.757812 423.445312 Z M 90.660156 423.445312 "/>
<path fill="none" stroke-width="0.75" stroke-linecap="round" stroke-linejoin="round" stroke="rgb(0%, 0%, 0%)" stroke-opacity="1" stroke-miterlimit="10" d="M 100.757812 423.445312 L 110.855469 423.445312 Z M 100.757812 423.445312 "/>
<path fill="none" stroke-width="0.75" stroke-linecap="round" stroke-linejoin="round" stroke="rgb(0%, 0%, 0%)" stroke-opacity="1" stroke-miterlimit="10" d="M 110.855469 423.445312 L 120.953125 423.445312 Z M 110.855469 423.445312 "/>
<path fill="none" stroke-width="0.75" stroke-linecap="round" stroke-linejoin="round" stroke="rgb(0%, 0%, 0%)" stroke-opacity="1" stroke-miterlimit="10" d="M 120.953125 423.445312 L 131.050781 423.445312 Z M 120.953125 423.445312 "/>
<path fill="none" stroke-width="0.75" stroke-linecap="round" stroke-linejoin="round" stroke="rgb(0%, 0%, 0%)" stroke-opacity="1" stroke-miterlimit="10" d="M 131.046875 423.445312 L 141.144531 423.445312 Z M 131.046875 423.445312 "/>
<path fill="none" stroke-width="0.75" stroke-linecap="round" stroke-linejoin="round" stroke="rgb(0%, 0%, 0%)" stroke-opacity="1" stroke-miterlimit="10" d="M 141.144531 423.445312 L 151.242188 423.445312 Z M 141.144531 423.445312 "/>
<path fill="none" stroke-width="0.75" stroke-linecap="round" stroke-linejoin="round" stroke="rgb(0%, 0%, 0%)" stroke-opacity="1" stroke-miterlimit="10" d="M 151.242188 423.445312 L 161.339844 423.445312 Z M 151.242188 423.445312 "/>
<path fill="none" stroke-width="0.75" stroke-linecap="round" stroke-linejoin="round" stroke="rgb(0%, 0%, 0%)" stroke-opacity="1" stroke-miterlimit="10" d="M 161.339844 423.445312 L 171.4375 423.445312 Z M 161.339844 423.445312 "/>
<path fill="none" stroke-width="0.75" stroke-linecap="round" stroke-linejoin="round" stroke="rgb(0%, 0%, 0%)" stroke-opacity="1" stroke-miterlimit="10" d="M 171.4375 423.445312 L 181.535156 423.445312 Z M 171.4375 423.445312 "/>
<path fill="none" stroke-width="0.75" stroke-linecap="round" stroke-linejoin="round" stroke="rgb(0%, 0%, 0%)" stroke-opacity="1" stroke-miterlimit="10" d="M 181.53125 423.445312 L 191.628906 423.445312 Z M 181.53125 423.445312 "/>
<path fill="none" stroke-width="0.75" stroke-linecap="round" stroke-linejoin="round" stroke="rgb(0%, 0%, 0%)" stroke-opacity="1" stroke-miterlimit="10" d="M 191.628906 423.445312 L 201.726562 423.445312 Z M 191.628906 423.445312 "/>
<path fill="none" stroke-width="0.75" stroke-linecap="round" stroke-linejoin="round" stroke="rgb(0%, 0%, 0%)" stroke-opacity="1" stroke-miterlimit="10" d="M 201.726562 423.445312 L 211.824219 423.445312 Z M 201.726562 423.445312 "/>
<path fill="none" stroke-width="0.75" stroke-linecap="round" stroke-linejoin="round" stroke="rgb(0%, 0%, 0%)" stroke-opacity="1" stroke-miterlimit="10" d="M 211.824219 423.445312 L 221.921875 423.445312 Z M 211.824219 423.445312 "/>
<path fill="none" stroke-width="0.75" stroke-linecap="round" stroke-linejoin="round" stroke="rgb(0%, 0%, 0%)" stroke-opacity="1" stroke-miterlimit="10" d="M 221.917969 423.445312 L 232.015625 423.445312 Z M 221.917969 423.445312 "/>
<path fill-rule="nonzero" fill="rgb(82.745098%, 82.745098%, 82.745098%)" fill-opacity="1" stroke-width="0.75" stroke-linecap="round" stroke-linejoin="round" stroke="rgb(0%, 0%, 0%)" stroke-opacity="1" stroke-miterlimit="10" d="M 232.015625 423.445312 L 242.113281 423.445312 L 242.113281 421.433594 L 232.015625 421.433594 Z M 232.015625 423.445312 "/>
<g clip-path="url(#clip-1)">
<g fill="rgb(0%, 0%, 0%)" fill-opacity="1">
<use xlink:href="#glyph-0-0" x="354.246094" y="221.078125"/>
<use xlink:href="#glyph-0-6" x="361.546852" y="221.078125"/>
<use xlink:href="#glyph-0-7" x="368.193984" y="221.078125"/>
<use xlink:href="#glyph-0-8" x="371.514633" y="221.078125"/>
<use xlink:href="#glyph-0-7" x="378.494414" y="221.078125"/>
<use xlink:href="#glyph-0-9" x="381.815062" y="221.078125"/>
<use xlink:href="#glyph-0-10" x="388.462195" y="221.078125"/>
<use xlink:href="#glyph-0-10" x="395.109328" y="221.078125"/>
</g>
</g>
<path fill="none" stroke-width="0.75" stroke-linecap="round" stroke-linejoin="round" stroke="rgb(0%, 0%, 0%)" stroke-opacity="1" stroke-miterlimit="10" d="M 292.175781 431.402344 L 494.113281 431.402344 "/>
<path fill="none" stroke-width="0.75" stroke-linecap="round" stroke-linejoin="round" stroke="rgb(0%, 0%, 0%)" stroke-opacity="1" stroke-miterlimit="10" d="M 292.175781 431.402344 L 292.175781 437.378906 "/>
<path fill="none" stroke-width="0.75" stroke-linecap="round" stroke-linejoin="round" stroke="rgb(0%, 0%, 0%)" stroke-opacity="1" stroke-miterlimit="10" d="M 332.5625 431.402344 L 332.5625 437.378906 "/>
<path fill="none" stroke-width="0.75" stroke-linecap="round" stroke-linejoin="round" stroke="rgb(0%, 0%, 0%)" stroke-opacity="1" stroke-miterlimit="10" d="M 372.953125 431.402344 L 372.953125 437.378906 "/>
<path fill="none" stroke-width="0.75" stroke-linecap="round" stroke-linejoin="round" stroke="rgb(0%, 0%, 0%)" stroke-opacity="1" stroke-miterlimit="10" d="M 413.339844 431.402344 L 413.339844 437.378906 "/>
<path fill="none" stroke-width="0.75" stroke-linecap="round" stroke-linejoin="round" stroke="rgb(0%, 0%, 0%)" stroke-opacity="1" stroke-miterlimit="10" d="M 453.726562 431.402344 L 453.726562 437.378906 "/>
<path fill="none" stroke-width="0.75" stroke-linecap="round" stroke-linejoin="round" stroke="rgb(0%, 0%, 0%)" stroke-opacity="1" stroke-miterlimit="10" d="M 494.113281 431.402344 L 494.113281 437.378906 "/>
<path fill="none" stroke-width="0.75" stroke-linecap="round" stroke-linejoin="round" stroke="rgb(0%, 0%, 0%)" stroke-opacity="1" stroke-miterlimit="10" d="M 252.597656 423.445312 L 252.597656 219.066406 "/>
<path fill="none" stroke-width="0.75" stroke-linecap="round" stroke-linejoin="round" stroke="rgb(0%, 0%, 0%)" stroke-opacity="1" stroke-miterlimit="10" d="M 252.597656 423.445312 L 246.621094 423.445312 "/>
<path fill="none" stroke-width="0.75" stroke-linecap="round" stroke-linejoin="round" stroke="rgb(0%, 0%, 0%)" stroke-opacity="1" stroke-miterlimit="10" d="M 252.597656 389.382812 L 246.621094 389.382812 "/>
<path fill="none" stroke-width="0.75" stroke-linecap="round" stroke-linejoin="round" stroke="rgb(0%, 0%, 0%)" stroke-opacity="1" stroke-miterlimit="10" d="M 252.597656 355.320312 L 246.621094 355.320312 "/>
<path fill="none" stroke-width="0.75" stroke-linecap="round" stroke-linejoin="round" stroke="rgb(0%, 0%, 0%)" stroke-opacity="1" stroke-miterlimit="10" d="M 252.597656 321.257812 L 246.621094 321.257812 "/>
<path fill="none" stroke-width="0.75" stroke-linecap="round" stroke-linejoin="round" stroke="rgb(0%, 0%, 0%)" stroke-opacity="1" stroke-miterlimit="10" d="M 252.597656 287.191406 L 246.621094 287.191406 "/>
<path fill="none" stroke-width="0.75" stroke-linecap="round" stroke-linejoin="round" stroke="rgb(0%, 0%, 0%)" stroke-opacity="1" stroke-miterlimit="10" d="M 252.597656 253.128906 L 246.621094 253.128906 "/>
<path fill="none" stroke-width="0.75" stroke-linecap="round" stroke-linejoin="round" stroke="rgb(0%, 0%, 0%)" stroke-opacity="1" stroke-miterlimit="10" d="M 252.597656 219.066406 L 246.621094 219.066406 "/>
<g fill="rgb(0%, 0%, 0%)" fill-opacity="1">
<use xlink:href="#glyph-2-0" x="238.253906" y="426.214844"/>
</g>
<g fill="rgb(0%, 0%, 0%)" fill-opacity="1">
<use xlink:href="#glyph-2-1" x="238.253906" y="403.230469"/>
<use xlink:href="#glyph-2-0" x="238.253906" y="397.691191"/>
<use xlink:href="#glyph-2-0" x="238.253906" y="392.151914"/>
<use xlink:href="#glyph-2-0" x="238.253906" y="386.612637"/>
<use xlink:href="#glyph-2-0" x="238.253906" y="381.073359"/>
</g>
<g fill="rgb(0%, 0%, 0%)" fill-opacity="1">
<use xlink:href="#glyph-2-3" x="238.253906" y="335.105469"/>
<use xlink:href="#glyph-2-0" x="238.253906" y="329.566191"/>
<use xlink:href="#glyph-2-0" x="238.253906" y="324.026914"/>
<use xlink:href="#glyph-2-0" x="238.253906" y="318.487637"/>
<use xlink:href="#glyph-2-0" x="238.253906" y="312.948359"/>
</g>
<g fill="rgb(0%, 0%, 0%)" fill-opacity="1">
<use xlink:href="#glyph-2-5" x="238.253906" y="269.746094"/>
<use xlink:href="#glyph-2-0" x="238.253906" y="264.206816"/>
<use xlink:href="#glyph-2-0" x="238.253906" y="258.667539"/>
<use xlink:href="#glyph-2-0" x="238.253906" y="253.128262"/>
<use xlink:href="#glyph-2-0" x="238.253906" y="247.588984"/>
<use xlink:href="#glyph-2-0" x="238.253906" y="242.049707"/>
</g>
<path fill-rule="nonzero" fill="rgb(82.745098%, 82.745098%, 82.745098%)" fill-opacity="1" stroke-width="0.75" stroke-linecap="round" stroke-linejoin="round" stroke="rgb(0%, 0%, 0%)" stroke-opacity="1" stroke-miterlimit="10" d="M 261.886719 423.445312 L 271.984375 423.445312 L 271.984375 423.386719 L 261.886719 423.386719 Z M 261.886719 423.445312 "/>
<path fill-rule="nonzero" fill="rgb(82.745098%, 82.745098%, 82.745098%)" fill-opacity="1" stroke-width="0.75" stroke-linecap="round" stroke-linejoin="round" stroke="rgb(0%, 0%, 0%)" stroke-opacity="1" stroke-miterlimit="10" d="M 271.984375 423.445312 L 282.082031 423.445312 L 282.082031 401.054688 L 271.984375 401.054688 Z M 271.984375 423.445312 "/>
<path fill-rule="nonzero" fill="rgb(82.745098%, 82.745098%, 82.745098%)" fill-opacity="1" stroke-width="0.75" stroke-linecap="round" stroke-linejoin="round" stroke="rgb(0%, 0%, 0%)" stroke-opacity="1" stroke-miterlimit="10" d="M 282.082031 423.445312 L 292.179688 423.445312 L 292.179688 224.550781 L 282.082031 224.550781 Z M 282.082031 423.445312 "/>
<path fill-rule="nonzero" fill="rgb(82.745098%, 82.745098%, 82.745098%)" fill-opacity="1" stroke-width="0.75" stroke-linecap="round" stroke-linejoin="round" stroke="rgb(0%, 0%, 0%)" stroke-opacity="1" stroke-miterlimit="10" d="M 292.175781 423.445312 L 302.273438 423.445312 L 302.273438 245.605469 L 292.175781 245.605469 Z M 292.175781 423.445312 "/>
<path fill-rule="nonzero" fill="rgb(82.745098%, 82.745098%, 82.745098%)" fill-opacity="1" stroke-width="0.75" stroke-linecap="round" stroke-linejoin="round" stroke="rgb(0%, 0%, 0%)" stroke-opacity="1" stroke-miterlimit="10" d="M 302.273438 423.445312 L 312.371094 423.445312 L 312.371094 398.421875 L 302.273438 398.421875 Z M 302.273438 423.445312 "/>
<path fill-rule="nonzero" fill="rgb(82.745098%, 82.745098%, 82.745098%)" fill-opacity="1" stroke-width="0.75" stroke-linecap="round" stroke-linejoin="round" stroke="rgb(0%, 0%, 0%)" stroke-opacity="1" stroke-miterlimit="10" d="M 312.371094 423.445312 L 322.46875 423.445312 L 322.46875 422.710938 L 312.371094 422.710938 Z M 312.371094 423.445312 "/>
<path fill-rule="nonzero" fill="rgb(82.745098%, 82.745098%, 82.745098%)" fill-opacity="1" stroke-width="0.75" stroke-linecap="round" stroke-linejoin="round" stroke="rgb(0%, 0%, 0%)" stroke-opacity="1" stroke-miterlimit="10" d="M 322.46875 423.445312 L 332.566406 423.445312 L 332.566406 423.441406 L 322.46875 423.441406 Z M 322.46875 423.445312 "/>
<path fill="none" stroke-width="0.75" stroke-linecap="round" stroke-linejoin="round" stroke="rgb(0%, 0%, 0%)" stroke-opacity="1" stroke-miterlimit="10" d="M 332.5625 423.445312 L 342.660156 423.445312 Z M 332.5625 423.445312 "/>
<path fill="none" stroke-width="0.75" stroke-linecap="round" stroke-linejoin="round" stroke="rgb(0%, 0%, 0%)" stroke-opacity="1" stroke-miterlimit="10" d="M 342.660156 423.445312 L 352.757812 423.445312 Z M 342.660156 423.445312 "/>
<path fill="none" stroke-width="0.75" stroke-linecap="round" stroke-linejoin="round" stroke="rgb(0%, 0%, 0%)" stroke-opacity="1" stroke-miterlimit="10" d="M 352.757812 423.445312 L 362.855469 423.445312 Z M 352.757812 423.445312 "/>
<path fill="none" stroke-width="0.75" stroke-linecap="round" stroke-linejoin="round" stroke="rgb(0%, 0%, 0%)" stroke-opacity="1" stroke-miterlimit="10" d="M 362.855469 423.445312 L 372.953125 423.445312 Z M 362.855469 423.445312 "/>
<path fill="none" stroke-width="0.75" stroke-linecap="round" stroke-linejoin="round" stroke="rgb(0%, 0%, 0%)" stroke-opacity="1" stroke-miterlimit="10" d="M 372.953125 423.445312 L 383.050781 423.445312 Z M 372.953125 423.445312 "/>
<path fill="none" stroke-width="0.75" stroke-linecap="round" stroke-linejoin="round" stroke="rgb(0%, 0%, 0%)" stroke-opacity="1" stroke-miterlimit="10" d="M 383.046875 423.445312 L 393.144531 423.445312 Z M 383.046875 423.445312 "/>
<path fill="none" stroke-width="0.75" stroke-linecap="round" stroke-linejoin="round" stroke="rgb(0%, 0%, 0%)" stroke-opacity="1" stroke-miterlimit="10" d="M 393.144531 423.445312 L 403.242188 423.445312 Z M 393.144531 423.445312 "/>
<path fill="none" stroke-width="0.75" stroke-linecap="round" stroke-linejoin="round" stroke="rgb(0%, 0%, 0%)" stroke-opacity="1" stroke-miterlimit="10" d="M 403.242188 423.445312 L 413.339844 423.445312 Z M 403.242188 423.445312 "/>
<path fill="none" stroke-width="0.75" stroke-linecap="round" stroke-linejoin="round" stroke="rgb(0%, 0%, 0%)" stroke-opacity="1" stroke-miterlimit="10" d="M 413.339844 423.445312 L 423.4375 423.445312 Z M 413.339844 423.445312 "/>
<path fill="none" stroke-width="0.75" stroke-linecap="round" stroke-linejoin="round" stroke="rgb(0%, 0%, 0%)" stroke-opacity="1" stroke-miterlimit="10" d="M 423.4375 423.445312 L 433.535156 423.445312 Z M 423.4375 423.445312 "/>
<path fill="none" stroke-width="0.75" stroke-linecap="round" stroke-linejoin="round" stroke="rgb(0%, 0%, 0%)" stroke-opacity="1" stroke-miterlimit="10" d="M 433.53125 423.445312 L 443.628906 423.445312 Z M 433.53125 423.445312 "/>
<path fill="none" stroke-width="0.75" stroke-linecap="round" stroke-linejoin="round" stroke="rgb(0%, 0%, 0%)" stroke-opacity="1" stroke-miterlimit="10" d="M 443.628906 423.445312 L 453.726562 423.445312 Z M 443.628906 423.445312 "/>
<path fill="none" stroke-width="0.75" stroke-linecap="round" stroke-linejoin="round" stroke="rgb(0%, 0%, 0%)" stroke-opacity="1" stroke-miterlimit="10" d="M 453.726562 423.445312 L 463.824219 423.445312 Z M 453.726562 423.445312 "/>
<path fill="none" stroke-width="0.75" stroke-linecap="round" stroke-linejoin="round" stroke="rgb(0%, 0%, 0%)" stroke-opacity="1" stroke-miterlimit="10" d="M 463.824219 423.445312 L 473.921875 423.445312 Z M 463.824219 423.445312 "/>
<path fill="none" stroke-width="0.75" stroke-linecap="round" stroke-linejoin="round" stroke="rgb(0%, 0%, 0%)" stroke-opacity="1" stroke-miterlimit="10" d="M 473.917969 423.445312 L 484.015625 423.445312 Z M 473.917969 423.445312 "/>
<path fill-rule="nonzero" fill="rgb(82.745098%, 82.745098%, 82.745098%)" fill-opacity="1" stroke-width="0.75" stroke-linecap="round" stroke-linejoin="round" stroke="rgb(0%, 0%, 0%)" stroke-opacity="1" stroke-miterlimit="10" d="M 484.015625 423.445312 L 494.113281 423.445312 L 494.113281 422.59375 L 484.015625 422.59375 Z M 484.015625 423.445312 "/>
</svg>
