<?xml version="1.0" encoding="UTF-8"?>
<svg xmlns="http://www.w3.org/2000/svg" xmlns:xlink="http://www.w3.org/1999/xlink" width="504pt" height="432pt" viewBox="0 0 504 432" version="1.1">
<defs>
<g>
<symbol overflow="visible" id="glyph0-0">
<path style="stroke:none;" d="M 1.664063 0 L 1.664063 -7.5 L 7.664063 -7.5 L 7.664063 0 Z M 1.851563 -0.1875 L 7.476563 -0.1875 L 7.476563 -7.3125 L 1.851563 -7.3125 Z M 1.851563 -0.1875 "/>
</symbol>
<symbol overflow="visible" id="glyph0-1">
<path style="stroke:none;" d="M 1.40625 -7.164063 L 3.339844 -8.109375 L 3.53125 -8.109375 L 3.53125 -1.398438 C 3.527344 -0.953125 3.546875 -0.675781 3.585938 -0.570313 C 3.625 -0.457031 3.703125 -0.375 3.820313 -0.316406 C 3.9375 -0.253906 4.175781 -0.21875 4.535156 -0.21875 L 4.535156 0 L 1.546875 0 L 1.546875 -0.21875 C 1.921875 -0.21875 2.164063 -0.25 2.273438 -0.3125 C 2.382813 -0.367188 2.457031 -0.445313 2.5 -0.542969 C 2.542969 -0.636719 2.566406 -0.921875 2.566406 -1.398438 L 2.566406 -5.6875 C 2.566406 -6.261719 2.546875 -6.632813 2.507813 -6.804688 C 2.480469 -6.925781 2.429688 -7.019531 2.359375 -7.078125 C 2.285156 -7.132813 2.199219 -7.160156 2.097656 -7.164063 C 1.953125 -7.160156 1.75 -7.101563 1.492188 -6.984375 Z M 1.40625 -7.164063 "/>
</symbol>
<symbol overflow="visible" id="glyph0-2">
<path style="stroke:none;" d="M 5.5 -1.53125 L 4.945313 0 L 0.257813 0 L 0.257813 -0.21875 C 1.636719 -1.46875 2.605469 -2.496094 3.171875 -3.296875 C 3.730469 -4.089844 4.011719 -4.820313 4.015625 -5.484375 C 4.011719 -5.988281 3.859375 -6.402344 3.550781 -6.726563 C 3.238281 -7.046875 2.867188 -7.207031 2.445313 -7.210938 C 2.050781 -7.207031 1.699219 -7.09375 1.390625 -6.867188 C 1.078125 -6.640625 0.851563 -6.304688 0.703125 -5.867188 L 0.484375 -5.867188 C 0.582031 -6.585938 0.832031 -7.140625 1.238281 -7.527344 C 1.636719 -7.914063 2.144531 -8.109375 2.753906 -8.109375 C 3.394531 -8.109375 3.929688 -7.902344 4.367188 -7.488281 C 4.796875 -7.074219 5.015625 -6.585938 5.015625 -6.023438 C 5.015625 -5.621094 4.921875 -5.21875 4.734375 -4.816406 C 4.445313 -4.183594 3.976563 -3.511719 3.328125 -2.804688 C 2.351563 -1.738281 1.742188 -1.097656 1.507813 -0.882813 L 3.578125 -0.882813 C 3.996094 -0.878906 4.292969 -0.894531 4.464844 -0.929688 C 4.636719 -0.957031 4.789063 -1.019531 4.925781 -1.121094 C 5.0625 -1.214844 5.183594 -1.351563 5.285156 -1.53125 Z M 5.5 -1.53125 "/>
</symbol>
<symbol overflow="visible" id="glyph0-3">
<path style="stroke:none;" d="M 0.609375 -6.433594 C 0.835938 -6.964844 1.121094 -7.375 1.464844 -7.671875 C 1.808594 -7.960938 2.238281 -8.109375 2.757813 -8.109375 C 3.394531 -8.109375 3.882813 -7.902344 4.226563 -7.488281 C 4.476563 -7.175781 4.605469 -6.84375 4.609375 -6.5 C 4.605469 -5.917969 4.242188 -5.320313 3.523438 -4.703125 C 4.007813 -4.511719 4.378906 -4.238281 4.628906 -3.882813 C 4.878906 -3.527344 5.003906 -3.109375 5.003906 -2.632813 C 5.003906 -1.941406 4.785156 -1.347656 4.347656 -0.84375 C 3.777344 -0.1875 2.949219 0.140625 1.867188 0.140625 C 1.332031 0.140625 0.96875 0.0742188 0.773438 -0.0585938 C 0.578125 -0.191406 0.480469 -0.332031 0.484375 -0.484375 C 0.480469 -0.597656 0.527344 -0.699219 0.621094 -0.785156 C 0.714844 -0.871094 0.824219 -0.914063 0.953125 -0.914063 C 1.050781 -0.914063 1.152344 -0.898438 1.253906 -0.867188 C 1.316406 -0.84375 1.464844 -0.769531 1.703125 -0.652344 C 1.933594 -0.527344 2.097656 -0.457031 2.191406 -0.433594 C 2.332031 -0.386719 2.484375 -0.363281 2.65625 -0.367188 C 3.046875 -0.363281 3.394531 -0.519531 3.691406 -0.832031 C 3.988281 -1.140625 4.136719 -1.503906 4.136719 -1.929688 C 4.136719 -2.234375 4.066406 -2.535156 3.929688 -2.828125 C 3.828125 -3.042969 3.71875 -3.210938 3.597656 -3.328125 C 3.425781 -3.484375 3.195313 -3.625 2.90625 -3.753906 C 2.613281 -3.878906 2.3125 -3.941406 2.007813 -3.945313 L 1.820313 -3.945313 L 1.820313 -4.117188 C 2.128906 -4.15625 2.4375 -4.269531 2.75 -4.453125 C 3.058594 -4.632813 3.285156 -4.851563 3.429688 -5.113281 C 3.566406 -5.367188 3.636719 -5.652344 3.640625 -5.964844 C 3.636719 -6.367188 3.511719 -6.691406 3.261719 -6.941406 C 3.007813 -7.1875 2.695313 -7.3125 2.320313 -7.3125 C 1.714844 -7.3125 1.207031 -6.988281 0.804688 -6.339844 Z M 0.609375 -6.433594 "/>
</symbol>
<symbol overflow="visible" id="glyph0-4">
<path style="stroke:none;" d="M 5.585938 -2.929688 L 5.585938 -2.097656 L 4.515625 -2.097656 L 4.515625 0 L 3.550781 0 L 3.550781 -2.097656 L 0.1875 -2.097656 L 0.1875 -2.847656 L 3.875 -8.109375 L 4.515625 -8.109375 L 4.515625 -2.929688 Z M 3.550781 -2.929688 L 3.550781 -6.875 L 0.761719 -2.929688 Z M 3.550781 -2.929688 "/>
</symbol>
<symbol overflow="visible" id="glyph0-5">
<path style="stroke:none;" d="M 5.210938 -7.945313 L 4.75 -6.949219 L 2.359375 -6.949219 L 1.839844 -5.882813 C 2.871094 -5.730469 3.691406 -5.34375 4.300781 -4.726563 C 4.816406 -4.191406 5.074219 -3.566406 5.078125 -2.851563 C 5.074219 -2.433594 4.988281 -2.046875 4.824219 -1.691406 C 4.652344 -1.335938 4.441406 -1.035156 4.183594 -0.785156 C 3.925781 -0.535156 3.636719 -0.332031 3.320313 -0.179688 C 2.871094 0.0351563 2.410156 0.140625 1.9375 0.140625 C 1.460938 0.140625 1.113281 0.0625 0.898438 -0.101563 C 0.679688 -0.257813 0.574219 -0.4375 0.574219 -0.640625 C 0.574219 -0.746094 0.617188 -0.84375 0.707031 -0.929688 C 0.796875 -1.011719 0.910156 -1.054688 1.046875 -1.054688 C 1.148438 -1.054688 1.238281 -1.039063 1.316406 -1.007813 C 1.390625 -0.976563 1.519531 -0.894531 1.703125 -0.765625 C 1.996094 -0.558594 2.292969 -0.457031 2.59375 -0.460938 C 3.050781 -0.457031 3.453125 -0.628906 3.800781 -0.980469 C 4.144531 -1.324219 4.316406 -1.746094 4.320313 -2.242188 C 4.316406 -2.722656 4.164063 -3.171875 3.855469 -3.585938 C 3.542969 -4 3.117188 -4.320313 2.578125 -4.554688 C 2.148438 -4.726563 1.566406 -4.828125 0.835938 -4.859375 L 2.359375 -7.945313 Z M 5.210938 -7.945313 "/>
</symbol>
<symbol overflow="visible" id="glyph0-6">
<path style="stroke:none;" d="M 5.378906 -8.109375 L 5.378906 -7.890625 C 4.863281 -7.839844 4.441406 -7.738281 4.113281 -7.582031 C 3.785156 -7.425781 3.460938 -7.191406 3.148438 -6.878906 C 2.828125 -6.5625 2.566406 -6.207031 2.359375 -5.820313 C 2.148438 -5.429688 1.972656 -4.96875 1.835938 -4.4375 C 2.394531 -4.820313 2.960938 -5.015625 3.527344 -5.015625 C 4.070313 -5.015625 4.539063 -4.796875 4.941406 -4.359375 C 5.335938 -3.921875 5.535156 -3.359375 5.539063 -2.671875 C 5.535156 -2.007813 5.335938 -1.402344 4.933594 -0.855469 C 4.449219 -0.191406 3.808594 0.140625 3.011719 0.140625 C 2.464844 0.140625 2.003906 -0.0390625 1.628906 -0.398438 C 0.886719 -1.09375 0.515625 -2 0.515625 -3.117188 C 0.515625 -3.828125 0.65625 -4.503906 0.941406 -5.144531 C 1.226563 -5.785156 1.632813 -6.351563 2.164063 -6.847656 C 2.691406 -7.34375 3.199219 -7.679688 3.6875 -7.851563 C 4.167969 -8.023438 4.621094 -8.109375 5.039063 -8.109375 Z M 1.734375 -4.007813 C 1.664063 -3.480469 1.628906 -3.054688 1.628906 -2.730469 C 1.628906 -2.355469 1.695313 -1.945313 1.835938 -1.507813 C 1.972656 -1.066406 2.179688 -0.71875 2.453125 -0.460938 C 2.652344 -0.277344 2.894531 -0.1875 3.179688 -0.1875 C 3.519531 -0.1875 3.824219 -0.347656 4.089844 -0.667969 C 4.355469 -0.988281 4.488281 -1.445313 4.492188 -2.039063 C 4.488281 -2.703125 4.355469 -3.28125 4.09375 -3.773438 C 3.824219 -4.261719 3.449219 -4.503906 2.964844 -4.507813 C 2.816406 -4.503906 2.65625 -4.472656 2.488281 -4.414063 C 2.316406 -4.347656 2.066406 -4.214844 1.734375 -4.007813 Z M 1.734375 -4.007813 "/>
</symbol>
<symbol overflow="visible" id="glyph0-7">
<path style="stroke:none;" d="M 1.207031 -7.945313 L 5.46875 -7.945313 L 5.46875 -7.722656 L 2.820313 0.164063 L 2.164063 0.164063 L 4.535156 -6.992188 L 2.351563 -6.992188 C 1.90625 -6.988281 1.59375 -6.9375 1.40625 -6.832031 C 1.078125 -6.652344 0.8125 -6.375 0.617188 -6 L 0.445313 -6.0625 Z M 1.207031 -7.945313 "/>
</symbol>
<symbol overflow="visible" id="glyph0-8">
<path style="stroke:none;" d="M 2.304688 -4 C 1.671875 -4.511719 1.265625 -4.925781 1.085938 -5.242188 C 0.898438 -5.550781 0.808594 -5.875 0.8125 -6.21875 C 0.808594 -6.730469 1.007813 -7.175781 1.410156 -7.550781 C 1.804688 -7.921875 2.335938 -8.109375 3 -8.109375 C 3.640625 -8.109375 4.15625 -7.933594 4.546875 -7.585938 C 4.9375 -7.238281 5.132813 -6.84375 5.132813 -6.398438 C 5.132813 -6.101563 5.027344 -5.796875 4.816406 -5.488281 C 4.605469 -5.179688 4.164063 -4.816406 3.5 -4.398438 C 4.183594 -3.863281 4.640625 -3.445313 4.863281 -3.148438 C 5.160156 -2.742188 5.308594 -2.324219 5.308594 -1.886719 C 5.308594 -1.324219 5.09375 -0.84375 4.667969 -0.453125 C 4.242188 -0.0546875 3.683594 0.140625 2.992188 0.140625 C 2.238281 0.140625 1.652344 -0.09375 1.230469 -0.570313 C 0.894531 -0.945313 0.726563 -1.359375 0.726563 -1.8125 C 0.726563 -2.15625 0.84375 -2.503906 1.082031 -2.855469 C 1.316406 -3.199219 1.722656 -3.582031 2.304688 -4 Z M 3.222656 -4.628906 C 3.691406 -5.050781 3.988281 -5.382813 4.113281 -5.625 C 4.238281 -5.867188 4.300781 -6.144531 4.300781 -6.457031 C 4.300781 -6.863281 4.183594 -7.183594 3.953125 -7.417969 C 3.722656 -7.652344 3.410156 -7.769531 3.011719 -7.769531 C 2.613281 -7.769531 2.289063 -7.652344 2.039063 -7.421875 C 1.789063 -7.191406 1.664063 -6.921875 1.664063 -6.617188 C 1.664063 -6.410156 1.714844 -6.207031 1.820313 -6.007813 C 1.921875 -5.800781 2.070313 -5.609375 2.261719 -5.425781 Z M 2.578125 -3.78125 C 2.253906 -3.5 2.011719 -3.203125 1.859375 -2.882813 C 1.699219 -2.5625 1.621094 -2.214844 1.625 -1.839844 C 1.621094 -1.335938 1.757813 -0.929688 2.035156 -0.628906 C 2.308594 -0.324219 2.660156 -0.175781 3.085938 -0.175781 C 3.503906 -0.175781 3.84375 -0.292969 4.101563 -0.53125 C 4.355469 -0.769531 4.480469 -1.058594 4.484375 -1.398438 C 4.480469 -1.675781 4.40625 -1.929688 4.257813 -2.15625 C 3.980469 -2.570313 3.421875 -3.109375 2.578125 -3.78125 Z M 2.578125 -3.78125 "/>
</symbol>
<symbol overflow="visible" id="glyph0-9">
<path style="stroke:none;" d="M 0.632813 0.164063 L 0.632813 -0.0546875 C 1.140625 -0.0546875 1.613281 -0.171875 2.050781 -0.40625 C 2.488281 -0.632813 2.910156 -1.035156 3.316406 -1.605469 C 3.722656 -2.175781 4.007813 -2.800781 4.171875 -3.484375 C 3.554688 -3.089844 3 -2.894531 2.507813 -2.894531 C 1.949219 -2.894531 1.46875 -3.109375 1.074219 -3.539063 C 0.671875 -3.96875 0.472656 -4.542969 0.476563 -5.261719 C 0.472656 -5.957031 0.671875 -6.574219 1.070313 -7.117188 C 1.550781 -7.777344 2.179688 -8.109375 2.953125 -8.109375 C 3.601563 -8.109375 4.160156 -7.839844 4.628906 -7.300781 C 5.199219 -6.628906 5.484375 -5.804688 5.484375 -4.828125 C 5.484375 -3.945313 5.265625 -3.121094 4.832031 -2.355469 C 4.398438 -1.589844 3.796875 -0.957031 3.023438 -0.457031 C 2.390625 -0.0429688 1.703125 0.164063 0.96875 0.164063 Z M 4.265625 -3.921875 C 4.335938 -4.421875 4.371094 -4.828125 4.371094 -5.140625 C 4.371094 -5.515625 4.304688 -5.925781 4.175781 -6.363281 C 4.046875 -6.800781 3.863281 -7.136719 3.628906 -7.375 C 3.386719 -7.605469 3.121094 -7.722656 2.824219 -7.726563 C 2.476563 -7.722656 2.171875 -7.566406 1.910156 -7.257813 C 1.644531 -6.941406 1.511719 -6.476563 1.515625 -5.867188 C 1.511719 -5.039063 1.6875 -4.394531 2.039063 -3.929688 C 2.292969 -3.59375 2.605469 -3.425781 2.976563 -3.429688 C 3.15625 -3.425781 3.367188 -3.46875 3.613281 -3.558594 C 3.859375 -3.640625 4.078125 -3.761719 4.265625 -3.921875 Z M 4.265625 -3.921875 "/>
</symbol>
<symbol overflow="visible" id="glyph0-10">
<path style="stroke:none;" d="M 0.433594 -3.925781 C 0.433594 -4.832031 0.570313 -5.609375 0.84375 -6.265625 C 1.117188 -6.917969 1.480469 -7.40625 1.933594 -7.726563 C 2.285156 -7.980469 2.648438 -8.109375 3.023438 -8.109375 C 3.632813 -8.109375 4.179688 -7.796875 4.664063 -7.179688 C 5.265625 -6.40625 5.566406 -5.363281 5.570313 -4.046875 C 5.566406 -3.121094 5.433594 -2.339844 5.171875 -1.699219 C 4.902344 -1.054688 4.5625 -0.585938 4.15625 -0.296875 C 3.742188 -0.00390625 3.347656 0.140625 2.964844 0.140625 C 2.207031 0.140625 1.574219 -0.304688 1.070313 -1.203125 C 0.644531 -1.953125 0.433594 -2.863281 0.433594 -3.925781 Z M 1.582031 -3.78125 C 1.582031 -2.683594 1.714844 -1.792969 1.984375 -1.101563 C 2.207031 -0.515625 2.539063 -0.222656 2.984375 -0.226563 C 3.1875 -0.222656 3.40625 -0.316406 3.636719 -0.511719 C 3.859375 -0.699219 4.03125 -1.019531 4.15625 -1.464844 C 4.328125 -2.136719 4.417969 -3.082031 4.421875 -4.304688 C 4.417969 -5.207031 4.324219 -5.964844 4.140625 -6.574219 C 3.996094 -7.023438 3.816406 -7.339844 3.597656 -7.53125 C 3.4375 -7.65625 3.242188 -7.722656 3.015625 -7.722656 C 2.746094 -7.722656 2.511719 -7.601563 2.308594 -7.367188 C 2.027344 -7.039063 1.835938 -6.53125 1.734375 -5.835938 C 1.632813 -5.140625 1.582031 -4.453125 1.582031 -3.78125 Z M 1.582031 -3.78125 "/>
</symbol>
</g>
</defs>
<g id="surface34">
<rect x="0" y="0" width="504" height="432" style="fill:rgb(100%,100%,100%);fill-opacity:1;stroke:none;"/>
<path style="fill:none;stroke-width:0.75;stroke-linecap:round;stroke-linejoin:round;stroke:rgb(66.27451%,66.27451%,66.27451%);stroke-opacity:1;stroke-miterlimit:10;" d="M 353.058594 387.96875 L 352.984375 387.917969 L 352.488281 387.5625 L 351.230469 386.664063 L 348.980469 385.042969 L 345.609375 382.59375 L 341.117188 379.292969 L 335.617188 375.210938 L 329.320313 370.46875 L 322.488281 365.242188 L 315.398438 359.714844 L 308.3125 354.0625 L 301.449219 348.425781 L 294.960938 342.910156 L 288.96875 337.589844 L 283.523438 332.496094 L 278.660156 327.636719 L 274.367188 322.996094 L 270.636719 318.539063 L 267.433594 314.226563 L 264.726563 310.007813 L 262.476563 305.839844 L 260.648438 301.667969 L 259.199219 297.453125 L 258.636719 295.453125 L 257.683594 291.121094 L 257.074219 286.664063 L 256.828125 282.03125 L 256.953125 277.160156 L 257.460938 271.992188 L 258.355469 266.46875 L 259.644531 260.53125 L 261.332031 254.136719 L 263.410156 247.261719 L 265.871094 239.90625 L 268.6875 232.109375 L 271.808594 223.957031 L 275.152344 215.59375 L 278.625 207.222656 L 282.089844 199.109375 L 285.394531 191.535156 L 288.390625 184.804688 L 290.945313 179.160156 L 292.957031 174.761719 L 294.394531 171.664063 L 295.285156 169.769531 L 295.710938 168.863281 L 295.832031 168.613281 L 295.835938 168.605469 "/>
<path style="fill:none;stroke-width:0.75;stroke-linecap:round;stroke-linejoin:round;stroke:rgb(66.27451%,66.27451%,66.27451%);stroke-opacity:1;stroke-miterlimit:10;" d="M 344.109375 395.25 L 344.003906 395.277344 L 343.3125 395.445313 L 341.597656 395.851563 L 338.578125 396.554688 L 334.179688 397.550781 L 328.519531 398.796875 L 321.878906 400.203125 L 314.617188 401.667969 L 307.117188 403.085938 L 299.695313 404.367188 L 292.597656 405.453125 L 285.96875 406.292969 L 279.882813 406.863281 L 274.347656 407.140625 L 269.332031 407.125 L 264.78125 406.804688 L 260.632813 406.175781 L 256.804688 405.230469 L 253.230469 403.964844 L 250.613281 402.78125 L 247.34375 400.96875 L 244.199219 398.804688 L 241.148438 396.234375 L 238.136719 393.199219 L 235.121094 389.652344 L 232.054688 385.539063 L 228.902344 380.820313 L 225.640625 375.492188 L 222.269531 369.582031 L 218.820313 363.171875 L 215.351563 356.433594 L 211.964844 349.613281 L 208.796875 343.039063 L 205.988281 337.074219 L 203.671875 332.066406 L 201.941406 328.25 L 200.804688 325.714844 L 200.203125 324.355469 L 199.992188 323.875 L 199.972656 323.828125 "/>
<path style="fill:none;stroke-width:0.75;stroke-linecap:round;stroke-linejoin:round;stroke:rgb(66.27451%,66.27451%,66.27451%);stroke-opacity:1;stroke-miterlimit:10;" d="M 288.683594 141.726563 L 288.574219 141.648438 L 287.867188 141.15625 L 286.171875 139.953125 L 283.34375 137.925781 L 279.511719 135.128906 L 275 131.761719 L 270.222656 128.089844 L 265.550781 124.359375 L 261.25 120.742188 L 257.472656 117.332031 L 254.273438 114.148438 L 251.640625 111.160156 L 249.539063 108.308594 L 247.917969 105.53125 L 246.71875 102.75 L 246.109375 100.8125 L 245.5 97.90625 L 245.246094 94.839844 L 245.359375 91.539063 L 245.851563 87.90625 L 246.734375 83.859375 L 248.011719 79.339844 L 249.664063 74.339844 L 251.640625 68.933594 L 253.84375 63.316406 L 256.109375 57.8125 L 258.230469 52.84375 L 259.992188 48.832031 L 261.230469 46.058594 L 261.917969 44.550781 L 262.15625 44.035156 L 262.175781 43.996094 "/>
<path style="fill:none;stroke-width:0.75;stroke-linecap:round;stroke-linejoin:round;stroke:rgb(66.27451%,66.27451%,66.27451%);stroke-opacity:1;stroke-miterlimit:10;" d="M 190.851563 304.152344 L 190.816406 304.078125 L 190.566406 303.570313 L 189.933594 302.273438 L 188.796875 299.917969 L 187.082031 296.332031 L 184.773438 291.457031 L 181.914063 285.339844 L 178.59375 278.136719 L 174.9375 270.066406 L 171.085938 261.394531 L 167.183594 252.398438 L 163.359375 243.320313 L 159.726563 234.367188 L 156.367188 225.703125 L 153.335938 217.433594 L 150.679688 209.621094 L 148.414063 202.285156 L 146.550781 195.421875 L 145.085938 189.011719 L 144.027344 183.003906 L 143.355469 177.355469 L 143.074219 172.007813 L 143.167969 166.90625 L 143.632813 161.992188 L 144.449219 157.222656 L 145 154.8125 L 146.320313 150.175781 L 148.003906 145.597656 L 150.082031 141.042969 L 152.589844 136.472656 L 155.566406 131.835938 L 159.035156 127.089844 L 163.039063 122.195313 L 167.59375 117.105469 L 172.722656 111.792969 L 178.425781 106.242188 L 184.6875 100.453125 L 191.46875 94.449219 L 198.679688 88.277344 L 206.195313 82.027344 L 213.855469 75.8125 L 221.4375 69.78125 L 228.699219 64.097656 L 235.382813 58.941406 L 241.257813 54.464844 L 246.136719 50.789063 L 249.902344 47.972656 L 252.550781 46.011719 L 254.175781 44.816406 L 254.960938 44.242188 L 255.183594 44.082031 L 255.195313 44.074219 "/>
<path style="fill:none;stroke-width:0.75;stroke-linecap:round;stroke-linejoin:round;stroke:rgb(66.27451%,66.27451%,66.27451%);stroke-opacity:1;stroke-miterlimit:10;" d="M 361.195313 388.308594 L 361.160156 388.222656 L 360.941406 387.636719 L 360.390625 386.160156 L 359.417969 383.507813 L 357.980469 379.539063 L 356.089844 374.246094 L 353.820313 367.765625 L 351.28125 360.34375 L 348.59375 352.285156 L 345.890625 343.90625 L 343.292969 335.488281 L 340.886719 327.265625 L 338.746094 319.402344 L 336.917969 312 L 335.425781 305.105469 L 334.289063 298.726563 L 333.503906 292.835938 L 333.082031 287.390625 L 333.015625 282.332031 L 333.304688 277.601563 L 333.941406 273.136719 L 334.925781 268.871094 L 336.058594 265.261719 L 337.65625 261.246094 L 339.613281 257.316406 L 341.96875 253.441406 L 344.769531 249.574219 L 348.054688 245.671875 L 351.867188 241.683594 L 356.242188 237.566406 L 361.203125 233.289063 L 366.761719 228.832031 L 372.898438 224.191406 L 379.558594 219.390625 L 386.632813 214.484375 L 393.957031 209.5625 L 401.304688 204.75 L 408.402344 200.199219 L 414.953125 196.074219 L 420.664063 192.53125 L 425.3125 189.683594 L 428.773438 187.585938 L 431.054688 186.21875 L 432.289063 185.484375 L 432.746094 185.214844 L 432.800781 185.183594 "/>
<path style="fill:none;stroke-width:0.75;stroke-linecap:round;stroke-linejoin:round;stroke:rgb(66.27451%,66.27451%,66.27451%);stroke-opacity:1;stroke-miterlimit:10;" d="M 306.136719 156.757813 L 306.242188 156.6875 L 306.917969 156.246094 L 308.574219 155.171875 L 311.40625 153.359375 L 315.390625 150.851563 L 320.285156 147.824219 L 325.746094 144.539063 L 331.402344 141.246094 L 336.953125 138.15625 L 342.195313 135.414063 L 347.039063 133.097656 L 351.457031 131.238281 L 355.488281 129.832031 L 359.191406 128.863281 L 362.648438 128.316406 L 365.9375 128.167969 L 368.984375 128.363281 L 372.148438 128.90625 L 375.320313 129.832031 L 378.5625 131.179688 L 381.953125 132.996094 L 385.5625 135.316406 L 389.449219 138.171875 L 393.644531 141.566406 L 398.128906 145.464844 L 402.828125 149.761719 L 407.570313 154.273438 L 412.113281 158.71875 L 416.148438 162.761719 L 419.40625 166.078125 L 421.695313 168.445313 L 423.015625 169.824219 L 423.539063 170.375 L 423.613281 170.457031 "/>
<path style="fill:none;stroke-width:0.75;stroke-linecap:round;stroke-linejoin:round;stroke:rgb(66.27451%,66.27451%,66.27451%);stroke-opacity:1;stroke-miterlimit:10;" d="M 269.441406 39.199219 L 269.539063 39.199219 L 270.183594 39.179688 L 271.804688 39.136719 L 274.695313 39.078125 L 279 39.003906 L 284.679688 38.941406 L 291.550781 38.90625 L 299.320313 38.925781 L 307.640625 39.019531 L 316.160156 39.210938 L 324.582031 39.515625 L 332.675781 39.949219 L 340.289063 40.519531 L 347.332031 41.238281 L 353.773438 42.117188 L 359.625 43.171875 L 364.921875 44.414063 L 369.710938 45.859375 L 374.058594 47.53125 L 378.023438 49.441406 L 381.671875 51.613281 L 385.058594 54.046875 L 385.25 54.195313 L 388.414063 56.914063 L 391.375 59.945313 L 394.160156 63.339844 L 396.792969 67.160156 L 399.308594 71.460938 L 401.742188 76.292969 L 404.117188 81.710938 L 406.460938 87.742188 L 408.78125 94.394531 L 411.09375 101.636719 L 413.378906 109.386719 L 415.617188 117.5 L 417.773438 125.746094 L 419.792969 133.839844 L 421.613281 141.4375 L 423.179688 148.191406 L 424.441406 153.804688 L 425.382813 158.089844 L 426.007813 160.996094 L 426.355469 162.648438 L 426.496094 163.324219 L 426.519531 163.4375 "/>
<path style="fill:none;stroke-width:0.75;stroke-linecap:round;stroke-linejoin:round;stroke:rgb(66.27451%,66.27451%,66.27451%);stroke-opacity:1;stroke-miterlimit:10;" d="M 342.984375 398.460938 L 342.898438 398.503906 L 342.355469 398.789063 L 340.976563 399.507813 L 338.496094 400.789063 L 334.765625 402.695313 L 329.773438 405.210938 L 323.636719 408.265625 L 316.566406 411.722656 L 308.84375 415.429688 L 300.757813 419.210938 L 292.585938 422.917969 L 284.542969 426.429688 L 276.800781 429.648438 L 269.460938 432.511719 L 262.582031 434.984375 L 256.167969 437.046875 L 250.203125 438.691406 L 244.652344 439.921875 L 239.460938 440.75 L 234.566406 441.179688 L 229.910156 441.226563 L 225.433594 440.902344 L 221.082031 440.222656 L 219.972656 439.992188 L 215.714844 438.886719 L 211.503906 437.417969 L 207.300781 435.546875 L 203.050781 433.238281 L 198.707031 430.449219 L 194.21875 427.152344 L 189.539063 423.316406 L 184.628906 418.921875 L 179.46875 413.953125 L 174.054688 408.429688 L 168.40625 402.398438 L 162.589844 395.945313 L 156.703125 389.210938 L 150.882813 382.390625 L 145.308594 375.722656 L 140.175781 369.480469 L 135.675781 363.925781 L 131.964844 359.292969 L 129.136719 355.722656 L 127.191406 353.25 L 126.054688 351.789063 L 125.550781 351.140625 L 125.441406 350.996094 L 125.441406 350.992188 "/>
<path style="fill:none;stroke-width:0.75;stroke-linecap:round;stroke-linejoin:round;stroke:rgb(66.27451%,66.27451%,66.27451%);stroke-opacity:1;stroke-miterlimit:10;" d="M 282.824219 165.300781 L 282.820313 165.390625 L 282.785156 165.992188 L 282.699219 167.507813 L 282.535156 170.234375 L 282.269531 174.347656 L 281.886719 179.867188 L 281.375 186.679688 L 280.738281 194.558594 L 279.976563 203.207031 L 279.09375 212.289063 L 278.097656 221.5 L 277 230.570313 L 275.804688 239.289063 L 274.507813 247.523438 L 273.113281 255.183594 L 271.609375 262.234375 L 269.984375 268.671875 L 268.226563 274.53125 L 266.316406 279.84375 L 264.230469 284.664063 L 261.949219 289.050781 L 259.453125 293.058594 L 256.71875 296.742188 L 253.859375 300.027344 L 250.644531 303.214844 L 247.136719 306.179688 L 243.292969 308.929688 L 239.050781 311.488281 L 234.359375 313.886719 L 229.164063 316.140625 L 223.417969 318.28125 L 217.074219 320.324219 L 210.117188 322.289063 L 202.542969 324.1875 L 194.394531 326.023438 L 185.757813 327.796875 L 176.769531 329.492188 L 167.644531 331.089844 L 158.652344 332.570313 L 150.097656 333.898438 L 142.3125 335.050781 L 135.59375 336.003906 L 130.164063 336.742188 L 126.132813 337.273438 L 123.46875 337.613281 L 122 337.796875 L 121.433594 337.863281 L 121.355469 337.875 "/>
<path style="fill:none;stroke-width:0.75;stroke-linecap:round;stroke-linejoin:round;stroke:rgb(66.27451%,66.27451%,66.27451%);stroke-opacity:1;stroke-miterlimit:10;" d="M 174.605469 322.835938 L 174.523438 322.992188 L 173.996094 323.960938 L 172.804688 326.117188 L 170.988281 329.3125 L 168.789063 333.035156 L 166.492188 336.710938 L 164.285156 339.96875 L 162.230469 342.644531 L 160.300781 344.730469 L 158.429688 346.296875 L 156.523438 347.425781 L 155.6875 347.796875 L 153.609375 348.4375 L 151.308594 348.746094 L 148.65625 348.714844 L 145.539063 348.34375 L 141.902344 347.648438 L 137.816406 346.667969 L 133.574219 345.519531 L 129.703125 344.390625 L 126.808594 343.503906 L 125.230469 343 L 124.773438 342.851563 L 124.757813 342.847656 "/>
<path style="fill:none;stroke-width:0.75;stroke-linecap:round;stroke-linejoin:round;stroke:rgb(66.27451%,66.27451%,66.27451%);stroke-opacity:1;stroke-miterlimit:10;" d="M 279.324219 150.203125 L 279.226563 150.242188 L 278.566406 150.46875 L 276.921875 151.03125 L 274.015625 152.011719 L 269.765625 153.421875 L 264.265625 155.210938 L 257.765625 157.265625 L 250.613281 159.457031 L 243.160156 161.644531 L 235.730469 163.710938 L 228.566406 165.5625 L 221.824219 167.132813 L 215.585938 168.382813 L 209.867188 169.300781 L 204.652344 169.871094 L 199.890625 170.09375 L 195.515625 169.972656 L 191.453125 169.503906 L 187.636719 168.691406 L 183.996094 167.542969 L 183.5 167.359375 L 180.003906 165.84375 L 176.601563 163.972656 L 173.25 161.6875 L 169.902344 158.9375 L 166.5 155.683594 L 163 151.871094 L 159.359375 147.472656 L 155.550781 142.476563 L 151.578125 136.898438 L 147.464844 130.820313 L 143.285156 124.375 L 139.152344 117.785156 L 135.21875 111.347656 L 131.660156 105.398438 L 128.648438 100.269531 L 126.304688 96.226563 L 124.6875 93.394531 L 123.746094 91.730469 L 123.34375 91.015625 L 123.269531 90.878906 "/>
<path style="fill:none;stroke-width:0.75;stroke-linecap:round;stroke-linejoin:round;stroke:rgb(66.27451%,66.27451%,66.27451%);stroke-opacity:1;stroke-miterlimit:10;" d="M 183.113281 304.460938 L 183.035156 304.410156 L 182.503906 304.085938 L 181.167969 303.257813 L 178.773438 301.765625 L 175.207031 299.515625 L 170.46875 296.496094 L 164.703125 292.773438 L 158.136719 288.472656 L 151.0625 283.753906 L 143.769531 278.789063 L 136.53125 273.726563 L 129.558594 268.695313 L 123.011719 263.78125 L 116.992188 259.042969 L 111.546875 254.496094 L 106.699219 250.140625 L 102.433594 245.953125 L 98.726563 241.898438 L 95.539063 237.933594 L 92.835938 234.011719 L 90.570313 230.085938 L 88.707031 226.109375 L 87.292969 222.328125 L 86.085938 218.167969 L 85.214844 213.855469 L 84.691406 209.339844 L 84.527344 204.558594 L 84.722656 199.453125 L 85.28125 193.953125 L 86.203125 188.011719 L 87.496094 181.585938 L 89.144531 174.648438 L 91.140625 167.210938 L 93.449219 159.324219 L 96.023438 151.097656 L 98.789063 142.699219 L 101.644531 134.363281 L 104.46875 126.375 L 107.125 119.050781 L 109.480469 112.6875 L 111.425781 107.519531 L 112.898438 103.667969 L 113.882813 101.125 L 114.429688 99.730469 L 114.640625 99.199219 L 114.667969 99.128906 "/>
<path style="fill:none;stroke-width:0.75;stroke-linecap:round;stroke-linejoin:round;stroke:rgb(66.27451%,66.27451%,66.27451%);stroke-opacity:1;stroke-miterlimit:10;" d="M 245.503906 35.4375 L 245.445313 35.542969 L 245.0625 36.214844 L 244.113281 37.867188 L 242.460938 40.707031 L 240.09375 44.71875 L 237.105469 49.6875 L 233.675781 55.261719 L 230.007813 61.058594 L 226.277344 66.738281 L 222.625 72.046875 L 219.117188 76.835938 L 215.78125 81.039063 L 212.605469 84.644531 L 209.554688 87.683594 L 206.574219 90.195313 L 203.601563 92.238281 L 200.582031 93.867188 L 198.089844 94.917969 L 194.878906 95.929688 L 191.488281 96.613281 L 187.847656 96.949219 L 183.878906 96.9375 L 179.496094 96.574219 L 174.636719 95.863281 L 169.257813 94.808594 L 163.375 93.425781 L 157.058594 91.761719 L 150.492188 89.878906 L 143.957031 87.898438 L 137.824219 85.953125 L 132.5 84.210938 L 128.328125 82.8125 L 125.488281 81.835938 L 123.925781 81.292969 L 123.355469 81.089844 L 123.296875 81.070313 "/>
<path style="fill:none;stroke-width:0.75;stroke-linecap:round;stroke-linejoin:round;stroke:rgb(66.27451%,66.27451%,66.27451%);stroke-opacity:1;stroke-miterlimit:10;" d="M 111.769531 334.121094 L 111.710938 334.054688 L 111.320313 333.59375 L 110.335938 332.429688 L 108.574219 330.328125 L 105.933594 327.152344 L 102.414063 322.875 L 98.09375 317.574219 L 93.144531 311.417969 L 87.765625 304.625 L 82.179688 297.441406 L 76.597656 290.101563 L 71.195313 282.800781 L 66.109375 275.6875 L 61.433594 268.871094 L 57.230469 262.398438 L 53.523438 256.296875 L 50.324219 250.554688 L 47.625 245.140625 L 45.40625 240.011719 L 43.648438 235.117188 L 42.335938 230.398438 L 41.433594 225.800781 L 40.925781 221.269531 L 40.777344 217.40625 L 40.921875 212.898438 L 41.429688 208.359375 L 42.332031 203.734375 L 43.648438 198.980469 L 45.410156 194.03125 L 47.632813 188.835938 L 50.335938 183.347656 L 53.539063 177.515625 L 57.242188 171.316406 L 61.4375 164.742188 L 66.089844 157.820313 L 71.140625 150.617188 L 76.488281 143.234375 L 81.996094 135.832031 L 87.476563 128.625 L 92.726563 121.84375 L 97.527344 115.738281 L 101.675781 110.523438 L 105.027344 106.359375 L 107.503906 103.308594 L 109.125 101.332031 L 109.996094 100.273438 L 110.316406 99.886719 L 110.351563 99.84375 "/>
<path style="fill:none;stroke-width:0.75;stroke-linecap:round;stroke-linejoin:round;stroke:rgb(66.27451%,66.27451%,66.27451%);stroke-opacity:1;stroke-miterlimit:10;" d="M 349.511719 389.445313 L 349.398438 389.40625 L 348.683594 389.148438 L 346.914063 388.511719 L 343.863281 387.390625 L 339.519531 385.769531 L 334.097656 383.695313 L 327.953125 381.273438 L 321.492188 378.640625 L 315.085938 375.910156 L 309.015625 373.175781 L 303.460938 370.488281 L 298.503906 367.871094 L 294.164063 365.308594 L 290.421875 362.78125 L 287.21875 360.246094 L 284.5 357.648438 L 282.203125 354.949219 L 280.261719 352.105469 L 279.980469 351.636719 L 278.386719 348.59375 L 277.09375 345.316406 L 276.09375 341.738281 L 275.382813 337.777344 L 274.945313 333.355469 L 274.765625 328.40625 L 274.839844 322.894531 L 275.148438 316.820313 L 275.667969 310.25 L 276.363281 303.355469 L 277.175781 296.402344 L 278.039063 289.765625 L 278.867188 283.863281 L 279.578125 279.074219 L 280.109375 275.636719 L 280.441406 273.578125 L 280.589844 272.675781 L 280.617188 272.496094 "/>
<path style="fill:none;stroke-width:0.75;stroke-linecap:round;stroke-linejoin:round;stroke:rgb(66.27451%,66.27451%,66.27451%);stroke-opacity:1;stroke-miterlimit:10;" d="M 199.097656 309.960938 L 199.140625 309.8125 L 199.417969 308.882813 L 200.082031 306.714844 L 201.175781 303.246094 L 202.632813 298.800781 L 204.320313 293.910156 L 206.101563 289.074219 L 207.886719 284.652344 L 209.640625 280.808594 L 211.371094 277.585938 L 213.117188 274.933594 L 214.933594 272.777344 L 216.882813 271.027344 L 218.011719 270.21875 L 220.242188 268.949219 L 222.746094 267.960938 L 225.621094 267.242188 L 228.972656 266.773438 L 232.878906 266.53125 L 237.363281 266.496094 L 242.335938 266.648438 L 247.546875 266.9375 L 252.550781 267.3125 L 256.796875 267.683594 L 259.8125 267.976563 L 261.441406 268.148438 L 261.949219 268.203125 L 261.976563 268.207031 "/>
<path style="fill:none;stroke-width:0.75;stroke-linecap:round;stroke-linejoin:round;stroke:rgb(66.27451%,66.27451%,66.27451%);stroke-opacity:1;stroke-miterlimit:10;" d="M 259.441406 44.449219 L 259.507813 44.519531 L 259.949219 44.984375 L 261.0625 46.15625 L 263.039063 48.253906 L 265.96875 51.386719 L 269.816406 55.554688 L 274.449219 60.628906 L 279.652344 66.417969 L 285.179688 72.675781 L 290.785156 79.15625 L 296.246094 85.65625 L 301.40625 92.003906 L 306.144531 98.09375 L 310.398438 103.863281 L 314.128906 109.292969 L 317.332031 114.402344 L 320.023438 119.214844 L 322.222656 123.789063 L 323.953125 128.175781 L 325.25 132.4375 L 326.136719 136.628906 L 326.644531 140.796875 L 326.703125 141.578125 L 326.804688 145.773438 L 326.542969 150.027344 L 325.890625 154.390625 L 324.824219 158.925781 L 323.324219 163.699219 L 321.367188 168.761719 L 318.945313 174.171875 L 316.039063 179.96875 L 312.664063 186.167969 L 308.835938 192.753906 L 304.613281 199.667969 L 300.085938 206.800781 L 295.386719 213.972656 L 290.695313 220.960938 L 286.222656 227.492188 L 282.1875 233.292969 L 278.777344 238.125 L 276.132813 241.832031 L 274.296875 244.382813 L 273.21875 245.863281 L 272.75 246.503906 L 272.652344 246.636719 "/>
<path style="fill:none;stroke-width:0.75;stroke-linecap:round;stroke-linejoin:round;stroke:rgb(66.27451%,66.27451%,66.27451%);stroke-opacity:1;stroke-miterlimit:10;" d="M 425.1875 178.671875 L 425.148438 178.773438 L 424.882813 179.4375 L 424.222656 181.082031 L 423.046875 183.964844 L 421.3125 188.144531 L 419.058594 193.488281 L 416.371094 199.707031 L 413.382813 206.449219 L 410.222656 213.335938 L 407.011719 220.0625 L 403.824219 226.394531 L 400.714844 232.195313 L 397.691406 237.394531 L 394.753906 241.976563 L 391.871094 245.964844 L 389.003906 249.402344 L 386.109375 252.34375 L 383.136719 254.84375 L 380.042969 256.964844 L 378.0625 258.105469 L 374.71875 259.714844 L 371.164063 261.019531 L 367.324219 262.011719 L 363.132813 262.703125 L 358.511719 263.101563 L 353.402344 263.214844 L 347.746094 263.054688 L 341.527344 262.625 L 334.773438 261.953125 L 327.578125 261.0625 L 320.117188 259.996094 L 312.667969 258.824219 L 305.578125 257.625 L 299.230469 256.492188 L 293.984375 255.515625 L 290.066406 254.761719 L 287.535156 254.261719 L 286.234375 253.996094 L 285.824219 253.914063 L 285.796875 253.90625 "/>
<path style="fill:none;stroke-width:0.75;stroke-linecap:round;stroke-linejoin:round;stroke:rgb(66.27451%,66.27451%,66.27451%);stroke-opacity:1;stroke-miterlimit:10;" d="M 124.082031 341.410156 L 124.125 341.308594 L 124.386719 340.640625 L 125.054688 338.984375 L 126.230469 336.085938 L 127.964844 331.894531 L 130.21875 326.546875 L 132.894531 320.335938 L 135.867188 313.625 L 139 306.785156 L 142.183594 300.128906 L 145.332031 293.875 L 148.40625 288.164063 L 151.390625 283.0625 L 154.296875 278.570313 L 157.148438 274.671875 L 159.992188 271.3125 L 162.871094 268.449219 L 165.832031 266.015625 L 168.917969 263.957031 L 170.421875 263.097656 L 173.742188 261.496094 L 177.273438 260.203125 L 181.089844 259.21875 L 185.257813 258.535156 L 189.859375 258.144531 L 194.953125 258.035156 L 200.59375 258.203125 L 206.796875 258.636719 L 213.53125 259.3125 L 220.703125 260.203125 L 228.117188 261.261719 L 235.5 262.421875 L 242.484375 263.601563 L 248.6875 264.707031 L 253.765625 265.652344 L 257.492188 266.367188 L 259.84375 266.832031 L 260.996094 267.0625 L 261.316406 267.128906 L 261.328125 267.132813 "/>
<path style="fill:none;stroke-width:0.75;stroke-linecap:round;stroke-linejoin:round;stroke:rgb(66.27451%,66.27451%,66.27451%);stroke-opacity:1;stroke-miterlimit:10;" d="M 119.769531 96.089844 L 120.488281 96.179688 L 122.066406 96.375 L 124.882813 96.738281 L 129.09375 97.300781 L 134.675781 98.070313 L 141.472656 99.054688 L 149.210938 100.226563 L 157.554688 101.5625 L 166.164063 103.03125 L 174.730469 104.605469 L 183.011719 106.261719 L 190.835938 107.984375 L 198.097656 109.769531 L 204.746094 111.621094 L 210.78125 113.550781 L 216.222656 115.570313 L 221.109375 117.710938 L 225.496094 119.992188 L 229.441406 122.441406 L 233 125.085938 L 236.230469 127.945313 L 238.195313 129.9375 L 240.992188 133.179688 L 243.546875 136.695313 L 245.867188 140.546875 L 247.976563 144.789063 L 249.898438 149.480469 L 251.648438 154.679688 L 253.257813 160.441406 L 254.734375 166.800781 L 256.101563 173.773438 L 257.363281 181.339844 L 258.527344 189.433594 L 259.589844 197.925781 L 260.554688 206.621094 L 261.40625 215.25 L 262.140625 223.492188 L 262.75 230.996094 L 263.230469 237.445313 L 263.585938 242.601563 L 263.828125 246.347656 L 263.96875 248.726563 L 264.039063 249.9375 L 264.058594 250.328125 L 264.058594 250.355469 "/>
<path style="fill:none;stroke-width:0.75;stroke-linecap:round;stroke-linejoin:round;stroke:rgb(66.27451%,66.27451%,66.27451%);stroke-opacity:1;stroke-miterlimit:10;" d="M 278.566406 157.167969 L 278.5 157.242188 L 278.074219 157.722656 L 276.992188 158.929688 L 275.050781 161.078125 L 272.152344 164.253906 L 268.304688 168.433594 L 263.617188 173.457031 L 258.273438 179.097656 L 252.5 185.089844 L 246.515625 191.160156 L 240.515625 197.082031 L 234.644531 202.675781 L 229.007813 207.828125 L 223.652344 212.460938 L 218.589844 216.550781 L 213.808594 220.089844 L 209.269531 223.09375 L 204.929688 225.589844 L 200.730469 227.609375 L 196.621094 229.1875 L 192.539063 230.355469 L 188.441406 231.152344 L 188.183594 231.191406 L 184.035156 231.628906 L 179.796875 231.703125 L 175.414063 231.402344 L 170.828125 230.699219 L 165.972656 229.582031 L 160.785156 228.035156 L 155.214844 226.050781 L 149.21875 223.617188 L 142.78125 220.746094 L 135.925781 217.460938 L 128.71875 213.808594 L 121.277344 209.875 L 113.796875 205.785156 L 106.519531 201.703125 L 99.738281 197.816406 L 93.746094 194.320313 L 88.785156 191.386719 L 85.019531 189.128906 L 82.46875 187.585938 L 81.023438 186.703125 L 80.433594 186.339844 L 80.332031 186.277344 "/>
<path style="fill:none;stroke-width:0.75;stroke-linecap:round;stroke-linejoin:round;stroke:rgb(66.27451%,66.27451%,66.27451%);stroke-opacity:1;stroke-miterlimit:10;" d="M 178.015625 307.496094 L 177.902344 307.480469 L 177.175781 307.394531 L 175.375 307.164063 L 172.238281 306.75 L 167.710938 306.125 L 161.960938 305.292969 L 155.316406 304.273438 L 148.179688 303.097656 L 140.941406 301.804688 L 133.921875 300.421875 L 127.34375 298.972656 L 121.328125 297.460938 L 115.929688 295.882813 L 111.140625 294.21875 L 106.921875 292.445313 L 103.207031 290.535156 L 99.933594 288.453125 L 97.035156 286.175781 L 94.4375 283.671875 L 94.332031 283.558594 L 92 280.8125 L 89.910156 277.777344 L 88.046875 274.390625 L 86.378906 270.578125 L 84.886719 266.269531 L 83.542969 261.40625 L 82.324219 255.941406 L 81.214844 249.863281 L 80.207031 243.226563 L 79.296875 236.144531 L 78.488281 228.839844 L 77.789063 221.628906 L 77.210938 214.898438 L 76.761719 209.058594 L 76.4375 204.441406 L 76.230469 201.21875 L 76.121094 199.351563 L 76.078125 198.582031 L 76.070313 198.457031 "/>
<path style="fill:none;stroke-width:0.75;stroke-linecap:round;stroke-linejoin:round;stroke:rgb(66.27451%,66.27451%,66.27451%);stroke-opacity:1;stroke-miterlimit:10;" d="M 247.789063 39.402344 L 247.769531 39.496094 L 247.65625 40.101563 L 247.367188 41.632813 L 246.832031 44.382813 L 246.011719 48.5 L 244.894531 53.988281 L 243.488281 60.699219 L 241.824219 68.386719 L 239.945313 76.722656 L 237.910156 85.378906 L 235.761719 94.050781 L 233.542969 102.480469 L 231.28125 110.484375 L 228.992188 117.949219 L 226.679688 124.8125 L 224.328125 131.050781 L 221.933594 136.679688 L 219.464844 141.730469 L 216.898438 146.257813 L 214.207031 150.304688 L 211.355469 153.933594 L 208.324219 157.199219 L 205.085938 160.148438 L 204.574219 160.574219 L 201.085938 163.21875 L 197.339844 165.601563 L 193.28125 167.730469 L 188.847656 169.621094 L 183.980469 171.292969 L 178.625 172.761719 L 172.726563 174.050781 L 166.242188 175.167969 L 159.15625 176.128906 L 151.472656 176.949219 L 143.253906 177.636719 L 134.605469 178.195313 L 125.703125 178.636719 L 116.792969 178.972656 L 108.175781 179.207031 L 100.1875 179.363281 L 93.15625 179.449219 L 87.355469 179.488281 L 82.9375 179.496094 L 79.933594 179.488281 L 78.199219 179.476563 L 77.460938 179.46875 L 77.320313 179.46875 "/>
<path style="fill:none;stroke-width:0.75;stroke-linecap:round;stroke-linejoin:round;stroke:rgb(66.27451%,66.27451%,66.27451%);stroke-opacity:1;stroke-miterlimit:10;" d="M 108.058594 334.648438 L 107.960938 334.585938 L 107.335938 334.160156 L 105.800781 333.101563 L 103.144531 331.253906 L 99.363281 328.589844 L 94.640625 325.210938 L 89.285156 321.300781 L 83.65625 317.089844 L 78.085938 312.789063 L 72.824219 308.554688 L 68.035156 304.492188 L 63.804688 300.644531 L 60.160156 297.015625 L 57.082031 293.570313 L 54.539063 290.261719 L 52.484375 287.027344 L 50.871094 283.808594 L 49.644531 280.546875 L 49.320313 279.472656 L 48.542969 276.089844 L 48.113281 272.566406 L 48.042969 268.824219 L 48.347656 264.785156 L 49.035156 260.371094 L 50.109375 255.523438 L 51.566406 250.1875 L 53.398438 244.367188 L 55.558594 238.117188 L 57.984375 231.578125 L 60.550781 224.988281 L 63.101563 218.679688 L 65.453125 213.027344 L 67.425781 208.390625 L 68.894531 205 L 69.820313 202.898438 L 70.257813 201.917969 L 70.363281 201.679688 L 70.367188 201.675781 "/>
<path style="fill:none;stroke-width:0.75;stroke-linecap:round;stroke-linejoin:round;stroke:rgb(66.27451%,66.27451%,66.27451%);stroke-opacity:1;stroke-miterlimit:10;" d="M 104.808594 98.726563 L 104.851563 98.867188 L 105.121094 99.757813 L 105.738281 101.875 L 106.722656 105.332031 L 107.972656 109.886719 L 109.316406 115.078125 L 110.597656 120.402344 L 111.679688 125.484375 L 112.492188 130.109375 L 112.992188 134.199219 L 113.164063 137.78125 L 113.011719 140.933594 L 112.519531 143.757813 L 111.703125 146.347656 L 111.457031 146.949219 L 110.238281 149.359375 L 108.640625 151.675781 L 106.589844 153.96875 L 104.015625 156.300781 L 100.863281 158.734375 L 97.109375 161.3125 L 92.800781 164.023438 L 88.117188 166.789063 L 83.382813 169.460938 L 79.058594 171.820313 L 75.613281 173.652344 L 73.355469 174.828125 L 72.28125 175.382813 L 72.035156 175.503906 L 72.035156 175.507813 "/>
<path style="fill:none;stroke-width:0.75;stroke-linecap:round;stroke-linejoin:round;stroke:rgb(66.27451%,66.27451%,66.27451%);stroke-opacity:1;stroke-miterlimit:10;" d="M 260.429688 255.933594 L 260.335938 255.96875 L 259.722656 256.199219 L 258.175781 256.78125 L 255.421875 257.796875 L 251.335938 259.289063 L 245.957031 261.214844 L 239.476563 263.488281 L 232.179688 265.984375 L 224.402344 268.566406 L 216.460938 271.09375 L 208.628906 273.460938 L 201.109375 275.582031 L 194.027344 277.402344 L 187.445313 278.890625 L 181.375 280.023438 L 175.800781 280.796875 L 170.667969 281.210938 L 165.921875 281.269531 L 161.496094 280.972656 L 157.324219 280.320313 L 153.339844 279.328125 L 151.152344 278.621094 L 147.359375 277.117188 L 143.65625 275.253906 L 140 272.984375 L 136.34375 270.261719 L 132.632813 267.042969 L 128.824219 263.289063 L 124.875 258.960938 L 120.75 254.039063 L 116.441406 248.527344 L 111.953125 242.464844 L 107.335938 235.9375 L 102.667969 229.101563 L 98.074219 222.171875 L 93.707031 215.433594 L 89.742188 209.195313 L 86.351563 203.773438 L 83.65625 199.402344 L 81.710938 196.21875 L 80.496094 194.203125 L 79.894531 193.199219 L 79.714844 192.894531 L 79.703125 192.878906 "/>
<path style="fill:none;stroke-width:0.75;stroke-linecap:round;stroke-linejoin:round;stroke:rgb(66.27451%,66.27451%,66.27451%);stroke-opacity:1;stroke-miterlimit:10;" d="M 278.621094 157.523438 L 278.523438 157.640625 L 277.902344 158.375 L 276.425781 160.082031 L 274.035156 162.8125 L 270.90625 166.304688 L 267.371094 170.136719 L 263.757813 173.894531 L 260.289063 177.289063 L 257.085938 180.171875 L 254.152344 182.5 L 251.441406 184.292969 L 248.875 185.59375 L 246.363281 186.464844 L 244.667969 186.839844 L 242.085938 187.109375 L 239.375 187.011719 L 236.429688 186.515625 L 233.15625 185.601563 L 229.46875 184.253906 L 225.332031 182.484375 L 220.816406 180.34375 L 216.121094 177.964844 L 211.609375 175.574219 L 207.757813 173.464844 L 204.96875 171.902344 L 203.402344 171.011719 L 202.863281 170.699219 L 202.820313 170.671875 "/>
<path style="fill:none;stroke-width:0.75;stroke-linecap:round;stroke-linejoin:round;stroke:rgb(66.27451%,66.27451%,66.27451%);stroke-opacity:1;stroke-miterlimit:10;" d="M 187.667969 303.746094 L 187.585938 303.648438 L 187.074219 303.019531 L 185.828125 301.480469 L 183.722656 298.84375 L 180.808594 295.144531 L 177.292969 290.59375 L 173.46875 285.527344 L 169.628906 280.28125 L 166.015625 275.128906 L 162.785156 270.246094 L 160.023438 265.726563 L 157.761719 261.582031 L 155.988281 257.769531 L 154.6875 254.230469 L 153.824219 250.886719 L 153.371094 247.65625 L 153.277344 244.964844 L 153.488281 241.78125 L 154.074219 238.550781 L 155.074219 235.203125 L 156.527344 231.65625 L 158.460938 227.839844 L 160.894531 223.6875 L 163.832031 219.175781 L 167.238281 214.320313 L 171.011719 209.21875 L 174.980469 204.066406 L 178.886719 199.144531 L 182.425781 194.78125 L 185.304688 191.296875 L 187.328125 188.878906 L 188.480469 187.523438 L 188.914063 187.015625 L 188.964844 186.957031 "/>
<path style="fill:none;stroke-width:0.75;stroke-linecap:round;stroke-linejoin:round;stroke:rgb(66.27451%,66.27451%,66.27451%);stroke-opacity:1;stroke-miterlimit:10;" d="M 423.519531 172.121094 L 423.449219 172.183594 L 422.976563 172.582031 L 421.78125 173.585938 L 419.628906 175.378906 L 416.394531 178.054688 L 412.0625 181.601563 L 406.730469 185.914063 L 400.582031 190.820313 L 393.863281 196.097656 L 386.816406 201.519531 L 379.675781 206.878906 L 372.632813 212.011719 L 365.824219 216.785156 L 359.339844 221.121094 L 353.210938 224.972656 L 347.453125 228.320313 L 342.042969 231.167969 L 336.941406 233.523438 L 332.097656 235.40625 L 327.453125 236.839844 L 322.953125 237.851563 L 318.542969 238.460938 L 314.167969 238.699219 L 313.535156 238.707031 L 309.164063 238.550781 L 304.753906 238.03125 L 300.265625 237.117188 L 295.632813 235.785156 L 290.808594 234.003906 L 285.730469 231.761719 L 280.34375 229.03125 L 274.613281 225.800781 L 268.511719 222.070313 L 262.042969 217.851563 L 255.238281 213.191406 L 248.183594 208.160156 L 241.003906 202.878906 L 233.890625 197.511719 L 227.0625 192.253906 L 220.777344 187.328125 L 215.28125 182.960938 L 210.765625 179.332031 L 207.34375 176.550781 L 205.027344 174.652344 L 203.695313 173.550781 L 203.132813 173.085938 L 203.027344 172.996094 L 203.023438 172.996094 "/>
<path style="fill:none;stroke-width:0.75;stroke-linecap:round;stroke-linejoin:round;stroke:rgb(66.27451%,66.27451%,66.27451%);stroke-opacity:1;stroke-miterlimit:10;" d="M 117.46875 335.308594 L 117.441406 335.203125 L 117.242188 334.527344 L 116.765625 332.839844 L 115.933594 329.871094 L 114.742188 325.535156 L 113.25 319.941406 L 111.542969 313.355469 L 109.746094 306.136719 L 107.980469 298.648438 L 106.339844 291.21875 L 104.914063 284.085938 L 103.746094 277.398438 L 102.871094 271.242188 L 102.308594 265.621094 L 102.0625 260.511719 L 102.140625 255.863281 L 102.546875 251.609375 L 103.285156 247.675781 L 104.347656 243.988281 L 105.625 240.730469 L 107.304688 237.355469 L 109.335938 234.09375 L 111.78125 230.902344 L 114.6875 227.734375 L 118.109375 224.542969 L 122.089844 221.273438 L 126.664063 217.898438 L 131.847656 214.382813 L 137.617188 210.734375 L 143.882813 206.980469 L 150.496094 203.183594 L 157.214844 199.457031 L 163.738281 195.941406 L 169.699219 192.796875 L 174.765625 190.175781 L 178.683594 188.179688 L 181.351563 186.835938 L 182.84375 186.09375 L 183.421875 185.8125 L 183.5 185.773438 "/>
<path style="fill:none;stroke-width:0.75;stroke-linecap:round;stroke-linejoin:round;stroke:rgb(66.27451%,66.27451%,66.27451%);stroke-opacity:1;stroke-miterlimit:10;" d="M 119.601563 96.246094 L 119.742188 96.265625 L 120.640625 96.390625 L 122.773438 96.707031 L 126.289063 97.25 L 130.96875 98.015625 L 136.359375 98.96875 L 141.949219 100.050781 L 147.320313 101.21875 L 152.203125 102.441406 L 156.484375 103.722656 L 160.152344 105.078125 L 163.265625 106.535156 L 165.898438 108.140625 L 168.144531 109.929688 L 169.640625 111.4375 L 171.386719 113.625 L 172.890625 116.117188 L 174.175781 118.996094 L 175.273438 122.363281 L 176.222656 126.289063 L 177.042969 130.824219 L 177.75 135.933594 L 178.355469 141.472656 L 178.851563 147.136719 L 179.234375 152.46875 L 179.507813 156.957031 L 179.675781 160.179688 L 179.757813 162.007813 L 179.785156 162.675781 L 179.785156 162.738281 "/>
<path style="fill:none;stroke-width:0.75;stroke-linecap:round;stroke-linejoin:round;stroke:rgb(66.27451%,66.27451%,66.27451%);stroke-opacity:1;stroke-miterlimit:10;" d="M 263.902344 250.507813 L 263.761719 250.492188 L 262.878906 250.398438 L 260.761719 250.15625 L 257.261719 249.734375 L 252.550781 249.121094 L 247.070313 248.34375 L 241.320313 247.4375 L 235.734375 246.433594 L 230.597656 245.355469 L 226.050781 244.207031 L 222.113281 242.964844 L 218.75 241.613281 L 215.882813 240.109375 L 213.421875 238.417969 L 211.289063 236.507813 L 211.105469 236.320313 L 209.246094 234.144531 L 207.621094 231.660156 L 206.203125 228.78125 L 204.953125 225.421875 L 203.84375 221.5 L 202.84375 216.96875 L 201.941406 211.851563 L 201.125 206.265625 L 200.410156 200.484375 L 199.816406 194.933594 L 199.355469 190.113281 L 199.039063 186.472656 L 198.863281 184.222656 L 198.789063 183.234375 L 198.777344 183.054688 "/>
<path style="fill:none;stroke-width:0.75;stroke-linecap:round;stroke-linejoin:round;stroke:rgb(66.27451%,66.27451%,66.27451%);stroke-opacity:1;stroke-miterlimit:10;" d="M 80.375 186.578125 L 80.46875 186.476563 L 81.070313 185.835938 L 82.523438 184.296875 L 84.957031 181.757813 L 88.273438 178.359375 L 92.203125 174.421875 L 96.414063 170.324219 L 100.621094 166.394531 L 104.628906 162.859375 L 108.347656 159.832031 L 111.765625 157.347656 L 114.925781 155.390625 L 117.898438 153.925781 L 120.761719 152.90625 L 123.601563 152.289063 L 124.300781 152.191406 L 127.1875 152.007813 L 130.175781 152.195313 L 133.355469 152.785156 L 136.8125 153.800781 L 140.636719 155.261719 L 144.878906 157.175781 L 149.539063 159.523438 L 154.527344 162.230469 L 159.632813 165.152344 L 164.523438 168.054688 L 168.785156 170.65625 L 172.050781 172.6875 L 174.128906 174.003906 L 175.097656 174.625 L 175.316406 174.765625 "/>
<path style="fill-rule:nonzero;fill:rgb(90.196078%,62.352941%,0%);fill-opacity:1;stroke-width:0.75;stroke-linecap:round;stroke-linejoin:round;stroke:rgb(0%,0%,0%);stroke-opacity:1;stroke-miterlimit:10;" d="M 370.476563 401.425781 C 370.476563 409.105469 364.25 415.332031 356.570313 415.332031 C 348.890625 415.332031 342.664063 409.105469 342.664063 401.425781 C 342.664063 393.746094 348.890625 387.519531 356.570313 387.519531 C 364.25 387.519531 370.476563 393.746094 370.476563 401.425781 "/>
<path style="fill-rule:nonzero;fill:rgb(90.196078%,62.352941%,0%);fill-opacity:1;stroke-width:0.75;stroke-linecap:round;stroke-linejoin:round;stroke:rgb(0%,0%,0%);stroke-opacity:1;stroke-miterlimit:10;" d="M 306.230469 155.148438 C 306.230469 162.828125 300.003906 169.054688 292.324219 169.054688 C 284.644531 169.054688 278.417969 162.828125 278.417969 155.148438 C 278.417969 147.464844 284.644531 141.238281 292.324219 141.238281 C 300.003906 141.238281 306.230469 147.464844 306.230469 155.148438 "/>
<path style="fill-rule:nonzero;fill:rgb(90.196078%,62.352941%,0%);fill-opacity:1;stroke-width:0.75;stroke-linecap:round;stroke-linejoin:round;stroke:rgb(0%,0%,0%);stroke-opacity:1;stroke-miterlimit:10;" d="M 201.417969 317.652344 C 201.417969 325.335938 195.195313 331.5625 187.511719 331.5625 C 179.832031 331.5625 173.605469 325.335938 173.605469 317.652344 C 173.605469 309.972656 179.832031 303.746094 187.511719 303.746094 C 195.195313 303.746094 201.417969 309.972656 201.417969 317.652344 "/>
<path style="fill-rule:nonzero;fill:rgb(90.196078%,62.352941%,0%);fill-opacity:1;stroke-width:0.75;stroke-linecap:round;stroke-linejoin:round;stroke:rgb(0%,0%,0%);stroke-opacity:1;stroke-miterlimit:10;" d="M 272.441406 30.574219 C 272.441406 38.253906 266.214844 44.480469 258.535156 44.480469 C 250.851563 44.480469 244.625 38.253906 244.625 30.574219 C 244.625 22.894531 250.851563 16.667969 258.535156 16.667969 C 266.214844 16.667969 272.441406 22.894531 272.441406 30.574219 "/>
<path style="fill-rule:nonzero;fill:rgb(90.196078%,62.352941%,0%);fill-opacity:1;stroke-width:0.75;stroke-linecap:round;stroke-linejoin:round;stroke:rgb(0%,0%,0%);stroke-opacity:1;stroke-miterlimit:10;" d="M 451.332031 172.066406 C 451.332031 179.746094 445.105469 185.972656 437.425781 185.972656 C 429.746094 185.972656 423.519531 179.746094 423.519531 172.066406 C 423.519531 164.386719 429.746094 158.160156 437.425781 158.160156 C 445.105469 158.160156 451.332031 164.386719 451.332031 172.066406 "/>
<path style="fill-rule:nonzero;fill:rgb(90.196078%,62.352941%,0%);fill-opacity:1;stroke-width:0.75;stroke-linecap:round;stroke-linejoin:round;stroke:rgb(0%,0%,0%);stroke-opacity:1;stroke-miterlimit:10;" d="M 125.757813 348.027344 C 125.757813 355.710938 119.53125 361.9375 111.851563 361.9375 C 104.171875 361.9375 97.945313 355.710938 97.945313 348.027344 C 97.945313 340.347656 104.171875 334.121094 111.851563 334.121094 C 119.53125 334.121094 125.757813 340.347656 125.757813 348.027344 "/>
<path style="fill-rule:nonzero;fill:rgb(90.196078%,62.352941%,0%);fill-opacity:1;stroke-width:0.75;stroke-linecap:round;stroke-linejoin:round;stroke:rgb(0%,0%,0%);stroke-opacity:1;stroke-miterlimit:10;" d="M 124.175781 85.933594 C 124.175781 93.617188 117.949219 99.84375 110.269531 99.84375 C 102.589844 99.84375 96.363281 93.617188 96.363281 85.933594 C 96.363281 78.253906 102.589844 72.027344 110.269531 72.027344 C 117.949219 72.027344 124.175781 78.253906 124.175781 85.933594 "/>
<path style="fill-rule:nonzero;fill:rgb(90.196078%,62.352941%,0%);fill-opacity:1;stroke-width:0.75;stroke-linecap:round;stroke-linejoin:round;stroke:rgb(0%,0%,0%);stroke-opacity:1;stroke-miterlimit:10;" d="M 287.46875 260.511719 C 287.46875 268.195313 281.242188 274.421875 273.558594 274.421875 C 265.878906 274.421875 259.652344 268.195313 259.652344 260.511719 C 259.652344 252.832031 265.878906 246.605469 273.558594 246.605469 C 281.242188 246.605469 287.46875 252.832031 287.46875 260.511719 "/>
<path style="fill-rule:nonzero;fill:rgb(90.196078%,62.352941%,0%);fill-opacity:1;stroke-width:0.75;stroke-linecap:round;stroke-linejoin:round;stroke:rgb(0%,0%,0%);stroke-opacity:1;stroke-miterlimit:10;" d="M 80.480469 188.296875 C 80.480469 195.976563 74.253906 202.203125 66.574219 202.203125 C 58.894531 202.203125 52.667969 195.976563 52.667969 188.296875 C 52.667969 180.617188 58.894531 174.390625 66.574219 174.390625 C 74.253906 174.390625 80.480469 180.617188 80.480469 188.296875 "/>
<path style="fill-rule:nonzero;fill:rgb(90.196078%,62.352941%,0%);fill-opacity:1;stroke-width:0.75;stroke-linecap:round;stroke-linejoin:round;stroke:rgb(0%,0%,0%);stroke-opacity:1;stroke-miterlimit:10;" d="M 203.027344 173.050781 C 203.027344 180.730469 196.800781 186.957031 189.117188 186.957031 C 181.4375 186.957031 175.210938 180.730469 175.210938 173.050781 C 175.210938 165.371094 181.4375 159.144531 189.117188 159.144531 C 196.800781 159.144531 203.027344 165.371094 203.027344 173.050781 "/>
<g style="fill:rgb(0%,0%,54.509804%);fill-opacity:1;">
  <use xlink:href="#glyph0-1" x="353.570313" y="405.480469"/>
</g>
<g style="fill:rgb(0%,0%,54.509804%);fill-opacity:1;">
  <use xlink:href="#glyph0-2" x="289.324219" y="159.203125"/>
</g>
<g style="fill:rgb(0%,0%,54.509804%);fill-opacity:1;">
  <use xlink:href="#glyph0-3" x="184.511719" y="321.636719"/>
</g>
<g style="fill:rgb(0%,0%,54.509804%);fill-opacity:1;">
  <use xlink:href="#glyph0-4" x="255.535156" y="34.628906"/>
</g>
<g style="fill:rgb(0%,0%,54.509804%);fill-opacity:1;">
  <use xlink:href="#glyph0-5" x="434.425781" y="175.96875"/>
</g>
<g style="fill:rgb(0%,0%,54.509804%);fill-opacity:1;">
  <use xlink:href="#glyph0-6" x="108.851563" y="352.011719"/>
</g>
<g style="fill:rgb(0%,0%,54.509804%);fill-opacity:1;">
  <use xlink:href="#glyph0-7" x="107.269531" y="89.824219"/>
</g>
<g style="fill:rgb(0%,0%,54.509804%);fill-opacity:1;">
  <use xlink:href="#glyph0-8" x="270.558594" y="264.496094"/>
</g>
<g style="fill:rgb(0%,0%,54.509804%);fill-opacity:1;">
  <use xlink:href="#glyph0-9" x="63.574219" y="192.269531"/>
</g>
<g style="fill:rgb(0%,0%,54.509804%);fill-opacity:1;">
  <use xlink:href="#glyph0-1" x="183.117188" y="177.035156"/>
  <use xlink:href="#glyph0-10" x="189.117188" y="177.035156"/>
</g>
</g>
</svg>
