<?xml version="1.0" encoding="UTF-8"?>
<svg xmlns="http://www.w3.org/2000/svg" xmlns:xlink="http://www.w3.org/1999/xlink" width="504pt" height="432pt" viewBox="0 0 504 432" version="1.1">
<defs>
<g>
<symbol overflow="visible" id="glyph0-0">
<path style="stroke:none;" d="M 1.664063 0 L 1.664063 -7.5 L 7.664063 -7.5 L 7.664063 0 Z M 1.851563 -0.1875 L 7.476563 -0.1875 L 7.476563 -7.3125 L 1.851563 -7.3125 Z M 1.851563 -0.1875 "/>
</symbol>
<symbol overflow="visible" id="glyph0-1">
<path style="stroke:none;" d="M 1.40625 -7.164063 L 3.339844 -8.109375 L 3.53125 -8.109375 L 3.53125 -1.398438 C 3.527344 -0.953125 3.546875 -0.675781 3.585938 -0.570313 C 3.625 -0.457031 3.703125 -0.375 3.820313 -0.316406 C 3.9375 -0.253906 4.175781 -0.21875 4.535156 -0.21875 L 4.535156 0 L 1.546875 0 L 1.546875 -0.21875 C 1.921875 -0.21875 2.164063 -0.25 2.273438 -0.3125 C 2.382813 -0.367188 2.457031 -0.445313 2.5 -0.542969 C 2.542969 -0.636719 2.566406 -0.921875 2.566406 -1.398438 L 2.566406 -5.6875 C 2.566406 -6.261719 2.546875 -6.632813 2.507813 -6.804688 C 2.480469 -6.925781 2.429688 -7.019531 2.359375 -7.078125 C 2.285156 -7.132813 2.199219 -7.160156 2.097656 -7.164063 C 1.953125 -7.160156 1.75 -7.101563 1.492188 -6.984375 Z M 1.40625 -7.164063 "/>
</symbol>
<symbol overflow="visible" id="glyph0-2">
<path style="stroke:none;" d="M 5.5 -1.53125 L 4.945313 0 L 0.257813 0 L 0.257813 -0.21875 C 1.636719 -1.46875 2.605469 -2.496094 3.171875 -3.296875 C 3.730469 -4.089844 4.011719 -4.820313 4.015625 -5.484375 C 4.011719 -5.988281 3.859375 -6.402344 3.550781 -6.726563 C 3.238281 -7.046875 2.867188 -7.207031 2.445313 -7.210938 C 2.050781 -7.207031 1.699219 -7.09375 1.390625 -6.867188 C 1.078125 -6.640625 0.851563 -6.304688 0.703125 -5.867188 L 0.484375 -5.867188 C 0.582031 -6.585938 0.832031 -7.140625 1.238281 -7.527344 C 1.636719 -7.914063 2.144531 -8.109375 2.753906 -8.109375 C 3.394531 -8.109375 3.929688 -7.902344 4.367188 -7.488281 C 4.796875 -7.074219 5.015625 -6.585938 5.015625 -6.023438 C 5.015625 -5.621094 4.921875 -5.21875 4.734375 -4.816406 C 4.445313 -4.183594 3.976563 -3.511719 3.328125 -2.804688 C 2.351563 -1.738281 1.742188 -1.097656 1.507813 -0.882813 L 3.578125 -0.882813 C 3.996094 -0.878906 4.292969 -0.894531 4.464844 -0.929688 C 4.636719 -0.957031 4.789063 -1.019531 4.925781 -1.121094 C 5.0625 -1.214844 5.183594 -1.351563 5.285156 -1.53125 Z M 5.5 -1.53125 "/>
</symbol>
<symbol overflow="visible" id="glyph0-3">
<path style="stroke:none;" d="M 0.609375 -6.433594 C 0.835938 -6.964844 1.121094 -7.375 1.464844 -7.671875 C 1.808594 -7.960938 2.238281 -8.109375 2.757813 -8.109375 C 3.394531 -8.109375 3.882813 -7.902344 4.226563 -7.488281 C 4.476563 -7.175781 4.605469 -6.84375 4.609375 -6.5 C 4.605469 -5.917969 4.242188 -5.320313 3.523438 -4.703125 C 4.007813 -4.511719 4.378906 -4.238281 4.628906 -3.882813 C 4.878906 -3.527344 5.003906 -3.109375 5.003906 -2.632813 C 5.003906 -1.941406 4.785156 -1.347656 4.347656 -0.84375 C 3.777344 -0.1875 2.949219 0.140625 1.867188 0.140625 C 1.332031 0.140625 0.96875 0.0742188 0.773438 -0.0585938 C 0.578125 -0.191406 0.480469 -0.332031 0.484375 -0.484375 C 0.480469 -0.597656 0.527344 -0.699219 0.621094 -0.785156 C 0.714844 -0.871094 0.824219 -0.914063 0.953125 -0.914063 C 1.050781 -0.914063 1.152344 -0.898438 1.253906 -0.867188 C 1.316406 -0.84375 1.464844 -0.769531 1.703125 -0.652344 C 1.933594 -0.527344 2.097656 -0.457031 2.191406 -0.433594 C 2.332031 -0.386719 2.484375 -0.363281 2.65625 -0.367188 C 3.046875 -0.363281 3.394531 -0.519531 3.691406 -0.832031 C 3.988281 -1.140625 4.136719 -1.503906 4.136719 -1.929688 C 4.136719 -2.234375 4.066406 -2.535156 3.929688 -2.828125 C 3.828125 -3.042969 3.71875 -3.210938 3.597656 -3.328125 C 3.425781 -3.484375 3.195313 -3.625 2.90625 -3.753906 C 2.613281 -3.878906 2.3125 -3.941406 2.007813 -3.945313 L 1.820313 -3.945313 L 1.820313 -4.117188 C 2.128906 -4.15625 2.4375 -4.269531 2.75 -4.453125 C 3.058594 -4.632813 3.285156 -4.851563 3.429688 -5.113281 C 3.566406 -5.367188 3.636719 -5.652344 3.640625 -5.964844 C 3.636719 -6.367188 3.511719 -6.691406 3.261719 -6.941406 C 3.007813 -7.1875 2.695313 -7.3125 2.320313 -7.3125 C 1.714844 -7.3125 1.207031 -6.988281 0.804688 -6.339844 Z M 0.609375 -6.433594 "/>
</symbol>
<symbol overflow="visible" id="glyph0-4">
<path style="stroke:none;" d="M 5.585938 -2.929688 L 5.585938 -2.097656 L 4.515625 -2.097656 L 4.515625 0 L 3.550781 0 L 3.550781 -2.097656 L 0.1875 -2.097656 L 0.1875 -2.847656 L 3.875 -8.109375 L 4.515625 -8.109375 L 4.515625 -2.929688 Z M 3.550781 -2.929688 L 3.550781 -6.875 L 0.761719 -2.929688 Z M 3.550781 -2.929688 "/>
</symbol>
<symbol overflow="visible" id="glyph0-5">
<path style="stroke:none;" d="M 5.210938 -7.945313 L 4.75 -6.949219 L 2.359375 -6.949219 L 1.839844 -5.882813 C 2.871094 -5.730469 3.691406 -5.34375 4.300781 -4.726563 C 4.816406 -4.191406 5.074219 -3.566406 5.078125 -2.851563 C 5.074219 -2.433594 4.988281 -2.046875 4.824219 -1.691406 C 4.652344 -1.335938 4.441406 -1.035156 4.183594 -0.785156 C 3.925781 -0.535156 3.636719 -0.332031 3.320313 -0.179688 C 2.871094 0.0351563 2.410156 0.140625 1.9375 0.140625 C 1.460938 0.140625 1.113281 0.0625 0.898438 -0.101563 C 0.679688 -0.257813 0.574219 -0.4375 0.574219 -0.640625 C 0.574219 -0.746094 0.617188 -0.84375 0.707031 -0.929688 C 0.796875 -1.011719 0.910156 -1.054688 1.046875 -1.054688 C 1.148438 -1.054688 1.238281 -1.039063 1.316406 -1.007813 C 1.390625 -0.976563 1.519531 -0.894531 1.703125 -0.765625 C 1.996094 -0.558594 2.292969 -0.457031 2.59375 -0.460938 C 3.050781 -0.457031 3.453125 -0.628906 3.800781 -0.980469 C 4.144531 -1.324219 4.316406 -1.746094 4.320313 -2.242188 C 4.316406 -2.722656 4.164063 -3.171875 3.855469 -3.585938 C 3.542969 -4 3.117188 -4.320313 2.578125 -4.554688 C 2.148438 -4.726563 1.566406 -4.828125 0.835938 -4.859375 L 2.359375 -7.945313 Z M 5.210938 -7.945313 "/>
</symbol>
<symbol overflow="visible" id="glyph0-6">
<path style="stroke:none;" d="M 5.378906 -8.109375 L 5.378906 -7.890625 C 4.863281 -7.839844 4.441406 -7.738281 4.113281 -7.582031 C 3.785156 -7.425781 3.460938 -7.191406 3.148438 -6.878906 C 2.828125 -6.5625 2.566406 -6.207031 2.359375 -5.820313 C 2.148438 -5.429688 1.972656 -4.96875 1.835938 -4.4375 C 2.394531 -4.820313 2.960938 -5.015625 3.527344 -5.015625 C 4.070313 -5.015625 4.539063 -4.796875 4.941406 -4.359375 C 5.335938 -3.921875 5.535156 -3.359375 5.539063 -2.671875 C 5.535156 -2.007813 5.335938 -1.402344 4.933594 -0.855469 C 4.449219 -0.191406 3.808594 0.140625 3.011719 0.140625 C 2.464844 0.140625 2.003906 -0.0390625 1.628906 -0.398438 C 0.886719 -1.09375 0.515625 -2 0.515625 -3.117188 C 0.515625 -3.828125 0.65625 -4.503906 0.941406 -5.144531 C 1.226563 -5.785156 1.632813 -6.351563 2.164063 -6.847656 C 2.691406 -7.34375 3.199219 -7.679688 3.6875 -7.851563 C 4.167969 -8.023438 4.621094 -8.109375 5.039063 -8.109375 Z M 1.734375 -4.007813 C 1.664063 -3.480469 1.628906 -3.054688 1.628906 -2.730469 C 1.628906 -2.355469 1.695313 -1.945313 1.835938 -1.507813 C 1.972656 -1.066406 2.179688 -0.71875 2.453125 -0.460938 C 2.652344 -0.277344 2.894531 -0.1875 3.179688 -0.1875 C 3.519531 -0.1875 3.824219 -0.347656 4.089844 -0.667969 C 4.355469 -0.988281 4.488281 -1.445313 4.492188 -2.039063 C 4.488281 -2.703125 4.355469 -3.28125 4.09375 -3.773438 C 3.824219 -4.261719 3.449219 -4.503906 2.964844 -4.507813 C 2.816406 -4.503906 2.65625 -4.472656 2.488281 -4.414063 C 2.316406 -4.347656 2.066406 -4.214844 1.734375 -4.007813 Z M 1.734375 -4.007813 "/>
</symbol>
<symbol overflow="visible" id="glyph0-7">
<path style="stroke:none;" d="M 1.207031 -7.945313 L 5.46875 -7.945313 L 5.46875 -7.722656 L 2.820313 0.164063 L 2.164063 0.164063 L 4.535156 -6.992188 L 2.351563 -6.992188 C 1.90625 -6.988281 1.59375 -6.9375 1.40625 -6.832031 C 1.078125 -6.652344 0.8125 -6.375 0.617188 -6 L 0.445313 -6.0625 Z M 1.207031 -7.945313 "/>
</symbol>
<symbol overflow="visible" id="glyph0-8">
<path style="stroke:none;" d="M 2.304688 -4 C 1.671875 -4.511719 1.265625 -4.925781 1.085938 -5.242188 C 0.898438 -5.550781 0.808594 -5.875 0.8125 -6.21875 C 0.808594 -6.730469 1.007813 -7.175781 1.410156 -7.550781 C 1.804688 -7.921875 2.335938 -8.109375 3 -8.109375 C 3.640625 -8.109375 4.15625 -7.933594 4.546875 -7.585938 C 4.9375 -7.238281 5.132813 -6.84375 5.132813 -6.398438 C 5.132813 -6.101563 5.027344 -5.796875 4.816406 -5.488281 C 4.605469 -5.179688 4.164063 -4.816406 3.5 -4.398438 C 4.183594 -3.863281 4.640625 -3.445313 4.863281 -3.148438 C 5.160156 -2.742188 5.308594 -2.324219 5.308594 -1.886719 C 5.308594 -1.324219 5.09375 -0.84375 4.667969 -0.453125 C 4.242188 -0.0546875 3.683594 0.140625 2.992188 0.140625 C 2.238281 0.140625 1.652344 -0.09375 1.230469 -0.570313 C 0.894531 -0.945313 0.726563 -1.359375 0.726563 -1.8125 C 0.726563 -2.15625 0.84375 -2.503906 1.082031 -2.855469 C 1.316406 -3.199219 1.722656 -3.582031 2.304688 -4 Z M 3.222656 -4.628906 C 3.691406 -5.050781 3.988281 -5.382813 4.113281 -5.625 C 4.238281 -5.867188 4.300781 -6.144531 4.300781 -6.457031 C 4.300781 -6.863281 4.183594 -7.183594 3.953125 -7.417969 C 3.722656 -7.652344 3.410156 -7.769531 3.011719 -7.769531 C 2.613281 -7.769531 2.289063 -7.652344 2.039063 -7.421875 C 1.789063 -7.191406 1.664063 -6.921875 1.664063 -6.617188 C 1.664063 -6.410156 1.714844 -6.207031 1.820313 -6.007813 C 1.921875 -5.800781 2.070313 -5.609375 2.261719 -5.425781 Z M 2.578125 -3.78125 C 2.253906 -3.5 2.011719 -3.203125 1.859375 -2.882813 C 1.699219 -2.5625 1.621094 -2.214844 1.625 -1.839844 C 1.621094 -1.335938 1.757813 -0.929688 2.035156 -0.628906 C 2.308594 -0.324219 2.660156 -0.175781 3.085938 -0.175781 C 3.503906 -0.175781 3.84375 -0.292969 4.101563 -0.53125 C 4.355469 -0.769531 4.480469 -1.058594 4.484375 -1.398438 C 4.480469 -1.675781 4.40625 -1.929688 4.257813 -2.15625 C 3.980469 -2.570313 3.421875 -3.109375 2.578125 -3.78125 Z M 2.578125 -3.78125 "/>
</symbol>
<symbol overflow="visible" id="glyph0-9">
<path style="stroke:none;" d="M 0.632813 0.164063 L 0.632813 -0.0546875 C 1.140625 -0.0546875 1.613281 -0.171875 2.050781 -0.40625 C 2.488281 -0.632813 2.910156 -1.035156 3.316406 -1.605469 C 3.722656 -2.175781 4.007813 -2.800781 4.171875 -3.484375 C 3.554688 -3.089844 3 -2.894531 2.507813 -2.894531 C 1.949219 -2.894531 1.46875 -3.109375 1.074219 -3.539063 C 0.671875 -3.96875 0.472656 -4.542969 0.476563 -5.261719 C 0.472656 -5.957031 0.671875 -6.574219 1.070313 -7.117188 C 1.550781 -7.777344 2.179688 -8.109375 2.953125 -8.109375 C 3.601563 -8.109375 4.160156 -7.839844 4.628906 -7.300781 C 5.199219 -6.628906 5.484375 -5.804688 5.484375 -4.828125 C 5.484375 -3.945313 5.265625 -3.121094 4.832031 -2.355469 C 4.398438 -1.589844 3.796875 -0.957031 3.023438 -0.457031 C 2.390625 -0.0429688 1.703125 0.164063 0.96875 0.164063 Z M 4.265625 -3.921875 C 4.335938 -4.421875 4.371094 -4.828125 4.371094 -5.140625 C 4.371094 -5.515625 4.304688 -5.925781 4.175781 -6.363281 C 4.046875 -6.800781 3.863281 -7.136719 3.628906 -7.375 C 3.386719 -7.605469 3.121094 -7.722656 2.824219 -7.726563 C 2.476563 -7.722656 2.171875 -7.566406 1.910156 -7.257813 C 1.644531 -6.941406 1.511719 -6.476563 1.515625 -5.867188 C 1.511719 -5.039063 1.6875 -4.394531 2.039063 -3.929688 C 2.292969 -3.59375 2.605469 -3.425781 2.976563 -3.429688 C 3.15625 -3.425781 3.367188 -3.46875 3.613281 -3.558594 C 3.859375 -3.640625 4.078125 -3.761719 4.265625 -3.921875 Z M 4.265625 -3.921875 "/>
</symbol>
<symbol overflow="visible" id="glyph0-10">
<path style="stroke:none;" d="M 0.433594 -3.925781 C 0.433594 -4.832031 0.570313 -5.609375 0.84375 -6.265625 C 1.117188 -6.917969 1.480469 -7.40625 1.933594 -7.726563 C 2.285156 -7.980469 2.648438 -8.109375 3.023438 -8.109375 C 3.632813 -8.109375 4.179688 -7.796875 4.664063 -7.179688 C 5.265625 -6.40625 5.566406 -5.363281 5.570313 -4.046875 C 5.566406 -3.121094 5.433594 -2.339844 5.171875 -1.699219 C 4.902344 -1.054688 4.5625 -0.585938 4.15625 -0.296875 C 3.742188 -0.00390625 3.347656 0.140625 2.964844 0.140625 C 2.207031 0.140625 1.574219 -0.304688 1.070313 -1.203125 C 0.644531 -1.953125 0.433594 -2.863281 0.433594 -3.925781 Z M 1.582031 -3.78125 C 1.582031 -2.683594 1.714844 -1.792969 1.984375 -1.101563 C 2.207031 -0.515625 2.539063 -0.222656 2.984375 -0.226563 C 3.1875 -0.222656 3.40625 -0.316406 3.636719 -0.511719 C 3.859375 -0.699219 4.03125 -1.019531 4.15625 -1.464844 C 4.328125 -2.136719 4.417969 -3.082031 4.421875 -4.304688 C 4.417969 -5.207031 4.324219 -5.964844 4.140625 -6.574219 C 3.996094 -7.023438 3.816406 -7.339844 3.597656 -7.53125 C 3.4375 -7.65625 3.242188 -7.722656 3.015625 -7.722656 C 2.746094 -7.722656 2.511719 -7.601563 2.308594 -7.367188 C 2.027344 -7.039063 1.835938 -6.53125 1.734375 -5.835938 C 1.632813 -5.140625 1.582031 -4.453125 1.582031 -3.78125 Z M 1.582031 -3.78125 "/>
</symbol>
</g>
</defs>
<g id="surface24">
<rect x="0" y="0" width="504" height="432" style="fill:rgb(100%,100%,100%);fill-opacity:1;stroke:none;"/>
<path style="fill:none;stroke-width:0.75;stroke-linecap:round;stroke-linejoin:round;stroke:rgb(0%,100%,0%);stroke-opacity:1;stroke-miterlimit:10;" d="M 228.632813 240.21875 L 82.070313 152.664063 "/>
<path style="fill:none;stroke-width:0.75;stroke-linecap:round;stroke-linejoin:round;stroke:rgb(0%,100%,0%);stroke-opacity:1;stroke-miterlimit:10;" d="M 253.148438 241.414063 L 424.851563 160.351563 "/>
<path style="fill:none;stroke-width:0.75;stroke-linecap:round;stroke-linejoin:round;stroke:rgb(0%,100%,0%);stroke-opacity:1;stroke-miterlimit:10;" d="M 80.257813 155.0625 L 251.695313 316.457031 "/>
<path style="fill:none;stroke-width:0.75;stroke-linecap:round;stroke-linejoin:round;stroke:rgb(0%,100%,0%);stroke-opacity:1;stroke-miterlimit:10;" d="M 427.480469 164.132813 L 271.769531 316.269531 "/>
<path style="fill:none;stroke-width:0.75;stroke-linecap:round;stroke-linejoin:round;stroke:rgb(0%,100%,0%);stroke-opacity:1;stroke-miterlimit:10;" d="M 226.996094 250.367188 L 80.148438 282.996094 "/>
<path style="fill:none;stroke-width:0.75;stroke-linecap:round;stroke-linejoin:round;stroke:rgb(0%,100%,0%);stroke-opacity:1;stroke-miterlimit:10;" d="M 69.78125 159.433594 L 66.925781 272.109375 "/>
<path style="fill:none;stroke-width:0.75;stroke-linecap:round;stroke-linejoin:round;stroke:rgb(0%,100%,0%);stroke-opacity:1;stroke-miterlimit:10;" d="M 248.199219 323.199219 L 80.199219 288.804688 "/>
<path style="fill:none;stroke-width:0.75;stroke-linecap:round;stroke-linejoin:round;stroke:rgb(0%,100%,0%);stroke-opacity:1;stroke-miterlimit:10;" d="M 242.433594 233.566406 L 267.976563 44.355469 "/>
<path style="fill:none;stroke-width:0.75;stroke-linecap:round;stroke-linejoin:round;stroke:rgb(0%,100%,0%);stroke-opacity:1;stroke-miterlimit:10;" d="M 82.183594 138.59375 L 257.785156 37.511719 "/>
<path style="fill:none;stroke-width:0.75;stroke-linecap:round;stroke-linejoin:round;stroke:rgb(0%,100%,0%);stroke-opacity:1;stroke-miterlimit:10;" d="M 426.242188 146.148438 L 281.019531 38.839844 "/>
<path style="fill:none;stroke-width:0.75;stroke-linecap:round;stroke-linejoin:round;stroke:rgb(0%,100%,0%);stroke-opacity:1;stroke-miterlimit:10;" d="M 262.199219 312.089844 L 269.460938 44.476563 "/>
<path style="fill:none;stroke-width:0.75;stroke-linecap:round;stroke-linejoin:round;stroke:rgb(0%,100%,0%);stroke-opacity:1;stroke-miterlimit:10;" d="M 235.171875 234.535156 L 215.433594 187.675781 "/>
<path style="fill:none;stroke-width:0.75;stroke-linecap:round;stroke-linejoin:round;stroke:rgb(0%,100%,0%);stroke-opacity:1;stroke-miterlimit:10;" d="M 83.742188 148.382813 L 196.421875 172.003906 "/>
<path style="fill:none;stroke-width:0.75;stroke-linecap:round;stroke-linejoin:round;stroke:rgb(0%,100%,0%);stroke-opacity:1;stroke-miterlimit:10;" d="M 257.3125 312.835938 L 214.542969 188.015625 "/>
<path style="fill:none;stroke-width:0.75;stroke-linecap:round;stroke-linejoin:round;stroke:rgb(0%,100%,0%);stroke-opacity:1;stroke-miterlimit:10;" d="M 77.566406 277.496094 L 199.042969 183.375 "/>
<path style="fill:none;stroke-width:0.75;stroke-linecap:round;stroke-linejoin:round;stroke:rgb(0%,100%,0%);stroke-opacity:1;stroke-miterlimit:10;" d="M 264.511719 43.421875 L 215.359375 162.011719 "/>
<path style="fill:none;stroke-width:0.75;stroke-linecap:round;stroke-linejoin:round;stroke:rgb(0%,100%,0%);stroke-opacity:1;stroke-miterlimit:10;" d="M 231.945313 258.257813 L 210.964844 284.796875 "/>
<path style="fill:none;stroke-width:0.75;stroke-linecap:round;stroke-linejoin:round;stroke:rgb(0%,100%,0%);stroke-opacity:1;stroke-miterlimit:10;" d="M 249.429688 319.679688 L 214.730469 302.015625 "/>
<path style="fill:none;stroke-width:0.75;stroke-linecap:round;stroke-linejoin:round;stroke:rgb(0%,100%,0%);stroke-opacity:1;stroke-miterlimit:10;" d="M 80.445313 287.003906 L 188.464844 294.714844 "/>
<path style="fill:none;stroke-width:0.75;stroke-linecap:round;stroke-linejoin:round;stroke:rgb(0%,100%,0%);stroke-opacity:1;stroke-miterlimit:10;" d="M 266.40625 44.050781 L 205.769531 282.226563 "/>
<path style="fill:none;stroke-width:0.75;stroke-linecap:round;stroke-linejoin:round;stroke:rgb(0%,100%,0%);stroke-opacity:1;stroke-miterlimit:10;" d="M 252.785156 253.996094 L 325.164063 293.378906 "/>
<path style="fill:none;stroke-width:0.75;stroke-linecap:round;stroke-linejoin:round;stroke:rgb(0%,100%,0%);stroke-opacity:1;stroke-miterlimit:10;" d="M 429.550781 165.878906 L 345.253906 288.5625 "/>
<path style="fill:none;stroke-width:0.75;stroke-linecap:round;stroke-linejoin:round;stroke:rgb(0%,100%,0%);stroke-opacity:1;stroke-miterlimit:10;" d="M 274.972656 321.46875 L 324.226563 304.542969 "/>
<path style="fill:none;stroke-width:0.75;stroke-linecap:round;stroke-linejoin:round;stroke:rgb(0%,100%,0%);stroke-opacity:1;stroke-miterlimit:10;" d="M 80.460938 286.730469 L 323.492188 299.304688 "/>
<path style="fill:none;stroke-width:0.75;stroke-linecap:round;stroke-linejoin:round;stroke:rgb(0%,100%,0%);stroke-opacity:1;stroke-miterlimit:10;" d="M 219.953125 184.605469 L 327.460938 290.277344 "/>
<path style="fill:none;stroke-width:0.75;stroke-linecap:round;stroke-linejoin:round;stroke:rgb(0%,100%,0%);stroke-opacity:1;stroke-miterlimit:10;" d="M 216.238281 296.148438 L 323.480469 299.578125 "/>
<path style="fill:none;stroke-width:0.75;stroke-linecap:round;stroke-linejoin:round;stroke:rgb(0%,100%,0%);stroke-opacity:1;stroke-miterlimit:10;" d="M 84.035156 145.203125 L 329.742188 139.402344 "/>
<path style="fill:none;stroke-width:0.75;stroke-linecap:round;stroke-linejoin:round;stroke:rgb(0%,100%,0%);stroke-opacity:1;stroke-miterlimit:10;" d="M 423.703125 152.167969 L 357.371094 141.320313 "/>
<path style="fill:none;stroke-width:0.75;stroke-linecap:round;stroke-linejoin:round;stroke:rgb(0%,100%,0%);stroke-opacity:1;stroke-miterlimit:10;" d="M 277.660156 42.074219 L 335.824219 127.574219 "/>
<path style="fill:none;stroke-width:0.75;stroke-linecap:round;stroke-linejoin:round;stroke:rgb(0%,100%,0%);stroke-opacity:1;stroke-miterlimit:10;" d="M 223.46875 171.261719 L 330.210938 142.671875 "/>
<path style="fill:none;stroke-width:0.75;stroke-linecap:round;stroke-linejoin:round;stroke:rgb(0%,100%,0%);stroke-opacity:1;stroke-miterlimit:10;" d="M 337.917969 286.128906 L 343.105469 152.972656 "/>
<path style="fill:none;stroke-width:0.75;stroke-linecap:round;stroke-linejoin:round;stroke:rgb(0%,100%,0%);stroke-opacity:1;stroke-miterlimit:10;" d="M 226.734375 245.9375 L 141.46875 237.222656 "/>
<path style="fill:none;stroke-width:0.75;stroke-linecap:round;stroke-linejoin:round;stroke:rgb(0%,100%,0%);stroke-opacity:1;stroke-miterlimit:10;" d="M 250.28125 318.234375 L 139.175781 243.566406 "/>
<path style="fill:none;stroke-width:0.75;stroke-linecap:round;stroke-linejoin:round;stroke:rgb(0%,100%,0%);stroke-opacity:1;stroke-miterlimit:10;" d="M 77.316406 277.179688 L 116.890625 244.644531 "/>
<path style="fill:none;stroke-width:0.75;stroke-linecap:round;stroke-linejoin:round;stroke:rgb(0%,100%,0%);stroke-opacity:1;stroke-miterlimit:10;" d="M 261.914063 42.003906 L 135.554688 224.378906 "/>
<path style="fill:none;stroke-width:0.75;stroke-linecap:round;stroke-linejoin:round;stroke:rgb(0%,100%,0%);stroke-opacity:1;stroke-miterlimit:10;" d="M 191.488281 287.007813 L 138.484375 244.511719 "/>
<path style="fill:none;stroke-width:0.75;stroke-linecap:round;stroke-linejoin:round;stroke:rgb(0%,100%,0%);stroke-opacity:1;stroke-miterlimit:10;" d="M 324.082031 295.953125 L 140.929688 239.882813 "/>
<path style="fill:none;stroke-width:0.75;stroke-linecap:round;stroke-linejoin:round;stroke:rgb(0%,100%,0%);stroke-opacity:1;stroke-miterlimit:10;" d="M 250.667969 256.914063 L 386.300781 385.433594 "/>
<path style="fill:none;stroke-width:0.75;stroke-linecap:round;stroke-linejoin:round;stroke:rgb(0%,100%,0%);stroke-opacity:1;stroke-miterlimit:10;" d="M 274.195313 332.335938 L 384.023438 388.652344 "/>
<path style="fill:none;stroke-width:0.75;stroke-linecap:round;stroke-linejoin:round;stroke:rgb(0%,100%,0%);stroke-opacity:1;stroke-miterlimit:10;" d="M 214.71875 302.039063 L 384.015625 388.664063 "/>
<path style="fill:none;stroke-width:0.75;stroke-linecap:round;stroke-linejoin:round;stroke:rgb(0%,100%,0%);stroke-opacity:1;stroke-miterlimit:10;" d="M 344.71875 311.835938 L 389.058594 383.183594 "/>
<path style="fill:none;stroke-width:0.75;stroke-linecap:round;stroke-linejoin:round;stroke:rgb(0%,100%,0%);stroke-opacity:1;stroke-miterlimit:10;" d="M 346.453125 152.695313 L 393.589844 381.378906 "/>
<path style="fill:none;stroke-width:0.75;stroke-linecap:round;stroke-linejoin:round;stroke:rgb(0%,100%,0%);stroke-opacity:1;stroke-miterlimit:10;" d="M 253.269531 241.683594 L 288.921875 225.769531 "/>
<path style="fill:none;stroke-width:0.75;stroke-linecap:round;stroke-linejoin:round;stroke:rgb(0%,100%,0%);stroke-opacity:1;stroke-miterlimit:10;" d="M 424.90625 160.46875 L 314.140625 214.046875 "/>
<path style="fill:none;stroke-width:0.75;stroke-linecap:round;stroke-linejoin:round;stroke:rgb(0%,100%,0%);stroke-opacity:1;stroke-miterlimit:10;" d="M 266.714844 312.972656 L 296.730469 233.121094 "/>
<path style="fill:none;stroke-width:0.75;stroke-linecap:round;stroke-linejoin:round;stroke:rgb(0%,100%,0%);stroke-opacity:1;stroke-miterlimit:10;" d="M 79.964844 282.257813 L 288.230469 223.859375 "/>
<path style="fill:none;stroke-width:0.75;stroke-linecap:round;stroke-linejoin:round;stroke:rgb(0%,100%,0%);stroke-opacity:1;stroke-miterlimit:10;" d="M 272.136719 44.289063 L 299.320313 206.386719 "/>
<path style="fill:none;stroke-width:0.75;stroke-linecap:round;stroke-linejoin:round;stroke:rgb(0%,100%,0%);stroke-opacity:1;stroke-miterlimit:10;" d="M 222.503906 181.019531 L 289.152344 213.945313 "/>
<path style="fill:none;stroke-width:0.75;stroke-linecap:round;stroke-linejoin:round;stroke:rgb(0%,100%,0%);stroke-opacity:1;stroke-miterlimit:10;" d="M 213.402344 287.28125 L 290.558594 228.527344 "/>
<path style="fill:none;stroke-width:0.75;stroke-linecap:round;stroke-linejoin:round;stroke:rgb(0%,100%,0%);stroke-opacity:1;stroke-miterlimit:10;" d="M 331.699219 287.328125 L 307.300781 232.796875 "/>
<path style="fill:none;stroke-width:0.75;stroke-linecap:round;stroke-linejoin:round;stroke:rgb(0%,100%,0%);stroke-opacity:1;stroke-miterlimit:10;" d="M 337.242188 151.421875 L 308.023438 207.757813 "/>
<path style="fill:none;stroke-width:0.75;stroke-linecap:round;stroke-linejoin:round;stroke:rgb(0%,100%,0%);stroke-opacity:1;stroke-miterlimit:10;" d="M 141.484375 234.558594 L 287.769531 221.351563 "/>
<path style="fill:none;stroke-width:0.75;stroke-linecap:round;stroke-linejoin:round;stroke:rgb(0%,100%,0%);stroke-opacity:1;stroke-miterlimit:10;" d="M 389.773438 382.769531 L 308.246094 232.332031 "/>
<path style="fill:none;stroke-width:0.75;stroke-linecap:round;stroke-linejoin:round;stroke:rgb(0%,100%,0%);stroke-opacity:1;stroke-miterlimit:10;" d="M 230.386719 237.878906 L 158.558594 171.109375 "/>
<path style="fill:none;stroke-width:0.75;stroke-linecap:round;stroke-linejoin:round;stroke:rgb(0%,100%,0%);stroke-opacity:1;stroke-miterlimit:10;" d="M 83.753906 148.335938 L 134.753906 158.835938 "/>
<path style="fill:none;stroke-width:0.75;stroke-linecap:round;stroke-linejoin:round;stroke:rgb(0%,100%,0%);stroke-opacity:1;stroke-miterlimit:10;" d="M 253.921875 314.546875 L 156.273438 173.082031 "/>
<path style="fill:none;stroke-width:0.75;stroke-linecap:round;stroke-linejoin:round;stroke:rgb(0%,100%,0%);stroke-opacity:1;stroke-miterlimit:10;" d="M 74.214844 274.394531 L 140.734375 173.257813 "/>
<path style="fill:none;stroke-width:0.75;stroke-linecap:round;stroke-linejoin:round;stroke:rgb(0%,100%,0%);stroke-opacity:1;stroke-miterlimit:10;" d="M 196.4375 171.941406 L 161.972656 164.554688 "/>
<path style="fill:none;stroke-width:0.75;stroke-linecap:round;stroke-linejoin:round;stroke:rgb(0%,100%,0%);stroke-opacity:1;stroke-miterlimit:10;" d="M 197.144531 282.804688 L 153.566406 174.539063 "/>
<path style="fill:none;stroke-width:0.75;stroke-linecap:round;stroke-linejoin:round;stroke:rgb(0%,100%,0%);stroke-opacity:1;stroke-miterlimit:10;" d="M 329.828125 140.671875 L 162.191406 160.042969 "/>
<path style="fill:none;stroke-width:0.75;stroke-linecap:round;stroke-linejoin:round;stroke:rgb(0%,100%,0%);stroke-opacity:1;stroke-miterlimit:10;" d="M 131.378906 222.417969 L 144.628906 175.03125 "/>
<path style="fill:none;stroke-width:0.75;stroke-linecap:round;stroke-linejoin:round;stroke:rgb(0%,100%,0%);stroke-opacity:1;stroke-miterlimit:10;" d="M 288.628906 215.144531 L 161.367188 166.597656 "/>
<path style="fill:none;stroke-width:0.75;stroke-linecap:round;stroke-linejoin:round;stroke:rgb(0%,100%,0%);stroke-opacity:1;stroke-miterlimit:10;" d="M 254.453125 246.5 L 377.503906 238.949219 "/>
<path style="fill:none;stroke-width:0.75;stroke-linecap:round;stroke-linejoin:round;stroke:rgb(0%,100%,0%);stroke-opacity:1;stroke-miterlimit:10;" d="M 430.722656 166.597656 L 398.089844 225.914063 "/>
<path style="fill:none;stroke-width:0.75;stroke-linecap:round;stroke-linejoin:round;stroke:rgb(0%,100%,0%);stroke-opacity:1;stroke-miterlimit:10;" d="M 273.332031 318.183594 L 379.878906 245.90625 "/>
<path style="fill:none;stroke-width:0.75;stroke-linecap:round;stroke-linejoin:round;stroke:rgb(0%,100%,0%);stroke-opacity:1;stroke-miterlimit:10;" d="M 276.863281 42.574219 L 384.355469 226.097656 "/>
<path style="fill:none;stroke-width:0.75;stroke-linecap:round;stroke-linejoin:round;stroke:rgb(0%,100%,0%);stroke-opacity:1;stroke-miterlimit:10;" d="M 223.167969 179.4375 L 378.253906 233.519531 "/>
<path style="fill:none;stroke-width:0.75;stroke-linecap:round;stroke-linejoin:round;stroke:rgb(0%,100%,0%);stroke-opacity:1;stroke-miterlimit:10;" d="M 215.640625 291.652344 L 378.082031 242.152344 "/>
<path style="fill:none;stroke-width:0.75;stroke-linecap:round;stroke-linejoin:round;stroke:rgb(0%,100%,0%);stroke-opacity:1;stroke-miterlimit:10;" d="M 346.519531 289.542969 L 382.246094 248.578125 "/>
<path style="fill:none;stroke-width:0.75;stroke-linecap:round;stroke-linejoin:round;stroke:rgb(0%,100%,0%);stroke-opacity:1;stroke-miterlimit:10;" d="M 349.683594 151.601563 L 385.347656 225.570313 "/>
<path style="fill:none;stroke-width:0.75;stroke-linecap:round;stroke-linejoin:round;stroke:rgb(0%,100%,0%);stroke-opacity:1;stroke-miterlimit:10;" d="M 395.953125 381.097656 L 391.828125 252 "/>
<path style="fill:none;stroke-width:0.75;stroke-linecap:round;stroke-linejoin:round;stroke:rgb(0%,100%,0%);stroke-opacity:1;stroke-miterlimit:10;" d="M 315.257813 222.835938 L 377.75 235.363281 "/>
<path style="fill:none;stroke-width:0.75;stroke-linecap:round;stroke-linejoin:round;stroke:rgb(0%,100%,0%);stroke-opacity:1;stroke-miterlimit:10;" d="M 161.640625 165.8125 L 378.121094 233.925781 "/>
<path style="fill:none;stroke-width:0.75;stroke-linecap:round;stroke-linejoin:round;stroke:rgb(0%,100%,0%);stroke-opacity:1;stroke-miterlimit:10;" d="M 241.40625 261.230469 L 249.011719 387.542969 "/>
<path style="fill:none;stroke-width:0.75;stroke-linecap:round;stroke-linejoin:round;stroke:rgb(0%,100%,0%);stroke-opacity:1;stroke-miterlimit:10;" d="M 78.125 156.910156 L 241.855469 390.046875 "/>
<path style="fill:none;stroke-width:0.75;stroke-linecap:round;stroke-linejoin:round;stroke:rgb(0%,100%,0%);stroke-opacity:1;stroke-miterlimit:10;" d="M 429.015625 165.492188 L 258.261719 390.351563 "/>
<path style="fill:none;stroke-width:0.75;stroke-linecap:round;stroke-linejoin:round;stroke:rgb(0%,100%,0%);stroke-opacity:1;stroke-miterlimit:10;" d="M 259.640625 339.726563 L 252.03125 387.691406 "/>
<path style="fill:none;stroke-width:0.75;stroke-linecap:round;stroke-linejoin:round;stroke:rgb(0%,100%,0%);stroke-opacity:1;stroke-miterlimit:10;" d="M 212.441406 188.554688 L 247.441406 387.730469 "/>
<path style="fill:none;stroke-width:0.75;stroke-linecap:round;stroke-linejoin:round;stroke:rgb(0%,100%,0%);stroke-opacity:1;stroke-miterlimit:10;" d="M 208.039063 308.390625 L 244.148438 388.742188 "/>
<path style="fill:none;stroke-width:0.75;stroke-linecap:round;stroke-linejoin:round;stroke:rgb(0%,100%,0%);stroke-opacity:1;stroke-miterlimit:10;" d="M 328.292969 310.550781 L 258.9375 390.898438 "/>
<path style="fill:none;stroke-width:0.75;stroke-linecap:round;stroke-linejoin:round;stroke:rgb(0%,100%,0%);stroke-opacity:1;stroke-miterlimit:10;" d="M 338.964844 152.167969 L 254.53125 388.332031 "/>
<path style="fill:none;stroke-width:0.75;stroke-linecap:round;stroke-linejoin:round;stroke:rgb(0%,100%,0%);stroke-opacity:1;stroke-miterlimit:10;" d="M 135.890625 247 L 241.59375 390.238281 "/>
<path style="fill:none;stroke-width:0.75;stroke-linecap:round;stroke-linejoin:round;stroke:rgb(0%,100%,0%);stroke-opacity:1;stroke-miterlimit:10;" d="M 382.503906 395.605469 L 263.742188 400.816406 "/>
<path style="fill:none;stroke-width:0.75;stroke-linecap:round;stroke-linejoin:round;stroke:rgb(0%,100%,0%);stroke-opacity:1;stroke-miterlimit:10;" d="M 297.804688 233.476563 L 253.667969 388.054688 "/>
<path style="fill:none;stroke-width:0.75;stroke-linecap:round;stroke-linejoin:round;stroke:rgb(0%,100%,0%);stroke-opacity:1;stroke-miterlimit:10;" d="M 153.792969 174.445313 L 244.429688 388.617188 "/>
<path style="fill:none;stroke-width:0.75;stroke-linecap:round;stroke-linejoin:round;stroke:rgb(0%,100%,0%);stroke-opacity:1;stroke-miterlimit:10;" d="M 236.085938 234.1875 L 184.816406 83.75 "/>
<path style="fill:none;stroke-width:0.75;stroke-linecap:round;stroke-linejoin:round;stroke:rgb(0%,100%,0%);stroke-opacity:1;stroke-miterlimit:10;" d="M 81.632813 137.710938 L 168.832031 78.40625 "/>
<path style="fill:none;stroke-width:0.75;stroke-linecap:round;stroke-linejoin:round;stroke:rgb(0%,100%,0%);stroke-opacity:1;stroke-miterlimit:10;" d="M 424.203125 150.105469 L 193.554688 74.898438 "/>
<path style="fill:none;stroke-width:0.75;stroke-linecap:round;stroke-linejoin:round;stroke:rgb(0%,100%,0%);stroke-opacity:1;stroke-miterlimit:10;" d="M 73.066406 273.714844 L 173.839844 82.882813 "/>
<path style="fill:none;stroke-width:0.75;stroke-linecap:round;stroke-linejoin:round;stroke:rgb(0%,100%,0%);stroke-opacity:1;stroke-miterlimit:10;" d="M 257.140625 36.25 L 193.027344 64.910156 "/>
<path style="fill:none;stroke-width:0.75;stroke-linecap:round;stroke-linejoin:round;stroke:rgb(0%,100%,0%);stroke-opacity:1;stroke-miterlimit:10;" d="M 206.226563 161.484375 L 184.140625 83.960938 "/>
<path style="fill:none;stroke-width:0.75;stroke-linecap:round;stroke-linejoin:round;stroke:rgb(0%,100%,0%);stroke-opacity:1;stroke-miterlimit:10;" d="M 200.984375 281.863281 L 181.683594 84.429688 "/>
<path style="fill:none;stroke-width:0.75;stroke-linecap:round;stroke-linejoin:round;stroke:rgb(0%,100%,0%);stroke-opacity:1;stroke-miterlimit:10;" d="M 329.523438 288.546875 L 188.1875 82.0625 "/>
<path style="fill:none;stroke-width:0.75;stroke-linecap:round;stroke-linejoin:round;stroke:rgb(0%,100%,0%);stroke-opacity:1;stroke-miterlimit:10;" d="M 330.820313 133.695313 L 193.15625 75.964844 "/>
<path style="fill:none;stroke-width:0.75;stroke-linecap:round;stroke-linejoin:round;stroke:rgb(0%,100%,0%);stroke-opacity:1;stroke-miterlimit:10;" d="M 131.859375 222.5625 L 176.105469 83.835938 "/>
<path style="fill:none;stroke-width:0.75;stroke-linecap:round;stroke-linejoin:round;stroke:rgb(0%,100%,0%);stroke-opacity:1;stroke-miterlimit:10;" d="M 292.859375 209.304688 L 189.09375 81.386719 "/>
<path style="fill:none;stroke-width:0.75;stroke-linecap:round;stroke-linejoin:round;stroke:rgb(0%,100%,0%);stroke-opacity:1;stroke-miterlimit:10;" d="M 152.980469 148.515625 L 175.726563 83.710938 "/>
<path style="fill:none;stroke-width:0.75;stroke-linecap:round;stroke-linejoin:round;stroke:rgb(0%,100%,0%);stroke-opacity:1;stroke-miterlimit:10;" d="M 83.816406 143.058594 L 231.324219 116.410156 "/>
<path style="fill:none;stroke-width:0.75;stroke-linecap:round;stroke-linejoin:round;stroke:rgb(0%,100%,0%);stroke-opacity:1;stroke-miterlimit:10;" d="M 423.816406 151.550781 L 258.617188 116.800781 "/>
<path style="fill:none;stroke-width:0.75;stroke-linecap:round;stroke-linejoin:round;stroke:rgb(0%,100%,0%);stroke-opacity:1;stroke-miterlimit:10;" d="M 260.722656 312.125 L 246.109375 127.800781 "/>
<path style="fill:none;stroke-width:0.75;stroke-linecap:round;stroke-linejoin:round;stroke:rgb(0%,100%,0%);stroke-opacity:1;stroke-miterlimit:10;" d="M 76.585938 276.359375 L 235 123.589844 "/>
<path style="fill:none;stroke-width:0.75;stroke-linecap:round;stroke-linejoin:round;stroke:rgb(0%,100%,0%);stroke-opacity:1;stroke-miterlimit:10;" d="M 265.867188 43.902344 L 248.980469 100.609375 "/>
<path style="fill:none;stroke-width:0.75;stroke-linecap:round;stroke-linejoin:round;stroke:rgb(0%,100%,0%);stroke-opacity:1;stroke-miterlimit:10;" d="M 205.515625 282.167969 L 241.832031 127.476563 "/>
<path style="fill:none;stroke-width:0.75;stroke-linecap:round;stroke-linejoin:round;stroke:rgb(0%,100%,0%);stroke-opacity:1;stroke-miterlimit:10;" d="M 331.195313 287.566406 L 251.191406 126.394531 "/>
<path style="fill:none;stroke-width:0.75;stroke-linecap:round;stroke-linejoin:round;stroke:rgb(0%,100%,0%);stroke-opacity:1;stroke-miterlimit:10;" d="M 330.167969 135.640625 L 258.484375 117.371094 "/>
<path style="fill:none;stroke-width:0.75;stroke-linecap:round;stroke-linejoin:round;stroke:rgb(0%,100%,0%);stroke-opacity:1;stroke-miterlimit:10;" d="M 137.28125 225.792969 L 235.363281 123.953125 "/>
<path style="fill:none;stroke-width:0.75;stroke-linecap:round;stroke-linejoin:round;stroke:rgb(0%,100%,0%);stroke-opacity:1;stroke-miterlimit:10;" d="M 295.078125 207.832031 L 251.554688 126.207031 "/>
<path style="fill:none;stroke-width:0.75;stroke-linecap:round;stroke-linejoin:round;stroke:rgb(0%,100%,0%);stroke-opacity:1;stroke-miterlimit:10;" d="M 160.84375 155.484375 L 232.539063 120.09375 "/>
<path style="fill:none;stroke-width:0.75;stroke-linecap:round;stroke-linejoin:round;stroke:rgb(0%,100%,0%);stroke-opacity:1;stroke-miterlimit:10;" d="M 380.78125 229.101563 L 255.617188 122.933594 "/>
<path style="fill:none;stroke-width:0.75;stroke-linecap:round;stroke-linejoin:round;stroke:rgb(0%,100%,0%);stroke-opacity:1;stroke-miterlimit:10;" d="M 191.882813 78.328125 L 233.457031 106.195313 "/>
<path style="fill:none;stroke-width:0.75;stroke-linecap:round;stroke-linejoin:round;stroke:rgb(0%,100%,0%);stroke-opacity:1;stroke-miterlimit:10;" d="M 427.699219 144.476563 L 367.226563 82.667969 "/>
<path style="fill:none;stroke-width:0.75;stroke-linecap:round;stroke-linejoin:round;stroke:rgb(0%,100%,0%);stroke-opacity:1;stroke-miterlimit:10;" d="M 282.371094 36.601563 L 344.964844 66.703125 "/>
<path style="fill:none;stroke-width:0.75;stroke-linecap:round;stroke-linejoin:round;stroke:rgb(0%,100%,0%);stroke-opacity:1;stroke-miterlimit:10;" d="M 221.46875 166.941406 L 346.066406 80.648438 "/>
<path style="fill:none;stroke-width:0.75;stroke-linecap:round;stroke-linejoin:round;stroke:rgb(0%,100%,0%);stroke-opacity:1;stroke-miterlimit:10;" d="M 210.28125 284.289063 L 349.554688 84.144531 "/>
<path style="fill:none;stroke-width:0.75;stroke-linecap:round;stroke-linejoin:round;stroke:rgb(0%,100%,0%);stroke-opacity:1;stroke-miterlimit:10;" d="M 338.605469 286.171875 L 356.273438 86.582031 "/>
<path style="fill:none;stroke-width:0.75;stroke-linecap:round;stroke-linejoin:round;stroke:rgb(0%,100%,0%);stroke-opacity:1;stroke-miterlimit:10;" d="M 138.976563 227.761719 L 346.15625 80.777344 "/>
<path style="fill:none;stroke-width:0.75;stroke-linecap:round;stroke-linejoin:round;stroke:rgb(0%,100%,0%);stroke-opacity:1;stroke-miterlimit:10;" d="M 394.730469 381.191406 L 359.164063 86.535156 "/>
<path style="fill:none;stroke-width:0.75;stroke-linecap:round;stroke-linejoin:round;stroke:rgb(0%,100%,0%);stroke-opacity:1;stroke-miterlimit:10;" d="M 306.550781 207.097656 L 352.570313 85.734375 "/>
<path style="fill:none;stroke-width:0.75;stroke-linecap:round;stroke-linejoin:round;stroke:rgb(0%,100%,0%);stroke-opacity:1;stroke-miterlimit:10;" d="M 161.171875 156.199219 L 344.699219 78.171875 "/>
<path style="fill:none;stroke-width:0.75;stroke-linecap:round;stroke-linejoin:round;stroke:rgb(0%,100%,0%);stroke-opacity:1;stroke-miterlimit:10;" d="M 388.59375 224.476563 L 360.289063 86.351563 "/>
<path style="fill:none;stroke-width:0.75;stroke-linecap:round;stroke-linejoin:round;stroke:rgb(0%,100%,0%);stroke-opacity:1;stroke-miterlimit:10;" d="M 194.238281 70.753906 L 343.59375 72.5625 "/>
<path style="fill:none;stroke-width:0.75;stroke-linecap:round;stroke-linejoin:round;stroke:rgb(0%,100%,0%);stroke-opacity:1;stroke-miterlimit:10;" d="M 258.066406 109.152344 L 344.441406 77.511719 "/>
<path style="fill:none;stroke-width:0.75;stroke-linecap:round;stroke-linejoin:round;stroke:rgb(0%,100%,0%);stroke-opacity:1;stroke-miterlimit:10;" d="M 231.820313 258.160156 L 159.285156 347.757813 "/>
<path style="fill:none;stroke-width:0.75;stroke-linecap:round;stroke-linejoin:round;stroke:rgb(0%,100%,0%);stroke-opacity:1;stroke-miterlimit:10;" d="M 75.042969 158.542969 L 145.625 345.554688 "/>
<path style="fill:none;stroke-width:0.75;stroke-linecap:round;stroke-linejoin:round;stroke:rgb(0%,100%,0%);stroke-opacity:1;stroke-miterlimit:10;" d="M 248.476563 329.898438 L 163.882813 354.660156 "/>
<path style="fill:none;stroke-width:0.75;stroke-linecap:round;stroke-linejoin:round;stroke:rgb(0%,100%,0%);stroke-opacity:1;stroke-miterlimit:10;" d="M 77.097656 295.105469 L 140.011719 349.472656 "/>
<path style="fill:none;stroke-width:0.75;stroke-linecap:round;stroke-linejoin:round;stroke:rgb(0%,100%,0%);stroke-opacity:1;stroke-miterlimit:10;" d="M 205.75 188.089844 L 154.820313 345.335938 "/>
<path style="fill:none;stroke-width:0.75;stroke-linecap:round;stroke-linejoin:round;stroke:rgb(0%,100%,0%);stroke-opacity:1;stroke-miterlimit:10;" d="M 193.492188 306.4375 L 159.378906 347.835938 "/>
<path style="fill:none;stroke-width:0.75;stroke-linecap:round;stroke-linejoin:round;stroke:rgb(0%,100%,0%);stroke-opacity:1;stroke-miterlimit:10;" d="M 130.183594 249.480469 L 147.984375 344.894531 "/>
<path style="fill:none;stroke-width:0.75;stroke-linecap:round;stroke-linejoin:round;stroke:rgb(0%,100%,0%);stroke-opacity:1;stroke-miterlimit:10;" d="M 382.640625 392.960938 L 164.289063 360.605469 "/>
<path style="fill:none;stroke-width:0.75;stroke-linecap:round;stroke-linejoin:round;stroke:rgb(0%,100%,0%);stroke-opacity:1;stroke-miterlimit:10;" d="M 291.367188 229.5 L 160.785156 349.171875 "/>
<path style="fill:none;stroke-width:0.75;stroke-linecap:round;stroke-linejoin:round;stroke:rgb(0%,100%,0%);stroke-opacity:1;stroke-miterlimit:10;" d="M 148.527344 175.542969 L 150.382813 344.660156 "/>
<path style="fill:none;stroke-width:0.75;stroke-linecap:round;stroke-linejoin:round;stroke:rgb(0%,100%,0%);stroke-opacity:1;stroke-miterlimit:10;" d="M 378.949219 244.320313 L 162.972656 352.347656 "/>
<path style="fill:none;stroke-width:0.75;stroke-linecap:round;stroke-linejoin:round;stroke:rgb(0%,100%,0%);stroke-opacity:1;stroke-miterlimit:10;" d="M 237.082031 395.917969 L 163.304688 364.078125 "/>
<path style="fill:none;stroke-width:0.75;stroke-linecap:round;stroke-linejoin:round;stroke:rgb(0%,100%,0%);stroke-opacity:1;stroke-miterlimit:10;" d="M 178.902344 84.421875 L 151.964844 344.734375 "/>
<path style="fill:none;stroke-width:0.75;stroke-linecap:round;stroke-linejoin:round;stroke:rgb(0%,100%,0%);stroke-opacity:1;stroke-miterlimit:10;" d="M 240 126.910156 L 155.542969 345.59375 "/>
<path style="fill-rule:nonzero;fill:rgb(90.196078%,62.352941%,0%);fill-opacity:1;stroke-width:0.75;stroke-linecap:round;stroke-linejoin:round;stroke:rgb(0%,0%,0%);stroke-opacity:1;stroke-miterlimit:10;" d="M 254.476563 247.347656 C 254.476563 255.03125 248.25 261.257813 240.570313 261.257813 C 232.890625 261.257813 226.664063 255.03125 226.664063 247.347656 C 226.664063 239.667969 232.890625 233.441406 240.570313 233.441406 C 248.25 233.441406 254.476563 239.667969 254.476563 247.347656 "/>
<path style="fill-rule:nonzero;fill:rgb(90.196078%,62.352941%,0%);fill-opacity:1;stroke-width:0.75;stroke-linecap:round;stroke-linejoin:round;stroke:rgb(0%,0%,0%);stroke-opacity:1;stroke-miterlimit:10;" d="M 84.039063 145.53125 C 84.039063 153.210938 77.8125 159.4375 70.132813 159.4375 C 62.453125 159.4375 56.226563 153.210938 56.226563 145.53125 C 56.226563 137.851563 62.453125 131.625 70.132813 131.625 C 77.8125 131.625 84.039063 137.851563 84.039063 145.53125 "/>
<path style="fill-rule:nonzero;fill:rgb(90.196078%,62.352941%,0%);fill-opacity:1;stroke-width:0.75;stroke-linecap:round;stroke-linejoin:round;stroke:rgb(0%,0%,0%);stroke-opacity:1;stroke-miterlimit:10;" d="M 451.332031 154.414063 C 451.332031 162.09375 445.105469 168.320313 437.425781 168.320313 C 429.746094 168.320313 423.519531 162.09375 423.519531 154.414063 C 423.519531 146.734375 429.746094 140.507813 437.425781 140.507813 C 445.105469 140.507813 451.332031 146.734375 451.332031 154.414063 "/>
<path style="fill-rule:nonzero;fill:rgb(90.196078%,62.352941%,0%);fill-opacity:1;stroke-width:0.75;stroke-linecap:round;stroke-linejoin:round;stroke:rgb(0%,0%,0%);stroke-opacity:1;stroke-miterlimit:10;" d="M 275.730469 325.992188 C 275.730469 333.671875 269.503906 339.898438 261.824219 339.898438 C 254.140625 339.898438 247.914063 333.671875 247.914063 325.992188 C 247.914063 318.308594 254.140625 312.082031 261.824219 312.082031 C 269.503906 312.082031 275.730469 318.308594 275.730469 325.992188 "/>
<path style="fill-rule:nonzero;fill:rgb(90.196078%,62.352941%,0%);fill-opacity:1;stroke-width:0.75;stroke-linecap:round;stroke-linejoin:round;stroke:rgb(0%,0%,0%);stroke-opacity:1;stroke-miterlimit:10;" d="M 80.480469 286.011719 C 80.480469 293.695313 74.253906 299.921875 66.574219 299.921875 C 58.894531 299.921875 52.667969 293.695313 52.667969 286.011719 C 52.667969 278.332031 58.894531 272.105469 66.574219 272.105469 C 74.253906 272.105469 80.480469 278.332031 80.480469 286.011719 "/>
<path style="fill-rule:nonzero;fill:rgb(90.196078%,62.352941%,0%);fill-opacity:1;stroke-width:0.75;stroke-linecap:round;stroke-linejoin:round;stroke:rgb(0%,0%,0%);stroke-opacity:1;stroke-miterlimit:10;" d="M 283.742188 30.574219 C 283.742188 38.253906 277.515625 44.480469 269.835938 44.480469 C 262.15625 44.480469 255.929688 38.253906 255.929688 30.574219 C 255.929688 22.894531 262.15625 16.667969 269.835938 16.667969 C 277.515625 16.667969 283.742188 22.894531 283.742188 30.574219 "/>
<path style="fill-rule:nonzero;fill:rgb(90.196078%,62.352941%,0%);fill-opacity:1;stroke-width:0.75;stroke-linecap:round;stroke-linejoin:round;stroke:rgb(0%,0%,0%);stroke-opacity:1;stroke-miterlimit:10;" d="M 223.941406 174.859375 C 223.941406 182.539063 217.714844 188.765625 210.035156 188.765625 C 202.355469 188.765625 196.128906 182.539063 196.128906 174.859375 C 196.128906 167.179688 202.355469 160.953125 210.035156 160.953125 C 217.714844 160.953125 223.941406 167.179688 223.941406 174.859375 "/>
<path style="fill-rule:nonzero;fill:rgb(90.196078%,62.352941%,0%);fill-opacity:1;stroke-width:0.75;stroke-linecap:round;stroke-linejoin:round;stroke:rgb(0%,0%,0%);stroke-opacity:1;stroke-miterlimit:10;" d="M 216.246094 295.707031 C 216.246094 303.386719 210.019531 309.613281 202.339844 309.613281 C 194.65625 309.613281 188.429688 303.386719 188.429688 295.707031 C 188.429688 288.023438 194.65625 281.796875 202.339844 281.796875 C 210.019531 281.796875 216.246094 288.023438 216.246094 295.707031 "/>
<path style="fill-rule:nonzero;fill:rgb(90.196078%,62.352941%,0%);fill-opacity:1;stroke-width:0.75;stroke-linecap:round;stroke-linejoin:round;stroke:rgb(0%,0%,0%);stroke-opacity:1;stroke-miterlimit:10;" d="M 351.285156 300.023438 C 351.285156 307.703125 345.058594 313.929688 337.378906 313.929688 C 329.699219 313.929688 323.472656 307.703125 323.472656 300.023438 C 323.472656 292.34375 329.699219 286.117188 337.378906 286.117188 C 345.058594 286.117188 351.285156 292.34375 351.285156 300.023438 "/>
<path style="fill-rule:nonzero;fill:rgb(90.196078%,62.352941%,0%);fill-opacity:1;stroke-width:0.75;stroke-linecap:round;stroke-linejoin:round;stroke:rgb(0%,0%,0%);stroke-opacity:1;stroke-miterlimit:10;" d="M 357.550781 139.074219 C 357.550781 146.753906 351.324219 152.980469 343.644531 152.980469 C 335.964844 152.980469 329.738281 146.753906 329.738281 139.074219 C 329.738281 131.394531 335.964844 125.167969 343.644531 125.167969 C 351.324219 125.167969 357.550781 131.394531 357.550781 139.074219 "/>
<path style="fill-rule:nonzero;fill:rgb(90.196078%,62.352941%,0%);fill-opacity:1;stroke-width:0.75;stroke-linecap:round;stroke-linejoin:round;stroke:rgb(0%,0%,0%);stroke-opacity:1;stroke-miterlimit:10;" d="M 141.539063 235.8125 C 141.539063 243.492188 135.3125 249.71875 127.632813 249.71875 C 119.953125 249.71875 113.726563 243.492188 113.726563 235.8125 C 113.726563 228.128906 119.953125 221.902344 127.632813 221.902344 C 135.3125 221.902344 141.539063 228.128906 141.539063 235.8125 "/>
<path style="fill-rule:nonzero;fill:rgb(90.196078%,62.352941%,0%);fill-opacity:1;stroke-width:0.75;stroke-linecap:round;stroke-linejoin:round;stroke:rgb(0%,0%,0%);stroke-opacity:1;stroke-miterlimit:10;" d="M 410.304688 394.996094 C 410.304688 402.679688 404.078125 408.90625 396.398438 408.90625 C 388.714844 408.90625 382.492188 402.679688 382.492188 394.996094 C 382.492188 387.316406 388.714844 381.089844 396.398438 381.089844 C 404.078125 381.089844 410.304688 387.316406 410.304688 394.996094 "/>
<path style="fill-rule:nonzero;fill:rgb(90.196078%,62.352941%,0%);fill-opacity:1;stroke-width:0.75;stroke-linecap:round;stroke-linejoin:round;stroke:rgb(0%,0%,0%);stroke-opacity:1;stroke-miterlimit:10;" d="M 315.527344 220.101563 C 315.527344 227.785156 309.300781 234.011719 301.621094 234.011719 C 293.941406 234.011719 287.714844 227.785156 287.714844 220.101563 C 287.714844 212.421875 293.941406 206.195313 301.621094 206.195313 C 309.300781 206.195313 315.527344 212.421875 315.527344 220.101563 "/>
<path style="fill-rule:nonzero;fill:rgb(90.196078%,62.352941%,0%);fill-opacity:1;stroke-width:0.75;stroke-linecap:round;stroke-linejoin:round;stroke:rgb(0%,0%,0%);stroke-opacity:1;stroke-miterlimit:10;" d="M 162.28125 161.640625 C 162.28125 169.320313 156.054688 175.546875 148.375 175.546875 C 140.695313 175.546875 134.46875 169.320313 134.46875 161.640625 C 134.46875 153.957031 140.695313 147.730469 148.375 147.730469 C 156.054688 147.730469 162.28125 153.957031 162.28125 161.640625 "/>
<path style="fill-rule:nonzero;fill:rgb(90.196078%,62.352941%,0%);fill-opacity:1;stroke-width:0.75;stroke-linecap:round;stroke-linejoin:round;stroke:rgb(0%,0%,0%);stroke-opacity:1;stroke-miterlimit:10;" d="M 405.292969 238.097656 C 405.292969 245.78125 399.066406 252.007813 391.386719 252.007813 C 383.707031 252.007813 377.480469 245.78125 377.480469 238.097656 C 377.480469 230.417969 383.707031 224.191406 391.386719 224.191406 C 399.066406 224.191406 405.292969 230.417969 405.292969 238.097656 "/>
<path style="fill-rule:nonzero;fill:rgb(90.196078%,62.352941%,0%);fill-opacity:1;stroke-width:0.75;stroke-linecap:round;stroke-linejoin:round;stroke:rgb(0%,0%,0%);stroke-opacity:1;stroke-miterlimit:10;" d="M 263.757813 401.425781 C 263.757813 409.105469 257.53125 415.332031 249.847656 415.332031 C 242.167969 415.332031 235.941406 409.105469 235.941406 401.425781 C 235.941406 393.746094 242.167969 387.519531 249.847656 387.519531 C 257.53125 387.519531 263.757813 393.746094 263.757813 401.425781 "/>
<path style="fill-rule:nonzero;fill:rgb(90.196078%,62.352941%,0%);fill-opacity:1;stroke-width:0.75;stroke-linecap:round;stroke-linejoin:round;stroke:rgb(0%,0%,0%);stroke-opacity:1;stroke-miterlimit:10;" d="M 194.238281 70.585938 C 194.238281 78.265625 188.011719 84.492188 180.332031 84.492188 C 172.652344 84.492188 166.425781 78.265625 166.425781 70.585938 C 166.425781 62.90625 172.652344 56.679688 180.332031 56.679688 C 188.011719 56.679688 194.238281 62.90625 194.238281 70.585938 "/>
<path style="fill-rule:nonzero;fill:rgb(90.196078%,62.352941%,0%);fill-opacity:1;stroke-width:0.75;stroke-linecap:round;stroke-linejoin:round;stroke:rgb(0%,0%,0%);stroke-opacity:1;stroke-miterlimit:10;" d="M 258.917969 113.9375 C 258.917969 121.617188 252.691406 127.84375 245.011719 127.84375 C 237.328125 127.84375 231.101563 121.617188 231.101563 113.9375 C 231.101563 106.253906 237.328125 100.027344 245.011719 100.027344 C 252.691406 100.027344 258.917969 106.253906 258.917969 113.9375 "/>
<path style="fill-rule:nonzero;fill:rgb(90.196078%,62.352941%,0%);fill-opacity:1;stroke-width:0.75;stroke-linecap:round;stroke-linejoin:round;stroke:rgb(0%,0%,0%);stroke-opacity:1;stroke-miterlimit:10;" d="M 371.40625 72.730469 C 371.40625 80.410156 365.179688 86.636719 357.5 86.636719 C 349.820313 86.636719 343.59375 80.410156 343.59375 72.730469 C 343.59375 65.046875 349.820313 58.824219 357.5 58.824219 C 365.179688 58.824219 371.40625 65.046875 371.40625 72.730469 "/>
<path style="fill-rule:nonzero;fill:rgb(90.196078%,62.352941%,0%);fill-opacity:1;stroke-width:0.75;stroke-linecap:round;stroke-linejoin:round;stroke:rgb(0%,0%,0%);stroke-opacity:1;stroke-miterlimit:10;" d="M 164.441406 358.566406 C 164.441406 366.246094 158.214844 372.472656 150.535156 372.472656 C 142.851563 372.472656 136.628906 366.246094 136.628906 358.566406 C 136.628906 350.886719 142.851563 344.660156 150.535156 344.660156 C 158.214844 344.660156 164.441406 350.886719 164.441406 358.566406 "/>
<g style="fill:rgb(0%,0%,54.509804%);fill-opacity:1;">
  <use xlink:href="#glyph0-1" x="237.570313" y="251.402344"/>
</g>
<g style="fill:rgb(0%,0%,54.509804%);fill-opacity:1;">
  <use xlink:href="#glyph0-2" x="67.132813" y="149.585938"/>
</g>
<g style="fill:rgb(0%,0%,54.509804%);fill-opacity:1;">
  <use xlink:href="#glyph0-3" x="434.425781" y="158.398438"/>
</g>
<g style="fill:rgb(0%,0%,54.509804%);fill-opacity:1;">
  <use xlink:href="#glyph0-4" x="258.824219" y="330.046875"/>
</g>
<g style="fill:rgb(0%,0%,54.509804%);fill-opacity:1;">
  <use xlink:href="#glyph0-5" x="63.574219" y="289.914063"/>
</g>
<g style="fill:rgb(0%,0%,54.509804%);fill-opacity:1;">
  <use xlink:href="#glyph0-6" x="266.835938" y="34.558594"/>
</g>
<g style="fill:rgb(0%,0%,54.509804%);fill-opacity:1;">
  <use xlink:href="#glyph0-7" x="207.035156" y="178.75"/>
</g>
<g style="fill:rgb(0%,0%,54.509804%);fill-opacity:1;">
  <use xlink:href="#glyph0-8" x="199.339844" y="299.691406"/>
</g>
<g style="fill:rgb(0%,0%,54.509804%);fill-opacity:1;">
  <use xlink:href="#glyph0-9" x="334.378906" y="303.996094"/>
</g>
<g style="fill:rgb(0%,0%,54.509804%);fill-opacity:1;">
  <use xlink:href="#glyph0-1" x="337.644531" y="143.058594"/>
  <use xlink:href="#glyph0-10" x="343.644531" y="143.058594"/>
</g>
<g style="fill:rgb(0%,0%,54.509804%);fill-opacity:1;">
  <use xlink:href="#glyph0-1" x="121.632813" y="239.867188"/>
  <use xlink:href="#glyph0-1" x="127.632813" y="239.867188"/>
</g>
<g style="fill:rgb(0%,0%,54.509804%);fill-opacity:1;">
  <use xlink:href="#glyph0-1" x="390.398438" y="399.050781"/>
  <use xlink:href="#glyph0-2" x="396.398438" y="399.050781"/>
</g>
<g style="fill:rgb(0%,0%,54.509804%);fill-opacity:1;">
  <use xlink:href="#glyph0-1" x="295.621094" y="224.085938"/>
  <use xlink:href="#glyph0-3" x="301.621094" y="224.085938"/>
</g>
<g style="fill:rgb(0%,0%,54.509804%);fill-opacity:1;">
  <use xlink:href="#glyph0-1" x="142.375" y="165.695313"/>
  <use xlink:href="#glyph0-4" x="148.375" y="165.695313"/>
</g>
<g style="fill:rgb(0%,0%,54.509804%);fill-opacity:1;">
  <use xlink:href="#glyph0-1" x="385.386719" y="242.082031"/>
  <use xlink:href="#glyph0-5" x="391.386719" y="242.082031"/>
</g>
<g style="fill:rgb(0%,0%,54.509804%);fill-opacity:1;">
  <use xlink:href="#glyph0-1" x="243.847656" y="405.410156"/>
  <use xlink:href="#glyph0-6" x="249.847656" y="405.410156"/>
</g>
<g style="fill:rgb(0%,0%,54.509804%);fill-opacity:1;">
  <use xlink:href="#glyph0-1" x="174.332031" y="74.558594"/>
  <use xlink:href="#glyph0-7" x="180.332031" y="74.558594"/>
</g>
<g style="fill:rgb(0%,0%,54.509804%);fill-opacity:1;">
  <use xlink:href="#glyph0-1" x="239.011719" y="117.921875"/>
  <use xlink:href="#glyph0-8" x="245.011719" y="117.921875"/>
</g>
<g style="fill:rgb(0%,0%,54.509804%);fill-opacity:1;">
  <use xlink:href="#glyph0-1" x="351.5" y="76.703125"/>
  <use xlink:href="#glyph0-9" x="357.5" y="76.703125"/>
</g>
<g style="fill:rgb(0%,0%,54.509804%);fill-opacity:1;">
  <use xlink:href="#glyph0-2" x="144.535156" y="362.550781"/>
  <use xlink:href="#glyph0-10" x="150.535156" y="362.550781"/>
</g>
</g>
</svg>
