<?xml version="1.0" encoding="UTF-8"?>
<svg xmlns="http://www.w3.org/2000/svg" xmlns:xlink="http://www.w3.org/1999/xlink" width="504pt" height="432pt" viewBox="0 0 504 432" version="1.1">
<g id="surface24">
<rect x="0" y="0" width="504" height="432" style="fill:rgb(100%,100%,100%);fill-opacity:1;stroke:none;"/>
<path style="fill:none;stroke-width:0.75;stroke-linecap:round;stroke-linejoin:round;stroke:rgb(0%,0%,0%);stroke-opacity:1;stroke-miterlimit:10;" d="M 22.035156 415.332031 C 22.035156 418.933594 16.632813 418.933594 16.632813 415.332031 C 16.632813 411.734375 22.035156 411.734375 22.035156 415.332031 "/>
<path style="fill:none;stroke-width:0.75;stroke-linecap:round;stroke-linejoin:round;stroke:rgb(0%,0%,0%);stroke-opacity:1;stroke-miterlimit:10;" d="M 47.886719 415.332031 C 47.886719 418.933594 42.484375 418.933594 42.484375 415.332031 C 42.484375 411.734375 47.886719 411.734375 47.886719 415.332031 "/>
<path style="fill:none;stroke-width:0.75;stroke-linecap:round;stroke-linejoin:round;stroke:rgb(0%,0%,0%);stroke-opacity:1;stroke-miterlimit:10;" d="M 73.738281 415.332031 C 73.738281 418.929688 68.335938 418.929688 68.335938 415.332031 C 68.335938 411.730469 73.738281 411.730469 73.738281 415.332031 "/>
<path style="fill:none;stroke-width:0.75;stroke-linecap:round;stroke-linejoin:round;stroke:rgb(0%,0%,0%);stroke-opacity:1;stroke-miterlimit:10;" d="M 99.589844 415.320313 C 99.589844 418.917969 94.1875 418.917969 94.1875 415.320313 C 94.1875 411.71875 99.589844 411.71875 99.589844 415.320313 "/>
<path style="fill:none;stroke-width:0.75;stroke-linecap:round;stroke-linejoin:round;stroke:rgb(0%,0%,0%);stroke-opacity:1;stroke-miterlimit:10;" d="M 125.441406 415.289063 C 125.441406 418.890625 120.039063 418.890625 120.039063 415.289063 C 120.039063 411.6875 125.441406 411.6875 125.441406 415.289063 "/>
<path style="fill:none;stroke-width:0.75;stroke-linecap:round;stroke-linejoin:round;stroke:rgb(0%,0%,0%);stroke-opacity:1;stroke-miterlimit:10;" d="M 151.292969 415.199219 C 151.292969 418.800781 145.894531 418.800781 145.894531 415.199219 C 145.894531 411.601563 151.292969 411.601563 151.292969 415.199219 "/>
<path style="fill:none;stroke-width:0.75;stroke-linecap:round;stroke-linejoin:round;stroke:rgb(0%,0%,0%);stroke-opacity:1;stroke-miterlimit:10;" d="M 177.144531 414.960938 C 177.144531 418.5625 171.746094 418.5625 171.746094 414.960938 C 171.746094 411.363281 177.144531 411.363281 177.144531 414.960938 "/>
<path style="fill:none;stroke-width:0.75;stroke-linecap:round;stroke-linejoin:round;stroke:rgb(0%,0%,0%);stroke-opacity:1;stroke-miterlimit:10;" d="M 202.996094 414.417969 C 202.996094 418.019531 197.597656 418.019531 197.597656 414.417969 C 197.597656 410.820313 202.996094 410.820313 202.996094 414.417969 "/>
<path style="fill:none;stroke-width:0.75;stroke-linecap:round;stroke-linejoin:round;stroke:rgb(0%,0%,0%);stroke-opacity:1;stroke-miterlimit:10;" d="M 228.847656 413.257813 C 228.847656 416.855469 223.449219 416.855469 223.449219 413.257813 C 223.449219 409.65625 228.847656 409.65625 228.847656 413.257813 "/>
<path style="fill:none;stroke-width:0.75;stroke-linecap:round;stroke-linejoin:round;stroke:rgb(0%,0%,0%);stroke-opacity:1;stroke-miterlimit:10;" d="M 254.699219 410.980469 C 254.699219 414.582031 249.300781 414.582031 249.300781 410.980469 C 249.300781 407.378906 254.699219 407.378906 254.699219 410.980469 "/>
<path style="fill:none;stroke-width:0.75;stroke-linecap:round;stroke-linejoin:round;stroke:rgb(0%,0%,0%);stroke-opacity:1;stroke-miterlimit:10;" d="M 280.550781 406.777344 C 280.550781 410.375 275.152344 410.375 275.152344 406.777344 C 275.152344 403.175781 280.550781 403.175781 280.550781 406.777344 "/>
<path style="fill:none;stroke-width:0.75;stroke-linecap:round;stroke-linejoin:round;stroke:rgb(0%,0%,0%);stroke-opacity:1;stroke-miterlimit:10;" d="M 306.402344 399.457031 C 306.402344 403.054688 301.003906 403.054688 301.003906 399.457031 C 301.003906 395.855469 306.402344 395.855469 306.402344 399.457031 "/>
<path style="fill:none;stroke-width:0.75;stroke-linecap:round;stroke-linejoin:round;stroke:rgb(0%,0%,0%);stroke-opacity:1;stroke-miterlimit:10;" d="M 332.253906 387.140625 C 332.253906 390.738281 326.855469 390.738281 326.855469 387.140625 C 326.855469 383.539063 332.253906 383.539063 332.253906 387.140625 "/>
<path style="fill:none;stroke-width:0.75;stroke-linecap:round;stroke-linejoin:round;stroke:rgb(0%,0%,0%);stroke-opacity:1;stroke-miterlimit:10;" d="M 358.105469 367.847656 C 358.105469 371.449219 352.707031 371.449219 352.707031 367.847656 C 352.707031 364.25 358.105469 364.25 358.105469 367.847656 "/>
<path style="fill:none;stroke-width:0.75;stroke-linecap:round;stroke-linejoin:round;stroke:rgb(0%,0%,0%);stroke-opacity:1;stroke-miterlimit:10;" d="M 383.960938 337.675781 C 383.960938 341.277344 378.558594 341.277344 378.558594 337.675781 C 378.558594 334.078125 383.960938 334.078125 383.960938 337.675781 "/>
<path style="fill:none;stroke-width:0.75;stroke-linecap:round;stroke-linejoin:round;stroke:rgb(0%,0%,0%);stroke-opacity:1;stroke-miterlimit:10;" d="M 409.8125 293.160156 C 409.8125 296.761719 404.410156 296.761719 404.410156 293.160156 C 404.410156 289.5625 409.8125 289.5625 409.8125 293.160156 "/>
<path style="fill:none;stroke-width:0.75;stroke-linecap:round;stroke-linejoin:round;stroke:rgb(0%,0%,0%);stroke-opacity:1;stroke-miterlimit:10;" d="M 435.664063 229.355469 C 435.664063 232.953125 430.261719 232.953125 430.261719 229.355469 C 430.261719 225.753906 435.664063 225.753906 435.664063 229.355469 "/>
<path style="fill:none;stroke-width:0.75;stroke-linecap:round;stroke-linejoin:round;stroke:rgb(0%,0%,0%);stroke-opacity:1;stroke-miterlimit:10;" d="M 461.515625 139.332031 C 461.515625 142.933594 456.113281 142.933594 456.113281 139.332031 C 456.113281 135.734375 461.515625 135.734375 461.515625 139.332031 "/>
<path style="fill:none;stroke-width:0.75;stroke-linecap:round;stroke-linejoin:round;stroke:rgb(0%,0%,0%);stroke-opacity:1;stroke-miterlimit:10;" d="M 487.367188 16.667969 C 487.367188 20.265625 481.964844 20.265625 481.964844 16.667969 C 481.964844 13.066406 487.367188 13.066406 487.367188 16.667969 "/>
<path style="fill:none;stroke-width:0.75;stroke-linecap:round;stroke-linejoin:round;stroke:rgb(0%,0%,0%);stroke-opacity:1;stroke-miterlimit:10;" d="M 19.332031 431.28125 L 471.742188 431.28125 "/>
<path style="fill:none;stroke-width:0.75;stroke-linecap:round;stroke-linejoin:round;stroke:rgb(0%,0%,0%);stroke-opacity:1;stroke-miterlimit:10;" d="M 19.332031 431.28125 L 19.332031 438.480469 "/>
<path style="fill:none;stroke-width:0.75;stroke-linecap:round;stroke-linejoin:round;stroke:rgb(0%,0%,0%);stroke-opacity:1;stroke-miterlimit:10;" d="M 83.964844 431.28125 L 83.964844 438.480469 "/>
<path style="fill:none;stroke-width:0.75;stroke-linecap:round;stroke-linejoin:round;stroke:rgb(0%,0%,0%);stroke-opacity:1;stroke-miterlimit:10;" d="M 148.59375 431.28125 L 148.59375 438.480469 "/>
<path style="fill:none;stroke-width:0.75;stroke-linecap:round;stroke-linejoin:round;stroke:rgb(0%,0%,0%);stroke-opacity:1;stroke-miterlimit:10;" d="M 213.222656 431.28125 L 213.222656 438.480469 "/>
<path style="fill:none;stroke-width:0.75;stroke-linecap:round;stroke-linejoin:round;stroke:rgb(0%,0%,0%);stroke-opacity:1;stroke-miterlimit:10;" d="M 277.851563 431.28125 L 277.851563 438.480469 "/>
<path style="fill:none;stroke-width:0.75;stroke-linecap:round;stroke-linejoin:round;stroke:rgb(0%,0%,0%);stroke-opacity:1;stroke-miterlimit:10;" d="M 342.480469 431.28125 L 342.480469 438.480469 "/>
<path style="fill:none;stroke-width:0.75;stroke-linecap:round;stroke-linejoin:round;stroke:rgb(0%,0%,0%);stroke-opacity:1;stroke-miterlimit:10;" d="M 407.109375 431.28125 L 407.109375 438.480469 "/>
<path style="fill:none;stroke-width:0.75;stroke-linecap:round;stroke-linejoin:round;stroke:rgb(0%,0%,0%);stroke-opacity:1;stroke-miterlimit:10;" d="M 471.742188 431.28125 L 471.742188 438.480469 "/>
<path style="fill:none;stroke-width:0.75;stroke-linecap:round;stroke-linejoin:round;stroke:rgb(0%,0%,0%);stroke-opacity:1;stroke-miterlimit:10;" d="M 0.71875 415.332031 L 0.71875 19.632813 "/>
<path style="fill:none;stroke-width:0.75;stroke-linecap:round;stroke-linejoin:round;stroke:rgb(0%,0%,0%);stroke-opacity:1;stroke-miterlimit:10;" d="M 0.71875 415.332031 L -6.480469 415.332031 "/>
<path style="fill:none;stroke-width:0.75;stroke-linecap:round;stroke-linejoin:round;stroke:rgb(0%,0%,0%);stroke-opacity:1;stroke-miterlimit:10;" d="M 0.71875 316.410156 L -6.480469 316.410156 "/>
<path style="fill:none;stroke-width:0.75;stroke-linecap:round;stroke-linejoin:round;stroke:rgb(0%,0%,0%);stroke-opacity:1;stroke-miterlimit:10;" d="M 0.71875 217.484375 L -6.480469 217.484375 "/>
<path style="fill:none;stroke-width:0.75;stroke-linecap:round;stroke-linejoin:round;stroke:rgb(0%,0%,0%);stroke-opacity:1;stroke-miterlimit:10;" d="M 0.71875 118.558594 L -6.480469 118.558594 "/>
<path style="fill:none;stroke-width:0.75;stroke-linecap:round;stroke-linejoin:round;stroke:rgb(0%,0%,0%);stroke-opacity:1;stroke-miterlimit:10;" d="M 0.71875 19.632813 L -6.480469 19.632813 "/>
<path style="fill:none;stroke-width:0.75;stroke-linecap:round;stroke-linejoin:round;stroke:rgb(0%,0%,0%);stroke-opacity:1;stroke-miterlimit:10;" d="M 0.71875 431.28125 L 503.28125 431.28125 L 503.28125 0.71875 L 0.71875 0.71875 Z M 0.71875 431.28125 "/>
</g>
</svg>
