<?xml version="1.0" encoding="UTF-8"?>
<svg xmlns="http://www.w3.org/2000/svg" xmlns:xlink="http://www.w3.org/1999/xlink" width="504" height="432" viewBox="0 0 504 432">
<defs>
<g>
<g id="glyph-0-0">
<path d="M 0.5 -4.234375 C 0.5 -5.25 0.601562 -6.070312 0.8125 -6.6875 C 1.019531 -7.308594 1.332031 -7.785156 1.742188 -8.121094 C 2.15625 -8.457031 2.671875 -8.625 3.296875 -8.625 C 3.757812 -8.625 4.164062 -8.53125 4.511719 -8.347656 C 4.859375 -8.160156 5.144531 -7.894531 5.375 -7.542969 C 5.597656 -7.195312 5.777344 -6.769531 5.90625 -6.265625 C 6.035156 -5.765625 6.101562 -5.085938 6.101562 -4.234375 C 6.101562 -3.226562 5.996094 -2.414062 5.789062 -1.796875 C 5.582031 -1.175781 5.273438 -0.699219 4.859375 -0.359375 C 4.449219 -0.0234375 3.925781 0.148438 3.296875 0.148438 C 2.46875 0.148438 1.820312 -0.152344 1.347656 -0.742188 C 0.78125 -1.460938 0.5 -2.621094 0.5 -4.234375 M 1.582031 -4.234375 C 1.582031 -2.824219 1.746094 -1.886719 2.078125 -1.421875 C 2.40625 -0.953125 2.8125 -0.71875 3.296875 -0.71875 C 3.78125 -0.71875 4.191406 -0.953125 4.519531 -1.421875 C 4.851562 -1.890625 5.015625 -2.828125 5.015625 -4.234375 C 5.015625 -5.648438 4.851562 -6.589844 4.519531 -7.054688 C 4.191406 -7.519531 3.78125 -7.75 3.289062 -7.75 C 2.800781 -7.75 2.414062 -7.546875 2.125 -7.136719 C 1.765625 -6.613281 1.582031 -5.644531 1.582031 -4.234375 Z M 1.582031 -4.234375 "/>
</g>
<g id="glyph-0-1">
<path d="M 0.5 -2.25 L 1.605469 -2.34375 C 1.6875 -1.804688 1.878906 -1.398438 2.175781 -1.128906 C 2.476562 -0.855469 2.835938 -0.71875 3.257812 -0.71875 C 3.765625 -0.71875 4.195312 -0.910156 4.546875 -1.296875 C 4.898438 -1.675781 5.074219 -2.1875 5.074219 -2.820312 C 5.074219 -3.417969 4.90625 -3.894531 4.566406 -4.242188 C 4.230469 -4.589844 3.785156 -4.761719 3.242188 -4.765625 C 2.898438 -4.761719 2.59375 -4.6875 2.320312 -4.53125 C 2.046875 -4.378906 1.832031 -4.179688 1.675781 -3.929688 L 0.6875 -4.0625 L 1.515625 -8.472656 L 5.789062 -8.472656 L 5.789062 -7.464844 L 2.359375 -7.464844 L 1.898438 -5.15625 C 2.414062 -5.515625 2.953125 -5.695312 3.523438 -5.695312 C 4.273438 -5.695312 4.90625 -5.433594 5.421875 -4.914062 C 5.9375 -4.394531 6.195312 -3.726562 6.195312 -2.914062 C 6.195312 -2.132812 5.964844 -1.460938 5.515625 -0.898438 C 4.960938 -0.203125 4.210938 0.148438 3.257812 0.148438 C 2.476562 0.148438 1.839844 -0.0742188 1.34375 -0.507812 C 0.851562 -0.945312 0.570312 -1.527344 0.5 -2.25 Z M 0.5 -2.25 "/>
</g>
<g id="glyph-0-2">
<path d="M 4.46875 0 L 3.414062 0 L 3.414062 -6.71875 C 3.160156 -6.476562 2.828125 -6.234375 2.417969 -5.992188 C 2.003906 -5.75 1.632812 -5.570312 1.304688 -5.449219 L 1.304688 -6.46875 C 1.894531 -6.746094 2.410156 -7.082031 2.851562 -7.476562 C 3.292969 -7.871094 3.605469 -8.253906 3.789062 -8.625 L 4.46875 -8.625 Z M 4.46875 0 "/>
</g>
<g id="glyph-0-3">
<path d="M 0.914062 0 L 0.914062 -8.589844 L 2.078125 -8.589844 L 6.59375 -1.84375 L 6.59375 -8.589844 L 7.679688 -8.589844 L 7.679688 0 L 6.515625 0 L 2.003906 -6.75 L 2.003906 0 Z M 0.914062 0 "/>
</g>
<g id="glyph-0-4">
</g>
<g id="glyph-0-5">
<path d="M 6.339844 -5.050781 L 0.667969 -5.050781 L 0.667969 -6.035156 L 6.339844 -6.035156 L 6.339844 -5.050781 M 6.339844 -2.445312 L 0.667969 -2.445312 L 0.667969 -3.429688 L 6.339844 -3.429688 Z M 6.339844 -2.445312 "/>
</g>
<g id="glyph-0-6">
<path d="M 0.65625 -1.984375 L 1.671875 -2.078125 C 1.753906 -1.601562 1.917969 -1.257812 2.164062 -1.042969 C 2.402344 -0.828125 2.714844 -0.71875 3.09375 -0.71875 C 3.417969 -0.71875 3.703125 -0.792969 3.945312 -0.945312 C 4.191406 -1.089844 4.390625 -1.289062 4.546875 -1.539062 C 4.703125 -1.785156 4.832031 -2.121094 4.9375 -2.542969 C 5.042969 -2.964844 5.097656 -3.394531 5.097656 -3.832031 C 5.097656 -3.878906 5.09375 -3.949219 5.09375 -4.042969 C 4.882812 -3.707031 4.59375 -3.433594 4.226562 -3.226562 C 3.863281 -3.015625 3.464844 -2.914062 3.039062 -2.914062 C 2.328125 -2.914062 1.726562 -3.171875 1.234375 -3.6875 C 0.742188 -4.203125 0.5 -4.882812 0.5 -5.726562 C 0.5 -6.59375 0.753906 -7.296875 1.269531 -7.828125 C 1.78125 -8.359375 2.425781 -8.625 3.199219 -8.625 C 3.757812 -8.625 4.269531 -8.472656 4.730469 -8.171875 C 5.195312 -7.871094 5.546875 -7.445312 5.785156 -6.886719 C 6.027344 -6.332031 6.148438 -5.523438 6.148438 -4.46875 C 6.148438 -3.371094 6.027344 -2.5 5.789062 -1.847656 C 5.550781 -1.199219 5.195312 -0.703125 4.726562 -0.363281 C 4.253906 -0.0234375 3.703125 0.148438 3.070312 0.148438 C 2.398438 0.148438 1.847656 -0.0390625 1.421875 -0.414062 C 0.996094 -0.785156 0.742188 -1.308594 0.65625 -1.984375 M 4.976562 -5.777344 C 4.972656 -6.382812 4.8125 -6.863281 4.492188 -7.21875 C 4.167969 -7.574219 3.78125 -7.75 3.328125 -7.75 C 2.859375 -7.75 2.449219 -7.558594 2.101562 -7.179688 C 1.753906 -6.792969 1.582031 -6.296875 1.582031 -5.6875 C 1.582031 -5.140625 1.746094 -4.699219 2.078125 -4.355469 C 2.40625 -4.015625 2.8125 -3.84375 3.296875 -3.84375 C 3.785156 -3.84375 4.1875 -4.015625 4.503906 -4.355469 C 4.816406 -4.699219 4.972656 -5.171875 4.976562 -5.777344 Z M 4.976562 -5.777344 "/>
</g>
<g id="glyph-0-7">
<path d="M 0.878906 0 L 0.878906 -8.589844 L 4.101562 -8.589844 C 4.757812 -8.589844 5.285156 -8.503906 5.679688 -8.328125 C 6.078125 -8.15625 6.386719 -7.886719 6.613281 -7.527344 C 6.835938 -7.164062 6.949219 -6.785156 6.949219 -6.390625 C 6.949219 -6.023438 6.851562 -5.679688 6.648438 -5.355469 C 6.453125 -5.03125 6.148438 -4.769531 5.75 -4.570312 C 6.265625 -4.417969 6.667969 -4.15625 6.945312 -3.789062 C 7.226562 -3.421875 7.367188 -2.988281 7.367188 -2.492188 C 7.367188 -2.085938 7.28125 -1.714844 7.109375 -1.367188 C 6.941406 -1.023438 6.730469 -0.757812 6.480469 -0.570312 C 6.230469 -0.382812 5.917969 -0.238281 5.539062 -0.144531 C 5.164062 -0.046875 4.699219 0 4.15625 0 L 0.878906 0 M 2.015625 -4.980469 L 3.875 -4.980469 C 4.375 -4.980469 4.738281 -5.011719 4.957031 -5.078125 C 5.246094 -5.164062 5.464844 -5.308594 5.609375 -5.507812 C 5.757812 -5.707031 5.828125 -5.957031 5.828125 -6.257812 C 5.828125 -6.542969 5.761719 -6.792969 5.625 -7.011719 C 5.488281 -7.226562 5.292969 -7.375 5.039062 -7.457031 C 4.785156 -7.535156 4.347656 -7.578125 3.734375 -7.578125 L 2.015625 -7.578125 L 2.015625 -4.980469 M 2.015625 -1.015625 L 4.15625 -1.015625 C 4.519531 -1.015625 4.777344 -1.027344 4.929688 -1.054688 C 5.1875 -1.101562 5.40625 -1.179688 5.585938 -1.289062 C 5.757812 -1.398438 5.902344 -1.558594 6.015625 -1.765625 C 6.128906 -1.976562 6.1875 -2.214844 6.1875 -2.492188 C 6.1875 -2.808594 6.105469 -3.089844 5.941406 -3.324219 C 5.777344 -3.5625 5.550781 -3.726562 5.257812 -3.824219 C 4.96875 -3.917969 4.546875 -3.96875 4 -3.96875 L 2.015625 -3.96875 Z M 2.015625 -1.015625 "/>
</g>
<g id="glyph-0-8">
<path d="M 4.851562 -0.765625 C 4.460938 -0.433594 4.085938 -0.199219 3.722656 -0.0625 C 3.363281 0.0703125 2.972656 0.140625 2.5625 0.140625 C 1.875 0.140625 1.351562 -0.0273438 0.984375 -0.359375 C 0.617188 -0.695312 0.433594 -1.121094 0.433594 -1.640625 C 0.433594 -1.945312 0.503906 -2.222656 0.640625 -2.476562 C 0.78125 -2.726562 0.960938 -2.929688 1.1875 -3.082031 C 1.410156 -3.234375 1.664062 -3.347656 1.945312 -3.429688 C 2.152344 -3.480469 2.464844 -3.535156 2.882812 -3.585938 C 3.734375 -3.6875 4.359375 -3.808594 4.765625 -3.949219 C 4.765625 -4.09375 4.769531 -4.183594 4.769531 -4.226562 C 4.769531 -4.652344 4.671875 -4.957031 4.46875 -5.132812 C 4.203125 -5.371094 3.800781 -5.492188 3.269531 -5.492188 C 2.773438 -5.492188 2.40625 -5.402344 2.171875 -5.230469 C 1.933594 -5.054688 1.757812 -4.746094 1.648438 -4.304688 L 0.617188 -4.445312 C 0.707031 -4.886719 0.863281 -5.246094 1.078125 -5.515625 C 1.292969 -5.789062 1.601562 -5.996094 2.007812 -6.144531 C 2.414062 -6.289062 2.886719 -6.363281 3.421875 -6.363281 C 3.953125 -6.363281 4.382812 -6.300781 4.71875 -6.175781 C 5.046875 -6.050781 5.292969 -5.894531 5.449219 -5.703125 C 5.605469 -5.515625 5.714844 -5.273438 5.777344 -4.984375 C 5.8125 -4.804688 5.828125 -4.484375 5.828125 -4.015625 L 5.828125 -2.609375 C 5.828125 -1.628906 5.851562 -1.007812 5.898438 -0.746094 C 5.941406 -0.488281 6.03125 -0.238281 6.164062 0 L 5.0625 0 C 4.953125 -0.21875 4.882812 -0.476562 4.851562 -0.765625 M 4.765625 -3.125 C 4.378906 -2.964844 3.804688 -2.832031 3.039062 -2.726562 C 2.605469 -2.660156 2.300781 -2.589844 2.121094 -2.515625 C 1.941406 -2.433594 1.800781 -2.320312 1.703125 -2.171875 C 1.605469 -2.019531 1.558594 -1.851562 1.558594 -1.671875 C 1.558594 -1.386719 1.664062 -1.152344 1.878906 -0.96875 C 2.089844 -0.78125 2.402344 -0.683594 2.8125 -0.6875 C 3.21875 -0.683594 3.578125 -0.773438 3.898438 -0.953125 C 4.210938 -1.128906 4.445312 -1.371094 4.59375 -1.679688 C 4.707031 -1.917969 4.761719 -2.269531 4.765625 -2.734375 Z M 4.765625 -3.125 "/>
</g>
<g id="glyph-0-9">
<path d="M 0.789062 0 L 0.789062 -6.222656 L 1.742188 -6.222656 L 1.742188 -5.335938 C 2.195312 -6.019531 2.855469 -6.363281 3.71875 -6.363281 C 4.09375 -6.363281 4.441406 -6.296875 4.753906 -6.160156 C 5.070312 -6.027344 5.304688 -5.847656 5.460938 -5.632812 C 5.617188 -5.410156 5.726562 -5.152344 5.789062 -4.851562 C 5.828125 -4.65625 5.847656 -4.3125 5.847656 -3.828125 L 5.847656 0 L 4.792969 0 L 4.792969 -3.785156 C 4.792969 -4.214844 4.75 -4.535156 4.671875 -4.75 C 4.585938 -4.960938 4.441406 -5.132812 4.234375 -5.257812 C 4.023438 -5.386719 3.78125 -5.449219 3.5 -5.449219 C 3.046875 -5.449219 2.660156 -5.304688 2.335938 -5.023438 C 2.007812 -4.734375 1.84375 -4.195312 1.84375 -3.398438 L 1.84375 0 Z M 0.789062 0 "/>
</g>
<g id="glyph-0-10">
<path d="M 4.828125 0 L 4.828125 -0.785156 C 4.433594 -0.167969 3.851562 0.140625 3.085938 0.140625 C 2.589844 0.140625 2.136719 0.00390625 1.71875 -0.269531 C 1.304688 -0.542969 0.980469 -0.925781 0.753906 -1.414062 C 0.523438 -1.90625 0.410156 -2.46875 0.410156 -3.105469 C 0.410156 -3.726562 0.511719 -4.289062 0.71875 -4.796875 C 0.925781 -5.300781 1.238281 -5.6875 1.652344 -5.960938 C 2.066406 -6.226562 2.527344 -6.363281 3.039062 -6.363281 C 3.414062 -6.363281 3.75 -6.285156 4.042969 -6.125 C 4.335938 -5.96875 4.574219 -5.761719 4.757812 -5.507812 L 4.757812 -8.589844 L 5.804688 -8.589844 L 5.804688 0 L 4.828125 0 M 1.492188 -3.105469 C 1.492188 -2.308594 1.660156 -1.710938 2 -1.320312 C 2.332031 -0.921875 2.730469 -0.726562 3.1875 -0.726562 C 3.648438 -0.726562 4.039062 -0.914062 4.363281 -1.292969 C 4.683594 -1.667969 4.84375 -2.242188 4.84375 -3.015625 C 4.84375 -3.867188 4.679688 -4.492188 4.351562 -4.890625 C 4.023438 -5.289062 3.621094 -5.492188 3.140625 -5.492188 C 2.671875 -5.492188 2.28125 -5.296875 1.964844 -4.914062 C 1.652344 -4.53125 1.492188 -3.929688 1.492188 -3.105469 Z M 1.492188 -3.105469 "/>
</g>
<g id="glyph-0-11">
<path d="M 1.9375 0 L 0.0351562 -6.222656 L 1.125 -6.222656 L 2.117188 -2.632812 L 2.484375 -1.296875 C 2.5 -1.359375 2.609375 -1.789062 2.804688 -2.578125 L 3.796875 -6.222656 L 4.882812 -6.222656 L 5.8125 -2.613281 L 6.125 -1.421875 L 6.480469 -2.625 L 7.546875 -6.222656 L 8.570312 -6.222656 L 6.625 0 L 5.53125 0 L 4.539062 -3.726562 L 4.300781 -4.789062 L 3.039062 0 Z M 1.9375 0 "/>
</g>
<g id="glyph-0-12">
<path d="M 0.796875 -7.375 L 0.796875 -8.589844 L 1.851562 -8.589844 L 1.851562 -7.375 L 0.796875 -7.375 M 0.796875 0 L 0.796875 -6.222656 L 1.851562 -6.222656 L 1.851562 0 Z M 0.796875 0 "/>
</g>
<g id="glyph-0-13">
<path d="M 3.09375 -0.945312 L 3.246094 -0.0117188 C 2.949219 0.0507812 2.683594 0.0820312 2.449219 0.0820312 C 2.066406 0.0820312 1.769531 0.0195312 1.558594 -0.101562 C 1.347656 -0.21875 1.199219 -0.378906 1.113281 -0.578125 C 1.027344 -0.773438 0.984375 -1.1875 0.984375 -1.820312 L 0.984375 -5.402344 L 0.210938 -5.402344 L 0.210938 -6.222656 L 0.984375 -6.222656 L 0.984375 -7.765625 L 2.03125 -8.398438 L 2.03125 -6.222656 L 3.09375 -6.222656 L 3.09375 -5.402344 L 2.03125 -5.402344 L 2.03125 -1.765625 C 2.03125 -1.460938 2.050781 -1.269531 2.089844 -1.183594 C 2.125 -1.097656 2.1875 -1.027344 2.269531 -0.976562 C 2.355469 -0.925781 2.472656 -0.902344 2.632812 -0.902344 C 2.75 -0.902344 2.902344 -0.914062 3.09375 -0.945312 Z M 3.09375 -0.945312 "/>
</g>
<g id="glyph-0-14">
<path d="M 0.789062 0 L 0.789062 -8.589844 L 1.84375 -8.589844 L 1.84375 -5.507812 C 2.335938 -6.078125 2.957031 -6.363281 3.710938 -6.363281 C 4.167969 -6.363281 4.570312 -6.273438 4.910156 -6.089844 C 5.25 -5.910156 5.492188 -5.65625 5.640625 -5.335938 C 5.785156 -5.015625 5.859375 -4.554688 5.859375 -3.945312 L 5.859375 0 L 4.804688 0 L 4.804688 -3.945312 C 4.804688 -4.46875 4.691406 -4.855469 4.460938 -5.09375 C 4.234375 -5.335938 3.910156 -5.453125 3.492188 -5.453125 C 3.179688 -5.453125 2.886719 -5.375 2.609375 -5.210938 C 2.335938 -5.050781 2.140625 -4.828125 2.023438 -4.554688 C 1.90625 -4.273438 1.84375 -3.890625 1.84375 -3.40625 L 1.84375 0 Z M 0.789062 0 "/>
</g>
<g id="glyph-0-15">
<path d="M 1.089844 0 L 1.089844 -1.203125 L 2.289062 -1.203125 L 2.289062 0 Z M 1.089844 0 "/>
</g>
<g id="glyph-1-0">
<path d="M -4.234375 -0.5 C -5.25 -0.5 -6.070312 -0.601562 -6.6875 -0.8125 C -7.308594 -1.019531 -7.785156 -1.332031 -8.121094 -1.742188 C -8.457031 -2.15625 -8.625 -2.671875 -8.625 -3.300781 C -8.625 -3.757812 -8.53125 -4.164062 -8.347656 -4.511719 C -8.160156 -4.859375 -7.894531 -5.144531 -7.542969 -5.375 C -7.195312 -5.597656 -6.769531 -5.777344 -6.265625 -5.90625 C -5.765625 -6.035156 -5.085938 -6.101562 -4.234375 -6.101562 C -3.226562 -6.101562 -2.414062 -5.996094 -1.796875 -5.789062 C -1.175781 -5.582031 -0.699219 -5.273438 -0.359375 -4.859375 C -0.0234375 -4.449219 0.148438 -3.925781 0.148438 -3.296875 C 0.148438 -2.46875 -0.152344 -1.820312 -0.742188 -1.347656 C -1.460938 -0.78125 -2.621094 -0.5 -4.234375 -0.5 M -4.234375 -1.582031 C -2.824219 -1.582031 -1.886719 -1.746094 -1.421875 -2.078125 C -0.953125 -2.40625 -0.71875 -2.8125 -0.71875 -3.296875 C -0.71875 -3.78125 -0.953125 -4.191406 -1.421875 -4.519531 C -1.890625 -4.851562 -2.828125 -5.015625 -4.234375 -5.015625 C -5.648438 -5.015625 -6.589844 -4.851562 -7.054688 -4.519531 C -7.519531 -4.191406 -7.75 -3.78125 -7.75 -3.289062 C -7.75 -2.800781 -7.546875 -2.414062 -7.136719 -2.128906 C -6.613281 -1.765625 -5.644531 -1.582031 -4.234375 -1.582031 Z M -4.234375 -1.582031 "/>
</g>
<g id="glyph-1-1">
<path d="M 0 -1.089844 L -1.203125 -1.089844 L -1.199219 -2.289062 L 0 -2.289062 Z M 0 -1.089844 "/>
</g>
<g id="glyph-1-2">
<path d="M -2.25 -0.5 L -2.34375 -1.605469 C -1.804688 -1.6875 -1.398438 -1.878906 -1.128906 -2.175781 C -0.855469 -2.476562 -0.71875 -2.835938 -0.71875 -3.257812 C -0.71875 -3.765625 -0.910156 -4.195312 -1.292969 -4.546875 C -1.675781 -4.898438 -2.183594 -5.074219 -2.816406 -5.074219 C -3.417969 -5.074219 -3.894531 -4.90625 -4.242188 -4.566406 C -4.589844 -4.230469 -4.761719 -3.785156 -4.765625 -3.242188 C -4.761719 -2.902344 -4.6875 -2.59375 -4.53125 -2.320312 C -4.378906 -2.046875 -4.179688 -1.832031 -3.929688 -1.675781 L -4.0625 -0.6875 L -8.472656 -1.519531 L -8.472656 -5.789062 L -7.464844 -5.789062 L -7.464844 -2.363281 L -5.15625 -1.898438 C -5.515625 -2.414062 -5.695312 -2.953125 -5.695312 -3.523438 C -5.695312 -4.273438 -5.433594 -4.90625 -4.914062 -5.421875 C -4.394531 -5.9375 -3.726562 -6.195312 -2.910156 -6.195312 C -2.132812 -6.195312 -1.460938 -5.964844 -0.894531 -5.515625 C -0.203125 -4.960938 0.148438 -4.210938 0.148438 -3.257812 C 0.148438 -2.476562 -0.0742188 -1.839844 -0.507812 -1.34375 C -0.945312 -0.851562 -1.527344 -0.570312 -2.25 -0.5 Z M -2.25 -0.5 "/>
</g>
<g id="glyph-1-3">
<path d="M 0 -4.46875 L 0 -3.414062 L -6.71875 -3.417969 C -6.476562 -3.160156 -6.234375 -2.828125 -5.992188 -2.417969 C -5.75 -2.003906 -5.570312 -1.636719 -5.449219 -1.308594 L -6.46875 -1.308594 C -6.746094 -1.894531 -7.082031 -2.410156 -7.476562 -2.855469 C -7.871094 -3.292969 -8.253906 -3.605469 -8.625 -3.792969 L -8.625 -4.472656 Z M 0 -4.46875 "/>
</g>
<g id="glyph-1-4">
<path d="M 0 -0.925781 L -8.589844 -0.925781 L -8.589844 -3.886719 C -8.589844 -4.550781 -8.546875 -5.0625 -8.46875 -5.414062 C -8.351562 -5.90625 -8.148438 -6.324219 -7.851562 -6.675781 C -7.46875 -7.125 -6.980469 -7.464844 -6.382812 -7.691406 C -5.789062 -7.914062 -5.105469 -8.027344 -4.339844 -8.027344 C -3.6875 -8.027344 -3.109375 -7.953125 -2.605469 -7.796875 C -2.101562 -7.648438 -1.6875 -7.449219 -1.355469 -7.210938 C -1.027344 -6.972656 -0.765625 -6.714844 -0.578125 -6.429688 C -0.386719 -6.148438 -0.242188 -5.804688 -0.144531 -5.40625 C -0.0507812 -5.003906 0 -4.542969 0 -4.023438 L 0 -0.925781 M -1.011719 -2.0625 L -1.011719 -3.898438 C -1.011719 -4.460938 -1.066406 -4.90625 -1.171875 -5.230469 C -1.277344 -5.550781 -1.425781 -5.808594 -1.617188 -6 C -1.886719 -6.269531 -2.25 -6.480469 -2.703125 -6.628906 C -3.160156 -6.78125 -3.710938 -6.855469 -4.359375 -6.855469 C -5.257812 -6.855469 -5.949219 -6.707031 -6.429688 -6.414062 C -6.914062 -6.117188 -7.234375 -5.757812 -7.398438 -5.339844 C -7.515625 -5.035156 -7.578125 -4.542969 -7.578125 -3.867188 L -7.578125 -2.0625 Z M -1.011719 -2.0625 "/>
</g>
<g id="glyph-1-5">
<path d="M -2.003906 -5.050781 L -1.867188 -6.140625 C -1.230469 -5.96875 -0.738281 -5.648438 -0.386719 -5.1875 C -0.0351562 -4.71875 0.140625 -4.125 0.140625 -3.40625 C 0.140625 -2.492188 -0.140625 -1.773438 -0.699219 -1.238281 C -1.261719 -0.707031 -2.046875 -0.441406 -3.058594 -0.441406 C -4.105469 -0.441406 -4.917969 -0.710938 -5.496094 -1.25 C -6.074219 -1.789062 -6.363281 -2.484375 -6.363281 -3.347656 C -6.363281 -4.179688 -6.078125 -4.859375 -5.515625 -5.382812 C -4.945312 -5.914062 -4.148438 -6.175781 -3.121094 -6.175781 C -3.058594 -6.175781 -2.964844 -6.171875 -2.839844 -6.171875 L -2.84375 -1.53125 C -2.15625 -1.566406 -1.632812 -1.761719 -1.269531 -2.109375 C -0.90625 -2.457031 -0.726562 -2.890625 -0.726562 -3.410156 C -0.726562 -3.796875 -0.828125 -4.125 -1.03125 -4.398438 C -1.234375 -4.671875 -1.558594 -4.890625 -2.003906 -5.050781 M -3.710938 -1.589844 L -3.707031 -5.0625 C -4.230469 -5.015625 -4.625 -4.882812 -4.886719 -4.664062 C -5.292969 -4.328125 -5.496094 -3.890625 -5.496094 -3.359375 C -5.496094 -2.871094 -5.332031 -2.464844 -5.007812 -2.136719 C -4.683594 -1.804688 -4.25 -1.625 -3.710938 -1.589844 Z M -3.710938 -1.589844 "/>
</g>
<g id="glyph-1-6">
<path d="M 0 -0.789062 L -6.222656 -0.792969 L -6.222656 -1.742188 L -5.335938 -1.742188 C -6.019531 -2.195312 -6.363281 -2.855469 -6.363281 -3.722656 C -6.363281 -4.09375 -6.296875 -4.441406 -6.160156 -4.753906 C -6.027344 -5.070312 -5.847656 -5.304688 -5.632812 -5.460938 C -5.410156 -5.617188 -5.152344 -5.726562 -4.851562 -5.789062 C -4.65625 -5.828125 -4.3125 -5.847656 -3.824219 -5.847656 L 0 -5.847656 L 0 -4.792969 L -3.785156 -4.792969 C -4.214844 -4.792969 -4.535156 -4.75 -4.75 -4.671875 C -4.960938 -4.585938 -5.132812 -4.441406 -5.257812 -4.234375 C -5.386719 -4.023438 -5.449219 -3.78125 -5.449219 -3.5 C -5.449219 -3.046875 -5.304688 -2.660156 -5.023438 -2.335938 C -4.734375 -2.007812 -4.195312 -1.847656 -3.398438 -1.847656 L 0 -1.84375 Z M 0 -0.789062 "/>
</g>
<g id="glyph-1-7">
<path d="M -1.859375 -0.371094 L -2.023438 -1.414062 C -1.601562 -1.46875 -1.28125 -1.632812 -1.058594 -1.902344 C -0.835938 -2.167969 -0.726562 -2.542969 -0.726562 -3.023438 C -0.726562 -3.507812 -0.824219 -3.867188 -1.023438 -4.101562 C -1.21875 -4.335938 -1.449219 -4.453125 -1.714844 -4.453125 C -1.953125 -4.453125 -2.140625 -4.347656 -2.277344 -4.140625 C -2.371094 -3.996094 -2.492188 -3.640625 -2.636719 -3.0625 C -2.832031 -2.289062 -3 -1.753906 -3.144531 -1.457031 C -3.285156 -1.15625 -3.484375 -0.929688 -3.734375 -0.777344 C -3.988281 -0.621094 -4.265625 -0.546875 -4.570312 -0.546875 C -4.847656 -0.546875 -5.105469 -0.609375 -5.339844 -0.734375 C -5.578125 -0.863281 -5.773438 -1.035156 -5.929688 -1.253906 C -6.050781 -1.417969 -6.152344 -1.640625 -6.238281 -1.925781 C -6.320312 -2.207031 -6.363281 -2.511719 -6.363281 -2.835938 C -6.363281 -3.324219 -6.292969 -3.753906 -6.152344 -4.121094 C -6.011719 -4.492188 -5.820312 -4.761719 -5.582031 -4.9375 C -5.339844 -5.113281 -5.019531 -5.234375 -4.617188 -5.304688 L -4.476562 -4.273438 C -4.796875 -4.226562 -5.046875 -4.089844 -5.226562 -3.863281 C -5.40625 -3.640625 -5.496094 -3.324219 -5.496094 -2.914062 C -5.496094 -2.425781 -5.414062 -2.082031 -5.257812 -1.875 C -5.09375 -1.667969 -4.90625 -1.566406 -4.695312 -1.566406 C -4.554688 -1.566406 -4.433594 -1.605469 -4.324219 -1.695312 C -4.210938 -1.777344 -4.117188 -1.914062 -4.042969 -2.097656 C -4.003906 -2.203125 -3.914062 -2.515625 -3.773438 -3.03125 C -3.574219 -3.773438 -3.410156 -4.296875 -3.285156 -4.589844 C -3.15625 -4.886719 -2.972656 -5.117188 -2.730469 -5.285156 C -2.488281 -5.453125 -2.1875 -5.535156 -1.828125 -5.539062 C -1.476562 -5.535156 -1.144531 -5.433594 -0.835938 -5.230469 C -0.523438 -5.023438 -0.285156 -4.726562 -0.113281 -4.34375 C 0.0546875 -3.953125 0.140625 -3.515625 0.140625 -3.03125 C 0.140625 -2.21875 -0.0273438 -1.605469 -0.363281 -1.179688 C -0.699219 -0.757812 -1.199219 -0.488281 -1.859375 -0.371094 Z M -1.859375 -0.371094 "/>
</g>
<g id="glyph-1-8">
<path d="M -7.375 -0.796875 L -8.589844 -0.796875 L -8.589844 -1.851562 L -7.375 -1.851562 L -7.375 -0.796875 M 0 -0.796875 L -6.222656 -0.796875 L -6.222656 -1.851562 L 0 -1.851562 Z M 0 -0.796875 "/>
</g>
<g id="glyph-1-9">
<path d="M -0.941406 -3.09375 L -0.0117188 -3.246094 C 0.0507812 -2.949219 0.0820312 -2.683594 0.0820312 -2.449219 C 0.0820312 -2.066406 0.0195312 -1.769531 -0.0976562 -1.558594 C -0.21875 -1.347656 -0.378906 -1.199219 -0.578125 -1.113281 C -0.773438 -1.027344 -1.1875 -0.984375 -1.820312 -0.984375 L -5.402344 -0.984375 L -5.402344 -0.210938 L -6.222656 -0.210938 L -6.222656 -0.984375 L -7.765625 -0.984375 L -8.398438 -2.035156 L -6.222656 -2.035156 L -6.222656 -3.09375 L -5.402344 -3.09375 L -5.402344 -2.035156 L -1.761719 -2.03125 C -1.460938 -2.03125 -1.269531 -2.050781 -1.183594 -2.089844 C -1.097656 -2.125 -1.027344 -2.1875 -0.976562 -2.269531 C -0.925781 -2.355469 -0.902344 -2.472656 -0.902344 -2.632812 C -0.902344 -2.75 -0.914062 -2.902344 -0.941406 -3.09375 Z M -0.941406 -3.09375 "/>
</g>
<g id="glyph-1-10">
<path d="M 2.398438 -0.742188 L 1.40625 -0.625 C 1.46875 -0.855469 1.5 -1.058594 1.5 -1.230469 C 1.5 -1.464844 1.460938 -1.652344 1.382812 -1.792969 C 1.304688 -1.933594 1.195312 -2.046875 1.054688 -2.140625 C 0.949219 -2.203125 0.6875 -2.3125 0.269531 -2.460938 C 0.210938 -2.480469 0.125 -2.511719 0.0117188 -2.554688 L -6.222656 -0.195312 L -6.222656 -1.332031 L -2.617188 -2.625 C -2.164062 -2.792969 -1.679688 -2.941406 -1.175781 -3.078125 C -1.660156 -3.195312 -2.132812 -3.339844 -2.59375 -3.507812 L -6.222656 -4.839844 L -6.222656 -5.894531 L 0.105469 -3.527344 C 0.789062 -3.273438 1.261719 -3.078125 1.519531 -2.9375 C 1.863281 -2.746094 2.121094 -2.53125 2.28125 -2.289062 C 2.445312 -2.046875 2.523438 -1.757812 2.523438 -1.421875 C 2.523438 -1.21875 2.480469 -0.992188 2.398438 -0.742188 Z M 2.398438 -0.742188 "/>
</g>
<g id="glyph-2-0">
<path d="M 1.054688 -10.308594 L 5.175781 -10.308594 C 5.992188 -10.308594 6.597656 -10.273438 7 -10.207031 C 7.398438 -10.136719 7.757812 -9.996094 8.074219 -9.78125 C 8.390625 -9.566406 8.65625 -9.277344 8.867188 -8.917969 C 9.078125 -8.5625 9.183594 -8.160156 9.183594 -7.714844 C 9.183594 -7.230469 9.050781 -6.789062 8.792969 -6.382812 C 8.53125 -5.980469 8.179688 -5.679688 7.734375 -5.476562 C 8.363281 -5.292969 8.84375 -4.984375 9.183594 -4.542969 C 9.519531 -4.101562 9.6875 -3.582031 9.6875 -2.988281 C 9.6875 -2.519531 9.578125 -2.0625 9.363281 -1.621094 C 9.144531 -1.175781 8.847656 -0.824219 8.46875 -0.558594 C 8.089844 -0.292969 7.625 -0.132812 7.074219 -0.0703125 C 6.726562 -0.03125 5.890625 -0.0078125 4.5625 0 L 1.054688 0 L 1.054688 -10.308594 M 3.136719 -8.59375 L 3.136719 -6.207031 L 4.5 -6.207031 C 5.3125 -6.207031 5.816406 -6.21875 6.011719 -6.242188 C 6.367188 -6.285156 6.648438 -6.410156 6.851562 -6.613281 C 7.054688 -6.816406 7.15625 -7.085938 7.15625 -7.417969 C 7.15625 -7.738281 7.070312 -7.996094 6.894531 -8.195312 C 6.71875 -8.394531 6.457031 -8.515625 6.109375 -8.558594 C 5.902344 -8.582031 5.3125 -8.59375 4.332031 -8.59375 L 3.136719 -8.59375 M 3.136719 -4.492188 L 3.136719 -1.738281 L 5.0625 -1.738281 C 5.8125 -1.738281 6.289062 -1.757812 6.488281 -1.800781 C 6.800781 -1.855469 7.050781 -1.992188 7.246094 -2.210938 C 7.441406 -2.429688 7.539062 -2.722656 7.539062 -3.085938 C 7.539062 -3.394531 7.460938 -3.660156 7.3125 -3.875 C 7.164062 -4.089844 6.945312 -4.246094 6.660156 -4.34375 C 6.378906 -4.445312 5.761719 -4.492188 4.816406 -4.492188 Z M 3.136719 -4.492188 "/>
</g>
<g id="glyph-2-1">
<path d="M 5.359375 -2.375 L 7.328125 -2.046875 C 7.074219 -1.324219 6.671875 -0.773438 6.128906 -0.398438 C 5.582031 -0.0195312 4.898438 0.167969 4.078125 0.167969 C 2.78125 0.167969 1.820312 -0.253906 1.195312 -1.105469 C 0.703125 -1.785156 0.457031 -2.640625 0.457031 -3.675781 C 0.457031 -4.914062 0.78125 -5.882812 1.425781 -6.585938 C 2.074219 -7.285156 2.890625 -7.636719 3.882812 -7.636719 C 4.992188 -7.636719 5.867188 -7.269531 6.511719 -6.535156 C 7.152344 -5.800781 7.460938 -4.679688 7.433594 -3.164062 L 2.480469 -3.164062 C 2.496094 -2.578125 2.65625 -2.121094 2.960938 -1.796875 C 3.265625 -1.46875 3.644531 -1.308594 4.097656 -1.308594 C 4.410156 -1.308594 4.667969 -1.390625 4.878906 -1.5625 C 5.089844 -1.730469 5.25 -2 5.359375 -2.375 M 5.46875 -4.375 C 5.457031 -4.945312 5.308594 -5.378906 5.027344 -5.675781 C 4.746094 -5.976562 4.402344 -6.125 4 -6.125 C 3.570312 -6.125 3.214844 -5.96875 2.933594 -5.652344 C 2.652344 -5.339844 2.511719 -4.914062 2.515625 -4.375 Z M 5.46875 -4.375 "/>
</g>
<g id="glyph-2-2">
<path d="M 4.457031 -7.46875 L 4.457031 -5.890625 L 3.109375 -5.890625 L 3.109375 -2.882812 C 3.109375 -2.273438 3.121094 -1.917969 3.144531 -1.816406 C 3.171875 -1.714844 3.230469 -1.632812 3.320312 -1.566406 C 3.414062 -1.503906 3.523438 -1.46875 3.65625 -1.46875 C 3.839844 -1.46875 4.105469 -1.53125 4.449219 -1.660156 L 4.621094 -0.125 C 4.160156 0.0703125 3.640625 0.167969 3.058594 0.167969 C 2.703125 0.167969 2.382812 0.109375 2.09375 -0.0117188 C 1.808594 -0.128906 1.597656 -0.285156 1.464844 -0.472656 C 1.332031 -0.664062 1.238281 -0.921875 1.1875 -1.246094 C 1.144531 -1.472656 1.125 -1.9375 1.125 -2.636719 L 1.125 -5.890625 L 0.21875 -5.890625 L 0.21875 -7.46875 L 1.125 -7.46875 L 1.125 -8.949219 L 3.109375 -10.105469 L 3.109375 -7.46875 Z M 4.457031 -7.46875 "/>
</g>
<g id="glyph-2-3">
<path d="M 2.425781 0 L 0.0625 -7.46875 L 1.984375 -7.46875 L 3.382812 -2.574219 L 4.667969 -7.46875 L 6.574219 -7.46875 L 7.820312 -2.574219 L 9.246094 -7.46875 L 11.195312 -7.46875 L 8.796875 0 L 6.898438 0 L 5.609375 -4.800781 L 4.34375 0 Z M 2.425781 0 "/>
</g>
<g id="glyph-2-4">
<path d="M 7.824219 0 L 5.851562 0 L 5.851562 -3.8125 C 5.851562 -4.617188 5.808594 -5.136719 5.722656 -5.375 C 5.640625 -5.613281 5.5 -5.796875 5.3125 -5.925781 C 5.121094 -6.058594 4.894531 -6.125 4.625 -6.125 C 4.285156 -6.125 3.976562 -6.03125 3.707031 -5.84375 C 3.433594 -5.65625 3.246094 -5.40625 3.144531 -5.097656 C 3.046875 -4.789062 2.996094 -4.214844 2.996094 -3.382812 L 2.996094 0 L 1.019531 0 L 1.019531 -7.46875 L 2.855469 -7.46875 L 2.855469 -6.371094 C 3.507812 -7.214844 4.328125 -7.636719 5.316406 -7.636719 C 5.75 -7.636719 6.148438 -7.558594 6.511719 -7.398438 C 6.871094 -7.242188 7.144531 -7.042969 7.328125 -6.800781 C 7.515625 -6.554688 7.644531 -6.277344 7.714844 -5.96875 C 7.789062 -5.660156 7.824219 -5.21875 7.824219 -4.640625 Z M 7.824219 0 "/>
</g>
<g id="glyph-2-5">
<path d="M 0.335938 -2.128906 L 2.320312 -2.433594 C 2.40625 -2.046875 2.574219 -1.757812 2.832031 -1.558594 C 3.089844 -1.359375 3.453125 -1.257812 3.917969 -1.257812 C 4.425781 -1.257812 4.8125 -1.351562 5.070312 -1.539062 C 5.242188 -1.671875 5.328125 -1.847656 5.328125 -2.066406 C 5.328125 -2.21875 5.28125 -2.339844 5.1875 -2.441406 C 5.089844 -2.535156 4.871094 -2.621094 4.527344 -2.699219 C 2.933594 -3.050781 1.925781 -3.371094 1.496094 -3.664062 C 0.90625 -4.066406 0.613281 -4.625 0.613281 -5.34375 C 0.613281 -5.992188 0.867188 -6.535156 1.378906 -6.976562 C 1.890625 -7.414062 2.679688 -7.636719 3.753906 -7.636719 C 4.777344 -7.636719 5.535156 -7.46875 6.03125 -7.136719 C 6.53125 -6.804688 6.871094 -6.3125 7.058594 -5.660156 L 5.195312 -5.316406 C 5.117188 -5.605469 4.964844 -5.828125 4.742188 -5.984375 C 4.519531 -6.136719 4.203125 -6.214844 3.789062 -6.214844 C 3.269531 -6.214844 2.898438 -6.144531 2.671875 -5.996094 C 2.523438 -5.894531 2.445312 -5.761719 2.445312 -5.597656 C 2.445312 -5.457031 2.511719 -5.335938 2.644531 -5.238281 C 2.820312 -5.105469 3.4375 -4.921875 4.488281 -4.683594 C 5.542969 -4.445312 6.277344 -4.152344 6.695312 -3.804688 C 7.105469 -3.453125 7.3125 -2.960938 7.3125 -2.335938 C 7.3125 -1.648438 7.027344 -1.0625 6.453125 -0.570312 C 5.882812 -0.078125 5.035156 0.167969 3.917969 0.167969 C 2.898438 0.167969 2.09375 -0.0390625 1.5 -0.449219 C 0.910156 -0.863281 0.519531 -1.421875 0.335938 -2.128906 Z M 0.335938 -2.128906 "/>
</g>
<g id="glyph-2-6">
</g>
<g id="glyph-2-7">
<path d="M 7.882812 0 L 6.046875 0 L 6.046875 -1.097656 C 5.742188 -0.671875 5.382812 -0.351562 4.96875 -0.144531 C 4.550781 0.0625 4.132812 0.167969 3.710938 0.167969 C 2.855469 0.167969 2.121094 -0.175781 1.507812 -0.867188 C 0.894531 -1.558594 0.589844 -2.523438 0.589844 -3.761719 C 0.589844 -5.027344 0.886719 -5.988281 1.484375 -6.648438 C 2.078125 -7.304688 2.832031 -7.636719 3.742188 -7.636719 C 4.574219 -7.636719 5.296875 -7.289062 5.90625 -6.59375 L 5.90625 -10.308594 L 7.882812 -10.308594 L 7.882812 0 M 2.609375 -3.894531 C 2.609375 -3.097656 2.71875 -2.523438 2.9375 -2.164062 C 3.257812 -1.648438 3.703125 -1.390625 4.273438 -1.390625 C 4.730469 -1.390625 5.117188 -1.585938 5.433594 -1.972656 C 5.753906 -2.359375 5.914062 -2.9375 5.914062 -3.707031 C 5.914062 -4.5625 5.757812 -5.179688 5.449219 -5.558594 C 5.140625 -5.933594 4.742188 -6.125 4.261719 -6.125 C 3.792969 -6.125 3.398438 -5.9375 3.082031 -5.566406 C 2.765625 -5.191406 2.609375 -4.636719 2.609375 -3.894531 Z M 2.609375 -3.894531 "/>
</g>
<g id="glyph-2-8">
<path d="M 1.035156 -8.480469 L 1.035156 -10.308594 L 3.007812 -10.308594 L 3.007812 -8.480469 L 1.035156 -8.480469 M 1.035156 0 L 1.035156 -7.46875 L 3.007812 -7.46875 L 3.007812 0 Z M 1.035156 0 "/>
</g>
<g id="glyph-2-9">
<path d="M 2.925781 0 L 0.949219 0 L 0.949219 -7.46875 L 2.785156 -7.46875 L 2.785156 -6.40625 C 3.097656 -6.90625 3.378906 -7.238281 3.632812 -7.398438 C 3.882812 -7.554688 4.167969 -7.636719 4.484375 -7.636719 C 4.9375 -7.636719 5.371094 -7.511719 5.785156 -7.261719 L 5.175781 -5.539062 C 4.84375 -5.757812 4.53125 -5.863281 4.246094 -5.863281 C 3.96875 -5.863281 3.734375 -5.789062 3.542969 -5.636719 C 3.351562 -5.484375 3.199219 -5.207031 3.089844 -4.808594 C 2.980469 -4.410156 2.925781 -3.578125 2.925781 -2.304688 Z M 2.925781 0 "/>
</g>
<g id="glyph-2-10">
<path d="M 0.949219 0 L 0.949219 -10.308594 L 2.925781 -10.308594 L 2.925781 -6.59375 C 3.535156 -7.289062 4.257812 -7.636719 5.089844 -7.636719 C 6 -7.636719 6.753906 -7.304688 7.347656 -6.648438 C 7.941406 -5.988281 8.242188 -5.042969 8.242188 -3.8125 C 8.242188 -2.535156 7.9375 -1.554688 7.328125 -0.863281 C 6.722656 -0.175781 5.984375 0.167969 5.117188 0.167969 C 4.691406 0.167969 4.273438 0.0625 3.855469 -0.152344 C 3.441406 -0.363281 3.085938 -0.679688 2.785156 -1.097656 L 2.785156 0 L 0.949219 0 M 2.910156 -3.894531 C 2.910156 -3.121094 3.03125 -2.550781 3.277344 -2.179688 C 3.617188 -1.65625 4.074219 -1.390625 4.640625 -1.390625 C 5.078125 -1.390625 5.449219 -1.578125 5.753906 -1.949219 C 6.0625 -2.324219 6.214844 -2.910156 6.214844 -3.710938 C 6.214844 -4.566406 6.0625 -5.179688 5.75 -5.558594 C 5.441406 -5.933594 5.046875 -6.125 4.5625 -6.125 C 4.089844 -6.125 3.695312 -5.941406 3.382812 -5.570312 C 3.066406 -5.203125 2.910156 -4.644531 2.910156 -3.894531 Z M 2.910156 -3.894531 "/>
</g>
<g id="glyph-2-11">
<path d="M 5.949219 0 L 5.949219 -1.117188 C 5.675781 -0.71875 5.320312 -0.40625 4.875 -0.175781 C 4.433594 0.0546875 3.964844 0.167969 3.472656 0.167969 C 2.972656 0.167969 2.523438 0.0585938 2.125 -0.160156 C 1.726562 -0.382812 1.4375 -0.691406 1.257812 -1.089844 C 1.082031 -1.488281 0.992188 -2.039062 0.992188 -2.742188 L 0.992188 -7.46875 L 2.96875 -7.46875 L 2.96875 -4.035156 C 2.96875 -2.984375 3.003906 -2.34375 3.074219 -2.105469 C 3.148438 -1.867188 3.28125 -1.679688 3.472656 -1.542969 C 3.664062 -1.40625 3.910156 -1.335938 4.203125 -1.335938 C 4.542969 -1.335938 4.84375 -1.429688 5.113281 -1.613281 C 5.378906 -1.796875 5.5625 -2.027344 5.660156 -2.300781 C 5.757812 -2.578125 5.808594 -3.25 5.808594 -4.316406 L 5.808594 -7.46875 L 7.785156 -7.46875 L 7.785156 0 Z M 5.949219 0 "/>
</g>
<g id="glyph-2-12">
<path d="M 0.578125 -3.839844 C 0.578125 -4.496094 0.738281 -5.128906 1.0625 -5.746094 C 1.386719 -6.359375 1.84375 -6.828125 2.4375 -7.152344 C 3.027344 -7.472656 3.691406 -7.636719 4.421875 -7.636719 C 5.550781 -7.636719 6.476562 -7.269531 7.199219 -6.535156 C 7.921875 -5.800781 8.28125 -4.875 8.28125 -3.753906 C 8.28125 -2.625 7.917969 -1.6875 7.1875 -0.945312 C 6.460938 -0.203125 5.542969 0.167969 4.4375 0.167969 C 3.753906 0.167969 3.097656 0.015625 2.476562 -0.296875 C 1.855469 -0.605469 1.386719 -1.058594 1.0625 -1.65625 C 0.738281 -2.253906 0.578125 -2.980469 0.578125 -3.839844 M 2.601562 -3.734375 C 2.601562 -2.992188 2.777344 -2.425781 3.128906 -2.03125 C 3.480469 -1.636719 3.914062 -1.441406 4.429688 -1.441406 C 4.945312 -1.441406 5.378906 -1.636719 5.726562 -2.03125 C 6.074219 -2.425781 6.25 -2.996094 6.25 -3.746094 C 6.25 -4.480469 6.074219 -5.042969 5.726562 -5.433594 C 5.378906 -5.828125 4.945312 -6.027344 4.429688 -6.027344 C 3.914062 -6.027344 3.480469 -5.828125 3.128906 -5.433594 C 2.777344 -5.042969 2.601562 -4.472656 2.601562 -3.734375 Z M 2.601562 -3.734375 "/>
</g>
</g>
<clipPath id="clip-0">
<path clip-rule="nonzero" d="M 64.800781 356 L 439.199219 356 L 439.199219 357 L 64.800781 357 Z M 64.800781 356 "/>
</clipPath>
</defs>
<rect x="-50.4" y="-43.2" width="604.8" height="518.4" fill="rgb(100%, 100%, 100%)" fill-opacity="1"/>
<path fill="none" stroke-width="0.75" stroke-linecap="round" stroke-linejoin="round" stroke="rgb(0%, 0%, 0%)" stroke-opacity="1" stroke-miterlimit="10" d="M 78.667969 354.542969 L 79.34375 354.324219 L 80.023438 354.066406 L 80.703125 353.785156 L 81.378906 353.476562 L 82.058594 353.132812 L 82.738281 352.742188 L 83.414062 352.316406 L 84.09375 351.851562 L 84.773438 351.328125 L 85.449219 350.746094 L 86.128906 350.117188 L 86.808594 349.433594 L 87.484375 348.664062 L 88.164062 347.828125 L 88.84375 346.925781 L 89.519531 345.941406 L 90.199219 344.855469 L 90.878906 343.683594 L 91.554688 342.433594 L 92.234375 341.0625 L 92.914062 339.574219 L 93.589844 337.988281 L 94.269531 336.304688 L 94.949219 334.453125 L 95.625 332.484375 L 96.304688 330.398438 L 96.984375 328.179688 L 97.660156 325.78125 L 98.339844 323.25 L 99.019531 320.59375 L 99.699219 317.761719 L 100.375 314.753906 L 101.054688 311.609375 L 101.734375 308.324219 L 102.410156 304.828125 L 103.089844 301.179688 L 103.769531 297.390625 L 104.445312 293.445312 L 105.125 289.296875 L 105.804688 285.007812 L 106.480469 280.585938 L 107.160156 275.996094 L 107.839844 271.242188 L 108.515625 266.367188 L 109.195312 261.375 L 109.875 256.222656 L 110.550781 250.960938 L 111.230469 245.601562 L 111.910156 240.148438 L 112.585938 234.582031 L 113.265625 228.953125 L 113.945312 223.261719 L 114.621094 217.515625 L 115.300781 211.726562 L 115.980469 205.914062 L 116.65625 200.089844 L 117.335938 194.269531 L 118.015625 188.464844 L 118.691406 182.691406 L 119.371094 176.953125 L 120.050781 171.296875 L 120.726562 165.707031 L 121.40625 160.191406 L 122.085938 154.78125 L 122.761719 149.511719 L 123.441406 144.351562 L 124.121094 139.3125 L 124.796875 134.453125 L 125.476562 129.761719 L 126.15625 125.222656 L 126.832031 120.832031 L 127.511719 116.699219 L 128.191406 112.742188 L 128.867188 108.957031 L 129.546875 105.375 L 130.226562 102.054688 L 130.902344 98.914062 L 131.582031 95.960938 L 132.261719 93.257812 L 132.9375 90.785156 L 133.617188 88.496094 L 134.296875 86.386719 L 134.972656 84.550781 L 135.652344 82.902344 L 136.332031 81.421875 L 137.011719 80.128906 L 137.6875 79.070312 L 138.367188 78.167969 L 139.046875 77.410156 L 139.722656 76.839844 L 140.402344 76.4375 L 141.082031 76.15625 L 141.757812 76 L 142.4375 76.007812 L 143.117188 76.125 L 143.792969 76.335938 L 144.472656 76.644531 L 145.152344 77.070312 L 145.828125 77.566406 L 146.507812 78.128906 L 147.1875 78.765625 L 147.863281 79.472656 L 148.542969 80.226562 L 149.222656 81.019531 L 149.898438 81.867188 L 150.578125 82.75 L 151.257812 83.664062 L 151.933594 84.605469 L 152.613281 85.582031 L 153.292969 86.582031 L 153.96875 87.601562 L 154.648438 88.648438 L 155.328125 89.726562 L 156.003906 90.824219 L 156.683594 91.945312 L 157.363281 93.105469 L 158.039062 94.296875 L 158.71875 95.523438 L 159.398438 96.78125 L 160.074219 98.105469 L 160.753906 99.472656 L 161.433594 100.890625 L 162.109375 102.371094 L 162.789062 103.9375 L 163.46875 105.570312 L 164.144531 107.269531 L 164.824219 109.074219 L 165.503906 110.980469 L 166.179688 112.972656 L 166.859375 115.054688 L 167.539062 117.285156 L 168.214844 119.625 L 168.894531 122.066406 L 169.574219 124.636719 L 170.25 127.367188 L 170.929688 130.210938 L 171.609375 133.171875 L 172.285156 136.292969 L 172.964844 139.558594 L 173.644531 142.949219 L 174.320312 146.453125 L 175 150.136719 L 175.679688 153.941406 L 176.359375 157.855469 L 177.035156 161.890625 L 177.714844 166.082031 L 178.394531 170.367188 L 179.070312 174.746094 L 179.75 179.238281 L 180.429688 183.832031 L 181.105469 188.496094 L 181.785156 193.222656 L 182.464844 198.035156 L 183.140625 202.894531 L 183.820312 207.792969 L 184.5 212.722656 L 185.175781 217.679688 L 185.855469 222.640625 L 186.535156 227.605469 L 187.210938 232.554688 L 187.890625 237.480469 L 188.570312 242.371094 L 189.246094 247.226562 L 189.925781 252.015625 L 190.605469 256.738281 L 191.28125 261.398438 L 191.960938 265.984375 L 192.640625 270.449219 L 193.316406 274.824219 L 193.996094 279.109375 L 194.675781 283.28125 L 195.351562 287.308594 L 196.03125 291.226562 L 196.710938 295.035156 L 197.386719 298.691406 L 198.066406 302.203125 L 198.746094 305.597656 L 199.421875 308.871094 L 200.101562 311.957031 L 200.78125 314.917969 L 201.457031 317.757812 L 202.136719 320.457031 L 202.816406 322.988281 L 203.492188 325.398438 L 204.171875 327.691406 L 204.851562 329.832031 L 205.527344 331.832031 L 206.207031 333.726562 L 206.886719 335.511719 L 207.5625 337.132812 L 208.242188 338.652344 L 208.921875 340.074219 L 209.597656 341.390625 L 210.277344 342.570312 L 210.957031 343.664062 L 211.632812 344.671875 L 212.3125 345.574219 L 212.992188 346.375 L 213.671875 347.101562 L 214.347656 347.753906 L 215.027344 348.296875 L 215.707031 348.773438 L 216.382812 349.179688 L 217.0625 349.515625 L 217.742188 349.761719 L 218.417969 349.949219 L 219.097656 350.078125 L 219.777344 350.132812 L 220.453125 350.113281 L 221.132812 350.039062 L 221.8125 349.914062 L 222.488281 349.707031 L 223.167969 349.441406 L 223.847656 349.125 L 224.523438 348.75 L 225.203125 348.292969 L 225.882812 347.785156 L 226.558594 347.226562 L 227.238281 346.601562 L 227.917969 345.902344 L 228.59375 345.152344 L 229.273438 344.347656 L 229.953125 343.46875 L 230.628906 342.527344 L 231.308594 341.53125 L 231.988281 340.484375 L 232.664062 339.351562 L 233.34375 338.167969 L 234.023438 336.9375 L 234.699219 335.644531 L 235.378906 334.285156 L 236.058594 332.878906 L 236.734375 331.425781 L 237.414062 329.917969 L 238.09375 328.359375 L 238.769531 326.765625 L 239.449219 325.136719 L 240.128906 323.457031 L 240.804688 321.753906 L 241.484375 320.027344 L 242.164062 318.28125 L 242.839844 316.511719 L 243.519531 314.738281 L 244.199219 312.960938 L 244.875 311.183594 L 245.554688 309.417969 L 246.234375 307.667969 L 246.910156 305.9375 L 247.589844 304.246094 L 248.269531 302.589844 L 248.945312 300.972656 L 249.625 299.402344 L 250.304688 297.910156 L 250.980469 296.472656 L 251.660156 295.101562 L 252.339844 293.816406 L 253.019531 292.625 L 253.695312 291.515625 L 254.375 290.488281 L 255.054688 289.589844 L 255.730469 288.796875 L 256.410156 288.097656 L 257.089844 287.507812 L 257.765625 287.066406 L 258.445312 286.734375 L 259.125 286.503906 L 259.800781 286.40625 L 260.480469 286.449219 L 261.160156 286.601562 L 261.835938 286.859375 L 262.515625 287.265625 L 263.195312 287.792969 L 263.871094 288.417969 L 264.550781 289.144531 L 265.230469 290.019531 L 265.90625 290.980469 L 266.585938 292.03125 L 267.265625 293.179688 L 267.941406 294.433594 L 268.621094 295.757812 L 269.300781 297.148438 L 269.976562 298.621094 L 270.65625 300.160156 L 271.335938 301.746094 L 272.011719 303.375 L 272.691406 305.0625 L 273.371094 306.777344 L 274.046875 308.511719 L 274.726562 310.273438 L 275.40625 312.046875 L 276.082031 313.828125 L 276.761719 315.609375 L 277.441406 317.382812 L 278.117188 319.144531 L 278.796875 320.890625 L 279.476562 322.617188 L 280.152344 324.304688 L 280.832031 325.96875 L 281.511719 327.597656 L 282.1875 329.1875 L 282.867188 330.726562 L 283.546875 332.222656 L 284.222656 333.679688 L 284.902344 335.078125 L 285.582031 336.421875 L 286.257812 337.714844 L 286.9375 338.964844 L 287.617188 340.144531 L 288.292969 341.269531 L 288.972656 342.351562 L 289.652344 343.378906 L 290.328125 344.335938 L 291.007812 345.246094 L 291.6875 346.113281 L 292.367188 346.921875 L 293.042969 347.675781 L 293.722656 348.386719 L 294.402344 349.058594 L 295.078125 349.671875 L 295.757812 350.246094 L 296.4375 350.785156 L 297.113281 351.285156 L 297.792969 351.734375 L 298.472656 352.15625 L 299.148438 352.550781 L 299.828125 352.90625 L 300.507812 353.230469 L 301.183594 353.53125 L 301.863281 353.808594 L 302.542969 354.054688 L 303.21875 354.277344 L 303.898438 354.484375 L 304.578125 354.671875 L 305.253906 354.839844 L 305.933594 354.988281 L 306.613281 355.125 L 307.289062 355.246094 L 307.96875 355.355469 L 308.648438 355.453125 L 309.324219 355.539062 L 310.003906 355.617188 L 310.683594 355.683594 L 311.359375 355.742188 L 312.039062 355.792969 L 312.71875 355.835938 L 313.394531 355.875 L 314.074219 355.910156 L 314.753906 355.9375 L 315.429688 355.957031 L 316.109375 355.976562 L 316.789062 355.988281 L 317.464844 355.996094 L 318.144531 356 L 318.824219 356 L 319.5 355.996094 L 320.179688 355.988281 L 320.859375 355.972656 L 321.535156 355.957031 L 322.214844 355.9375 L 322.894531 355.90625 L 323.570312 355.875 L 324.25 355.835938 L 324.929688 355.792969 L 325.605469 355.742188 L 326.285156 355.683594 L 326.964844 355.617188 L 327.640625 355.539062 L 328.320312 355.453125 L 329 355.355469 L 329.679688 355.246094 L 330.355469 355.125 L 331.035156 354.988281 L 331.714844 354.839844 L 332.390625 354.671875 L 333.070312 354.484375 L 333.75 354.277344 L 334.425781 354.054688 L 335.105469 353.804688 L 335.785156 353.527344 L 336.460938 353.230469 L 337.140625 352.90625 L 337.820312 352.546875 L 338.496094 352.15625 L 339.175781 351.738281 L 339.855469 351.28125 L 340.53125 350.78125 L 341.210938 350.246094 L 341.890625 349.675781 L 342.566406 349.054688 L 343.246094 348.382812 L 343.925781 347.675781 L 344.601562 346.925781 L 345.28125 346.105469 L 345.960938 345.242188 L 346.636719 344.335938 L 347.316406 343.375 L 347.996094 342.34375 L 348.671875 341.269531 L 349.351562 340.148438 L 350.03125 338.957031 L 350.707031 337.714844 L 351.386719 336.421875 L 352.066406 335.082031 L 352.742188 333.675781 L 353.421875 332.222656 L 354.101562 330.726562 L 354.777344 329.1875 L 355.457031 327.59375 L 356.136719 325.96875 L 356.8125 324.3125 L 357.492188 322.617188 L 358.171875 320.890625 L 358.847656 319.148438 L 359.527344 317.386719 L 360.207031 315.613281 L 360.882812 313.832031 L 362.242188 310.277344 L 362.917969 308.519531 L 363.597656 306.78125 L 364.277344 305.066406 L 364.953125 303.386719 L 365.632812 301.757812 L 366.3125 300.167969 L 366.988281 298.625 L 367.667969 297.164062 L 368.347656 295.769531 L 369.027344 294.4375 L 369.703125 293.183594 L 370.382812 292.046875 L 371.0625 290.992188 L 371.738281 290.023438 L 372.417969 289.164062 L 373.097656 288.433594 L 373.773438 287.800781 L 374.453125 287.269531 L 375.132812 286.882812 L 375.808594 286.617188 L 376.488281 286.457031 L 377.167969 286.40625 L 377.84375 286.519531 L 378.523438 286.742188 L 379.203125 287.070312 L 379.878906 287.519531 L 380.558594 288.113281 L 381.238281 288.804688 L 381.914062 289.589844 L 382.59375 290.503906 L 383.273438 291.523438 L 383.949219 292.628906 L 384.628906 293.8125 L 385.308594 295.113281 L 385.984375 296.480469 L 386.664062 297.910156 L 387.34375 299.410156 L 388.019531 300.980469 L 388.699219 302.59375 L 389.378906 304.246094 L 390.054688 305.945312 L 390.734375 307.675781 L 391.414062 309.425781 L 392.089844 311.191406 L 392.769531 312.96875 L 393.449219 314.75 L 394.125 316.527344 L 394.804688 318.296875 L 395.484375 320.046875 L 396.160156 321.78125 L 396.839844 323.492188 L 397.519531 325.171875 L 398.195312 326.8125 L 398.875 328.417969 L 399.554688 329.988281 L 400.230469 331.503906 L 400.910156 332.976562 L 401.589844 334.402344 L 402.265625 335.78125 L 402.945312 337.09375 L 403.625 338.359375 L 404.300781 339.578125 L 404.980469 340.734375 L 405.660156 341.828125 L 406.339844 342.878906 L 407.015625 343.878906 L 407.695312 344.8125 L 408.375 345.695312 L 409.050781 346.53125 L 409.730469 347.320312 L 410.410156 348.046875 L 411.085938 348.734375 L 411.765625 349.378906 L 412.445312 349.976562 L 413.121094 350.527344 L 413.800781 351.039062 L 414.480469 351.523438 L 415.15625 351.957031 L 415.835938 352.359375 L 416.515625 352.734375 L 417.191406 353.082031 L 417.871094 353.390625 L 418.550781 353.675781 L 419.226562 353.9375 L 419.90625 354.175781 L 420.585938 354.386719 L 421.261719 354.582031 L 421.941406 354.761719 L 422.621094 354.921875 L 423.296875 355.0625 L 423.976562 355.195312 L 424.65625 355.3125 L 425.332031 355.414062 "/>
<path fill="none" stroke-width="0.75" stroke-linecap="round" stroke-linejoin="round" stroke="rgb(0%, 0%, 0%)" stroke-opacity="1" stroke-miterlimit="10" d="M 127.007812 367.199219 L 366.355469 367.199219 "/>
<path fill="none" stroke-width="0.75" stroke-linecap="round" stroke-linejoin="round" stroke="rgb(0%, 0%, 0%)" stroke-opacity="1" stroke-miterlimit="10" d="M 127.007812 367.199219 L 127.007812 374.398438 "/>
<path fill="none" stroke-width="0.75" stroke-linecap="round" stroke-linejoin="round" stroke="rgb(0%, 0%, 0%)" stroke-opacity="1" stroke-miterlimit="10" d="M 206.789062 367.199219 L 206.789062 374.398438 "/>
<path fill="none" stroke-width="0.75" stroke-linecap="round" stroke-linejoin="round" stroke="rgb(0%, 0%, 0%)" stroke-opacity="1" stroke-miterlimit="10" d="M 286.570312 367.199219 L 286.570312 374.398438 "/>
<path fill="none" stroke-width="0.75" stroke-linecap="round" stroke-linejoin="round" stroke="rgb(0%, 0%, 0%)" stroke-opacity="1" stroke-miterlimit="10" d="M 366.355469 367.199219 L 366.355469 374.398438 "/>
<g fill="rgb(0%, 0%, 0%)" fill-opacity="1">
<use xlink:href="#glyph-0-0" x="123.671875" y="393.121094"/>
</g>
<g fill="rgb(0%, 0%, 0%)" fill-opacity="1">
<use xlink:href="#glyph-0-1" x="203.453125" y="393.121094"/>
</g>
<g fill="rgb(0%, 0%, 0%)" fill-opacity="1">
<use xlink:href="#glyph-0-2" x="279.898438" y="393.121094"/>
<use xlink:href="#glyph-0-0" x="286.572266" y="393.121094"/>
</g>
<g fill="rgb(0%, 0%, 0%)" fill-opacity="1">
<use xlink:href="#glyph-0-2" x="359.683594" y="393.121094"/>
<use xlink:href="#glyph-0-1" x="366.357422" y="393.121094"/>
</g>
<path fill="none" stroke-width="0.75" stroke-linecap="round" stroke-linejoin="round" stroke="rgb(0%, 0%, 0%)" stroke-opacity="1" stroke-miterlimit="10" d="M 64.800781 356.195312 L 64.800781 117.621094 "/>
<path fill="none" stroke-width="0.75" stroke-linecap="round" stroke-linejoin="round" stroke="rgb(0%, 0%, 0%)" stroke-opacity="1" stroke-miterlimit="10" d="M 64.800781 356.195312 L 57.601562 356.195312 "/>
<path fill="none" stroke-width="0.75" stroke-linecap="round" stroke-linejoin="round" stroke="rgb(0%, 0%, 0%)" stroke-opacity="1" stroke-miterlimit="10" d="M 64.800781 276.667969 L 57.601562 276.667969 "/>
<path fill="none" stroke-width="0.75" stroke-linecap="round" stroke-linejoin="round" stroke="rgb(0%, 0%, 0%)" stroke-opacity="1" stroke-miterlimit="10" d="M 64.800781 197.144531 L 57.601562 197.144531 "/>
<path fill="none" stroke-width="0.75" stroke-linecap="round" stroke-linejoin="round" stroke="rgb(0%, 0%, 0%)" stroke-opacity="1" stroke-miterlimit="10" d="M 64.800781 117.621094 L 57.601562 117.621094 "/>
<g fill="rgb(0%, 0%, 0%)" fill-opacity="1">
<use xlink:href="#glyph-1-0" x="47.519531" y="367.875"/>
<use xlink:href="#glyph-1-1" x="47.519531" y="361.201172"/>
<use xlink:href="#glyph-1-0" x="47.519531" y="357.867188"/>
<use xlink:href="#glyph-1-0" x="47.519531" y="351.193359"/>
</g>
<g fill="rgb(0%, 0%, 0%)" fill-opacity="1">
<use xlink:href="#glyph-1-0" x="47.519531" y="288.347656"/>
<use xlink:href="#glyph-1-1" x="47.519531" y="281.673828"/>
<use xlink:href="#glyph-1-0" x="47.519531" y="278.339844"/>
<use xlink:href="#glyph-1-2" x="47.519531" y="271.666016"/>
</g>
<g fill="rgb(0%, 0%, 0%)" fill-opacity="1">
<use xlink:href="#glyph-1-0" x="47.519531" y="208.824219"/>
<use xlink:href="#glyph-1-1" x="47.519531" y="202.150391"/>
<use xlink:href="#glyph-1-3" x="47.519531" y="198.816406"/>
<use xlink:href="#glyph-1-0" x="47.519531" y="192.142578"/>
</g>
<g fill="rgb(0%, 0%, 0%)" fill-opacity="1">
<use xlink:href="#glyph-1-0" x="47.519531" y="129.300781"/>
<use xlink:href="#glyph-1-1" x="47.519531" y="122.626953"/>
<use xlink:href="#glyph-1-3" x="47.519531" y="119.292969"/>
<use xlink:href="#glyph-1-2" x="47.519531" y="112.619141"/>
</g>
<path fill="none" stroke-width="0.75" stroke-linecap="round" stroke-linejoin="round" stroke="rgb(0%, 0%, 0%)" stroke-opacity="1" stroke-miterlimit="10" d="M 64.800781 367.199219 L 439.199219 367.199219 L 439.199219 64.800781 L 64.800781 64.800781 Z M 64.800781 367.199219 "/>
<g fill="rgb(0%, 0%, 0%)" fill-opacity="1">
<use xlink:href="#glyph-2-0" x="164.386719" y="38.054688"/>
<use xlink:href="#glyph-2-1" x="174.785937" y="38.054688"/>
<use xlink:href="#glyph-2-2" x="182.794531" y="38.054688"/>
<use xlink:href="#glyph-2-3" x="187.589844" y="38.054688"/>
<use xlink:href="#glyph-2-1" x="198.790625" y="38.054688"/>
<use xlink:href="#glyph-2-1" x="206.799219" y="38.054688"/>
<use xlink:href="#glyph-2-4" x="214.807812" y="38.054688"/>
<use xlink:href="#glyph-2-4" x="223.603906" y="38.054688"/>
<use xlink:href="#glyph-2-1" x="232.4" y="38.054688"/>
<use xlink:href="#glyph-2-5" x="240.408594" y="38.054688"/>
<use xlink:href="#glyph-2-5" x="248.417187" y="38.054688"/>
<use xlink:href="#glyph-2-6" x="256.425781" y="38.054688"/>
<use xlink:href="#glyph-2-7" x="260.426562" y="38.054688"/>
<use xlink:href="#glyph-2-8" x="269.222656" y="38.054688"/>
<use xlink:href="#glyph-2-5" x="273.223437" y="38.054688"/>
<use xlink:href="#glyph-2-2" x="281.232031" y="38.054688"/>
<use xlink:href="#glyph-2-9" x="286.027344" y="38.054688"/>
<use xlink:href="#glyph-2-8" x="291.63125" y="38.054688"/>
<use xlink:href="#glyph-2-10" x="295.632031" y="38.054688"/>
<use xlink:href="#glyph-2-11" x="304.428125" y="38.054688"/>
<use xlink:href="#glyph-2-2" x="313.224219" y="38.054688"/>
<use xlink:href="#glyph-2-8" x="318.019531" y="38.054688"/>
<use xlink:href="#glyph-2-12" x="322.020312" y="38.054688"/>
<use xlink:href="#glyph-2-4" x="330.816406" y="38.054688"/>
</g>
<g fill="rgb(0%, 0%, 0%)" fill-opacity="1">
<use xlink:href="#glyph-0-3" x="185.957031" y="421.921875"/>
<use xlink:href="#glyph-0-4" x="194.623047" y="421.921875"/>
<use xlink:href="#glyph-0-5" x="197.957031" y="421.921875"/>
<use xlink:href="#glyph-0-4" x="204.964844" y="421.921875"/>
<use xlink:href="#glyph-0-6" x="208.298828" y="421.921875"/>
<use xlink:href="#glyph-0-4" x="214.972656" y="421.921875"/>
<use xlink:href="#glyph-0-4" x="218.306641" y="421.921875"/>
<use xlink:href="#glyph-0-4" x="221.640625" y="421.921875"/>
<use xlink:href="#glyph-0-7" x="224.974609" y="421.921875"/>
<use xlink:href="#glyph-0-8" x="232.978516" y="421.921875"/>
<use xlink:href="#glyph-0-9" x="239.652344" y="421.921875"/>
<use xlink:href="#glyph-0-10" x="246.326172" y="421.921875"/>
<use xlink:href="#glyph-0-11" x="253" y="421.921875"/>
<use xlink:href="#glyph-0-12" x="261.666016" y="421.921875"/>
<use xlink:href="#glyph-0-10" x="264.332031" y="421.921875"/>
<use xlink:href="#glyph-0-13" x="271.005859" y="421.921875"/>
<use xlink:href="#glyph-0-14" x="274.339844" y="421.921875"/>
<use xlink:href="#glyph-0-4" x="281.013672" y="421.921875"/>
<use xlink:href="#glyph-0-5" x="284.347656" y="421.921875"/>
<use xlink:href="#glyph-0-4" x="291.355469" y="421.921875"/>
<use xlink:href="#glyph-0-2" x="294.689453" y="421.921875"/>
<use xlink:href="#glyph-0-15" x="301.363281" y="421.921875"/>
<use xlink:href="#glyph-0-0" x="304.697266" y="421.921875"/>
<use xlink:href="#glyph-0-2" x="311.371094" y="421.921875"/>
</g>
<g fill="rgb(0%, 0%, 0%)" fill-opacity="1">
<use xlink:href="#glyph-1-4" x="18.71875" y="236.007812"/>
<use xlink:href="#glyph-1-5" x="18.71875" y="227.341797"/>
<use xlink:href="#glyph-1-6" x="18.71875" y="220.667969"/>
<use xlink:href="#glyph-1-7" x="18.71875" y="213.994141"/>
<use xlink:href="#glyph-1-8" x="18.71875" y="207.994141"/>
<use xlink:href="#glyph-1-9" x="18.71875" y="205.328125"/>
<use xlink:href="#glyph-1-10" x="18.71875" y="201.994141"/>
</g>
<g clip-path="url(#clip-0)">
<path fill="none" stroke-width="0.1875" stroke-linecap="round" stroke-linejoin="round" stroke="rgb(74.509804%, 74.509804%, 74.509804%)" stroke-opacity="1" stroke-miterlimit="10" d="M 64.800781 356.195312 L 439.199219 356.195312 "/>
</g>
</svg>
