<?xml version="1.0" encoding="UTF-8"?>
<svg xmlns="http://www.w3.org/2000/svg" xmlns:xlink="http://www.w3.org/1999/xlink" width="504" height="432" viewBox="0 0 504 432">
<defs>
<g>
<g id="glyph-0-0">
<path d="M 1.40625 -7.164062 L 3.339844 -8.109375 L 3.53125 -8.109375 L 3.53125 -1.398438 C 3.53125 -0.953125 3.550781 -0.675781 3.589844 -0.570312 C 3.625 -0.457031 3.703125 -0.375 3.820312 -0.316406 C 3.9375 -0.257812 4.175781 -0.222656 4.535156 -0.21875 L 4.535156 0 L 1.546875 0 L 1.546875 -0.21875 C 1.921875 -0.222656 2.164062 -0.257812 2.273438 -0.3125 C 2.382812 -0.371094 2.457031 -0.445312 2.5 -0.542969 C 2.542969 -0.636719 2.566406 -0.921875 2.566406 -1.398438 L 2.566406 -5.6875 C 2.566406 -6.265625 2.546875 -6.640625 2.507812 -6.804688 C 2.480469 -6.925781 2.429688 -7.019531 2.359375 -7.078125 C 2.285156 -7.136719 2.199219 -7.164062 2.097656 -7.164062 C 1.953125 -7.164062 1.75 -7.105469 1.492188 -6.984375 Z M 1.40625 -7.164062 "/>
</g>
<g id="glyph-0-1">
<path d="M 5.5 -1.53125 L 4.945312 0 L 0.257812 0 L 0.257812 -0.21875 C 1.636719 -1.472656 2.609375 -2.5 3.171875 -3.296875 C 3.734375 -4.09375 4.015625 -4.824219 4.015625 -5.484375 C 4.015625 -5.988281 3.859375 -6.402344 3.550781 -6.726562 C 3.242188 -7.050781 2.871094 -7.210938 2.445312 -7.210938 C 2.050781 -7.210938 1.703125 -7.097656 1.390625 -6.871094 C 1.082031 -6.640625 0.851562 -6.304688 0.703125 -5.867188 L 0.484375 -5.867188 C 0.582031 -6.585938 0.835938 -7.140625 1.238281 -7.53125 C 1.644531 -7.914062 2.148438 -8.109375 2.753906 -8.109375 C 3.398438 -8.109375 3.9375 -7.902344 4.367188 -7.488281 C 4.800781 -7.074219 5.015625 -6.585938 5.015625 -6.023438 C 5.015625 -5.621094 4.921875 -5.21875 4.734375 -4.816406 C 4.445312 -4.183594 3.976562 -3.511719 3.328125 -2.804688 C 2.355469 -1.742188 1.746094 -1.101562 1.507812 -0.882812 L 3.578125 -0.882812 C 4 -0.882812 4.296875 -0.898438 4.46875 -0.929688 C 4.636719 -0.960938 4.789062 -1.027344 4.929688 -1.121094 C 5.0625 -1.21875 5.183594 -1.351562 5.285156 -1.53125 Z M 5.5 -1.53125 "/>
</g>
<g id="glyph-0-2">
<path d="M 0.609375 -6.433594 C 0.835938 -6.96875 1.121094 -7.382812 1.46875 -7.671875 C 1.8125 -7.964844 2.242188 -8.109375 2.757812 -8.109375 C 3.394531 -8.109375 3.882812 -7.902344 4.226562 -7.488281 C 4.484375 -7.179688 4.609375 -6.851562 4.609375 -6.5 C 4.609375 -5.917969 4.25 -5.320312 3.523438 -4.703125 C 4.007812 -4.511719 4.378906 -4.238281 4.628906 -3.882812 C 4.878906 -3.527344 5.003906 -3.109375 5.003906 -2.632812 C 5.003906 -1.941406 4.785156 -1.347656 4.347656 -0.84375 C 3.777344 -0.1875 2.949219 0.140625 1.867188 0.140625 C 1.332031 0.140625 0.96875 0.0742188 0.777344 -0.0585938 C 0.582031 -0.191406 0.484375 -0.335938 0.484375 -0.484375 C 0.484375 -0.597656 0.53125 -0.699219 0.625 -0.785156 C 0.714844 -0.871094 0.828125 -0.914062 0.953125 -0.914062 C 1.050781 -0.914062 1.152344 -0.898438 1.253906 -0.867188 C 1.320312 -0.847656 1.46875 -0.777344 1.703125 -0.652344 C 1.9375 -0.53125 2.101562 -0.457031 2.191406 -0.433594 C 2.335938 -0.390625 2.488281 -0.367188 2.65625 -0.367188 C 3.054688 -0.367188 3.398438 -0.523438 3.695312 -0.832031 C 3.988281 -1.140625 4.136719 -1.507812 4.136719 -1.929688 C 4.136719 -2.234375 4.066406 -2.535156 3.929688 -2.828125 C 3.828125 -3.046875 3.71875 -3.214844 3.597656 -3.328125 C 3.429688 -3.484375 3.199219 -3.625 2.90625 -3.753906 C 2.613281 -3.878906 2.3125 -3.945312 2.007812 -3.945312 L 1.820312 -3.945312 L 1.820312 -4.117188 C 2.128906 -4.15625 2.441406 -4.269531 2.75 -4.453125 C 3.0625 -4.636719 3.289062 -4.855469 3.429688 -5.117188 C 3.570312 -5.371094 3.640625 -5.65625 3.640625 -5.964844 C 3.640625 -6.367188 3.511719 -6.691406 3.261719 -6.941406 C 3.007812 -7.1875 2.695312 -7.3125 2.320312 -7.3125 C 1.714844 -7.3125 1.207031 -6.988281 0.804688 -6.339844 Z M 0.609375 -6.433594 "/>
</g>
<g id="glyph-0-3">
<path d="M 5.585938 -2.929688 L 5.585938 -2.097656 L 4.515625 -2.097656 L 4.515625 0 L 3.550781 0 L 3.550781 -2.097656 L 0.1875 -2.097656 L 0.1875 -2.847656 L 3.875 -8.109375 L 4.515625 -8.109375 L 4.515625 -2.929688 L 5.585938 -2.929688 M 3.550781 -2.929688 L 3.550781 -6.875 L 0.761719 -2.929688 Z M 3.550781 -2.929688 "/>
</g>
<g id="glyph-0-4">
<path d="M 5.210938 -7.945312 L 4.75 -6.949219 L 2.359375 -6.949219 L 1.839844 -5.882812 C 2.875 -5.730469 3.695312 -5.34375 4.300781 -4.726562 C 4.820312 -4.195312 5.078125 -3.570312 5.078125 -2.851562 C 5.078125 -2.433594 4.996094 -2.046875 4.824219 -1.695312 C 4.65625 -1.335938 4.441406 -1.035156 4.183594 -0.785156 C 3.925781 -0.535156 3.640625 -0.335938 3.320312 -0.179688 C 2.871094 0.03125 2.410156 0.140625 1.9375 0.140625 C 1.460938 0.140625 1.117188 0.0585938 0.898438 -0.101562 C 0.683594 -0.265625 0.574219 -0.445312 0.574219 -0.640625 C 0.574219 -0.746094 0.617188 -0.84375 0.710938 -0.929688 C 0.796875 -1.011719 0.910156 -1.054688 1.046875 -1.054688 C 1.148438 -1.054688 1.238281 -1.039062 1.316406 -1.007812 C 1.390625 -0.976562 1.519531 -0.898438 1.703125 -0.765625 C 2 -0.5625 2.292969 -0.460938 2.59375 -0.460938 C 3.054688 -0.460938 3.453125 -0.636719 3.800781 -0.980469 C 4.144531 -1.328125 4.320312 -1.746094 4.320312 -2.242188 C 4.320312 -2.726562 4.164062 -3.171875 3.855469 -3.589844 C 3.546875 -4.003906 3.121094 -4.324219 2.578125 -4.554688 C 2.152344 -4.726562 1.570312 -4.828125 0.835938 -4.859375 L 2.359375 -7.945312 Z M 5.210938 -7.945312 "/>
</g>
<g id="glyph-0-5">
<path d="M 5.378906 -8.109375 L 5.378906 -7.890625 C 4.863281 -7.839844 4.441406 -7.738281 4.117188 -7.585938 C 3.789062 -7.429688 3.46875 -7.195312 3.148438 -6.878906 C 2.832031 -6.5625 2.566406 -6.210938 2.359375 -5.820312 C 2.148438 -5.433594 1.976562 -4.96875 1.835938 -4.4375 C 2.398438 -4.820312 2.960938 -5.015625 3.527344 -5.015625 C 4.070312 -5.015625 4.539062 -4.796875 4.9375 -4.359375 C 5.335938 -3.921875 5.535156 -3.359375 5.539062 -2.671875 C 5.535156 -2.007812 5.335938 -1.402344 4.933594 -0.855469 C 4.449219 -0.191406 3.808594 0.140625 3.011719 0.140625 C 2.46875 0.140625 2.007812 -0.0390625 1.628906 -0.398438 C 0.886719 -1.097656 0.515625 -2.003906 0.515625 -3.117188 C 0.515625 -3.828125 0.65625 -4.503906 0.945312 -5.144531 C 1.226562 -5.785156 1.636719 -6.351562 2.164062 -6.851562 C 2.695312 -7.34375 3.199219 -7.679688 3.6875 -7.851562 C 4.167969 -8.023438 4.621094 -8.109375 5.039062 -8.109375 L 5.378906 -8.109375 M 1.734375 -4.007812 C 1.664062 -3.480469 1.628906 -3.054688 1.628906 -2.730469 C 1.628906 -2.355469 1.699219 -1.949219 1.835938 -1.507812 C 1.976562 -1.070312 2.179688 -0.71875 2.453125 -0.460938 C 2.65625 -0.277344 2.894531 -0.1875 3.179688 -0.1875 C 3.523438 -0.1875 3.824219 -0.347656 4.09375 -0.667969 C 4.359375 -0.988281 4.492188 -1.445312 4.492188 -2.039062 C 4.492188 -2.707031 4.359375 -3.285156 4.09375 -3.773438 C 3.828125 -4.261719 3.453125 -4.507812 2.964844 -4.507812 C 2.816406 -4.507812 2.65625 -4.472656 2.488281 -4.414062 C 2.316406 -4.347656 2.066406 -4.214844 1.734375 -4.007812 Z M 1.734375 -4.007812 "/>
</g>
<g id="glyph-0-6">
<path d="M 1.207031 -7.945312 L 5.46875 -7.945312 L 5.46875 -7.722656 L 2.820312 0.164062 L 2.164062 0.164062 L 4.535156 -6.992188 L 2.351562 -6.992188 C 1.90625 -6.992188 1.59375 -6.9375 1.40625 -6.832031 C 1.078125 -6.652344 0.8125 -6.375 0.617188 -6 L 0.445312 -6.0625 Z M 1.207031 -7.945312 "/>
</g>
<g id="glyph-0-7">
<path d="M 2.304688 -4 C 1.671875 -4.515625 1.269531 -4.929688 1.085938 -5.242188 C 0.90625 -5.554688 0.8125 -5.878906 0.8125 -6.21875 C 0.8125 -6.734375 1.015625 -7.175781 1.414062 -7.550781 C 1.8125 -7.921875 2.339844 -8.109375 3 -8.109375 C 3.640625 -8.109375 4.15625 -7.933594 4.546875 -7.585938 C 4.9375 -7.238281 5.132812 -6.84375 5.132812 -6.398438 C 5.132812 -6.101562 5.027344 -5.796875 4.816406 -5.492188 C 4.605469 -5.179688 4.164062 -4.816406 3.5 -4.398438 C 4.183594 -3.867188 4.640625 -3.453125 4.863281 -3.148438 C 5.160156 -2.746094 5.308594 -2.328125 5.308594 -1.886719 C 5.308594 -1.328125 5.09375 -0.851562 4.671875 -0.453125 C 4.242188 -0.0585938 3.6875 0.140625 2.992188 0.140625 C 2.238281 0.140625 1.652344 -0.0976562 1.230469 -0.570312 C 0.894531 -0.945312 0.726562 -1.359375 0.726562 -1.8125 C 0.726562 -2.160156 0.84375 -2.511719 1.082031 -2.855469 C 1.316406 -3.203125 1.722656 -3.582031 2.304688 -4 M 3.222656 -4.628906 C 3.691406 -5.050781 3.988281 -5.382812 4.113281 -5.628906 C 4.238281 -5.871094 4.300781 -6.148438 4.300781 -6.457031 C 4.300781 -6.867188 4.183594 -7.1875 3.953125 -7.421875 C 3.722656 -7.652344 3.410156 -7.769531 3.011719 -7.769531 C 2.613281 -7.769531 2.289062 -7.652344 2.039062 -7.421875 C 1.789062 -7.191406 1.664062 -6.921875 1.664062 -6.617188 C 1.664062 -6.410156 1.714844 -6.207031 1.820312 -6.007812 C 1.921875 -5.800781 2.070312 -5.609375 2.261719 -5.425781 L 3.222656 -4.628906 M 2.578125 -3.78125 C 2.253906 -3.503906 2.011719 -3.207031 1.859375 -2.886719 C 1.699219 -2.5625 1.625 -2.214844 1.625 -1.839844 C 1.625 -1.335938 1.761719 -0.933594 2.035156 -0.628906 C 2.3125 -0.328125 2.660156 -0.175781 3.085938 -0.175781 C 3.507812 -0.175781 3.847656 -0.292969 4.101562 -0.53125 C 4.355469 -0.769531 4.484375 -1.0625 4.484375 -1.398438 C 4.484375 -1.679688 4.40625 -1.933594 4.257812 -2.15625 C 3.980469 -2.570312 3.421875 -3.109375 2.578125 -3.78125 Z M 2.578125 -3.78125 "/>
</g>
<g id="glyph-0-8">
<path d="M 0.632812 0.164062 L 0.632812 -0.0546875 C 1.140625 -0.0585938 1.613281 -0.179688 2.050781 -0.40625 C 2.488281 -0.636719 2.910156 -1.035156 3.320312 -1.605469 C 3.726562 -2.175781 4.011719 -2.800781 4.171875 -3.484375 C 3.558594 -3.089844 3.003906 -2.894531 2.507812 -2.894531 C 1.949219 -2.894531 1.46875 -3.109375 1.070312 -3.542969 C 0.671875 -3.972656 0.476562 -4.546875 0.476562 -5.261719 C 0.476562 -5.957031 0.671875 -6.574219 1.070312 -7.117188 C 1.554688 -7.777344 2.179688 -8.109375 2.953125 -8.109375 C 3.605469 -8.109375 4.164062 -7.839844 4.628906 -7.300781 C 5.199219 -6.632812 5.484375 -5.808594 5.484375 -4.828125 C 5.484375 -3.945312 5.265625 -3.121094 4.835938 -2.359375 C 4.398438 -1.59375 3.796875 -0.960938 3.023438 -0.457031 C 2.394531 -0.0429688 1.707031 0.164062 0.96875 0.164062 L 0.632812 0.164062 M 4.265625 -3.921875 C 4.335938 -4.425781 4.371094 -4.835938 4.371094 -5.140625 C 4.371094 -5.515625 4.304688 -5.925781 4.179688 -6.367188 C 4.046875 -6.804688 3.867188 -7.140625 3.628906 -7.375 C 3.394531 -7.609375 3.125 -7.726562 2.824219 -7.726562 C 2.476562 -7.726562 2.171875 -7.570312 1.910156 -7.257812 C 1.648438 -6.945312 1.515625 -6.480469 1.515625 -5.867188 C 1.515625 -5.039062 1.691406 -4.394531 2.039062 -3.929688 C 2.292969 -3.59375 2.605469 -3.429688 2.976562 -3.429688 C 3.15625 -3.429688 3.367188 -3.46875 3.617188 -3.554688 C 3.859375 -3.640625 4.078125 -3.761719 4.265625 -3.921875 Z M 4.265625 -3.921875 "/>
</g>
<g id="glyph-0-9">
<path d="M 0.433594 -3.925781 C 0.433594 -4.832031 0.570312 -5.613281 0.84375 -6.265625 C 1.117188 -6.921875 1.480469 -7.40625 1.933594 -7.726562 C 2.285156 -7.980469 2.648438 -8.109375 3.023438 -8.109375 C 3.632812 -8.109375 4.179688 -7.796875 4.664062 -7.179688 C 5.269531 -6.40625 5.570312 -5.363281 5.570312 -4.046875 C 5.570312 -3.125 5.4375 -2.34375 5.171875 -1.699219 C 4.90625 -1.054688 4.570312 -0.585938 4.15625 -0.296875 C 3.746094 -0.00390625 3.347656 0.140625 2.964844 0.140625 C 2.207031 0.140625 1.578125 -0.308594 1.070312 -1.203125 C 0.644531 -1.953125 0.433594 -2.863281 0.433594 -3.925781 M 1.582031 -3.78125 C 1.582031 -2.683594 1.71875 -1.792969 1.984375 -1.101562 C 2.207031 -0.519531 2.539062 -0.226562 2.984375 -0.226562 C 3.195312 -0.226562 3.410156 -0.324219 3.640625 -0.511719 C 3.863281 -0.703125 4.039062 -1.019531 4.15625 -1.464844 C 4.332031 -2.136719 4.421875 -3.082031 4.421875 -4.304688 C 4.421875 -5.210938 4.328125 -5.96875 4.140625 -6.574219 C 4 -7.023438 3.820312 -7.34375 3.597656 -7.53125 C 3.4375 -7.65625 3.242188 -7.722656 3.015625 -7.722656 C 2.75 -7.722656 2.515625 -7.601562 2.308594 -7.367188 C 2.027344 -7.039062 1.835938 -6.53125 1.734375 -5.835938 C 1.632812 -5.140625 1.582031 -4.453125 1.582031 -3.78125 Z M 1.582031 -3.78125 "/>
</g>
</g>
</defs>
<rect x="-50.4" y="-43.2" width="604.8" height="518.4" fill="rgb(100%, 100%, 100%)" fill-opacity="1"/>
<path fill="none" stroke-width="0.75" stroke-linecap="round" stroke-linejoin="round" stroke="rgb(66.27451%, 66.27451%, 66.27451%)" stroke-opacity="1" stroke-miterlimit="10" d="M 343.804688 362.914062 L 258.601562 227.832031 "/>
<path fill="none" stroke-width="0.75" stroke-linecap="round" stroke-linejoin="round" stroke="rgb(66.27451%, 66.27451%, 66.27451%)" stroke-opacity="1" stroke-miterlimit="10" d="M 137.8125 345.683594 L 242.023438 226.539062 "/>
<path fill="none" stroke-width="0.75" stroke-linecap="round" stroke-linejoin="round" stroke="rgb(66.27451%, 66.27451%, 66.27451%)" stroke-opacity="1" stroke-miterlimit="10" d="M 365.667969 86.5625 L 260.390625 205.652344 "/>
<path fill="none" stroke-width="0.75" stroke-linecap="round" stroke-linejoin="round" stroke="rgb(66.27451%, 66.27451%, 66.27451%)" stroke-opacity="1" stroke-miterlimit="10" d="M 412.324219 280.773438 L 264.085938 221.253906 "/>
<path fill="none" stroke-width="0.75" stroke-linecap="round" stroke-linejoin="round" stroke="rgb(66.27451%, 66.27451%, 66.27451%)" stroke-opacity="1" stroke-miterlimit="10" d="M 266.070312 44.429688 L 252.382812 202.214844 "/>
<path fill="none" stroke-width="0.75" stroke-linecap="round" stroke-linejoin="round" stroke="rgb(66.27451%, 66.27451%, 66.27451%)" stroke-opacity="1" stroke-miterlimit="10" d="M 89.660156 150.234375 L 238.304688 210.820312 "/>
<path fill="none" stroke-width="0.75" stroke-linecap="round" stroke-linejoin="round" stroke="rgb(66.27451%, 66.27451%, 66.27451%)" stroke-opacity="1" stroke-miterlimit="10" d="M 161.007812 70.910156 L 243.84375 204.257812 "/>
<path fill="none" stroke-width="0.75" stroke-linecap="round" stroke-linejoin="round" stroke="rgb(66.27451%, 66.27451%, 66.27451%)" stroke-opacity="1" stroke-miterlimit="10" d="M 423.875 176.191406 L 264.730469 212.941406 "/>
<path fill="none" stroke-width="0.75" stroke-linecap="round" stroke-linejoin="round" stroke="rgb(66.27451%, 66.27451%, 66.27451%)" stroke-opacity="1" stroke-miterlimit="10" d="M 80.121094 255.808594 L 237.636719 219.21875 "/>
<path fill="none" stroke-width="0.75" stroke-linecap="round" stroke-linejoin="round" stroke="rgb(66.27451%, 66.27451%, 66.27451%)" stroke-opacity="1" stroke-miterlimit="10" d="M 237.398438 387.5625 L 250.066406 229.933594 "/>
<path fill-rule="nonzero" fill="rgb(90.196078%, 62.352941%, 0%)" fill-opacity="1" stroke-width="0.75" stroke-linecap="round" stroke-linejoin="round" stroke="rgb(0%, 0%, 0%)" stroke-opacity="1" stroke-miterlimit="10" d="M 365.128906 374.675781 C 365.128906 382.355469 358.902344 388.582031 351.222656 388.582031 C 343.542969 388.582031 337.316406 382.355469 337.316406 374.675781 C 337.316406 366.996094 343.542969 360.769531 351.222656 360.769531 C 358.902344 360.769531 365.128906 366.996094 365.128906 374.675781 "/>
<path fill-rule="nonzero" fill="rgb(90.196078%, 62.352941%, 0%)" fill-opacity="1" stroke-width="0.75" stroke-linecap="round" stroke-linejoin="round" stroke="rgb(0%, 0%, 0%)" stroke-opacity="1" stroke-miterlimit="10" d="M 142.5625 356.148438 C 142.5625 363.832031 136.335938 370.058594 128.65625 370.058594 C 120.972656 370.058594 114.746094 363.832031 114.746094 356.148438 C 114.746094 348.46875 120.972656 342.242188 128.65625 342.242188 C 136.335938 342.242188 142.5625 348.46875 142.5625 356.148438 "/>
<path fill-rule="nonzero" fill="rgb(90.196078%, 62.352941%, 0%)" fill-opacity="1" stroke-width="0.75" stroke-linecap="round" stroke-linejoin="round" stroke="rgb(0%, 0%, 0%)" stroke-opacity="1" stroke-miterlimit="10" d="M 388.785156 76.144531 C 388.785156 83.824219 382.558594 90.050781 374.878906 90.050781 C 367.199219 90.050781 360.972656 83.824219 360.972656 76.144531 C 360.972656 68.464844 367.199219 62.238281 374.878906 62.238281 C 382.558594 62.238281 388.785156 68.464844 388.785156 76.144531 "/>
<path fill-rule="nonzero" fill="rgb(90.196078%, 62.352941%, 0%)" fill-opacity="1" stroke-width="0.75" stroke-linecap="round" stroke-linejoin="round" stroke="rgb(0%, 0%, 0%)" stroke-opacity="1" stroke-miterlimit="10" d="M 439.136719 285.957031 C 439.136719 293.636719 432.910156 299.863281 425.226562 299.863281 C 417.546875 299.863281 411.320312 293.636719 411.320312 285.957031 C 411.320312 278.273438 417.546875 272.046875 425.226562 272.046875 C 432.910156 272.046875 439.136719 278.273438 439.136719 285.957031 "/>
<path fill-rule="nonzero" fill="rgb(90.196078%, 62.352941%, 0%)" fill-opacity="1" stroke-width="0.75" stroke-linecap="round" stroke-linejoin="round" stroke="rgb(0%, 0%, 0%)" stroke-opacity="1" stroke-miterlimit="10" d="M 281.175781 30.574219 C 281.175781 38.253906 274.953125 44.480469 267.269531 44.480469 C 259.589844 44.480469 253.363281 38.253906 253.363281 30.574219 C 253.363281 22.894531 259.589844 16.667969 267.269531 16.667969 C 274.953125 16.667969 281.175781 22.894531 281.175781 30.574219 "/>
<path fill-rule="nonzero" fill="rgb(90.196078%, 62.352941%, 0%)" fill-opacity="1" stroke-width="0.75" stroke-linecap="round" stroke-linejoin="round" stroke="rgb(0%, 0%, 0%)" stroke-opacity="1" stroke-miterlimit="10" d="M 90.6875 144.988281 C 90.6875 152.667969 84.460938 158.894531 76.78125 158.894531 C 69.097656 158.894531 62.871094 152.667969 62.871094 144.988281 C 62.871094 137.304688 69.097656 131.078125 76.78125 131.078125 C 84.460938 131.078125 90.6875 137.304688 90.6875 144.988281 "/>
<path fill-rule="nonzero" fill="rgb(90.196078%, 62.352941%, 0%)" fill-opacity="1" stroke-width="0.75" stroke-linecap="round" stroke-linejoin="round" stroke="rgb(0%, 0%, 0%)" stroke-opacity="1" stroke-miterlimit="10" d="M 167.574219 59.097656 C 167.574219 66.777344 161.347656 73.003906 153.667969 73.003906 C 145.988281 73.003906 139.761719 66.777344 139.761719 59.097656 C 139.761719 51.417969 145.988281 45.191406 153.667969 45.191406 C 161.347656 45.191406 167.574219 51.417969 167.574219 59.097656 "/>
<path fill-rule="nonzero" fill="rgb(90.196078%, 62.352941%, 0%)" fill-opacity="1" stroke-width="0.75" stroke-linecap="round" stroke-linejoin="round" stroke="rgb(0%, 0%, 0%)" stroke-opacity="1" stroke-miterlimit="10" d="M 451.332031 173.0625 C 451.332031 180.742188 445.105469 186.96875 437.425781 186.96875 C 429.746094 186.96875 423.519531 180.742188 423.519531 173.0625 C 423.519531 165.382812 429.746094 159.15625 437.425781 159.15625 C 445.105469 159.15625 451.332031 165.382812 451.332031 173.0625 "/>
<path fill-rule="nonzero" fill="rgb(90.196078%, 62.352941%, 0%)" fill-opacity="1" stroke-width="0.75" stroke-linecap="round" stroke-linejoin="round" stroke="rgb(0%, 0%, 0%)" stroke-opacity="1" stroke-miterlimit="10" d="M 80.480469 258.953125 C 80.480469 266.632812 74.253906 272.859375 66.574219 272.859375 C 58.894531 272.859375 52.667969 266.632812 52.667969 258.953125 C 52.667969 251.273438 58.894531 245.046875 66.574219 245.046875 C 74.253906 245.046875 80.480469 251.273438 80.480469 258.953125 "/>
<path fill-rule="nonzero" fill="rgb(90.196078%, 62.352941%, 0%)" fill-opacity="1" stroke-width="0.75" stroke-linecap="round" stroke-linejoin="round" stroke="rgb(0%, 0%, 0%)" stroke-opacity="1" stroke-miterlimit="10" d="M 250.191406 401.425781 C 250.191406 409.105469 243.964844 415.332031 236.28125 415.332031 C 228.601562 415.332031 222.375 409.105469 222.375 401.425781 C 222.375 393.746094 228.601562 387.519531 236.28125 387.519531 C 243.964844 387.519531 250.191406 393.746094 250.191406 401.425781 "/>
<path fill-rule="nonzero" fill="rgb(90.196078%, 62.352941%, 0%)" fill-opacity="1" stroke-width="0.75" stroke-linecap="round" stroke-linejoin="round" stroke="rgb(0%, 0%, 0%)" stroke-opacity="1" stroke-miterlimit="10" d="M 265.089844 216.070312 C 265.089844 223.75 258.863281 229.976562 251.179688 229.976562 C 243.5 229.976562 237.273438 223.75 237.273438 216.070312 C 237.273438 208.390625 243.5 202.164062 251.179688 202.164062 C 258.863281 202.164062 265.089844 208.390625 265.089844 216.070312 "/>
<g fill="rgb(0%, 0%, 54.509804%)" fill-opacity="1">
<use xlink:href="#glyph-0-0" x="348.222656" y="378.730469"/>
</g>
<g fill="rgb(0%, 0%, 54.509804%)" fill-opacity="1">
<use xlink:href="#glyph-0-1" x="125.65625" y="360.203125"/>
</g>
<g fill="rgb(0%, 0%, 54.509804%)" fill-opacity="1">
<use xlink:href="#glyph-0-2" x="371.878906" y="80.128906"/>
</g>
<g fill="rgb(0%, 0%, 54.509804%)" fill-opacity="1">
<use xlink:href="#glyph-0-3" x="422.226562" y="290.011719"/>
</g>
<g fill="rgb(0%, 0%, 54.509804%)" fill-opacity="1">
<use xlink:href="#glyph-0-4" x="264.269531" y="34.476562"/>
</g>
<g fill="rgb(0%, 0%, 54.509804%)" fill-opacity="1">
<use xlink:href="#glyph-0-5" x="73.78125" y="148.972656"/>
</g>
<g fill="rgb(0%, 0%, 54.509804%)" fill-opacity="1">
<use xlink:href="#glyph-0-6" x="150.667969" y="62.988281"/>
</g>
<g fill="rgb(0%, 0%, 54.509804%)" fill-opacity="1">
<use xlink:href="#glyph-0-7" x="434.425781" y="177.046875"/>
</g>
<g fill="rgb(0%, 0%, 54.509804%)" fill-opacity="1">
<use xlink:href="#glyph-0-8" x="63.574219" y="262.925781"/>
</g>
<g fill="rgb(0%, 0%, 54.509804%)" fill-opacity="1">
<use xlink:href="#glyph-0-0" x="230.28125" y="405.410156"/>
<use xlink:href="#glyph-0-9" x="236.28125" y="405.410156"/>
</g>
<g fill="rgb(0%, 0%, 54.509804%)" fill-opacity="1">
<use xlink:href="#glyph-0-0" x="245.179688" y="220.125"/>
<use xlink:href="#glyph-0-0" x="251.179688" y="220.125"/>
</g>
</svg>
