<?xml version="1.0" encoding="UTF-8"?>
<svg xmlns="http://www.w3.org/2000/svg" xmlns:xlink="http://www.w3.org/1999/xlink" width="504" height="432" viewBox="0 0 504 432">
<defs>
<g>
<g id="glyph-0-0">
<path d="M 3.414062 -0.773438 C 2.867188 -0.347656 2.519531 -0.101562 2.378906 -0.0351562 C 2.167969 0.0625 1.941406 0.109375 1.703125 0.109375 C 1.332031 0.109375 1.027344 -0.015625 0.789062 -0.269531 C 0.546875 -0.523438 0.429688 -0.855469 0.429688 -1.273438 C 0.429688 -1.53125 0.484375 -1.757812 0.601562 -1.953125 C 0.761719 -2.214844 1.042969 -2.46875 1.4375 -2.703125 C 1.835938 -2.9375 2.492188 -3.21875 3.414062 -3.554688 L 3.414062 -3.765625 C 3.414062 -4.300781 3.332031 -4.667969 3.160156 -4.867188 C 2.992188 -5.066406 2.742188 -5.167969 2.421875 -5.167969 C 2.171875 -5.167969 1.976562 -5.101562 1.835938 -4.96875 C 1.683594 -4.835938 1.609375 -4.683594 1.609375 -4.511719 L 1.625 -4.171875 C 1.625 -3.992188 1.578125 -3.851562 1.484375 -3.757812 C 1.394531 -3.65625 1.273438 -3.609375 1.125 -3.609375 C 0.980469 -3.609375 0.863281 -3.660156 0.769531 -3.761719 C 0.679688 -3.863281 0.632812 -4 0.632812 -4.179688 C 0.632812 -4.511719 0.804688 -4.820312 1.148438 -5.101562 C 1.492188 -5.382812 1.976562 -5.523438 2.59375 -5.523438 C 3.070312 -5.523438 3.460938 -5.445312 3.765625 -5.285156 C 3.996094 -5.164062 4.167969 -4.976562 4.277344 -4.71875 C 4.347656 -4.546875 4.382812 -4.203125 4.382812 -3.6875 L 4.382812 -1.863281 C 4.382812 -1.351562 4.390625 -1.039062 4.414062 -0.921875 C 4.429688 -0.808594 4.464844 -0.730469 4.507812 -0.691406 C 4.554688 -0.652344 4.605469 -0.632812 4.664062 -0.632812 C 4.726562 -0.632812 4.78125 -0.644531 4.828125 -0.671875 C 4.910156 -0.722656 5.070312 -0.867188 5.304688 -1.101562 L 5.304688 -0.773438 C 4.863281 -0.1875 4.445312 0.105469 4.046875 0.105469 C 3.855469 0.105469 3.703125 0.0390625 3.59375 -0.09375 C 3.476562 -0.226562 3.417969 -0.453125 3.414062 -0.773438 M 3.414062 -1.15625 L 3.414062 -3.199219 C 2.824219 -2.964844 2.445312 -2.796875 2.273438 -2.703125 C 1.964844 -2.527344 1.742188 -2.347656 1.609375 -2.164062 C 1.476562 -1.976562 1.414062 -1.769531 1.414062 -1.546875 C 1.414062 -1.265625 1.496094 -1.03125 1.664062 -0.847656 C 1.832031 -0.660156 2.023438 -0.570312 2.242188 -0.570312 C 2.539062 -0.570312 2.929688 -0.765625 3.414062 -1.15625 Z M 3.414062 -1.15625 "/>
</g>
<g id="glyph-0-1">
<path d="M 4.933594 -2.039062 C 4.789062 -1.332031 4.507812 -0.789062 4.085938 -0.40625 C 3.664062 -0.0273438 3.195312 0.164062 2.683594 0.164062 C 2.074219 0.164062 1.542969 -0.09375 1.089844 -0.601562 C 0.636719 -1.113281 0.410156 -1.804688 0.410156 -2.679688 C 0.410156 -3.523438 0.660156 -4.207031 1.164062 -4.734375 C 1.664062 -5.261719 2.265625 -5.523438 2.96875 -5.523438 C 3.5 -5.523438 3.929688 -5.386719 4.273438 -5.105469 C 4.609375 -4.828125 4.78125 -4.535156 4.78125 -4.234375 C 4.78125 -4.085938 4.734375 -3.96875 4.636719 -3.875 C 4.542969 -3.785156 4.40625 -3.738281 4.234375 -3.738281 C 4.003906 -3.738281 3.832031 -3.8125 3.714844 -3.960938 C 3.648438 -4.042969 3.605469 -4.199219 3.582031 -4.429688 C 3.5625 -4.660156 3.480469 -4.835938 3.34375 -4.957031 C 3.207031 -5.074219 3.019531 -5.132812 2.777344 -5.132812 C 2.386719 -5.132812 2.070312 -4.988281 1.835938 -4.699219 C 1.515625 -4.316406 1.359375 -3.808594 1.359375 -3.179688 C 1.359375 -2.539062 1.515625 -1.976562 1.832031 -1.484375 C 2.144531 -0.996094 2.570312 -0.75 3.105469 -0.75 C 3.488281 -0.75 3.832031 -0.878906 4.136719 -1.140625 C 4.351562 -1.320312 4.558594 -1.648438 4.765625 -2.121094 Z M 4.933594 -2.039062 "/>
</g>
<g id="glyph-0-2">
<path d="M 4.164062 -0.601562 C 3.902344 -0.332031 3.648438 -0.132812 3.398438 -0.015625 C 3.148438 0.105469 2.878906 0.164062 2.589844 0.164062 C 2.003906 0.164062 1.492188 -0.0820312 1.054688 -0.570312 C 0.617188 -1.0625 0.398438 -1.691406 0.398438 -2.460938 C 0.398438 -3.230469 0.640625 -3.933594 1.125 -4.574219 C 1.609375 -5.210938 2.234375 -5.53125 2.992188 -5.53125 C 3.464844 -5.53125 3.855469 -5.378906 4.164062 -5.078125 L 4.164062 -6.070312 C 4.164062 -6.683594 4.152344 -7.0625 4.121094 -7.203125 C 4.09375 -7.34375 4.046875 -7.4375 3.984375 -7.488281 C 3.921875 -7.539062 3.84375 -7.5625 3.75 -7.5625 C 3.648438 -7.5625 3.511719 -7.53125 3.34375 -7.46875 L 3.269531 -7.675781 L 4.867188 -8.332031 L 5.132812 -8.332031 L 5.132812 -2.125 C 5.132812 -1.496094 5.148438 -1.113281 5.175781 -0.976562 C 5.207031 -0.835938 5.253906 -0.738281 5.316406 -0.6875 C 5.382812 -0.628906 5.457031 -0.601562 5.542969 -0.601562 C 5.648438 -0.601562 5.789062 -0.636719 5.964844 -0.703125 L 6.03125 -0.5 L 4.4375 0.164062 L 4.164062 0.164062 L 4.164062 -0.601562 M 4.164062 -1.015625 L 4.164062 -3.78125 C 4.140625 -4.042969 4.070312 -4.285156 3.953125 -4.507812 C 3.835938 -4.722656 3.683594 -4.890625 3.488281 -5 C 3.296875 -5.113281 3.105469 -5.167969 2.921875 -5.167969 C 2.578125 -5.167969 2.273438 -5.011719 2.003906 -4.703125 C 1.648438 -4.296875 1.46875 -3.703125 1.46875 -2.921875 C 1.46875 -2.132812 1.640625 -1.53125 1.984375 -1.109375 C 2.328125 -0.691406 2.710938 -0.480469 3.132812 -0.480469 C 3.488281 -0.480469 3.832031 -0.65625 4.164062 -1.015625 Z M 4.164062 -1.015625 "/>
</g>
<g id="glyph-0-3">
<path d="M 1.84375 -4.441406 C 2.363281 -5.164062 2.925781 -5.523438 3.527344 -5.523438 C 4.078125 -5.523438 4.558594 -5.289062 4.96875 -4.820312 C 5.378906 -4.347656 5.585938 -3.703125 5.585938 -2.890625 C 5.585938 -1.933594 5.265625 -1.167969 4.632812 -0.585938 C 4.089844 -0.0859375 3.484375 0.164062 2.820312 0.164062 C 2.503906 0.164062 2.1875 0.105469 1.867188 -0.0078125 C 1.542969 -0.117188 1.214844 -0.289062 0.878906 -0.515625 L 0.878906 -6.078125 C 0.878906 -6.6875 0.863281 -7.0625 0.835938 -7.203125 C 0.804688 -7.34375 0.757812 -7.4375 0.695312 -7.488281 C 0.632812 -7.539062 0.554688 -7.5625 0.460938 -7.5625 C 0.351562 -7.5625 0.214844 -7.53125 0.0546875 -7.46875 L -0.03125 -7.675781 L 1.582031 -8.332031 L 1.84375 -8.332031 L 1.84375 -4.441406 M 1.84375 -4.066406 L 1.84375 -0.855469 C 2.046875 -0.660156 2.25 -0.511719 2.464844 -0.414062 C 2.675781 -0.3125 2.894531 -0.265625 3.117188 -0.265625 C 3.472656 -0.265625 3.804688 -0.460938 4.109375 -0.851562 C 4.417969 -1.238281 4.570312 -1.808594 4.570312 -2.554688 C 4.570312 -3.242188 4.417969 -3.769531 4.109375 -4.140625 C 3.804688 -4.507812 3.453125 -4.691406 3.0625 -4.695312 C 2.855469 -4.691406 2.648438 -4.640625 2.445312 -4.535156 C 2.285156 -4.457031 2.085938 -4.300781 1.84375 -4.066406 Z M 1.84375 -4.066406 "/>
</g>
<g id="glyph-0-4">
<path d="M 1.277344 -3.34375 C 1.273438 -2.546875 1.464844 -1.921875 1.859375 -1.46875 C 2.246094 -1.015625 2.707031 -0.789062 3.234375 -0.789062 C 3.585938 -0.789062 3.890625 -0.886719 4.152344 -1.082031 C 4.410156 -1.273438 4.628906 -1.605469 4.804688 -2.074219 L 4.984375 -1.957031 C 4.90625 -1.421875 4.664062 -0.933594 4.273438 -0.496094 C 3.875 -0.0546875 3.382812 0.164062 2.789062 0.164062 C 2.144531 0.164062 1.59375 -0.0859375 1.132812 -0.589844 C 0.675781 -1.089844 0.445312 -1.765625 0.445312 -2.613281 C 0.445312 -3.53125 0.679688 -4.246094 1.152344 -4.761719 C 1.621094 -5.273438 2.214844 -5.53125 2.921875 -5.53125 C 3.523438 -5.53125 4.019531 -5.332031 4.40625 -4.9375 C 4.792969 -4.539062 4.984375 -4.007812 4.984375 -3.34375 L 1.277344 -3.34375 M 1.277344 -3.6875 L 3.761719 -3.6875 C 3.742188 -4.027344 3.699219 -4.273438 3.640625 -4.414062 C 3.539062 -4.628906 3.394531 -4.800781 3.203125 -4.929688 C 3.007812 -5.050781 2.804688 -5.113281 2.59375 -5.117188 C 2.269531 -5.113281 1.980469 -4.988281 1.726562 -4.738281 C 1.46875 -4.484375 1.320312 -4.132812 1.277344 -3.6875 Z M 1.277344 -3.6875 "/>
</g>
<g id="glyph-0-5">
<path d="M 2.472656 -4.945312 L 2.472656 -1.417969 C 2.472656 -0.917969 2.527344 -0.601562 2.636719 -0.46875 C 2.78125 -0.296875 2.972656 -0.210938 3.21875 -0.210938 L 3.703125 -0.210938 L 3.703125 0 L 0.5 0 L 0.5 -0.210938 L 0.738281 -0.210938 C 0.894531 -0.210938 1.039062 -0.25 1.164062 -0.328125 C 1.296875 -0.40625 1.382812 -0.511719 1.433594 -0.644531 C 1.480469 -0.777344 1.507812 -1.035156 1.507812 -1.417969 L 1.507812 -4.945312 L 0.460938 -4.945312 L 0.460938 -5.367188 L 1.507812 -5.367188 L 1.507812 -5.71875 C 1.507812 -6.253906 1.589844 -6.707031 1.765625 -7.078125 C 1.933594 -7.449219 2.199219 -7.75 2.550781 -7.976562 C 2.90625 -8.207031 3.300781 -8.320312 3.742188 -8.320312 C 4.15625 -8.320312 4.53125 -8.1875 4.875 -7.921875 C 5.101562 -7.746094 5.214844 -7.546875 5.214844 -7.328125 C 5.214844 -7.210938 5.164062 -7.101562 5.0625 -7 C 4.960938 -6.894531 4.851562 -6.84375 4.734375 -6.84375 C 4.644531 -6.84375 4.550781 -6.875 4.449219 -6.941406 C 4.351562 -7.003906 4.226562 -7.144531 4.085938 -7.355469 C 3.9375 -7.570312 3.804688 -7.710938 3.6875 -7.789062 C 3.5625 -7.859375 3.429688 -7.898438 3.28125 -7.898438 C 3.101562 -7.898438 2.949219 -7.851562 2.824219 -7.753906 C 2.699219 -7.660156 2.609375 -7.511719 2.554688 -7.308594 C 2.5 -7.109375 2.472656 -6.589844 2.472656 -5.753906 L 2.472656 -5.367188 L 3.855469 -5.367188 L 3.855469 -4.945312 Z M 2.472656 -4.945312 "/>
</g>
<g id="glyph-0-6">
<path d="M 1.8125 -1.957031 C 1.480469 -2.117188 1.230469 -2.339844 1.054688 -2.628906 C 0.878906 -2.914062 0.789062 -3.230469 0.789062 -3.578125 C 0.789062 -4.109375 0.992188 -4.566406 1.390625 -4.953125 C 1.792969 -5.332031 2.304688 -5.523438 2.929688 -5.523438 C 3.441406 -5.523438 3.882812 -5.398438 4.257812 -5.148438 L 5.398438 -5.148438 C 5.5625 -5.148438 5.660156 -5.144531 5.6875 -5.136719 C 5.714844 -5.125 5.734375 -5.109375 5.75 -5.085938 C 5.769531 -5.050781 5.78125 -4.988281 5.78125 -4.898438 C 5.78125 -4.796875 5.773438 -4.726562 5.753906 -4.6875 C 5.742188 -4.667969 5.722656 -4.652344 5.691406 -4.640625 C 5.664062 -4.628906 5.5625 -4.621094 5.398438 -4.625 L 4.699219 -4.625 C 4.917969 -4.34375 5.027344 -3.980469 5.027344 -3.546875 C 5.027344 -3.042969 4.835938 -2.617188 4.453125 -2.261719 C 4.070312 -1.90625 3.554688 -1.726562 2.914062 -1.726562 C 2.644531 -1.726562 2.375 -1.765625 2.097656 -1.84375 C 1.925781 -1.695312 1.808594 -1.566406 1.75 -1.457031 C 1.6875 -1.34375 1.65625 -1.25 1.65625 -1.171875 C 1.65625 -1.105469 1.691406 -1.039062 1.753906 -0.976562 C 1.820312 -0.914062 1.945312 -0.871094 2.132812 -0.84375 C 2.242188 -0.828125 2.515625 -0.8125 2.953125 -0.804688 C 3.757812 -0.78125 4.277344 -0.757812 4.515625 -0.71875 C 4.878906 -0.667969 5.171875 -0.535156 5.386719 -0.316406 C 5.605469 -0.0976562 5.710938 0.171875 5.710938 0.492188 C 5.710938 0.933594 5.503906 1.347656 5.09375 1.734375 C 4.484375 2.304688 3.6875 2.589844 2.707031 2.589844 C 1.953125 2.589844 1.316406 2.421875 0.796875 2.078125 C 0.503906 1.882812 0.359375 1.679688 0.359375 1.46875 C 0.359375 1.375 0.378906 1.28125 0.421875 1.1875 C 0.488281 1.042969 0.625 0.84375 0.832031 0.585938 C 0.859375 0.550781 1.058594 0.339844 1.429688 -0.046875 C 1.226562 -0.167969 1.082031 -0.277344 1 -0.371094 C 0.914062 -0.46875 0.875 -0.574219 0.875 -0.695312 C 0.875 -0.832031 0.929688 -0.992188 1.039062 -1.179688 C 1.152344 -1.359375 1.40625 -1.621094 1.8125 -1.957031 M 2.828125 -5.242188 C 2.539062 -5.242188 2.296875 -5.128906 2.101562 -4.898438 C 1.90625 -4.667969 1.8125 -4.3125 1.8125 -3.835938 C 1.8125 -3.21875 1.941406 -2.742188 2.210938 -2.402344 C 2.410156 -2.144531 2.667969 -2.015625 2.984375 -2.015625 C 3.277344 -2.015625 3.523438 -2.125 3.714844 -2.351562 C 3.90625 -2.570312 4 -2.921875 4 -3.398438 C 4 -4.019531 3.867188 -4.507812 3.597656 -4.859375 C 3.398438 -5.117188 3.140625 -5.242188 2.828125 -5.242188 M 1.75 0 C 1.566406 0.199219 1.429688 0.382812 1.335938 0.554688 C 1.242188 0.726562 1.195312 0.886719 1.195312 1.03125 C 1.195312 1.21875 1.308594 1.382812 1.535156 1.523438 C 1.925781 1.765625 2.492188 1.886719 3.226562 1.886719 C 3.929688 1.886719 4.449219 1.761719 4.785156 1.515625 C 5.117188 1.265625 5.285156 1 5.285156 0.71875 C 5.285156 0.515625 5.1875 0.371094 4.984375 0.289062 C 4.78125 0.199219 4.378906 0.148438 3.78125 0.132812 C 2.898438 0.109375 2.222656 0.0664062 1.75 0 Z M 1.75 0 "/>
</g>
<g id="glyph-0-7">
<path d="M 1.953125 -8.332031 L 1.953125 -4.40625 C 2.382812 -4.882812 2.726562 -5.1875 2.984375 -5.324219 C 3.234375 -5.457031 3.488281 -5.523438 3.742188 -5.523438 C 4.046875 -5.523438 4.308594 -5.441406 4.53125 -5.273438 C 4.746094 -5.105469 4.910156 -4.839844 5.015625 -4.484375 C 5.089844 -4.230469 5.125 -3.773438 5.125 -3.109375 L 5.125 -1.210938 C 5.125 -0.875 5.152344 -0.640625 5.210938 -0.515625 C 5.246094 -0.421875 5.3125 -0.347656 5.40625 -0.292969 C 5.5 -0.238281 5.671875 -0.210938 5.921875 -0.210938 L 5.921875 0 L 3.289062 0 L 3.289062 -0.210938 L 3.410156 -0.210938 C 3.660156 -0.210938 3.832031 -0.25 3.929688 -0.324219 C 4.027344 -0.402344 4.097656 -0.511719 4.136719 -0.664062 C 4.148438 -0.722656 4.15625 -0.90625 4.15625 -1.210938 L 4.15625 -3.109375 C 4.15625 -3.695312 4.125 -4.082031 4.0625 -4.265625 C 4.003906 -4.449219 3.90625 -4.585938 3.773438 -4.679688 C 3.640625 -4.769531 3.480469 -4.816406 3.292969 -4.816406 C 3.101562 -4.816406 2.902344 -4.765625 2.695312 -4.664062 C 2.488281 -4.5625 2.238281 -4.355469 1.953125 -4.046875 L 1.953125 -1.210938 C 1.953125 -0.84375 1.972656 -0.617188 2.011719 -0.527344 C 2.054688 -0.4375 2.128906 -0.363281 2.242188 -0.300781 C 2.351562 -0.242188 2.542969 -0.210938 2.820312 -0.210938 L 2.820312 0 L 0.15625 0 L 0.15625 -0.210938 C 0.394531 -0.210938 0.582031 -0.246094 0.71875 -0.320312 C 0.796875 -0.359375 0.859375 -0.433594 0.90625 -0.546875 C 0.953125 -0.652344 0.976562 -0.875 0.976562 -1.210938 L 0.976562 -6.070312 C 0.976562 -6.683594 0.964844 -7.0625 0.933594 -7.203125 C 0.90625 -7.34375 0.859375 -7.4375 0.800781 -7.488281 C 0.738281 -7.539062 0.65625 -7.5625 0.554688 -7.5625 C 0.476562 -7.5625 0.339844 -7.53125 0.15625 -7.46875 L 0.078125 -7.675781 L 1.679688 -8.332031 Z M 1.953125 -8.332031 "/>
</g>
<g id="glyph-0-8">
<path d="M 1.742188 -8.332031 C 1.90625 -8.332031 2.042969 -8.273438 2.160156 -8.160156 C 2.273438 -8.042969 2.332031 -7.90625 2.332031 -7.742188 C 2.332031 -7.578125 2.273438 -7.4375 2.160156 -7.320312 C 2.042969 -7.203125 1.90625 -7.140625 1.742188 -7.140625 C 1.578125 -7.140625 1.433594 -7.203125 1.320312 -7.320312 C 1.199219 -7.4375 1.140625 -7.578125 1.140625 -7.742188 C 1.140625 -7.90625 1.199219 -8.042969 1.316406 -8.160156 C 1.429688 -8.273438 1.570312 -8.332031 1.742188 -8.332031 M 2.226562 -5.523438 L 2.226562 -1.210938 C 2.226562 -0.875 2.25 -0.652344 2.300781 -0.542969 C 2.347656 -0.429688 2.421875 -0.347656 2.515625 -0.292969 C 2.613281 -0.238281 2.785156 -0.210938 3.039062 -0.210938 L 3.039062 0 L 0.433594 0 L 0.433594 -0.210938 C 0.695312 -0.210938 0.871094 -0.234375 0.960938 -0.289062 C 1.050781 -0.335938 1.121094 -0.421875 1.175781 -0.539062 C 1.226562 -0.65625 1.253906 -0.878906 1.253906 -1.210938 L 1.253906 -3.28125 C 1.253906 -3.863281 1.234375 -4.238281 1.203125 -4.414062 C 1.171875 -4.535156 1.128906 -4.625 1.070312 -4.671875 C 1.015625 -4.722656 0.933594 -4.746094 0.832031 -4.746094 C 0.722656 -4.746094 0.589844 -4.714844 0.433594 -4.65625 L 0.351562 -4.867188 L 1.96875 -5.523438 Z M 2.226562 -5.523438 "/>
</g>
<g id="glyph-0-9">
<path d="M 1.734375 -8.335938 C 1.902344 -8.335938 2.046875 -8.28125 2.164062 -8.164062 C 2.277344 -8.046875 2.335938 -7.902344 2.335938 -7.734375 C 2.335938 -7.570312 2.277344 -7.429688 2.164062 -7.3125 C 2.046875 -7.195312 1.902344 -7.136719 1.734375 -7.136719 C 1.570312 -7.136719 1.429688 -7.195312 1.3125 -7.3125 C 1.195312 -7.429688 1.136719 -7.570312 1.136719 -7.734375 C 1.136719 -7.902344 1.195312 -8.046875 1.3125 -8.164062 C 1.429688 -8.28125 1.570312 -8.335938 1.734375 -8.335938 M 2.238281 -5.523438 L 2.238281 -0.125 C 2.238281 0.792969 2.042969 1.476562 1.652344 1.921875 C 1.261719 2.367188 0.753906 2.589844 0.128906 2.589844 C -0.226562 2.589844 -0.488281 2.523438 -0.664062 2.398438 C -0.832031 2.265625 -0.921875 2.132812 -0.921875 2 C -0.921875 1.859375 -0.871094 1.742188 -0.777344 1.648438 C -0.679688 1.546875 -0.566406 1.5 -0.4375 1.5 C -0.335938 1.5 -0.234375 1.523438 -0.128906 1.578125 C -0.0625 1.601562 0.0664062 1.703125 0.253906 1.871094 C 0.445312 2.042969 0.601562 2.125 0.734375 2.125 C 0.828125 2.125 0.917969 2.089844 1.007812 2.019531 C 1.097656 1.945312 1.164062 1.824219 1.207031 1.65625 C 1.25 1.484375 1.273438 1.117188 1.273438 0.550781 L 1.273438 -3.269531 C 1.273438 -3.859375 1.253906 -4.238281 1.21875 -4.40625 C 1.191406 -4.535156 1.148438 -4.625 1.089844 -4.671875 C 1.03125 -4.722656 0.949219 -4.746094 0.851562 -4.746094 C 0.738281 -4.746094 0.605469 -4.714844 0.453125 -4.65625 L 0.367188 -4.867188 L 1.984375 -5.523438 Z M 2.238281 -5.523438 "/>
</g>
</g>
</defs>
<rect x="-50.4" y="-43.2" width="604.8" height="518.4" fill="rgb(100%, 100%, 100%)" fill-opacity="1"/>
<path fill="none" stroke-width="0.75" stroke-linecap="round" stroke-linejoin="round" stroke="rgb(66.27451%, 66.27451%, 66.27451%)" stroke-opacity="1" stroke-miterlimit="10" d="M 423.949219 87.859375 L 377.746094 76.125 "/>
<path fill="none" stroke-width="0.75" stroke-linecap="round" stroke-linejoin="round" stroke="rgb(66.27451%, 66.27451%, 66.27451%)" stroke-opacity="1" stroke-miterlimit="10" d="M 427.363281 100.882812 L 397.988281 128.910156 "/>
<path fill="none" stroke-width="0.75" stroke-linecap="round" stroke-linejoin="round" stroke="rgb(66.27451%, 66.27451%, 66.27451%)" stroke-opacity="1" stroke-miterlimit="10" d="M 432.742188 78.1875 L 420.402344 43.667969 "/>
<path fill="none" stroke-width="0.75" stroke-linecap="round" stroke-linejoin="round" stroke="rgb(66.27451%, 66.27451%, 66.27451%)" stroke-opacity="1" stroke-miterlimit="10" d="M 375.027344 63.894531 L 404.957031 39.382812 "/>
<path fill="none" stroke-width="0.75" stroke-linecap="round" stroke-linejoin="round" stroke="rgb(66.27451%, 66.27451%, 66.27451%)" stroke-opacity="1" stroke-miterlimit="10" d="M 391.394531 125.042969 L 412.25 44.042969 "/>
<path fill="none" stroke-width="0.75" stroke-linecap="round" stroke-linejoin="round" stroke="rgb(66.27451%, 66.27451%, 66.27451%)" stroke-opacity="1" stroke-miterlimit="10" d="M 356.855469 84.472656 L 309.785156 159.226562 "/>
<path fill="none" stroke-width="0.75" stroke-linecap="round" stroke-linejoin="round" stroke="rgb(66.27451%, 66.27451%, 66.27451%)" stroke-opacity="1" stroke-miterlimit="10" d="M 374.925781 143.449219 L 315.375 166.058594 "/>
<path fill="none" stroke-width="0.75" stroke-linecap="round" stroke-linejoin="round" stroke="rgb(66.27451%, 66.27451%, 66.27451%)" stroke-opacity="1" stroke-miterlimit="10" d="M 291.976562 180.230469 L 211.882812 251.371094 "/>
<path fill="none" stroke-width="0.75" stroke-linecap="round" stroke-linejoin="round" stroke="rgb(66.27451%, 66.27451%, 66.27451%)" stroke-opacity="1" stroke-miterlimit="10" d="M 188.492188 265.566406 L 128.964844 288.296875 "/>
<path fill="none" stroke-width="0.75" stroke-linecap="round" stroke-linejoin="round" stroke="rgb(66.27451%, 66.27451%, 66.27451%)" stroke-opacity="1" stroke-miterlimit="10" d="M 194.105469 272.390625 L 146.914062 347.785156 "/>
<path fill="none" stroke-width="0.75" stroke-linecap="round" stroke-linejoin="round" stroke="rgb(66.27451%, 66.27451%, 66.27451%)" stroke-opacity="1" stroke-miterlimit="10" d="M 105.96875 302.917969 L 76.578125 331.289062 "/>
<path fill="none" stroke-width="0.75" stroke-linecap="round" stroke-linejoin="round" stroke="rgb(66.27451%, 66.27451%, 66.27451%)" stroke-opacity="1" stroke-miterlimit="10" d="M 112.574219 306.746094 L 92.097656 387.941406 "/>
<path fill="none" stroke-width="0.75" stroke-linecap="round" stroke-linejoin="round" stroke="rgb(66.27451%, 66.27451%, 66.27451%)" stroke-opacity="1" stroke-miterlimit="10" d="M 126.0625 356.132812 L 80.046875 344.386719 "/>
<path fill="none" stroke-width="0.75" stroke-linecap="round" stroke-linejoin="round" stroke="rgb(66.27451%, 66.27451%, 66.27451%)" stroke-opacity="1" stroke-miterlimit="10" d="M 128.800781 368.414062 L 99.433594 392.585938 "/>
<path fill="none" stroke-width="0.75" stroke-linecap="round" stroke-linejoin="round" stroke="rgb(66.27451%, 66.27451%, 66.27451%)" stroke-opacity="1" stroke-miterlimit="10" d="M 71.351562 354.007812 L 83.917969 388.367188 "/>
<path fill-rule="nonzero" fill="rgb(100%, 0%, 0%)" fill-opacity="1" stroke-width="0.75" stroke-linecap="round" stroke-linejoin="round" stroke="rgb(0%, 0%, 0%)" stroke-opacity="1" stroke-miterlimit="10" d="M 451.332031 91.285156 C 451.332031 98.964844 445.105469 105.191406 437.425781 105.191406 C 429.746094 105.191406 423.519531 98.964844 423.519531 91.285156 C 423.519531 83.605469 429.746094 77.378906 437.425781 77.378906 C 445.105469 77.378906 451.332031 83.605469 451.332031 91.285156 "/>
<path fill-rule="nonzero" fill="rgb(0%, 0%, 100%)" fill-opacity="1" stroke-width="0.75" stroke-linecap="round" stroke-linejoin="round" stroke="rgb(0%, 0%, 0%)" stroke-opacity="1" stroke-miterlimit="10" d="M 378.171875 72.703125 C 378.171875 80.382812 371.945312 86.609375 364.265625 86.609375 C 356.585938 86.609375 350.359375 80.382812 350.359375 72.703125 C 350.359375 65.023438 356.585938 58.796875 364.265625 58.796875 C 371.945312 58.796875 378.171875 65.023438 378.171875 72.703125 "/>
<path fill-rule="nonzero" fill="rgb(0%, 0%, 100%)" fill-opacity="1" stroke-width="0.75" stroke-linecap="round" stroke-linejoin="round" stroke="rgb(0%, 0%, 0%)" stroke-opacity="1" stroke-miterlimit="10" d="M 401.835938 138.511719 C 401.835938 146.191406 395.609375 152.417969 387.929688 152.417969 C 380.246094 152.417969 374.019531 146.191406 374.019531 138.511719 C 374.019531 130.832031 380.246094 124.605469 387.929688 124.605469 C 395.609375 124.605469 401.835938 130.832031 401.835938 138.511719 "/>
<path fill-rule="nonzero" fill="rgb(100%, 0%, 0%)" fill-opacity="1" stroke-width="0.75" stroke-linecap="round" stroke-linejoin="round" stroke="rgb(0%, 0%, 0%)" stroke-opacity="1" stroke-miterlimit="10" d="M 429.625 30.574219 C 429.625 38.253906 423.398438 44.480469 415.71875 44.480469 C 408.039062 44.480469 401.8125 38.253906 401.8125 30.574219 C 401.8125 22.894531 408.039062 16.667969 415.71875 16.667969 C 423.398438 16.667969 429.625 22.894531 429.625 30.574219 "/>
<path fill-rule="nonzero" fill="rgb(0%, 0%, 0%)" fill-opacity="1" stroke-width="0.75" stroke-linecap="round" stroke-linejoin="round" stroke="rgb(0%, 0%, 0%)" stroke-opacity="1" stroke-miterlimit="10" d="M 316.28125 170.996094 C 316.28125 178.675781 310.054688 184.902344 302.375 184.902344 C 294.695312 184.902344 288.46875 178.675781 288.46875 170.996094 C 288.46875 163.316406 294.695312 157.089844 302.375 157.089844 C 310.054688 157.089844 316.28125 163.316406 316.28125 170.996094 "/>
<path fill-rule="nonzero" fill="rgb(0%, 0%, 0%)" fill-opacity="1" stroke-width="0.75" stroke-linecap="round" stroke-linejoin="round" stroke="rgb(0%, 0%, 0%)" stroke-opacity="1" stroke-miterlimit="10" d="M 215.390625 260.605469 C 215.390625 268.285156 209.164062 274.511719 201.484375 274.511719 C 193.804688 274.511719 187.578125 268.285156 187.578125 260.605469 C 187.578125 252.921875 193.804688 246.699219 201.484375 246.699219 C 209.164062 246.699219 215.390625 252.921875 215.390625 260.605469 "/>
<path fill-rule="nonzero" fill="rgb(0%, 100%, 0%)" fill-opacity="1" stroke-width="0.75" stroke-linecap="round" stroke-linejoin="round" stroke="rgb(0%, 0%, 0%)" stroke-opacity="1" stroke-miterlimit="10" d="M 129.878906 293.261719 C 129.878906 300.941406 123.652344 307.167969 115.972656 307.167969 C 108.292969 307.167969 102.066406 300.941406 102.066406 293.261719 C 102.066406 285.578125 108.292969 279.351562 115.972656 279.351562 C 123.652344 279.351562 129.878906 285.578125 129.878906 293.261719 "/>
<path fill-rule="nonzero" fill="rgb(0%, 100%, 0%)" fill-opacity="1" stroke-width="0.75" stroke-linecap="round" stroke-linejoin="round" stroke="rgb(0%, 0%, 0%)" stroke-opacity="1" stroke-miterlimit="10" d="M 153.441406 359.574219 C 153.441406 367.253906 147.214844 373.480469 139.535156 373.480469 C 131.855469 373.480469 125.628906 367.253906 125.628906 359.574219 C 125.628906 351.894531 131.855469 345.667969 139.535156 345.667969 C 147.214844 345.667969 153.441406 351.894531 153.441406 359.574219 "/>
<path fill-rule="nonzero" fill="rgb(100%, 64.705882%, 0%)" fill-opacity="1" stroke-width="0.75" stroke-linecap="round" stroke-linejoin="round" stroke="rgb(0%, 0%, 0%)" stroke-opacity="1" stroke-miterlimit="10" d="M 80.480469 340.945312 C 80.480469 348.625 74.253906 354.851562 66.574219 354.851562 C 58.894531 354.851562 52.667969 348.625 52.667969 340.945312 C 52.667969 333.265625 58.894531 327.039062 66.574219 327.039062 C 74.253906 327.039062 80.480469 333.265625 80.480469 340.945312 "/>
<path fill-rule="nonzero" fill="rgb(100%, 64.705882%, 0%)" fill-opacity="1" stroke-width="0.75" stroke-linecap="round" stroke-linejoin="round" stroke="rgb(0%, 0%, 0%)" stroke-opacity="1" stroke-miterlimit="10" d="M 102.601562 401.425781 C 102.601562 409.105469 96.375 415.332031 88.695312 415.332031 C 81.015625 415.332031 74.789062 409.105469 74.789062 401.425781 C 74.789062 393.746094 81.015625 387.519531 88.695312 387.519531 C 96.375 387.519531 102.601562 393.746094 102.601562 401.425781 "/>
<g fill="rgb(100%, 100%, 100%)" fill-opacity="1">
<use xlink:href="#glyph-0-0" x="434.761719" y="93.992188"/>
</g>
<g fill="rgb(100%, 100%, 100%)" fill-opacity="1">
<use xlink:href="#glyph-0-1" x="361.601562" y="75.382812"/>
</g>
<g fill="rgb(100%, 100%, 100%)" fill-opacity="1">
<use xlink:href="#glyph-0-2" x="384.929688" y="142.59375"/>
</g>
<g fill="rgb(100%, 100%, 100%)" fill-opacity="1">
<use xlink:href="#glyph-0-3" x="412.71875" y="34.65625"/>
</g>
<g fill="rgb(100%, 100%, 100%)" fill-opacity="1">
<use xlink:href="#glyph-0-4" x="299.710938" y="173.679688"/>
</g>
<g fill="rgb(100%, 100%, 100%)" fill-opacity="1">
<use xlink:href="#glyph-0-5" x="199.484375" y="264.765625"/>
</g>
<g fill="rgb(100%, 100%, 100%)" fill-opacity="1">
<use xlink:href="#glyph-0-6" x="112.972656" y="294.726562"/>
</g>
<g fill="rgb(100%, 100%, 100%)" fill-opacity="1">
<use xlink:href="#glyph-0-7" x="136.535156" y="363.738281"/>
</g>
<g fill="rgb(100%, 100%, 100%)" fill-opacity="1">
<use xlink:href="#glyph-0-8" x="64.90625" y="345.113281"/>
</g>
<g fill="rgb(100%, 100%, 100%)" fill-opacity="1">
<use xlink:href="#glyph-0-9" x="87.027344" y="404.300781"/>
</g>
</svg>
