<?xml version="1.0" encoding="UTF-8"?>
<svg xmlns="http://www.w3.org/2000/svg" xmlns:xlink="http://www.w3.org/1999/xlink" width="504pt" height="432pt" viewBox="0 0 504 432" version="1.1">
<g id="surface104">
<rect x="0" y="0" width="504" height="432" style="fill:rgb(100%,100%,100%);fill-opacity:1;stroke:none;"/>
<path style="fill:none;stroke-width:0.75;stroke-linecap:round;stroke-linejoin:round;stroke:rgb(0%,0%,0%);stroke-opacity:1;stroke-miterlimit:10;" d="M 19.332031 16.667969 L 24.285156 231.332031 L 29.234375 139.332031 L 34.183594 93.332031 L 39.132813 354 L 44.085938 308 L 53.984375 400 L 58.9375 415.332031 L 63.886719 369.332031 L 68.835938 354 L 73.789063 292.667969 L 78.738281 323.332031 L 83.6875 308 L 88.636719 323.332031 L 93.589844 154.667969 L 98.539063 292.667969 L 103.488281 369.332031 L 108.441406 400 L 113.390625 415.332031 L 118.339844 354 L 123.289063 384.667969 L 128.242188 338.667969 L 133.191406 338.667969 L 138.140625 369.332031 L 143.09375 338.667969 L 148.042969 323.332031 L 152.992188 338.667969 L 157.941406 216 L 162.894531 354 L 167.84375 369.332031 L 172.792969 415.332031 L 177.746094 415.332031 L 182.695313 400 L 187.644531 369.332031 L 192.597656 415.332031 L 197.546875 308 L 202.496094 384.667969 L 207.445313 216 L 212.398438 308 L 217.347656 308 L 222.296875 384.667969 L 227.25 384.667969 L 232.199219 323.332031 L 237.148438 384.667969 L 242.097656 384.667969 L 247.050781 415.332031 L 252 308 L 256.949219 400 L 261.902344 384.667969 L 266.851563 338.667969 L 271.800781 369.332031 L 276.75 384.667969 L 281.703125 415.332031 L 291.601563 384.667969 L 296.554688 400 L 301.503906 369.332031 L 306.453125 323.332031 L 311.402344 323.332031 L 316.355469 400 L 321.304688 384.667969 L 326.253906 384.667969 L 331.207031 400 L 336.15625 354 L 341.105469 338.667969 L 346.058594 354 L 351.007813 384.667969 L 355.957031 338.667969 L 360.90625 323.332031 L 365.859375 400 L 370.808594 415.332031 L 375.757813 415.332031 L 380.710938 216 L 385.660156 400 L 395.558594 400 L 400.511719 354 L 405.460938 384.667969 L 410.410156 400 L 425.261719 400 L 430.210938 369.332031 L 435.164063 384.667969 L 440.113281 415.332031 L 445.0625 384.667969 L 450.015625 400 L 454.964844 384.667969 L 459.914063 400 L 464.867188 415.332031 L 469.816406 400 L 474.765625 415.332031 L 484.667969 415.332031 "/>
<path style="fill:none;stroke-width:0.75;stroke-linecap:round;stroke-linejoin:round;stroke:rgb(0%,0%,0%);stroke-opacity:1;stroke-miterlimit:10;" d="M 14.382813 431.28125 L 410.410156 431.28125 "/>
<path style="fill:none;stroke-width:0.75;stroke-linecap:round;stroke-linejoin:round;stroke:rgb(0%,0%,0%);stroke-opacity:1;stroke-miterlimit:10;" d="M 14.382813 431.28125 L 14.382813 438.480469 "/>
<path style="fill:none;stroke-width:0.75;stroke-linecap:round;stroke-linejoin:round;stroke:rgb(0%,0%,0%);stroke-opacity:1;stroke-miterlimit:10;" d="M 113.390625 431.28125 L 113.390625 438.480469 "/>
<path style="fill:none;stroke-width:0.75;stroke-linecap:round;stroke-linejoin:round;stroke:rgb(0%,0%,0%);stroke-opacity:1;stroke-miterlimit:10;" d="M 212.398438 431.28125 L 212.398438 438.480469 "/>
<path style="fill:none;stroke-width:0.75;stroke-linecap:round;stroke-linejoin:round;stroke:rgb(0%,0%,0%);stroke-opacity:1;stroke-miterlimit:10;" d="M 311.402344 431.28125 L 311.402344 438.480469 "/>
<path style="fill:none;stroke-width:0.75;stroke-linecap:round;stroke-linejoin:round;stroke:rgb(0%,0%,0%);stroke-opacity:1;stroke-miterlimit:10;" d="M 410.410156 431.28125 L 410.410156 438.480469 "/>
<path style="fill:none;stroke-width:0.75;stroke-linecap:round;stroke-linejoin:round;stroke:rgb(0%,0%,0%);stroke-opacity:1;stroke-miterlimit:10;" d="M 0.71875 430.667969 L 0.71875 47.332031 "/>
<path style="fill:none;stroke-width:0.75;stroke-linecap:round;stroke-linejoin:round;stroke:rgb(0%,0%,0%);stroke-opacity:1;stroke-miterlimit:10;" d="M 0.71875 430.667969 L -6.480469 430.667969 "/>
<path style="fill:none;stroke-width:0.75;stroke-linecap:round;stroke-linejoin:round;stroke:rgb(0%,0%,0%);stroke-opacity:1;stroke-miterlimit:10;" d="M 0.71875 354 L -6.480469 354 "/>
<path style="fill:none;stroke-width:0.75;stroke-linecap:round;stroke-linejoin:round;stroke:rgb(0%,0%,0%);stroke-opacity:1;stroke-miterlimit:10;" d="M 0.71875 277.332031 L -6.480469 277.332031 "/>
<path style="fill:none;stroke-width:0.75;stroke-linecap:round;stroke-linejoin:round;stroke:rgb(0%,0%,0%);stroke-opacity:1;stroke-miterlimit:10;" d="M 0.71875 200.667969 L -6.480469 200.667969 "/>
<path style="fill:none;stroke-width:0.75;stroke-linecap:round;stroke-linejoin:round;stroke:rgb(0%,0%,0%);stroke-opacity:1;stroke-miterlimit:10;" d="M 0.71875 124 L -6.480469 124 "/>
<path style="fill:none;stroke-width:0.75;stroke-linecap:round;stroke-linejoin:round;stroke:rgb(0%,0%,0%);stroke-opacity:1;stroke-miterlimit:10;" d="M 0.71875 47.332031 L -6.480469 47.332031 "/>
<path style="fill:none;stroke-width:0.75;stroke-linecap:round;stroke-linejoin:round;stroke:rgb(0%,0%,0%);stroke-opacity:1;stroke-miterlimit:10;" d="M 0.71875 431.28125 L 503.28125 431.28125 L 503.28125 0.71875 L 0.71875 0.71875 Z M 0.71875 431.28125 "/>
</g>
</svg>
