<?xml version="1.0" encoding="UTF-8"?>
<svg xmlns="http://www.w3.org/2000/svg" xmlns:xlink="http://www.w3.org/1999/xlink" width="504pt" height="432pt" viewBox="0 0 504 432" version="1.1">
<g id="surface119">
<rect x="0" y="0" width="504" height="432" style="fill:rgb(100%,100%,100%);fill-opacity:1;stroke:none;"/>
<path style="fill:none;stroke-width:0.75;stroke-linecap:round;stroke-linejoin:round;stroke:rgb(0%,0%,0%);stroke-opacity:1;stroke-miterlimit:10;" d="M 19.332031 16.667969 L 24.285156 209.960938 L 29.234375 304.191406 L 34.183594 176.132813 L 39.132813 367.011719 L 44.085938 299.359375 L 49.035156 393.585938 L 53.984375 396.003906 L 58.9375 408.085938 L 68.835938 374.257813 L 73.789063 323.519531 L 78.738281 367.011719 L 83.6875 333.183594 L 88.636719 321.101563 L 93.589844 354.929688 L 98.539063 371.84375 L 103.488281 388.753906 L 108.441406 408.085938 L 113.390625 403.253906 L 118.339844 376.675781 L 123.289063 391.171875 L 128.242188 328.351563 L 133.191406 369.425781 L 143.09375 369.425781 L 148.042969 318.6875 L 152.992188 316.269531 L 157.941406 296.941406 L 162.894531 391.171875 L 167.84375 388.753906 L 172.792969 410.5 L 177.746094 408.085938 L 182.695313 398.421875 L 187.644531 381.507813 L 192.597656 408.085938 L 197.546875 309.023438 L 202.496094 408.085938 L 207.445313 325.933594 L 212.398438 354.929688 L 217.347656 371.84375 L 222.296875 410.5 L 227.25 400.835938 L 232.199219 318.6875 L 237.148438 383.921875 L 242.097656 408.085938 L 247.050781 410.5 L 252 391.171875 L 256.949219 412.917969 L 261.902344 400.835938 L 266.851563 386.339844 L 271.800781 359.761719 L 276.75 383.921875 L 281.703125 408.085938 L 291.601563 398.421875 L 296.554688 403.253906 L 301.503906 391.171875 L 306.453125 325.933594 L 311.402344 398.421875 L 316.355469 403.253906 L 321.304688 405.667969 L 326.253906 388.753906 L 331.207031 405.667969 L 336.15625 386.339844 L 341.105469 340.433594 L 346.058594 345.265625 L 351.007813 352.511719 L 355.957031 347.679688 L 360.90625 369.425781 L 365.859375 388.753906 L 370.808594 398.421875 L 375.757813 388.753906 L 380.710938 190.628906 L 385.660156 405.667969 L 390.609375 408.085938 L 395.558594 388.753906 L 400.511719 391.171875 L 405.460938 391.171875 L 410.410156 400.835938 L 415.363281 408.085938 L 420.3125 410.5 L 430.210938 391.171875 L 435.164063 376.675781 L 440.113281 415.332031 L 445.0625 405.667969 L 450.015625 408.085938 L 454.964844 350.097656 L 459.914063 415.332031 L 464.867188 412.917969 L 469.816406 408.085938 L 474.765625 415.332031 L 479.714844 415.332031 L 484.667969 405.667969 "/>
<path style="fill:none;stroke-width:0.75;stroke-linecap:round;stroke-linejoin:round;stroke:rgb(0%,0%,0%);stroke-opacity:1;stroke-miterlimit:10;" d="M 14.382813 431.28125 L 410.410156 431.28125 "/>
<path style="fill:none;stroke-width:0.75;stroke-linecap:round;stroke-linejoin:round;stroke:rgb(0%,0%,0%);stroke-opacity:1;stroke-miterlimit:10;" d="M 14.382813 431.28125 L 14.382813 438.480469 "/>
<path style="fill:none;stroke-width:0.75;stroke-linecap:round;stroke-linejoin:round;stroke:rgb(0%,0%,0%);stroke-opacity:1;stroke-miterlimit:10;" d="M 113.390625 431.28125 L 113.390625 438.480469 "/>
<path style="fill:none;stroke-width:0.75;stroke-linecap:round;stroke-linejoin:round;stroke:rgb(0%,0%,0%);stroke-opacity:1;stroke-miterlimit:10;" d="M 212.398438 431.28125 L 212.398438 438.480469 "/>
<path style="fill:none;stroke-width:0.75;stroke-linecap:round;stroke-linejoin:round;stroke:rgb(0%,0%,0%);stroke-opacity:1;stroke-miterlimit:10;" d="M 311.402344 431.28125 L 311.402344 438.480469 "/>
<path style="fill:none;stroke-width:0.75;stroke-linecap:round;stroke-linejoin:round;stroke:rgb(0%,0%,0%);stroke-opacity:1;stroke-miterlimit:10;" d="M 410.410156 431.28125 L 410.410156 438.480469 "/>
<path style="fill:none;stroke-width:0.75;stroke-linecap:round;stroke-linejoin:round;stroke:rgb(0%,0%,0%);stroke-opacity:1;stroke-miterlimit:10;" d="M 0.71875 415.332031 L 0.71875 52.910156 "/>
<path style="fill:none;stroke-width:0.75;stroke-linecap:round;stroke-linejoin:round;stroke:rgb(0%,0%,0%);stroke-opacity:1;stroke-miterlimit:10;" d="M 0.71875 415.332031 L -6.480469 415.332031 "/>
<path style="fill:none;stroke-width:0.75;stroke-linecap:round;stroke-linejoin:round;stroke:rgb(0%,0%,0%);stroke-opacity:1;stroke-miterlimit:10;" d="M 0.71875 294.523438 L -6.480469 294.523438 "/>
<path style="fill:none;stroke-width:0.75;stroke-linecap:round;stroke-linejoin:round;stroke:rgb(0%,0%,0%);stroke-opacity:1;stroke-miterlimit:10;" d="M 0.71875 173.71875 L -6.480469 173.71875 "/>
<path style="fill:none;stroke-width:0.75;stroke-linecap:round;stroke-linejoin:round;stroke:rgb(0%,0%,0%);stroke-opacity:1;stroke-miterlimit:10;" d="M 0.71875 52.910156 L -6.480469 52.910156 "/>
<path style="fill:none;stroke-width:0.75;stroke-linecap:round;stroke-linejoin:round;stroke:rgb(0%,0%,0%);stroke-opacity:1;stroke-miterlimit:10;" d="M 0.71875 431.28125 L 503.28125 431.28125 L 503.28125 0.71875 L 0.71875 0.71875 Z M 0.71875 431.28125 "/>
</g>
</svg>
