<?xml version="1.0" encoding="UTF-8"?>
<svg xmlns="http://www.w3.org/2000/svg" xmlns:xlink="http://www.w3.org/1999/xlink" width="504pt" height="432pt" viewBox="0 0 504 432" version="1.1">
<g id="surface89">
<rect x="0" y="0" width="504" height="432" style="fill:rgb(100%,100%,100%);fill-opacity:1;stroke:none;"/>
<path style="fill:none;stroke-width:0.75;stroke-linecap:round;stroke-linejoin:round;stroke:rgb(0%,0%,0%);stroke-opacity:1;stroke-miterlimit:10;" d="M 19.332031 16.667969 L 20.171875 365.5 L 21.011719 290.75 L 21.847656 415.332031 L 22.6875 415.332031 L 23.527344 390.417969 L 24.363281 265.832031 L 25.203125 340.582031 L 26.039063 415.332031 L 26.878906 365.5 L 27.71875 415.332031 L 28.554688 415.332031 L 29.394531 390.417969 L 30.234375 415.332031 L 31.070313 415.332031 L 31.910156 240.917969 L 32.75 240.917969 L 33.585938 415.332031 L 35.261719 415.332031 L 36.101563 315.667969 L 36.941406 415.332031 L 37.777344 390.417969 L 38.617188 415.332031 L 41.972656 415.332031 L 42.808594 340.582031 L 43.648438 415.332031 L 44.488281 415.332031 L 45.324219 390.417969 L 46.164063 415.332031 L 49.515625 415.332031 L 50.355469 390.417969 L 51.195313 415.332031 L 52.03125 415.332031 L 52.871094 390.417969 L 53.710938 390.417969 L 54.546875 415.332031 L 55.386719 365.5 L 56.226563 365.5 L 57.0625 390.417969 L 57.902344 415.332031 L 58.738281 365.5 L 59.578125 415.332031 L 60.417969 390.417969 L 61.253906 290.75 L 62.09375 415.332031 L 63.769531 415.332031 L 64.609375 365.5 L 66.285156 365.5 L 67.125 415.332031 L 71.316406 415.332031 L 72.15625 340.582031 L 72.992188 340.582031 L 73.832031 415.332031 L 74.671875 290.75 L 75.507813 415.332031 L 79.699219 415.332031 L 80.539063 216 L 81.378906 340.582031 L 82.214844 216 L 83.054688 415.332031 L 83.894531 365.5 L 84.730469 415.332031 L 85.570313 390.417969 L 86.410156 415.332031 L 87.246094 415.332031 L 88.085938 390.417969 L 88.921875 415.332031 L 92.277344 415.332031 L 93.117188 390.417969 L 93.953125 415.332031 L 105.691406 415.332031 L 106.53125 340.582031 L 107.371094 415.332031 L 108.207031 415.332031 L 109.046875 365.5 L 109.882813 415.332031 L 110.722656 415.332031 L 111.5625 390.417969 L 112.398438 415.332031 L 113.238281 415.332031 L 114.078125 315.667969 L 114.914063 415.332031 L 115.753906 415.332031 L 116.59375 390.417969 L 117.429688 315.667969 L 119.109375 415.332031 L 121.621094 415.332031 L 122.460938 390.417969 L 123.300781 415.332031 L 128.332031 415.332031 L 129.167969 390.417969 L 130.007813 415.332031 L 130.84375 415.332031 L 131.683594 240.917969 L 132.523438 390.417969 L 134.199219 390.417969 L 135.039063 415.332031 L 140.070313 415.332031 L 140.90625 365.5 L 141.746094 415.332031 L 142.582031 315.667969 L 143.421875 365.5 L 144.261719 390.417969 L 145.097656 365.5 L 145.9375 365.5 L 146.777344 415.332031 L 147.613281 390.417969 L 148.453125 415.332031 L 150.128906 415.332031 L 150.96875 290.75 L 151.804688 390.417969 L 153.484375 390.417969 L 154.320313 415.332031 L 155.160156 415.332031 L 156 340.582031 L 156.835938 415.332031 L 157.675781 390.417969 L 158.515625 415.332031 L 159.351563 415.332031 L 160.191406 390.417969 L 161.03125 415.332031 L 165.222656 415.332031 L 166.058594 365.5 L 166.898438 415.332031 L 170.253906 415.332031 L 171.089844 390.417969 L 171.929688 415.332031 L 173.605469 415.332031 L 174.445313 390.417969 L 175.28125 390.417969 L 176.121094 415.332031 L 178.636719 415.332031 L 179.476563 365.5 L 180.3125 390.417969 L 181.152344 415.332031 L 182.828125 415.332031 L 183.667969 390.417969 L 184.503906 365.5 L 185.34375 415.332031 L 186.183594 415.332031 L 187.019531 390.417969 L 187.859375 415.332031 L 188.699219 390.417969 L 189.535156 390.417969 L 190.375 340.582031 L 191.214844 390.417969 L 192.050781 390.417969 L 192.890625 315.667969 L 193.730469 340.582031 L 194.566406 365.5 L 195.40625 415.332031 L 196.242188 415.332031 L 197.082031 315.667969 L 197.921875 415.332031 L 198.757813 415.332031 L 199.597656 390.417969 L 200.4375 390.417969 L 201.273438 415.332031 L 202.953125 415.332031 L 203.789063 390.417969 L 204.628906 415.332031 L 206.304688 415.332031 L 207.144531 390.417969 L 207.980469 415.332031 L 208.820313 415.332031 L 209.660156 365.5 L 210.496094 365.5 L 211.335938 390.417969 L 212.175781 415.332031 L 218.882813 415.332031 L 219.71875 390.417969 L 220.558594 415.332031 L 221.398438 390.417969 L 222.234375 390.417969 L 223.074219 365.5 L 223.914063 365.5 L 224.75 390.417969 L 225.589844 415.332031 L 228.941406 415.332031 L 229.78125 390.417969 L 230.621094 415.332031 L 233.972656 415.332031 L 234.8125 390.417969 L 235.652344 415.332031 L 236.488281 415.332031 L 237.328125 390.417969 L 238.164063 415.332031 L 244.875 415.332031 L 245.710938 141.25 L 246.550781 340.582031 L 247.386719 166.167969 L 248.226563 415.332031 L 249.066406 390.417969 L 249.902344 365.5 L 251.582031 365.5 L 252.417969 415.332031 L 253.257813 415.332031 L 254.097656 390.417969 L 254.933594 415.332031 L 255.773438 415.332031 L 256.613281 390.417969 L 257.449219 415.332031 L 263.320313 415.332031 L 264.15625 390.417969 L 264.996094 390.417969 L 265.835938 415.332031 L 266.671875 390.417969 L 267.511719 415.332031 L 271.703125 415.332031 L 272.542969 390.417969 L 273.378906 415.332031 L 274.21875 390.417969 L 275.058594 415.332031 L 275.894531 340.582031 L 276.734375 415.332031 L 278.410156 415.332031 L 279.25 390.417969 L 280.085938 415.332031 L 290.148438 415.332031 L 290.988281 315.667969 L 291.824219 340.582031 L 292.664063 390.417969 L 293.503906 415.332031 L 297.695313 415.332031 L 298.535156 315.667969 L 299.371094 390.417969 L 300.210938 390.417969 L 301.046875 415.332031 L 309.433594 415.332031 L 310.269531 390.417969 L 311.109375 390.417969 L 311.949219 365.5 L 312.785156 415.332031 L 317.816406 415.332031 L 318.65625 390.417969 L 319.496094 365.5 L 320.332031 390.417969 L 321.171875 365.5 L 322.007813 415.332031 L 322.847656 390.417969 L 323.6875 415.332031 L 332.910156 415.332031 L 333.746094 390.417969 L 334.585938 390.417969 L 335.425781 415.332031 L 341.292969 415.332031 L 342.132813 390.417969 L 342.96875 315.667969 L 343.808594 390.417969 L 344.648438 415.332031 L 345.484375 415.332031 L 346.324219 390.417969 L 347.164063 415.332031 L 348 415.332031 L 348.839844 390.417969 L 349.679688 415.332031 L 363.929688 415.332031 L 364.769531 365.5 L 367.285156 365.5 L 368.125 415.332031 L 368.960938 415.332031 L 369.800781 390.417969 L 370.640625 415.332031 L 373.15625 415.332031 L 373.992188 390.417969 L 374.832031 415.332031 L 377.347656 415.332031 L 378.183594 390.417969 L 379.023438 415.332031 L 388.246094 415.332031 L 389.085938 390.417969 L 389.921875 415.332031 L 420.105469 415.332031 L 420.945313 390.417969 L 421.785156 415.332031 L 429.328125 415.332031 L 430.167969 390.417969 L 431.007813 415.332031 L 435.199219 415.332031 L 436.039063 365.5 L 436.875 415.332031 L 440.230469 415.332031 L 441.066406 390.417969 L 441.90625 415.332031 L 484.667969 415.332031 "/>
<path style="fill:none;stroke-width:0.75;stroke-linecap:round;stroke-linejoin:round;stroke:rgb(0%,0%,0%);stroke-opacity:1;stroke-miterlimit:10;" d="M 18.496094 431.28125 L 437.714844 431.28125 "/>
<path style="fill:none;stroke-width:0.75;stroke-linecap:round;stroke-linejoin:round;stroke:rgb(0%,0%,0%);stroke-opacity:1;stroke-miterlimit:10;" d="M 18.496094 431.28125 L 18.496094 438.480469 "/>
<path style="fill:none;stroke-width:0.75;stroke-linecap:round;stroke-linejoin:round;stroke:rgb(0%,0%,0%);stroke-opacity:1;stroke-miterlimit:10;" d="M 102.339844 431.28125 L 102.339844 438.480469 "/>
<path style="fill:none;stroke-width:0.75;stroke-linecap:round;stroke-linejoin:round;stroke:rgb(0%,0%,0%);stroke-opacity:1;stroke-miterlimit:10;" d="M 186.183594 431.28125 L 186.183594 438.480469 "/>
<path style="fill:none;stroke-width:0.75;stroke-linecap:round;stroke-linejoin:round;stroke:rgb(0%,0%,0%);stroke-opacity:1;stroke-miterlimit:10;" d="M 270.027344 431.28125 L 270.027344 438.480469 "/>
<path style="fill:none;stroke-width:0.75;stroke-linecap:round;stroke-linejoin:round;stroke:rgb(0%,0%,0%);stroke-opacity:1;stroke-miterlimit:10;" d="M 353.871094 431.28125 L 353.871094 438.480469 "/>
<path style="fill:none;stroke-width:0.75;stroke-linecap:round;stroke-linejoin:round;stroke:rgb(0%,0%,0%);stroke-opacity:1;stroke-miterlimit:10;" d="M 437.714844 431.28125 L 437.714844 438.480469 "/>
<path style="fill:none;stroke-width:0.75;stroke-linecap:round;stroke-linejoin:round;stroke:rgb(0%,0%,0%);stroke-opacity:1;stroke-miterlimit:10;" d="M 0.71875 315.667969 L 0.71875 66.5 "/>
<path style="fill:none;stroke-width:0.75;stroke-linecap:round;stroke-linejoin:round;stroke:rgb(0%,0%,0%);stroke-opacity:1;stroke-miterlimit:10;" d="M 0.71875 315.667969 L -6.480469 315.667969 "/>
<path style="fill:none;stroke-width:0.75;stroke-linecap:round;stroke-linejoin:round;stroke:rgb(0%,0%,0%);stroke-opacity:1;stroke-miterlimit:10;" d="M 0.71875 191.082031 L -6.480469 191.082031 "/>
<path style="fill:none;stroke-width:0.75;stroke-linecap:round;stroke-linejoin:round;stroke:rgb(0%,0%,0%);stroke-opacity:1;stroke-miterlimit:10;" d="M 0.71875 66.5 L -6.480469 66.5 "/>
<path style="fill:none;stroke-width:0.75;stroke-linecap:round;stroke-linejoin:round;stroke:rgb(0%,0%,0%);stroke-opacity:1;stroke-miterlimit:10;" d="M 0.71875 431.28125 L 503.28125 431.28125 L 503.28125 0.71875 L 0.71875 0.71875 Z M 0.71875 431.28125 "/>
</g>
</svg>
