<?xml version="1.0" encoding="UTF-8"?>
<svg xmlns="http://www.w3.org/2000/svg" xmlns:xlink="http://www.w3.org/1999/xlink" width="504pt" height="252pt" viewBox="0 0 504 252" version="1.1">
<g id="surface3639">
<rect x="0" y="0" width="504" height="252" style="fill:rgb(100%,100%,100%);fill-opacity:1;stroke:none;"/>
<path style="fill-rule:nonzero;fill:rgb(0%,0%,0%);fill-opacity:1;stroke-width:0.75;stroke-linecap:round;stroke-linejoin:round;stroke:rgb(0%,0%,0%);stroke-opacity:1;stroke-miterlimit:10;" d="M 290.257813 152.871094 L 273.9375 154.996094 L 273.910156 154.765625 L 290.226563 152.640625 Z M 290.257813 152.871094 "/>
<path style="fill-rule:nonzero;fill:rgb(0%,0%,0%);fill-opacity:1;stroke-width:0.75;stroke-linecap:round;stroke-linejoin:round;stroke:rgb(0%,0%,0%);stroke-opacity:1;stroke-miterlimit:10;" d="M 290.222656 152.316406 L 236.25 146.296875 L 236.277344 146.066406 L 290.25 152.085938 Z M 290.222656 152.316406 "/>
<path style="fill-rule:nonzero;fill:rgb(0%,0%,0%);fill-opacity:1;stroke-width:0.75;stroke-linecap:round;stroke-linejoin:round;stroke:rgb(0%,0%,0%);stroke-opacity:1;stroke-miterlimit:10;" d="M 291.402344 154.480469 L 270.660156 187.324219 L 270.460938 187.199219 L 291.207031 154.355469 Z M 291.402344 154.480469 "/>
<path style="fill-rule:nonzero;fill:rgb(0%,0%,0%);fill-opacity:1;stroke-width:0.75;stroke-linecap:round;stroke-linejoin:round;stroke:rgb(0%,0%,0%);stroke-opacity:1;stroke-miterlimit:10;" d="M 294.855469 152.257813 L 348.992188 150.292969 L 349.003906 150.523438 L 294.863281 152.488281 Z M 294.855469 152.257813 "/>
<path style="fill-rule:nonzero;fill:rgb(0%,0%,0%);fill-opacity:1;stroke-width:0.75;stroke-linecap:round;stroke-linejoin:round;stroke:rgb(0%,0%,0%);stroke-opacity:1;stroke-miterlimit:10;" d="M 294.292969 153.984375 L 334.523438 192.832031 L 334.363281 193 L 294.128906 154.152344 Z M 294.292969 153.984375 "/>
<path style="fill-rule:nonzero;fill:rgb(0%,0%,0%);fill-opacity:1;stroke-width:0.75;stroke-linecap:round;stroke-linejoin:round;stroke:rgb(0%,0%,0%);stroke-opacity:1;stroke-miterlimit:10;" d="M 294.636719 153.457031 L 343.839844 180.027344 L 343.730469 180.230469 L 294.527344 153.660156 Z M 294.636719 153.457031 "/>
<path style="fill-rule:nonzero;fill:rgb(0%,0%,0%);fill-opacity:1;stroke-width:0.75;stroke-linecap:round;stroke-linejoin:round;stroke:rgb(0%,0%,0%);stroke-opacity:1;stroke-miterlimit:10;" d="M 291.152344 154.316406 L 259.945313 192.035156 L 259.765625 191.886719 L 290.972656 154.171875 Z M 291.152344 154.316406 "/>
<path style="fill-rule:nonzero;fill:rgb(0%,0%,0%);fill-opacity:1;stroke-width:0.75;stroke-linecap:round;stroke-linejoin:round;stroke:rgb(0%,0%,0%);stroke-opacity:1;stroke-miterlimit:10;" d="M 290.308594 151.820313 L 232.445313 132.183594 L 232.519531 131.964844 L 290.382813 151.601563 Z M 290.308594 151.820313 "/>
<path style="fill-rule:nonzero;fill:rgb(0%,0%,0%);fill-opacity:1;stroke-width:0.75;stroke-linecap:round;stroke-linejoin:round;stroke:rgb(0%,0%,0%);stroke-opacity:1;stroke-miterlimit:10;" d="M 294.820313 152.902344 L 344.800781 165.257813 L 344.746094 165.484375 L 294.765625 153.125 Z M 294.820313 152.902344 "/>
<path style="fill-rule:nonzero;fill:rgb(0%,0%,0%);fill-opacity:1;stroke-width:0.75;stroke-linecap:round;stroke-linejoin:round;stroke:rgb(0%,0%,0%);stroke-opacity:1;stroke-miterlimit:10;" d="M 294.332031 150.976563 L 340.332031 116.65625 L 340.472656 116.839844 L 294.472656 151.164063 Z M 294.332031 150.976563 "/>
<path style="fill-rule:nonzero;fill:rgb(0%,0%,0%);fill-opacity:1;stroke-width:0.75;stroke-linecap:round;stroke-linejoin:round;stroke:rgb(0%,0%,0%);stroke-opacity:1;stroke-miterlimit:10;" d="M 292.902344 154.75 L 298.65625 208.921875 L 298.425781 208.945313 L 292.671875 154.777344 Z M 292.902344 154.75 "/>
<path style="fill-rule:nonzero;fill:rgb(0%,0%,0%);fill-opacity:1;stroke-width:0.75;stroke-linecap:round;stroke-linejoin:round;stroke:rgb(0%,0%,0%);stroke-opacity:1;stroke-miterlimit:10;" d="M 290.320313 153.132813 L 239.460938 165.867188 L 239.402344 165.640625 L 290.261719 152.90625 Z M 290.320313 153.132813 "/>
<path style="fill-rule:nonzero;fill:rgb(0%,0%,0%);fill-opacity:1;stroke-width:0.75;stroke-linecap:round;stroke-linejoin:round;stroke:rgb(0%,0%,0%);stroke-opacity:1;stroke-miterlimit:10;" d="M 293.730469 150.460938 L 313.144531 121.269531 L 313.335938 121.398438 L 293.921875 150.589844 Z M 293.730469 150.460938 "/>
<path style="fill-rule:nonzero;fill:rgb(0%,0%,0%);fill-opacity:1;stroke-width:0.75;stroke-linecap:round;stroke-linejoin:round;stroke:rgb(0%,0%,0%);stroke-opacity:1;stroke-miterlimit:10;" d="M 290.769531 150.957031 L 257.683594 119.988281 L 257.839844 119.816406 L 290.925781 150.785156 Z M 290.769531 150.957031 "/>
<path style="fill-rule:nonzero;fill:rgb(0%,0%,0%);fill-opacity:1;stroke-width:0.75;stroke-linecap:round;stroke-linejoin:round;stroke:rgb(0%,0%,0%);stroke-opacity:1;stroke-miterlimit:10;" d="M 294.828125 152.054688 L 322.316406 148.601563 L 322.347656 148.832031 L 294.859375 152.28125 Z M 294.828125 152.054688 "/>
<path style="fill-rule:nonzero;fill:rgb(0%,0%,0%);fill-opacity:1;stroke-width:0.75;stroke-linecap:round;stroke-linejoin:round;stroke:rgb(0%,0%,0%);stroke-opacity:1;stroke-miterlimit:10;" d="M 290.964844 150.753906 L 244.511719 95.261719 L 244.6875 95.113281 L 291.140625 150.601563 Z M 290.964844 150.753906 "/>
<path style="fill-rule:nonzero;fill:rgb(0%,0%,0%);fill-opacity:1;stroke-width:0.75;stroke-linecap:round;stroke-linejoin:round;stroke:rgb(0%,0%,0%);stroke-opacity:1;stroke-miterlimit:10;" d="M 269.34375 154.738281 L 236.183594 146.589844 L 236.238281 146.367188 L 269.398438 154.511719 Z M 269.34375 154.738281 "/>
<path style="fill-rule:nonzero;fill:rgb(0%,0%,0%);fill-opacity:1;stroke-width:0.75;stroke-linecap:round;stroke-linejoin:round;stroke:rgb(0%,0%,0%);stroke-opacity:1;stroke-miterlimit:10;" d="M 271.582031 157.5 L 269.59375 186.917969 L 269.363281 186.902344 L 271.351563 157.484375 Z M 271.582031 157.5 "/>
<path style="fill-rule:nonzero;fill:rgb(0%,0%,0%);fill-opacity:1;stroke-width:0.75;stroke-linecap:round;stroke-linejoin:round;stroke:rgb(0%,0%,0%);stroke-opacity:1;stroke-miterlimit:10;" d="M 270.980469 157.410156 L 259.242188 191.59375 L 259.019531 191.515625 L 270.757813 157.335938 Z M 270.980469 157.410156 "/>
<path style="fill-rule:nonzero;fill:rgb(0%,0%,0%);fill-opacity:1;stroke-width:0.75;stroke-linecap:round;stroke-linejoin:round;stroke:rgb(0%,0%,0%);stroke-opacity:1;stroke-miterlimit:10;" d="M 269.449219 156.003906 L 239.421875 165.714844 L 239.351563 165.492188 L 269.378906 155.78125 Z M 269.449219 156.003906 "/>
<path style="fill-rule:nonzero;fill:rgb(0%,0%,0%);fill-opacity:1;stroke-width:0.75;stroke-linecap:round;stroke-linejoin:round;stroke:rgb(0%,0%,0%);stroke-opacity:1;stroke-miterlimit:10;" d="M 273.332031 153.605469 L 312.667969 120.800781 L 312.816406 120.976563 L 273.480469 153.78125 Z M 273.332031 153.605469 "/>
<path style="fill-rule:nonzero;fill:rgb(0%,0%,0%);fill-opacity:1;stroke-width:0.75;stroke-linecap:round;stroke-linejoin:round;stroke:rgb(0%,0%,0%);stroke-opacity:1;stroke-miterlimit:10;" d="M 270.613281 153.085938 L 256.863281 120.5 L 257.078125 120.410156 L 270.828125 152.996094 Z M 270.613281 153.085938 "/>
<path style="fill-rule:nonzero;fill:rgb(0%,0%,0%);fill-opacity:1;stroke-width:0.75;stroke-linecap:round;stroke-linejoin:round;stroke:rgb(0%,0%,0%);stroke-opacity:1;stroke-miterlimit:10;" d="M 273.910156 154.769531 L 322.316406 148.605469 L 322.347656 148.835938 L 273.9375 155 Z M 273.910156 154.769531 "/>
<path style="fill-rule:nonzero;fill:rgb(0%,0%,0%);fill-opacity:1;stroke-width:0.75;stroke-linecap:round;stroke-linejoin:round;stroke:rgb(0%,0%,0%);stroke-opacity:1;stroke-miterlimit:10;" d="M 269.304688 155.34375 L 210.628906 156.578125 L 210.625 156.34375 L 269.300781 155.113281 Z M 269.304688 155.34375 "/>
<path style="fill-rule:nonzero;fill:rgb(0%,0%,0%);fill-opacity:1;stroke-width:0.75;stroke-linecap:round;stroke-linejoin:round;stroke:rgb(0%,0%,0%);stroke-opacity:1;stroke-miterlimit:10;" d="M 235.515625 147.648438 L 267.945313 187.351563 L 267.765625 187.5 L 235.335938 147.792969 Z M 235.515625 147.648438 "/>
<path style="fill-rule:nonzero;fill:rgb(0%,0%,0%);fill-opacity:1;stroke-width:0.75;stroke-linecap:round;stroke-linejoin:round;stroke:rgb(0%,0%,0%);stroke-opacity:1;stroke-miterlimit:10;" d="M 235.117188 147.9375 L 257.425781 191.628906 L 257.21875 191.734375 L 234.910156 148.042969 Z M 235.117188 147.9375 "/>
<path style="fill-rule:nonzero;fill:rgb(0%,0%,0%);fill-opacity:1;stroke-width:0.75;stroke-linecap:round;stroke-linejoin:round;stroke:rgb(0%,0%,0%);stroke-opacity:1;stroke-miterlimit:10;" d="M 233.28125 143.703125 L 230.742188 133.609375 L 230.964844 133.550781 L 233.503906 143.644531 Z M 233.28125 143.703125 "/>
<path style="fill-rule:nonzero;fill:rgb(0%,0%,0%);fill-opacity:1;stroke-width:0.75;stroke-linecap:round;stroke-linejoin:round;stroke:rgb(0%,0%,0%);stroke-opacity:1;stroke-miterlimit:10;" d="M 231.945313 147.082031 L 186.402344 170.335938 L 186.296875 170.128906 L 231.839844 146.875 Z M 231.945313 147.082031 "/>
<path style="fill-rule:nonzero;fill:rgb(0%,0%,0%);fill-opacity:1;stroke-width:0.75;stroke-linecap:round;stroke-linejoin:round;stroke:rgb(0%,0%,0%);stroke-opacity:1;stroke-miterlimit:10;" d="M 234.433594 148.199219 L 236.933594 164.007813 L 236.703125 164.042969 L 234.207031 148.234375 Z M 234.433594 148.199219 "/>
<path style="fill-rule:nonzero;fill:rgb(0%,0%,0%);fill-opacity:1;stroke-width:0.75;stroke-linecap:round;stroke-linejoin:round;stroke:rgb(0%,0%,0%);stroke-opacity:1;stroke-miterlimit:10;" d="M 233.609375 143.628906 L 227.570313 83.414063 L 227.800781 83.390625 L 233.839844 143.605469 Z M 233.609375 143.628906 "/>
<path style="fill-rule:nonzero;fill:rgb(0%,0%,0%);fill-opacity:1;stroke-width:0.75;stroke-linecap:round;stroke-linejoin:round;stroke:rgb(0%,0%,0%);stroke-opacity:1;stroke-miterlimit:10;" d="M 233.039063 143.789063 L 216.945313 100.5625 L 217.160156 100.480469 L 233.257813 143.710938 Z M 233.039063 143.789063 "/>
<path style="fill-rule:nonzero;fill:rgb(0%,0%,0%);fill-opacity:1;stroke-width:0.75;stroke-linecap:round;stroke-linejoin:round;stroke:rgb(0%,0%,0%);stroke-opacity:1;stroke-miterlimit:10;" d="M 231.894531 144.859375 L 183.757813 116.84375 L 183.875 116.640625 L 232.011719 144.65625 Z M 231.894531 144.859375 "/>
<path style="fill-rule:nonzero;fill:rgb(0%,0%,0%);fill-opacity:1;stroke-width:0.75;stroke-linecap:round;stroke-linejoin:round;stroke:rgb(0%,0%,0%);stroke-opacity:1;stroke-miterlimit:10;" d="M 267.222656 190.21875 L 260.566406 192.96875 L 260.476563 192.753906 L 267.132813 190.003906 Z M 267.222656 190.21875 "/>
<path style="fill-rule:nonzero;fill:rgb(0%,0%,0%);fill-opacity:1;stroke-width:0.75;stroke-linecap:round;stroke-linejoin:round;stroke:rgb(0%,0%,0%);stroke-opacity:1;stroke-miterlimit:10;" d="M 271.25 190.519531 L 296.996094 209.757813 L 296.859375 209.945313 L 271.109375 190.707031 Z M 271.25 190.519531 "/>
<path style="fill-rule:nonzero;fill:rgb(0%,0%,0%);fill-opacity:1;stroke-width:0.75;stroke-linecap:round;stroke-linejoin:round;stroke:rgb(0%,0%,0%);stroke-opacity:1;stroke-miterlimit:10;" d="M 267.367188 187.972656 L 239.003906 167.757813 L 239.136719 167.570313 L 267.5 187.78125 Z M 267.367188 187.972656 "/>
<path style="fill-rule:nonzero;fill:rgb(0%,0%,0%);fill-opacity:1;stroke-width:0.75;stroke-linecap:round;stroke-linejoin:round;stroke:rgb(0%,0%,0%);stroke-opacity:1;stroke-miterlimit:10;" d="M 351.023438 152.628906 L 346.34375 178.96875 L 346.117188 178.925781 L 350.796875 152.589844 Z M 351.023438 152.628906 "/>
<path style="fill-rule:nonzero;fill:rgb(0%,0%,0%);fill-opacity:1;stroke-width:0.75;stroke-linecap:round;stroke-linejoin:round;stroke:rgb(0%,0%,0%);stroke-opacity:1;stroke-miterlimit:10;" d="M 350.8125 152.59375 L 347.753906 163.722656 L 347.527344 163.660156 L 350.589844 152.53125 Z M 350.8125 152.59375 "/>
<path style="fill-rule:nonzero;fill:rgb(0%,0%,0%);fill-opacity:1;stroke-width:0.75;stroke-linecap:round;stroke-linejoin:round;stroke:rgb(0%,0%,0%);stroke-opacity:1;stroke-miterlimit:10;" d="M 337.386719 192.585938 L 344.363281 183.035156 L 344.550781 183.171875 L 337.574219 192.722656 Z M 337.386719 192.585938 "/>
<path style="fill-rule:nonzero;fill:rgb(0%,0%,0%);fill-opacity:1;stroke-width:0.75;stroke-linecap:round;stroke-linejoin:round;stroke:rgb(0%,0%,0%);stroke-opacity:1;stroke-miterlimit:10;" d="M 336.832031 192.320313 L 346.089844 168.054688 L 346.308594 168.136719 L 337.046875 192.402344 Z M 336.832031 192.320313 "/>
<path style="fill-rule:nonzero;fill:rgb(0%,0%,0%);fill-opacity:1;stroke-width:0.75;stroke-linecap:round;stroke-linejoin:round;stroke:rgb(0%,0%,0%);stroke-opacity:1;stroke-miterlimit:10;" d="M 338.105469 195.722656 L 364.003906 213.046875 L 363.875 213.242188 L 337.976563 195.914063 Z M 338.105469 195.722656 "/>
<path style="fill-rule:nonzero;fill:rgb(0%,0%,0%);fill-opacity:1;stroke-width:0.75;stroke-linecap:round;stroke-linejoin:round;stroke:rgb(0%,0%,0%);stroke-opacity:1;stroke-miterlimit:10;" d="M 347.125 183.15625 L 364.765625 212.386719 L 364.570313 212.507813 L 346.925781 183.277344 Z M 347.125 183.15625 "/>
<path style="fill-rule:nonzero;fill:rgb(0%,0%,0%);fill-opacity:1;stroke-width:0.75;stroke-linecap:round;stroke-linejoin:round;stroke:rgb(0%,0%,0%);stroke-opacity:1;stroke-miterlimit:10;" d="M 228.847656 133.152344 L 209.917969 154.839844 L 209.746094 154.6875 L 228.675781 133 Z M 228.847656 133.152344 "/>
<path style="fill-rule:nonzero;fill:rgb(0%,0%,0%);fill-opacity:1;stroke-width:0.75;stroke-linecap:round;stroke-linejoin:round;stroke:rgb(0%,0%,0%);stroke-opacity:1;stroke-miterlimit:10;" d="M 228.042969 130.722656 L 183.980469 116.402344 L 184.054688 116.183594 L 228.117188 130.503906 Z M 228.042969 130.722656 "/>
<path style="fill-rule:nonzero;fill:rgb(0%,0%,0%);fill-opacity:1;stroke-width:0.75;stroke-linecap:round;stroke-linejoin:round;stroke:rgb(0%,0%,0%);stroke-opacity:1;stroke-miterlimit:10;" d="M 228.0625 130.660156 L 191.5625 117.644531 L 191.640625 117.425781 L 228.140625 130.441406 Z M 228.0625 130.660156 "/>
<path style="fill-rule:nonzero;fill:rgb(0%,0%,0%);fill-opacity:1;stroke-width:0.75;stroke-linecap:round;stroke-linejoin:round;stroke:rgb(0%,0%,0%);stroke-opacity:1;stroke-miterlimit:10;" d="M 184.386719 168.964844 L 189.085938 119.054688 L 189.316406 119.078125 L 184.617188 168.988281 Z M 184.386719 168.964844 "/>
<path style="fill-rule:nonzero;fill:rgb(0%,0%,0%);fill-opacity:1;stroke-width:0.75;stroke-linecap:round;stroke-linejoin:round;stroke:rgb(0%,0%,0%);stroke-opacity:1;stroke-miterlimit:10;" d="M 235.488281 164.726563 L 190.945313 118.507813 L 191.113281 118.347656 L 235.652344 164.566406 Z M 235.488281 164.726563 "/>
<path style="fill-rule:nonzero;fill:rgb(0%,0%,0%);fill-opacity:1;stroke-width:0.75;stroke-linecap:round;stroke-linejoin:round;stroke:rgb(0%,0%,0%);stroke-opacity:1;stroke-miterlimit:10;" d="M 154.046875 151.527344 L 180.304688 117.34375 L 180.488281 117.484375 L 154.230469 151.667969 Z M 154.046875 151.527344 "/>
<path style="fill-rule:nonzero;fill:rgb(0%,0%,0%);fill-opacity:1;stroke-width:0.75;stroke-linecap:round;stroke-linejoin:round;stroke:rgb(0%,0%,0%);stroke-opacity:1;stroke-miterlimit:10;" d="M 154.28125 151.714844 L 187.695313 118.316406 L 187.859375 118.480469 L 154.445313 151.878906 Z M 154.28125 151.714844 "/>
<path style="fill-rule:nonzero;fill:rgb(0%,0%,0%);fill-opacity:1;stroke-width:0.75;stroke-linecap:round;stroke-linejoin:round;stroke:rgb(0%,0%,0%);stroke-opacity:1;stroke-miterlimit:10;" d="M 146.855469 96.410156 L 179.828125 114.363281 L 179.71875 114.566406 L 146.742188 96.617188 Z M 146.855469 96.410156 "/>
<path style="fill-rule:nonzero;fill:rgb(0%,0%,0%);fill-opacity:1;stroke-width:0.75;stroke-linecap:round;stroke-linejoin:round;stroke:rgb(0%,0%,0%);stroke-opacity:1;stroke-miterlimit:10;" d="M 146.90625 96.300781 L 187.375 115.652344 L 187.273438 115.859375 L 146.804688 96.511719 Z M 146.90625 96.300781 "/>
<path style="fill-rule:nonzero;fill:rgb(0%,0%,0%);fill-opacity:1;stroke-width:0.75;stroke-linecap:round;stroke-linejoin:round;stroke:rgb(0%,0%,0%);stroke-opacity:1;stroke-miterlimit:10;" d="M 140.46875 124.882813 L 179.523438 115.976563 L 179.574219 116.203125 L 140.519531 125.109375 Z M 140.46875 124.882813 "/>
<path style="fill-rule:nonzero;fill:rgb(0%,0%,0%);fill-opacity:1;stroke-width:0.75;stroke-linecap:round;stroke-linejoin:round;stroke:rgb(0%,0%,0%);stroke-opacity:1;stroke-miterlimit:10;" d="M 140.5 125.007813 L 187.113281 117.035156 L 187.152344 117.261719 L 140.539063 125.238281 Z M 140.5 125.007813 "/>
<path style="fill-rule:nonzero;fill:rgb(0%,0%,0%);fill-opacity:1;stroke-width:0.75;stroke-linecap:round;stroke-linejoin:round;stroke:rgb(0%,0%,0%);stroke-opacity:1;stroke-miterlimit:10;" d="M 253.746094 118.378906 L 191.734375 116.925781 L 191.738281 116.695313 L 253.753906 118.144531 Z M 253.746094 118.378906 "/>
<path style="fill-rule:nonzero;fill:rgb(0%,0%,0%);fill-opacity:1;stroke-width:0.75;stroke-linecap:round;stroke-linejoin:round;stroke:rgb(0%,0%,0%);stroke-opacity:1;stroke-miterlimit:10;" d="M 144.890625 138.746094 L 179.789063 116.714844 L 179.910156 116.910156 L 145.015625 138.941406 Z M 144.890625 138.746094 "/>
<path style="fill-rule:nonzero;fill:rgb(0%,0%,0%);fill-opacity:1;stroke-width:0.75;stroke-linecap:round;stroke-linejoin:round;stroke:rgb(0%,0%,0%);stroke-opacity:1;stroke-miterlimit:10;" d="M 145.011719 138.9375 L 187.292969 117.695313 L 187.398438 117.902344 L 145.117188 139.144531 Z M 145.011719 138.9375 "/>
<path style="fill-rule:nonzero;fill:rgb(0%,0%,0%);fill-opacity:1;stroke-width:0.75;stroke-linecap:round;stroke-linejoin:round;stroke:rgb(0%,0%,0%);stroke-opacity:1;stroke-miterlimit:10;" d="M 140.445313 109.289063 L 179.535156 115.117188 L 179.5 115.347656 L 140.410156 109.515625 Z M 140.445313 109.289063 "/>
<path style="fill-rule:nonzero;fill:rgb(0%,0%,0%);fill-opacity:1;stroke-width:0.75;stroke-linecap:round;stroke-linejoin:round;stroke:rgb(0%,0%,0%);stroke-opacity:1;stroke-miterlimit:10;" d="M 140.445313 109.289063 L 187.140625 116.296875 L 187.105469 116.527344 L 140.410156 109.519531 Z M 140.445313 109.289063 "/>
<path style="fill-rule:nonzero;fill:rgb(0%,0%,0%);fill-opacity:1;stroke-width:0.75;stroke-linecap:round;stroke-linejoin:round;stroke:rgb(0%,0%,0%);stroke-opacity:1;stroke-miterlimit:10;" d="M 196.148438 63.457031 L 229.574219 38.847656 L 229.714844 39.035156 L 196.285156 63.644531 Z M 196.148438 63.457031 "/>
<path style="fill-rule:nonzero;fill:rgb(0%,0%,0%);fill-opacity:1;stroke-width:0.75;stroke-linecap:round;stroke-linejoin:round;stroke:rgb(0%,0%,0%);stroke-opacity:1;stroke-miterlimit:10;" d="M 196.484375 65.839844 L 225.421875 79.96875 L 225.320313 80.179688 L 196.382813 66.046875 Z M 196.484375 65.839844 "/>
<path style="fill-rule:nonzero;fill:rgb(0%,0%,0%);fill-opacity:1;stroke-width:0.75;stroke-linecap:round;stroke-linejoin:round;stroke:rgb(0%,0%,0%);stroke-opacity:1;stroke-miterlimit:10;" d="M 192.117188 65.566406 L 169.296875 70.902344 L 169.242188 70.675781 L 192.0625 65.339844 Z M 192.117188 65.566406 "/>
<path style="fill-rule:nonzero;fill:rgb(0%,0%,0%);fill-opacity:1;stroke-width:0.75;stroke-linecap:round;stroke-linejoin:round;stroke:rgb(0%,0%,0%);stroke-opacity:1;stroke-miterlimit:10;" d="M 193.90625 67.203125 L 182.480469 113.351563 L 182.257813 113.296875 L 193.679688 67.148438 Z M 193.90625 67.203125 "/>
<path style="fill-rule:nonzero;fill:rgb(0%,0%,0%);fill-opacity:1;stroke-width:0.75;stroke-linecap:round;stroke-linejoin:round;stroke:rgb(0%,0%,0%);stroke-opacity:1;stroke-miterlimit:10;" d="M 194.246094 67.246094 L 189.753906 114.457031 L 189.523438 114.4375 L 194.015625 67.222656 Z M 194.246094 67.246094 "/>
<path style="fill-rule:nonzero;fill:rgb(0%,0%,0%);fill-opacity:1;stroke-width:0.75;stroke-linecap:round;stroke-linejoin:round;stroke:rgb(0%,0%,0%);stroke-opacity:1;stroke-miterlimit:10;" d="M 256.214844 44.179688 L 233.726563 38.269531 L 233.785156 38.042969 L 256.273438 43.953125 Z M 256.214844 44.179688 "/>
<path style="fill-rule:nonzero;fill:rgb(0%,0%,0%);fill-opacity:1;stroke-width:0.75;stroke-linecap:round;stroke-linejoin:round;stroke:rgb(0%,0%,0%);stroke-opacity:1;stroke-miterlimit:10;" d="M 257.070313 46.5 L 229.046875 79.402344 L 228.871094 79.25 L 256.894531 46.347656 Z M 257.070313 46.5 "/>
<path style="fill-rule:nonzero;fill:rgb(0%,0%,0%);fill-opacity:1;stroke-width:0.75;stroke-linecap:round;stroke-linejoin:round;stroke:rgb(0%,0%,0%);stroke-opacity:1;stroke-miterlimit:10;" d="M 257.898438 46.902344 L 243.917969 91.230469 L 243.699219 91.164063 L 257.679688 46.835938 Z M 257.898438 46.902344 "/>
<path style="fill-rule:nonzero;fill:rgb(0%,0%,0%);fill-opacity:1;stroke-width:0.75;stroke-linecap:round;stroke-linejoin:round;stroke:rgb(0%,0%,0%);stroke-opacity:1;stroke-miterlimit:10;" d="M 232.097656 39.8125 L 242.753906 91.113281 L 242.527344 91.160156 L 231.871094 39.859375 Z M 232.097656 39.8125 "/>
<path style="fill-rule:nonzero;fill:rgb(0%,0%,0%);fill-opacity:1;stroke-width:0.75;stroke-linecap:round;stroke-linejoin:round;stroke:rgb(0%,0%,0%);stroke-opacity:1;stroke-miterlimit:10;" d="M 146.957031 73.371094 L 164.691406 71.449219 L 164.71875 71.679688 L 146.980469 73.601563 Z M 146.957031 73.371094 "/>
<path style="fill-rule:nonzero;fill:rgb(0%,0%,0%);fill-opacity:1;stroke-width:0.75;stroke-linecap:round;stroke-linejoin:round;stroke:rgb(0%,0%,0%);stroke-opacity:1;stroke-miterlimit:10;" d="M 146.414063 75.261719 L 187.824219 115.066406 L 187.664063 115.230469 L 146.253906 75.425781 Z M 146.414063 75.261719 "/>
<path style="fill-rule:nonzero;fill:rgb(0%,0%,0%);fill-opacity:1;stroke-width:0.75;stroke-linecap:round;stroke-linejoin:round;stroke:rgb(0%,0%,0%);stroke-opacity:1;stroke-miterlimit:10;" d="M 225.84375 82.765625 L 191.191406 115.253906 L 191.03125 115.085938 L 225.683594 82.59375 Z M 225.84375 82.765625 "/>
<path style="fill-rule:nonzero;fill:rgb(0%,0%,0%);fill-opacity:1;stroke-width:0.75;stroke-linecap:round;stroke-linejoin:round;stroke:rgb(0%,0%,0%);stroke-opacity:1;stroke-miterlimit:10;" d="M 218.503906 97.8125 L 240.808594 93.714844 L 240.851563 93.945313 L 218.546875 98.042969 Z M 218.503906 97.8125 "/>
<path style="fill-rule:nonzero;fill:rgb(0%,0%,0%);fill-opacity:1;stroke-width:0.75;stroke-linecap:round;stroke-linejoin:round;stroke:rgb(0%,0%,0%);stroke-opacity:1;stroke-miterlimit:10;" d="M 214.394531 99.753906 L 191.394531 115.539063 L 191.265625 115.347656 L 214.265625 99.5625 Z M 214.394531 99.753906 "/>
<path style="fill-rule:nonzero;fill:rgb(0%,0%,0%);fill-opacity:1;stroke-width:0.75;stroke-linecap:round;stroke-linejoin:round;stroke:rgb(0%,0%,0%);stroke-opacity:1;stroke-miterlimit:10;" d="M 167.855469 73.480469 L 181.1875 113.339844 L 180.964844 113.410156 L 167.636719 73.554688 Z M 167.855469 73.480469 "/>
<path style="fill-rule:nonzero;fill:rgb(0%,0%,0%);fill-opacity:1;stroke-width:0.75;stroke-linecap:round;stroke-linejoin:round;stroke:rgb(0%,0%,0%);stroke-opacity:1;stroke-miterlimit:10;" d="M 168.140625 73.34375 L 188.496094 114.625 L 188.289063 114.726563 L 167.933594 73.449219 Z M 168.140625 73.34375 "/>
<path style="fill-rule:nonzero;fill:rgb(0%,0%,0%);fill-opacity:1;stroke-width:0.75;stroke-linecap:round;stroke-linejoin:round;stroke:rgb(0%,0%,0%);stroke-opacity:1;stroke-miterlimit:10;" d="M 206.949219 154.625 L 182.972656 117.585938 L 183.167969 117.460938 L 207.144531 154.5 Z M 206.949219 154.625 "/>
<path style="fill-rule:nonzero;fill:rgb(0%,0%,0%);fill-opacity:1;stroke-width:0.75;stroke-linecap:round;stroke-linejoin:round;stroke:rgb(0%,0%,0%);stroke-opacity:1;stroke-miterlimit:10;" d="M 207.207031 154.464844 L 190.308594 118.902344 L 190.519531 118.800781 L 207.414063 154.363281 Z M 207.207031 154.464844 "/>
<path style="fill-rule:nonzero;fill:rgb(0%,0%,0%);fill-opacity:1;stroke-width:0.75;stroke-linecap:round;stroke-linejoin:round;stroke:rgb(0%,0%,0%);stroke-opacity:1;stroke-miterlimit:10;" d="M 240.96875 94.308594 L 184.03125 114.894531 L 183.953125 114.675781 L 240.890625 94.089844 Z M 240.96875 94.308594 "/>
<path style="fill-rule:nonzero;fill:rgb(0%,0%,0%);fill-opacity:1;stroke-width:0.75;stroke-linecap:round;stroke-linejoin:round;stroke:rgb(0%,0%,0%);stroke-opacity:1;stroke-miterlimit:10;" d="M 241.03125 94.441406 L 191.589844 115.9375 L 191.5 115.726563 L 240.9375 94.230469 Z M 241.03125 94.441406 "/>
<path style="fill-rule:nonzero;fill:rgb(0%,0%,0%);fill-opacity:1;stroke-width:0.75;stroke-linecap:round;stroke-linejoin:round;stroke:rgb(0%,0%,0%);stroke-opacity:1;stroke-miterlimit:10;" d="M 184.121094 115.816406 L 187.144531 116.285156 L 187.109375 116.515625 L 184.085938 116.046875 Z M 184.121094 115.816406 "/>
<path style="fill-rule:nonzero;fill:rgb(87.45098%,32.54902%,41.960784%);fill-opacity:1;stroke-width:0.75;stroke-linecap:round;stroke-linejoin:round;stroke:rgb(0%,0%,0%);stroke-opacity:1;stroke-miterlimit:10;" d="M 294.847656 152.164063 L 294.792969 151.878906 L 294.703125 151.601563 L 294.578125 151.335938 L 294.421875 151.089844 L 294.234375 150.867188 L 294.023438 150.667969 L 293.785156 150.496094 L 293.53125 150.355469 L 293.261719 150.246094 L 292.976563 150.175781 L 292.6875 150.136719 L 292.394531 150.136719 L 292.105469 150.175781 L 291.824219 150.246094 L 291.554688 150.355469 L 291.296875 150.496094 L 291.0625 150.667969 L 290.847656 150.867188 L 290.664063 151.089844 L 290.507813 151.335938 L 290.382813 151.601563 L 290.292969 151.878906 L 290.238281 152.164063 L 290.21875 152.457031 L 290.238281 152.746094 L 290.292969 153.035156 L 290.382813 153.3125 L 290.507813 153.574219 L 290.664063 153.820313 L 290.847656 154.046875 L 291.0625 154.246094 L 291.296875 154.417969 L 291.554688 154.558594 L 291.824219 154.667969 L 292.105469 154.738281 L 292.394531 154.773438 L 292.6875 154.773438 L 292.976563 154.738281 L 293.261719 154.667969 L 293.53125 154.558594 L 293.785156 154.417969 L 294.023438 154.246094 L 294.234375 154.046875 L 294.421875 153.820313 L 294.578125 153.574219 L 294.703125 153.3125 L 294.792969 153.035156 L 294.847656 152.746094 L 294.863281 152.457031 Z M 294.847656 152.164063 "/>
<path style="fill-rule:nonzero;fill:rgb(87.45098%,32.54902%,41.960784%);fill-opacity:1;stroke-width:0.75;stroke-linecap:round;stroke-linejoin:round;stroke:rgb(0%,0%,0%);stroke-opacity:1;stroke-miterlimit:10;" d="M 273.925781 154.886719 L 273.871094 154.601563 L 273.78125 154.324219 L 273.660156 154.058594 L 273.503906 153.8125 L 273.316406 153.589844 L 273.101563 153.390625 L 272.867188 153.21875 L 272.613281 153.078125 L 272.339844 152.96875 L 272.058594 152.898438 L 271.769531 152.859375 L 271.476563 152.859375 L 271.1875 152.898438 L 270.90625 152.96875 L 270.632813 153.078125 L 270.378906 153.21875 L 270.140625 153.390625 L 269.929688 153.589844 L 269.742188 153.8125 L 269.585938 154.058594 L 269.460938 154.324219 L 269.371094 154.601563 L 269.316406 154.886719 L 269.300781 155.179688 L 269.316406 155.46875 L 269.371094 155.757813 L 269.460938 156.035156 L 269.585938 156.296875 L 269.742188 156.542969 L 269.929688 156.769531 L 270.140625 156.96875 L 270.378906 157.140625 L 270.632813 157.28125 L 270.90625 157.386719 L 271.1875 157.460938 L 271.476563 157.496094 L 271.769531 157.496094 L 272.058594 157.460938 L 272.339844 157.386719 L 272.613281 157.28125 L 272.867188 157.140625 L 273.101563 156.96875 L 273.316406 156.769531 L 273.503906 156.542969 L 273.660156 156.296875 L 273.78125 156.035156 L 273.871094 155.757813 L 273.925781 155.46875 L 273.945313 155.179688 Z M 273.925781 154.886719 "/>
<path style="fill-rule:nonzero;fill:rgb(87.45098%,32.54902%,41.960784%);fill-opacity:1;stroke-width:0.75;stroke-linecap:round;stroke-linejoin:round;stroke:rgb(0%,0%,0%);stroke-opacity:1;stroke-miterlimit:10;" d="M 236.261719 145.632813 L 236.207031 145.347656 L 236.117188 145.070313 L 235.992188 144.804688 L 235.835938 144.558594 L 235.652344 144.335938 L 235.4375 144.132813 L 235.203125 143.964844 L 234.945313 143.824219 L 234.675781 143.714844 L 234.394531 143.640625 L 234.105469 143.605469 L 233.8125 143.605469 L 233.523438 143.640625 L 233.238281 143.714844 L 232.96875 143.824219 L 232.714844 143.964844 L 232.476563 144.132813 L 232.265625 144.335938 L 232.078125 144.558594 L 231.921875 144.804688 L 231.796875 145.070313 L 231.707031 145.347656 L 231.652344 145.632813 L 231.636719 145.925781 L 231.652344 146.214844 L 231.707031 146.503906 L 231.796875 146.78125 L 231.921875 147.042969 L 232.078125 147.289063 L 232.265625 147.515625 L 232.476563 147.714844 L 232.714844 147.886719 L 232.96875 148.027344 L 233.238281 148.132813 L 233.523438 148.207031 L 233.8125 148.242188 L 234.105469 148.242188 L 234.394531 148.207031 L 234.675781 148.132813 L 234.945313 148.027344 L 235.203125 147.886719 L 235.4375 147.714844 L 235.652344 147.515625 L 235.835938 147.289063 L 235.992188 147.042969 L 236.117188 146.78125 L 236.207031 146.503906 L 236.261719 146.214844 L 236.28125 145.925781 Z M 236.261719 145.632813 "/>
<path style="fill-rule:nonzero;fill:rgb(87.45098%,32.54902%,41.960784%);fill-opacity:1;stroke-width:0.75;stroke-linecap:round;stroke-linejoin:round;stroke:rgb(0%,0%,0%);stroke-opacity:1;stroke-miterlimit:10;" d="M 271.625 188.933594 L 271.570313 188.644531 L 271.480469 188.367188 L 271.359375 188.105469 L 271.203125 187.859375 L 271.015625 187.632813 L 270.800781 187.433594 L 270.566406 187.261719 L 270.3125 187.121094 L 270.039063 187.015625 L 269.757813 186.941406 L 269.46875 186.90625 L 269.175781 186.90625 L 268.886719 186.941406 L 268.605469 187.015625 L 268.332031 187.121094 L 268.078125 187.261719 L 267.839844 187.433594 L 267.628906 187.632813 L 267.441406 187.859375 L 267.285156 188.105469 L 267.160156 188.367188 L 267.070313 188.644531 L 267.015625 188.933594 L 267 189.222656 L 267.015625 189.515625 L 267.070313 189.800781 L 267.160156 190.078125 L 267.285156 190.34375 L 267.441406 190.589844 L 267.628906 190.8125 L 267.839844 191.011719 L 268.078125 191.183594 L 268.332031 191.324219 L 268.605469 191.433594 L 268.886719 191.503906 L 269.175781 191.542969 L 269.46875 191.542969 L 269.757813 191.503906 L 270.039063 191.433594 L 270.3125 191.324219 L 270.566406 191.183594 L 270.800781 191.011719 L 271.015625 190.8125 L 271.203125 190.589844 L 271.359375 190.34375 L 271.480469 190.078125 L 271.570313 189.800781 L 271.625 189.515625 L 271.644531 189.222656 Z M 271.625 188.933594 "/>
<path style="fill-rule:nonzero;fill:rgb(87.45098%,32.54902%,41.960784%);fill-opacity:1;stroke-width:0.75;stroke-linecap:round;stroke-linejoin:round;stroke:rgb(0%,0%,0%);stroke-opacity:1;stroke-miterlimit:10;" d="M 353.621094 150.035156 L 353.566406 149.746094 L 353.476563 149.46875 L 353.351563 149.207031 L 353.195313 148.960938 L 353.011719 148.734375 L 352.796875 148.535156 L 352.5625 148.363281 L 352.304688 148.222656 L 352.035156 148.117188 L 351.75 148.042969 L 351.460938 148.007813 L 351.171875 148.007813 L 350.882813 148.042969 L 350.597656 148.117188 L 350.328125 148.222656 L 350.070313 148.363281 L 349.835938 148.535156 L 349.625 148.734375 L 349.4375 148.960938 L 349.28125 149.207031 L 349.15625 149.46875 L 349.066406 149.746094 L 349.011719 150.035156 L 348.992188 150.324219 L 349.011719 150.617188 L 349.066406 150.902344 L 349.15625 151.179688 L 349.28125 151.445313 L 349.4375 151.691406 L 349.625 151.914063 L 349.835938 152.113281 L 350.070313 152.285156 L 350.328125 152.425781 L 350.597656 152.535156 L 350.882813 152.605469 L 351.171875 152.644531 L 351.460938 152.644531 L 351.75 152.605469 L 352.035156 152.535156 L 352.304688 152.425781 L 352.5625 152.285156 L 352.796875 152.113281 L 353.011719 151.914063 L 353.195313 151.691406 L 353.351563 151.445313 L 353.476563 151.179688 L 353.566406 150.902344 L 353.621094 150.617188 L 353.640625 150.324219 Z M 353.621094 150.035156 "/>
<path style="fill-rule:nonzero;fill:rgb(87.45098%,32.54902%,41.960784%);fill-opacity:1;stroke-width:0.75;stroke-linecap:round;stroke-linejoin:round;stroke:rgb(0%,0%,0%);stroke-opacity:1;stroke-miterlimit:10;" d="M 338.417969 194.238281 L 338.363281 193.949219 L 338.273438 193.671875 L 338.148438 193.410156 L 337.992188 193.164063 L 337.808594 192.9375 L 337.59375 192.738281 L 337.359375 192.566406 L 337.101563 192.425781 L 336.832031 192.320313 L 336.546875 192.246094 L 336.257813 192.210938 L 335.96875 192.210938 L 335.679688 192.246094 L 335.394531 192.320313 L 335.125 192.425781 L 334.867188 192.566406 L 334.632813 192.738281 L 334.417969 192.9375 L 334.234375 193.164063 L 334.078125 193.410156 L 333.953125 193.671875 L 333.863281 193.949219 L 333.808594 194.238281 L 333.789063 194.527344 L 333.808594 194.820313 L 333.863281 195.105469 L 333.953125 195.382813 L 334.078125 195.648438 L 334.234375 195.894531 L 334.417969 196.117188 L 334.632813 196.320313 L 334.867188 196.492188 L 335.125 196.628906 L 335.394531 196.738281 L 335.679688 196.8125 L 335.96875 196.847656 L 336.257813 196.847656 L 336.546875 196.8125 L 336.832031 196.738281 L 337.101563 196.628906 L 337.359375 196.492188 L 337.59375 196.320313 L 337.808594 196.117188 L 337.992188 195.894531 L 338.148438 195.648438 L 338.273438 195.382813 L 338.363281 195.105469 L 338.417969 194.820313 L 338.4375 194.527344 Z M 338.417969 194.238281 "/>
<path style="fill-rule:nonzero;fill:rgb(87.45098%,32.54902%,41.960784%);fill-opacity:1;stroke-width:0.75;stroke-linecap:round;stroke-linejoin:round;stroke:rgb(0%,0%,0%);stroke-opacity:1;stroke-miterlimit:10;" d="M 348.128906 180.941406 L 348.074219 180.652344 L 347.984375 180.375 L 347.859375 180.113281 L 347.703125 179.867188 L 347.519531 179.640625 L 347.304688 179.441406 L 347.070313 179.269531 L 346.8125 179.128906 L 346.542969 179.023438 L 346.261719 178.949219 L 345.972656 178.914063 L 345.679688 178.914063 L 345.390625 178.949219 L 345.105469 179.023438 L 344.835938 179.128906 L 344.582031 179.269531 L 344.34375 179.441406 L 344.132813 179.640625 L 343.945313 179.867188 L 343.789063 180.113281 L 343.664063 180.375 L 343.574219 180.652344 L 343.519531 180.941406 L 343.503906 181.230469 L 343.519531 181.523438 L 343.574219 181.808594 L 343.664063 182.085938 L 343.789063 182.351563 L 343.945313 182.597656 L 344.132813 182.820313 L 344.34375 183.019531 L 344.582031 183.191406 L 344.835938 183.332031 L 345.105469 183.441406 L 345.390625 183.511719 L 345.679688 183.550781 L 345.972656 183.550781 L 346.261719 183.511719 L 346.542969 183.441406 L 346.8125 183.332031 L 347.070313 183.191406 L 347.304688 183.019531 L 347.519531 182.820313 L 347.703125 182.597656 L 347.859375 182.351563 L 347.984375 182.085938 L 348.074219 181.808594 L 348.128906 181.523438 L 348.148438 181.230469 Z M 348.128906 180.941406 "/>
<path style="fill-rule:nonzero;fill:rgb(87.45098%,32.54902%,41.960784%);fill-opacity:1;stroke-width:0.75;stroke-linecap:round;stroke-linejoin:round;stroke:rgb(0%,0%,0%);stroke-opacity:1;stroke-miterlimit:10;" d="M 260.683594 193.457031 L 260.628906 193.171875 L 260.539063 192.894531 L 260.414063 192.628906 L 260.257813 192.382813 L 260.070313 192.160156 L 259.859375 191.957031 L 259.621094 191.789063 L 259.367188 191.648438 L 259.09375 191.539063 L 258.8125 191.464844 L 258.523438 191.429688 L 258.230469 191.429688 L 257.941406 191.464844 L 257.660156 191.539063 L 257.386719 191.648438 L 257.132813 191.789063 L 256.898438 191.957031 L 256.683594 192.160156 L 256.5 192.382813 L 256.34375 192.628906 L 256.21875 192.894531 L 256.128906 193.171875 L 256.074219 193.457031 L 256.054688 193.75 L 256.074219 194.039063 L 256.128906 194.328125 L 256.21875 194.605469 L 256.34375 194.867188 L 256.5 195.113281 L 256.683594 195.339844 L 256.898438 195.539063 L 257.132813 195.710938 L 257.386719 195.851563 L 257.660156 195.957031 L 257.941406 196.03125 L 258.230469 196.066406 L 258.523438 196.066406 L 258.8125 196.03125 L 259.09375 195.957031 L 259.367188 195.851563 L 259.621094 195.710938 L 259.859375 195.539063 L 260.070313 195.339844 L 260.257813 195.113281 L 260.414063 194.867188 L 260.539063 194.605469 L 260.628906 194.328125 L 260.683594 194.039063 L 260.699219 193.75 Z M 260.683594 193.457031 "/>
<path style="fill-rule:nonzero;fill:rgb(87.45098%,32.54902%,41.960784%);fill-opacity:1;stroke-width:0.75;stroke-linecap:round;stroke-linejoin:round;stroke:rgb(0%,0%,0%);stroke-opacity:1;stroke-miterlimit:10;" d="M 232.589844 131.039063 L 232.535156 130.753906 L 232.445313 130.476563 L 232.324219 130.210938 L 232.167969 129.964844 L 231.980469 129.738281 L 231.769531 129.539063 L 231.53125 129.367188 L 231.277344 129.226563 L 231.003906 129.121094 L 230.722656 129.046875 L 230.433594 129.011719 L 230.140625 129.011719 L 229.851563 129.046875 L 229.570313 129.121094 L 229.296875 129.226563 L 229.042969 129.367188 L 228.804688 129.539063 L 228.59375 129.738281 L 228.40625 129.964844 L 228.25 130.210938 L 228.128906 130.476563 L 228.035156 130.753906 L 227.980469 131.039063 L 227.964844 131.328125 L 227.980469 131.621094 L 228.035156 131.90625 L 228.128906 132.183594 L 228.25 132.449219 L 228.40625 132.695313 L 228.59375 132.921875 L 228.804688 133.121094 L 229.042969 133.292969 L 229.296875 133.433594 L 229.570313 133.539063 L 229.851563 133.613281 L 230.140625 133.648438 L 230.433594 133.648438 L 230.722656 133.613281 L 231.003906 133.539063 L 231.277344 133.433594 L 231.53125 133.292969 L 231.769531 133.121094 L 231.980469 132.921875 L 232.167969 132.695313 L 232.324219 132.449219 L 232.445313 132.183594 L 232.535156 131.90625 L 232.589844 131.621094 L 232.609375 131.328125 Z M 232.589844 131.039063 "/>
<path style="fill-rule:nonzero;fill:rgb(87.45098%,32.54902%,41.960784%);fill-opacity:1;stroke-width:0.75;stroke-linecap:round;stroke-linejoin:round;stroke:rgb(0%,0%,0%);stroke-opacity:1;stroke-miterlimit:10;" d="M 186.589844 170.996094 L 186.535156 170.710938 L 186.445313 170.433594 L 186.320313 170.167969 L 186.164063 169.921875 L 185.976563 169.695313 L 185.765625 169.496094 L 185.53125 169.324219 L 185.273438 169.183594 L 185.003906 169.078125 L 184.71875 169.003906 L 184.429688 168.96875 L 184.140625 168.96875 L 183.847656 169.003906 L 183.566406 169.078125 L 183.296875 169.183594 L 183.039063 169.324219 L 182.804688 169.496094 L 182.589844 169.695313 L 182.40625 169.921875 L 182.25 170.167969 L 182.125 170.433594 L 182.035156 170.710938 L 181.980469 170.996094 L 181.960938 171.285156 L 181.980469 171.578125 L 182.035156 171.863281 L 182.125 172.140625 L 182.25 172.40625 L 182.40625 172.652344 L 182.589844 172.878906 L 182.804688 173.078125 L 183.039063 173.25 L 183.296875 173.390625 L 183.566406 173.496094 L 183.847656 173.570313 L 184.140625 173.605469 L 184.429688 173.605469 L 184.71875 173.570313 L 185.003906 173.496094 L 185.273438 173.390625 L 185.53125 173.25 L 185.765625 173.078125 L 185.976563 172.878906 L 186.164063 172.652344 L 186.320313 172.40625 L 186.445313 172.140625 L 186.535156 171.863281 L 186.589844 171.578125 L 186.609375 171.285156 Z M 186.589844 170.996094 "/>
<path style="fill-rule:nonzero;fill:rgb(87.45098%,32.54902%,41.960784%);fill-opacity:1;stroke-width:0.75;stroke-linecap:round;stroke-linejoin:round;stroke:rgb(0%,0%,0%);stroke-opacity:1;stroke-miterlimit:10;" d="M 349.332031 165.636719 L 349.277344 165.351563 L 349.1875 165.074219 L 349.0625 164.808594 L 348.90625 164.5625 L 348.71875 164.335938 L 348.507813 164.136719 L 348.269531 163.964844 L 348.015625 163.824219 L 347.742188 163.71875 L 347.460938 163.644531 L 347.171875 163.609375 L 346.878906 163.609375 L 346.589844 163.644531 L 346.308594 163.71875 L 346.035156 163.824219 L 345.78125 163.964844 L 345.542969 164.136719 L 345.332031 164.335938 L 345.144531 164.5625 L 344.988281 164.808594 L 344.867188 165.074219 L 344.777344 165.351563 L 344.722656 165.636719 L 344.703125 165.925781 L 344.722656 166.21875 L 344.777344 166.503906 L 344.867188 166.78125 L 344.988281 167.046875 L 345.144531 167.292969 L 345.332031 167.519531 L 345.542969 167.71875 L 345.78125 167.890625 L 346.035156 168.03125 L 346.308594 168.136719 L 346.589844 168.210938 L 346.878906 168.246094 L 347.171875 168.246094 L 347.460938 168.210938 L 347.742188 168.136719 L 348.015625 168.03125 L 348.269531 167.890625 L 348.507813 167.71875 L 348.71875 167.519531 L 348.90625 167.292969 L 349.0625 167.046875 L 349.1875 166.78125 L 349.277344 166.503906 L 349.332031 166.21875 L 349.347656 165.925781 Z M 349.332031 165.636719 "/>
<path style="fill-rule:nonzero;fill:rgb(87.45098%,32.54902%,41.960784%);fill-opacity:1;stroke-width:0.75;stroke-linecap:round;stroke-linejoin:round;stroke:rgb(0%,0%,0%);stroke-opacity:1;stroke-miterlimit:10;" d="M 344.566406 115.070313 L 344.511719 114.785156 L 344.421875 114.507813 L 344.296875 114.242188 L 344.140625 113.996094 L 343.957031 113.769531 L 343.742188 113.570313 L 343.507813 113.398438 L 343.25 113.257813 L 342.980469 113.152344 L 342.699219 113.078125 L 342.410156 113.042969 L 342.117188 113.042969 L 341.828125 113.078125 L 341.542969 113.152344 L 341.273438 113.257813 L 341.019531 113.398438 L 340.78125 113.570313 L 340.570313 113.769531 L 340.382813 113.996094 L 340.226563 114.242188 L 340.101563 114.507813 L 340.011719 114.785156 L 339.957031 115.070313 L 339.941406 115.359375 L 339.957031 115.652344 L 340.011719 115.9375 L 340.101563 116.214844 L 340.226563 116.480469 L 340.382813 116.726563 L 340.570313 116.953125 L 340.78125 117.152344 L 341.019531 117.324219 L 341.273438 117.464844 L 341.542969 117.570313 L 341.828125 117.644531 L 342.117188 117.679688 L 342.410156 117.679688 L 342.699219 117.644531 L 342.980469 117.570313 L 343.25 117.464844 L 343.507813 117.324219 L 343.742188 117.152344 L 343.957031 116.953125 L 344.140625 116.726563 L 344.296875 116.480469 L 344.421875 116.214844 L 344.511719 115.9375 L 344.566406 115.652344 L 344.585938 115.359375 Z M 344.566406 115.070313 "/>
<path style="fill-rule:nonzero;fill:rgb(87.45098%,32.54902%,41.960784%);fill-opacity:1;stroke-width:0.75;stroke-linecap:round;stroke-linejoin:round;stroke:rgb(0%,0%,0%);stroke-opacity:1;stroke-miterlimit:10;" d="M 301.089844 210.949219 L 301.035156 210.664063 L 300.945313 210.386719 L 300.824219 210.121094 L 300.667969 209.875 L 300.480469 209.648438 L 300.265625 209.449219 L 300.03125 209.277344 L 299.777344 209.136719 L 299.503906 209.03125 L 299.222656 208.957031 L 298.933594 208.921875 L 298.640625 208.921875 L 298.351563 208.957031 L 298.070313 209.03125 L 297.796875 209.136719 L 297.542969 209.277344 L 297.304688 209.449219 L 297.09375 209.648438 L 296.90625 209.875 L 296.75 210.121094 L 296.625 210.386719 L 296.535156 210.664063 L 296.480469 210.949219 L 296.464844 211.242188 L 296.480469 211.53125 L 296.535156 211.816406 L 296.625 212.09375 L 296.75 212.359375 L 296.90625 212.605469 L 297.09375 212.832031 L 297.304688 213.03125 L 297.542969 213.203125 L 297.796875 213.34375 L 298.070313 213.449219 L 298.351563 213.523438 L 298.640625 213.558594 L 298.933594 213.558594 L 299.222656 213.523438 L 299.503906 213.449219 L 299.777344 213.34375 L 300.03125 213.203125 L 300.265625 213.03125 L 300.480469 212.832031 L 300.667969 212.605469 L 300.824219 212.359375 L 300.945313 212.09375 L 301.035156 211.816406 L 301.089844 211.53125 L 301.109375 211.242188 Z M 301.089844 210.949219 "/>
<path style="fill-rule:nonzero;fill:rgb(87.45098%,32.54902%,41.960784%);fill-opacity:1;stroke-width:0.75;stroke-linecap:round;stroke-linejoin:round;stroke:rgb(0%,0%,0%);stroke-opacity:1;stroke-miterlimit:10;" d="M 239.484375 166.023438 L 239.429688 165.738281 L 239.339844 165.460938 L 239.214844 165.199219 L 239.058594 164.949219 L 238.875 164.726563 L 238.660156 164.527344 L 238.425781 164.355469 L 238.167969 164.214844 L 237.898438 164.105469 L 237.617188 164.035156 L 237.328125 163.996094 L 237.035156 163.996094 L 236.746094 164.035156 L 236.460938 164.105469 L 236.191406 164.214844 L 235.9375 164.355469 L 235.699219 164.527344 L 235.488281 164.726563 L 235.300781 164.949219 L 235.144531 165.199219 L 235.019531 165.460938 L 234.929688 165.738281 L 234.875 166.023438 L 234.859375 166.316406 L 234.875 166.609375 L 234.929688 166.894531 L 235.019531 167.171875 L 235.144531 167.4375 L 235.300781 167.683594 L 235.488281 167.90625 L 235.699219 168.105469 L 235.9375 168.277344 L 236.191406 168.417969 L 236.460938 168.527344 L 236.746094 168.597656 L 237.035156 168.636719 L 237.328125 168.636719 L 237.617188 168.597656 L 237.898438 168.527344 L 238.167969 168.417969 L 238.425781 168.277344 L 238.660156 168.105469 L 238.875 167.90625 L 239.058594 167.683594 L 239.214844 167.4375 L 239.339844 167.171875 L 239.429688 166.894531 L 239.484375 166.609375 L 239.503906 166.316406 Z M 239.484375 166.023438 "/>
<path style="fill-rule:nonzero;fill:rgb(87.45098%,32.54902%,41.960784%);fill-opacity:1;stroke-width:0.75;stroke-linecap:round;stroke-linejoin:round;stroke:rgb(0%,0%,0%);stroke-opacity:1;stroke-miterlimit:10;" d="M 155.027344 153.148438 L 154.972656 152.859375 L 154.882813 152.582031 L 154.761719 152.320313 L 154.605469 152.074219 L 154.417969 151.847656 L 154.207031 151.648438 L 153.96875 151.476563 L 153.714844 151.335938 L 153.441406 151.226563 L 153.160156 151.15625 L 152.871094 151.121094 L 152.578125 151.121094 L 152.289063 151.15625 L 152.007813 151.226563 L 151.734375 151.335938 L 151.480469 151.476563 L 151.242188 151.648438 L 151.03125 151.847656 L 150.84375 152.074219 L 150.6875 152.320313 L 150.566406 152.582031 L 150.472656 152.859375 L 150.417969 153.148438 L 150.402344 153.4375 L 150.417969 153.730469 L 150.472656 154.015625 L 150.566406 154.292969 L 150.6875 154.558594 L 150.84375 154.804688 L 151.03125 155.027344 L 151.242188 155.226563 L 151.480469 155.398438 L 151.734375 155.539063 L 152.007813 155.648438 L 152.289063 155.71875 L 152.578125 155.757813 L 152.871094 155.757813 L 153.160156 155.71875 L 153.441406 155.648438 L 153.714844 155.539063 L 153.96875 155.398438 L 154.207031 155.226563 L 154.417969 155.027344 L 154.605469 154.804688 L 154.761719 154.558594 L 154.882813 154.292969 L 154.972656 154.015625 L 155.027344 153.730469 L 155.046875 153.4375 Z M 155.027344 153.148438 "/>
<path style="fill-rule:nonzero;fill:rgb(87.45098%,32.54902%,41.960784%);fill-opacity:1;stroke-width:0.75;stroke-linecap:round;stroke-linejoin:round;stroke:rgb(0%,0%,0%);stroke-opacity:1;stroke-miterlimit:10;" d="M 147.066406 95.113281 L 147.011719 94.828125 L 146.921875 94.550781 L 146.796875 94.285156 L 146.640625 94.039063 L 146.453125 93.8125 L 146.242188 93.613281 L 146.007813 93.441406 L 145.75 93.300781 L 145.480469 93.195313 L 145.195313 93.121094 L 144.90625 93.085938 L 144.617188 93.085938 L 144.328125 93.121094 L 144.042969 93.195313 L 143.773438 93.300781 L 143.515625 93.441406 L 143.28125 93.613281 L 143.066406 93.8125 L 142.882813 94.039063 L 142.726563 94.285156 L 142.601563 94.550781 L 142.511719 94.828125 L 142.457031 95.113281 L 142.4375 95.40625 L 142.457031 95.695313 L 142.511719 95.980469 L 142.601563 96.257813 L 142.726563 96.523438 L 142.882813 96.769531 L 143.066406 96.996094 L 143.28125 97.195313 L 143.515625 97.367188 L 143.773438 97.507813 L 144.042969 97.613281 L 144.328125 97.6875 L 144.617188 97.722656 L 144.90625 97.722656 L 145.195313 97.6875 L 145.480469 97.613281 L 145.75 97.507813 L 146.007813 97.367188 L 146.242188 97.195313 L 146.453125 96.996094 L 146.640625 96.769531 L 146.796875 96.523438 L 146.921875 96.257813 L 147.011719 95.980469 L 147.066406 95.695313 L 147.085938 95.40625 Z M 147.066406 95.113281 "/>
<path style="fill-rule:nonzero;fill:rgb(87.45098%,32.54902%,41.960784%);fill-opacity:1;stroke-width:0.75;stroke-linecap:round;stroke-linejoin:round;stroke:rgb(0%,0%,0%);stroke-opacity:1;stroke-miterlimit:10;" d="M 368.171875 214.144531 L 368.117188 213.855469 L 368.027344 213.578125 L 367.902344 213.316406 L 367.746094 213.070313 L 367.558594 212.84375 L 367.347656 212.644531 L 367.113281 212.472656 L 366.855469 212.332031 L 366.585938 212.226563 L 366.300781 212.152344 L 366.011719 212.117188 L 365.722656 212.117188 L 365.429688 212.152344 L 365.148438 212.226563 L 364.878906 212.332031 L 364.621094 212.472656 L 364.386719 212.644531 L 364.171875 212.84375 L 363.988281 213.070313 L 363.832031 213.316406 L 363.707031 213.578125 L 363.617188 213.855469 L 363.5625 214.144531 L 363.542969 214.433594 L 363.5625 214.726563 L 363.617188 215.011719 L 363.707031 215.289063 L 363.832031 215.554688 L 363.988281 215.800781 L 364.171875 216.023438 L 364.386719 216.222656 L 364.621094 216.394531 L 364.878906 216.535156 L 365.148438 216.644531 L 365.429688 216.714844 L 365.722656 216.753906 L 366.011719 216.753906 L 366.300781 216.714844 L 366.585938 216.644531 L 366.855469 216.535156 L 367.113281 216.394531 L 367.347656 216.222656 L 367.558594 216.023438 L 367.746094 215.800781 L 367.902344 215.554688 L 368.027344 215.289063 L 368.117188 215.011719 L 368.171875 214.726563 L 368.191406 214.433594 Z M 368.171875 214.144531 "/>
<path style="fill-rule:nonzero;fill:rgb(87.45098%,32.54902%,41.960784%);fill-opacity:1;stroke-width:0.75;stroke-linecap:round;stroke-linejoin:round;stroke:rgb(0%,0%,0%);stroke-opacity:1;stroke-miterlimit:10;" d="M 316.832031 119.109375 L 316.777344 118.824219 L 316.6875 118.546875 L 316.5625 118.285156 L 316.40625 118.035156 L 316.21875 117.8125 L 316.007813 117.613281 L 315.769531 117.441406 L 315.515625 117.300781 L 315.242188 117.191406 L 314.960938 117.121094 L 314.671875 117.082031 L 314.378906 117.082031 L 314.089844 117.121094 L 313.808594 117.191406 L 313.535156 117.300781 L 313.28125 117.441406 L 313.046875 117.613281 L 312.832031 117.8125 L 312.644531 118.035156 L 312.488281 118.285156 L 312.367188 118.546875 L 312.277344 118.824219 L 312.222656 119.109375 L 312.203125 119.402344 L 312.222656 119.695313 L 312.277344 119.980469 L 312.367188 120.257813 L 312.488281 120.523438 L 312.644531 120.769531 L 312.832031 120.992188 L 313.046875 121.191406 L 313.28125 121.363281 L 313.535156 121.503906 L 313.808594 121.613281 L 314.089844 121.683594 L 314.378906 121.722656 L 314.671875 121.722656 L 314.960938 121.683594 L 315.242188 121.613281 L 315.515625 121.503906 L 315.769531 121.363281 L 316.007813 121.191406 L 316.21875 120.992188 L 316.40625 120.769531 L 316.5625 120.523438 L 316.6875 120.257813 L 316.777344 119.980469 L 316.832031 119.695313 L 316.847656 119.402344 Z M 316.832031 119.109375 "/>
<path style="fill-rule:nonzero;fill:rgb(87.45098%,32.54902%,41.960784%);fill-opacity:1;stroke-width:0.75;stroke-linecap:round;stroke-linejoin:round;stroke:rgb(0%,0%,0%);stroke-opacity:1;stroke-miterlimit:10;" d="M 140.539063 125.222656 L 140.484375 124.9375 L 140.394531 124.660156 L 140.269531 124.394531 L 140.113281 124.148438 L 139.925781 123.921875 L 139.714844 123.722656 L 139.476563 123.550781 L 139.222656 123.410156 L 138.953125 123.304688 L 138.667969 123.230469 L 138.378906 123.195313 L 138.085938 123.195313 L 137.796875 123.230469 L 137.515625 123.304688 L 137.246094 123.410156 L 136.988281 123.550781 L 136.753906 123.722656 L 136.539063 123.921875 L 136.355469 124.148438 L 136.199219 124.394531 L 136.074219 124.660156 L 135.984375 124.9375 L 135.929688 125.222656 L 135.910156 125.511719 L 135.929688 125.804688 L 135.984375 126.089844 L 136.074219 126.367188 L 136.199219 126.632813 L 136.355469 126.878906 L 136.539063 127.105469 L 136.753906 127.304688 L 136.988281 127.476563 L 137.246094 127.617188 L 137.515625 127.722656 L 137.796875 127.796875 L 138.085938 127.832031 L 138.378906 127.832031 L 138.667969 127.796875 L 138.953125 127.722656 L 139.222656 127.617188 L 139.476563 127.476563 L 139.714844 127.304688 L 139.925781 127.105469 L 140.113281 126.878906 L 140.269531 126.632813 L 140.394531 126.367188 L 140.484375 126.089844 L 140.539063 125.804688 L 140.554688 125.511719 Z M 140.539063 125.222656 "/>
<path style="fill-rule:nonzero;fill:rgb(87.45098%,32.54902%,41.960784%);fill-opacity:1;stroke-width:0.75;stroke-linecap:round;stroke-linejoin:round;stroke:rgb(0%,0%,0%);stroke-opacity:1;stroke-miterlimit:10;" d="M 258.375 118.027344 L 258.320313 117.738281 L 258.230469 117.460938 L 258.105469 117.199219 L 257.949219 116.949219 L 257.761719 116.726563 L 257.550781 116.527344 L 257.3125 116.355469 L 257.058594 116.214844 L 256.785156 116.105469 L 256.503906 116.035156 L 256.214844 116 L 255.921875 116 L 255.632813 116.035156 L 255.351563 116.105469 L 255.078125 116.214844 L 254.824219 116.355469 L 254.589844 116.527344 L 254.375 116.726563 L 254.1875 116.949219 L 254.03125 117.199219 L 253.910156 117.460938 L 253.820313 117.738281 L 253.765625 118.027344 L 253.746094 118.316406 L 253.765625 118.609375 L 253.820313 118.894531 L 253.910156 119.171875 L 254.03125 119.4375 L 254.1875 119.683594 L 254.375 119.90625 L 254.589844 120.105469 L 254.824219 120.277344 L 255.078125 120.417969 L 255.351563 120.527344 L 255.632813 120.597656 L 255.921875 120.636719 L 256.214844 120.636719 L 256.503906 120.597656 L 256.785156 120.527344 L 257.058594 120.417969 L 257.3125 120.277344 L 257.550781 120.105469 L 257.761719 119.90625 L 257.949219 119.683594 L 258.105469 119.4375 L 258.230469 119.171875 L 258.320313 118.894531 L 258.375 118.609375 L 258.390625 118.316406 Z M 258.375 118.027344 "/>
<path style="fill-rule:nonzero;fill:rgb(87.45098%,32.54902%,41.960784%);fill-opacity:1;stroke-width:0.75;stroke-linecap:round;stroke-linejoin:round;stroke:rgb(0%,0%,0%);stroke-opacity:1;stroke-miterlimit:10;" d="M 145.296875 139.792969 L 145.242188 139.503906 L 145.152344 139.226563 L 145.027344 138.964844 L 144.871094 138.714844 L 144.6875 138.492188 L 144.472656 138.292969 L 144.238281 138.121094 L 143.980469 137.980469 L 143.710938 137.871094 L 143.425781 137.800781 L 143.136719 137.765625 L 142.847656 137.765625 L 142.558594 137.800781 L 142.273438 137.871094 L 142.003906 137.980469 L 141.746094 138.121094 L 141.511719 138.292969 L 141.296875 138.492188 L 141.113281 138.714844 L 140.957031 138.964844 L 140.832031 139.226563 L 140.742188 139.503906 L 140.6875 139.792969 L 140.667969 140.082031 L 140.6875 140.375 L 140.742188 140.660156 L 140.832031 140.9375 L 140.957031 141.203125 L 141.113281 141.449219 L 141.296875 141.671875 L 141.511719 141.871094 L 141.746094 142.042969 L 142.003906 142.183594 L 142.273438 142.292969 L 142.558594 142.363281 L 142.847656 142.402344 L 143.136719 142.402344 L 143.425781 142.363281 L 143.710938 142.292969 L 143.980469 142.183594 L 144.238281 142.042969 L 144.472656 141.871094 L 144.6875 141.671875 L 144.871094 141.449219 L 145.027344 141.203125 L 145.152344 140.9375 L 145.242188 140.660156 L 145.296875 140.375 L 145.316406 140.082031 Z M 145.296875 139.792969 "/>
<path style="fill-rule:nonzero;fill:rgb(87.45098%,32.54902%,41.960784%);fill-opacity:1;stroke-width:0.75;stroke-linecap:round;stroke-linejoin:round;stroke:rgb(0%,0%,0%);stroke-opacity:1;stroke-miterlimit:10;" d="M 326.9375 148.136719 L 326.882813 147.851563 L 326.792969 147.574219 L 326.667969 147.308594 L 326.511719 147.0625 L 326.328125 146.839844 L 326.113281 146.640625 L 325.878906 146.46875 L 325.625 146.328125 L 325.351563 146.21875 L 325.070313 146.148438 L 324.78125 146.109375 L 324.488281 146.109375 L 324.199219 146.148438 L 323.917969 146.21875 L 323.644531 146.328125 L 323.390625 146.46875 L 323.152344 146.640625 L 322.941406 146.839844 L 322.753906 147.0625 L 322.597656 147.308594 L 322.472656 147.574219 L 322.382813 147.851563 L 322.328125 148.136719 L 322.3125 148.429688 L 322.328125 148.71875 L 322.382813 149.007813 L 322.472656 149.285156 L 322.597656 149.546875 L 322.753906 149.792969 L 322.941406 150.019531 L 323.152344 150.21875 L 323.390625 150.390625 L 323.644531 150.53125 L 323.917969 150.636719 L 324.199219 150.710938 L 324.488281 150.746094 L 324.78125 150.746094 L 325.070313 150.710938 L 325.351563 150.636719 L 325.625 150.53125 L 325.878906 150.390625 L 326.113281 150.21875 L 326.328125 150.019531 L 326.511719 149.792969 L 326.667969 149.546875 L 326.792969 149.285156 L 326.882813 149.007813 L 326.9375 148.71875 L 326.957031 148.429688 Z M 326.9375 148.136719 "/>
<path style="fill-rule:nonzero;fill:rgb(87.45098%,32.54902%,41.960784%);fill-opacity:1;stroke-width:0.75;stroke-linecap:round;stroke-linejoin:round;stroke:rgb(0%,0%,0%);stroke-opacity:1;stroke-miterlimit:10;" d="M 140.4375 108.769531 L 140.382813 108.484375 L 140.292969 108.207031 L 140.167969 107.941406 L 140.011719 107.695313 L 139.828125 107.46875 L 139.613281 107.269531 L 139.378906 107.097656 L 139.121094 106.957031 L 138.851563 106.851563 L 138.570313 106.777344 L 138.277344 106.742188 L 137.988281 106.742188 L 137.699219 106.777344 L 137.414063 106.851563 L 137.144531 106.957031 L 136.886719 107.097656 L 136.652344 107.269531 L 136.441406 107.46875 L 136.253906 107.695313 L 136.097656 107.941406 L 135.972656 108.207031 L 135.882813 108.484375 L 135.828125 108.769531 L 135.808594 109.058594 L 135.828125 109.351563 L 135.882813 109.636719 L 135.972656 109.914063 L 136.097656 110.179688 L 136.253906 110.425781 L 136.441406 110.652344 L 136.652344 110.851563 L 136.886719 111.023438 L 137.144531 111.164063 L 137.414063 111.269531 L 137.699219 111.34375 L 137.988281 111.378906 L 138.277344 111.378906 L 138.570313 111.34375 L 138.851563 111.269531 L 139.121094 111.164063 L 139.378906 111.023438 L 139.613281 110.851563 L 139.828125 110.652344 L 140.011719 110.425781 L 140.167969 110.179688 L 140.292969 109.914063 L 140.382813 109.636719 L 140.4375 109.351563 L 140.457031 109.058594 Z M 140.4375 108.769531 "/>
<path style="fill-rule:nonzero;fill:rgb(87.45098%,32.54902%,41.960784%);fill-opacity:1;stroke-width:0.75;stroke-linecap:round;stroke-linejoin:round;stroke:rgb(0%,0%,0%);stroke-opacity:1;stroke-miterlimit:10;" d="M 196.652344 64.632813 L 196.597656 64.347656 L 196.507813 64.070313 L 196.386719 63.804688 L 196.230469 63.558594 L 196.042969 63.335938 L 195.832031 63.136719 L 195.59375 62.964844 L 195.339844 62.824219 L 195.066406 62.714844 L 194.785156 62.644531 L 194.496094 62.605469 L 194.203125 62.605469 L 193.914063 62.644531 L 193.632813 62.714844 L 193.359375 62.824219 L 193.105469 62.964844 L 192.867188 63.136719 L 192.65625 63.335938 L 192.46875 63.558594 L 192.3125 63.804688 L 192.191406 64.070313 L 192.097656 64.347656 L 192.042969 64.632813 L 192.027344 64.925781 L 192.042969 65.214844 L 192.097656 65.503906 L 192.191406 65.78125 L 192.3125 66.042969 L 192.46875 66.289063 L 192.65625 66.515625 L 192.867188 66.714844 L 193.105469 66.886719 L 193.359375 67.027344 L 193.632813 67.132813 L 193.914063 67.207031 L 194.203125 67.242188 L 194.496094 67.242188 L 194.785156 67.207031 L 195.066406 67.132813 L 195.339844 67.027344 L 195.59375 66.886719 L 195.832031 66.714844 L 196.042969 66.515625 L 196.230469 66.289063 L 196.386719 66.042969 L 196.507813 65.78125 L 196.597656 65.503906 L 196.652344 65.214844 L 196.671875 64.925781 Z M 196.652344 64.632813 "/>
<path style="fill-rule:nonzero;fill:rgb(87.45098%,32.54902%,41.960784%);fill-opacity:1;stroke-width:0.75;stroke-linecap:round;stroke-linejoin:round;stroke:rgb(0%,0%,0%);stroke-opacity:1;stroke-miterlimit:10;" d="M 260.792969 44.367188 L 260.738281 44.078125 L 260.644531 43.800781 L 260.523438 43.539063 L 260.367188 43.292969 L 260.179688 43.066406 L 259.96875 42.867188 L 259.730469 42.695313 L 259.476563 42.554688 L 259.203125 42.449219 L 258.921875 42.375 L 258.632813 42.339844 L 258.339844 42.339844 L 258.050781 42.375 L 257.769531 42.449219 L 257.496094 42.554688 L 257.242188 42.695313 L 257.003906 42.867188 L 256.792969 43.066406 L 256.605469 43.292969 L 256.449219 43.539063 L 256.328125 43.800781 L 256.234375 44.078125 L 256.183594 44.367188 L 256.164063 44.65625 L 256.183594 44.949219 L 256.234375 45.234375 L 256.328125 45.511719 L 256.449219 45.777344 L 256.605469 46.023438 L 256.792969 46.246094 L 257.003906 46.445313 L 257.242188 46.617188 L 257.496094 46.757813 L 257.769531 46.867188 L 258.050781 46.9375 L 258.339844 46.976563 L 258.632813 46.976563 L 258.921875 46.9375 L 259.203125 46.867188 L 259.476563 46.757813 L 259.730469 46.617188 L 259.96875 46.445313 L 260.179688 46.246094 L 260.367188 46.023438 L 260.523438 45.777344 L 260.644531 45.511719 L 260.738281 45.234375 L 260.792969 44.949219 L 260.808594 44.65625 Z M 260.792969 44.367188 "/>
<path style="fill-rule:nonzero;fill:rgb(87.45098%,32.54902%,41.960784%);fill-opacity:1;stroke-width:0.75;stroke-linecap:round;stroke-linejoin:round;stroke:rgb(0%,0%,0%);stroke-opacity:1;stroke-miterlimit:10;" d="M 233.816406 37.273438 L 233.761719 36.988281 L 233.671875 36.710938 L 233.546875 36.445313 L 233.390625 36.199219 L 233.207031 35.976563 L 232.992188 35.777344 L 232.757813 35.605469 L 232.5 35.464844 L 232.230469 35.355469 L 231.949219 35.285156 L 231.660156 35.246094 L 231.367188 35.246094 L 231.078125 35.285156 L 230.792969 35.355469 L 230.523438 35.464844 L 230.269531 35.605469 L 230.03125 35.777344 L 229.820313 35.976563 L 229.632813 36.199219 L 229.476563 36.445313 L 229.351563 36.710938 L 229.261719 36.988281 L 229.207031 37.273438 L 229.191406 37.566406 L 229.207031 37.855469 L 229.261719 38.144531 L 229.351563 38.421875 L 229.476563 38.683594 L 229.632813 38.929688 L 229.820313 39.15625 L 230.03125 39.355469 L 230.269531 39.527344 L 230.523438 39.667969 L 230.792969 39.773438 L 231.078125 39.847656 L 231.367188 39.882813 L 231.660156 39.882813 L 231.949219 39.847656 L 232.230469 39.773438 L 232.5 39.667969 L 232.757813 39.527344 L 232.992188 39.355469 L 233.207031 39.15625 L 233.390625 38.929688 L 233.546875 38.683594 L 233.671875 38.421875 L 233.761719 38.144531 L 233.816406 37.855469 L 233.835938 37.566406 Z M 233.816406 37.273438 "/>
<path style="fill-rule:nonzero;fill:rgb(87.45098%,32.54902%,41.960784%);fill-opacity:1;stroke-width:0.75;stroke-linecap:round;stroke-linejoin:round;stroke:rgb(0%,0%,0%);stroke-opacity:1;stroke-miterlimit:10;" d="M 146.964844 73.445313 L 146.910156 73.15625 L 146.820313 72.878906 L 146.699219 72.617188 L 146.542969 72.371094 L 146.355469 72.144531 L 146.140625 71.945313 L 145.90625 71.773438 L 145.652344 71.632813 L 145.378906 71.527344 L 145.097656 71.453125 L 144.808594 71.417969 L 144.515625 71.417969 L 144.226563 71.453125 L 143.945313 71.527344 L 143.671875 71.632813 L 143.417969 71.773438 L 143.179688 71.945313 L 142.96875 72.144531 L 142.78125 72.371094 L 142.625 72.617188 L 142.5 72.878906 L 142.410156 73.15625 L 142.355469 73.445313 L 142.339844 73.734375 L 142.355469 74.027344 L 142.410156 74.3125 L 142.5 74.589844 L 142.625 74.855469 L 142.78125 75.101563 L 142.96875 75.324219 L 143.179688 75.527344 L 143.417969 75.699219 L 143.671875 75.835938 L 143.945313 75.945313 L 144.226563 76.019531 L 144.515625 76.054688 L 144.808594 76.054688 L 145.097656 76.019531 L 145.378906 75.945313 L 145.652344 75.835938 L 145.90625 75.699219 L 146.140625 75.527344 L 146.355469 75.324219 L 146.542969 75.101563 L 146.699219 74.855469 L 146.820313 74.589844 L 146.910156 74.3125 L 146.964844 74.027344 L 146.984375 73.734375 Z M 146.964844 73.445313 "/>
<path style="fill-rule:nonzero;fill:rgb(87.45098%,32.54902%,41.960784%);fill-opacity:1;stroke-width:0.75;stroke-linecap:round;stroke-linejoin:round;stroke:rgb(0%,0%,0%);stroke-opacity:1;stroke-miterlimit:10;" d="M 229.761719 80.800781 L 229.707031 80.515625 L 229.617188 80.238281 L 229.492188 79.972656 L 229.335938 79.726563 L 229.148438 79.503906 L 228.9375 79.300781 L 228.699219 79.128906 L 228.445313 78.992188 L 228.171875 78.882813 L 227.890625 78.808594 L 227.601563 78.773438 L 227.308594 78.773438 L 227.019531 78.808594 L 226.738281 78.882813 L 226.464844 78.992188 L 226.210938 79.128906 L 225.976563 79.300781 L 225.761719 79.503906 L 225.574219 79.726563 L 225.417969 79.972656 L 225.296875 80.238281 L 225.207031 80.515625 L 225.152344 80.800781 L 225.132813 81.09375 L 225.152344 81.382813 L 225.207031 81.671875 L 225.296875 81.949219 L 225.417969 82.210938 L 225.574219 82.457031 L 225.761719 82.683594 L 225.976563 82.882813 L 226.210938 83.054688 L 226.464844 83.195313 L 226.738281 83.300781 L 227.019531 83.375 L 227.308594 83.410156 L 227.601563 83.410156 L 227.890625 83.375 L 228.171875 83.300781 L 228.445313 83.195313 L 228.699219 83.054688 L 228.9375 82.882813 L 229.148438 82.683594 L 229.335938 82.457031 L 229.492188 82.210938 L 229.617188 81.949219 L 229.707031 81.671875 L 229.761719 81.382813 L 229.777344 81.09375 Z M 229.761719 80.800781 "/>
<path style="fill-rule:nonzero;fill:rgb(87.45098%,32.54902%,41.960784%);fill-opacity:1;stroke-width:0.75;stroke-linecap:round;stroke-linejoin:round;stroke:rgb(0%,0%,0%);stroke-opacity:1;stroke-miterlimit:10;" d="M 218.546875 98.054688 L 218.492188 97.769531 L 218.402344 97.492188 L 218.28125 97.226563 L 218.125 96.980469 L 217.9375 96.757813 L 217.722656 96.558594 L 217.488281 96.386719 L 217.234375 96.246094 L 216.960938 96.136719 L 216.679688 96.066406 L 216.390625 96.027344 L 216.097656 96.027344 L 215.808594 96.066406 L 215.527344 96.136719 L 215.253906 96.246094 L 215 96.386719 L 214.761719 96.558594 L 214.550781 96.757813 L 214.363281 96.980469 L 214.207031 97.226563 L 214.082031 97.492188 L 213.992188 97.769531 L 213.9375 98.054688 L 213.921875 98.347656 L 213.9375 98.636719 L 213.992188 98.925781 L 214.082031 99.203125 L 214.207031 99.464844 L 214.363281 99.710938 L 214.550781 99.9375 L 214.761719 100.136719 L 215 100.308594 L 215.253906 100.449219 L 215.527344 100.558594 L 215.808594 100.628906 L 216.097656 100.664063 L 216.390625 100.664063 L 216.679688 100.628906 L 216.960938 100.558594 L 217.234375 100.449219 L 217.488281 100.308594 L 217.722656 100.136719 L 217.9375 99.9375 L 218.125 99.710938 L 218.28125 99.464844 L 218.402344 99.203125 L 218.492188 98.925781 L 218.546875 98.636719 L 218.566406 98.347656 Z M 218.546875 98.054688 "/>
<path style="fill-rule:nonzero;fill:rgb(87.45098%,32.54902%,41.960784%);fill-opacity:1;stroke-width:0.75;stroke-linecap:round;stroke-linejoin:round;stroke:rgb(0%,0%,0%);stroke-opacity:1;stroke-miterlimit:10;" d="M 169.316406 71.023438 L 169.261719 70.738281 L 169.171875 70.460938 L 169.046875 70.195313 L 168.890625 69.949219 L 168.703125 69.726563 L 168.492188 69.527344 L 168.257813 69.355469 L 168 69.214844 L 167.730469 69.105469 L 167.445313 69.035156 L 167.15625 68.996094 L 166.867188 68.996094 L 166.574219 69.035156 L 166.292969 69.105469 L 166.023438 69.214844 L 165.765625 69.355469 L 165.53125 69.527344 L 165.316406 69.726563 L 165.132813 69.949219 L 164.976563 70.195313 L 164.851563 70.460938 L 164.761719 70.738281 L 164.707031 71.023438 L 164.6875 71.316406 L 164.707031 71.605469 L 164.761719 71.894531 L 164.851563 72.171875 L 164.976563 72.433594 L 165.132813 72.679688 L 165.316406 72.90625 L 165.53125 73.105469 L 165.765625 73.277344 L 166.023438 73.417969 L 166.292969 73.527344 L 166.574219 73.597656 L 166.867188 73.632813 L 167.15625 73.632813 L 167.445313 73.597656 L 167.730469 73.527344 L 168 73.417969 L 168.257813 73.277344 L 168.492188 73.105469 L 168.703125 72.90625 L 168.890625 72.679688 L 169.046875 72.433594 L 169.171875 72.171875 L 169.261719 71.894531 L 169.316406 71.605469 L 169.335938 71.316406 Z M 169.316406 71.023438 "/>
<path style="fill-rule:nonzero;fill:rgb(87.45098%,32.54902%,41.960784%);fill-opacity:1;stroke-width:0.75;stroke-linecap:round;stroke-linejoin:round;stroke:rgb(0%,0%,0%);stroke-opacity:1;stroke-miterlimit:10;" d="M 210.609375 156.21875 L 210.554688 155.933594 L 210.464844 155.65625 L 210.34375 155.390625 L 210.183594 155.144531 L 210 154.921875 L 209.785156 154.71875 L 209.550781 154.550781 L 209.296875 154.410156 L 209.023438 154.300781 L 208.742188 154.226563 L 208.453125 154.191406 L 208.160156 154.191406 L 207.871094 154.226563 L 207.589844 154.300781 L 207.316406 154.410156 L 207.0625 154.550781 L 206.824219 154.71875 L 206.613281 154.921875 L 206.425781 155.144531 L 206.269531 155.390625 L 206.144531 155.65625 L 206.054688 155.933594 L 206 156.21875 L 205.984375 156.511719 L 206 156.800781 L 206.054688 157.089844 L 206.144531 157.367188 L 206.269531 157.628906 L 206.425781 157.875 L 206.613281 158.101563 L 206.824219 158.300781 L 207.0625 158.472656 L 207.316406 158.613281 L 207.589844 158.71875 L 207.871094 158.792969 L 208.160156 158.828125 L 208.453125 158.828125 L 208.742188 158.792969 L 209.023438 158.71875 L 209.296875 158.613281 L 209.550781 158.472656 L 209.785156 158.300781 L 210 158.101563 L 210.183594 157.875 L 210.34375 157.628906 L 210.464844 157.367188 L 210.554688 157.089844 L 210.609375 156.800781 L 210.628906 156.511719 Z M 210.609375 156.21875 "/>
<path style="fill-rule:nonzero;fill:rgb(87.45098%,32.54902%,41.960784%);fill-opacity:1;stroke-width:0.75;stroke-linecap:round;stroke-linejoin:round;stroke:rgb(0%,0%,0%);stroke-opacity:1;stroke-miterlimit:10;" d="M 245.414063 93.117188 L 245.359375 92.832031 L 245.269531 92.554688 L 245.148438 92.289063 L 244.988281 92.042969 L 244.804688 91.820313 L 244.589844 91.621094 L 244.355469 91.449219 L 244.101563 91.308594 L 243.828125 91.199219 L 243.546875 91.128906 L 243.257813 91.089844 L 242.964844 91.089844 L 242.675781 91.128906 L 242.394531 91.199219 L 242.121094 91.308594 L 241.867188 91.449219 L 241.628906 91.621094 L 241.417969 91.820313 L 241.230469 92.042969 L 241.074219 92.289063 L 240.949219 92.554688 L 240.859375 92.832031 L 240.804688 93.117188 L 240.789063 93.410156 L 240.804688 93.699219 L 240.859375 93.988281 L 240.949219 94.265625 L 241.074219 94.527344 L 241.230469 94.777344 L 241.417969 95 L 241.628906 95.199219 L 241.867188 95.371094 L 242.121094 95.511719 L 242.394531 95.621094 L 242.675781 95.691406 L 242.964844 95.726563 L 243.257813 95.726563 L 243.546875 95.691406 L 243.828125 95.621094 L 244.101563 95.511719 L 244.355469 95.371094 L 244.589844 95.199219 L 244.804688 95 L 244.988281 94.777344 L 245.148438 94.527344 L 245.269531 94.265625 L 245.359375 93.988281 L 245.414063 93.699219 L 245.433594 93.410156 Z M 245.414063 93.117188 "/>
<path style="fill-rule:nonzero;fill:rgb(87.45098%,32.54902%,41.960784%);fill-opacity:1;stroke-width:0.75;stroke-linecap:round;stroke-linejoin:round;stroke:rgb(0%,0%,0%);stroke-opacity:1;stroke-miterlimit:10;" d="M 184.117188 115.285156 L 184.0625 114.996094 L 183.972656 114.71875 L 183.847656 114.457031 L 183.691406 114.210938 L 183.503906 113.984375 L 183.292969 113.785156 L 183.054688 113.613281 L 182.800781 113.472656 L 182.527344 113.367188 L 182.246094 113.292969 L 181.957031 113.257813 L 181.664063 113.257813 L 181.375 113.292969 L 181.09375 113.367188 L 180.824219 113.472656 L 180.566406 113.613281 L 180.332031 113.785156 L 180.117188 113.984375 L 179.933594 114.210938 L 179.777344 114.457031 L 179.652344 114.71875 L 179.5625 114.996094 L 179.507813 115.285156 L 179.488281 115.574219 L 179.507813 115.867188 L 179.5625 116.152344 L 179.652344 116.429688 L 179.777344 116.695313 L 179.933594 116.941406 L 180.117188 117.164063 L 180.332031 117.363281 L 180.566406 117.535156 L 180.824219 117.675781 L 181.09375 117.785156 L 181.375 117.855469 L 181.664063 117.894531 L 181.957031 117.894531 L 182.246094 117.855469 L 182.527344 117.785156 L 182.800781 117.675781 L 183.054688 117.535156 L 183.292969 117.363281 L 183.503906 117.164063 L 183.691406 116.941406 L 183.847656 116.695313 L 183.972656 116.429688 L 184.0625 116.152344 L 184.117188 115.867188 L 184.132813 115.574219 Z M 184.117188 115.285156 "/>
<path style="fill-rule:nonzero;fill:rgb(87.45098%,32.54902%,41.960784%);fill-opacity:1;stroke-width:0.75;stroke-linecap:round;stroke-linejoin:round;stroke:rgb(0%,0%,0%);stroke-opacity:1;stroke-miterlimit:10;" d="M 191.722656 116.464844 L 191.667969 116.179688 L 191.578125 115.902344 L 191.453125 115.636719 L 191.296875 115.390625 L 191.113281 115.167969 L 190.898438 114.964844 L 190.664063 114.792969 L 190.40625 114.65625 L 190.136719 114.546875 L 189.851563 114.472656 L 189.5625 114.4375 L 189.273438 114.4375 L 188.984375 114.472656 L 188.699219 114.546875 L 188.429688 114.65625 L 188.171875 114.792969 L 187.9375 114.964844 L 187.722656 115.167969 L 187.539063 115.390625 L 187.382813 115.636719 L 187.257813 115.902344 L 187.167969 116.179688 L 187.113281 116.464844 L 187.09375 116.757813 L 187.113281 117.046875 L 187.167969 117.335938 L 187.257813 117.613281 L 187.382813 117.875 L 187.539063 118.121094 L 187.722656 118.347656 L 187.9375 118.546875 L 188.171875 118.71875 L 188.429688 118.859375 L 188.699219 118.964844 L 188.984375 119.039063 L 189.273438 119.074219 L 189.5625 119.074219 L 189.851563 119.039063 L 190.136719 118.964844 L 190.40625 118.859375 L 190.664063 118.71875 L 190.898438 118.546875 L 191.113281 118.347656 L 191.296875 118.121094 L 191.453125 117.875 L 191.578125 117.613281 L 191.667969 117.335938 L 191.722656 117.046875 L 191.742188 116.757813 Z M 191.722656 116.464844 "/>
</g>
</svg>
