<?xml version="1.0" encoding="UTF-8"?>
<svg xmlns="http://www.w3.org/2000/svg" xmlns:xlink="http://www.w3.org/1999/xlink" width="504pt" height="180pt" viewBox="0 0 504 180" version="1.1">
<g id="surface1489">
<rect x="0" y="0" width="504" height="180" style="fill:rgb(100%,100%,100%);fill-opacity:1;stroke:none;"/>
<path style="fill-rule:nonzero;fill:rgb(0%,0%,0%);fill-opacity:1;stroke-width:0.75;stroke-linecap:round;stroke-linejoin:round;stroke:rgb(0%,0%,0%);stroke-opacity:1;stroke-miterlimit:10;" d="M 225.992188 75.820313 L 229.074219 81.636719 L 228.929688 81.714844 L 225.847656 75.898438 Z M 225.992188 75.820313 "/>
<path style="fill-rule:nonzero;fill:rgb(0%,0%,0%);fill-opacity:1;stroke-width:0.75;stroke-linecap:round;stroke-linejoin:round;stroke:rgb(0%,0%,0%);stroke-opacity:1;stroke-miterlimit:10;" d="M 225.738281 75.945313 L 238.15625 113.910156 L 238 113.960938 L 225.582031 75.996094 Z M 225.738281 75.945313 "/>
<path style="fill-rule:nonzero;fill:rgb(0%,0%,0%);fill-opacity:1;stroke-width:0.75;stroke-linecap:round;stroke-linejoin:round;stroke:rgb(0%,0%,0%);stroke-opacity:1;stroke-miterlimit:10;" d="M 224.203125 75.761719 L 208.859375 95.722656 L 208.730469 95.621094 L 224.070313 75.660156 Z M 224.203125 75.761719 "/>
<path style="fill-rule:nonzero;fill:rgb(0%,0%,0%);fill-opacity:1;stroke-width:0.75;stroke-linecap:round;stroke-linejoin:round;stroke:rgb(0%,0%,0%);stroke-opacity:1;stroke-miterlimit:10;" d="M 224.4375 72.902344 L 209.910156 37.816406 L 210.0625 37.75 L 224.589844 72.839844 Z M 224.4375 72.902344 "/>
<path style="fill-rule:nonzero;fill:rgb(0%,0%,0%);fill-opacity:1;stroke-width:0.75;stroke-linecap:round;stroke-linejoin:round;stroke:rgb(0%,0%,0%);stroke-opacity:1;stroke-miterlimit:10;" d="M 225.910156 72.929688 L 246.742188 37.40625 L 246.882813 37.488281 L 226.054688 73.015625 Z M 225.910156 72.929688 "/>
<path style="fill-rule:nonzero;fill:rgb(0%,0%,0%);fill-opacity:1;stroke-width:0.75;stroke-linecap:round;stroke-linejoin:round;stroke:rgb(0%,0%,0%);stroke-opacity:1;stroke-miterlimit:10;" d="M 225.433594 72.769531 L 234.820313 31.644531 L 234.980469 31.683594 L 225.59375 72.804688 Z M 225.433594 72.769531 "/>
<path style="fill-rule:nonzero;fill:rgb(0%,0%,0%);fill-opacity:1;stroke-width:0.75;stroke-linecap:round;stroke-linejoin:round;stroke:rgb(0%,0%,0%);stroke-opacity:1;stroke-miterlimit:10;" d="M 224.261719 75.800781 L 206.054688 101.761719 L 205.917969 101.667969 L 224.128906 75.707031 Z M 224.261719 75.800781 "/>
<path style="fill-rule:nonzero;fill:rgb(0%,0%,0%);fill-opacity:1;stroke-width:0.75;stroke-linecap:round;stroke-linejoin:round;stroke:rgb(0%,0%,0%);stroke-opacity:1;stroke-miterlimit:10;" d="M 226.605469 75.175781 L 261.953125 96.324219 L 261.867188 96.464844 L 226.523438 75.320313 Z M 226.605469 75.175781 "/>
<path style="fill-rule:nonzero;fill:rgb(0%,0%,0%);fill-opacity:1;stroke-width:0.75;stroke-linecap:round;stroke-linejoin:round;stroke:rgb(0%,0%,0%);stroke-opacity:1;stroke-miterlimit:10;" d="M 224.988281 72.75 L 223.449219 37.785156 L 223.617188 37.777344 L 225.15625 72.742188 Z M 224.988281 72.75 "/>
<path style="fill-rule:nonzero;fill:rgb(0%,0%,0%);fill-opacity:1;stroke-width:0.75;stroke-linecap:round;stroke-linejoin:round;stroke:rgb(0%,0%,0%);stroke-opacity:1;stroke-miterlimit:10;" d="M 223.613281 73.773438 L 187.285156 56.800781 L 187.355469 56.652344 L 223.683594 73.625 Z M 223.613281 73.773438 "/>
<path style="fill-rule:nonzero;fill:rgb(0%,0%,0%);fill-opacity:1;stroke-width:0.75;stroke-linecap:round;stroke-linejoin:round;stroke:rgb(0%,0%,0%);stroke-opacity:1;stroke-miterlimit:10;" d="M 223.5625 74.886719 L 186.300781 84.34375 L 186.257813 84.183594 L 223.523438 74.726563 Z M 223.5625 74.886719 "/>
<path style="fill-rule:nonzero;fill:rgb(0%,0%,0%);fill-opacity:1;stroke-width:0.75;stroke-linecap:round;stroke-linejoin:round;stroke:rgb(0%,0%,0%);stroke-opacity:1;stroke-miterlimit:10;" d="M 226.078125 75.765625 L 240.445313 99.261719 L 240.300781 99.347656 L 225.9375 75.851563 Z M 226.078125 75.765625 "/>
<path style="fill-rule:nonzero;fill:rgb(0%,0%,0%);fill-opacity:1;stroke-width:0.75;stroke-linecap:round;stroke-linejoin:round;stroke:rgb(0%,0%,0%);stroke-opacity:1;stroke-miterlimit:10;" d="M 223.492188 74.449219 L 196.542969 73.925781 L 196.546875 73.761719 L 223.492188 74.285156 Z M 223.492188 74.449219 "/>
<path style="fill-rule:nonzero;fill:rgb(0%,0%,0%);fill-opacity:1;stroke-width:0.75;stroke-linecap:round;stroke-linejoin:round;stroke:rgb(0%,0%,0%);stroke-opacity:1;stroke-miterlimit:10;" d="M 226.792969 74.558594 L 262.175781 79.769531 L 262.152344 79.933594 L 226.769531 74.722656 Z M 226.792969 74.558594 "/>
<path style="fill-rule:nonzero;fill:rgb(0%,0%,0%);fill-opacity:1;stroke-width:0.75;stroke-linecap:round;stroke-linejoin:round;stroke:rgb(0%,0%,0%);stroke-opacity:1;stroke-miterlimit:10;" d="M 223.722656 73.550781 L 204.378906 60.683594 L 204.46875 60.546875 L 223.816406 73.414063 Z M 223.722656 73.550781 "/>
<path style="fill-rule:nonzero;fill:rgb(0%,0%,0%);fill-opacity:1;stroke-width:0.75;stroke-linecap:round;stroke-linejoin:round;stroke:rgb(0%,0%,0%);stroke-opacity:1;stroke-miterlimit:10;" d="M 225.691406 75.960938 L 240.707031 126.917969 L 240.550781 126.964844 L 225.535156 76.007813 Z M 225.691406 75.960938 "/>
<path style="fill-rule:nonzero;fill:rgb(0%,0%,0%);fill-opacity:1;stroke-width:0.75;stroke-linecap:round;stroke-linejoin:round;stroke:rgb(0%,0%,0%);stroke-opacity:1;stroke-miterlimit:10;" d="M 230.289063 84.710938 L 238.238281 113.886719 L 238.078125 113.933594 L 230.128906 84.753906 Z M 230.289063 84.710938 "/>
<path style="fill-rule:nonzero;fill:rgb(0%,0%,0%);fill-opacity:1;stroke-width:0.75;stroke-linecap:round;stroke-linejoin:round;stroke:rgb(0%,0%,0%);stroke-opacity:1;stroke-miterlimit:10;" d="M 228.421875 84.085938 L 209.230469 96.171875 L 209.144531 96.03125 L 228.332031 83.949219 Z M 228.421875 84.085938 "/>
<path style="fill-rule:nonzero;fill:rgb(0%,0%,0%);fill-opacity:1;stroke-width:0.75;stroke-linecap:round;stroke-linejoin:round;stroke:rgb(0%,0%,0%);stroke-opacity:1;stroke-miterlimit:10;" d="M 228.539063 84.238281 L 206.378906 102.09375 L 206.273438 101.964844 L 228.4375 84.109375 Z M 228.539063 84.238281 "/>
<path style="fill-rule:nonzero;fill:rgb(0%,0%,0%);fill-opacity:1;stroke-width:0.75;stroke-linecap:round;stroke-linejoin:round;stroke:rgb(0%,0%,0%);stroke-opacity:1;stroke-miterlimit:10;" d="M 230.746094 84.476563 L 240.402344 99.285156 L 240.261719 99.375 L 230.609375 84.566406 Z M 230.746094 84.476563 "/>
<path style="fill-rule:nonzero;fill:rgb(0%,0%,0%);fill-opacity:1;stroke-width:0.75;stroke-linecap:round;stroke-linejoin:round;stroke:rgb(0%,0%,0%);stroke-opacity:1;stroke-miterlimit:10;" d="M 228.15625 82.789063 L 196.46875 74.320313 L 196.511719 74.160156 L 228.199219 82.628906 Z M 228.15625 82.789063 "/>
<path style="fill-rule:nonzero;fill:rgb(0%,0%,0%);fill-opacity:1;stroke-width:0.75;stroke-linecap:round;stroke-linejoin:round;stroke:rgb(0%,0%,0%);stroke-opacity:1;stroke-miterlimit:10;" d="M 231.414063 82.90625 L 262.148438 80.15625 L 262.160156 80.320313 L 231.429688 83.070313 Z M 231.414063 82.90625 "/>
<path style="fill-rule:nonzero;fill:rgb(0%,0%,0%);fill-opacity:1;stroke-width:0.75;stroke-linecap:round;stroke-linejoin:round;stroke:rgb(0%,0%,0%);stroke-opacity:1;stroke-miterlimit:10;" d="M 228.476563 82.109375 L 204.234375 60.851563 L 204.34375 60.726563 L 228.585938 81.984375 Z M 228.476563 82.109375 "/>
<path style="fill-rule:nonzero;fill:rgb(0%,0%,0%);fill-opacity:1;stroke-width:0.75;stroke-linecap:round;stroke-linejoin:round;stroke:rgb(0%,0%,0%);stroke-opacity:1;stroke-miterlimit:10;" d="M 231.421875 83.289063 L 275.460938 89.5625 L 275.4375 89.726563 L 231.398438 83.453125 Z M 231.421875 83.289063 "/>
<path style="fill-rule:nonzero;fill:rgb(0%,0%,0%);fill-opacity:1;stroke-width:0.75;stroke-linecap:round;stroke-linejoin:round;stroke:rgb(0%,0%,0%);stroke-opacity:1;stroke-miterlimit:10;" d="M 237.132813 114.722656 L 209.164063 97.90625 L 209.246094 97.765625 L 237.21875 114.582031 Z M 237.132813 114.722656 "/>
<path style="fill-rule:nonzero;fill:rgb(0%,0%,0%);fill-opacity:1;stroke-width:0.75;stroke-linecap:round;stroke-linejoin:round;stroke:rgb(0%,0%,0%);stroke-opacity:1;stroke-miterlimit:10;" d="M 237.011719 115.007813 L 206.558594 103.71875 L 206.617188 103.566406 L 237.070313 114.851563 Z M 237.011719 115.007813 "/>
<path style="fill-rule:nonzero;fill:rgb(0%,0%,0%);fill-opacity:1;stroke-width:0.75;stroke-linecap:round;stroke-linejoin:round;stroke:rgb(0%,0%,0%);stroke-opacity:1;stroke-miterlimit:10;" d="M 239.875 114.457031 L 261.949219 98.160156 L 262.046875 98.292969 L 239.972656 114.589844 Z M 239.875 114.457031 "/>
<path style="fill-rule:nonzero;fill:rgb(0%,0%,0%);fill-opacity:1;stroke-width:0.75;stroke-linecap:round;stroke-linejoin:round;stroke:rgb(0%,0%,0%);stroke-opacity:1;stroke-miterlimit:10;" d="M 239.589844 116.824219 L 259.566406 146.167969 L 259.429688 146.261719 L 239.453125 116.917969 Z M 239.589844 116.824219 "/>
<path style="fill-rule:nonzero;fill:rgb(0%,0%,0%);fill-opacity:1;stroke-width:0.75;stroke-linecap:round;stroke-linejoin:round;stroke:rgb(0%,0%,0%);stroke-opacity:1;stroke-miterlimit:10;" d="M 238.800781 113.863281 L 240.863281 102.328125 L 241.027344 102.359375 L 238.964844 113.890625 Z M 238.800781 113.863281 "/>
<path style="fill-rule:nonzero;fill:rgb(0%,0%,0%);fill-opacity:1;stroke-width:0.75;stroke-linecap:round;stroke-linejoin:round;stroke:rgb(0%,0%,0%);stroke-opacity:1;stroke-miterlimit:10;" d="M 239.082031 117.085938 L 247.847656 151.324219 L 247.6875 151.367188 L 238.921875 117.128906 Z M 239.082031 117.085938 "/>
<path style="fill-rule:nonzero;fill:rgb(0%,0%,0%);fill-opacity:1;stroke-width:0.75;stroke-linecap:round;stroke-linejoin:round;stroke:rgb(0%,0%,0%);stroke-opacity:1;stroke-miterlimit:10;" d="M 238.855469 117.140625 L 241.550781 141.433594 L 241.386719 141.453125 L 238.691406 117.15625 Z M 238.855469 117.140625 "/>
<path style="fill-rule:nonzero;fill:rgb(0%,0%,0%);fill-opacity:1;stroke-width:0.75;stroke-linecap:round;stroke-linejoin:round;stroke:rgb(0%,0%,0%);stroke-opacity:1;stroke-miterlimit:10;" d="M 240.238281 115.699219 L 284.503906 123.136719 L 284.476563 123.300781 L 240.210938 115.859375 Z M 240.238281 115.699219 "/>
<path style="fill-rule:nonzero;fill:rgb(0%,0%,0%);fill-opacity:1;stroke-width:0.75;stroke-linecap:round;stroke-linejoin:round;stroke:rgb(0%,0%,0%);stroke-opacity:1;stroke-miterlimit:10;" d="M 207.183594 98.523438 L 205.792969 101.59375 L 205.644531 101.527344 L 207.03125 98.457031 Z M 207.183594 98.523438 "/>
<path style="fill-rule:nonzero;fill:rgb(0%,0%,0%);fill-opacity:1;stroke-width:0.75;stroke-linecap:round;stroke-linejoin:round;stroke:rgb(0%,0%,0%);stroke-opacity:1;stroke-miterlimit:10;" d="M 206.289063 96.277344 L 186.097656 85.519531 L 186.175781 85.375 L 206.367188 96.132813 Z M 206.289063 96.277344 "/>
<path style="fill-rule:nonzero;fill:rgb(0%,0%,0%);fill-opacity:1;stroke-width:0.75;stroke-linecap:round;stroke-linejoin:round;stroke:rgb(0%,0%,0%);stroke-opacity:1;stroke-miterlimit:10;" d="M 209.441406 97.085938 L 239.601563 100.449219 L 239.582031 100.613281 L 209.421875 97.25 Z M 209.441406 97.085938 "/>
<path style="fill-rule:nonzero;fill:rgb(0%,0%,0%);fill-opacity:1;stroke-width:0.75;stroke-linecap:round;stroke-linejoin:round;stroke:rgb(0%,0%,0%);stroke-opacity:1;stroke-miterlimit:10;" d="M 210.941406 35.789063 L 233.640625 30.355469 L 233.679688 30.515625 L 210.980469 35.953125 Z M 210.941406 35.789063 "/>
<path style="fill-rule:nonzero;fill:rgb(0%,0%,0%);fill-opacity:1;stroke-width:0.75;stroke-linecap:round;stroke-linejoin:round;stroke:rgb(0%,0%,0%);stroke-opacity:1;stroke-miterlimit:10;" d="M 211.003906 36.160156 L 221.804688 36.0625 L 221.808594 36.226563 L 211.007813 36.324219 Z M 211.003906 36.160156 "/>
<path style="fill-rule:nonzero;fill:rgb(0%,0%,0%);fill-opacity:1;stroke-width:0.75;stroke-linecap:round;stroke-linejoin:round;stroke:rgb(0%,0%,0%);stroke-opacity:1;stroke-miterlimit:10;" d="M 246.125 35.378906 L 236.722656 30.84375 L 236.792969 30.695313 L 246.195313 35.230469 Z M 246.125 35.378906 "/>
<path style="fill-rule:nonzero;fill:rgb(0%,0%,0%);fill-opacity:1;stroke-width:0.75;stroke-linecap:round;stroke-linejoin:round;stroke:rgb(0%,0%,0%);stroke-opacity:1;stroke-miterlimit:10;" d="M 245.996094 36.109375 L 225.113281 36.203125 L 225.113281 36.039063 L 245.996094 35.945313 Z M 245.996094 36.109375 "/>
<path style="fill-rule:nonzero;fill:rgb(0%,0%,0%);fill-opacity:1;stroke-width:0.75;stroke-linecap:round;stroke-linejoin:round;stroke:rgb(0%,0%,0%);stroke-opacity:1;stroke-miterlimit:10;" d="M 248.191406 34.457031 L 257.878906 10.367188 L 258.035156 10.429688 L 248.34375 34.519531 Z M 248.191406 34.457031 "/>
<path style="fill-rule:nonzero;fill:rgb(0%,0%,0%);fill-opacity:1;stroke-width:0.75;stroke-linecap:round;stroke-linejoin:round;stroke:rgb(0%,0%,0%);stroke-opacity:1;stroke-miterlimit:10;" d="M 236.4375 28.878906 L 257.296875 9.914063 L 257.40625 10.035156 L 236.546875 29 Z M 236.4375 28.878906 "/>
<path style="fill-rule:nonzero;fill:rgb(0%,0%,0%);fill-opacity:1;stroke-width:0.75;stroke-linecap:round;stroke-linejoin:round;stroke:rgb(0%,0%,0%);stroke-opacity:1;stroke-miterlimit:10;" d="M 264.746094 96.390625 L 275.589844 90.585938 L 275.667969 90.730469 L 264.824219 96.535156 Z M 264.746094 96.390625 "/>
<path style="fill-rule:nonzero;fill:rgb(0%,0%,0%);fill-opacity:1;stroke-width:0.75;stroke-linecap:round;stroke-linejoin:round;stroke:rgb(0%,0%,0%);stroke-opacity:1;stroke-miterlimit:10;" d="M 264.476563 98.4375 L 285.097656 122.191406 L 284.972656 122.296875 L 264.351563 98.546875 Z M 264.476563 98.4375 "/>
<path style="fill-rule:nonzero;fill:rgb(0%,0%,0%);fill-opacity:1;stroke-width:0.75;stroke-linecap:round;stroke-linejoin:round;stroke:rgb(0%,0%,0%);stroke-opacity:1;stroke-miterlimit:10;" d="M 264.25 98.617188 L 279.765625 124.46875 L 279.621094 124.554688 L 264.109375 98.703125 Z M 264.25 98.617188 "/>
<path style="fill-rule:nonzero;fill:rgb(0%,0%,0%);fill-opacity:1;stroke-width:0.75;stroke-linecap:round;stroke-linejoin:round;stroke:rgb(0%,0%,0%);stroke-opacity:1;stroke-miterlimit:10;" d="M 261.496094 146.3125 L 279.359375 127.085938 L 279.480469 127.199219 L 261.617188 146.425781 Z M 261.496094 146.3125 "/>
<path style="fill-rule:nonzero;fill:rgb(0%,0%,0%);fill-opacity:1;stroke-width:0.75;stroke-linecap:round;stroke-linejoin:round;stroke:rgb(0%,0%,0%);stroke-opacity:1;stroke-miterlimit:10;" d="M 242.671875 101.539063 L 279.199219 124.96875 L 279.109375 125.105469 L 242.582031 101.679688 Z M 242.671875 101.539063 "/>
<path style="fill-rule:nonzero;fill:rgb(0%,0%,0%);fill-opacity:1;stroke-width:0.75;stroke-linecap:round;stroke-linejoin:round;stroke:rgb(0%,0%,0%);stroke-opacity:1;stroke-miterlimit:10;" d="M 312.449219 140.199219 L 287.476563 124.445313 L 287.5625 124.304688 L 312.535156 140.0625 Z M 312.449219 140.199219 "/>
<path style="fill-rule:nonzero;fill:rgb(0%,0%,0%);fill-opacity:1;stroke-width:0.75;stroke-linecap:round;stroke-linejoin:round;stroke:rgb(0%,0%,0%);stroke-opacity:1;stroke-miterlimit:10;" d="M 312.351563 140.40625 L 282.015625 126.6875 L 282.085938 126.535156 L 312.417969 140.257813 Z M 312.351563 140.40625 "/>
<path style="fill-rule:nonzero;fill:rgb(0%,0%,0%);fill-opacity:1;stroke-width:0.75;stroke-linecap:round;stroke-linejoin:round;stroke:rgb(0%,0%,0%);stroke-opacity:1;stroke-miterlimit:10;" d="M 310.566406 103.25 L 287.445313 122.5 L 287.339844 122.371094 L 310.460938 103.125 Z M 310.566406 103.25 "/>
<path style="fill-rule:nonzero;fill:rgb(0%,0%,0%);fill-opacity:1;stroke-width:0.75;stroke-linecap:round;stroke-linejoin:round;stroke:rgb(0%,0%,0%);stroke-opacity:1;stroke-miterlimit:10;" d="M 310.519531 103.199219 L 281.910156 124.992188 L 281.808594 124.863281 L 310.417969 103.066406 Z M 310.519531 103.199219 "/>
<path style="fill-rule:nonzero;fill:rgb(0%,0%,0%);fill-opacity:1;stroke-width:0.75;stroke-linecap:round;stroke-linejoin:round;stroke:rgb(0%,0%,0%);stroke-opacity:1;stroke-miterlimit:10;" d="M 314.007813 110.703125 L 287.65625 122.875 L 287.585938 122.722656 L 313.9375 110.550781 Z M 314.007813 110.703125 "/>
<path style="fill-rule:nonzero;fill:rgb(0%,0%,0%);fill-opacity:1;stroke-width:0.75;stroke-linecap:round;stroke-linejoin:round;stroke:rgb(0%,0%,0%);stroke-opacity:1;stroke-miterlimit:10;" d="M 314.003906 110.699219 L 282.082031 125.316406 L 282.011719 125.167969 L 313.9375 110.546875 Z M 314.003906 110.699219 "/>
<path style="fill-rule:nonzero;fill:rgb(0%,0%,0%);fill-opacity:1;stroke-width:0.75;stroke-linecap:round;stroke-linejoin:round;stroke:rgb(0%,0%,0%);stroke-opacity:1;stroke-miterlimit:10;" d="M 264.445313 81.617188 L 280.054688 124.347656 L 279.898438 124.40625 L 264.289063 81.671875 Z M 264.445313 81.617188 "/>
<path style="fill-rule:nonzero;fill:rgb(0%,0%,0%);fill-opacity:1;stroke-width:0.75;stroke-linecap:round;stroke-linejoin:round;stroke:rgb(0%,0%,0%);stroke-opacity:1;stroke-miterlimit:10;" d="M 317.683594 120.628906 L 287.773438 123.421875 L 287.757813 123.257813 L 317.671875 120.464844 Z M 317.683594 120.628906 "/>
<path style="fill-rule:nonzero;fill:rgb(0%,0%,0%);fill-opacity:1;stroke-width:0.75;stroke-linecap:round;stroke-linejoin:round;stroke:rgb(0%,0%,0%);stroke-opacity:1;stroke-miterlimit:10;" d="M 317.699219 120.707031 L 282.191406 125.777344 L 282.167969 125.613281 L 317.675781 120.546875 Z M 317.699219 120.707031 "/>
<path style="fill-rule:nonzero;fill:rgb(0%,0%,0%);fill-opacity:1;stroke-width:0.75;stroke-linecap:round;stroke-linejoin:round;stroke:rgb(0%,0%,0%);stroke-opacity:1;stroke-miterlimit:10;" d="M 316.648438 130.4375 L 287.714844 123.9375 L 287.75 123.773438 L 316.6875 130.277344 Z M 316.648438 130.4375 "/>
<path style="fill-rule:nonzero;fill:rgb(0%,0%,0%);fill-opacity:1;stroke-width:0.75;stroke-linecap:round;stroke-linejoin:round;stroke:rgb(0%,0%,0%);stroke-opacity:1;stroke-miterlimit:10;" d="M 316.628906 130.59375 L 282.175781 126.21875 L 282.195313 126.054688 L 316.652344 130.429688 Z M 316.628906 130.59375 "/>
<path style="fill-rule:nonzero;fill:rgb(0%,0%,0%);fill-opacity:1;stroke-width:0.75;stroke-linecap:round;stroke-linejoin:round;stroke:rgb(0%,0%,0%);stroke-opacity:1;stroke-miterlimit:10;" d="M 271.800781 161.421875 L 240.792969 170.738281 L 240.746094 170.582031 L 271.753906 161.265625 Z M 271.800781 161.421875 "/>
<path style="fill-rule:nonzero;fill:rgb(0%,0%,0%);fill-opacity:1;stroke-width:0.75;stroke-linecap:round;stroke-linejoin:round;stroke:rgb(0%,0%,0%);stroke-opacity:1;stroke-miterlimit:10;" d="M 271.761719 160.449219 L 249.730469 153.523438 L 249.78125 153.363281 L 271.808594 160.292969 Z M 271.761719 160.449219 "/>
<path style="fill-rule:nonzero;fill:rgb(0%,0%,0%);fill-opacity:1;stroke-width:0.75;stroke-linecap:round;stroke-linejoin:round;stroke:rgb(0%,0%,0%);stroke-opacity:1;stroke-miterlimit:10;" d="M 274.96875 160.476563 L 293.84375 156.867188 L 293.875 157.027344 L 275 160.636719 Z M 274.96875 160.476563 "/>
<path style="fill-rule:nonzero;fill:rgb(0%,0%,0%);fill-opacity:1;stroke-width:0.75;stroke-linecap:round;stroke-linejoin:round;stroke:rgb(0%,0%,0%);stroke-opacity:1;stroke-miterlimit:10;" d="M 273.816406 159.277344 L 285.507813 125.03125 L 285.664063 125.082031 L 273.972656 159.328125 Z M 273.816406 159.277344 "/>
<path style="fill-rule:nonzero;fill:rgb(0%,0%,0%);fill-opacity:1;stroke-width:0.75;stroke-linecap:round;stroke-linejoin:round;stroke:rgb(0%,0%,0%);stroke-opacity:1;stroke-miterlimit:10;" d="M 273.613281 159.230469 L 280.128906 127.53125 L 280.292969 127.566406 L 273.777344 159.265625 Z M 273.613281 159.230469 "/>
<path style="fill-rule:nonzero;fill:rgb(0%,0%,0%);fill-opacity:1;stroke-width:0.75;stroke-linecap:round;stroke-linejoin:round;stroke:rgb(0%,0%,0%);stroke-opacity:1;stroke-miterlimit:10;" d="M 219.925781 163.066406 L 237.691406 170.425781 L 237.628906 170.582031 L 219.863281 163.21875 Z M 219.925781 163.066406 "/>
<path style="fill-rule:nonzero;fill:rgb(0%,0%,0%);fill-opacity:1;stroke-width:0.75;stroke-linecap:round;stroke-linejoin:round;stroke:rgb(0%,0%,0%);stroke-opacity:1;stroke-miterlimit:10;" d="M 219.914063 161.925781 L 246.578125 153.371094 L 246.628906 153.53125 L 219.964844 162.085938 Z M 219.914063 161.925781 "/>
<path style="fill-rule:nonzero;fill:rgb(0%,0%,0%);fill-opacity:1;stroke-width:0.75;stroke-linecap:round;stroke-linejoin:round;stroke:rgb(0%,0%,0%);stroke-opacity:1;stroke-miterlimit:10;" d="M 219.214844 161.089844 L 240.109375 129.855469 L 240.246094 129.949219 L 219.355469 161.183594 Z M 219.214844 161.089844 "/>
<path style="fill-rule:nonzero;fill:rgb(0%,0%,0%);fill-opacity:1;stroke-width:0.75;stroke-linecap:round;stroke-linejoin:round;stroke:rgb(0%,0%,0%);stroke-opacity:1;stroke-miterlimit:10;" d="M 239.179688 169.480469 L 240.9375 130.175781 L 241.105469 130.183594 L 239.34375 169.488281 Z M 239.179688 169.480469 "/>
<path style="fill-rule:nonzero;fill:rgb(0%,0%,0%);fill-opacity:1;stroke-width:0.75;stroke-linecap:round;stroke-linejoin:round;stroke:rgb(0%,0%,0%);stroke-opacity:1;stroke-miterlimit:10;" d="M 308.871094 158.523438 L 297.113281 156.9375 L 297.132813 156.773438 L 308.894531 158.359375 Z M 308.871094 158.523438 "/>
<path style="fill-rule:nonzero;fill:rgb(0%,0%,0%);fill-opacity:1;stroke-width:0.75;stroke-linecap:round;stroke-linejoin:round;stroke:rgb(0%,0%,0%);stroke-opacity:1;stroke-miterlimit:10;" d="M 309.34375 157.5 L 281.601563 127.207031 L 281.722656 127.09375 L 309.464844 157.386719 Z M 309.34375 157.5 "/>
<path style="fill-rule:nonzero;fill:rgb(0%,0%,0%);fill-opacity:1;stroke-width:0.75;stroke-linecap:round;stroke-linejoin:round;stroke:rgb(0%,0%,0%);stroke-opacity:1;stroke-miterlimit:10;" d="M 249.394531 151.824219 L 279.222656 126.925781 L 279.328125 127.054688 L 249.5 151.949219 Z M 249.394531 151.824219 "/>
<path style="fill-rule:nonzero;fill:rgb(0%,0%,0%);fill-opacity:1;stroke-width:0.75;stroke-linecap:round;stroke-linejoin:round;stroke:rgb(0%,0%,0%);stroke-opacity:1;stroke-miterlimit:10;" d="M 241.507813 141.4375 L 241.074219 130.183594 L 241.242188 130.175781 L 241.671875 141.433594 Z M 241.507813 141.4375 "/>
<path style="fill-rule:nonzero;fill:rgb(0%,0%,0%);fill-opacity:1;stroke-width:0.75;stroke-linecap:round;stroke-linejoin:round;stroke:rgb(0%,0%,0%);stroke-opacity:1;stroke-miterlimit:10;" d="M 243.132813 142.34375 L 279 126.523438 L 279.066406 126.671875 L 243.199219 142.496094 Z M 243.132813 142.34375 "/>
<path style="fill-rule:nonzero;fill:rgb(0%,0%,0%);fill-opacity:1;stroke-width:0.75;stroke-linecap:round;stroke-linejoin:round;stroke:rgb(0%,0%,0%);stroke-opacity:1;stroke-miterlimit:10;" d="M 294.957031 155.066406 L 286.492188 125.105469 L 286.648438 125.0625 L 295.113281 155.023438 Z M 294.957031 155.066406 "/>
<path style="fill-rule:nonzero;fill:rgb(0%,0%,0%);fill-opacity:1;stroke-width:0.75;stroke-linecap:round;stroke-linejoin:round;stroke:rgb(0%,0%,0%);stroke-opacity:1;stroke-miterlimit:10;" d="M 294.6875 155.1875 L 281.195313 127.453125 L 281.34375 127.378906 L 294.835938 155.113281 Z M 294.6875 155.1875 "/>
<path style="fill-rule:nonzero;fill:rgb(0%,0%,0%);fill-opacity:1;stroke-width:0.75;stroke-linecap:round;stroke-linejoin:round;stroke:rgb(0%,0%,0%);stroke-opacity:1;stroke-miterlimit:10;" d="M 277.59375 91.453125 L 285.769531 121.875 L 285.613281 121.917969 L 277.433594 91.496094 Z M 277.59375 91.453125 "/>
<path style="fill-rule:nonzero;fill:rgb(0%,0%,0%);fill-opacity:1;stroke-width:0.75;stroke-linecap:round;stroke-linejoin:round;stroke:rgb(0%,0%,0%);stroke-opacity:1;stroke-miterlimit:10;" d="M 277.324219 91.515625 L 280.46875 124.277344 L 280.304688 124.292969 L 277.160156 91.53125 Z M 277.324219 91.515625 "/>
<path style="fill-rule:nonzero;fill:rgb(0%,0%,0%);fill-opacity:1;stroke-width:0.75;stroke-linecap:round;stroke-linejoin:round;stroke:rgb(0%,0%,0%);stroke-opacity:1;stroke-miterlimit:10;" d="M 242.730469 128.261719 L 284.46875 123.59375 L 284.488281 123.757813 L 242.746094 128.425781 Z M 242.730469 128.261719 "/>
<path style="fill-rule:nonzero;fill:rgb(0%,0%,0%);fill-opacity:1;stroke-width:0.75;stroke-linecap:round;stroke-linejoin:round;stroke:rgb(0%,0%,0%);stroke-opacity:1;stroke-miterlimit:10;" d="M 242.738281 128.335938 L 278.890625 125.957031 L 278.898438 126.121094 L 242.75 128.503906 Z M 242.738281 128.335938 "/>
<path style="fill-rule:nonzero;fill:rgb(0%,0%,0%);fill-opacity:1;stroke-width:0.75;stroke-linecap:round;stroke-linejoin:round;stroke:rgb(0%,0%,0%);stroke-opacity:1;stroke-miterlimit:10;" d="M 284.640625 124.230469 L 282.09375 125.34375 L 282.027344 125.191406 L 284.574219 124.078125 Z M 284.640625 124.230469 "/>
<path style="fill-rule:nonzero;fill:rgb(87.45098%,32.54902%,41.960784%);fill-opacity:1;stroke-width:0.75;stroke-linecap:round;stroke-linejoin:round;stroke:rgb(0%,0%,0%);stroke-opacity:1;stroke-miterlimit:10;" d="M 226.789063 74.191406 L 226.75 73.988281 L 226.683594 73.789063 L 226.597656 73.601563 L 226.484375 73.425781 L 226.351563 73.265625 L 226.199219 73.125 L 226.03125 73 L 225.851563 72.902344 L 225.65625 72.824219 L 225.457031 72.773438 L 225.25 72.746094 L 225.042969 72.746094 L 224.835938 72.773438 L 224.632813 72.824219 L 224.441406 72.902344 L 224.257813 73 L 224.089844 73.125 L 223.9375 73.265625 L 223.804688 73.425781 L 223.695313 73.601563 L 223.605469 73.789063 L 223.542969 73.988281 L 223.503906 74.191406 L 223.488281 74.398438 L 223.503906 74.605469 L 223.542969 74.8125 L 223.605469 75.007813 L 223.695313 75.195313 L 223.804688 75.371094 L 223.9375 75.53125 L 224.089844 75.675781 L 224.257813 75.796875 L 224.441406 75.898438 L 224.632813 75.972656 L 224.835938 76.023438 L 225.042969 76.050781 L 225.25 76.050781 L 225.457031 76.023438 L 225.65625 75.972656 L 225.851563 75.898438 L 226.03125 75.796875 L 226.199219 75.675781 L 226.351563 75.53125 L 226.484375 75.371094 L 226.597656 75.195313 L 226.683594 75.007813 L 226.75 74.8125 L 226.789063 74.605469 L 226.800781 74.398438 Z M 226.789063 74.191406 "/>
<path style="fill-rule:nonzero;fill:rgb(87.45098%,32.54902%,41.960784%);fill-opacity:1;stroke-width:0.75;stroke-linecap:round;stroke-linejoin:round;stroke:rgb(0%,0%,0%);stroke-opacity:1;stroke-miterlimit:10;" d="M 231.417969 82.929688 L 231.378906 82.722656 L 231.3125 82.527344 L 231.226563 82.339844 L 231.113281 82.164063 L 230.980469 82.003906 L 230.832031 81.859375 L 230.664063 81.738281 L 230.480469 81.636719 L 230.285156 81.5625 L 230.085938 81.511719 L 229.878906 81.484375 L 229.671875 81.484375 L 229.464844 81.511719 L 229.261719 81.5625 L 229.070313 81.636719 L 228.886719 81.738281 L 228.71875 81.859375 L 228.566406 82.003906 L 228.4375 82.164063 L 228.324219 82.339844 L 228.234375 82.527344 L 228.171875 82.722656 L 228.132813 82.929688 L 228.121094 83.136719 L 228.132813 83.34375 L 228.171875 83.546875 L 228.234375 83.746094 L 228.324219 83.933594 L 228.4375 84.109375 L 228.566406 84.269531 L 228.71875 84.410156 L 228.886719 84.535156 L 229.070313 84.632813 L 229.261719 84.710938 L 229.464844 84.761719 L 229.671875 84.789063 L 229.878906 84.789063 L 230.085938 84.761719 L 230.285156 84.710938 L 230.480469 84.632813 L 230.664063 84.535156 L 230.832031 84.410156 L 230.980469 84.269531 L 231.113281 84.109375 L 231.226563 83.933594 L 231.3125 83.746094 L 231.378906 83.546875 L 231.417969 83.34375 L 231.429688 83.136719 Z M 231.417969 82.929688 "/>
<path style="fill-rule:nonzero;fill:rgb(87.45098%,32.54902%,41.960784%);fill-opacity:1;stroke-width:0.75;stroke-linecap:round;stroke-linejoin:round;stroke:rgb(0%,0%,0%);stroke-opacity:1;stroke-miterlimit:10;" d="M 240.234375 115.296875 L 240.195313 115.09375 L 240.132813 114.894531 L 240.042969 114.707031 L 239.933594 114.53125 L 239.800781 114.371094 L 239.648438 114.230469 L 239.480469 114.109375 L 239.296875 114.007813 L 239.105469 113.929688 L 238.902344 113.878906 L 238.695313 113.851563 L 238.488281 113.851563 L 238.28125 113.878906 L 238.082031 113.929688 L 237.886719 114.007813 L 237.707031 114.109375 L 237.539063 114.230469 L 237.386719 114.371094 L 237.253906 114.53125 L 237.140625 114.707031 L 237.054688 114.894531 L 236.988281 115.09375 L 236.949219 115.296875 L 236.9375 115.503906 L 236.949219 115.714844 L 236.988281 115.917969 L 237.054688 116.113281 L 237.140625 116.304688 L 237.253906 116.480469 L 237.386719 116.640625 L 237.539063 116.78125 L 237.707031 116.902344 L 237.886719 117.003906 L 238.082031 117.078125 L 238.28125 117.132813 L 238.488281 117.15625 L 238.695313 117.15625 L 238.902344 117.132813 L 239.105469 117.078125 L 239.296875 117.003906 L 239.480469 116.902344 L 239.648438 116.78125 L 239.800781 116.640625 L 239.933594 116.480469 L 240.042969 116.304688 L 240.132813 116.113281 L 240.195313 115.917969 L 240.234375 115.714844 L 240.246094 115.503906 Z M 240.234375 115.296875 "/>
<path style="fill-rule:nonzero;fill:rgb(87.45098%,32.54902%,41.960784%);fill-opacity:1;stroke-width:0.75;stroke-linecap:round;stroke-linejoin:round;stroke:rgb(0%,0%,0%);stroke-opacity:1;stroke-miterlimit:10;" d="M 209.429688 96.777344 L 209.390625 96.570313 L 209.328125 96.375 L 209.238281 96.1875 L 209.128906 96.011719 L 208.996094 95.851563 L 208.84375 95.707031 L 208.675781 95.585938 L 208.492188 95.484375 L 208.300781 95.410156 L 208.097656 95.355469 L 207.890625 95.332031 L 207.683594 95.332031 L 207.476563 95.355469 L 207.277344 95.410156 L 207.082031 95.484375 L 206.902344 95.585938 L 206.734375 95.707031 L 206.582031 95.851563 L 206.449219 96.011719 L 206.335938 96.1875 L 206.25 96.375 L 206.183594 96.570313 L 206.144531 96.777344 L 206.132813 96.984375 L 206.144531 97.191406 L 206.183594 97.394531 L 206.25 97.59375 L 206.335938 97.78125 L 206.449219 97.957031 L 206.582031 98.117188 L 206.734375 98.257813 L 206.902344 98.382813 L 207.082031 98.480469 L 207.277344 98.558594 L 207.476563 98.609375 L 207.683594 98.636719 L 207.890625 98.636719 L 208.097656 98.609375 L 208.300781 98.558594 L 208.492188 98.480469 L 208.675781 98.382813 L 208.84375 98.257813 L 208.996094 98.117188 L 209.128906 97.957031 L 209.238281 97.78125 L 209.328125 97.59375 L 209.390625 97.394531 L 209.429688 97.191406 L 209.445313 96.984375 Z M 209.429688 96.777344 "/>
<path style="fill-rule:nonzero;fill:rgb(87.45098%,32.54902%,41.960784%);fill-opacity:1;stroke-width:0.75;stroke-linecap:round;stroke-linejoin:round;stroke:rgb(0%,0%,0%);stroke-opacity:1;stroke-miterlimit:10;" d="M 210.996094 36.046875 L 210.957031 35.84375 L 210.890625 35.648438 L 210.804688 35.457031 L 210.691406 35.28125 L 210.558594 35.121094 L 210.410156 34.980469 L 210.238281 34.859375 L 210.058594 34.757813 L 209.863281 34.679688 L 209.664063 34.628906 L 209.457031 34.605469 L 209.25 34.605469 L 209.042969 34.628906 L 208.839844 34.679688 L 208.648438 34.757813 L 208.464844 34.859375 L 208.296875 34.980469 L 208.144531 35.121094 L 208.015625 35.28125 L 207.902344 35.457031 L 207.8125 35.648438 L 207.75 35.84375 L 207.710938 36.046875 L 207.699219 36.257813 L 207.710938 36.464844 L 207.75 36.667969 L 207.8125 36.867188 L 207.902344 37.054688 L 208.015625 37.230469 L 208.144531 37.390625 L 208.296875 37.53125 L 208.464844 37.652344 L 208.648438 37.753906 L 208.839844 37.832031 L 209.042969 37.882813 L 209.25 37.90625 L 209.457031 37.90625 L 209.664063 37.882813 L 209.863281 37.832031 L 210.058594 37.753906 L 210.238281 37.652344 L 210.410156 37.53125 L 210.558594 37.390625 L 210.691406 37.230469 L 210.804688 37.054688 L 210.890625 36.867188 L 210.957031 36.667969 L 210.996094 36.464844 L 211.007813 36.257813 Z M 210.996094 36.046875 "/>
<path style="fill-rule:nonzero;fill:rgb(87.45098%,32.54902%,41.960784%);fill-opacity:1;stroke-width:0.75;stroke-linecap:round;stroke-linejoin:round;stroke:rgb(0%,0%,0%);stroke-opacity:1;stroke-miterlimit:10;" d="M 249.292969 35.8125 L 249.253906 35.609375 L 249.1875 35.410156 L 249.101563 35.222656 L 248.988281 35.046875 L 248.855469 34.886719 L 248.703125 34.746094 L 248.535156 34.625 L 248.355469 34.523438 L 248.160156 34.445313 L 247.960938 34.394531 L 247.753906 34.367188 L 247.546875 34.367188 L 247.339844 34.394531 L 247.136719 34.445313 L 246.945313 34.523438 L 246.761719 34.625 L 246.59375 34.746094 L 246.441406 34.886719 L 246.308594 35.046875 L 246.199219 35.222656 L 246.109375 35.410156 L 246.046875 35.609375 L 246.007813 35.8125 L 245.992188 36.019531 L 246.007813 36.230469 L 246.046875 36.433594 L 246.109375 36.628906 L 246.199219 36.820313 L 246.308594 36.996094 L 246.441406 37.15625 L 246.59375 37.296875 L 246.761719 37.417969 L 246.945313 37.519531 L 247.136719 37.59375 L 247.339844 37.648438 L 247.546875 37.671875 L 247.753906 37.671875 L 247.960938 37.648438 L 248.160156 37.59375 L 248.355469 37.519531 L 248.535156 37.417969 L 248.703125 37.296875 L 248.855469 37.15625 L 248.988281 36.996094 L 249.101563 36.820313 L 249.1875 36.628906 L 249.253906 36.433594 L 249.292969 36.230469 L 249.304688 36.019531 Z M 249.292969 35.8125 "/>
<path style="fill-rule:nonzero;fill:rgb(87.45098%,32.54902%,41.960784%);fill-opacity:1;stroke-width:0.75;stroke-linecap:round;stroke-linejoin:round;stroke:rgb(0%,0%,0%);stroke-opacity:1;stroke-miterlimit:10;" d="M 236.910156 29.84375 L 236.871094 29.640625 L 236.808594 29.441406 L 236.71875 29.253906 L 236.609375 29.078125 L 236.476563 28.917969 L 236.324219 28.777344 L 236.15625 28.65625 L 235.972656 28.554688 L 235.78125 28.476563 L 235.578125 28.425781 L 235.371094 28.398438 L 235.164063 28.398438 L 234.957031 28.425781 L 234.757813 28.476563 L 234.5625 28.554688 L 234.382813 28.65625 L 234.214844 28.777344 L 234.0625 28.917969 L 233.929688 29.078125 L 233.816406 29.253906 L 233.730469 29.441406 L 233.664063 29.640625 L 233.625 29.84375 L 233.613281 30.050781 L 233.625 30.257813 L 233.664063 30.464844 L 233.730469 30.660156 L 233.816406 30.851563 L 233.929688 31.023438 L 234.0625 31.183594 L 234.214844 31.328125 L 234.382813 31.449219 L 234.5625 31.550781 L 234.757813 31.625 L 234.957031 31.679688 L 235.164063 31.703125 L 235.371094 31.703125 L 235.578125 31.679688 L 235.78125 31.625 L 235.972656 31.550781 L 236.15625 31.449219 L 236.324219 31.328125 L 236.476563 31.183594 L 236.609375 31.023438 L 236.71875 30.851563 L 236.808594 30.660156 L 236.871094 30.464844 L 236.910156 30.257813 L 236.925781 30.050781 Z M 236.910156 29.84375 "/>
<path style="fill-rule:nonzero;fill:rgb(87.45098%,32.54902%,41.960784%);fill-opacity:1;stroke-width:0.75;stroke-linecap:round;stroke-linejoin:round;stroke:rgb(0%,0%,0%);stroke-opacity:1;stroke-miterlimit:10;" d="M 206.679688 102.859375 L 206.640625 102.65625 L 206.578125 102.457031 L 206.488281 102.269531 L 206.378906 102.09375 L 206.246094 101.933594 L 206.09375 101.792969 L 205.925781 101.671875 L 205.742188 101.570313 L 205.550781 101.492188 L 205.347656 101.441406 L 205.140625 101.414063 L 204.933594 101.414063 L 204.726563 101.441406 L 204.527344 101.492188 L 204.332031 101.570313 L 204.152344 101.671875 L 203.984375 101.792969 L 203.832031 101.933594 L 203.699219 102.09375 L 203.585938 102.269531 L 203.5 102.457031 L 203.433594 102.65625 L 203.394531 102.859375 L 203.382813 103.066406 L 203.394531 103.277344 L 203.433594 103.480469 L 203.5 103.675781 L 203.585938 103.867188 L 203.699219 104.042969 L 203.832031 104.203125 L 203.984375 104.34375 L 204.152344 104.464844 L 204.332031 104.566406 L 204.527344 104.644531 L 204.726563 104.695313 L 204.933594 104.71875 L 205.140625 104.71875 L 205.347656 104.695313 L 205.550781 104.644531 L 205.742188 104.566406 L 205.925781 104.464844 L 206.09375 104.34375 L 206.246094 104.203125 L 206.378906 104.042969 L 206.488281 103.867188 L 206.578125 103.675781 L 206.640625 103.480469 L 206.679688 103.277344 L 206.695313 103.066406 Z M 206.679688 102.859375 "/>
<path style="fill-rule:nonzero;fill:rgb(87.45098%,32.54902%,41.960784%);fill-opacity:1;stroke-width:0.75;stroke-linecap:round;stroke-linejoin:round;stroke:rgb(0%,0%,0%);stroke-opacity:1;stroke-miterlimit:10;" d="M 264.972656 97.035156 L 264.933594 96.832031 L 264.867188 96.632813 L 264.78125 96.445313 L 264.667969 96.269531 L 264.535156 96.109375 L 264.382813 95.96875 L 264.214844 95.847656 L 264.035156 95.746094 L 263.839844 95.667969 L 263.640625 95.617188 L 263.433594 95.589844 L 263.226563 95.589844 L 263.019531 95.617188 L 262.816406 95.667969 L 262.625 95.746094 L 262.441406 95.847656 L 262.273438 95.96875 L 262.121094 96.109375 L 261.988281 96.269531 L 261.878906 96.445313 L 261.789063 96.632813 L 261.726563 96.832031 L 261.6875 97.035156 L 261.671875 97.242188 L 261.6875 97.449219 L 261.726563 97.65625 L 261.789063 97.851563 L 261.878906 98.042969 L 261.988281 98.214844 L 262.121094 98.378906 L 262.273438 98.519531 L 262.441406 98.640625 L 262.625 98.742188 L 262.816406 98.816406 L 263.019531 98.871094 L 263.226563 98.894531 L 263.433594 98.894531 L 263.640625 98.871094 L 263.839844 98.816406 L 264.035156 98.742188 L 264.214844 98.640625 L 264.382813 98.519531 L 264.535156 98.378906 L 264.667969 98.214844 L 264.78125 98.042969 L 264.867188 97.851563 L 264.933594 97.65625 L 264.972656 97.449219 L 264.984375 97.242188 Z M 264.972656 97.035156 "/>
<path style="fill-rule:nonzero;fill:rgb(87.45098%,32.54902%,41.960784%);fill-opacity:1;stroke-width:0.75;stroke-linecap:round;stroke-linejoin:round;stroke:rgb(0%,0%,0%);stroke-opacity:1;stroke-miterlimit:10;" d="M 262.070313 147.371094 L 262.03125 147.167969 L 261.96875 146.972656 L 261.878906 146.78125 L 261.769531 146.605469 L 261.636719 146.445313 L 261.484375 146.304688 L 261.316406 146.183594 L 261.132813 146.082031 L 260.941406 146.007813 L 260.738281 145.953125 L 260.535156 145.929688 L 260.324219 145.929688 L 260.121094 145.953125 L 259.917969 146.007813 L 259.722656 146.082031 L 259.542969 146.183594 L 259.375 146.304688 L 259.222656 146.445313 L 259.089844 146.605469 L 258.980469 146.78125 L 258.890625 146.972656 L 258.824219 147.167969 L 258.785156 147.371094 L 258.773438 147.582031 L 258.785156 147.789063 L 258.824219 147.992188 L 258.890625 148.191406 L 258.980469 148.378906 L 259.089844 148.554688 L 259.222656 148.714844 L 259.375 148.855469 L 259.542969 148.976563 L 259.722656 149.078125 L 259.917969 149.15625 L 260.121094 149.207031 L 260.324219 149.234375 L 260.535156 149.234375 L 260.738281 149.207031 L 260.941406 149.15625 L 261.132813 149.078125 L 261.316406 148.976563 L 261.484375 148.855469 L 261.636719 148.714844 L 261.769531 148.554688 L 261.878906 148.378906 L 261.96875 148.191406 L 262.03125 147.992188 L 262.070313 147.789063 L 262.085938 147.582031 Z M 262.070313 147.371094 "/>
<path style="fill-rule:nonzero;fill:rgb(87.45098%,32.54902%,41.960784%);fill-opacity:1;stroke-width:0.75;stroke-linecap:round;stroke-linejoin:round;stroke:rgb(0%,0%,0%);stroke-opacity:1;stroke-miterlimit:10;" d="M 225.101563 35.921875 L 225.0625 35.71875 L 225 35.519531 L 224.910156 35.332031 L 224.800781 35.15625 L 224.667969 34.996094 L 224.515625 34.851563 L 224.347656 34.730469 L 224.164063 34.632813 L 223.972656 34.554688 L 223.769531 34.503906 L 223.566406 34.476563 L 223.355469 34.476563 L 223.148438 34.503906 L 222.949219 34.554688 L 222.753906 34.632813 L 222.574219 34.730469 L 222.40625 34.851563 L 222.253906 34.996094 L 222.121094 35.15625 L 222.011719 35.332031 L 221.921875 35.519531 L 221.855469 35.71875 L 221.816406 35.921875 L 221.804688 36.128906 L 221.816406 36.335938 L 221.855469 36.539063 L 221.921875 36.738281 L 222.011719 36.925781 L 222.121094 37.101563 L 222.253906 37.261719 L 222.40625 37.40625 L 222.574219 37.527344 L 222.753906 37.628906 L 222.949219 37.703125 L 223.148438 37.753906 L 223.355469 37.78125 L 223.566406 37.78125 L 223.769531 37.753906 L 223.972656 37.703125 L 224.164063 37.628906 L 224.347656 37.527344 L 224.515625 37.40625 L 224.667969 37.261719 L 224.800781 37.101563 L 224.910156 36.925781 L 225 36.738281 L 225.0625 36.539063 L 225.101563 36.335938 L 225.117188 36.128906 Z M 225.101563 35.921875 "/>
<path style="fill-rule:nonzero;fill:rgb(87.45098%,32.54902%,41.960784%);fill-opacity:1;stroke-width:0.75;stroke-linecap:round;stroke-linejoin:round;stroke:rgb(0%,0%,0%);stroke-opacity:1;stroke-miterlimit:10;" d="M 187.464844 55.816406 L 187.425781 55.613281 L 187.363281 55.417969 L 187.273438 55.226563 L 187.164063 55.050781 L 187.03125 54.890625 L 186.878906 54.75 L 186.710938 54.628906 L 186.527344 54.527344 L 186.335938 54.449219 L 186.132813 54.398438 L 185.925781 54.375 L 185.71875 54.375 L 185.511719 54.398438 L 185.3125 54.449219 L 185.117188 54.527344 L 184.9375 54.628906 L 184.769531 54.75 L 184.617188 54.890625 L 184.484375 55.050781 L 184.371094 55.226563 L 184.285156 55.417969 L 184.21875 55.613281 L 184.179688 55.816406 L 184.167969 56.027344 L 184.179688 56.234375 L 184.21875 56.4375 L 184.285156 56.636719 L 184.371094 56.824219 L 184.484375 57 L 184.617188 57.160156 L 184.769531 57.300781 L 184.9375 57.421875 L 185.117188 57.523438 L 185.3125 57.601563 L 185.511719 57.652344 L 185.71875 57.675781 L 185.925781 57.675781 L 186.132813 57.652344 L 186.335938 57.601563 L 186.527344 57.523438 L 186.710938 57.421875 L 186.878906 57.300781 L 187.03125 57.160156 L 187.164063 57 L 187.273438 56.824219 L 187.363281 56.636719 L 187.425781 56.4375 L 187.464844 56.234375 L 187.480469 56.027344 Z M 187.464844 55.816406 "/>
<path style="fill-rule:nonzero;fill:rgb(87.45098%,32.54902%,41.960784%);fill-opacity:1;stroke-width:0.75;stroke-linecap:round;stroke-linejoin:round;stroke:rgb(0%,0%,0%);stroke-opacity:1;stroke-miterlimit:10;" d="M 186.320313 84.460938 L 186.28125 84.257813 L 186.214844 84.058594 L 186.125 83.871094 L 186.015625 83.695313 L 185.882813 83.535156 L 185.730469 83.394531 L 185.5625 83.269531 L 185.382813 83.171875 L 185.1875 83.09375 L 184.984375 83.042969 L 184.78125 83.015625 L 184.570313 83.015625 L 184.367188 83.042969 L 184.164063 83.09375 L 183.972656 83.171875 L 183.789063 83.269531 L 183.621094 83.394531 L 183.46875 83.535156 L 183.335938 83.695313 L 183.226563 83.871094 L 183.136719 84.058594 L 183.074219 84.257813 L 183.035156 84.460938 L 183.019531 84.667969 L 183.035156 84.875 L 183.074219 85.082031 L 183.136719 85.277344 L 183.226563 85.464844 L 183.335938 85.640625 L 183.46875 85.800781 L 183.621094 85.945313 L 183.789063 86.066406 L 183.972656 86.167969 L 184.164063 86.242188 L 184.367188 86.296875 L 184.570313 86.320313 L 184.78125 86.320313 L 184.984375 86.296875 L 185.1875 86.242188 L 185.382813 86.167969 L 185.5625 86.066406 L 185.730469 85.945313 L 185.882813 85.800781 L 186.015625 85.640625 L 186.125 85.464844 L 186.214844 85.277344 L 186.28125 85.082031 L 186.320313 84.875 L 186.332031 84.667969 Z M 186.320313 84.460938 "/>
<path style="fill-rule:nonzero;fill:rgb(87.45098%,32.54902%,41.960784%);fill-opacity:1;stroke-width:0.75;stroke-linecap:round;stroke-linejoin:round;stroke:rgb(0%,0%,0%);stroke-opacity:1;stroke-miterlimit:10;" d="M 242.878906 100.507813 L 242.839844 100.304688 L 242.773438 100.105469 L 242.6875 99.917969 L 242.574219 99.742188 L 242.441406 99.582031 L 242.289063 99.441406 L 242.121094 99.316406 L 241.941406 99.21875 L 241.746094 99.140625 L 241.546875 99.089844 L 241.339844 99.0625 L 241.132813 99.0625 L 240.925781 99.089844 L 240.722656 99.140625 L 240.53125 99.21875 L 240.347656 99.316406 L 240.179688 99.441406 L 240.027344 99.582031 L 239.894531 99.742188 L 239.785156 99.917969 L 239.695313 100.105469 L 239.632813 100.304688 L 239.59375 100.507813 L 239.578125 100.714844 L 239.59375 100.921875 L 239.632813 101.128906 L 239.695313 101.324219 L 239.785156 101.511719 L 239.894531 101.6875 L 240.027344 101.847656 L 240.179688 101.992188 L 240.347656 102.113281 L 240.53125 102.214844 L 240.722656 102.289063 L 240.925781 102.34375 L 241.132813 102.367188 L 241.339844 102.367188 L 241.546875 102.34375 L 241.746094 102.289063 L 241.941406 102.214844 L 242.121094 102.113281 L 242.289063 101.992188 L 242.441406 101.847656 L 242.574219 101.6875 L 242.6875 101.511719 L 242.773438 101.324219 L 242.839844 101.128906 L 242.878906 100.921875 L 242.890625 100.714844 Z M 242.878906 100.507813 "/>
<path style="fill-rule:nonzero;fill:rgb(87.45098%,32.54902%,41.960784%);fill-opacity:1;stroke-width:0.75;stroke-linecap:round;stroke-linejoin:round;stroke:rgb(0%,0%,0%);stroke-opacity:1;stroke-miterlimit:10;" d="M 315.53125 140.804688 L 315.492188 140.601563 L 315.429688 140.402344 L 315.339844 140.214844 L 315.230469 140.039063 L 315.097656 139.878906 L 314.945313 139.738281 L 314.777344 139.613281 L 314.59375 139.515625 L 314.402344 139.4375 L 314.199219 139.386719 L 313.996094 139.359375 L 313.785156 139.359375 L 313.582031 139.386719 L 313.378906 139.4375 L 313.1875 139.515625 L 313.003906 139.613281 L 312.835938 139.738281 L 312.683594 139.878906 L 312.550781 140.039063 L 312.441406 140.214844 L 312.351563 140.402344 L 312.285156 140.601563 L 312.25 140.804688 L 312.234375 141.011719 L 312.25 141.21875 L 312.285156 141.425781 L 312.351563 141.621094 L 312.441406 141.808594 L 312.550781 141.984375 L 312.683594 142.144531 L 312.835938 142.289063 L 313.003906 142.410156 L 313.1875 142.511719 L 313.378906 142.585938 L 313.582031 142.640625 L 313.785156 142.664063 L 313.996094 142.664063 L 314.199219 142.640625 L 314.402344 142.585938 L 314.59375 142.511719 L 314.777344 142.410156 L 314.945313 142.289063 L 315.097656 142.144531 L 315.230469 141.984375 L 315.339844 141.808594 L 315.429688 141.621094 L 315.492188 141.425781 L 315.53125 141.21875 L 315.546875 141.011719 Z M 315.53125 140.804688 "/>
<path style="fill-rule:nonzero;fill:rgb(87.45098%,32.54902%,41.960784%);fill-opacity:1;stroke-width:0.75;stroke-linecap:round;stroke-linejoin:round;stroke:rgb(0%,0%,0%);stroke-opacity:1;stroke-miterlimit:10;" d="M 313.425781 101.921875 L 313.386719 101.71875 L 313.324219 101.519531 L 313.234375 101.332031 L 313.125 101.15625 L 312.992188 100.996094 L 312.839844 100.855469 L 312.671875 100.734375 L 312.488281 100.632813 L 312.296875 100.554688 L 312.09375 100.503906 L 311.886719 100.476563 L 311.679688 100.476563 L 311.472656 100.503906 L 311.273438 100.554688 L 311.078125 100.632813 L 310.898438 100.734375 L 310.730469 100.855469 L 310.578125 100.996094 L 310.445313 101.15625 L 310.332031 101.332031 L 310.246094 101.519531 L 310.179688 101.71875 L 310.140625 101.921875 L 310.128906 102.128906 L 310.140625 102.335938 L 310.179688 102.542969 L 310.246094 102.738281 L 310.332031 102.929688 L 310.445313 103.101563 L 310.578125 103.261719 L 310.730469 103.40625 L 310.898438 103.527344 L 311.078125 103.628906 L 311.273438 103.703125 L 311.472656 103.757813 L 311.679688 103.78125 L 311.886719 103.78125 L 312.09375 103.757813 L 312.296875 103.703125 L 312.488281 103.628906 L 312.671875 103.527344 L 312.839844 103.40625 L 312.992188 103.261719 L 313.125 103.101563 L 313.234375 102.929688 L 313.324219 102.738281 L 313.386719 102.542969 L 313.425781 102.335938 L 313.441406 102.128906 Z M 313.425781 101.921875 "/>
<path style="fill-rule:nonzero;fill:rgb(87.45098%,32.54902%,41.960784%);fill-opacity:1;stroke-width:0.75;stroke-linecap:round;stroke-linejoin:round;stroke:rgb(0%,0%,0%);stroke-opacity:1;stroke-miterlimit:10;" d="M 260.21875 8.65625 L 260.179688 8.453125 L 260.113281 8.253906 L 260.023438 8.066406 L 259.914063 7.890625 L 259.78125 7.730469 L 259.628906 7.585938 L 259.460938 7.464844 L 259.277344 7.367188 L 259.085938 7.289063 L 258.882813 7.238281 L 258.679688 7.210938 L 258.46875 7.210938 L 258.265625 7.238281 L 258.0625 7.289063 L 257.871094 7.367188 L 257.6875 7.464844 L 257.519531 7.585938 L 257.367188 7.730469 L 257.234375 7.890625 L 257.125 8.066406 L 257.035156 8.253906 L 256.972656 8.453125 L 256.933594 8.65625 L 256.917969 8.863281 L 256.933594 9.070313 L 256.972656 9.273438 L 257.035156 9.472656 L 257.125 9.660156 L 257.234375 9.835938 L 257.367188 9.996094 L 257.519531 10.140625 L 257.6875 10.261719 L 257.871094 10.363281 L 258.0625 10.4375 L 258.265625 10.488281 L 258.46875 10.515625 L 258.679688 10.515625 L 258.882813 10.488281 L 259.085938 10.4375 L 259.277344 10.363281 L 259.460938 10.261719 L 259.628906 10.140625 L 259.78125 9.996094 L 259.914063 9.835938 L 260.023438 9.660156 L 260.113281 9.472656 L 260.179688 9.273438 L 260.21875 9.070313 L 260.230469 8.863281 Z M 260.21875 8.65625 "/>
<path style="fill-rule:nonzero;fill:rgb(87.45098%,32.54902%,41.960784%);fill-opacity:1;stroke-width:0.75;stroke-linecap:round;stroke-linejoin:round;stroke:rgb(0%,0%,0%);stroke-opacity:1;stroke-miterlimit:10;" d="M 196.535156 73.605469 L 196.496094 73.402344 L 196.433594 73.203125 L 196.34375 73.015625 L 196.234375 72.839844 L 196.101563 72.679688 L 195.949219 72.539063 L 195.78125 72.414063 L 195.597656 72.316406 L 195.40625 72.238281 L 195.203125 72.1875 L 194.996094 72.160156 L 194.789063 72.160156 L 194.582031 72.1875 L 194.382813 72.238281 L 194.1875 72.316406 L 194.007813 72.414063 L 193.839844 72.539063 L 193.6875 72.679688 L 193.554688 72.839844 L 193.441406 73.015625 L 193.355469 73.203125 L 193.289063 73.402344 L 193.25 73.605469 L 193.238281 73.8125 L 193.25 74.019531 L 193.289063 74.222656 L 193.355469 74.421875 L 193.441406 74.609375 L 193.554688 74.785156 L 193.6875 74.945313 L 193.839844 75.089844 L 194.007813 75.210938 L 194.1875 75.3125 L 194.382813 75.386719 L 194.582031 75.4375 L 194.789063 75.464844 L 194.996094 75.464844 L 195.203125 75.4375 L 195.40625 75.386719 L 195.597656 75.3125 L 195.78125 75.210938 L 195.949219 75.089844 L 196.101563 74.945313 L 196.234375 74.785156 L 196.34375 74.609375 L 196.433594 74.421875 L 196.496094 74.222656 L 196.535156 74.019531 L 196.550781 73.8125 Z M 196.535156 73.605469 "/>
<path style="fill-rule:nonzero;fill:rgb(87.45098%,32.54902%,41.960784%);fill-opacity:1;stroke-width:0.75;stroke-linecap:round;stroke-linejoin:round;stroke:rgb(0%,0%,0%);stroke-opacity:1;stroke-miterlimit:10;" d="M 317.117188 109.726563 L 317.078125 109.523438 L 317.011719 109.324219 L 316.925781 109.136719 L 316.8125 108.960938 L 316.679688 108.800781 L 316.527344 108.660156 L 316.359375 108.535156 L 316.179688 108.4375 L 315.984375 108.359375 L 315.785156 108.308594 L 315.578125 108.28125 L 315.371094 108.28125 L 315.164063 108.308594 L 314.960938 108.359375 L 314.769531 108.4375 L 314.585938 108.535156 L 314.417969 108.660156 L 314.265625 108.800781 L 314.132813 108.960938 L 314.023438 109.136719 L 313.933594 109.324219 L 313.871094 109.523438 L 313.832031 109.726563 L 313.816406 109.933594 L 313.832031 110.140625 L 313.871094 110.347656 L 313.933594 110.542969 L 314.023438 110.730469 L 314.132813 110.90625 L 314.265625 111.066406 L 314.417969 111.210938 L 314.585938 111.332031 L 314.769531 111.433594 L 314.960938 111.507813 L 315.164063 111.558594 L 315.371094 111.585938 L 315.578125 111.585938 L 315.785156 111.558594 L 315.984375 111.507813 L 316.179688 111.433594 L 316.359375 111.332031 L 316.527344 111.210938 L 316.679688 111.066406 L 316.8125 110.90625 L 316.925781 110.730469 L 317.011719 110.542969 L 317.078125 110.347656 L 317.117188 110.140625 L 317.128906 109.933594 Z M 317.117188 109.726563 "/>
<path style="fill-rule:nonzero;fill:rgb(87.45098%,32.54902%,41.960784%);fill-opacity:1;stroke-width:0.75;stroke-linecap:round;stroke-linejoin:round;stroke:rgb(0%,0%,0%);stroke-opacity:1;stroke-miterlimit:10;" d="M 265.445313 79.882813 L 265.40625 79.679688 L 265.339844 79.484375 L 265.25 79.292969 L 265.140625 79.117188 L 265.007813 78.957031 L 264.855469 78.816406 L 264.6875 78.695313 L 264.507813 78.59375 L 264.3125 78.519531 L 264.109375 78.464844 L 263.90625 78.441406 L 263.695313 78.441406 L 263.492188 78.464844 L 263.289063 78.519531 L 263.097656 78.59375 L 262.914063 78.695313 L 262.746094 78.816406 L 262.59375 78.957031 L 262.460938 79.117188 L 262.351563 79.292969 L 262.261719 79.484375 L 262.199219 79.679688 L 262.160156 79.882813 L 262.144531 80.09375 L 262.160156 80.300781 L 262.199219 80.503906 L 262.261719 80.703125 L 262.351563 80.890625 L 262.460938 81.066406 L 262.59375 81.226563 L 262.746094 81.367188 L 262.914063 81.488281 L 263.097656 81.589844 L 263.289063 81.667969 L 263.492188 81.71875 L 263.695313 81.746094 L 263.90625 81.746094 L 264.109375 81.71875 L 264.3125 81.667969 L 264.507813 81.589844 L 264.6875 81.488281 L 264.855469 81.367188 L 265.007813 81.226563 L 265.140625 81.066406 L 265.25 80.890625 L 265.339844 80.703125 L 265.40625 80.503906 L 265.445313 80.300781 L 265.457031 80.09375 Z M 265.445313 79.882813 "/>
<path style="fill-rule:nonzero;fill:rgb(87.45098%,32.54902%,41.960784%);fill-opacity:1;stroke-width:0.75;stroke-linecap:round;stroke-linejoin:round;stroke:rgb(0%,0%,0%);stroke-opacity:1;stroke-miterlimit:10;" d="M 320.964844 120.1875 L 320.925781 119.980469 L 320.863281 119.785156 L 320.773438 119.597656 L 320.664063 119.421875 L 320.53125 119.261719 L 320.378906 119.117188 L 320.210938 118.996094 L 320.027344 118.894531 L 319.835938 118.820313 L 319.632813 118.765625 L 319.429688 118.742188 L 319.21875 118.742188 L 319.015625 118.765625 L 318.8125 118.820313 L 318.617188 118.894531 L 318.4375 118.996094 L 318.269531 119.117188 L 318.117188 119.261719 L 317.984375 119.421875 L 317.875 119.597656 L 317.785156 119.785156 L 317.71875 119.980469 L 317.679688 120.1875 L 317.667969 120.394531 L 317.679688 120.601563 L 317.71875 120.804688 L 317.785156 121.003906 L 317.875 121.191406 L 317.984375 121.367188 L 318.117188 121.527344 L 318.269531 121.667969 L 318.4375 121.792969 L 318.617188 121.890625 L 318.8125 121.96875 L 319.015625 122.019531 L 319.21875 122.046875 L 319.429688 122.046875 L 319.632813 122.019531 L 319.835938 121.96875 L 320.027344 121.890625 L 320.210938 121.792969 L 320.378906 121.667969 L 320.53125 121.527344 L 320.664063 121.367188 L 320.773438 121.191406 L 320.863281 121.003906 L 320.925781 120.804688 L 320.964844 120.601563 L 320.980469 120.394531 Z M 320.964844 120.1875 "/>
<path style="fill-rule:nonzero;fill:rgb(87.45098%,32.54902%,41.960784%);fill-opacity:1;stroke-width:0.75;stroke-linecap:round;stroke-linejoin:round;stroke:rgb(0%,0%,0%);stroke-opacity:1;stroke-miterlimit:10;" d="M 204.691406 59.492188 L 204.652344 59.289063 L 204.585938 59.089844 L 204.5 58.902344 L 204.386719 58.726563 L 204.253906 58.566406 L 204.101563 58.425781 L 203.933594 58.300781 L 203.753906 58.203125 L 203.558594 58.125 L 203.359375 58.074219 L 203.152344 58.046875 L 202.945313 58.046875 L 202.738281 58.074219 L 202.535156 58.125 L 202.34375 58.203125 L 202.160156 58.300781 L 201.992188 58.425781 L 201.839844 58.566406 L 201.707031 58.726563 L 201.597656 58.902344 L 201.507813 59.089844 L 201.445313 59.289063 L 201.40625 59.492188 L 201.390625 59.699219 L 201.40625 59.90625 L 201.445313 60.109375 L 201.507813 60.308594 L 201.597656 60.496094 L 201.707031 60.671875 L 201.839844 60.832031 L 201.992188 60.976563 L 202.160156 61.097656 L 202.34375 61.199219 L 202.535156 61.273438 L 202.738281 61.324219 L 202.945313 61.351563 L 203.152344 61.351563 L 203.359375 61.324219 L 203.558594 61.273438 L 203.753906 61.199219 L 203.933594 61.097656 L 204.101563 60.976563 L 204.253906 60.832031 L 204.386719 60.671875 L 204.5 60.496094 L 204.585938 60.308594 L 204.652344 60.109375 L 204.691406 59.90625 L 204.703125 59.699219 Z M 204.691406 59.492188 "/>
<path style="fill-rule:nonzero;fill:rgb(87.45098%,32.54902%,41.960784%);fill-opacity:1;stroke-width:0.75;stroke-linecap:round;stroke-linejoin:round;stroke:rgb(0%,0%,0%);stroke-opacity:1;stroke-miterlimit:10;" d="M 319.921875 130.511719 L 319.882813 130.308594 L 319.820313 130.109375 L 319.730469 129.921875 L 319.621094 129.746094 L 319.488281 129.585938 L 319.335938 129.445313 L 319.167969 129.320313 L 318.984375 129.222656 L 318.792969 129.144531 L 318.589844 129.09375 L 318.382813 129.066406 L 318.175781 129.066406 L 317.96875 129.09375 L 317.769531 129.144531 L 317.574219 129.222656 L 317.394531 129.320313 L 317.226563 129.445313 L 317.074219 129.585938 L 316.941406 129.746094 L 316.828125 129.921875 L 316.742188 130.109375 L 316.675781 130.308594 L 316.636719 130.511719 L 316.625 130.71875 L 316.636719 130.925781 L 316.675781 131.132813 L 316.742188 131.328125 L 316.828125 131.515625 L 316.941406 131.691406 L 317.074219 131.851563 L 317.226563 131.996094 L 317.394531 132.117188 L 317.574219 132.21875 L 317.769531 132.292969 L 317.96875 132.347656 L 318.175781 132.371094 L 318.382813 132.371094 L 318.589844 132.347656 L 318.792969 132.292969 L 318.984375 132.21875 L 319.167969 132.117188 L 319.335938 131.996094 L 319.488281 131.851563 L 319.621094 131.691406 L 319.730469 131.515625 L 319.820313 131.328125 L 319.882813 131.132813 L 319.921875 130.925781 L 319.9375 130.71875 Z M 319.921875 130.511719 "/>
<path style="fill-rule:nonzero;fill:rgb(87.45098%,32.54902%,41.960784%);fill-opacity:1;stroke-width:0.75;stroke-linecap:round;stroke-linejoin:round;stroke:rgb(0%,0%,0%);stroke-opacity:1;stroke-miterlimit:10;" d="M 275.003906 160.660156 L 274.964844 160.457031 L 274.902344 160.257813 L 274.8125 160.070313 L 274.703125 159.894531 L 274.570313 159.734375 L 274.417969 159.59375 L 274.25 159.46875 L 274.066406 159.371094 L 273.875 159.292969 L 273.671875 159.242188 L 273.464844 159.214844 L 273.257813 159.214844 L 273.050781 159.242188 L 272.851563 159.292969 L 272.65625 159.371094 L 272.476563 159.46875 L 272.308594 159.59375 L 272.15625 159.734375 L 272.023438 159.894531 L 271.910156 160.070313 L 271.824219 160.257813 L 271.757813 160.457031 L 271.71875 160.660156 L 271.707031 160.867188 L 271.71875 161.074219 L 271.757813 161.277344 L 271.824219 161.476563 L 271.910156 161.664063 L 272.023438 161.839844 L 272.15625 162 L 272.308594 162.144531 L 272.476563 162.265625 L 272.65625 162.367188 L 272.851563 162.441406 L 273.050781 162.492188 L 273.257813 162.519531 L 273.464844 162.519531 L 273.671875 162.492188 L 273.875 162.441406 L 274.066406 162.367188 L 274.25 162.265625 L 274.417969 162.144531 L 274.570313 162 L 274.703125 161.839844 L 274.8125 161.664063 L 274.902344 161.476563 L 274.964844 161.277344 L 275.003906 161.074219 L 275.015625 160.867188 Z M 275.003906 160.660156 "/>
<path style="fill-rule:nonzero;fill:rgb(87.45098%,32.54902%,41.960784%);fill-opacity:1;stroke-width:0.75;stroke-linecap:round;stroke-linejoin:round;stroke:rgb(0%,0%,0%);stroke-opacity:1;stroke-miterlimit:10;" d="M 220.007813 162.304688 L 219.96875 162.097656 L 219.90625 161.902344 L 219.816406 161.714844 L 219.707031 161.539063 L 219.574219 161.378906 L 219.421875 161.234375 L 219.253906 161.113281 L 219.070313 161.011719 L 218.878906 160.9375 L 218.675781 160.882813 L 218.46875 160.859375 L 218.261719 160.859375 L 218.054688 160.882813 L 217.855469 160.9375 L 217.660156 161.011719 L 217.480469 161.113281 L 217.3125 161.234375 L 217.160156 161.378906 L 217.027344 161.539063 L 216.914063 161.714844 L 216.828125 161.902344 L 216.761719 162.097656 L 216.722656 162.304688 L 216.710938 162.511719 L 216.722656 162.71875 L 216.761719 162.921875 L 216.828125 163.121094 L 216.914063 163.308594 L 217.027344 163.484375 L 217.160156 163.644531 L 217.3125 163.785156 L 217.480469 163.910156 L 217.660156 164.007813 L 217.855469 164.085938 L 218.054688 164.136719 L 218.261719 164.164063 L 218.46875 164.164063 L 218.675781 164.136719 L 218.878906 164.085938 L 219.070313 164.007813 L 219.253906 163.910156 L 219.421875 163.785156 L 219.574219 163.644531 L 219.707031 163.484375 L 219.816406 163.308594 L 219.90625 163.121094 L 219.96875 162.921875 L 220.007813 162.71875 L 220.023438 162.511719 Z M 220.007813 162.304688 "/>
<path style="fill-rule:nonzero;fill:rgb(87.45098%,32.54902%,41.960784%);fill-opacity:1;stroke-width:0.75;stroke-linecap:round;stroke-linejoin:round;stroke:rgb(0%,0%,0%);stroke-opacity:1;stroke-miterlimit:10;" d="M 240.828125 170.929688 L 240.789063 170.726563 L 240.726563 170.527344 L 240.636719 170.339844 L 240.527344 170.164063 L 240.394531 170.003906 L 240.242188 169.859375 L 240.074219 169.738281 L 239.890625 169.636719 L 239.699219 169.5625 L 239.496094 169.511719 L 239.289063 169.484375 L 239.082031 169.484375 L 238.875 169.511719 L 238.675781 169.5625 L 238.480469 169.636719 L 238.300781 169.738281 L 238.132813 169.859375 L 237.980469 170.003906 L 237.847656 170.164063 L 237.734375 170.339844 L 237.648438 170.527344 L 237.582031 170.726563 L 237.542969 170.929688 L 237.53125 171.136719 L 237.542969 171.34375 L 237.582031 171.546875 L 237.648438 171.746094 L 237.734375 171.933594 L 237.847656 172.109375 L 237.980469 172.269531 L 238.132813 172.414063 L 238.300781 172.535156 L 238.480469 172.632813 L 238.675781 172.710938 L 238.875 172.761719 L 239.082031 172.789063 L 239.289063 172.789063 L 239.496094 172.761719 L 239.699219 172.710938 L 239.890625 172.632813 L 240.074219 172.535156 L 240.242188 172.414063 L 240.394531 172.269531 L 240.527344 172.109375 L 240.636719 171.933594 L 240.726563 171.746094 L 240.789063 171.546875 L 240.828125 171.34375 L 240.84375 171.136719 Z M 240.828125 170.929688 "/>
<path style="fill-rule:nonzero;fill:rgb(87.45098%,32.54902%,41.960784%);fill-opacity:1;stroke-width:0.75;stroke-linecap:round;stroke-linejoin:round;stroke:rgb(0%,0%,0%);stroke-opacity:1;stroke-miterlimit:10;" d="M 312.164063 158.453125 L 312.125 158.25 L 312.0625 158.050781 L 311.972656 157.863281 L 311.863281 157.6875 L 311.730469 157.527344 L 311.578125 157.386719 L 311.410156 157.265625 L 311.226563 157.164063 L 311.035156 157.085938 L 310.832031 157.035156 L 310.625 157.007813 L 310.417969 157.007813 L 310.210938 157.035156 L 310.011719 157.085938 L 309.816406 157.164063 L 309.636719 157.265625 L 309.46875 157.386719 L 309.316406 157.527344 L 309.183594 157.6875 L 309.070313 157.863281 L 308.984375 158.050781 L 308.917969 158.25 L 308.878906 158.453125 L 308.867188 158.660156 L 308.878906 158.871094 L 308.917969 159.074219 L 308.984375 159.269531 L 309.070313 159.460938 L 309.183594 159.636719 L 309.316406 159.796875 L 309.46875 159.9375 L 309.636719 160.058594 L 309.816406 160.160156 L 310.011719 160.238281 L 310.210938 160.289063 L 310.417969 160.3125 L 310.625 160.3125 L 310.832031 160.289063 L 311.035156 160.238281 L 311.226563 160.160156 L 311.410156 160.058594 L 311.578125 159.9375 L 311.730469 159.796875 L 311.863281 159.636719 L 311.972656 159.460938 L 312.0625 159.269531 L 312.125 159.074219 L 312.164063 158.871094 L 312.179688 158.660156 Z M 312.164063 158.453125 "/>
<path style="fill-rule:nonzero;fill:rgb(87.45098%,32.54902%,41.960784%);fill-opacity:1;stroke-width:0.75;stroke-linecap:round;stroke-linejoin:round;stroke:rgb(0%,0%,0%);stroke-opacity:1;stroke-miterlimit:10;" d="M 249.820313 152.738281 L 249.78125 152.535156 L 249.71875 152.335938 L 249.628906 152.148438 L 249.519531 151.972656 L 249.386719 151.8125 L 249.234375 151.671875 L 249.066406 151.550781 L 248.882813 151.449219 L 248.691406 151.371094 L 248.488281 151.320313 L 248.285156 151.292969 L 248.074219 151.292969 L 247.871094 151.320313 L 247.667969 151.371094 L 247.476563 151.449219 L 247.292969 151.550781 L 247.125 151.671875 L 246.972656 151.8125 L 246.839844 151.972656 L 246.730469 152.148438 L 246.640625 152.335938 L 246.574219 152.535156 L 246.535156 152.738281 L 246.523438 152.945313 L 246.535156 153.152344 L 246.574219 153.359375 L 246.640625 153.554688 L 246.730469 153.746094 L 246.839844 153.917969 L 246.972656 154.078125 L 247.125 154.222656 L 247.292969 154.34375 L 247.476563 154.445313 L 247.667969 154.519531 L 247.871094 154.574219 L 248.074219 154.597656 L 248.285156 154.597656 L 248.488281 154.574219 L 248.691406 154.519531 L 248.882813 154.445313 L 249.066406 154.34375 L 249.234375 154.222656 L 249.386719 154.078125 L 249.519531 153.917969 L 249.628906 153.746094 L 249.71875 153.554688 L 249.78125 153.359375 L 249.820313 153.152344 L 249.835938 152.945313 Z M 249.820313 152.738281 "/>
<path style="fill-rule:nonzero;fill:rgb(87.45098%,32.54902%,41.960784%);fill-opacity:1;stroke-width:0.75;stroke-linecap:round;stroke-linejoin:round;stroke:rgb(0%,0%,0%);stroke-opacity:1;stroke-miterlimit:10;" d="M 243.296875 142.878906 L 243.257813 142.675781 L 243.191406 142.476563 L 243.101563 142.289063 L 242.992188 142.113281 L 242.859375 141.953125 L 242.707031 141.8125 L 242.539063 141.691406 L 242.355469 141.589844 L 242.164063 141.511719 L 241.960938 141.460938 L 241.757813 141.433594 L 241.546875 141.433594 L 241.34375 141.460938 L 241.140625 141.511719 L 240.949219 141.589844 L 240.765625 141.691406 L 240.597656 141.8125 L 240.445313 141.953125 L 240.3125 142.113281 L 240.203125 142.289063 L 240.113281 142.476563 L 240.050781 142.675781 L 240.011719 142.878906 L 239.996094 143.085938 L 240.011719 143.296875 L 240.050781 143.5 L 240.113281 143.695313 L 240.203125 143.886719 L 240.3125 144.0625 L 240.445313 144.222656 L 240.597656 144.363281 L 240.765625 144.484375 L 240.949219 144.585938 L 241.140625 144.664063 L 241.34375 144.714844 L 241.546875 144.738281 L 241.757813 144.738281 L 241.960938 144.714844 L 242.164063 144.664063 L 242.355469 144.585938 L 242.539063 144.484375 L 242.707031 144.363281 L 242.859375 144.222656 L 242.992188 144.0625 L 243.101563 143.886719 L 243.191406 143.695313 L 243.257813 143.5 L 243.296875 143.296875 L 243.308594 143.085938 Z M 243.296875 142.878906 "/>
<path style="fill-rule:nonzero;fill:rgb(87.45098%,32.54902%,41.960784%);fill-opacity:1;stroke-width:0.75;stroke-linecap:round;stroke-linejoin:round;stroke:rgb(0%,0%,0%);stroke-opacity:1;stroke-miterlimit:10;" d="M 297.125 156.429688 L 297.085938 156.226563 L 297.023438 156.027344 L 296.933594 155.839844 L 296.824219 155.664063 L 296.691406 155.503906 L 296.539063 155.359375 L 296.371094 155.238281 L 296.1875 155.136719 L 295.996094 155.0625 L 295.792969 155.011719 L 295.589844 154.984375 L 295.378906 154.984375 L 295.175781 155.011719 L 294.972656 155.0625 L 294.78125 155.136719 L 294.597656 155.238281 L 294.429688 155.359375 L 294.277344 155.503906 L 294.144531 155.664063 L 294.035156 155.839844 L 293.945313 156.027344 L 293.878906 156.226563 L 293.839844 156.429688 L 293.828125 156.636719 L 293.839844 156.84375 L 293.878906 157.046875 L 293.945313 157.246094 L 294.035156 157.433594 L 294.144531 157.609375 L 294.277344 157.769531 L 294.429688 157.914063 L 294.597656 158.035156 L 294.78125 158.132813 L 294.972656 158.210938 L 295.175781 158.261719 L 295.378906 158.289063 L 295.589844 158.289063 L 295.792969 158.261719 L 295.996094 158.210938 L 296.1875 158.132813 L 296.371094 158.035156 L 296.539063 157.914063 L 296.691406 157.769531 L 296.824219 157.609375 L 296.933594 157.433594 L 297.023438 157.246094 L 297.085938 157.046875 L 297.125 156.84375 L 297.140625 156.636719 Z M 297.125 156.429688 "/>
<path style="fill-rule:nonzero;fill:rgb(87.45098%,32.54902%,41.960784%);fill-opacity:1;stroke-width:0.75;stroke-linecap:round;stroke-linejoin:round;stroke:rgb(0%,0%,0%);stroke-opacity:1;stroke-miterlimit:10;" d="M 278.726563 89.667969 L 278.6875 89.464844 L 278.625 89.265625 L 278.535156 89.078125 L 278.425781 88.902344 L 278.292969 88.742188 L 278.140625 88.601563 L 277.972656 88.480469 L 277.789063 88.378906 L 277.597656 88.300781 L 277.394531 88.25 L 277.191406 88.222656 L 276.980469 88.222656 L 276.777344 88.25 L 276.574219 88.300781 L 276.378906 88.378906 L 276.199219 88.480469 L 276.03125 88.601563 L 275.878906 88.742188 L 275.746094 88.902344 L 275.636719 89.078125 L 275.546875 89.265625 L 275.480469 89.464844 L 275.441406 89.667969 L 275.429688 89.875 L 275.441406 90.082031 L 275.480469 90.289063 L 275.546875 90.484375 L 275.636719 90.675781 L 275.746094 90.847656 L 275.878906 91.007813 L 276.03125 91.152344 L 276.199219 91.273438 L 276.378906 91.375 L 276.574219 91.449219 L 276.777344 91.503906 L 276.980469 91.527344 L 277.191406 91.527344 L 277.394531 91.503906 L 277.597656 91.449219 L 277.789063 91.375 L 277.972656 91.273438 L 278.140625 91.152344 L 278.292969 91.007813 L 278.425781 90.847656 L 278.535156 90.675781 L 278.625 90.484375 L 278.6875 90.289063 L 278.726563 90.082031 L 278.742188 89.875 Z M 278.726563 89.667969 "/>
<path style="fill-rule:nonzero;fill:rgb(87.45098%,32.54902%,41.960784%);fill-opacity:1;stroke-width:0.75;stroke-linecap:round;stroke-linejoin:round;stroke:rgb(0%,0%,0%);stroke-opacity:1;stroke-miterlimit:10;" d="M 242.738281 128.320313 L 242.699219 128.117188 L 242.632813 127.917969 L 242.546875 127.730469 L 242.433594 127.554688 L 242.300781 127.394531 L 242.152344 127.253906 L 241.984375 127.128906 L 241.800781 127.03125 L 241.605469 126.953125 L 241.40625 126.902344 L 241.199219 126.875 L 240.992188 126.875 L 240.785156 126.902344 L 240.582031 126.953125 L 240.390625 127.03125 L 240.207031 127.128906 L 240.039063 127.253906 L 239.886719 127.394531 L 239.757813 127.554688 L 239.644531 127.730469 L 239.554688 127.917969 L 239.492188 128.117188 L 239.453125 128.320313 L 239.441406 128.527344 L 239.453125 128.734375 L 239.492188 128.941406 L 239.554688 129.136719 L 239.644531 129.324219 L 239.757813 129.5 L 239.886719 129.660156 L 240.039063 129.804688 L 240.207031 129.925781 L 240.390625 130.027344 L 240.582031 130.101563 L 240.785156 130.15625 L 240.992188 130.179688 L 241.199219 130.179688 L 241.40625 130.15625 L 241.605469 130.101563 L 241.800781 130.027344 L 241.984375 129.925781 L 242.152344 129.804688 L 242.300781 129.660156 L 242.433594 129.5 L 242.546875 129.324219 L 242.632813 129.136719 L 242.699219 128.941406 L 242.738281 128.734375 L 242.75 128.527344 Z M 242.738281 128.320313 "/>
<path style="fill-rule:nonzero;fill:rgb(87.45098%,32.54902%,41.960784%);fill-opacity:1;stroke-width:0.75;stroke-linecap:round;stroke-linejoin:round;stroke:rgb(0%,0%,0%);stroke-opacity:1;stroke-miterlimit:10;" d="M 287.761719 123.285156 L 287.722656 123.082031 L 287.660156 122.882813 L 287.570313 122.695313 L 287.460938 122.519531 L 287.328125 122.359375 L 287.175781 122.21875 L 287.007813 122.09375 L 286.824219 121.996094 L 286.632813 121.917969 L 286.429688 121.867188 L 286.222656 121.839844 L 286.015625 121.839844 L 285.808594 121.867188 L 285.609375 121.917969 L 285.414063 121.996094 L 285.234375 122.09375 L 285.066406 122.21875 L 284.914063 122.359375 L 284.78125 122.519531 L 284.667969 122.695313 L 284.582031 122.882813 L 284.515625 123.082031 L 284.476563 123.285156 L 284.464844 123.492188 L 284.476563 123.699219 L 284.515625 123.902344 L 284.582031 124.101563 L 284.667969 124.289063 L 284.78125 124.464844 L 284.914063 124.625 L 285.066406 124.769531 L 285.234375 124.890625 L 285.414063 124.992188 L 285.609375 125.066406 L 285.808594 125.117188 L 286.015625 125.144531 L 286.222656 125.144531 L 286.429688 125.117188 L 286.632813 125.066406 L 286.824219 124.992188 L 287.007813 124.890625 L 287.175781 124.769531 L 287.328125 124.625 L 287.460938 124.464844 L 287.570313 124.289063 L 287.660156 124.101563 L 287.722656 123.902344 L 287.761719 123.699219 L 287.777344 123.492188 Z M 287.761719 123.285156 "/>
<path style="fill-rule:nonzero;fill:rgb(87.45098%,32.54902%,41.960784%);fill-opacity:1;stroke-width:0.75;stroke-linecap:round;stroke-linejoin:round;stroke:rgb(0%,0%,0%);stroke-opacity:1;stroke-miterlimit:10;" d="M 282.1875 125.722656 L 282.148438 125.519531 L 282.082031 125.320313 L 281.996094 125.132813 L 281.882813 124.957031 L 281.75 124.796875 L 281.601563 124.65625 L 281.433594 124.53125 L 281.25 124.433594 L 281.054688 124.355469 L 280.855469 124.304688 L 280.648438 124.277344 L 280.441406 124.277344 L 280.234375 124.304688 L 280.03125 124.355469 L 279.839844 124.433594 L 279.65625 124.53125 L 279.488281 124.65625 L 279.335938 124.796875 L 279.207031 124.957031 L 279.09375 125.132813 L 279.003906 125.320313 L 278.941406 125.519531 L 278.902344 125.722656 L 278.890625 125.929688 L 278.902344 126.136719 L 278.941406 126.339844 L 279.003906 126.539063 L 279.09375 126.726563 L 279.207031 126.902344 L 279.335938 127.0625 L 279.488281 127.207031 L 279.65625 127.328125 L 279.839844 127.429688 L 280.03125 127.503906 L 280.234375 127.554688 L 280.441406 127.582031 L 280.648438 127.582031 L 280.855469 127.554688 L 281.054688 127.503906 L 281.25 127.429688 L 281.433594 127.328125 L 281.601563 127.207031 L 281.75 127.0625 L 281.882813 126.902344 L 281.996094 126.726563 L 282.082031 126.539063 L 282.148438 126.339844 L 282.1875 126.136719 L 282.199219 125.929688 Z M 282.1875 125.722656 "/>
</g>
</svg>
