<?xml version="1.0" encoding="UTF-8"?>
<svg xmlns="http://www.w3.org/2000/svg" xmlns:xlink="http://www.w3.org/1999/xlink" width="504pt" height="182pt" viewBox="0 0 504 182" version="1.1">
<defs>
<g>
<symbol overflow="visible" id="glyph0-0">
<path style="stroke:none;" d="M 1.664063 0 L 1.664063 -7.5 L 7.664063 -7.5 L 7.664063 0 Z M 1.851563 -0.1875 L 7.476563 -0.1875 L 7.476563 -7.3125 L 1.851563 -7.3125 Z M 1.851563 -0.1875 "/>
</symbol>
<symbol overflow="visible" id="glyph0-1">
<path style="stroke:none;" d="M 2.46875 -4.257813 L 6.15625 -4.257813 L 6.15625 -6.53125 C 6.152344 -6.933594 6.128906 -7.203125 6.082031 -7.335938 C 6.042969 -7.433594 5.960938 -7.515625 5.835938 -7.585938 C 5.667969 -7.675781 5.488281 -7.722656 5.304688 -7.726563 L 5.023438 -7.726563 L 5.023438 -7.945313 L 8.421875 -7.945313 L 8.421875 -7.726563 L 8.140625 -7.726563 C 7.949219 -7.722656 7.773438 -7.679688 7.605469 -7.59375 C 7.480469 -7.53125 7.394531 -7.433594 7.347656 -7.308594 C 7.300781 -7.175781 7.277344 -6.917969 7.28125 -6.53125 L 7.28125 -1.40625 C 7.277344 -1.003906 7.304688 -0.738281 7.359375 -0.609375 C 7.398438 -0.507813 7.476563 -0.421875 7.601563 -0.359375 C 7.769531 -0.261719 7.949219 -0.214844 8.140625 -0.21875 L 8.421875 -0.21875 L 8.421875 0 L 5.023438 0 L 5.023438 -0.21875 L 5.304688 -0.21875 C 5.625 -0.214844 5.863281 -0.3125 6.011719 -0.503906 C 6.105469 -0.628906 6.152344 -0.929688 6.15625 -1.40625 L 6.15625 -3.828125 L 2.46875 -3.828125 L 2.46875 -1.40625 C 2.464844 -1.003906 2.492188 -0.738281 2.542969 -0.609375 C 2.582031 -0.507813 2.664063 -0.421875 2.789063 -0.359375 C 2.953125 -0.261719 3.128906 -0.214844 3.320313 -0.21875 L 3.609375 -0.21875 L 3.609375 0 L 0.203125 0 L 0.203125 -0.21875 L 0.484375 -0.21875 C 0.808594 -0.214844 1.046875 -0.3125 1.203125 -0.503906 C 1.292969 -0.628906 1.339844 -0.929688 1.34375 -1.40625 L 1.34375 -6.53125 C 1.339844 -6.933594 1.316406 -7.203125 1.265625 -7.335938 C 1.226563 -7.433594 1.144531 -7.515625 1.023438 -7.585938 C 0.847656 -7.675781 0.667969 -7.722656 0.484375 -7.726563 L 0.203125 -7.726563 L 0.203125 -7.945313 L 3.609375 -7.945313 L 3.609375 -7.726563 L 3.320313 -7.726563 C 3.128906 -7.722656 2.953125 -7.679688 2.789063 -7.59375 C 2.667969 -7.53125 2.582031 -7.433594 2.539063 -7.308594 C 2.488281 -7.175781 2.464844 -6.917969 2.46875 -6.53125 Z M 2.46875 -4.257813 "/>
</symbol>
<symbol overflow="visible" id="glyph0-2">
<path style="stroke:none;" d="M 5.5 -1.53125 L 4.945313 0 L 0.257813 0 L 0.257813 -0.21875 C 1.636719 -1.46875 2.605469 -2.496094 3.171875 -3.296875 C 3.730469 -4.089844 4.011719 -4.820313 4.015625 -5.484375 C 4.011719 -5.988281 3.859375 -6.402344 3.550781 -6.726563 C 3.238281 -7.046875 2.867188 -7.207031 2.445313 -7.210938 C 2.050781 -7.207031 1.699219 -7.09375 1.390625 -6.867188 C 1.078125 -6.640625 0.851563 -6.304688 0.703125 -5.867188 L 0.484375 -5.867188 C 0.582031 -6.585938 0.832031 -7.140625 1.238281 -7.527344 C 1.636719 -7.914063 2.144531 -8.109375 2.753906 -8.109375 C 3.394531 -8.109375 3.929688 -7.902344 4.367188 -7.488281 C 4.796875 -7.074219 5.015625 -6.585938 5.015625 -6.023438 C 5.015625 -5.621094 4.921875 -5.21875 4.734375 -4.816406 C 4.445313 -4.183594 3.976563 -3.511719 3.328125 -2.804688 C 2.351563 -1.738281 1.742188 -1.097656 1.507813 -0.882813 L 3.578125 -0.882813 C 3.996094 -0.878906 4.292969 -0.894531 4.464844 -0.929688 C 4.636719 -0.957031 4.789063 -1.019531 4.925781 -1.121094 C 5.0625 -1.214844 5.183594 -1.351563 5.285156 -1.53125 Z M 5.5 -1.53125 "/>
</symbol>
<symbol overflow="visible" id="glyph0-3">
<path style="stroke:none;" d="M 0.609375 -6.433594 C 0.835938 -6.964844 1.121094 -7.375 1.464844 -7.671875 C 1.808594 -7.960938 2.238281 -8.109375 2.757813 -8.109375 C 3.394531 -8.109375 3.882813 -7.902344 4.226563 -7.488281 C 4.476563 -7.175781 4.605469 -6.84375 4.609375 -6.5 C 4.605469 -5.917969 4.242188 -5.320313 3.523438 -4.703125 C 4.007813 -4.511719 4.378906 -4.238281 4.628906 -3.882813 C 4.878906 -3.527344 5.003906 -3.109375 5.003906 -2.632813 C 5.003906 -1.941406 4.785156 -1.347656 4.347656 -0.84375 C 3.777344 -0.1875 2.949219 0.140625 1.867188 0.140625 C 1.332031 0.140625 0.96875 0.0742188 0.773438 -0.0585938 C 0.578125 -0.191406 0.480469 -0.332031 0.484375 -0.484375 C 0.480469 -0.597656 0.527344 -0.699219 0.621094 -0.785156 C 0.714844 -0.871094 0.824219 -0.914063 0.953125 -0.914063 C 1.050781 -0.914063 1.152344 -0.898438 1.253906 -0.867188 C 1.316406 -0.84375 1.464844 -0.769531 1.703125 -0.652344 C 1.933594 -0.527344 2.097656 -0.457031 2.191406 -0.433594 C 2.332031 -0.386719 2.484375 -0.363281 2.65625 -0.367188 C 3.046875 -0.363281 3.394531 -0.519531 3.691406 -0.832031 C 3.988281 -1.140625 4.136719 -1.503906 4.136719 -1.929688 C 4.136719 -2.234375 4.066406 -2.535156 3.929688 -2.828125 C 3.828125 -3.042969 3.71875 -3.210938 3.597656 -3.328125 C 3.425781 -3.484375 3.195313 -3.625 2.90625 -3.753906 C 2.613281 -3.878906 2.3125 -3.941406 2.007813 -3.945313 L 1.820313 -3.945313 L 1.820313 -4.117188 C 2.128906 -4.15625 2.4375 -4.269531 2.75 -4.453125 C 3.058594 -4.632813 3.285156 -4.851563 3.429688 -5.113281 C 3.566406 -5.367188 3.636719 -5.652344 3.640625 -5.964844 C 3.636719 -6.367188 3.511719 -6.691406 3.261719 -6.941406 C 3.007813 -7.1875 2.695313 -7.3125 2.320313 -7.3125 C 1.714844 -7.3125 1.207031 -6.988281 0.804688 -6.339844 Z M 0.609375 -6.433594 "/>
</symbol>
<symbol overflow="visible" id="glyph0-4">
<path style="stroke:none;" d="M 5.585938 -2.929688 L 5.585938 -2.097656 L 4.515625 -2.097656 L 4.515625 0 L 3.550781 0 L 3.550781 -2.097656 L 0.1875 -2.097656 L 0.1875 -2.847656 L 3.875 -8.109375 L 4.515625 -8.109375 L 4.515625 -2.929688 Z M 3.550781 -2.929688 L 3.550781 -6.875 L 0.761719 -2.929688 Z M 3.550781 -2.929688 "/>
</symbol>
<symbol overflow="visible" id="glyph0-5">
<path style="stroke:none;" d="M 5.210938 -7.945313 L 4.75 -6.949219 L 2.359375 -6.949219 L 1.839844 -5.882813 C 2.871094 -5.730469 3.691406 -5.34375 4.300781 -4.726563 C 4.816406 -4.191406 5.074219 -3.566406 5.078125 -2.851563 C 5.074219 -2.433594 4.988281 -2.046875 4.824219 -1.691406 C 4.652344 -1.335938 4.441406 -1.035156 4.183594 -0.785156 C 3.925781 -0.535156 3.636719 -0.332031 3.320313 -0.179688 C 2.871094 0.0351563 2.410156 0.140625 1.9375 0.140625 C 1.460938 0.140625 1.113281 0.0625 0.898438 -0.101563 C 0.679688 -0.257813 0.574219 -0.4375 0.574219 -0.640625 C 0.574219 -0.746094 0.617188 -0.84375 0.707031 -0.929688 C 0.796875 -1.011719 0.910156 -1.054688 1.046875 -1.054688 C 1.148438 -1.054688 1.238281 -1.039063 1.316406 -1.007813 C 1.390625 -0.976563 1.519531 -0.894531 1.703125 -0.765625 C 1.996094 -0.558594 2.292969 -0.457031 2.59375 -0.460938 C 3.050781 -0.457031 3.453125 -0.628906 3.800781 -0.980469 C 4.144531 -1.324219 4.316406 -1.746094 4.320313 -2.242188 C 4.316406 -2.722656 4.164063 -3.171875 3.855469 -3.585938 C 3.542969 -4 3.117188 -4.320313 2.578125 -4.554688 C 2.148438 -4.726563 1.566406 -4.828125 0.835938 -4.859375 L 2.359375 -7.945313 Z M 5.210938 -7.945313 "/>
</symbol>
<symbol overflow="visible" id="glyph0-6">
<path style="stroke:none;" d="M 5.378906 -8.109375 L 5.378906 -7.890625 C 4.863281 -7.839844 4.441406 -7.738281 4.113281 -7.582031 C 3.785156 -7.425781 3.460938 -7.191406 3.148438 -6.878906 C 2.828125 -6.5625 2.566406 -6.207031 2.359375 -5.820313 C 2.148438 -5.429688 1.972656 -4.96875 1.835938 -4.4375 C 2.394531 -4.820313 2.960938 -5.015625 3.527344 -5.015625 C 4.070313 -5.015625 4.539063 -4.796875 4.941406 -4.359375 C 5.335938 -3.921875 5.535156 -3.359375 5.539063 -2.671875 C 5.535156 -2.007813 5.335938 -1.402344 4.933594 -0.855469 C 4.449219 -0.191406 3.808594 0.140625 3.011719 0.140625 C 2.464844 0.140625 2.003906 -0.0390625 1.628906 -0.398438 C 0.886719 -1.09375 0.515625 -2 0.515625 -3.117188 C 0.515625 -3.828125 0.65625 -4.503906 0.941406 -5.144531 C 1.226563 -5.785156 1.632813 -6.351563 2.164063 -6.847656 C 2.691406 -7.34375 3.199219 -7.679688 3.6875 -7.851563 C 4.167969 -8.023438 4.621094 -8.109375 5.039063 -8.109375 Z M 1.734375 -4.007813 C 1.664063 -3.480469 1.628906 -3.054688 1.628906 -2.730469 C 1.628906 -2.355469 1.695313 -1.945313 1.835938 -1.507813 C 1.972656 -1.066406 2.179688 -0.71875 2.453125 -0.460938 C 2.652344 -0.277344 2.894531 -0.1875 3.179688 -0.1875 C 3.519531 -0.1875 3.824219 -0.347656 4.089844 -0.667969 C 4.355469 -0.988281 4.488281 -1.445313 4.492188 -2.039063 C 4.488281 -2.703125 4.355469 -3.28125 4.09375 -3.773438 C 3.824219 -4.261719 3.449219 -4.503906 2.964844 -4.507813 C 2.816406 -4.503906 2.65625 -4.472656 2.488281 -4.414063 C 2.316406 -4.347656 2.066406 -4.214844 1.734375 -4.007813 Z M 1.734375 -4.007813 "/>
</symbol>
<symbol overflow="visible" id="glyph0-7">
<path style="stroke:none;" d="M 1.207031 -7.945313 L 5.46875 -7.945313 L 5.46875 -7.722656 L 2.820313 0.164063 L 2.164063 0.164063 L 4.535156 -6.992188 L 2.351563 -6.992188 C 1.90625 -6.988281 1.59375 -6.9375 1.40625 -6.832031 C 1.078125 -6.652344 0.8125 -6.375 0.617188 -6 L 0.445313 -6.0625 Z M 1.207031 -7.945313 "/>
</symbol>
<symbol overflow="visible" id="glyph0-8">
<path style="stroke:none;" d="M 2.304688 -4 C 1.671875 -4.511719 1.265625 -4.925781 1.085938 -5.242188 C 0.898438 -5.550781 0.808594 -5.875 0.8125 -6.21875 C 0.808594 -6.730469 1.007813 -7.175781 1.410156 -7.550781 C 1.804688 -7.921875 2.335938 -8.109375 3 -8.109375 C 3.640625 -8.109375 4.15625 -7.933594 4.546875 -7.585938 C 4.9375 -7.238281 5.132813 -6.84375 5.132813 -6.398438 C 5.132813 -6.101563 5.027344 -5.796875 4.816406 -5.488281 C 4.605469 -5.179688 4.164063 -4.816406 3.5 -4.398438 C 4.183594 -3.863281 4.640625 -3.445313 4.863281 -3.148438 C 5.160156 -2.742188 5.308594 -2.324219 5.308594 -1.886719 C 5.308594 -1.324219 5.09375 -0.84375 4.667969 -0.453125 C 4.242188 -0.0546875 3.683594 0.140625 2.992188 0.140625 C 2.238281 0.140625 1.652344 -0.09375 1.230469 -0.570313 C 0.894531 -0.945313 0.726563 -1.359375 0.726563 -1.8125 C 0.726563 -2.15625 0.84375 -2.503906 1.082031 -2.855469 C 1.316406 -3.199219 1.722656 -3.582031 2.304688 -4 Z M 3.222656 -4.628906 C 3.691406 -5.050781 3.988281 -5.382813 4.113281 -5.625 C 4.238281 -5.867188 4.300781 -6.144531 4.300781 -6.457031 C 4.300781 -6.863281 4.183594 -7.183594 3.953125 -7.417969 C 3.722656 -7.652344 3.410156 -7.769531 3.011719 -7.769531 C 2.613281 -7.769531 2.289063 -7.652344 2.039063 -7.421875 C 1.789063 -7.191406 1.664063 -6.921875 1.664063 -6.617188 C 1.664063 -6.410156 1.714844 -6.207031 1.820313 -6.007813 C 1.921875 -5.800781 2.070313 -5.609375 2.261719 -5.425781 Z M 2.578125 -3.78125 C 2.253906 -3.5 2.011719 -3.203125 1.859375 -2.882813 C 1.699219 -2.5625 1.621094 -2.214844 1.625 -1.839844 C 1.621094 -1.335938 1.757813 -0.929688 2.035156 -0.628906 C 2.308594 -0.324219 2.660156 -0.175781 3.085938 -0.175781 C 3.503906 -0.175781 3.84375 -0.292969 4.101563 -0.53125 C 4.355469 -0.769531 4.480469 -1.058594 4.484375 -1.398438 C 4.480469 -1.675781 4.40625 -1.929688 4.257813 -2.15625 C 3.980469 -2.570313 3.421875 -3.109375 2.578125 -3.78125 Z M 2.578125 -3.78125 "/>
</symbol>
<symbol overflow="visible" id="glyph0-9">
<path style="stroke:none;" d="M 0.632813 0.164063 L 0.632813 -0.0546875 C 1.140625 -0.0546875 1.613281 -0.171875 2.050781 -0.40625 C 2.488281 -0.632813 2.910156 -1.035156 3.316406 -1.605469 C 3.722656 -2.175781 4.007813 -2.800781 4.171875 -3.484375 C 3.554688 -3.089844 3 -2.894531 2.507813 -2.894531 C 1.949219 -2.894531 1.46875 -3.109375 1.074219 -3.539063 C 0.671875 -3.96875 0.472656 -4.542969 0.476563 -5.261719 C 0.472656 -5.957031 0.671875 -6.574219 1.070313 -7.117188 C 1.550781 -7.777344 2.179688 -8.109375 2.953125 -8.109375 C 3.601563 -8.109375 4.160156 -7.839844 4.628906 -7.300781 C 5.199219 -6.628906 5.484375 -5.804688 5.484375 -4.828125 C 5.484375 -3.945313 5.265625 -3.121094 4.832031 -2.355469 C 4.398438 -1.589844 3.796875 -0.957031 3.023438 -0.457031 C 2.390625 -0.0429688 1.703125 0.164063 0.96875 0.164063 Z M 4.265625 -3.921875 C 4.335938 -4.421875 4.371094 -4.828125 4.371094 -5.140625 C 4.371094 -5.515625 4.304688 -5.925781 4.175781 -6.363281 C 4.046875 -6.800781 3.863281 -7.136719 3.628906 -7.375 C 3.386719 -7.605469 3.121094 -7.722656 2.824219 -7.726563 C 2.476563 -7.722656 2.171875 -7.566406 1.910156 -7.257813 C 1.644531 -6.941406 1.511719 -6.476563 1.515625 -5.867188 C 1.511719 -5.039063 1.6875 -4.394531 2.039063 -3.929688 C 2.292969 -3.59375 2.605469 -3.425781 2.976563 -3.429688 C 3.15625 -3.425781 3.367188 -3.46875 3.613281 -3.558594 C 3.859375 -3.640625 4.078125 -3.761719 4.265625 -3.921875 Z M 4.265625 -3.921875 "/>
</symbol>
<symbol overflow="visible" id="glyph0-10">
<path style="stroke:none;" d="M 1.40625 -7.164063 L 3.339844 -8.109375 L 3.53125 -8.109375 L 3.53125 -1.398438 C 3.527344 -0.953125 3.546875 -0.675781 3.585938 -0.570313 C 3.625 -0.457031 3.703125 -0.375 3.820313 -0.316406 C 3.9375 -0.253906 4.175781 -0.21875 4.535156 -0.21875 L 4.535156 0 L 1.546875 0 L 1.546875 -0.21875 C 1.921875 -0.21875 2.164063 -0.25 2.273438 -0.3125 C 2.382813 -0.367188 2.457031 -0.445313 2.5 -0.542969 C 2.542969 -0.636719 2.566406 -0.921875 2.566406 -1.398438 L 2.566406 -5.6875 C 2.566406 -6.261719 2.546875 -6.632813 2.507813 -6.804688 C 2.480469 -6.925781 2.429688 -7.019531 2.359375 -7.078125 C 2.285156 -7.132813 2.199219 -7.160156 2.097656 -7.164063 C 1.953125 -7.160156 1.75 -7.101563 1.492188 -6.984375 Z M 1.40625 -7.164063 "/>
</symbol>
<symbol overflow="visible" id="glyph0-11">
<path style="stroke:none;" d="M 0.433594 -3.925781 C 0.433594 -4.832031 0.570313 -5.609375 0.84375 -6.265625 C 1.117188 -6.917969 1.480469 -7.40625 1.933594 -7.726563 C 2.285156 -7.980469 2.648438 -8.109375 3.023438 -8.109375 C 3.632813 -8.109375 4.179688 -7.796875 4.664063 -7.179688 C 5.265625 -6.40625 5.566406 -5.363281 5.570313 -4.046875 C 5.566406 -3.121094 5.433594 -2.339844 5.171875 -1.699219 C 4.902344 -1.054688 4.5625 -0.585938 4.15625 -0.296875 C 3.742188 -0.00390625 3.347656 0.140625 2.964844 0.140625 C 2.207031 0.140625 1.574219 -0.304688 1.070313 -1.203125 C 0.644531 -1.953125 0.433594 -2.863281 0.433594 -3.925781 Z M 1.582031 -3.78125 C 1.582031 -2.683594 1.714844 -1.792969 1.984375 -1.101563 C 2.207031 -0.515625 2.539063 -0.222656 2.984375 -0.226563 C 3.1875 -0.222656 3.40625 -0.316406 3.636719 -0.511719 C 3.859375 -0.699219 4.03125 -1.019531 4.15625 -1.464844 C 4.328125 -2.136719 4.417969 -3.082031 4.421875 -4.304688 C 4.417969 -5.207031 4.324219 -5.964844 4.140625 -6.574219 C 3.996094 -7.023438 3.816406 -7.339844 3.597656 -7.53125 C 3.4375 -7.65625 3.242188 -7.722656 3.015625 -7.722656 C 2.746094 -7.722656 2.511719 -7.601563 2.308594 -7.367188 C 2.027344 -7.039063 1.835938 -6.53125 1.734375 -5.835938 C 1.632813 -5.140625 1.582031 -4.453125 1.582031 -3.78125 Z M 1.582031 -3.78125 "/>
</symbol>
<symbol overflow="visible" id="glyph0-12">
<path style="stroke:none;" d="M 5.492188 -2.660156 L 2.414063 -2.660156 L 1.875 -1.40625 C 1.742188 -1.097656 1.675781 -0.867188 1.675781 -0.714844 C 1.675781 -0.589844 1.730469 -0.480469 1.847656 -0.394531 C 1.960938 -0.300781 2.210938 -0.242188 2.59375 -0.21875 L 2.59375 0 L 0.09375 0 L 0.09375 -0.21875 C 0.425781 -0.273438 0.640625 -0.351563 0.738281 -0.445313 C 0.9375 -0.632813 1.15625 -1.011719 1.398438 -1.585938 L 4.195313 -8.125 L 4.398438 -8.125 L 7.164063 -1.515625 C 7.386719 -0.980469 7.589844 -0.636719 7.773438 -0.480469 C 7.953125 -0.324219 8.207031 -0.234375 8.53125 -0.21875 L 8.53125 0 L 5.398438 0 L 5.398438 -0.21875 C 5.710938 -0.230469 5.925781 -0.285156 6.035156 -0.375 C 6.144531 -0.460938 6.199219 -0.570313 6.203125 -0.703125 C 6.199219 -0.875 6.121094 -1.144531 5.96875 -1.515625 Z M 5.328125 -3.09375 L 3.976563 -6.304688 L 2.59375 -3.09375 Z M 5.328125 -3.09375 "/>
</symbol>
</g>
</defs>
<g id="surface149">
<rect x="0" y="0" width="504" height="182" style="fill:rgb(100%,100%,100%);fill-opacity:1;stroke:none;"/>
<path style="fill:none;stroke-width:0.75;stroke-linecap:round;stroke-linejoin:round;stroke:rgb(66.27451%,66.27451%,66.27451%);stroke-opacity:1;stroke-miterlimit:10;" d="M 254.679688 70.335938 L 265.050781 77.074219 "/>
<path style="fill:none;stroke-width:0.75;stroke-linecap:round;stroke-linejoin:round;stroke:rgb(66.27451%,66.27451%,66.27451%);stroke-opacity:1;stroke-miterlimit:10;" d="M 250.902344 72.886719 L 254.019531 88.929688 "/>
<path style="fill:none;stroke-width:0.75;stroke-linecap:round;stroke-linejoin:round;stroke:rgb(66.27451%,66.27451%,66.27451%);stroke-opacity:1;stroke-miterlimit:10;" d="M 255.550781 68.054688 L 285.253906 72.652344 "/>
<path style="fill:none;stroke-width:0.75;stroke-linecap:round;stroke-linejoin:round;stroke:rgb(66.27451%,66.27451%,66.27451%);stroke-opacity:1;stroke-miterlimit:10;" d="M 249.988281 61.332031 L 250.527344 45.75 "/>
<path style="fill:none;stroke-width:0.75;stroke-linecap:round;stroke-linejoin:round;stroke:rgb(66.27451%,66.27451%,66.27451%);stroke-opacity:1;stroke-miterlimit:10;" d="M 245.449219 63.261719 L 216.828125 37.539063 "/>
<path style="fill:none;stroke-width:0.75;stroke-linecap:round;stroke-linejoin:round;stroke:rgb(66.27451%,66.27451%,66.27451%);stroke-opacity:1;stroke-miterlimit:10;" d="M 246.34375 62.453125 L 229.023438 38.773438 "/>
<path style="fill:none;stroke-width:0.75;stroke-linecap:round;stroke-linejoin:round;stroke:rgb(66.27451%,66.27451%,66.27451%);stroke-opacity:1;stroke-miterlimit:10;" d="M 255.285156 69.105469 L 284.496094 79.449219 "/>
<path style="fill:none;stroke-width:0.75;stroke-linecap:round;stroke-linejoin:round;stroke:rgb(66.27451%,66.27451%,66.27451%);stroke-opacity:1;stroke-miterlimit:10;" d="M 251.796875 72.636719 L 262.929688 103.023438 "/>
<path style="fill:none;stroke-width:0.75;stroke-linecap:round;stroke-linejoin:round;stroke:rgb(66.27451%,66.27451%,66.27451%);stroke-opacity:1;stroke-miterlimit:10;" d="M 249.351563 61.34375 L 247.390625 35.214844 "/>
<path style="fill:none;stroke-width:0.75;stroke-linecap:round;stroke-linejoin:round;stroke:rgb(66.27451%,66.27451%,66.27451%);stroke-opacity:1;stroke-miterlimit:10;" d="M 244.121094 65.789063 L 200.6875 55.269531 "/>
<path style="fill:none;stroke-width:0.75;stroke-linecap:round;stroke-linejoin:round;stroke:rgb(66.27451%,66.27451%,66.27451%);stroke-opacity:1;stroke-miterlimit:10;" d="M 255.585938 66.539063 L 323.960938 59.21875 "/>
<path style="fill:none;stroke-width:0.75;stroke-linecap:round;stroke-linejoin:round;stroke:rgb(66.27451%,66.27451%,66.27451%);stroke-opacity:1;stroke-miterlimit:10;" d="M 253.632813 71.546875 L 268.765625 88.824219 "/>
<path style="fill:none;stroke-width:0.75;stroke-linecap:round;stroke-linejoin:round;stroke:rgb(66.27451%,66.27451%,66.27451%);stroke-opacity:1;stroke-miterlimit:10;" d="M 255.074219 64.695313 L 291.648438 47.652344 "/>
<path style="fill:none;stroke-width:0.75;stroke-linecap:round;stroke-linejoin:round;stroke:rgb(66.27451%,66.27451%,66.27451%);stroke-opacity:1;stroke-miterlimit:10;" d="M 245.152344 70.699219 L 230.035156 82.25 "/>
<path style="fill:none;stroke-width:0.75;stroke-linecap:round;stroke-linejoin:round;stroke:rgb(66.27451%,66.27451%,66.27451%);stroke-opacity:1;stroke-miterlimit:10;" d="M 255.304688 65.269531 L 279.457031 56.996094 "/>
<path style="fill:none;stroke-width:0.75;stroke-linecap:round;stroke-linejoin:round;stroke:rgb(66.27451%,66.27451%,66.27451%);stroke-opacity:1;stroke-miterlimit:10;" d="M 247.539063 72.542969 L 230.296875 113.808594 "/>
<path style="fill:none;stroke-width:0.75;stroke-linecap:round;stroke-linejoin:round;stroke:rgb(66.27451%,66.27451%,66.27451%);stroke-opacity:1;stroke-miterlimit:10;" d="M 265.761719 84.320313 L 259.3125 90.589844 "/>
<path style="fill:none;stroke-width:0.75;stroke-linecap:round;stroke-linejoin:round;stroke:rgb(66.27451%,66.27451%,66.27451%);stroke-opacity:1;stroke-miterlimit:10;" d="M 275.5 78.484375 L 285.460938 75.3125 "/>
<path style="fill:none;stroke-width:0.75;stroke-linecap:round;stroke-linejoin:round;stroke:rgb(66.27451%,66.27451%,66.27451%);stroke-opacity:1;stroke-miterlimit:10;" d="M 275.765625 80.582031 L 284.171875 81.0625 "/>
<path style="fill:none;stroke-width:0.75;stroke-linecap:round;stroke-linejoin:round;stroke:rgb(66.27451%,66.27451%,66.27451%);stroke-opacity:1;stroke-miterlimit:10;" d="M 271.117188 85.964844 L 271.433594 87.5 "/>
<path style="fill:none;stroke-width:0.75;stroke-linecap:round;stroke-linejoin:round;stroke:rgb(66.27451%,66.27451%,66.27451%);stroke-opacity:1;stroke-miterlimit:10;" d="M 273.5 75.632813 L 293.375 49.808594 "/>
<path style="fill:none;stroke-width:0.75;stroke-linecap:round;stroke-linejoin:round;stroke:rgb(66.27451%,66.27451%,66.27451%);stroke-opacity:1;stroke-miterlimit:10;" d="M 264.15625 80.972656 L 231.1875 85.070313 "/>
<path style="fill:none;stroke-width:0.75;stroke-linecap:round;stroke-linejoin:round;stroke:rgb(66.27451%,66.27451%,66.27451%);stroke-opacity:1;stroke-miterlimit:10;" d="M 272.933594 75.246094 L 281.984375 60.113281 "/>
<path style="fill:none;stroke-width:0.75;stroke-linecap:round;stroke-linejoin:round;stroke:rgb(66.27451%,66.27451%,66.27451%);stroke-opacity:1;stroke-miterlimit:10;" d="M 272.683594 85.398438 L 285.410156 109.277344 "/>
<path style="fill:none;stroke-width:0.75;stroke-linecap:round;stroke-linejoin:round;stroke:rgb(66.27451%,66.27451%,66.27451%);stroke-opacity:1;stroke-miterlimit:10;" d="M 260.160156 91.699219 L 285.992188 76.503906 "/>
<path style="fill:none;stroke-width:0.75;stroke-linecap:round;stroke-linejoin:round;stroke:rgb(66.27451%,66.27451%,66.27451%);stroke-opacity:1;stroke-miterlimit:10;" d="M 260.582031 92.582031 L 284.542969 83.46875 "/>
<path style="fill:none;stroke-width:0.75;stroke-linecap:round;stroke-linejoin:round;stroke:rgb(66.27451%,66.27451%,66.27451%);stroke-opacity:1;stroke-miterlimit:10;" d="M 258.503906 99.414063 L 261.566406 103.738281 "/>
<path style="fill:none;stroke-width:0.75;stroke-linecap:round;stroke-linejoin:round;stroke:rgb(66.27451%,66.27451%,66.27451%);stroke-opacity:1;stroke-miterlimit:10;" d="M 249.628906 96.585938 L 195.339844 115.617188 "/>
<path style="fill:none;stroke-width:0.75;stroke-linecap:round;stroke-linejoin:round;stroke:rgb(66.27451%,66.27451%,66.27451%);stroke-opacity:1;stroke-miterlimit:10;" d="M 260.945313 94.175781 L 266.796875 93.691406 "/>
<path style="fill:none;stroke-width:0.75;stroke-linecap:round;stroke-linejoin:round;stroke:rgb(66.27451%,66.27451%,66.27451%);stroke-opacity:1;stroke-miterlimit:10;" d="M 250.941406 98.710938 L 224.089844 124.691406 "/>
<path style="fill:none;stroke-width:0.75;stroke-linecap:round;stroke-linejoin:round;stroke:rgb(66.27451%,66.27451%,66.27451%);stroke-opacity:1;stroke-miterlimit:10;" d="M 249.652344 96.648438 L 221.449219 106.914063 "/>
<path style="fill:none;stroke-width:0.75;stroke-linecap:round;stroke-linejoin:round;stroke:rgb(66.27451%,66.27451%,66.27451%);stroke-opacity:1;stroke-miterlimit:10;" d="M 257.390625 100.03125 L 269.507813 128.910156 "/>
<path style="fill:none;stroke-width:0.75;stroke-linecap:round;stroke-linejoin:round;stroke:rgb(66.27451%,66.27451%,66.27451%);stroke-opacity:1;stroke-miterlimit:10;" d="M 290.265625 79.328125 L 290.75 75.609375 "/>
<path style="fill:none;stroke-width:0.75;stroke-linecap:round;stroke-linejoin:round;stroke:rgb(66.27451%,66.27451%,66.27451%);stroke-opacity:1;stroke-miterlimit:10;" d="M 296.460938 71.445313 L 324.320313 60.695313 "/>
<path style="fill:none;stroke-width:0.75;stroke-linecap:round;stroke-linejoin:round;stroke:rgb(66.27451%,66.27451%,66.27451%);stroke-opacity:1;stroke-miterlimit:10;" d="M 287.035156 77.804688 L 276.59375 88.953125 "/>
<path style="fill:none;stroke-width:0.75;stroke-linecap:round;stroke-linejoin:round;stroke:rgb(66.27451%,66.27451%,66.27451%);stroke-opacity:1;stroke-miterlimit:10;" d="M 245.046875 38.601563 L 231.261719 35.390625 "/>
<path style="fill:none;stroke-width:0.75;stroke-linecap:round;stroke-linejoin:round;stroke:rgb(66.27451%,66.27451%,66.27451%);stroke-opacity:1;stroke-miterlimit:10;" d="M 248.757813 34.433594 L 248.921875 34.890625 "/>
<path style="fill:none;stroke-width:0.75;stroke-linecap:round;stroke-linejoin:round;stroke:rgb(66.27451%,66.27451%,66.27451%);stroke-opacity:1;stroke-miterlimit:10;" d="M 218.320313 33.832031 L 219.753906 33.878906 "/>
<path style="fill:none;stroke-width:0.75;stroke-linecap:round;stroke-linejoin:round;stroke:rgb(66.27451%,66.27451%,66.27451%);stroke-opacity:1;stroke-miterlimit:10;" d="M 218.28125 32.929688 L 241.167969 30.113281 "/>
<path style="fill:none;stroke-width:0.75;stroke-linecap:round;stroke-linejoin:round;stroke:rgb(66.27451%,66.27451%,66.27451%);stroke-opacity:1;stroke-miterlimit:10;" d="M 209.617188 28.570313 L 203.800781 18.3125 "/>
<path style="fill:none;stroke-width:0.75;stroke-linecap:round;stroke-linejoin:round;stroke:rgb(66.27451%,66.27451%,66.27451%);stroke-opacity:1;stroke-miterlimit:10;" d="M 221.125 30.300781 L 205.378906 17.003906 "/>
<path style="fill:none;stroke-width:0.75;stroke-linecap:round;stroke-linejoin:round;stroke:rgb(66.27451%,66.27451%,66.27451%);stroke-opacity:1;stroke-miterlimit:10;" d="M 270.585938 109.941406 L 282.503906 112.984375 "/>
<path style="fill:none;stroke-width:0.75;stroke-linecap:round;stroke-linejoin:round;stroke:rgb(66.27451%,66.27451%,66.27451%);stroke-opacity:1;stroke-miterlimit:10;" d="M 266.429688 114.136719 L 270.269531 128.652344 "/>
<path style="fill:none;stroke-width:0.75;stroke-linecap:round;stroke-linejoin:round;stroke:rgb(66.27451%,66.27451%,66.27451%);stroke-opacity:1;stroke-miterlimit:10;" d="M 262.945313 113.980469 L 258.796875 125.414063 "/>
<path style="fill:none;stroke-width:0.75;stroke-linecap:round;stroke-linejoin:round;stroke:rgb(66.27451%,66.27451%,66.27451%);stroke-opacity:1;stroke-miterlimit:10;" d="M 195.554688 118.6875 L 251.085938 129.753906 "/>
<path style="fill:none;stroke-width:0.75;stroke-linecap:round;stroke-linejoin:round;stroke:rgb(66.27451%,66.27451%,66.27451%);stroke-opacity:1;stroke-miterlimit:10;" d="M 270.355469 98.589844 L 259.0625 125.515625 "/>
<path style="fill:none;stroke-width:0.75;stroke-linecap:round;stroke-linejoin:round;stroke:rgb(66.27451%,66.27451%,66.27451%);stroke-opacity:1;stroke-miterlimit:10;" d="M 312.246094 137.628906 L 277.574219 134.769531 "/>
<path style="fill:none;stroke-width:0.75;stroke-linecap:round;stroke-linejoin:round;stroke:rgb(66.27451%,66.27451%,66.27451%);stroke-opacity:1;stroke-miterlimit:10;" d="M 312.265625 137.425781 L 262.597656 131.578125 "/>
<path style="fill:none;stroke-width:0.75;stroke-linecap:round;stroke-linejoin:round;stroke:rgb(66.27451%,66.27451%,66.27451%);stroke-opacity:1;stroke-miterlimit:10;" d="M 287.617188 142.570313 L 276.933594 136.988281 "/>
<path style="fill:none;stroke-width:0.75;stroke-linecap:round;stroke-linejoin:round;stroke:rgb(66.27451%,66.27451%,66.27451%);stroke-opacity:1;stroke-miterlimit:10;" d="M 287.371094 143.105469 L 262.222656 133.058594 "/>
<path style="fill:none;stroke-width:0.75;stroke-linecap:round;stroke-linejoin:round;stroke:rgb(66.27451%,66.27451%,66.27451%);stroke-opacity:1;stroke-miterlimit:10;" d="M 234.277344 160.414063 L 266.976563 137.625 "/>
<path style="fill:none;stroke-width:0.75;stroke-linecap:round;stroke-linejoin:round;stroke:rgb(66.27451%,66.27451%,66.27451%);stroke-opacity:1;stroke-miterlimit:10;" d="M 233.222656 159.261719 L 253.078125 135.378906 "/>
<path style="fill:none;stroke-width:0.75;stroke-linecap:round;stroke-linejoin:round;stroke:rgb(66.27451%,66.27451%,66.27451%);stroke-opacity:1;stroke-miterlimit:10;" d="M 228.734375 90.578125 L 253.472656 126.109375 "/>
<path style="fill:none;stroke-width:0.75;stroke-linecap:round;stroke-linejoin:round;stroke:rgb(66.27451%,66.27451%,66.27451%);stroke-opacity:1;stroke-miterlimit:10;" d="M 312.285156 150.703125 L 277.167969 136.480469 "/>
<path style="fill:none;stroke-width:0.75;stroke-linecap:round;stroke-linejoin:round;stroke:rgb(66.27451%,66.27451%,66.27451%);stroke-opacity:1;stroke-miterlimit:10;" d="M 312.203125 150.910156 L 262.292969 132.878906 "/>
<path style="fill:none;stroke-width:0.75;stroke-linecap:round;stroke-linejoin:round;stroke:rgb(66.27451%,66.27451%,66.27451%);stroke-opacity:1;stroke-miterlimit:10;" d="M 256.03125 152.152344 L 267.90625 138.667969 "/>
<path style="fill:none;stroke-width:0.75;stroke-linecap:round;stroke-linejoin:round;stroke:rgb(66.27451%,66.27451%,66.27451%);stroke-opacity:1;stroke-miterlimit:10;" d="M 253.214844 150.792969 L 255.769531 136.636719 "/>
<path style="fill:none;stroke-width:0.75;stroke-linecap:round;stroke-linejoin:round;stroke:rgb(66.27451%,66.27451%,66.27451%);stroke-opacity:1;stroke-miterlimit:10;" d="M 232.027344 141.734375 L 210.203125 137.804688 "/>
<path style="fill:none;stroke-width:0.75;stroke-linecap:round;stroke-linejoin:round;stroke:rgb(66.27451%,66.27451%,66.27451%);stroke-opacity:1;stroke-miterlimit:10;" d="M 233.179688 139.167969 L 224.488281 132.347656 "/>
<path style="fill:none;stroke-width:0.75;stroke-linecap:round;stroke-linejoin:round;stroke:rgb(66.27451%,66.27451%,66.27451%);stroke-opacity:1;stroke-miterlimit:10;" d="M 243.277344 144.675781 L 266.347656 152.652344 "/>
<path style="fill:none;stroke-width:0.75;stroke-linecap:round;stroke-linejoin:round;stroke:rgb(66.27451%,66.27451%,66.27451%);stroke-opacity:1;stroke-miterlimit:10;" d="M 243.425781 141.359375 L 266.105469 135.703125 "/>
<path style="fill:none;stroke-width:0.75;stroke-linecap:round;stroke-linejoin:round;stroke:rgb(66.27451%,66.27451%,66.27451%);stroke-opacity:1;stroke-miterlimit:10;" d="M 242.714844 139.683594 L 251.859375 133.980469 "/>
<path style="fill:none;stroke-width:0.75;stroke-linecap:round;stroke-linejoin:round;stroke:rgb(66.27451%,66.27451%,66.27451%);stroke-opacity:1;stroke-miterlimit:10;" d="M 180.070313 136.269531 L 198.632813 136.652344 "/>
<path style="fill:none;stroke-width:0.75;stroke-linecap:round;stroke-linejoin:round;stroke:rgb(66.27451%,66.27451%,66.27451%);stroke-opacity:1;stroke-miterlimit:10;" d="M 179.996094 135.21875 L 214.144531 129.679688 "/>
<path style="fill:none;stroke-width:0.75;stroke-linecap:round;stroke-linejoin:round;stroke:rgb(66.27451%,66.27451%,66.27451%);stroke-opacity:1;stroke-miterlimit:10;" d="M 179.800781 134.398438 L 222.488281 120.945313 "/>
<path style="fill:none;stroke-width:0.75;stroke-linecap:round;stroke-linejoin:round;stroke:rgb(66.27451%,66.27451%,66.27451%);stroke-opacity:1;stroke-miterlimit:10;" d="M 209.140625 133.285156 L 223.375 122.675781 "/>
<path style="fill:none;stroke-width:0.75;stroke-linecap:round;stroke-linejoin:round;stroke:rgb(66.27451%,66.27451%,66.27451%);stroke-opacity:1;stroke-miterlimit:10;" d="M 276.570313 163.589844 L 274.554688 159.730469 "/>
<path style="fill:none;stroke-width:0.75;stroke-linecap:round;stroke-linejoin:round;stroke:rgb(66.27451%,66.27451%,66.27451%);stroke-opacity:1;stroke-miterlimit:10;" d="M 276.289063 163.746094 L 259.78125 135.910156 "/>
<path style="fill:none;stroke-width:0.75;stroke-linecap:round;stroke-linejoin:round;stroke:rgb(66.27451%,66.27451%,66.27451%);stroke-opacity:1;stroke-miterlimit:10;" d="M 225.722656 129.085938 L 250.984375 130.554688 "/>
<path style="fill:none;stroke-width:0.75;stroke-linecap:round;stroke-linejoin:round;stroke:rgb(66.27451%,66.27451%,66.27451%);stroke-opacity:1;stroke-miterlimit:10;" d="M 220.410156 112.6875 L 223.609375 115.410156 "/>
<path style="fill:none;stroke-width:0.75;stroke-linecap:round;stroke-linejoin:round;stroke:rgb(66.27451%,66.27451%,66.27451%);stroke-opacity:1;stroke-miterlimit:10;" d="M 221.105469 111.671875 L 251.671875 128.128906 "/>
<path style="fill:none;stroke-width:0.75;stroke-linecap:round;stroke-linejoin:round;stroke:rgb(66.27451%,66.27451%,66.27451%);stroke-opacity:1;stroke-miterlimit:10;" d="M 271.832031 148.726563 L 271.789063 140.121094 "/>
<path style="fill:none;stroke-width:0.75;stroke-linecap:round;stroke-linejoin:round;stroke:rgb(66.27451%,66.27451%,66.27451%);stroke-opacity:1;stroke-miterlimit:10;" d="M 268.730469 149.640625 L 259.9375 135.816406 "/>
<path style="fill:none;stroke-width:0.75;stroke-linecap:round;stroke-linejoin:round;stroke:rgb(66.27451%,66.27451%,66.27451%);stroke-opacity:1;stroke-miterlimit:10;" d="M 284.441406 118.925781 L 275.472656 129.792969 "/>
<path style="fill:none;stroke-width:0.75;stroke-linecap:round;stroke-linejoin:round;stroke:rgb(66.27451%,66.27451%,66.27451%);stroke-opacity:1;stroke-miterlimit:10;" d="M 282.992188 117.136719 L 261.96875 128.183594 "/>
<path style="fill:none;stroke-width:0.75;stroke-linecap:round;stroke-linejoin:round;stroke:rgb(66.27451%,66.27451%,66.27451%);stroke-opacity:1;stroke-miterlimit:10;" d="M 233.5625 121.09375 L 266.25 132.386719 "/>
<path style="fill:none;stroke-width:0.75;stroke-linecap:round;stroke-linejoin:round;stroke:rgb(66.27451%,66.27451%,66.27451%);stroke-opacity:1;stroke-miterlimit:10;" d="M 233.453125 121.390625 L 251.40625 128.695313 "/>
<path style="fill:none;stroke-width:0.75;stroke-linecap:round;stroke-linejoin:round;stroke:rgb(66.27451%,66.27451%,66.27451%);stroke-opacity:1;stroke-miterlimit:10;" d="M 266.074219 133 L 262.492188 132.1875 "/>
<path style="fill-rule:nonzero;fill:rgb(90.196078%,62.352941%,0%);fill-opacity:1;stroke-width:0.75;stroke-linecap:round;stroke-linejoin:round;stroke:rgb(0%,0%,0%);stroke-opacity:1;stroke-miterlimit:10;" d="M 255.621094 67.160156 C 255.621094 70.382813 253.007813 72.992188 249.789063 72.992188 C 246.566406 72.992188 243.957031 70.382813 243.957031 67.160156 C 243.957031 63.941406 246.566406 61.328125 249.789063 61.328125 C 253.007813 61.328125 255.621094 63.941406 255.621094 67.160156 "/>
<path style="fill-rule:nonzero;fill:rgb(90.196078%,62.352941%,0%);fill-opacity:1;stroke-width:0.75;stroke-linecap:round;stroke-linejoin:round;stroke:rgb(0%,0%,0%);stroke-opacity:1;stroke-miterlimit:10;" d="M 275.773438 80.253906 C 275.773438 83.472656 273.164063 86.085938 269.941406 86.085938 C 266.722656 86.085938 264.109375 83.472656 264.109375 80.253906 C 264.109375 77.03125 266.722656 74.421875 269.941406 74.421875 C 273.164063 74.421875 275.773438 77.03125 275.773438 80.253906 "/>
<path style="fill-rule:nonzero;fill:rgb(90.196078%,62.352941%,0%);fill-opacity:1;stroke-width:0.75;stroke-linecap:round;stroke-linejoin:round;stroke:rgb(0%,0%,0%);stroke-opacity:1;stroke-miterlimit:10;" d="M 260.964844 94.65625 C 260.964844 97.875 258.355469 100.488281 255.132813 100.488281 C 251.910156 100.488281 249.300781 97.875 249.300781 94.65625 C 249.300781 91.433594 251.910156 88.824219 255.132813 88.824219 C 258.355469 88.824219 260.964844 91.433594 260.964844 94.65625 "/>
<path style="fill-rule:nonzero;fill:rgb(90.196078%,62.352941%,0%);fill-opacity:1;stroke-width:0.75;stroke-linecap:round;stroke-linejoin:round;stroke:rgb(0%,0%,0%);stroke-opacity:1;stroke-miterlimit:10;" d="M 296.851563 73.546875 C 296.851563 76.765625 294.238281 79.378906 291.019531 79.378906 C 287.796875 79.378906 285.1875 76.765625 285.1875 73.546875 C 285.1875 70.324219 287.796875 67.714844 291.019531 67.714844 C 294.238281 67.714844 296.851563 70.324219 296.851563 73.546875 "/>
<path style="fill-rule:nonzero;fill:rgb(90.196078%,62.352941%,0%);fill-opacity:1;stroke-width:0.75;stroke-linecap:round;stroke-linejoin:round;stroke:rgb(0%,0%,0%);stroke-opacity:1;stroke-miterlimit:10;" d="M 256.558594 39.921875 C 256.558594 43.144531 253.949219 45.753906 250.726563 45.753906 C 247.507813 45.753906 244.894531 43.144531 244.894531 39.921875 C 244.894531 36.703125 247.507813 34.089844 250.726563 34.089844 C 253.949219 34.089844 256.558594 36.703125 256.558594 39.921875 "/>
<path style="fill-rule:nonzero;fill:rgb(90.196078%,62.352941%,0%);fill-opacity:1;stroke-width:0.75;stroke-linecap:round;stroke-linejoin:round;stroke:rgb(0%,0%,0%);stroke-opacity:1;stroke-miterlimit:10;" d="M 218.324219 33.644531 C 218.324219 36.863281 215.710938 39.476563 212.492188 39.476563 C 209.269531 39.476563 206.660156 36.863281 206.660156 33.644531 C 206.660156 30.421875 209.269531 27.8125 212.492188 27.8125 C 215.710938 27.8125 218.324219 30.421875 218.324219 33.644531 "/>
<path style="fill-rule:nonzero;fill:rgb(90.196078%,62.352941%,0%);fill-opacity:1;stroke-width:0.75;stroke-linecap:round;stroke-linejoin:round;stroke:rgb(0%,0%,0%);stroke-opacity:1;stroke-miterlimit:10;" d="M 231.414063 34.066406 C 231.414063 37.285156 228.800781 39.898438 225.582031 39.898438 C 222.359375 39.898438 219.75 37.285156 219.75 34.066406 C 219.75 30.84375 222.359375 28.234375 225.582031 28.234375 C 228.800781 28.234375 231.414063 30.84375 231.414063 34.066406 "/>
<path style="fill-rule:nonzero;fill:rgb(90.196078%,62.352941%,0%);fill-opacity:1;stroke-width:0.75;stroke-linecap:round;stroke-linejoin:round;stroke:rgb(0%,0%,0%);stroke-opacity:1;stroke-miterlimit:10;" d="M 295.828125 81.394531 C 295.828125 84.613281 293.214844 87.226563 289.996094 87.226563 C 286.773438 87.226563 284.164063 84.613281 284.164063 81.394531 C 284.164063 78.171875 286.773438 75.5625 289.996094 75.5625 C 293.214844 75.5625 295.828125 78.171875 295.828125 81.394531 "/>
<path style="fill-rule:nonzero;fill:rgb(33.72549%,70.588235%,91.372549%);fill-opacity:1;stroke-width:0.75;stroke-linecap:round;stroke-linejoin:round;stroke:rgb(0%,0%,0%);stroke-opacity:1;stroke-miterlimit:10;" d="M 270.769531 108.5 C 270.769531 111.71875 268.15625 114.332031 264.9375 114.332031 C 261.714844 114.332031 259.105469 111.71875 259.105469 108.5 C 259.105469 105.277344 261.714844 102.667969 264.9375 102.667969 C 268.15625 102.667969 270.769531 105.277344 270.769531 108.5 "/>
<path style="fill-rule:nonzero;fill:rgb(33.72549%,70.588235%,91.372549%);fill-opacity:1;stroke-width:0.75;stroke-linecap:round;stroke-linejoin:round;stroke:rgb(0%,0%,0%);stroke-opacity:1;stroke-miterlimit:10;" d="M 195.667969 117.546875 C 195.667969 120.769531 193.058594 123.378906 189.835938 123.378906 C 186.613281 123.378906 184.003906 120.769531 184.003906 117.546875 C 184.003906 114.324219 186.613281 111.714844 189.835938 111.714844 C 193.058594 111.714844 195.667969 114.324219 195.667969 117.546875 "/>
<path style="fill-rule:nonzero;fill:rgb(90.196078%,62.352941%,0%);fill-opacity:1;stroke-width:0.75;stroke-linecap:round;stroke-linejoin:round;stroke:rgb(0%,0%,0%);stroke-opacity:1;stroke-miterlimit:10;" d="M 252.789063 29.398438 C 252.789063 32.621094 250.175781 35.230469 246.953125 35.230469 C 243.734375 35.230469 241.121094 32.621094 241.121094 29.398438 C 241.121094 26.179688 243.734375 23.566406 246.953125 23.566406 C 250.175781 23.566406 252.789063 26.179688 252.789063 29.398438 "/>
<path style="fill-rule:nonzero;fill:rgb(90.196078%,62.352941%,0%);fill-opacity:1;stroke-width:0.75;stroke-linecap:round;stroke-linejoin:round;stroke:rgb(0%,0%,0%);stroke-opacity:1;stroke-miterlimit:10;" d="M 200.847656 53.898438 C 200.847656 57.117188 198.238281 59.730469 195.015625 59.730469 C 191.796875 59.730469 189.183594 57.117188 189.183594 53.898438 C 189.183594 50.675781 191.796875 48.066406 195.015625 48.066406 C 198.238281 48.066406 200.847656 50.675781 200.847656 53.898438 "/>
<path style="fill-rule:nonzero;fill:rgb(90.196078%,62.352941%,0%);fill-opacity:1;stroke-width:0.75;stroke-linecap:round;stroke-linejoin:round;stroke:rgb(0%,0%,0%);stroke-opacity:1;stroke-miterlimit:10;" d="M 335.59375 58.597656 C 335.59375 61.820313 332.980469 64.429688 329.761719 64.429688 C 326.539063 64.429688 323.929688 61.820313 323.929688 58.597656 C 323.929688 55.375 326.539063 52.765625 329.761719 52.765625 C 332.980469 52.765625 335.59375 55.375 335.59375 58.597656 "/>
<path style="fill-rule:nonzero;fill:rgb(90.196078%,62.352941%,0%);fill-opacity:1;stroke-width:0.75;stroke-linecap:round;stroke-linejoin:round;stroke:rgb(0%,0%,0%);stroke-opacity:1;stroke-miterlimit:10;" d="M 278.441406 93.210938 C 278.441406 96.433594 275.832031 99.042969 272.609375 99.042969 C 269.390625 99.042969 266.777344 96.433594 266.777344 93.210938 C 266.777344 89.992188 269.390625 87.378906 272.609375 87.378906 C 275.832031 87.378906 278.441406 89.992188 278.441406 93.210938 "/>
<path style="fill-rule:nonzero;fill:rgb(33.72549%,70.588235%,91.372549%);fill-opacity:1;stroke-width:0.75;stroke-linecap:round;stroke-linejoin:round;stroke:rgb(0%,0%,0%);stroke-opacity:1;stroke-miterlimit:10;" d="M 323.890625 138.109375 C 323.890625 141.328125 321.28125 143.941406 318.058594 143.941406 C 314.839844 143.941406 312.226563 141.328125 312.226563 138.109375 C 312.226563 134.886719 314.839844 132.277344 318.058594 132.277344 C 321.28125 132.277344 323.890625 134.886719 323.890625 138.109375 "/>
<path style="fill-rule:nonzero;fill:rgb(33.72549%,70.588235%,91.372549%);fill-opacity:1;stroke-width:0.75;stroke-linecap:round;stroke-linejoin:round;stroke:rgb(0%,0%,0%);stroke-opacity:1;stroke-miterlimit:10;" d="M 298.621094 145.269531 C 298.621094 148.488281 296.007813 151.101563 292.789063 151.101563 C 289.566406 151.101563 286.957031 148.488281 286.957031 145.269531 C 286.957031 142.046875 289.566406 139.4375 292.789063 139.4375 C 296.007813 139.4375 298.621094 142.046875 298.621094 145.269531 "/>
<path style="fill-rule:nonzero;fill:rgb(90.196078%,62.352941%,0%);fill-opacity:1;stroke-width:0.75;stroke-linecap:round;stroke-linejoin:round;stroke:rgb(0%,0%,0%);stroke-opacity:1;stroke-miterlimit:10;" d="M 206.757813 13.238281 C 206.757813 16.460938 204.144531 19.070313 200.925781 19.070313 C 197.703125 19.070313 195.09375 16.460938 195.09375 13.238281 C 195.09375 10.019531 197.703125 7.40625 200.925781 7.40625 C 204.144531 7.40625 206.757813 10.019531 206.757813 13.238281 "/>
<path style="fill-rule:nonzero;fill:rgb(90.196078%,62.352941%,0%);fill-opacity:1;stroke-width:0.75;stroke-linecap:round;stroke-linejoin:round;stroke:rgb(0%,0%,0%);stroke-opacity:1;stroke-miterlimit:10;" d="M 302.765625 45.1875 C 302.765625 48.410156 300.15625 51.019531 296.933594 51.019531 C 293.714844 51.019531 291.101563 48.410156 291.101563 45.1875 C 291.101563 41.96875 293.714844 39.355469 296.933594 39.355469 C 300.15625 39.355469 302.765625 41.96875 302.765625 45.1875 "/>
<path style="fill-rule:nonzero;fill:rgb(33.72549%,70.588235%,91.372549%);fill-opacity:1;stroke-width:0.75;stroke-linecap:round;stroke-linejoin:round;stroke:rgb(0%,0%,0%);stroke-opacity:1;stroke-miterlimit:10;" d="M 235.324219 163.746094 C 235.324219 166.96875 232.714844 169.578125 229.492188 169.578125 C 226.273438 169.578125 223.660156 166.96875 223.660156 163.746094 C 223.660156 160.527344 226.273438 157.914063 229.492188 157.914063 C 232.714844 157.914063 235.324219 160.527344 235.324219 163.746094 "/>
<path style="fill-rule:nonzero;fill:rgb(90.196078%,62.352941%,0%);fill-opacity:1;stroke-width:0.75;stroke-linecap:round;stroke-linejoin:round;stroke:rgb(0%,0%,0%);stroke-opacity:1;stroke-miterlimit:10;" d="M 231.234375 85.789063 C 231.234375 89.011719 228.621094 91.621094 225.402344 91.621094 C 222.179688 91.621094 219.570313 89.011719 219.570313 85.789063 C 219.570313 82.570313 222.179688 79.957031 225.402344 79.957031 C 228.621094 79.957031 231.234375 82.570313 231.234375 85.789063 "/>
<path style="fill-rule:nonzero;fill:rgb(33.72549%,70.588235%,91.372549%);fill-opacity:1;stroke-width:0.75;stroke-linecap:round;stroke-linejoin:round;stroke:rgb(0%,0%,0%);stroke-opacity:1;stroke-miterlimit:10;" d="M 323.519531 152.894531 C 323.519531 156.113281 320.910156 158.726563 317.6875 158.726563 C 314.46875 158.726563 311.855469 156.113281 311.855469 152.894531 C 311.855469 149.671875 314.46875 147.0625 317.6875 147.0625 C 320.910156 147.0625 323.519531 149.671875 323.519531 152.894531 "/>
<path style="fill-rule:nonzero;fill:rgb(90.196078%,62.352941%,0%);fill-opacity:1;stroke-width:0.75;stroke-linecap:round;stroke-linejoin:round;stroke:rgb(0%,0%,0%);stroke-opacity:1;stroke-miterlimit:10;" d="M 290.808594 55.105469 C 290.808594 58.328125 288.195313 60.9375 284.976563 60.9375 C 281.753906 60.9375 279.144531 58.328125 279.144531 55.105469 C 279.144531 51.886719 281.753906 49.273438 284.976563 49.273438 C 288.195313 49.273438 290.808594 51.886719 290.808594 55.105469 "/>
<path style="fill-rule:nonzero;fill:rgb(33.72549%,70.588235%,91.372549%);fill-opacity:1;stroke-width:0.75;stroke-linecap:round;stroke-linejoin:round;stroke:rgb(0%,0%,0%);stroke-opacity:1;stroke-miterlimit:10;" d="M 258.007813 156.53125 C 258.007813 159.75 255.398438 162.363281 252.175781 162.363281 C 248.957031 162.363281 246.34375 159.75 246.34375 156.53125 C 246.34375 153.308594 248.957031 150.699219 252.175781 150.699219 C 255.398438 150.699219 258.007813 153.308594 258.007813 156.53125 "/>
<path style="fill-rule:nonzero;fill:rgb(33.72549%,70.588235%,91.372549%);fill-opacity:1;stroke-width:0.75;stroke-linecap:round;stroke-linejoin:round;stroke:rgb(0%,0%,0%);stroke-opacity:1;stroke-miterlimit:10;" d="M 243.597656 142.769531 C 243.597656 145.992188 240.988281 148.601563 237.765625 148.601563 C 234.546875 148.601563 231.933594 145.992188 231.933594 142.769531 C 231.933594 139.546875 234.546875 136.9375 237.765625 136.9375 C 240.988281 136.9375 243.597656 139.546875 243.597656 142.769531 "/>
<path style="fill-rule:nonzero;fill:rgb(33.72549%,70.588235%,91.372549%);fill-opacity:1;stroke-width:0.75;stroke-linecap:round;stroke-linejoin:round;stroke:rgb(0%,0%,0%);stroke-opacity:1;stroke-miterlimit:10;" d="M 180.070313 136.152344 C 180.070313 139.371094 177.460938 141.984375 174.238281 141.984375 C 171.019531 141.984375 168.40625 139.371094 168.40625 136.152344 C 168.40625 132.929688 171.019531 130.320313 174.238281 130.320313 C 177.460938 130.320313 180.070313 132.929688 180.070313 136.152344 "/>
<path style="fill-rule:nonzero;fill:rgb(33.72549%,70.588235%,91.372549%);fill-opacity:1;stroke-width:0.75;stroke-linecap:round;stroke-linejoin:round;stroke:rgb(0%,0%,0%);stroke-opacity:1;stroke-miterlimit:10;" d="M 210.296875 136.773438 C 210.296875 139.992188 207.683594 142.605469 204.464844 142.605469 C 201.242188 142.605469 198.632813 139.992188 198.632813 136.773438 C 198.632813 133.550781 201.242188 130.941406 204.464844 130.941406 C 207.683594 130.941406 210.296875 133.550781 210.296875 136.773438 "/>
<path style="fill-rule:nonzero;fill:rgb(33.72549%,70.588235%,91.372549%);fill-opacity:1;stroke-width:0.75;stroke-linecap:round;stroke-linejoin:round;stroke:rgb(0%,0%,0%);stroke-opacity:1;stroke-miterlimit:10;" d="M 285.097656 168.761719 C 285.097656 171.980469 282.488281 174.59375 279.265625 174.59375 C 276.042969 174.59375 273.433594 171.980469 273.433594 168.761719 C 273.433594 165.539063 276.042969 162.929688 279.265625 162.929688 C 282.488281 162.929688 285.097656 165.539063 285.097656 168.761719 "/>
<path style="fill-rule:nonzero;fill:rgb(33.72549%,70.588235%,91.372549%);fill-opacity:1;stroke-width:0.75;stroke-linecap:round;stroke-linejoin:round;stroke:rgb(0%,0%,0%);stroke-opacity:1;stroke-miterlimit:10;" d="M 225.730469 128.746094 C 225.730469 131.96875 223.121094 134.578125 219.898438 134.578125 C 216.679688 134.578125 214.066406 131.96875 214.066406 128.746094 C 214.066406 125.523438 216.679688 122.914063 219.898438 122.914063 C 223.121094 122.914063 225.730469 125.523438 225.730469 128.746094 "/>
<path style="fill-rule:nonzero;fill:rgb(33.72549%,70.588235%,91.372549%);fill-opacity:1;stroke-width:0.75;stroke-linecap:round;stroke-linejoin:round;stroke:rgb(0%,0%,0%);stroke-opacity:1;stroke-miterlimit:10;" d="M 221.800781 108.910156 C 221.800781 112.128906 219.191406 114.742188 215.96875 114.742188 C 212.75 114.742188 210.136719 112.128906 210.136719 108.910156 C 210.136719 105.6875 212.75 103.078125 215.96875 103.078125 C 219.191406 103.078125 221.800781 105.6875 221.800781 108.910156 "/>
<path style="fill-rule:nonzero;fill:rgb(33.72549%,70.588235%,91.372549%);fill-opacity:1;stroke-width:0.75;stroke-linecap:round;stroke-linejoin:round;stroke:rgb(0%,0%,0%);stroke-opacity:1;stroke-miterlimit:10;" d="M 277.691406 154.558594 C 277.691406 157.78125 275.078125 160.390625 271.859375 160.390625 C 268.636719 160.390625 266.027344 157.78125 266.027344 154.558594 C 266.027344 151.339844 268.636719 148.726563 271.859375 148.726563 C 275.078125 148.726563 277.691406 151.339844 277.691406 154.558594 "/>
<path style="fill-rule:nonzero;fill:rgb(33.72549%,70.588235%,91.372549%);fill-opacity:1;stroke-width:0.75;stroke-linecap:round;stroke-linejoin:round;stroke:rgb(0%,0%,0%);stroke-opacity:1;stroke-miterlimit:10;" d="M 293.988281 114.425781 C 293.988281 117.648438 291.375 120.257813 288.15625 120.257813 C 284.933594 120.257813 282.324219 117.648438 282.324219 114.425781 C 282.324219 111.203125 284.933594 108.59375 288.15625 108.59375 C 291.375 108.59375 293.988281 111.203125 293.988281 114.425781 "/>
<path style="fill-rule:nonzero;fill:rgb(33.72549%,70.588235%,91.372549%);fill-opacity:1;stroke-width:0.75;stroke-linecap:round;stroke-linejoin:round;stroke:rgb(0%,0%,0%);stroke-opacity:1;stroke-miterlimit:10;" d="M 233.882813 119.191406 C 233.882813 122.410156 231.269531 125.023438 228.050781 125.023438 C 224.828125 125.023438 222.21875 122.410156 222.21875 119.191406 C 222.21875 115.96875 224.828125 113.359375 228.050781 113.359375 C 231.269531 113.359375 233.882813 115.96875 233.882813 119.191406 "/>
<path style="fill-rule:nonzero;fill:rgb(33.72549%,70.588235%,91.372549%);fill-opacity:1;stroke-width:0.75;stroke-linecap:round;stroke-linejoin:round;stroke:rgb(0%,0%,0%);stroke-opacity:1;stroke-miterlimit:10;" d="M 277.59375 134.289063 C 277.59375 137.511719 274.984375 140.121094 271.761719 140.121094 C 268.542969 140.121094 265.929688 137.511719 265.929688 134.289063 C 265.929688 131.070313 268.542969 128.457031 271.761719 128.457031 C 274.984375 128.457031 277.59375 131.070313 277.59375 134.289063 "/>
<path style="fill-rule:nonzero;fill:rgb(33.72549%,70.588235%,91.372549%);fill-opacity:1;stroke-width:0.75;stroke-linecap:round;stroke-linejoin:round;stroke:rgb(0%,0%,0%);stroke-opacity:1;stroke-miterlimit:10;" d="M 262.636719 130.894531 C 262.636719 134.117188 260.027344 136.726563 256.804688 136.726563 C 253.585938 136.726563 250.972656 134.117188 250.972656 130.894531 C 250.972656 127.675781 253.585938 125.0625 256.804688 125.0625 C 260.027344 125.0625 262.636719 127.675781 262.636719 130.894531 "/>
<g style="fill:rgb(0%,0%,54.509804%);fill-opacity:1;">
  <use xlink:href="#glyph0-1" x="245.457031" y="71.132813"/>
</g>
<g style="fill:rgb(0%,0%,54.509804%);fill-opacity:1;">
  <use xlink:href="#glyph0-2" x="266.941406" y="84.308594"/>
</g>
<g style="fill:rgb(0%,0%,54.509804%);fill-opacity:1;">
  <use xlink:href="#glyph0-3" x="252.132813" y="98.640625"/>
</g>
<g style="fill:rgb(0%,0%,54.509804%);fill-opacity:1;">
  <use xlink:href="#glyph0-4" x="288.019531" y="77.601563"/>
</g>
<g style="fill:rgb(0%,0%,54.509804%);fill-opacity:1;">
  <use xlink:href="#glyph0-5" x="247.726563" y="43.824219"/>
</g>
<g style="fill:rgb(0%,0%,54.509804%);fill-opacity:1;">
  <use xlink:href="#glyph0-6" x="209.492188" y="37.628906"/>
</g>
<g style="fill:rgb(0%,0%,54.509804%);fill-opacity:1;">
  <use xlink:href="#glyph0-7" x="222.582031" y="37.957031"/>
</g>
<g style="fill:rgb(0%,0%,54.509804%);fill-opacity:1;">
  <use xlink:href="#glyph0-8" x="286.996094" y="85.378906"/>
</g>
<g style="fill:rgb(0%,0%,54.509804%);fill-opacity:1;">
  <use xlink:href="#glyph0-9" x="261.9375" y="112.472656"/>
</g>
<g style="fill:rgb(0%,0%,54.509804%);fill-opacity:1;">
  <use xlink:href="#glyph0-10" x="183.835938" y="121.53125"/>
  <use xlink:href="#glyph0-11" x="189.835938" y="121.53125"/>
</g>
<g style="fill:rgb(0%,0%,54.509804%);fill-opacity:1;">
  <use xlink:href="#glyph0-10" x="240.953125" y="33.453125"/>
  <use xlink:href="#glyph0-10" x="246.953125" y="33.453125"/>
</g>
<g style="fill:rgb(0%,0%,54.509804%);fill-opacity:1;">
  <use xlink:href="#glyph0-10" x="189.015625" y="57.953125"/>
  <use xlink:href="#glyph0-2" x="195.015625" y="57.953125"/>
</g>
<g style="fill:rgb(0%,0%,54.509804%);fill-opacity:1;">
  <use xlink:href="#glyph0-10" x="323.761719" y="62.582031"/>
  <use xlink:href="#glyph0-3" x="329.761719" y="62.582031"/>
</g>
<g style="fill:rgb(0%,0%,54.509804%);fill-opacity:1;">
  <use xlink:href="#glyph0-10" x="266.609375" y="97.265625"/>
  <use xlink:href="#glyph0-4" x="272.609375" y="97.265625"/>
</g>
<g style="fill:rgb(0%,0%,54.509804%);fill-opacity:1;">
  <use xlink:href="#glyph0-10" x="312.058594" y="142.09375"/>
  <use xlink:href="#glyph0-5" x="318.058594" y="142.09375"/>
</g>
<g style="fill:rgb(0%,0%,54.509804%);fill-opacity:1;">
  <use xlink:href="#glyph0-10" x="286.789063" y="149.253906"/>
  <use xlink:href="#glyph0-6" x="292.789063" y="149.253906"/>
</g>
<g style="fill:rgb(0%,0%,54.509804%);fill-opacity:1;">
  <use xlink:href="#glyph0-10" x="194.925781" y="17.210938"/>
  <use xlink:href="#glyph0-7" x="200.925781" y="17.210938"/>
</g>
<g style="fill:rgb(0%,0%,54.509804%);fill-opacity:1;">
  <use xlink:href="#glyph0-10" x="290.933594" y="49.171875"/>
  <use xlink:href="#glyph0-8" x="296.933594" y="49.171875"/>
</g>
<g style="fill:rgb(0%,0%,54.509804%);fill-opacity:1;">
  <use xlink:href="#glyph0-10" x="223.492188" y="167.71875"/>
  <use xlink:href="#glyph0-9" x="229.492188" y="167.71875"/>
</g>
<g style="fill:rgb(0%,0%,54.509804%);fill-opacity:1;">
  <use xlink:href="#glyph0-2" x="219.402344" y="89.773438"/>
  <use xlink:href="#glyph0-11" x="225.402344" y="89.773438"/>
</g>
<g style="fill:rgb(0%,0%,54.509804%);fill-opacity:1;">
  <use xlink:href="#glyph0-2" x="311.6875" y="156.949219"/>
  <use xlink:href="#glyph0-10" x="317.6875" y="156.949219"/>
</g>
<g style="fill:rgb(0%,0%,54.509804%);fill-opacity:1;">
  <use xlink:href="#glyph0-2" x="278.976563" y="59.160156"/>
  <use xlink:href="#glyph0-2" x="284.976563" y="59.160156"/>
</g>
<g style="fill:rgb(0%,0%,54.509804%);fill-opacity:1;">
  <use xlink:href="#glyph0-2" x="246.175781" y="160.515625"/>
  <use xlink:href="#glyph0-3" x="252.175781" y="160.515625"/>
</g>
<g style="fill:rgb(0%,0%,54.509804%);fill-opacity:1;">
  <use xlink:href="#glyph0-2" x="231.765625" y="146.824219"/>
  <use xlink:href="#glyph0-4" x="237.765625" y="146.824219"/>
</g>
<g style="fill:rgb(0%,0%,54.509804%);fill-opacity:1;">
  <use xlink:href="#glyph0-2" x="168.238281" y="140.136719"/>
  <use xlink:href="#glyph0-5" x="174.238281" y="140.136719"/>
</g>
<g style="fill:rgb(0%,0%,54.509804%);fill-opacity:1;">
  <use xlink:href="#glyph0-2" x="198.464844" y="140.757813"/>
  <use xlink:href="#glyph0-6" x="204.464844" y="140.757813"/>
</g>
<g style="fill:rgb(0%,0%,54.509804%);fill-opacity:1;">
  <use xlink:href="#glyph0-2" x="273.265625" y="172.734375"/>
  <use xlink:href="#glyph0-7" x="279.265625" y="172.734375"/>
</g>
<g style="fill:rgb(0%,0%,54.509804%);fill-opacity:1;">
  <use xlink:href="#glyph0-2" x="213.898438" y="132.730469"/>
  <use xlink:href="#glyph0-8" x="219.898438" y="132.730469"/>
</g>
<g style="fill:rgb(0%,0%,54.509804%);fill-opacity:1;">
  <use xlink:href="#glyph0-2" x="209.96875" y="112.882813"/>
  <use xlink:href="#glyph0-9" x="215.96875" y="112.882813"/>
</g>
<g style="fill:rgb(0%,0%,54.509804%);fill-opacity:1;">
  <use xlink:href="#glyph0-3" x="265.859375" y="158.542969"/>
  <use xlink:href="#glyph0-11" x="271.859375" y="158.542969"/>
</g>
<g style="fill:rgb(0%,0%,54.509804%);fill-opacity:1;">
  <use xlink:href="#glyph0-3" x="282.15625" y="118.410156"/>
  <use xlink:href="#glyph0-10" x="288.15625" y="118.410156"/>
</g>
<g style="fill:rgb(0%,0%,54.509804%);fill-opacity:1;">
  <use xlink:href="#glyph0-3" x="222.050781" y="123.175781"/>
  <use xlink:href="#glyph0-2" x="228.050781" y="123.175781"/>
</g>
<g style="fill:rgb(0%,0%,54.509804%);fill-opacity:1;">
  <use xlink:href="#glyph0-3" x="265.761719" y="138.273438"/>
  <use xlink:href="#glyph0-3" x="271.761719" y="138.273438"/>
</g>
<g style="fill:rgb(0%,0%,54.509804%);fill-opacity:1;">
  <use xlink:href="#glyph0-12" x="252.472656" y="134.960938"/>
</g>
</g>
</svg>
