<?xml version="1.0" encoding="UTF-8"?>
<svg xmlns="http://www.w3.org/2000/svg" xmlns:xlink="http://www.w3.org/1999/xlink" width="504pt" height="180pt" viewBox="0 0 504 180" version="1.1">
<g id="surface159">
<rect x="0" y="0" width="504" height="180" style="fill:rgb(100%,100%,100%);fill-opacity:1;stroke:none;"/>
<path style="fill-rule:nonzero;fill:rgb(0%,0%,0%);fill-opacity:1;stroke-width:0.75;stroke-linecap:round;stroke-linejoin:round;stroke:rgb(0%,0%,0%);stroke-opacity:1;stroke-miterlimit:10;" d="M 280.417969 109.449219 L 257.679688 132.761719 L 257.5625 132.648438 L 280.300781 109.335938 Z M 280.417969 109.449219 "/>
<path style="fill-rule:nonzero;fill:rgb(0%,0%,0%);fill-opacity:1;stroke-width:0.75;stroke-linecap:round;stroke-linejoin:round;stroke:rgb(0%,0%,0%);stroke-opacity:1;stroke-miterlimit:10;" d="M 279.863281 108.101563 L 244.105469 103.953125 L 244.125 103.789063 L 279.882813 107.9375 Z M 279.863281 108.101563 "/>
<path style="fill-rule:nonzero;fill:rgb(0%,0%,0%);fill-opacity:1;stroke-width:0.75;stroke-linecap:round;stroke-linejoin:round;stroke:rgb(0%,0%,0%);stroke-opacity:1;stroke-miterlimit:10;" d="M 281.03125 109.792969 L 276.632813 121.960938 L 276.476563 121.90625 L 280.875 109.734375 Z M 281.03125 109.792969 "/>
<path style="fill-rule:nonzero;fill:rgb(0%,0%,0%);fill-opacity:1;stroke-width:0.75;stroke-linecap:round;stroke-linejoin:round;stroke:rgb(0%,0%,0%);stroke-opacity:1;stroke-miterlimit:10;" d="M 283.160156 108.039063 L 320.976563 106.046875 L 320.984375 106.214844 L 283.167969 108.203125 Z M 283.160156 108.039063 "/>
<path style="fill-rule:nonzero;fill:rgb(0%,0%,0%);fill-opacity:1;stroke-width:0.75;stroke-linecap:round;stroke-linejoin:round;stroke:rgb(0%,0%,0%);stroke-opacity:1;stroke-miterlimit:10;" d="M 282.566406 106.929688 L 309.726563 77.097656 L 309.847656 77.210938 L 282.6875 107.042969 Z M 282.566406 106.929688 "/>
<path style="fill-rule:nonzero;fill:rgb(0%,0%,0%);fill-opacity:1;stroke-width:0.75;stroke-linecap:round;stroke-linejoin:round;stroke:rgb(0%,0%,0%);stroke-opacity:1;stroke-miterlimit:10;" d="M 282.875 107.265625 L 317.992188 85.40625 L 318.078125 85.546875 L 282.960938 107.40625 Z M 282.875 107.265625 "/>
<path style="fill-rule:nonzero;fill:rgb(0%,0%,0%);fill-opacity:1;stroke-width:0.75;stroke-linecap:round;stroke-linejoin:round;stroke:rgb(0%,0%,0%);stroke-opacity:1;stroke-miterlimit:10;" d="M 280.785156 109.695313 L 266.308594 135.828125 L 266.164063 135.75 L 280.640625 109.613281 Z M 280.785156 109.695313 "/>
<path style="fill-rule:nonzero;fill:rgb(0%,0%,0%);fill-opacity:1;stroke-width:0.75;stroke-linecap:round;stroke-linejoin:round;stroke:rgb(0%,0%,0%);stroke-opacity:1;stroke-miterlimit:10;" d="M 279.882813 107.925781 L 238.4375 98.574219 L 238.472656 98.410156 L 279.917969 107.765625 Z M 279.882813 107.925781 "/>
<path style="fill-rule:nonzero;fill:rgb(0%,0%,0%);fill-opacity:1;stroke-width:0.75;stroke-linecap:round;stroke-linejoin:round;stroke:rgb(0%,0%,0%);stroke-opacity:1;stroke-miterlimit:10;" d="M 283.039063 107.566406 L 314.320313 96.234375 L 314.378906 96.390625 L 283.097656 107.722656 Z M 283.039063 107.566406 "/>
<path style="fill-rule:nonzero;fill:rgb(0%,0%,0%);fill-opacity:1;stroke-width:0.75;stroke-linecap:round;stroke-linejoin:round;stroke:rgb(0%,0%,0%);stroke-opacity:1;stroke-miterlimit:10;" d="M 283.074219 108.761719 L 319.050781 123.546875 L 318.988281 123.699219 L 283.011719 108.914063 Z M 283.074219 108.761719 "/>
<path style="fill-rule:nonzero;fill:rgb(0%,0%,0%);fill-opacity:1;stroke-width:0.75;stroke-linecap:round;stroke-linejoin:round;stroke:rgb(0%,0%,0%);stroke-opacity:1;stroke-miterlimit:10;" d="M 282.765625 109.292969 L 306.023438 131.554688 L 305.910156 131.671875 L 282.652344 109.410156 Z M 282.765625 109.292969 "/>
<path style="fill-rule:nonzero;fill:rgb(0%,0%,0%);fill-opacity:1;stroke-width:0.75;stroke-linecap:round;stroke-linejoin:round;stroke:rgb(0%,0%,0%);stroke-opacity:1;stroke-miterlimit:10;" d="M 279.863281 108.074219 L 253.136719 104.546875 L 253.15625 104.386719 L 279.886719 107.910156 Z M 279.863281 108.074219 "/>
<path style="fill-rule:nonzero;fill:rgb(0%,0%,0%);fill-opacity:1;stroke-width:0.75;stroke-linecap:round;stroke-linejoin:round;stroke:rgb(0%,0%,0%);stroke-opacity:1;stroke-miterlimit:10;" d="M 281.992188 109.792969 L 290.492188 143.867188 L 290.332031 143.910156 L 281.832031 109.832031 Z M 281.992188 109.792969 "/>
<path style="fill-rule:nonzero;fill:rgb(0%,0%,0%);fill-opacity:1;stroke-width:0.75;stroke-linecap:round;stroke-linejoin:round;stroke:rgb(0%,0%,0%);stroke-opacity:1;stroke-miterlimit:10;" d="M 279.949219 108.742188 L 240.386719 120.09375 L 240.339844 119.933594 L 279.902344 108.585938 Z M 279.949219 108.742188 "/>
<path style="fill-rule:nonzero;fill:rgb(0%,0%,0%);fill-opacity:1;stroke-width:0.75;stroke-linecap:round;stroke-linejoin:round;stroke:rgb(0%,0%,0%);stroke-opacity:1;stroke-miterlimit:10;" d="M 281.546875 109.863281 L 280.316406 149.726563 L 280.148438 149.722656 L 281.378906 109.859375 Z M 281.546875 109.863281 "/>
<path style="fill-rule:nonzero;fill:rgb(0%,0%,0%);fill-opacity:1;stroke-width:0.75;stroke-linecap:round;stroke-linejoin:round;stroke:rgb(0%,0%,0%);stroke-opacity:1;stroke-miterlimit:10;" d="M 280.328125 107.054688 L 245.734375 69.804688 L 245.855469 69.691406 L 280.449219 106.941406 Z M 280.328125 107.054688 "/>
<path style="fill-rule:nonzero;fill:rgb(0%,0%,0%);fill-opacity:1;stroke-width:0.75;stroke-linecap:round;stroke-linejoin:round;stroke:rgb(0%,0%,0%);stroke-opacity:1;stroke-miterlimit:10;" d="M 255.699219 132.421875 L 243.09375 105.214844 L 243.246094 105.144531 L 255.847656 132.355469 Z M 255.699219 132.421875 "/>
<path style="fill-rule:nonzero;fill:rgb(0%,0%,0%);fill-opacity:1;stroke-width:0.75;stroke-linecap:round;stroke-linejoin:round;stroke:rgb(0%,0%,0%);stroke-opacity:1;stroke-miterlimit:10;" d="M 257.886719 133.039063 L 274.496094 124.191406 L 274.574219 124.339844 L 257.964844 133.183594 Z M 257.886719 133.039063 "/>
<path style="fill-rule:nonzero;fill:rgb(0%,0%,0%);fill-opacity:1;stroke-width:0.75;stroke-linecap:round;stroke-linejoin:round;stroke:rgb(0%,0%,0%);stroke-opacity:1;stroke-miterlimit:10;" d="M 258.046875 134.390625 L 263.914063 136.578125 L 263.859375 136.734375 L 257.988281 134.542969 Z M 258.046875 134.390625 "/>
<path style="fill-rule:nonzero;fill:rgb(0%,0%,0%);fill-opacity:1;stroke-width:0.75;stroke-linecap:round;stroke-linejoin:round;stroke:rgb(0%,0%,0%);stroke-opacity:1;stroke-miterlimit:10;" d="M 256.113281 132.269531 L 251.699219 105.894531 L 251.863281 105.867188 L 256.277344 132.246094 Z M 256.113281 132.269531 "/>
<path style="fill-rule:nonzero;fill:rgb(0%,0%,0%);fill-opacity:1;stroke-width:0.75;stroke-linecap:round;stroke-linejoin:round;stroke:rgb(0%,0%,0%);stroke-opacity:1;stroke-miterlimit:10;" d="M 258.0625 134.339844 L 289.273438 144.886719 L 289.21875 145.042969 L 258.007813 134.496094 Z M 258.0625 134.339844 "/>
<path style="fill-rule:nonzero;fill:rgb(0%,0%,0%);fill-opacity:1;stroke-width:0.75;stroke-linecap:round;stroke-linejoin:round;stroke:rgb(0%,0%,0%);stroke-opacity:1;stroke-miterlimit:10;" d="M 255.101563 132.957031 L 240.039063 121.535156 L 240.140625 121.402344 L 255.199219 132.824219 Z M 255.101563 132.957031 "/>
<path style="fill-rule:nonzero;fill:rgb(0%,0%,0%);fill-opacity:1;stroke-width:0.75;stroke-linecap:round;stroke-linejoin:round;stroke:rgb(0%,0%,0%);stroke-opacity:1;stroke-miterlimit:10;" d="M 257.847656 134.804688 L 278.898438 150.328125 L 278.800781 150.460938 L 257.75 134.9375 Z M 257.847656 134.804688 "/>
<path style="fill-rule:nonzero;fill:rgb(0%,0%,0%);fill-opacity:1;stroke-width:0.75;stroke-linecap:round;stroke-linejoin:round;stroke:rgb(0%,0%,0%);stroke-opacity:1;stroke-miterlimit:10;" d="M 254.886719 133.394531 L 219.761719 120.480469 L 219.820313 120.324219 L 254.945313 133.242188 Z M 254.886719 133.394531 "/>
<path style="fill-rule:nonzero;fill:rgb(0%,0%,0%);fill-opacity:1;stroke-width:0.75;stroke-linecap:round;stroke-linejoin:round;stroke:rgb(0%,0%,0%);stroke-opacity:1;stroke-miterlimit:10;" d="M 243.941406 104.449219 L 274.613281 122.578125 L 274.527344 122.71875 L 243.855469 104.589844 Z M 243.941406 104.449219 "/>
<path style="fill-rule:nonzero;fill:rgb(0%,0%,0%);fill-opacity:1;stroke-width:0.75;stroke-linecap:round;stroke-linejoin:round;stroke:rgb(0%,0%,0%);stroke-opacity:1;stroke-miterlimit:10;" d="M 243.476563 104.996094 L 264.570313 135.824219 L 264.433594 135.917969 L 243.339844 105.089844 Z M 243.476563 104.996094 "/>
<path style="fill-rule:nonzero;fill:rgb(0%,0%,0%);fill-opacity:1;stroke-width:0.75;stroke-linecap:round;stroke-linejoin:round;stroke:rgb(0%,0%,0%);stroke-opacity:1;stroke-miterlimit:10;" d="M 241.238281 102.578125 L 237.960938 99.347656 L 238.078125 99.230469 L 241.355469 102.460938 Z M 241.238281 102.578125 "/>
<path style="fill-rule:nonzero;fill:rgb(0%,0%,0%);fill-opacity:1;stroke-width:0.75;stroke-linecap:round;stroke-linejoin:round;stroke:rgb(0%,0%,0%);stroke-opacity:1;stroke-miterlimit:10;" d="M 241.074219 104.5625 L 207.328125 123.632813 L 207.246094 123.488281 L 240.996094 104.421875 Z M 241.074219 104.5625 "/>
<path style="fill-rule:nonzero;fill:rgb(0%,0%,0%);fill-opacity:1;stroke-width:0.75;stroke-linecap:round;stroke-linejoin:round;stroke:rgb(0%,0%,0%);stroke-opacity:1;stroke-miterlimit:10;" d="M 244.128906 103.699219 L 249.863281 104.0625 L 249.851563 104.230469 L 244.121094 103.867188 Z M 244.128906 103.699219 "/>
<path style="fill-rule:nonzero;fill:rgb(0%,0%,0%);fill-opacity:1;stroke-width:0.75;stroke-linecap:round;stroke-linejoin:round;stroke:rgb(0%,0%,0%);stroke-opacity:1;stroke-miterlimit:10;" d="M 242.066406 102.074219 L 233.621094 60.40625 L 233.785156 60.375 L 242.226563 102.042969 Z M 242.066406 102.074219 "/>
<path style="fill-rule:nonzero;fill:rgb(0%,0%,0%);fill-opacity:1;stroke-width:0.75;stroke-linecap:round;stroke-linejoin:round;stroke:rgb(0%,0%,0%);stroke-opacity:1;stroke-miterlimit:10;" d="M 241.691406 102.21875 L 228 73.292969 L 228.148438 73.222656 L 241.84375 102.148438 Z M 241.691406 102.21875 "/>
<path style="fill-rule:nonzero;fill:rgb(0%,0%,0%);fill-opacity:1;stroke-width:0.75;stroke-linecap:round;stroke-linejoin:round;stroke:rgb(0%,0%,0%);stroke-opacity:1;stroke-miterlimit:10;" d="M 240.933594 103.078125 L 204.292969 86.632813 L 204.363281 86.484375 L 241 102.925781 Z M 240.933594 103.078125 "/>
<path style="fill-rule:nonzero;fill:rgb(0%,0%,0%);fill-opacity:1;stroke-width:0.75;stroke-linecap:round;stroke-linejoin:round;stroke:rgb(0%,0%,0%);stroke-opacity:1;stroke-miterlimit:10;" d="M 275.050781 124.851563 L 266.507813 135.972656 L 266.378906 135.875 L 274.921875 124.75 Z M 275.050781 124.851563 "/>
<path style="fill-rule:nonzero;fill:rgb(0%,0%,0%);fill-opacity:1;stroke-width:0.75;stroke-linecap:round;stroke-linejoin:round;stroke:rgb(0%,0%,0%);stroke-opacity:1;stroke-miterlimit:10;" d="M 277.601563 123.882813 L 305.597656 132.207031 L 305.550781 132.363281 L 277.554688 124.039063 Z M 277.601563 123.882813 "/>
<path style="fill-rule:nonzero;fill:rgb(0%,0%,0%);fill-opacity:1;stroke-width:0.75;stroke-linecap:round;stroke-linejoin:round;stroke:rgb(0%,0%,0%);stroke-opacity:1;stroke-miterlimit:10;" d="M 274.644531 122.53125 L 252.757813 105.335938 L 252.859375 105.207031 L 274.746094 122.402344 Z M 274.644531 122.53125 "/>
<path style="fill-rule:nonzero;fill:rgb(0%,0%,0%);fill-opacity:1;stroke-width:0.75;stroke-linecap:round;stroke-linejoin:round;stroke:rgb(0%,0%,0%);stroke-opacity:1;stroke-miterlimit:10;" d="M 322.304688 104.421875 L 319.601563 86.25 L 319.765625 86.226563 L 322.46875 104.398438 Z M 322.304688 104.421875 "/>
<path style="fill-rule:nonzero;fill:rgb(0%,0%,0%);fill-opacity:1;stroke-width:0.75;stroke-linecap:round;stroke-linejoin:round;stroke:rgb(0%,0%,0%);stroke-opacity:1;stroke-miterlimit:10;" d="M 321.65625 104.707031 L 316.738281 97.179688 L 316.878906 97.089844 L 321.796875 104.613281 Z M 321.65625 104.707031 "/>
<path style="fill-rule:nonzero;fill:rgb(0%,0%,0%);fill-opacity:1;stroke-width:0.75;stroke-linecap:round;stroke-linejoin:round;stroke:rgb(0%,0%,0%);stroke-opacity:1;stroke-miterlimit:10;" d="M 312.121094 77.050781 L 318.339844 83.367188 L 318.21875 83.484375 L 312 77.167969 Z M 312.121094 77.050781 "/>
<path style="fill-rule:nonzero;fill:rgb(0%,0%,0%);fill-opacity:1;stroke-width:0.75;stroke-linecap:round;stroke-linejoin:round;stroke:rgb(0%,0%,0%);stroke-opacity:1;stroke-miterlimit:10;" d="M 311.386719 77.515625 L 315.578125 94.125 L 315.417969 94.167969 L 311.226563 77.554688 Z M 311.386719 77.515625 "/>
<path style="fill-rule:nonzero;fill:rgb(0%,0%,0%);fill-opacity:1;stroke-width:0.75;stroke-linecap:round;stroke-linejoin:round;stroke:rgb(0%,0%,0%);stroke-opacity:1;stroke-miterlimit:10;" d="M 312.15625 74.851563 L 331.785156 59.609375 L 331.886719 59.738281 L 312.257813 74.984375 Z M 312.15625 74.851563 "/>
<path style="fill-rule:nonzero;fill:rgb(0%,0%,0%);fill-opacity:1;stroke-width:0.75;stroke-linecap:round;stroke-linejoin:round;stroke:rgb(0%,0%,0%);stroke-opacity:1;stroke-miterlimit:10;" d="M 320.140625 83.101563 L 332.296875 60.082031 L 332.441406 60.160156 L 320.285156 83.179688 Z M 320.140625 83.101563 "/>
<path style="fill-rule:nonzero;fill:rgb(0%,0%,0%);fill-opacity:1;stroke-width:0.75;stroke-linecap:round;stroke-linejoin:round;stroke:rgb(0%,0%,0%);stroke-opacity:1;stroke-miterlimit:10;" d="M 235.828125 99.4375 L 219.378906 118.632813 L 219.25 118.523438 L 235.703125 99.328125 Z M 235.828125 99.4375 "/>
<path style="fill-rule:nonzero;fill:rgb(0%,0%,0%);fill-opacity:1;stroke-width:0.75;stroke-linecap:round;stroke-linejoin:round;stroke:rgb(0%,0%,0%);stroke-opacity:1;stroke-miterlimit:10;" d="M 235.257813 97.644531 L 204.347656 86.519531 L 204.402344 86.363281 L 235.316406 97.492188 Z M 235.257813 97.644531 "/>
<path style="fill-rule:nonzero;fill:rgb(0%,0%,0%);fill-opacity:1;stroke-width:0.75;stroke-linecap:round;stroke-linejoin:round;stroke:rgb(0%,0%,0%);stroke-opacity:1;stroke-miterlimit:10;" d="M 235.269531 97.609375 L 208.960938 87.449219 L 209.019531 87.296875 L 235.332031 97.457031 Z M 235.269531 97.609375 "/>
<path style="fill-rule:nonzero;fill:rgb(0%,0%,0%);fill-opacity:1;stroke-width:0.75;stroke-linecap:round;stroke-linejoin:round;stroke:rgb(0%,0%,0%);stroke-opacity:1;stroke-miterlimit:10;" d="M 205.835938 122.71875 L 207.296875 88.425781 L 207.460938 88.433594 L 206 122.722656 Z M 205.835938 122.71875 "/>
<path style="fill-rule:nonzero;fill:rgb(0%,0%,0%);fill-opacity:1;stroke-width:0.75;stroke-linecap:round;stroke-linejoin:round;stroke:rgb(0%,0%,0%);stroke-opacity:1;stroke-miterlimit:10;" d="M 249.941406 103.71875 L 208.957031 87.464844 L 209.015625 87.308594 L 250 103.5625 Z M 249.941406 103.71875 "/>
<path style="fill-rule:nonzero;fill:rgb(0%,0%,0%);fill-opacity:1;stroke-width:0.75;stroke-linecap:round;stroke-linejoin:round;stroke:rgb(0%,0%,0%);stroke-opacity:1;stroke-miterlimit:10;" d="M 172.820313 81.132813 L 201.199219 85.546875 L 201.175781 85.707031 L 172.792969 81.296875 Z M 172.820313 81.132813 "/>
<path style="fill-rule:nonzero;fill:rgb(0%,0%,0%);fill-opacity:1;stroke-width:0.75;stroke-linecap:round;stroke-linejoin:round;stroke:rgb(0%,0%,0%);stroke-opacity:1;stroke-miterlimit:10;" d="M 172.820313 81.140625 L 205.828125 86.433594 L 205.804688 86.597656 L 172.792969 81.304688 Z M 172.820313 81.140625 "/>
<path style="fill-rule:nonzero;fill:rgb(0%,0%,0%);fill-opacity:1;stroke-width:0.75;stroke-linecap:round;stroke-linejoin:round;stroke:rgb(0%,0%,0%);stroke-opacity:1;stroke-miterlimit:10;" d="M 174.613281 100.75 L 201.320313 86.582031 L 201.398438 86.730469 L 174.691406 100.898438 Z M 174.613281 100.75 "/>
<path style="fill-rule:nonzero;fill:rgb(0%,0%,0%);fill-opacity:1;stroke-width:0.75;stroke-linecap:round;stroke-linejoin:round;stroke:rgb(0%,0%,0%);stroke-opacity:1;stroke-miterlimit:10;" d="M 174.675781 100.867188 L 205.898438 87.359375 L 205.964844 87.511719 L 174.742188 101.019531 Z M 174.675781 100.867188 "/>
<path style="fill-rule:nonzero;fill:rgb(0%,0%,0%);fill-opacity:1;stroke-width:0.75;stroke-linecap:round;stroke-linejoin:round;stroke:rgb(0%,0%,0%);stroke-opacity:1;stroke-miterlimit:10;" d="M 172.453125 92.550781 L 201.1875 86.160156 L 201.222656 86.320313 L 172.492188 92.710938 Z M 172.453125 92.550781 "/>
<path style="fill-rule:nonzero;fill:rgb(0%,0%,0%);fill-opacity:1;stroke-width:0.75;stroke-linecap:round;stroke-linejoin:round;stroke:rgb(0%,0%,0%);stroke-opacity:1;stroke-miterlimit:10;" d="M 172.476563 92.632813 L 205.804688 86.972656 L 205.832031 87.136719 L 172.503906 92.792969 Z M 172.476563 92.632813 "/>
<path style="fill-rule:nonzero;fill:rgb(0%,0%,0%);fill-opacity:1;stroke-width:0.75;stroke-linecap:round;stroke-linejoin:round;stroke:rgb(0%,0%,0%);stroke-opacity:1;stroke-miterlimit:10;" d="M 237.585938 119.316406 L 208.515625 88.042969 L 208.636719 87.933594 L 237.707031 119.203125 Z M 237.585938 119.316406 "/>
<path style="fill-rule:nonzero;fill:rgb(0%,0%,0%);fill-opacity:1;stroke-width:0.75;stroke-linecap:round;stroke-linejoin:round;stroke:rgb(0%,0%,0%);stroke-opacity:1;stroke-miterlimit:10;" d="M 176.976563 70.785156 L 201.433594 84.980469 L 201.347656 85.121094 L 176.894531 70.929688 Z M 176.976563 70.785156 "/>
<path style="fill-rule:nonzero;fill:rgb(0%,0%,0%);fill-opacity:1;stroke-width:0.75;stroke-linecap:round;stroke-linejoin:round;stroke:rgb(0%,0%,0%);stroke-opacity:1;stroke-miterlimit:10;" d="M 177.007813 70.722656 L 206.023438 85.9375 L 205.945313 86.082031 L 176.929688 70.867188 Z M 177.007813 70.722656 "/>
<path style="fill-rule:nonzero;fill:rgb(0%,0%,0%);fill-opacity:1;stroke-width:0.75;stroke-linecap:round;stroke-linejoin:round;stroke:rgb(0%,0%,0%);stroke-opacity:1;stroke-miterlimit:10;" d="M 180.824219 110.691406 L 201.664063 87.066406 L 201.789063 87.175781 L 180.945313 110.800781 Z M 180.824219 110.691406 "/>
<path style="fill-rule:nonzero;fill:rgb(0%,0%,0%);fill-opacity:1;stroke-width:0.75;stroke-linecap:round;stroke-linejoin:round;stroke:rgb(0%,0%,0%);stroke-opacity:1;stroke-miterlimit:10;" d="M 180.957031 110.808594 L 206.171875 87.832031 L 206.28125 87.953125 L 181.070313 110.933594 Z M 180.957031 110.808594 "/>
<path style="fill-rule:nonzero;fill:rgb(0%,0%,0%);fill-opacity:1;stroke-width:0.75;stroke-linecap:round;stroke-linejoin:round;stroke:rgb(0%,0%,0%);stroke-opacity:1;stroke-miterlimit:10;" d="M 209.75 48.382813 L 232.105469 29.625 L 232.210938 29.75 L 209.855469 48.507813 Z M 209.75 48.382813 "/>
<path style="fill-rule:nonzero;fill:rgb(0%,0%,0%);fill-opacity:1;stroke-width:0.75;stroke-linecap:round;stroke-linejoin:round;stroke:rgb(0%,0%,0%);stroke-opacity:1;stroke-miterlimit:10;" d="M 210.113281 50.007813 L 231.855469 58.117188 L 231.796875 58.269531 L 210.054688 50.164063 Z M 210.113281 50.007813 "/>
<path style="fill-rule:nonzero;fill:rgb(0%,0%,0%);fill-opacity:1;stroke-width:0.75;stroke-linecap:round;stroke-linejoin:round;stroke:rgb(0%,0%,0%);stroke-opacity:1;stroke-miterlimit:10;" d="M 206.984375 50.082031 L 191.796875 54.851563 L 191.746094 54.695313 L 206.933594 49.925781 Z M 206.984375 50.082031 "/>
<path style="fill-rule:nonzero;fill:rgb(0%,0%,0%);fill-opacity:1;stroke-width:0.75;stroke-linecap:round;stroke-linejoin:round;stroke:rgb(0%,0%,0%);stroke-opacity:1;stroke-miterlimit:10;" d="M 208.359375 51.152344 L 203.160156 84.261719 L 202.996094 84.234375 L 208.199219 51.128906 Z M 208.359375 51.152344 "/>
<path style="fill-rule:nonzero;fill:rgb(0%,0%,0%);fill-opacity:1;stroke-width:0.75;stroke-linecap:round;stroke-linejoin:round;stroke:rgb(0%,0%,0%);stroke-opacity:1;stroke-miterlimit:10;" d="M 208.570313 51.164063 L 207.578125 85.128906 L 207.414063 85.121094 L 208.40625 51.15625 Z M 208.570313 51.164063 "/>
<path style="fill-rule:nonzero;fill:rgb(0%,0%,0%);fill-opacity:1;stroke-width:0.75;stroke-linecap:round;stroke-linejoin:round;stroke:rgb(0%,0%,0%);stroke-opacity:1;stroke-miterlimit:10;" d="M 251.53125 31.765625 L 235.042969 28.980469 L 235.070313 28.816406 L 251.558594 31.601563 Z M 251.53125 31.765625 "/>
<path style="fill-rule:nonzero;fill:rgb(0%,0%,0%);fill-opacity:1;stroke-width:0.75;stroke-linecap:round;stroke-linejoin:round;stroke:rgb(0%,0%,0%);stroke-opacity:1;stroke-miterlimit:10;" d="M 252.257813 33.335938 L 234.421875 57.488281 L 234.289063 57.390625 L 252.125 33.238281 Z M 252.257813 33.335938 "/>
<path style="fill-rule:nonzero;fill:rgb(0%,0%,0%);fill-opacity:1;stroke-width:0.75;stroke-linecap:round;stroke-linejoin:round;stroke:rgb(0%,0%,0%);stroke-opacity:1;stroke-miterlimit:10;" d="M 252.882813 33.585938 L 245.125 66.945313 L 244.964844 66.910156 L 252.71875 33.550781 Z M 252.882813 33.585938 "/>
<path style="fill-rule:nonzero;fill:rgb(0%,0%,0%);fill-opacity:1;stroke-width:0.75;stroke-linecap:round;stroke-linejoin:round;stroke:rgb(0%,0%,0%);stroke-opacity:1;stroke-miterlimit:10;" d="M 233.953125 30.191406 L 244.300781 66.925781 L 244.140625 66.96875 L 233.792969 30.238281 Z M 233.953125 30.191406 "/>
<path style="fill-rule:nonzero;fill:rgb(0%,0%,0%);fill-opacity:1;stroke-width:0.75;stroke-linecap:round;stroke-linejoin:round;stroke:rgb(0%,0%,0%);stroke-opacity:1;stroke-miterlimit:10;" d="M 178.191406 53.714844 L 188.5625 54.984375 L 188.542969 55.148438 L 178.171875 53.878906 Z M 178.191406 53.714844 "/>
<path style="fill-rule:nonzero;fill:rgb(0%,0%,0%);fill-opacity:1;stroke-width:0.75;stroke-linecap:round;stroke-linejoin:round;stroke:rgb(0%,0%,0%);stroke-opacity:1;stroke-miterlimit:10;" d="M 177.730469 54.75 L 206.382813 85.511719 L 206.261719 85.625 L 177.609375 54.863281 Z M 177.730469 54.75 "/>
<path style="fill-rule:nonzero;fill:rgb(0%,0%,0%);fill-opacity:1;stroke-width:0.75;stroke-linecap:round;stroke-linejoin:round;stroke:rgb(0%,0%,0%);stroke-opacity:1;stroke-miterlimit:10;" d="M 232.3125 60.039063 L 208.632813 85.621094 L 208.511719 85.507813 L 232.191406 59.929688 Z M 232.3125 60.039063 "/>
<path style="fill-rule:nonzero;fill:rgb(0%,0%,0%);fill-opacity:1;stroke-width:0.75;stroke-linecap:round;stroke-linejoin:round;stroke:rgb(0%,0%,0%);stroke-opacity:1;stroke-miterlimit:10;" d="M 228.976563 71.378906 L 243.027344 68.757813 L 243.058594 68.921875 L 229.007813 71.539063 Z M 228.976563 71.378906 "/>
<path style="fill-rule:nonzero;fill:rgb(0%,0%,0%);fill-opacity:1;stroke-width:0.75;stroke-linecap:round;stroke-linejoin:round;stroke:rgb(0%,0%,0%);stroke-opacity:1;stroke-miterlimit:10;" d="M 226.097656 72.824219 L 208.820313 85.847656 L 208.71875 85.714844 L 225.996094 72.691406 Z M 226.097656 72.824219 "/>
<path style="fill-rule:nonzero;fill:rgb(0%,0%,0%);fill-opacity:1;stroke-width:0.75;stroke-linecap:round;stroke-linejoin:round;stroke:rgb(0%,0%,0%);stroke-opacity:1;stroke-miterlimit:10;" d="M 190.902344 56.765625 L 202.265625 84.320313 L 202.113281 84.382813 L 190.75 56.828125 Z M 190.902344 56.765625 "/>
<path style="fill-rule:nonzero;fill:rgb(0%,0%,0%);fill-opacity:1;stroke-width:0.75;stroke-linecap:round;stroke-linejoin:round;stroke:rgb(0%,0%,0%);stroke-opacity:1;stroke-miterlimit:10;" d="M 191.0625 56.679688 L 206.726563 85.289063 L 206.582031 85.367188 L 190.914063 56.757813 Z M 191.0625 56.679688 "/>
<path style="fill-rule:nonzero;fill:rgb(0%,0%,0%);fill-opacity:1;stroke-width:0.75;stroke-linecap:round;stroke-linejoin:round;stroke:rgb(0%,0%,0%);stroke-opacity:1;stroke-miterlimit:10;" d="M 217.480469 118.363281 L 203.429688 87.421875 L 203.578125 87.351563 L 217.628906 118.292969 Z M 217.480469 118.363281 "/>
<path style="fill-rule:nonzero;fill:rgb(0%,0%,0%);fill-opacity:1;stroke-width:0.75;stroke-linecap:round;stroke-linejoin:round;stroke:rgb(0%,0%,0%);stroke-opacity:1;stroke-miterlimit:10;" d="M 217.648438 118.285156 L 207.882813 88.375 L 208.039063 88.324219 L 217.804688 118.234375 Z M 217.648438 118.285156 "/>
<path style="fill-rule:nonzero;fill:rgb(0%,0%,0%);fill-opacity:1;stroke-width:0.75;stroke-linecap:round;stroke-linejoin:round;stroke:rgb(0%,0%,0%);stroke-opacity:1;stroke-miterlimit:10;" d="M 243.171875 69.246094 L 204.378906 85.324219 L 204.316406 85.171875 L 243.109375 69.09375 Z M 243.171875 69.246094 "/>
<path style="fill-rule:nonzero;fill:rgb(0%,0%,0%);fill-opacity:1;stroke-width:0.75;stroke-linecap:round;stroke-linejoin:round;stroke:rgb(0%,0%,0%);stroke-opacity:1;stroke-miterlimit:10;" d="M 243.222656 69.339844 L 208.96875 86.125 L 208.898438 85.976563 L 243.148438 69.191406 Z M 243.222656 69.339844 "/>
<path style="fill-rule:nonzero;fill:rgb(0%,0%,0%);fill-opacity:1;stroke-width:0.75;stroke-linecap:round;stroke-linejoin:round;stroke:rgb(0%,0%,0%);stroke-opacity:1;stroke-miterlimit:10;" d="M 204.460938 86.113281 L 205.839844 86.382813 L 205.808594 86.542969 L 204.425781 86.277344 Z M 204.460938 86.113281 "/>
<path style="fill-rule:nonzero;fill:rgb(87.45098%,32.54902%,41.960784%);fill-opacity:1;stroke-width:0.75;stroke-linecap:round;stroke-linejoin:round;stroke:rgb(0%,0%,0%);stroke-opacity:1;stroke-miterlimit:10;" d="M 283.15625 108 L 283.117188 107.796875 L 283.054688 107.597656 L 282.964844 107.410156 L 282.851563 107.234375 L 282.71875 107.074219 L 282.570313 106.933594 L 282.402344 106.8125 L 282.21875 106.710938 L 282.023438 106.632813 L 281.824219 106.582031 L 281.617188 106.554688 L 281.410156 106.554688 L 281.203125 106.582031 L 281.003906 106.632813 L 280.808594 106.710938 L 280.625 106.8125 L 280.457031 106.933594 L 280.308594 107.074219 L 280.175781 107.234375 L 280.0625 107.410156 L 279.972656 107.597656 L 279.910156 107.796875 L 279.871094 108 L 279.859375 108.207031 L 279.871094 108.417969 L 279.910156 108.621094 L 279.972656 108.816406 L 280.0625 109.007813 L 280.175781 109.183594 L 280.308594 109.34375 L 280.457031 109.484375 L 280.625 109.605469 L 280.808594 109.707031 L 281.003906 109.785156 L 281.203125 109.835938 L 281.410156 109.859375 L 281.617188 109.859375 L 281.824219 109.835938 L 282.023438 109.785156 L 282.21875 109.707031 L 282.402344 109.605469 L 282.570313 109.484375 L 282.71875 109.34375 L 282.851563 109.183594 L 282.964844 109.007813 L 283.054688 108.816406 L 283.117188 108.621094 L 283.15625 108.417969 L 283.167969 108.207031 Z M 283.15625 108 "/>
<path style="fill-rule:nonzero;fill:rgb(87.45098%,32.54902%,41.960784%);fill-opacity:1;stroke-width:0.75;stroke-linecap:round;stroke-linejoin:round;stroke:rgb(0%,0%,0%);stroke-opacity:1;stroke-miterlimit:10;" d="M 258.109375 133.679688 L 258.070313 133.476563 L 258.007813 133.277344 L 257.917969 133.089844 L 257.808594 132.914063 L 257.675781 132.753906 L 257.523438 132.613281 L 257.355469 132.492188 L 257.171875 132.390625 L 256.980469 132.3125 L 256.777344 132.261719 L 256.570313 132.234375 L 256.363281 132.234375 L 256.15625 132.261719 L 255.957031 132.3125 L 255.761719 132.390625 L 255.582031 132.492188 L 255.414063 132.613281 L 255.261719 132.753906 L 255.128906 132.914063 L 255.015625 133.089844 L 254.929688 133.277344 L 254.863281 133.476563 L 254.824219 133.679688 L 254.8125 133.886719 L 254.824219 134.097656 L 254.863281 134.300781 L 254.929688 134.496094 L 255.015625 134.6875 L 255.128906 134.863281 L 255.261719 135.023438 L 255.414063 135.164063 L 255.582031 135.285156 L 255.761719 135.386719 L 255.957031 135.464844 L 256.15625 135.515625 L 256.363281 135.539063 L 256.570313 135.539063 L 256.777344 135.515625 L 256.980469 135.464844 L 257.171875 135.386719 L 257.355469 135.285156 L 257.523438 135.164063 L 257.675781 135.023438 L 257.808594 134.863281 L 257.917969 134.6875 L 258.007813 134.496094 L 258.070313 134.300781 L 258.109375 134.097656 L 258.125 133.886719 Z M 258.109375 133.679688 "/>
<path style="fill-rule:nonzero;fill:rgb(87.45098%,32.54902%,41.960784%);fill-opacity:1;stroke-width:0.75;stroke-linecap:round;stroke-linejoin:round;stroke:rgb(0%,0%,0%);stroke-opacity:1;stroke-miterlimit:10;" d="M 244.117188 103.472656 L 244.078125 103.265625 L 244.015625 103.070313 L 243.925781 102.882813 L 243.8125 102.707031 L 243.679688 102.546875 L 243.53125 102.402344 L 243.363281 102.28125 L 243.179688 102.179688 L 242.984375 102.105469 L 242.785156 102.054688 L 242.578125 102.027344 L 242.371094 102.027344 L 242.164063 102.054688 L 241.964844 102.105469 L 241.769531 102.179688 L 241.585938 102.28125 L 241.417969 102.402344 L 241.269531 102.546875 L 241.136719 102.707031 L 241.023438 102.882813 L 240.933594 103.070313 L 240.871094 103.265625 L 240.832031 103.472656 L 240.820313 103.679688 L 240.832031 103.886719 L 240.871094 104.089844 L 240.933594 104.289063 L 241.023438 104.476563 L 241.136719 104.652344 L 241.269531 104.8125 L 241.417969 104.953125 L 241.585938 105.078125 L 241.769531 105.175781 L 241.964844 105.253906 L 242.164063 105.304688 L 242.371094 105.332031 L 242.578125 105.332031 L 242.785156 105.304688 L 242.984375 105.253906 L 243.179688 105.175781 L 243.363281 105.078125 L 243.53125 104.953125 L 243.679688 104.8125 L 243.8125 104.652344 L 243.925781 104.476563 L 244.015625 104.289063 L 244.078125 104.089844 L 244.117188 103.886719 L 244.128906 103.679688 Z M 244.117188 103.472656 "/>
<path style="fill-rule:nonzero;fill:rgb(87.45098%,32.54902%,41.960784%);fill-opacity:1;stroke-width:0.75;stroke-linecap:round;stroke-linejoin:round;stroke:rgb(0%,0%,0%);stroke-opacity:1;stroke-miterlimit:10;" d="M 277.636719 123.28125 L 277.597656 123.078125 L 277.535156 122.878906 L 277.445313 122.691406 L 277.332031 122.515625 L 277.199219 122.355469 L 277.050781 122.214844 L 276.882813 122.089844 L 276.699219 121.992188 L 276.503906 121.914063 L 276.304688 121.863281 L 276.097656 121.835938 L 275.890625 121.835938 L 275.683594 121.863281 L 275.484375 121.914063 L 275.289063 121.992188 L 275.105469 122.089844 L 274.9375 122.214844 L 274.789063 122.355469 L 274.65625 122.515625 L 274.542969 122.691406 L 274.453125 122.878906 L 274.390625 123.078125 L 274.351563 123.28125 L 274.339844 123.488281 L 274.351563 123.695313 L 274.390625 123.902344 L 274.453125 124.097656 L 274.542969 124.285156 L 274.65625 124.460938 L 274.789063 124.621094 L 274.9375 124.765625 L 275.105469 124.886719 L 275.289063 124.988281 L 275.484375 125.0625 L 275.683594 125.113281 L 275.890625 125.140625 L 276.097656 125.140625 L 276.304688 125.113281 L 276.503906 125.0625 L 276.699219 124.988281 L 276.882813 124.886719 L 277.050781 124.765625 L 277.199219 124.621094 L 277.332031 124.460938 L 277.445313 124.285156 L 277.535156 124.097656 L 277.597656 123.902344 L 277.636719 123.695313 L 277.648438 123.488281 Z M 277.636719 123.28125 "/>
<path style="fill-rule:nonzero;fill:rgb(87.45098%,32.54902%,41.960784%);fill-opacity:1;stroke-width:0.75;stroke-linecap:round;stroke-linejoin:round;stroke:rgb(0%,0%,0%);stroke-opacity:1;stroke-miterlimit:10;" d="M 324.273438 105.835938 L 324.234375 105.632813 L 324.171875 105.433594 L 324.082031 105.246094 L 323.96875 105.070313 L 323.835938 104.910156 L 323.6875 104.769531 L 323.519531 104.644531 L 323.335938 104.546875 L 323.140625 104.46875 L 322.941406 104.417969 L 322.734375 104.390625 L 322.527344 104.390625 L 322.320313 104.417969 L 322.121094 104.46875 L 321.925781 104.546875 L 321.742188 104.644531 L 321.574219 104.769531 L 321.425781 104.910156 L 321.292969 105.070313 L 321.179688 105.246094 L 321.089844 105.433594 L 321.027344 105.632813 L 320.988281 105.835938 L 320.976563 106.042969 L 320.988281 106.25 L 321.027344 106.457031 L 321.089844 106.652344 L 321.179688 106.839844 L 321.292969 107.015625 L 321.425781 107.175781 L 321.574219 107.320313 L 321.742188 107.441406 L 321.925781 107.542969 L 322.121094 107.617188 L 322.320313 107.671875 L 322.527344 107.695313 L 322.734375 107.695313 L 322.941406 107.671875 L 323.140625 107.617188 L 323.335938 107.542969 L 323.519531 107.441406 L 323.6875 107.320313 L 323.835938 107.175781 L 323.96875 107.015625 L 324.082031 106.839844 L 324.171875 106.652344 L 324.234375 106.457031 L 324.273438 106.25 L 324.285156 106.042969 Z M 324.273438 105.835938 "/>
<path style="fill-rule:nonzero;fill:rgb(87.45098%,32.54902%,41.960784%);fill-opacity:1;stroke-width:0.75;stroke-linecap:round;stroke-linejoin:round;stroke:rgb(0%,0%,0%);stroke-opacity:1;stroke-miterlimit:10;" d="M 312.542969 75.722656 L 312.503906 75.519531 L 312.441406 75.324219 L 312.351563 75.132813 L 312.238281 74.957031 L 312.105469 74.796875 L 311.957031 74.65625 L 311.789063 74.535156 L 311.605469 74.433594 L 311.410156 74.359375 L 311.210938 74.304688 L 311.003906 74.28125 L 310.796875 74.28125 L 310.589844 74.304688 L 310.386719 74.359375 L 310.195313 74.433594 L 310.011719 74.535156 L 309.84375 74.65625 L 309.695313 74.796875 L 309.5625 74.957031 L 309.449219 75.132813 L 309.359375 75.324219 L 309.296875 75.519531 L 309.257813 75.722656 L 309.246094 75.933594 L 309.257813 76.140625 L 309.296875 76.34375 L 309.359375 76.542969 L 309.449219 76.730469 L 309.5625 76.90625 L 309.695313 77.066406 L 309.84375 77.207031 L 310.011719 77.328125 L 310.195313 77.429688 L 310.386719 77.507813 L 310.589844 77.558594 L 310.796875 77.585938 L 311.003906 77.585938 L 311.210938 77.558594 L 311.410156 77.507813 L 311.605469 77.429688 L 311.789063 77.328125 L 311.957031 77.207031 L 312.105469 77.066406 L 312.238281 76.90625 L 312.351563 76.730469 L 312.441406 76.542969 L 312.503906 76.34375 L 312.542969 76.140625 L 312.554688 75.933594 Z M 312.542969 75.722656 "/>
<path style="fill-rule:nonzero;fill:rgb(87.45098%,32.54902%,41.960784%);fill-opacity:1;stroke-width:0.75;stroke-linecap:round;stroke-linejoin:round;stroke:rgb(0%,0%,0%);stroke-opacity:1;stroke-miterlimit:10;" d="M 321.082031 84.394531 L 321.042969 84.191406 L 320.980469 83.992188 L 320.890625 83.804688 L 320.777344 83.628906 L 320.648438 83.46875 L 320.496094 83.328125 L 320.328125 83.203125 L 320.144531 83.105469 L 319.953125 83.027344 L 319.75 82.976563 L 319.542969 82.949219 L 319.335938 82.949219 L 319.128906 82.976563 L 318.929688 83.027344 L 318.734375 83.105469 L 318.550781 83.203125 L 318.382813 83.328125 L 318.234375 83.46875 L 318.101563 83.628906 L 317.988281 83.804688 L 317.902344 83.992188 L 317.835938 84.191406 L 317.796875 84.394531 L 317.785156 84.601563 L 317.796875 84.808594 L 317.835938 85.015625 L 317.902344 85.210938 L 317.988281 85.398438 L 318.101563 85.574219 L 318.234375 85.734375 L 318.382813 85.878906 L 318.550781 86 L 318.734375 86.101563 L 318.929688 86.175781 L 319.128906 86.230469 L 319.335938 86.253906 L 319.542969 86.253906 L 319.75 86.230469 L 319.953125 86.175781 L 320.144531 86.101563 L 320.328125 86 L 320.496094 85.878906 L 320.648438 85.734375 L 320.777344 85.574219 L 320.890625 85.398438 L 320.980469 85.210938 L 321.042969 85.015625 L 321.082031 84.808594 L 321.09375 84.601563 Z M 321.082031 84.394531 "/>
<path style="fill-rule:nonzero;fill:rgb(87.45098%,32.54902%,41.960784%);fill-opacity:1;stroke-width:0.75;stroke-linecap:round;stroke-linejoin:round;stroke:rgb(0%,0%,0%);stroke-opacity:1;stroke-miterlimit:10;" d="M 267.078125 137.027344 L 267.039063 136.824219 L 266.976563 136.625 L 266.886719 136.4375 L 266.773438 136.261719 L 266.640625 136.101563 L 266.492188 135.960938 L 266.324219 135.835938 L 266.140625 135.738281 L 265.945313 135.660156 L 265.746094 135.609375 L 265.539063 135.582031 L 265.332031 135.582031 L 265.125 135.609375 L 264.925781 135.660156 L 264.730469 135.738281 L 264.546875 135.835938 L 264.378906 135.960938 L 264.230469 136.101563 L 264.097656 136.261719 L 263.984375 136.4375 L 263.894531 136.625 L 263.832031 136.824219 L 263.792969 137.027344 L 263.78125 137.234375 L 263.792969 137.441406 L 263.832031 137.648438 L 263.894531 137.84375 L 263.984375 138.03125 L 264.097656 138.207031 L 264.230469 138.367188 L 264.378906 138.511719 L 264.546875 138.632813 L 264.730469 138.734375 L 264.925781 138.808594 L 265.125 138.859375 L 265.332031 138.886719 L 265.539063 138.886719 L 265.746094 138.859375 L 265.945313 138.808594 L 266.140625 138.734375 L 266.324219 138.632813 L 266.492188 138.511719 L 266.640625 138.367188 L 266.773438 138.207031 L 266.886719 138.03125 L 266.976563 137.84375 L 267.039063 137.648438 L 267.078125 137.441406 L 267.089844 137.234375 Z M 267.078125 137.027344 "/>
<path style="fill-rule:nonzero;fill:rgb(87.45098%,32.54902%,41.960784%);fill-opacity:1;stroke-width:0.75;stroke-linecap:round;stroke-linejoin:round;stroke:rgb(0%,0%,0%);stroke-opacity:1;stroke-miterlimit:10;" d="M 238.484375 97.921875 L 238.445313 97.714844 L 238.382813 97.519531 L 238.292969 97.332031 L 238.183594 97.15625 L 238.050781 96.996094 L 237.898438 96.851563 L 237.730469 96.730469 L 237.546875 96.628906 L 237.355469 96.554688 L 237.152344 96.503906 L 236.945313 96.476563 L 236.738281 96.476563 L 236.53125 96.503906 L 236.332031 96.554688 L 236.136719 96.628906 L 235.957031 96.730469 L 235.789063 96.851563 L 235.636719 96.996094 L 235.503906 97.15625 L 235.390625 97.332031 L 235.304688 97.519531 L 235.238281 97.714844 L 235.199219 97.921875 L 235.1875 98.128906 L 235.199219 98.335938 L 235.238281 98.539063 L 235.304688 98.738281 L 235.390625 98.925781 L 235.503906 99.101563 L 235.636719 99.261719 L 235.789063 99.402344 L 235.957031 99.527344 L 236.136719 99.625 L 236.332031 99.703125 L 236.53125 99.753906 L 236.738281 99.78125 L 236.945313 99.78125 L 237.152344 99.753906 L 237.355469 99.703125 L 237.546875 99.625 L 237.730469 99.527344 L 237.898438 99.402344 L 238.050781 99.261719 L 238.183594 99.101563 L 238.292969 98.925781 L 238.382813 98.738281 L 238.445313 98.539063 L 238.484375 98.335938 L 238.5 98.128906 Z M 238.484375 97.921875 "/>
<path style="fill-rule:nonzero;fill:rgb(87.45098%,32.54902%,41.960784%);fill-opacity:1;stroke-width:0.75;stroke-linecap:round;stroke-linejoin:round;stroke:rgb(0%,0%,0%);stroke-opacity:1;stroke-miterlimit:10;" d="M 207.488281 124.164063 L 207.449219 123.960938 L 207.386719 123.761719 L 207.296875 123.574219 L 207.1875 123.398438 L 207.054688 123.238281 L 206.902344 123.097656 L 206.734375 122.972656 L 206.550781 122.875 L 206.359375 122.796875 L 206.15625 122.746094 L 205.949219 122.71875 L 205.742188 122.71875 L 205.535156 122.746094 L 205.335938 122.796875 L 205.140625 122.875 L 204.960938 122.972656 L 204.792969 123.097656 L 204.640625 123.238281 L 204.507813 123.398438 L 204.394531 123.574219 L 204.308594 123.761719 L 204.242188 123.960938 L 204.203125 124.164063 L 204.191406 124.371094 L 204.203125 124.578125 L 204.242188 124.785156 L 204.308594 124.980469 L 204.394531 125.167969 L 204.507813 125.34375 L 204.640625 125.503906 L 204.792969 125.648438 L 204.960938 125.769531 L 205.140625 125.871094 L 205.335938 125.945313 L 205.535156 126 L 205.742188 126.023438 L 205.949219 126.023438 L 206.15625 126 L 206.359375 125.945313 L 206.550781 125.871094 L 206.734375 125.769531 L 206.902344 125.648438 L 207.054688 125.503906 L 207.1875 125.34375 L 207.296875 125.167969 L 207.386719 124.980469 L 207.449219 124.785156 L 207.488281 124.578125 L 207.503906 124.371094 Z M 207.488281 124.164063 "/>
<path style="fill-rule:nonzero;fill:rgb(87.45098%,32.54902%,41.960784%);fill-opacity:1;stroke-width:0.75;stroke-linecap:round;stroke-linejoin:round;stroke:rgb(0%,0%,0%);stroke-opacity:1;stroke-miterlimit:10;" d="M 317.546875 95.542969 L 317.507813 95.339844 L 317.441406 95.140625 L 317.355469 94.953125 L 317.242188 94.777344 L 317.109375 94.617188 L 316.957031 94.472656 L 316.789063 94.351563 L 316.609375 94.253906 L 316.414063 94.175781 L 316.214844 94.125 L 316.007813 94.097656 L 315.800781 94.097656 L 315.59375 94.125 L 315.390625 94.175781 L 315.199219 94.253906 L 315.015625 94.351563 L 314.847656 94.472656 L 314.695313 94.617188 L 314.5625 94.777344 L 314.453125 94.953125 L 314.363281 95.140625 L 314.300781 95.339844 L 314.261719 95.542969 L 314.246094 95.75 L 314.261719 95.957031 L 314.300781 96.160156 L 314.363281 96.359375 L 314.453125 96.546875 L 314.5625 96.722656 L 314.695313 96.882813 L 314.847656 97.027344 L 315.015625 97.148438 L 315.199219 97.246094 L 315.390625 97.324219 L 315.59375 97.375 L 315.800781 97.402344 L 316.007813 97.402344 L 316.214844 97.375 L 316.414063 97.324219 L 316.609375 97.246094 L 316.789063 97.148438 L 316.957031 97.027344 L 317.109375 96.882813 L 317.242188 96.722656 L 317.355469 96.546875 L 317.441406 96.359375 L 317.507813 96.160156 L 317.546875 95.957031 L 317.558594 95.75 Z M 317.546875 95.542969 "/>
<path style="fill-rule:nonzero;fill:rgb(87.45098%,32.54902%,41.960784%);fill-opacity:1;stroke-width:0.75;stroke-linecap:round;stroke-linejoin:round;stroke:rgb(0%,0%,0%);stroke-opacity:1;stroke-miterlimit:10;" d="M 322.191406 124.046875 L 322.152344 123.839844 L 322.085938 123.644531 L 322 123.457031 L 321.886719 123.28125 L 321.753906 123.121094 L 321.601563 122.976563 L 321.433594 122.855469 L 321.253906 122.753906 L 321.058594 122.679688 L 320.859375 122.625 L 320.652344 122.601563 L 320.445313 122.601563 L 320.238281 122.625 L 320.035156 122.679688 L 319.84375 122.753906 L 319.660156 122.855469 L 319.492188 122.976563 L 319.339844 123.121094 L 319.207031 123.28125 L 319.097656 123.457031 L 319.007813 123.644531 L 318.945313 123.839844 L 318.90625 124.046875 L 318.890625 124.253906 L 318.90625 124.460938 L 318.945313 124.664063 L 319.007813 124.863281 L 319.097656 125.050781 L 319.207031 125.226563 L 319.339844 125.386719 L 319.492188 125.527344 L 319.660156 125.652344 L 319.84375 125.75 L 320.035156 125.828125 L 320.238281 125.878906 L 320.445313 125.90625 L 320.652344 125.90625 L 320.859375 125.878906 L 321.058594 125.828125 L 321.253906 125.75 L 321.433594 125.652344 L 321.601563 125.527344 L 321.753906 125.386719 L 321.886719 125.226563 L 322 125.050781 L 322.085938 124.863281 L 322.152344 124.664063 L 322.191406 124.460938 L 322.203125 124.253906 Z M 322.191406 124.046875 "/>
<path style="fill-rule:nonzero;fill:rgb(87.45098%,32.54902%,41.960784%);fill-opacity:1;stroke-width:0.75;stroke-linecap:round;stroke-linejoin:round;stroke:rgb(0%,0%,0%);stroke-opacity:1;stroke-miterlimit:10;" d="M 308.800781 132.546875 L 308.761719 132.34375 L 308.699219 132.144531 L 308.609375 131.957031 L 308.5 131.78125 L 308.367188 131.621094 L 308.214844 131.480469 L 308.046875 131.359375 L 307.863281 131.257813 L 307.671875 131.179688 L 307.46875 131.128906 L 307.265625 131.105469 L 307.054688 131.105469 L 306.851563 131.128906 L 306.648438 131.179688 L 306.457031 131.257813 L 306.273438 131.359375 L 306.105469 131.480469 L 305.953125 131.621094 L 305.820313 131.78125 L 305.710938 131.957031 L 305.621094 132.144531 L 305.554688 132.34375 L 305.519531 132.546875 L 305.503906 132.757813 L 305.519531 132.964844 L 305.554688 133.167969 L 305.621094 133.367188 L 305.710938 133.554688 L 305.820313 133.730469 L 305.953125 133.890625 L 306.105469 134.03125 L 306.273438 134.152344 L 306.457031 134.253906 L 306.648438 134.332031 L 306.851563 134.382813 L 307.054688 134.40625 L 307.265625 134.40625 L 307.46875 134.382813 L 307.671875 134.332031 L 307.863281 134.253906 L 308.046875 134.152344 L 308.214844 134.03125 L 308.367188 133.890625 L 308.5 133.730469 L 308.609375 133.554688 L 308.699219 133.367188 L 308.761719 133.167969 L 308.800781 132.964844 L 308.816406 132.757813 Z M 308.800781 132.546875 "/>
<path style="fill-rule:nonzero;fill:rgb(87.45098%,32.54902%,41.960784%);fill-opacity:1;stroke-width:0.75;stroke-linecap:round;stroke-linejoin:round;stroke:rgb(0%,0%,0%);stroke-opacity:1;stroke-miterlimit:10;" d="M 253.148438 104.042969 L 253.109375 103.839844 L 253.046875 103.640625 L 252.957031 103.453125 L 252.847656 103.277344 L 252.714844 103.117188 L 252.5625 102.976563 L 252.394531 102.851563 L 252.210938 102.753906 L 252.019531 102.675781 L 251.816406 102.625 L 251.609375 102.597656 L 251.402344 102.597656 L 251.195313 102.625 L 250.996094 102.675781 L 250.800781 102.753906 L 250.621094 102.851563 L 250.453125 102.976563 L 250.300781 103.117188 L 250.167969 103.277344 L 250.054688 103.453125 L 249.96875 103.640625 L 249.902344 103.839844 L 249.863281 104.042969 L 249.851563 104.25 L 249.863281 104.457031 L 249.902344 104.664063 L 249.96875 104.859375 L 250.054688 105.046875 L 250.167969 105.222656 L 250.300781 105.382813 L 250.453125 105.527344 L 250.621094 105.648438 L 250.800781 105.75 L 250.996094 105.824219 L 251.195313 105.875 L 251.402344 105.902344 L 251.609375 105.902344 L 251.816406 105.875 L 252.019531 105.824219 L 252.210938 105.75 L 252.394531 105.648438 L 252.5625 105.527344 L 252.714844 105.382813 L 252.847656 105.222656 L 252.957031 105.046875 L 253.046875 104.859375 L 253.109375 104.664063 L 253.148438 104.457031 L 253.164063 104.25 Z M 253.148438 104.042969 "/>
<path style="fill-rule:nonzero;fill:rgb(87.45098%,32.54902%,41.960784%);fill-opacity:1;stroke-width:0.75;stroke-linecap:round;stroke-linejoin:round;stroke:rgb(0%,0%,0%);stroke-opacity:1;stroke-miterlimit:10;" d="M 172.816406 80.753906 L 172.777344 80.546875 L 172.710938 80.351563 L 172.625 80.164063 L 172.511719 79.988281 L 172.378906 79.828125 L 172.226563 79.683594 L 172.058594 79.5625 L 171.878906 79.460938 L 171.683594 79.386719 L 171.484375 79.332031 L 171.277344 79.308594 L 171.070313 79.308594 L 170.863281 79.332031 L 170.660156 79.386719 L 170.46875 79.460938 L 170.285156 79.5625 L 170.117188 79.683594 L 169.964844 79.828125 L 169.832031 79.988281 L 169.722656 80.164063 L 169.632813 80.351563 L 169.570313 80.546875 L 169.53125 80.753906 L 169.519531 80.960938 L 169.53125 81.167969 L 169.570313 81.371094 L 169.632813 81.570313 L 169.722656 81.757813 L 169.832031 81.933594 L 169.964844 82.09375 L 170.117188 82.234375 L 170.285156 82.359375 L 170.46875 82.457031 L 170.660156 82.535156 L 170.863281 82.585938 L 171.070313 82.613281 L 171.277344 82.613281 L 171.484375 82.585938 L 171.683594 82.535156 L 171.878906 82.457031 L 172.058594 82.359375 L 172.226563 82.234375 L 172.378906 82.09375 L 172.511719 81.933594 L 172.625 81.757813 L 172.710938 81.570313 L 172.777344 81.371094 L 172.816406 81.167969 L 172.828125 80.960938 Z M 172.816406 80.753906 "/>
<path style="fill-rule:nonzero;fill:rgb(87.45098%,32.54902%,41.960784%);fill-opacity:1;stroke-width:0.75;stroke-linecap:round;stroke-linejoin:round;stroke:rgb(0%,0%,0%);stroke-opacity:1;stroke-miterlimit:10;" d="M 174.832031 101.390625 L 174.792969 101.1875 L 174.730469 100.992188 L 174.640625 100.800781 L 174.53125 100.625 L 174.398438 100.464844 L 174.246094 100.324219 L 174.078125 100.203125 L 173.894531 100.101563 L 173.703125 100.023438 L 173.5 99.972656 L 173.292969 99.949219 L 173.085938 99.949219 L 172.878906 99.972656 L 172.679688 100.023438 L 172.484375 100.101563 L 172.304688 100.203125 L 172.136719 100.324219 L 171.984375 100.464844 L 171.851563 100.625 L 171.738281 100.800781 L 171.652344 100.992188 L 171.585938 101.1875 L 171.546875 101.390625 L 171.535156 101.601563 L 171.546875 101.808594 L 171.585938 102.011719 L 171.652344 102.210938 L 171.738281 102.398438 L 171.851563 102.574219 L 171.984375 102.734375 L 172.136719 102.875 L 172.304688 102.996094 L 172.484375 103.097656 L 172.679688 103.175781 L 172.878906 103.226563 L 173.085938 103.25 L 173.292969 103.25 L 173.5 103.226563 L 173.703125 103.175781 L 173.894531 103.097656 L 174.078125 102.996094 L 174.246094 102.875 L 174.398438 102.734375 L 174.53125 102.574219 L 174.640625 102.398438 L 174.730469 102.210938 L 174.792969 102.011719 L 174.832031 101.808594 L 174.847656 101.601563 Z M 174.832031 101.390625 "/>
<path style="fill-rule:nonzero;fill:rgb(87.45098%,32.54902%,41.960784%);fill-opacity:1;stroke-width:0.75;stroke-linecap:round;stroke-linejoin:round;stroke:rgb(0%,0%,0%);stroke-opacity:1;stroke-miterlimit:10;" d="M 334.785156 58.453125 L 334.746094 58.246094 L 334.679688 58.050781 L 334.59375 57.863281 L 334.480469 57.6875 L 334.347656 57.527344 L 334.195313 57.382813 L 334.027344 57.261719 L 333.847656 57.160156 L 333.652344 57.085938 L 333.453125 57.03125 L 333.246094 57.007813 L 333.039063 57.007813 L 332.832031 57.03125 L 332.628906 57.085938 L 332.4375 57.160156 L 332.253906 57.261719 L 332.085938 57.382813 L 331.933594 57.527344 L 331.800781 57.6875 L 331.691406 57.863281 L 331.601563 58.050781 L 331.539063 58.246094 L 331.5 58.453125 L 331.484375 58.660156 L 331.5 58.867188 L 331.539063 59.070313 L 331.601563 59.269531 L 331.691406 59.457031 L 331.800781 59.632813 L 331.933594 59.792969 L 332.085938 59.933594 L 332.253906 60.058594 L 332.4375 60.15625 L 332.628906 60.234375 L 332.832031 60.285156 L 333.039063 60.3125 L 333.246094 60.3125 L 333.453125 60.285156 L 333.652344 60.234375 L 333.847656 60.15625 L 334.027344 60.058594 L 334.195313 59.933594 L 334.347656 59.792969 L 334.480469 59.632813 L 334.59375 59.457031 L 334.679688 59.269531 L 334.746094 59.070313 L 334.785156 58.867188 L 334.796875 58.660156 Z M 334.785156 58.453125 "/>
<path style="fill-rule:nonzero;fill:rgb(87.45098%,32.54902%,41.960784%);fill-opacity:1;stroke-width:0.75;stroke-linecap:round;stroke-linejoin:round;stroke:rgb(0%,0%,0%);stroke-opacity:1;stroke-miterlimit:10;" d="M 292.457031 145.285156 L 292.417969 145.082031 L 292.351563 144.882813 L 292.261719 144.695313 L 292.152344 144.519531 L 292.019531 144.359375 L 291.867188 144.21875 L 291.699219 144.09375 L 291.519531 143.996094 L 291.324219 143.917969 L 291.121094 143.867188 L 290.917969 143.839844 L 290.707031 143.839844 L 290.503906 143.867188 L 290.300781 143.917969 L 290.109375 143.996094 L 289.925781 144.09375 L 289.757813 144.21875 L 289.605469 144.359375 L 289.472656 144.519531 L 289.363281 144.695313 L 289.273438 144.882813 L 289.210938 145.082031 L 289.171875 145.285156 L 289.15625 145.492188 L 289.171875 145.699219 L 289.210938 145.90625 L 289.273438 146.101563 L 289.363281 146.289063 L 289.472656 146.464844 L 289.605469 146.625 L 289.757813 146.769531 L 289.925781 146.890625 L 290.109375 146.992188 L 290.300781 147.066406 L 290.503906 147.117188 L 290.707031 147.144531 L 290.917969 147.144531 L 291.121094 147.117188 L 291.324219 147.066406 L 291.519531 146.992188 L 291.699219 146.890625 L 291.867188 146.769531 L 292.019531 146.625 L 292.152344 146.464844 L 292.261719 146.289063 L 292.351563 146.101563 L 292.417969 145.90625 L 292.457031 145.699219 L 292.46875 145.492188 Z M 292.457031 145.285156 "/>
<path style="fill-rule:nonzero;fill:rgb(87.45098%,32.54902%,41.960784%);fill-opacity:1;stroke-width:0.75;stroke-linecap:round;stroke-linejoin:round;stroke:rgb(0%,0%,0%);stroke-opacity:1;stroke-miterlimit:10;" d="M 172.5 92.78125 L 172.460938 92.578125 L 172.398438 92.378906 L 172.308594 92.191406 L 172.199219 92.015625 L 172.066406 91.855469 L 171.914063 91.714844 L 171.746094 91.59375 L 171.5625 91.492188 L 171.371094 91.414063 L 171.167969 91.363281 L 170.960938 91.335938 L 170.753906 91.335938 L 170.546875 91.363281 L 170.347656 91.414063 L 170.152344 91.492188 L 169.972656 91.59375 L 169.804688 91.714844 L 169.652344 91.855469 L 169.519531 92.015625 L 169.40625 92.191406 L 169.320313 92.378906 L 169.253906 92.578125 L 169.214844 92.78125 L 169.203125 92.988281 L 169.214844 93.199219 L 169.253906 93.402344 L 169.320313 93.597656 L 169.40625 93.789063 L 169.519531 93.964844 L 169.652344 94.125 L 169.804688 94.265625 L 169.972656 94.386719 L 170.152344 94.488281 L 170.347656 94.566406 L 170.546875 94.617188 L 170.753906 94.640625 L 170.960938 94.640625 L 171.167969 94.617188 L 171.371094 94.566406 L 171.5625 94.488281 L 171.746094 94.386719 L 171.914063 94.265625 L 172.066406 94.125 L 172.199219 93.964844 L 172.308594 93.789063 L 172.398438 93.597656 L 172.460938 93.402344 L 172.5 93.199219 L 172.515625 92.988281 Z M 172.5 92.78125 "/>
<path style="fill-rule:nonzero;fill:rgb(87.45098%,32.54902%,41.960784%);fill-opacity:1;stroke-width:0.75;stroke-linecap:round;stroke-linejoin:round;stroke:rgb(0%,0%,0%);stroke-opacity:1;stroke-miterlimit:10;" d="M 240.417969 120.261719 L 240.378906 120.058594 L 240.3125 119.859375 L 240.222656 119.671875 L 240.113281 119.496094 L 239.980469 119.335938 L 239.828125 119.195313 L 239.660156 119.070313 L 239.476563 118.972656 L 239.285156 118.894531 L 239.082031 118.84375 L 238.878906 118.816406 L 238.667969 118.816406 L 238.464844 118.84375 L 238.261719 118.894531 L 238.070313 118.972656 L 237.886719 119.070313 L 237.71875 119.195313 L 237.566406 119.335938 L 237.433594 119.496094 L 237.324219 119.671875 L 237.234375 119.859375 L 237.171875 120.058594 L 237.132813 120.261719 L 237.117188 120.46875 L 237.132813 120.675781 L 237.171875 120.882813 L 237.234375 121.078125 L 237.324219 121.265625 L 237.433594 121.441406 L 237.566406 121.601563 L 237.71875 121.746094 L 237.886719 121.867188 L 238.070313 121.96875 L 238.261719 122.042969 L 238.464844 122.09375 L 238.667969 122.121094 L 238.878906 122.121094 L 239.082031 122.09375 L 239.285156 122.042969 L 239.476563 121.96875 L 239.660156 121.867188 L 239.828125 121.746094 L 239.980469 121.601563 L 240.113281 121.441406 L 240.222656 121.265625 L 240.3125 121.078125 L 240.378906 120.882813 L 240.417969 120.675781 L 240.429688 120.46875 Z M 240.417969 120.261719 "/>
<path style="fill-rule:nonzero;fill:rgb(87.45098%,32.54902%,41.960784%);fill-opacity:1;stroke-width:0.75;stroke-linecap:round;stroke-linejoin:round;stroke:rgb(0%,0%,0%);stroke-opacity:1;stroke-miterlimit:10;" d="M 177.148438 69.820313 L 177.109375 69.617188 L 177.046875 69.417969 L 176.957031 69.230469 L 176.84375 69.054688 L 176.710938 68.894531 L 176.5625 68.75 L 176.394531 68.628906 L 176.210938 68.53125 L 176.015625 68.453125 L 175.816406 68.402344 L 175.609375 68.375 L 175.402344 68.375 L 175.195313 68.402344 L 174.996094 68.453125 L 174.800781 68.53125 L 174.617188 68.628906 L 174.449219 68.75 L 174.300781 68.894531 L 174.167969 69.054688 L 174.054688 69.230469 L 173.964844 69.417969 L 173.902344 69.617188 L 173.863281 69.820313 L 173.851563 70.027344 L 173.863281 70.234375 L 173.902344 70.4375 L 173.964844 70.636719 L 174.054688 70.824219 L 174.167969 71 L 174.300781 71.160156 L 174.449219 71.304688 L 174.617188 71.425781 L 174.800781 71.527344 L 174.996094 71.601563 L 175.195313 71.652344 L 175.402344 71.679688 L 175.609375 71.679688 L 175.816406 71.652344 L 176.015625 71.601563 L 176.210938 71.527344 L 176.394531 71.425781 L 176.5625 71.304688 L 176.710938 71.160156 L 176.84375 71 L 176.957031 70.824219 L 177.046875 70.636719 L 177.109375 70.4375 L 177.148438 70.234375 L 177.160156 70.027344 Z M 177.148438 69.820313 "/>
<path style="fill-rule:nonzero;fill:rgb(87.45098%,32.54902%,41.960784%);fill-opacity:1;stroke-width:0.75;stroke-linecap:round;stroke-linejoin:round;stroke:rgb(0%,0%,0%);stroke-opacity:1;stroke-miterlimit:10;" d="M 281.824219 151.167969 L 281.785156 150.964844 L 281.71875 150.765625 L 281.632813 150.578125 L 281.519531 150.402344 L 281.386719 150.242188 L 281.238281 150.101563 L 281.066406 149.976563 L 280.886719 149.878906 L 280.691406 149.800781 L 280.492188 149.75 L 280.285156 149.722656 L 280.078125 149.722656 L 279.871094 149.75 L 279.667969 149.800781 L 279.476563 149.878906 L 279.292969 149.976563 L 279.125 150.101563 L 278.972656 150.242188 L 278.84375 150.402344 L 278.730469 150.578125 L 278.640625 150.765625 L 278.578125 150.964844 L 278.539063 151.167969 L 278.527344 151.375 L 278.539063 151.582031 L 278.578125 151.789063 L 278.640625 151.984375 L 278.730469 152.171875 L 278.84375 152.347656 L 278.972656 152.507813 L 279.125 152.652344 L 279.292969 152.773438 L 279.476563 152.875 L 279.667969 152.949219 L 279.871094 153.003906 L 280.078125 153.027344 L 280.285156 153.027344 L 280.492188 153.003906 L 280.691406 152.949219 L 280.886719 152.875 L 281.066406 152.773438 L 281.238281 152.652344 L 281.386719 152.507813 L 281.519531 152.347656 L 281.632813 152.171875 L 281.71875 151.984375 L 281.785156 151.789063 L 281.824219 151.582031 L 281.835938 151.375 Z M 281.824219 151.167969 "/>
<path style="fill-rule:nonzero;fill:rgb(87.45098%,32.54902%,41.960784%);fill-opacity:1;stroke-width:0.75;stroke-linecap:round;stroke-linejoin:round;stroke:rgb(0%,0%,0%);stroke-opacity:1;stroke-miterlimit:10;" d="M 181.433594 111.777344 L 181.394531 111.574219 L 181.332031 111.375 L 181.242188 111.1875 L 181.128906 111.011719 L 181 110.851563 L 180.847656 110.707031 L 180.679688 110.585938 L 180.496094 110.488281 L 180.304688 110.410156 L 180.101563 110.359375 L 179.894531 110.332031 L 179.6875 110.332031 L 179.480469 110.359375 L 179.28125 110.410156 L 179.085938 110.488281 L 178.902344 110.585938 L 178.734375 110.707031 L 178.585938 110.851563 L 178.453125 111.011719 L 178.339844 111.1875 L 178.253906 111.375 L 178.1875 111.574219 L 178.148438 111.777344 L 178.136719 111.984375 L 178.148438 112.191406 L 178.1875 112.394531 L 178.253906 112.59375 L 178.339844 112.78125 L 178.453125 112.957031 L 178.585938 113.117188 L 178.734375 113.261719 L 178.902344 113.382813 L 179.085938 113.484375 L 179.28125 113.558594 L 179.480469 113.609375 L 179.6875 113.636719 L 179.894531 113.636719 L 180.101563 113.609375 L 180.304688 113.558594 L 180.496094 113.484375 L 180.679688 113.382813 L 180.847656 113.261719 L 181 113.117188 L 181.128906 112.957031 L 181.242188 112.78125 L 181.332031 112.59375 L 181.394531 112.394531 L 181.433594 112.191406 L 181.445313 111.984375 Z M 181.433594 111.777344 "/>
<path style="fill-rule:nonzero;fill:rgb(87.45098%,32.54902%,41.960784%);fill-opacity:1;stroke-width:0.75;stroke-linecap:round;stroke-linejoin:round;stroke:rgb(0%,0%,0%);stroke-opacity:1;stroke-miterlimit:10;" d="M 210.179688 49.300781 L 210.140625 49.097656 L 210.074219 48.898438 L 209.988281 48.710938 L 209.875 48.535156 L 209.742188 48.375 L 209.589844 48.230469 L 209.421875 48.109375 L 209.242188 48.007813 L 209.046875 47.933594 L 208.847656 47.882813 L 208.640625 47.855469 L 208.433594 47.855469 L 208.226563 47.882813 L 208.023438 47.933594 L 207.832031 48.007813 L 207.648438 48.109375 L 207.480469 48.230469 L 207.328125 48.375 L 207.195313 48.535156 L 207.085938 48.710938 L 206.996094 48.898438 L 206.933594 49.097656 L 206.894531 49.300781 L 206.878906 49.507813 L 206.894531 49.714844 L 206.933594 49.917969 L 206.996094 50.117188 L 207.085938 50.304688 L 207.195313 50.480469 L 207.328125 50.640625 L 207.480469 50.785156 L 207.648438 50.90625 L 207.832031 51.003906 L 208.023438 51.082031 L 208.226563 51.132813 L 208.433594 51.160156 L 208.640625 51.160156 L 208.847656 51.132813 L 209.046875 51.082031 L 209.242188 51.003906 L 209.421875 50.90625 L 209.589844 50.785156 L 209.742188 50.640625 L 209.875 50.480469 L 209.988281 50.304688 L 210.074219 50.117188 L 210.140625 49.917969 L 210.179688 49.714844 L 210.191406 49.507813 Z M 210.179688 49.300781 "/>
<path style="fill-rule:nonzero;fill:rgb(87.45098%,32.54902%,41.960784%);fill-opacity:1;stroke-width:0.75;stroke-linecap:round;stroke-linejoin:round;stroke:rgb(0%,0%,0%);stroke-opacity:1;stroke-miterlimit:10;" d="M 254.816406 31.75 L 254.777344 31.546875 L 254.714844 31.347656 L 254.625 31.160156 L 254.515625 30.984375 L 254.382813 30.824219 L 254.230469 30.683594 L 254.0625 30.558594 L 253.878906 30.460938 L 253.6875 30.382813 L 253.484375 30.332031 L 253.277344 30.304688 L 253.070313 30.304688 L 252.863281 30.332031 L 252.664063 30.382813 L 252.46875 30.460938 L 252.289063 30.558594 L 252.121094 30.683594 L 251.96875 30.824219 L 251.835938 30.984375 L 251.722656 31.160156 L 251.636719 31.347656 L 251.570313 31.546875 L 251.53125 31.75 L 251.519531 31.957031 L 251.53125 32.164063 L 251.570313 32.371094 L 251.636719 32.566406 L 251.722656 32.753906 L 251.835938 32.929688 L 251.96875 33.089844 L 252.121094 33.234375 L 252.289063 33.355469 L 252.46875 33.457031 L 252.664063 33.53125 L 252.863281 33.582031 L 253.070313 33.609375 L 253.277344 33.609375 L 253.484375 33.582031 L 253.6875 33.53125 L 253.878906 33.457031 L 254.0625 33.355469 L 254.230469 33.234375 L 254.382813 33.089844 L 254.515625 32.929688 L 254.625 32.753906 L 254.714844 32.566406 L 254.777344 32.371094 L 254.816406 32.164063 L 254.832031 31.957031 Z M 254.816406 31.75 "/>
<path style="fill-rule:nonzero;fill:rgb(87.45098%,32.54902%,41.960784%);fill-opacity:1;stroke-width:0.75;stroke-linecap:round;stroke-linejoin:round;stroke:rgb(0%,0%,0%);stroke-opacity:1;stroke-miterlimit:10;" d="M 235.070313 28.417969 L 235.03125 28.210938 L 234.964844 28.015625 L 234.875 27.828125 L 234.765625 27.652344 L 234.632813 27.492188 L 234.480469 27.347656 L 234.3125 27.226563 L 234.132813 27.125 L 233.9375 27.050781 L 233.738281 26.996094 L 233.53125 26.972656 L 233.320313 26.972656 L 233.117188 26.996094 L 232.914063 27.050781 L 232.722656 27.125 L 232.539063 27.226563 L 232.371094 27.347656 L 232.21875 27.492188 L 232.085938 27.652344 L 231.976563 27.828125 L 231.886719 28.015625 L 231.824219 28.210938 L 231.785156 28.417969 L 231.769531 28.625 L 231.785156 28.832031 L 231.824219 29.035156 L 231.886719 29.234375 L 231.976563 29.421875 L 232.085938 29.597656 L 232.21875 29.757813 L 232.371094 29.898438 L 232.539063 30.023438 L 232.722656 30.121094 L 232.914063 30.199219 L 233.117188 30.25 L 233.320313 30.277344 L 233.53125 30.277344 L 233.738281 30.25 L 233.9375 30.199219 L 234.132813 30.121094 L 234.3125 30.023438 L 234.480469 29.898438 L 234.632813 29.757813 L 234.765625 29.597656 L 234.875 29.421875 L 234.964844 29.234375 L 235.03125 29.035156 L 235.070313 28.832031 L 235.082031 28.625 Z M 235.070313 28.417969 "/>
<path style="fill-rule:nonzero;fill:rgb(87.45098%,32.54902%,41.960784%);fill-opacity:1;stroke-width:0.75;stroke-linecap:round;stroke-linejoin:round;stroke:rgb(0%,0%,0%);stroke-opacity:1;stroke-miterlimit:10;" d="M 178.183594 53.390625 L 178.144531 53.1875 L 178.082031 52.988281 L 177.992188 52.800781 L 177.878906 52.625 L 177.746094 52.464844 L 177.597656 52.320313 L 177.429688 52.199219 L 177.246094 52.097656 L 177.054688 52.023438 L 176.851563 51.972656 L 176.644531 51.945313 L 176.4375 51.945313 L 176.230469 51.972656 L 176.03125 52.023438 L 175.835938 52.097656 L 175.652344 52.199219 L 175.484375 52.320313 L 175.335938 52.464844 L 175.203125 52.625 L 175.089844 52.800781 L 175 52.988281 L 174.9375 53.1875 L 174.898438 53.390625 L 174.886719 53.597656 L 174.898438 53.804688 L 174.9375 54.007813 L 175 54.207031 L 175.089844 54.394531 L 175.203125 54.570313 L 175.335938 54.730469 L 175.484375 54.871094 L 175.652344 54.996094 L 175.835938 55.09375 L 176.03125 55.171875 L 176.230469 55.222656 L 176.4375 55.25 L 176.644531 55.25 L 176.851563 55.222656 L 177.054688 55.171875 L 177.246094 55.09375 L 177.429688 54.996094 L 177.597656 54.871094 L 177.746094 54.730469 L 177.878906 54.570313 L 177.992188 54.394531 L 178.082031 54.207031 L 178.144531 54.007813 L 178.183594 53.804688 L 178.195313 53.597656 Z M 178.183594 53.390625 "/>
<path style="fill-rule:nonzero;fill:rgb(87.45098%,32.54902%,41.960784%);fill-opacity:1;stroke-width:0.75;stroke-linecap:round;stroke-linejoin:round;stroke:rgb(0%,0%,0%);stroke-opacity:1;stroke-miterlimit:10;" d="M 235.015625 58.5625 L 234.976563 58.359375 L 234.914063 58.160156 L 234.824219 57.972656 L 234.714844 57.796875 L 234.582031 57.636719 L 234.429688 57.496094 L 234.261719 57.371094 L 234.078125 57.273438 L 233.886719 57.195313 L 233.683594 57.144531 L 233.480469 57.117188 L 233.269531 57.117188 L 233.066406 57.144531 L 232.863281 57.195313 L 232.667969 57.273438 L 232.488281 57.371094 L 232.320313 57.496094 L 232.167969 57.636719 L 232.035156 57.796875 L 231.925781 57.972656 L 231.835938 58.160156 L 231.769531 58.359375 L 231.730469 58.5625 L 231.71875 58.769531 L 231.730469 58.976563 L 231.769531 59.183594 L 231.835938 59.378906 L 231.925781 59.566406 L 232.035156 59.742188 L 232.167969 59.902344 L 232.320313 60.046875 L 232.488281 60.167969 L 232.667969 60.269531 L 232.863281 60.34375 L 233.066406 60.398438 L 233.269531 60.421875 L 233.480469 60.421875 L 233.683594 60.398438 L 233.886719 60.34375 L 234.078125 60.269531 L 234.261719 60.167969 L 234.429688 60.046875 L 234.582031 59.902344 L 234.714844 59.742188 L 234.824219 59.566406 L 234.914063 59.378906 L 234.976563 59.183594 L 235.015625 58.976563 L 235.03125 58.769531 Z M 235.015625 58.5625 "/>
<path style="fill-rule:nonzero;fill:rgb(87.45098%,32.54902%,41.960784%);fill-opacity:1;stroke-width:0.75;stroke-linecap:round;stroke-linejoin:round;stroke:rgb(0%,0%,0%);stroke-opacity:1;stroke-miterlimit:10;" d="M 229.011719 71.554688 L 228.972656 71.351563 L 228.90625 71.152344 L 228.820313 70.964844 L 228.707031 70.789063 L 228.574219 70.628906 L 228.421875 70.488281 L 228.253906 70.363281 L 228.074219 70.265625 L 227.878906 70.1875 L 227.679688 70.136719 L 227.472656 70.109375 L 227.265625 70.109375 L 227.058594 70.136719 L 226.855469 70.1875 L 226.664063 70.265625 L 226.480469 70.363281 L 226.3125 70.488281 L 226.160156 70.628906 L 226.027344 70.789063 L 225.917969 70.964844 L 225.828125 71.152344 L 225.765625 71.351563 L 225.726563 71.554688 L 225.710938 71.761719 L 225.726563 71.96875 L 225.765625 72.175781 L 225.828125 72.371094 L 225.917969 72.558594 L 226.027344 72.734375 L 226.160156 72.894531 L 226.3125 73.039063 L 226.480469 73.160156 L 226.664063 73.261719 L 226.855469 73.335938 L 227.058594 73.386719 L 227.265625 73.414063 L 227.472656 73.414063 L 227.679688 73.386719 L 227.878906 73.335938 L 228.074219 73.261719 L 228.253906 73.160156 L 228.421875 73.039063 L 228.574219 72.894531 L 228.707031 72.734375 L 228.820313 72.558594 L 228.90625 72.371094 L 228.972656 72.175781 L 229.011719 71.96875 L 229.023438 71.761719 Z M 229.011719 71.554688 "/>
<path style="fill-rule:nonzero;fill:rgb(87.45098%,32.54902%,41.960784%);fill-opacity:1;stroke-width:0.75;stroke-linecap:round;stroke-linejoin:round;stroke:rgb(0%,0%,0%);stroke-opacity:1;stroke-miterlimit:10;" d="M 191.835938 55.058594 L 191.796875 54.855469 L 191.734375 54.660156 L 191.644531 54.46875 L 191.535156 54.292969 L 191.402344 54.132813 L 191.25 53.992188 L 191.082031 53.871094 L 190.898438 53.769531 L 190.707031 53.695313 L 190.503906 53.640625 L 190.296875 53.617188 L 190.089844 53.617188 L 189.882813 53.640625 L 189.683594 53.695313 L 189.488281 53.769531 L 189.308594 53.871094 L 189.140625 53.992188 L 188.988281 54.132813 L 188.855469 54.292969 L 188.742188 54.46875 L 188.65625 54.660156 L 188.589844 54.855469 L 188.550781 55.058594 L 188.539063 55.269531 L 188.550781 55.476563 L 188.589844 55.679688 L 188.65625 55.878906 L 188.742188 56.066406 L 188.855469 56.242188 L 188.988281 56.402344 L 189.140625 56.542969 L 189.308594 56.664063 L 189.488281 56.765625 L 189.683594 56.84375 L 189.882813 56.894531 L 190.089844 56.921875 L 190.296875 56.921875 L 190.503906 56.894531 L 190.707031 56.84375 L 190.898438 56.765625 L 191.082031 56.664063 L 191.25 56.542969 L 191.402344 56.402344 L 191.535156 56.242188 L 191.644531 56.066406 L 191.734375 55.878906 L 191.796875 55.679688 L 191.835938 55.476563 L 191.851563 55.269531 Z M 191.835938 55.058594 "/>
<path style="fill-rule:nonzero;fill:rgb(87.45098%,32.54902%,41.960784%);fill-opacity:1;stroke-width:0.75;stroke-linecap:round;stroke-linejoin:round;stroke:rgb(0%,0%,0%);stroke-opacity:1;stroke-miterlimit:10;" d="M 219.878906 119.625 L 219.839844 119.421875 L 219.777344 119.222656 L 219.6875 119.035156 L 219.578125 118.859375 L 219.445313 118.699219 L 219.292969 118.558594 L 219.125 118.433594 L 218.941406 118.335938 L 218.75 118.257813 L 218.546875 118.207031 L 218.34375 118.179688 L 218.132813 118.179688 L 217.929688 118.207031 L 217.726563 118.257813 L 217.535156 118.335938 L 217.351563 118.433594 L 217.183594 118.558594 L 217.03125 118.699219 L 216.898438 118.859375 L 216.789063 119.035156 L 216.699219 119.222656 L 216.636719 119.421875 L 216.597656 119.625 L 216.582031 119.832031 L 216.597656 120.039063 L 216.636719 120.246094 L 216.699219 120.441406 L 216.789063 120.628906 L 216.898438 120.804688 L 217.03125 120.964844 L 217.183594 121.109375 L 217.351563 121.230469 L 217.535156 121.332031 L 217.726563 121.40625 L 217.929688 121.460938 L 218.132813 121.484375 L 218.34375 121.484375 L 218.546875 121.460938 L 218.75 121.40625 L 218.941406 121.332031 L 219.125 121.230469 L 219.292969 121.109375 L 219.445313 120.964844 L 219.578125 120.804688 L 219.6875 120.628906 L 219.777344 120.441406 L 219.839844 120.246094 L 219.878906 120.039063 L 219.894531 119.832031 Z M 219.878906 119.625 "/>
<path style="fill-rule:nonzero;fill:rgb(87.45098%,32.54902%,41.960784%);fill-opacity:1;stroke-width:0.75;stroke-linecap:round;stroke-linejoin:round;stroke:rgb(0%,0%,0%);stroke-opacity:1;stroke-miterlimit:10;" d="M 246.3125 68.332031 L 246.273438 68.125 L 246.207031 67.929688 L 246.121094 67.738281 L 246.007813 67.566406 L 245.875 67.40625 L 245.722656 67.261719 L 245.554688 67.140625 L 245.375 67.039063 L 245.179688 66.964844 L 244.980469 66.910156 L 244.773438 66.886719 L 244.566406 66.886719 L 244.359375 66.910156 L 244.15625 66.964844 L 243.964844 67.039063 L 243.78125 67.140625 L 243.613281 67.261719 L 243.460938 67.40625 L 243.328125 67.566406 L 243.21875 67.738281 L 243.128906 67.929688 L 243.066406 68.125 L 243.027344 68.332031 L 243.011719 68.539063 L 243.027344 68.746094 L 243.066406 68.949219 L 243.128906 69.148438 L 243.21875 69.335938 L 243.328125 69.511719 L 243.460938 69.671875 L 243.613281 69.8125 L 243.78125 69.933594 L 243.964844 70.035156 L 244.15625 70.113281 L 244.359375 70.164063 L 244.566406 70.191406 L 244.773438 70.191406 L 244.980469 70.164063 L 245.179688 70.113281 L 245.375 70.035156 L 245.554688 69.933594 L 245.722656 69.8125 L 245.875 69.671875 L 246.007813 69.511719 L 246.121094 69.335938 L 246.207031 69.148438 L 246.273438 68.949219 L 246.3125 68.746094 L 246.324219 68.539063 Z M 246.3125 68.332031 "/>
<path style="fill-rule:nonzero;fill:rgb(87.45098%,32.54902%,41.960784%);fill-opacity:1;stroke-width:0.75;stroke-linecap:round;stroke-linejoin:round;stroke:rgb(0%,0%,0%);stroke-opacity:1;stroke-miterlimit:10;" d="M 204.460938 85.671875 L 204.421875 85.46875 L 204.359375 85.273438 L 204.269531 85.082031 L 204.160156 84.90625 L 204.027344 84.746094 L 203.875 84.605469 L 203.707031 84.484375 L 203.523438 84.382813 L 203.332031 84.304688 L 203.128906 84.253906 L 202.925781 84.230469 L 202.714844 84.230469 L 202.511719 84.253906 L 202.308594 84.304688 L 202.117188 84.382813 L 201.933594 84.484375 L 201.765625 84.605469 L 201.613281 84.746094 L 201.480469 84.90625 L 201.371094 85.082031 L 201.28125 85.273438 L 201.214844 85.46875 L 201.179688 85.671875 L 201.164063 85.882813 L 201.179688 86.089844 L 201.214844 86.292969 L 201.28125 86.492188 L 201.371094 86.679688 L 201.480469 86.855469 L 201.613281 87.015625 L 201.765625 87.15625 L 201.933594 87.277344 L 202.117188 87.378906 L 202.308594 87.457031 L 202.511719 87.507813 L 202.714844 87.535156 L 202.925781 87.535156 L 203.128906 87.507813 L 203.332031 87.457031 L 203.523438 87.378906 L 203.707031 87.277344 L 203.875 87.15625 L 204.027344 87.015625 L 204.160156 86.855469 L 204.269531 86.679688 L 204.359375 86.492188 L 204.421875 86.292969 L 204.460938 86.089844 L 204.476563 85.882813 Z M 204.460938 85.671875 "/>
<path style="fill-rule:nonzero;fill:rgb(87.45098%,32.54902%,41.960784%);fill-opacity:1;stroke-width:0.75;stroke-linecap:round;stroke-linejoin:round;stroke:rgb(0%,0%,0%);stroke-opacity:1;stroke-miterlimit:10;" d="M 209.089844 86.570313 L 209.050781 86.367188 L 208.988281 86.167969 L 208.898438 85.980469 L 208.789063 85.804688 L 208.65625 85.644531 L 208.503906 85.503906 L 208.335938 85.378906 L 208.152344 85.28125 L 207.960938 85.203125 L 207.757813 85.152344 L 207.554688 85.125 L 207.34375 85.125 L 207.136719 85.152344 L 206.9375 85.203125 L 206.742188 85.28125 L 206.5625 85.378906 L 206.394531 85.503906 L 206.242188 85.644531 L 206.109375 85.804688 L 206 85.980469 L 205.910156 86.167969 L 205.84375 86.367188 L 205.804688 86.570313 L 205.792969 86.777344 L 205.804688 86.984375 L 205.84375 87.191406 L 205.910156 87.386719 L 206 87.574219 L 206.109375 87.75 L 206.242188 87.910156 L 206.394531 88.054688 L 206.5625 88.175781 L 206.742188 88.277344 L 206.9375 88.351563 L 207.136719 88.402344 L 207.34375 88.429688 L 207.554688 88.429688 L 207.757813 88.402344 L 207.960938 88.351563 L 208.152344 88.277344 L 208.335938 88.175781 L 208.503906 88.054688 L 208.65625 87.910156 L 208.789063 87.75 L 208.898438 87.574219 L 208.988281 87.386719 L 209.050781 87.191406 L 209.089844 86.984375 L 209.105469 86.777344 Z M 209.089844 86.570313 "/>
</g>
</svg>
