<?xml version="1.0" encoding="UTF-8"?>
<svg xmlns="http://www.w3.org/2000/svg" xmlns:xlink="http://www.w3.org/1999/xlink" width="504pt" height="180pt" viewBox="0 0 504 180" version="1.1">
<g id="surface3659">
<rect x="0" y="0" width="504" height="180" style="fill:rgb(100%,100%,100%);fill-opacity:1;stroke:none;"/>
<path style="fill-rule:nonzero;fill:rgb(0%,0%,0%);fill-opacity:1;stroke-width:0.75;stroke-linecap:round;stroke-linejoin:round;stroke:rgb(0%,0%,0%);stroke-opacity:1;stroke-miterlimit:10;" d="M 239.15625 62.222656 L 270.902344 49.539063 L 270.964844 49.691406 L 239.21875 62.375 Z M 239.15625 62.222656 "/>
<path style="fill-rule:nonzero;fill:rgb(0%,0%,0%);fill-opacity:1;stroke-width:0.75;stroke-linecap:round;stroke-linejoin:round;stroke:rgb(0%,0%,0%);stroke-opacity:1;stroke-miterlimit:10;" d="M 238.898438 64 L 263.140625 87.378906 L 263.027344 87.5 L 238.785156 64.121094 Z M 238.898438 64 "/>
<path style="fill-rule:nonzero;fill:rgb(0%,0%,0%);fill-opacity:1;stroke-width:0.75;stroke-linecap:round;stroke-linejoin:round;stroke:rgb(0%,0%,0%);stroke-opacity:1;stroke-miterlimit:10;" d="M 238.5625 61.53125 L 245.363281 52.230469 L 245.5 52.328125 L 238.695313 61.628906 Z M 238.5625 61.53125 "/>
<path style="fill-rule:nonzero;fill:rgb(0%,0%,0%);fill-opacity:1;stroke-width:0.75;stroke-linecap:round;stroke-linejoin:round;stroke:rgb(0%,0%,0%);stroke-opacity:1;stroke-miterlimit:10;" d="M 236 63.019531 L 200.402344 63.523438 L 200.398438 63.359375 L 236 62.855469 Z M 236 63.019531 "/>
<path style="fill-rule:nonzero;fill:rgb(0%,0%,0%);fill-opacity:1;stroke-width:0.75;stroke-linecap:round;stroke-linejoin:round;stroke:rgb(0%,0%,0%);stroke-opacity:1;stroke-miterlimit:10;" d="M 236.042969 63.300781 L 194.34375 71.140625 L 194.3125 70.980469 L 236.011719 63.136719 Z M 236.042969 63.300781 "/>
<path style="fill-rule:nonzero;fill:rgb(0%,0%,0%);fill-opacity:1;stroke-width:0.75;stroke-linecap:round;stroke-linejoin:round;stroke:rgb(0%,0%,0%);stroke-opacity:1;stroke-miterlimit:10;" d="M 236.160156 63.628906 L 198.363281 79.492188 L 198.300781 79.339844 L 236.097656 63.476563 Z M 236.160156 63.628906 "/>
<path style="fill-rule:nonzero;fill:rgb(0%,0%,0%);fill-opacity:1;stroke-width:0.75;stroke-linecap:round;stroke-linejoin:round;stroke:rgb(0%,0%,0%);stroke-opacity:1;stroke-miterlimit:10;" d="M 238.929688 61.859375 L 257.613281 47.910156 L 257.710938 48.042969 L 239.027344 61.988281 Z M 238.929688 61.859375 "/>
<path style="fill-rule:nonzero;fill:rgb(0%,0%,0%);fill-opacity:1;stroke-width:0.75;stroke-linecap:round;stroke-linejoin:round;stroke:rgb(0%,0%,0%);stroke-opacity:1;stroke-miterlimit:10;" d="M 239.226563 63.429688 L 281.542969 79.714844 L 281.484375 79.867188 L 239.167969 63.582031 Z M 239.226563 63.429688 "/>
<path style="fill-rule:nonzero;fill:rgb(0%,0%,0%);fill-opacity:1;stroke-width:0.75;stroke-linecap:round;stroke-linejoin:round;stroke:rgb(0%,0%,0%);stroke-opacity:1;stroke-miterlimit:10;" d="M 236.035156 62.558594 L 198.414063 52.339844 L 198.457031 52.179688 L 236.078125 62.398438 Z M 236.035156 62.558594 "/>
<path style="fill-rule:nonzero;fill:rgb(0%,0%,0%);fill-opacity:1;stroke-width:0.75;stroke-linecap:round;stroke-linejoin:round;stroke:rgb(0%,0%,0%);stroke-opacity:1;stroke-miterlimit:10;" d="M 236.304688 61.953125 L 206.035156 37.984375 L 206.136719 37.851563 L 236.40625 61.820313 Z M 236.304688 61.953125 "/>
<path style="fill-rule:nonzero;fill:rgb(0%,0%,0%);fill-opacity:1;stroke-width:0.75;stroke-linecap:round;stroke-linejoin:round;stroke:rgb(0%,0%,0%);stroke-opacity:1;stroke-miterlimit:10;" d="M 236.863281 61.457031 L 222.621094 31.824219 L 222.769531 31.75 L 237.011719 61.386719 Z M 236.863281 61.457031 "/>
<path style="fill-rule:nonzero;fill:rgb(0%,0%,0%);fill-opacity:1;stroke-width:0.75;stroke-linecap:round;stroke-linejoin:round;stroke:rgb(0%,0%,0%);stroke-opacity:1;stroke-miterlimit:10;" d="M 239.289063 63.171875 L 270.910156 69.84375 L 270.875 70.003906 L 239.253906 63.335938 Z M 239.289063 63.171875 "/>
<path style="fill-rule:nonzero;fill:rgb(0%,0%,0%);fill-opacity:1;stroke-width:0.75;stroke-linecap:round;stroke-linejoin:round;stroke:rgb(0%,0%,0%);stroke-opacity:1;stroke-miterlimit:10;" d="M 238.371094 61.421875 L 258.0625 25.324219 L 258.210938 25.402344 L 238.515625 61.5 Z M 238.371094 61.421875 "/>
<path style="fill-rule:nonzero;fill:rgb(0%,0%,0%);fill-opacity:1;stroke-width:0.75;stroke-linecap:round;stroke-linejoin:round;stroke:rgb(0%,0%,0%);stroke-opacity:1;stroke-miterlimit:10;" d="M 239.308594 62.941406 L 283.183594 65.867188 L 283.171875 66.03125 L 239.296875 63.105469 Z M 239.308594 62.941406 "/>
<path style="fill-rule:nonzero;fill:rgb(0%,0%,0%);fill-opacity:1;stroke-width:0.75;stroke-linecap:round;stroke-linejoin:round;stroke:rgb(0%,0%,0%);stroke-opacity:1;stroke-miterlimit:10;" d="M 237.90625 61.277344 L 245.117188 26.332031 L 245.277344 26.367188 L 238.066406 61.308594 Z M 237.90625 61.277344 "/>
<path style="fill-rule:nonzero;fill:rgb(0%,0%,0%);fill-opacity:1;stroke-width:0.75;stroke-linecap:round;stroke-linejoin:round;stroke:rgb(0%,0%,0%);stroke-opacity:1;stroke-miterlimit:10;" d="M 238.292969 64.441406 L 255.828125 112.902344 L 255.671875 112.957031 L 238.136719 64.496094 Z M 238.292969 64.441406 "/>
<path style="fill-rule:nonzero;fill:rgb(0%,0%,0%);fill-opacity:1;stroke-width:0.75;stroke-linecap:round;stroke-linejoin:round;stroke:rgb(0%,0%,0%);stroke-opacity:1;stroke-miterlimit:10;" d="M 272.214844 50.636719 L 264.691406 86.984375 L 264.527344 86.949219 L 272.054688 50.605469 Z M 272.214844 50.636719 "/>
<path style="fill-rule:nonzero;fill:rgb(0%,0%,0%);fill-opacity:1;stroke-width:0.75;stroke-linecap:round;stroke-linejoin:round;stroke:rgb(0%,0%,0%);stroke-opacity:1;stroke-miterlimit:10;" d="M 270.828125 49.207031 L 248.0625 50.902344 L 248.050781 50.738281 L 270.816406 49.042969 Z M 270.828125 49.207031 "/>
<path style="fill-rule:nonzero;fill:rgb(0%,0%,0%);fill-opacity:1;stroke-width:0.75;stroke-linecap:round;stroke-linejoin:round;stroke:rgb(0%,0%,0%);stroke-opacity:1;stroke-miterlimit:10;" d="M 270.820313 48.839844 L 260.609375 47.3125 L 260.636719 47.148438 L 270.847656 48.675781 Z M 270.820313 48.839844 "/>
<path style="fill-rule:nonzero;fill:rgb(0%,0%,0%);fill-opacity:1;stroke-width:0.75;stroke-linecap:round;stroke-linejoin:round;stroke:rgb(0%,0%,0%);stroke-opacity:1;stroke-miterlimit:10;" d="M 272.554688 50.65625 L 272.589844 68.613281 L 272.425781 68.613281 L 272.390625 50.65625 Z M 272.554688 50.65625 "/>
<path style="fill-rule:nonzero;fill:rgb(0%,0%,0%);fill-opacity:1;stroke-width:0.75;stroke-linecap:round;stroke-linejoin:round;stroke:rgb(0%,0%,0%);stroke-opacity:1;stroke-miterlimit:10;" d="M 271.613281 47.585938 L 259.640625 25.40625 L 259.785156 25.328125 L 271.757813 47.507813 Z M 271.613281 47.585938 "/>
<path style="fill-rule:nonzero;fill:rgb(0%,0%,0%);fill-opacity:1;stroke-width:0.75;stroke-linecap:round;stroke-linejoin:round;stroke:rgb(0%,0%,0%);stroke-opacity:1;stroke-miterlimit:10;" d="M 273.507813 50.292969 L 283.925781 64.671875 L 283.792969 64.769531 L 273.371094 50.390625 Z M 273.507813 50.292969 "/>
<path style="fill-rule:nonzero;fill:rgb(0%,0%,0%);fill-opacity:1;stroke-width:0.75;stroke-linecap:round;stroke-linejoin:round;stroke:rgb(0%,0%,0%);stroke-opacity:1;stroke-miterlimit:10;" d="M 271.1875 47.957031 L 246.707031 25.898438 L 246.816406 25.773438 L 271.296875 47.835938 Z M 271.1875 47.957031 "/>
<path style="fill-rule:nonzero;fill:rgb(0%,0%,0%);fill-opacity:1;stroke-width:0.75;stroke-linecap:round;stroke-linejoin:round;stroke:rgb(0%,0%,0%);stroke-opacity:1;stroke-miterlimit:10;" d="M 273.855469 49.910156 L 305.976563 73.28125 L 305.878906 73.414063 L 273.757813 50.042969 Z M 273.855469 49.910156 "/>
<path style="fill-rule:nonzero;fill:rgb(0%,0%,0%);fill-opacity:1;stroke-width:0.75;stroke-linecap:round;stroke-linejoin:round;stroke:rgb(0%,0%,0%);stroke-opacity:1;stroke-miterlimit:10;" d="M 263.492188 87.128906 L 247.042969 52.472656 L 247.191406 52.402344 L 263.640625 87.058594 Z M 263.492188 87.128906 "/>
<path style="fill-rule:nonzero;fill:rgb(0%,0%,0%);fill-opacity:1;stroke-width:0.75;stroke-linecap:round;stroke-linejoin:round;stroke:rgb(0%,0%,0%);stroke-opacity:1;stroke-miterlimit:10;" d="M 263.984375 86.957031 L 259.113281 48.636719 L 259.277344 48.617188 L 264.148438 86.9375 Z M 263.984375 86.957031 "/>
<path style="fill-rule:nonzero;fill:rgb(0%,0%,0%);fill-opacity:1;stroke-width:0.75;stroke-linecap:round;stroke-linejoin:round;stroke:rgb(0%,0%,0%);stroke-opacity:1;stroke-miterlimit:10;" d="M 265.757813 87.847656 L 281.507813 80.972656 L 281.574219 81.121094 L 265.824219 88 Z M 265.757813 87.847656 "/>
<path style="fill-rule:nonzero;fill:rgb(0%,0%,0%);fill-opacity:1;stroke-width:0.75;stroke-linecap:round;stroke-linejoin:round;stroke:rgb(0%,0%,0%);stroke-opacity:1;stroke-miterlimit:10;" d="M 264.789063 90.160156 L 274.816406 127.085938 L 274.65625 127.128906 L 264.628906 90.203125 Z M 264.789063 90.160156 "/>
<path style="fill-rule:nonzero;fill:rgb(0%,0%,0%);fill-opacity:1;stroke-width:0.75;stroke-linecap:round;stroke-linejoin:round;stroke:rgb(0%,0%,0%);stroke-opacity:1;stroke-miterlimit:10;" d="M 264.878906 87.042969 L 271.757813 71.738281 L 271.90625 71.808594 L 265.027344 87.113281 Z M 264.878906 87.042969 "/>
<path style="fill-rule:nonzero;fill:rgb(0%,0%,0%);fill-opacity:1;stroke-width:0.75;stroke-linecap:round;stroke-linejoin:round;stroke:rgb(0%,0%,0%);stroke-opacity:1;stroke-miterlimit:10;" d="M 264.277344 90.242188 L 262.289063 131.183594 L 262.125 131.175781 L 264.113281 90.234375 Z M 264.277344 90.242188 "/>
<path style="fill-rule:nonzero;fill:rgb(0%,0%,0%);fill-opacity:1;stroke-width:0.75;stroke-linecap:round;stroke-linejoin:round;stroke:rgb(0%,0%,0%);stroke-opacity:1;stroke-miterlimit:10;" d="M 264.203125 90.242188 L 261.214844 122.519531 L 261.050781 122.503906 L 264.039063 90.226563 Z M 264.203125 90.242188 "/>
<path style="fill-rule:nonzero;fill:rgb(0%,0%,0%);fill-opacity:1;stroke-width:0.75;stroke-linecap:round;stroke-linejoin:round;stroke:rgb(0%,0%,0%);stroke-opacity:1;stroke-miterlimit:10;" d="M 265.757813 89.324219 L 301.050781 109.089844 L 300.96875 109.234375 L 265.675781 89.464844 Z M 265.757813 89.324219 "/>
<path style="fill-rule:nonzero;fill:rgb(0%,0%,0%);fill-opacity:1;stroke-width:0.75;stroke-linecap:round;stroke-linejoin:round;stroke:rgb(0%,0%,0%);stroke-opacity:1;stroke-miterlimit:10;" d="M 247.960938 50.371094 L 257.386719 47.402344 L 257.433594 47.5625 L 248.007813 50.527344 Z M 247.960938 50.371094 "/>
<path style="fill-rule:nonzero;fill:rgb(0%,0%,0%);fill-opacity:1;stroke-width:0.75;stroke-linecap:round;stroke-linejoin:round;stroke:rgb(0%,0%,0%);stroke-opacity:1;stroke-miterlimit:10;" d="M 245.089844 49.941406 L 223.1875 31.425781 L 223.296875 31.300781 L 245.199219 49.8125 Z M 245.089844 49.941406 "/>
<path style="fill-rule:nonzero;fill:rgb(0%,0%,0%);fill-opacity:1;stroke-width:0.75;stroke-linecap:round;stroke-linejoin:round;stroke:rgb(0%,0%,0%);stroke-opacity:1;stroke-miterlimit:10;" d="M 247.785156 51.863281 L 271.230469 69.214844 L 271.132813 69.347656 L 247.6875 51.996094 Z M 247.785156 51.863281 "/>
<path style="fill-rule:nonzero;fill:rgb(0%,0%,0%);fill-opacity:1;stroke-width:0.75;stroke-linecap:round;stroke-linejoin:round;stroke:rgb(0%,0%,0%);stroke-opacity:1;stroke-miterlimit:10;" d="M 198.636719 65.117188 L 197.082031 78.421875 L 196.917969 78.40625 L 198.472656 65.097656 Z M 198.636719 65.117188 "/>
<path style="fill-rule:nonzero;fill:rgb(0%,0%,0%);fill-opacity:1;stroke-width:0.75;stroke-linecap:round;stroke-linejoin:round;stroke:rgb(0%,0%,0%);stroke-opacity:1;stroke-miterlimit:10;" d="M 198.398438 61.847656 L 197.027344 53.472656 L 197.191406 53.445313 L 198.5625 61.820313 Z M 198.398438 61.847656 "/>
<path style="fill-rule:nonzero;fill:rgb(0%,0%,0%);fill-opacity:1;stroke-width:0.75;stroke-linecap:round;stroke-linejoin:round;stroke:rgb(0%,0%,0%);stroke-opacity:1;stroke-miterlimit:10;" d="M 193.484375 72.824219 L 196.175781 78.527344 L 196.027344 78.597656 L 193.332031 72.894531 Z M 193.484375 72.824219 "/>
<path style="fill-rule:nonzero;fill:rgb(0%,0%,0%);fill-opacity:1;stroke-width:0.75;stroke-linecap:round;stroke-linejoin:round;stroke:rgb(0%,0%,0%);stroke-opacity:1;stroke-miterlimit:10;" d="M 192.964844 69.730469 L 196.417969 53.429688 L 196.578125 53.460938 L 193.125 69.765625 Z M 192.964844 69.730469 "/>
<path style="fill-rule:nonzero;fill:rgb(0%,0%,0%);fill-opacity:1;stroke-width:0.75;stroke-linecap:round;stroke-linejoin:round;stroke:rgb(0%,0%,0%);stroke-opacity:1;stroke-miterlimit:10;" d="M 191.472656 72.476563 L 172.164063 88.257813 L 172.058594 88.132813 L 191.371094 72.347656 Z M 191.472656 72.476563 "/>
<path style="fill-rule:nonzero;fill:rgb(0%,0%,0%);fill-opacity:1;stroke-width:0.75;stroke-linecap:round;stroke-linejoin:round;stroke:rgb(0%,0%,0%);stroke-opacity:1;stroke-miterlimit:10;" d="M 195.277344 80.683594 L 172.417969 88.769531 L 172.363281 88.613281 L 195.222656 80.53125 Z M 195.277344 80.683594 "/>
<path style="fill-rule:nonzero;fill:rgb(0%,0%,0%);fill-opacity:1;stroke-width:0.75;stroke-linecap:round;stroke-linejoin:round;stroke:rgb(0%,0%,0%);stroke-opacity:1;stroke-miterlimit:10;" d="M 284.640625 79.902344 L 305.640625 74.644531 L 305.679688 74.804688 L 284.679688 80.0625 Z M 284.640625 79.902344 "/>
<path style="fill-rule:nonzero;fill:rgb(0%,0%,0%);fill-opacity:1;stroke-width:0.75;stroke-linecap:round;stroke-linejoin:round;stroke:rgb(0%,0%,0%);stroke-opacity:1;stroke-miterlimit:10;" d="M 284.03125 81.722656 L 301.613281 108.542969 L 301.476563 108.632813 L 283.894531 81.8125 Z M 284.03125 81.722656 "/>
<path style="fill-rule:nonzero;fill:rgb(0%,0%,0%);fill-opacity:1;stroke-width:0.75;stroke-linecap:round;stroke-linejoin:round;stroke:rgb(0%,0%,0%);stroke-opacity:1;stroke-miterlimit:10;" d="M 283.859375 81.832031 L 297.109375 108.832031 L 296.960938 108.90625 L 283.710938 81.90625 Z M 283.859375 81.832031 "/>
<path style="fill-rule:nonzero;fill:rgb(0%,0%,0%);fill-opacity:1;stroke-width:0.75;stroke-linecap:round;stroke-linejoin:round;stroke:rgb(0%,0%,0%);stroke-opacity:1;stroke-miterlimit:10;" d="M 276.402344 127.597656 L 296.429688 111.332031 L 296.535156 111.460938 L 276.507813 127.726563 Z M 276.402344 127.597656 "/>
<path style="fill-rule:nonzero;fill:rgb(0%,0%,0%);fill-opacity:1;stroke-width:0.75;stroke-linecap:round;stroke-linejoin:round;stroke:rgb(0%,0%,0%);stroke-opacity:1;stroke-miterlimit:10;" d="M 273.460938 71.621094 L 296.953125 108.910156 L 296.8125 109 L 273.320313 71.707031 Z M 273.460938 71.621094 "/>
<path style="fill-rule:nonzero;fill:rgb(0%,0%,0%);fill-opacity:1;stroke-width:0.75;stroke-linecap:round;stroke-linejoin:round;stroke:rgb(0%,0%,0%);stroke-opacity:1;stroke-miterlimit:10;" d="M 327.714844 94.058594 L 303.894531 109.15625 L 303.804688 109.015625 L 327.628906 93.917969 Z M 327.714844 94.058594 "/>
<path style="fill-rule:nonzero;fill:rgb(0%,0%,0%);fill-opacity:1;stroke-width:0.75;stroke-linecap:round;stroke-linejoin:round;stroke:rgb(0%,0%,0%);stroke-opacity:1;stroke-miterlimit:10;" d="M 327.660156 93.972656 L 299.253906 109.628906 L 299.171875 109.484375 L 327.582031 93.828125 Z M 327.660156 93.972656 "/>
<path style="fill-rule:nonzero;fill:rgb(0%,0%,0%);fill-opacity:1;stroke-width:0.75;stroke-linecap:round;stroke-linejoin:round;stroke:rgb(0%,0%,0%);stroke-opacity:1;stroke-miterlimit:10;" d="M 326.1875 126.660156 L 303.757813 110.984375 L 303.855469 110.851563 L 326.28125 126.527344 Z M 326.1875 126.660156 "/>
<path style="fill-rule:nonzero;fill:rgb(0%,0%,0%);fill-opacity:1;stroke-width:0.75;stroke-linecap:round;stroke-linejoin:round;stroke:rgb(0%,0%,0%);stroke-opacity:1;stroke-miterlimit:10;" d="M 326.113281 126.785156 L 299.15625 111.25 L 299.238281 111.109375 L 326.195313 126.644531 Z M 326.113281 126.785156 "/>
<path style="fill-rule:nonzero;fill:rgb(0%,0%,0%);fill-opacity:1;stroke-width:0.75;stroke-linecap:round;stroke-linejoin:round;stroke:rgb(0%,0%,0%);stroke-opacity:1;stroke-miterlimit:10;" d="M 331.097656 117.734375 L 304.027344 110.476563 L 304.070313 110.320313 L 331.140625 117.574219 Z M 331.097656 117.734375 "/>
<path style="fill-rule:nonzero;fill:rgb(0%,0%,0%);fill-opacity:1;stroke-width:0.75;stroke-linecap:round;stroke-linejoin:round;stroke:rgb(0%,0%,0%);stroke-opacity:1;stroke-miterlimit:10;" d="M 331.082031 117.808594 L 299.363281 110.792969 L 299.398438 110.628906 L 331.117188 117.644531 Z M 331.082031 117.808594 "/>
<path style="fill-rule:nonzero;fill:rgb(0%,0%,0%);fill-opacity:1;stroke-width:0.75;stroke-linecap:round;stroke-linejoin:round;stroke:rgb(0%,0%,0%);stroke-opacity:1;stroke-miterlimit:10;" d="M 285.371094 67.621094 L 297.382813 108.742188 L 297.222656 108.789063 L 285.210938 67.667969 Z M 285.371094 67.621094 "/>
<path style="fill-rule:nonzero;fill:rgb(0%,0%,0%);fill-opacity:1;stroke-width:0.75;stroke-linecap:round;stroke-linejoin:round;stroke:rgb(0%,0%,0%);stroke-opacity:1;stroke-miterlimit:10;" d="M 331.566406 104.109375 L 304.089844 109.722656 L 304.054688 109.558594 L 331.535156 103.949219 Z M 331.566406 104.109375 "/>
<path style="fill-rule:nonzero;fill:rgb(0%,0%,0%);fill-opacity:1;stroke-width:0.75;stroke-linecap:round;stroke-linejoin:round;stroke:rgb(0%,0%,0%);stroke-opacity:1;stroke-miterlimit:10;" d="M 331.558594 104.085938 L 299.40625 110.128906 L 299.375 109.96875 L 331.53125 103.921875 Z M 331.558594 104.085938 "/>
<path style="fill-rule:nonzero;fill:rgb(0%,0%,0%);fill-opacity:1;stroke-width:0.75;stroke-linecap:round;stroke-linejoin:round;stroke:rgb(0%,0%,0%);stroke-opacity:1;stroke-miterlimit:10;" d="M 328.183594 110.011719 L 304.105469 110.050781 L 304.105469 109.886719 L 328.183594 109.847656 Z M 328.183594 110.011719 "/>
<path style="fill-rule:nonzero;fill:rgb(0%,0%,0%);fill-opacity:1;stroke-width:0.75;stroke-linecap:round;stroke-linejoin:round;stroke:rgb(0%,0%,0%);stroke-opacity:1;stroke-miterlimit:10;" d="M 328.183594 110.03125 L 299.417969 110.414063 L 299.417969 110.25 L 328.183594 109.867188 Z M 328.183594 110.03125 "/>
<path style="fill-rule:nonzero;fill:rgb(0%,0%,0%);fill-opacity:1;stroke-width:0.75;stroke-linecap:round;stroke-linejoin:round;stroke:rgb(0%,0%,0%);stroke-opacity:1;stroke-miterlimit:10;" d="M 286.621094 145.941406 L 256.128906 155.664063 L 256.078125 155.507813 L 286.570313 145.785156 Z M 286.621094 145.941406 "/>
<path style="fill-rule:nonzero;fill:rgb(0%,0%,0%);fill-opacity:1;stroke-width:0.75;stroke-linecap:round;stroke-linejoin:round;stroke:rgb(0%,0%,0%);stroke-opacity:1;stroke-miterlimit:10;" d="M 286.644531 144.71875 L 263.578125 133.625 L 263.652344 133.472656 L 286.714844 144.570313 Z M 286.644531 144.71875 "/>
<path style="fill-rule:nonzero;fill:rgb(0%,0%,0%);fill-opacity:1;stroke-width:0.75;stroke-linecap:round;stroke-linejoin:round;stroke:rgb(0%,0%,0%);stroke-opacity:1;stroke-miterlimit:10;" d="M 289.789063 145.007813 L 308.476563 141.898438 L 308.503906 142.0625 L 289.816406 145.171875 Z M 289.789063 145.007813 "/>
<path style="fill-rule:nonzero;fill:rgb(0%,0%,0%);fill-opacity:1;stroke-width:0.75;stroke-linecap:round;stroke-linejoin:round;stroke:rgb(0%,0%,0%);stroke-opacity:1;stroke-miterlimit:10;" d="M 288.710938 143.796875 L 301.757813 111.472656 L 301.910156 111.535156 L 288.867188 143.859375 Z M 288.710938 143.796875 "/>
<path style="fill-rule:nonzero;fill:rgb(0%,0%,0%);fill-opacity:1;stroke-width:0.75;stroke-linecap:round;stroke-linejoin:round;stroke:rgb(0%,0%,0%);stroke-opacity:1;stroke-miterlimit:10;" d="M 288.527344 143.746094 L 297.25 111.925781 L 297.40625 111.96875 L 288.6875 143.789063 Z M 288.527344 143.746094 "/>
<path style="fill-rule:nonzero;fill:rgb(0%,0%,0%);fill-opacity:1;stroke-width:0.75;stroke-linecap:round;stroke-linejoin:round;stroke:rgb(0%,0%,0%);stroke-opacity:1;stroke-miterlimit:10;" d="M 235.417969 147.507813 L 253.050781 155.339844 L 252.980469 155.492188 L 235.351563 147.65625 Z M 235.417969 147.507813 "/>
<path style="fill-rule:nonzero;fill:rgb(0%,0%,0%);fill-opacity:1;stroke-width:0.75;stroke-linecap:round;stroke-linejoin:round;stroke:rgb(0%,0%,0%);stroke-opacity:1;stroke-miterlimit:10;" d="M 235.316406 146.097656 L 260.609375 133.496094 L 260.683594 133.644531 L 235.390625 146.246094 Z M 235.316406 146.097656 "/>
<path style="fill-rule:nonzero;fill:rgb(0%,0%,0%);fill-opacity:1;stroke-width:0.75;stroke-linecap:round;stroke-linejoin:round;stroke:rgb(0%,0%,0%);stroke-opacity:1;stroke-miterlimit:10;" d="M 234.746094 145.503906 L 255.304688 115.796875 L 255.4375 115.890625 L 234.882813 145.597656 Z M 234.746094 145.503906 "/>
<path style="fill-rule:nonzero;fill:rgb(0%,0%,0%);fill-opacity:1;stroke-width:0.75;stroke-linecap:round;stroke-linejoin:round;stroke:rgb(0%,0%,0%);stroke-opacity:1;stroke-miterlimit:10;" d="M 254.515625 154.433594 L 256.15625 116.132813 L 256.324219 116.140625 L 254.679688 154.4375 Z M 254.515625 154.433594 "/>
<path style="fill-rule:nonzero;fill:rgb(0%,0%,0%);fill-opacity:1;stroke-width:0.75;stroke-linecap:round;stroke-linejoin:round;stroke:rgb(0%,0%,0%);stroke-opacity:1;stroke-miterlimit:10;" d="M 323.6875 144.140625 L 311.734375 142.074219 L 311.765625 141.910156 L 323.71875 143.980469 Z M 323.6875 144.140625 "/>
<path style="fill-rule:nonzero;fill:rgb(0%,0%,0%);fill-opacity:1;stroke-width:0.75;stroke-linecap:round;stroke-linejoin:round;stroke:rgb(0%,0%,0%);stroke-opacity:1;stroke-miterlimit:10;" d="M 324.226563 143.109375 L 298.742188 111.691406 L 298.871094 111.585938 L 324.355469 143.007813 Z M 324.226563 143.109375 "/>
<path style="fill-rule:nonzero;fill:rgb(0%,0%,0%);fill-opacity:1;stroke-width:0.75;stroke-linecap:round;stroke-linejoin:round;stroke:rgb(0%,0%,0%);stroke-opacity:1;stroke-miterlimit:10;" d="M 263.480469 131.878906 L 296.324219 111.164063 L 296.410156 111.304688 L 263.566406 132.019531 Z M 263.480469 131.878906 "/>
<path style="fill-rule:nonzero;fill:rgb(0%,0%,0%);fill-opacity:1;stroke-width:0.75;stroke-linecap:round;stroke-linejoin:round;stroke:rgb(0%,0%,0%);stroke-opacity:1;stroke-miterlimit:10;" d="M 260.1875 122.703125 L 256.957031 116.011719 L 257.105469 115.9375 L 260.335938 122.632813 Z M 260.1875 122.703125 "/>
<path style="fill-rule:nonzero;fill:rgb(0%,0%,0%);fill-opacity:1;stroke-width:0.75;stroke-linecap:round;stroke-linejoin:round;stroke:rgb(0%,0%,0%);stroke-opacity:1;stroke-miterlimit:10;" d="M 262.5 123.5 L 296.1875 110.855469 L 296.246094 111.011719 L 262.554688 123.652344 Z M 262.5 123.5 "/>
<path style="fill-rule:nonzero;fill:rgb(0%,0%,0%);fill-opacity:1;stroke-width:0.75;stroke-linecap:round;stroke-linejoin:round;stroke:rgb(0%,0%,0%);stroke-opacity:1;stroke-miterlimit:10;" d="M 309.652344 140.121094 L 302.761719 111.597656 L 302.921875 111.558594 L 309.8125 140.082031 Z M 309.652344 140.121094 "/>
<path style="fill-rule:nonzero;fill:rgb(0%,0%,0%);fill-opacity:1;stroke-width:0.75;stroke-linecap:round;stroke-linejoin:round;stroke:rgb(0%,0%,0%);stroke-opacity:1;stroke-miterlimit:10;" d="M 309.4375 140.203125 L 298.292969 111.921875 L 298.449219 111.863281 L 309.59375 140.140625 Z M 309.4375 140.203125 "/>
<path style="fill-rule:nonzero;fill:rgb(0%,0%,0%);fill-opacity:1;stroke-width:0.75;stroke-linecap:round;stroke-linejoin:round;stroke:rgb(0%,0%,0%);stroke-opacity:1;stroke-miterlimit:10;" d="M 307.125 75.972656 L 302.753906 108.34375 L 302.589844 108.320313 L 306.960938 75.949219 Z M 307.125 75.972656 "/>
<path style="fill-rule:nonzero;fill:rgb(0%,0%,0%);fill-opacity:1;stroke-width:0.75;stroke-linecap:round;stroke-linejoin:round;stroke:rgb(0%,0%,0%);stroke-opacity:1;stroke-miterlimit:10;" d="M 306.921875 75.941406 L 298.265625 108.777344 L 298.105469 108.734375 L 306.761719 75.898438 Z M 306.921875 75.941406 "/>
<path style="fill-rule:nonzero;fill:rgb(0%,0%,0%);fill-opacity:1;stroke-width:0.75;stroke-linecap:round;stroke-linejoin:round;stroke:rgb(0%,0%,0%);stroke-opacity:1;stroke-miterlimit:10;" d="M 257.949219 114.242188 L 300.796875 110.050781 L 300.816406 110.214844 L 257.964844 114.40625 Z M 257.949219 114.242188 "/>
<path style="fill-rule:nonzero;fill:rgb(0%,0%,0%);fill-opacity:1;stroke-width:0.75;stroke-linecap:round;stroke-linejoin:round;stroke:rgb(0%,0%,0%);stroke-opacity:1;stroke-miterlimit:10;" d="M 257.949219 114.238281 L 296.113281 110.433594 L 296.128906 110.601563 L 257.964844 114.402344 Z M 257.949219 114.238281 "/>
<path style="fill-rule:nonzero;fill:rgb(0%,0%,0%);fill-opacity:1;stroke-width:0.75;stroke-linecap:round;stroke-linejoin:round;stroke:rgb(0%,0%,0%);stroke-opacity:1;stroke-miterlimit:10;" d="M 300.8125 110.1875 L 299.417969 110.300781 L 299.40625 110.136719 L 300.796875 110.023438 Z M 300.8125 110.1875 "/>
<path style="fill-rule:nonzero;fill:rgb(87.45098%,32.54902%,41.960784%);fill-opacity:1;stroke-width:0.75;stroke-linecap:round;stroke-linejoin:round;stroke:rgb(0%,0%,0%);stroke-opacity:1;stroke-miterlimit:10;" d="M 239.296875 62.707031 L 239.257813 62.5 L 239.191406 62.304688 L 239.105469 62.117188 L 238.992188 61.941406 L 238.859375 61.78125 L 238.707031 61.636719 L 238.539063 61.515625 L 238.359375 61.414063 L 238.164063 61.339844 L 237.964844 61.285156 L 237.757813 61.261719 L 237.550781 61.261719 L 237.34375 61.285156 L 237.140625 61.339844 L 236.949219 61.414063 L 236.765625 61.515625 L 236.597656 61.636719 L 236.445313 61.78125 L 236.3125 61.941406 L 236.203125 62.117188 L 236.113281 62.304688 L 236.050781 62.5 L 236.011719 62.707031 L 235.996094 62.914063 L 236.011719 63.121094 L 236.050781 63.324219 L 236.113281 63.523438 L 236.203125 63.710938 L 236.3125 63.886719 L 236.445313 64.046875 L 236.597656 64.1875 L 236.765625 64.3125 L 236.949219 64.410156 L 237.140625 64.488281 L 237.34375 64.539063 L 237.550781 64.566406 L 237.757813 64.566406 L 237.964844 64.539063 L 238.164063 64.488281 L 238.359375 64.410156 L 238.539063 64.3125 L 238.707031 64.1875 L 238.859375 64.046875 L 238.992188 63.886719 L 239.105469 63.710938 L 239.191406 63.523438 L 239.257813 63.324219 L 239.296875 63.121094 L 239.308594 62.914063 Z M 239.296875 62.707031 "/>
<path style="fill-rule:nonzero;fill:rgb(87.45098%,32.54902%,41.960784%);fill-opacity:1;stroke-width:0.75;stroke-linecap:round;stroke-linejoin:round;stroke:rgb(0%,0%,0%);stroke-opacity:1;stroke-miterlimit:10;" d="M 274.113281 48.796875 L 274.074219 48.589844 L 274.007813 48.394531 L 273.921875 48.207031 L 273.808594 48.03125 L 273.675781 47.871094 L 273.523438 47.726563 L 273.355469 47.605469 L 273.175781 47.503906 L 272.980469 47.429688 L 272.78125 47.375 L 272.574219 47.351563 L 272.367188 47.351563 L 272.160156 47.375 L 271.957031 47.429688 L 271.765625 47.503906 L 271.582031 47.605469 L 271.414063 47.726563 L 271.261719 47.871094 L 271.128906 48.03125 L 271.019531 48.207031 L 270.929688 48.394531 L 270.867188 48.589844 L 270.828125 48.796875 L 270.8125 49.003906 L 270.828125 49.210938 L 270.867188 49.414063 L 270.929688 49.613281 L 271.019531 49.800781 L 271.128906 49.976563 L 271.261719 50.136719 L 271.414063 50.277344 L 271.582031 50.402344 L 271.765625 50.5 L 271.957031 50.578125 L 272.160156 50.628906 L 272.367188 50.65625 L 272.574219 50.65625 L 272.78125 50.628906 L 272.980469 50.578125 L 273.175781 50.5 L 273.355469 50.402344 L 273.523438 50.277344 L 273.675781 50.136719 L 273.808594 49.976563 L 273.921875 49.800781 L 274.007813 49.613281 L 274.074219 49.414063 L 274.113281 49.210938 L 274.125 49.003906 Z M 274.113281 48.796875 "/>
<path style="fill-rule:nonzero;fill:rgb(87.45098%,32.54902%,41.960784%);fill-opacity:1;stroke-width:0.75;stroke-linecap:round;stroke-linejoin:round;stroke:rgb(0%,0%,0%);stroke-opacity:1;stroke-miterlimit:10;" d="M 265.917969 88.378906 L 265.878906 88.175781 L 265.8125 87.976563 L 265.726563 87.789063 L 265.613281 87.613281 L 265.480469 87.453125 L 265.328125 87.3125 L 265.160156 87.1875 L 264.980469 87.089844 L 264.785156 87.011719 L 264.585938 86.960938 L 264.378906 86.933594 L 264.171875 86.933594 L 263.964844 86.960938 L 263.761719 87.011719 L 263.570313 87.089844 L 263.386719 87.1875 L 263.21875 87.3125 L 263.066406 87.453125 L 262.933594 87.613281 L 262.824219 87.789063 L 262.734375 87.976563 L 262.671875 88.175781 L 262.632813 88.378906 L 262.617188 88.585938 L 262.632813 88.792969 L 262.671875 89 L 262.734375 89.195313 L 262.824219 89.382813 L 262.933594 89.558594 L 263.066406 89.71875 L 263.21875 89.863281 L 263.386719 89.984375 L 263.570313 90.085938 L 263.761719 90.160156 L 263.964844 90.210938 L 264.171875 90.238281 L 264.378906 90.238281 L 264.585938 90.210938 L 264.785156 90.160156 L 264.980469 90.085938 L 265.160156 89.984375 L 265.328125 89.863281 L 265.480469 89.71875 L 265.613281 89.558594 L 265.726563 89.382813 L 265.8125 89.195313 L 265.878906 89 L 265.917969 88.792969 L 265.929688 88.585938 Z M 265.917969 88.378906 "/>
<path style="fill-rule:nonzero;fill:rgb(87.45098%,32.54902%,41.960784%);fill-opacity:1;stroke-width:0.75;stroke-linecap:round;stroke-linejoin:round;stroke:rgb(0%,0%,0%);stroke-opacity:1;stroke-miterlimit:10;" d="M 248.050781 50.738281 L 248.011719 50.53125 L 247.945313 50.335938 L 247.859375 50.148438 L 247.746094 49.972656 L 247.613281 49.8125 L 247.464844 49.667969 L 247.292969 49.546875 L 247.113281 49.445313 L 246.917969 49.371094 L 246.71875 49.320313 L 246.511719 49.292969 L 246.304688 49.292969 L 246.097656 49.320313 L 245.894531 49.371094 L 245.703125 49.445313 L 245.519531 49.546875 L 245.351563 49.667969 L 245.199219 49.8125 L 245.070313 49.972656 L 244.957031 50.148438 L 244.867188 50.335938 L 244.804688 50.53125 L 244.765625 50.738281 L 244.753906 50.945313 L 244.765625 51.152344 L 244.804688 51.355469 L 244.867188 51.554688 L 244.957031 51.742188 L 245.070313 51.917969 L 245.199219 52.078125 L 245.351563 52.21875 L 245.519531 52.34375 L 245.703125 52.441406 L 245.894531 52.519531 L 246.097656 52.570313 L 246.304688 52.597656 L 246.511719 52.597656 L 246.71875 52.570313 L 246.917969 52.519531 L 247.113281 52.441406 L 247.292969 52.34375 L 247.464844 52.21875 L 247.613281 52.078125 L 247.746094 51.917969 L 247.859375 51.742188 L 247.945313 51.554688 L 248.011719 51.355469 L 248.050781 51.152344 L 248.0625 50.945313 Z M 248.050781 50.738281 "/>
<path style="fill-rule:nonzero;fill:rgb(87.45098%,32.54902%,41.960784%);fill-opacity:1;stroke-width:0.75;stroke-linecap:round;stroke-linejoin:round;stroke:rgb(0%,0%,0%);stroke-opacity:1;stroke-miterlimit:10;" d="M 200.390625 63.257813 L 200.351563 63.054688 L 200.285156 62.855469 L 200.199219 62.667969 L 200.085938 62.492188 L 199.953125 62.332031 L 199.800781 62.191406 L 199.632813 62.066406 L 199.453125 61.96875 L 199.257813 61.890625 L 199.058594 61.839844 L 198.851563 61.8125 L 198.644531 61.8125 L 198.4375 61.839844 L 198.234375 61.890625 L 198.042969 61.96875 L 197.859375 62.066406 L 197.691406 62.191406 L 197.539063 62.332031 L 197.40625 62.492188 L 197.296875 62.667969 L 197.207031 62.855469 L 197.144531 63.054688 L 197.105469 63.257813 L 197.089844 63.464844 L 197.105469 63.671875 L 197.144531 63.878906 L 197.207031 64.074219 L 197.296875 64.261719 L 197.40625 64.4375 L 197.539063 64.597656 L 197.691406 64.742188 L 197.859375 64.863281 L 198.042969 64.964844 L 198.234375 65.039063 L 198.4375 65.09375 L 198.644531 65.117188 L 198.851563 65.117188 L 199.058594 65.09375 L 199.257813 65.039063 L 199.453125 64.964844 L 199.632813 64.863281 L 199.800781 64.742188 L 199.953125 64.597656 L 200.085938 64.4375 L 200.199219 64.261719 L 200.285156 64.074219 L 200.351563 63.878906 L 200.390625 63.671875 L 200.402344 63.464844 Z M 200.390625 63.257813 "/>
<path style="fill-rule:nonzero;fill:rgb(87.45098%,32.54902%,41.960784%);fill-opacity:1;stroke-width:0.75;stroke-linecap:round;stroke-linejoin:round;stroke:rgb(0%,0%,0%);stroke-opacity:1;stroke-miterlimit:10;" d="M 194.34375 71.160156 L 194.304688 70.953125 L 194.242188 70.757813 L 194.152344 70.566406 L 194.042969 70.394531 L 193.910156 70.234375 L 193.757813 70.089844 L 193.589844 69.96875 L 193.40625 69.867188 L 193.214844 69.792969 L 193.011719 69.738281 L 192.804688 69.714844 L 192.597656 69.714844 L 192.390625 69.738281 L 192.191406 69.792969 L 191.996094 69.867188 L 191.816406 69.96875 L 191.644531 70.089844 L 191.496094 70.234375 L 191.363281 70.394531 L 191.25 70.566406 L 191.164063 70.757813 L 191.097656 70.953125 L 191.058594 71.160156 L 191.046875 71.367188 L 191.058594 71.574219 L 191.097656 71.777344 L 191.164063 71.976563 L 191.25 72.164063 L 191.363281 72.339844 L 191.496094 72.5 L 191.644531 72.640625 L 191.816406 72.761719 L 191.996094 72.863281 L 192.191406 72.941406 L 192.390625 72.992188 L 192.597656 73.019531 L 192.804688 73.019531 L 193.011719 72.992188 L 193.214844 72.941406 L 193.40625 72.863281 L 193.589844 72.761719 L 193.757813 72.640625 L 193.910156 72.5 L 194.042969 72.339844 L 194.152344 72.164063 L 194.242188 71.976563 L 194.304688 71.777344 L 194.34375 71.574219 L 194.355469 71.367188 Z M 194.34375 71.160156 "/>
<path style="fill-rule:nonzero;fill:rgb(87.45098%,32.54902%,41.960784%);fill-opacity:1;stroke-width:0.75;stroke-linecap:round;stroke-linejoin:round;stroke:rgb(0%,0%,0%);stroke-opacity:1;stroke-miterlimit:10;" d="M 198.449219 79.847656 L 198.410156 79.644531 L 198.347656 79.445313 L 198.257813 79.257813 L 198.148438 79.082031 L 198.015625 78.921875 L 197.863281 78.78125 L 197.695313 78.660156 L 197.511719 78.558594 L 197.320313 78.480469 L 197.117188 78.429688 L 196.914063 78.402344 L 196.703125 78.402344 L 196.5 78.429688 L 196.296875 78.480469 L 196.101563 78.558594 L 195.921875 78.660156 L 195.753906 78.78125 L 195.601563 78.921875 L 195.46875 79.082031 L 195.359375 79.257813 L 195.269531 79.445313 L 195.203125 79.644531 L 195.164063 79.847656 L 195.152344 80.054688 L 195.164063 80.265625 L 195.203125 80.46875 L 195.269531 80.664063 L 195.359375 80.855469 L 195.46875 81.027344 L 195.601563 81.191406 L 195.753906 81.332031 L 195.921875 81.453125 L 196.101563 81.554688 L 196.296875 81.628906 L 196.5 81.683594 L 196.703125 81.707031 L 196.914063 81.707031 L 197.117188 81.683594 L 197.320313 81.628906 L 197.511719 81.554688 L 197.695313 81.453125 L 197.863281 81.332031 L 198.015625 81.191406 L 198.148438 81.027344 L 198.257813 80.855469 L 198.347656 80.664063 L 198.410156 80.46875 L 198.449219 80.265625 L 198.464844 80.054688 Z M 198.449219 79.847656 "/>
<path style="fill-rule:nonzero;fill:rgb(87.45098%,32.54902%,41.960784%);fill-opacity:1;stroke-width:0.75;stroke-linecap:round;stroke-linejoin:round;stroke:rgb(0%,0%,0%);stroke-opacity:1;stroke-miterlimit:10;" d="M 260.628906 46.777344 L 260.589844 46.574219 L 260.527344 46.375 L 260.4375 46.1875 L 260.328125 46.011719 L 260.195313 45.851563 L 260.042969 45.710938 L 259.875 45.589844 L 259.691406 45.488281 L 259.5 45.410156 L 259.296875 45.359375 L 259.089844 45.332031 L 258.882813 45.332031 L 258.675781 45.359375 L 258.476563 45.410156 L 258.28125 45.488281 L 258.101563 45.589844 L 257.933594 45.710938 L 257.78125 45.851563 L 257.648438 46.011719 L 257.535156 46.1875 L 257.449219 46.375 L 257.382813 46.574219 L 257.34375 46.777344 L 257.332031 46.984375 L 257.34375 47.191406 L 257.382813 47.398438 L 257.449219 47.59375 L 257.535156 47.785156 L 257.648438 47.957031 L 257.78125 48.117188 L 257.933594 48.261719 L 258.101563 48.382813 L 258.28125 48.484375 L 258.476563 48.558594 L 258.675781 48.613281 L 258.882813 48.636719 L 259.089844 48.636719 L 259.296875 48.613281 L 259.5 48.558594 L 259.691406 48.484375 L 259.875 48.382813 L 260.042969 48.261719 L 260.195313 48.117188 L 260.328125 47.957031 L 260.4375 47.785156 L 260.527344 47.59375 L 260.589844 47.398438 L 260.628906 47.191406 L 260.644531 46.984375 Z M 260.628906 46.777344 "/>
<path style="fill-rule:nonzero;fill:rgb(87.45098%,32.54902%,41.960784%);fill-opacity:1;stroke-width:0.75;stroke-linecap:round;stroke-linejoin:round;stroke:rgb(0%,0%,0%);stroke-opacity:1;stroke-miterlimit:10;" d="M 284.699219 80.175781 L 284.660156 79.972656 L 284.597656 79.777344 L 284.507813 79.585938 L 284.398438 79.410156 L 284.265625 79.25 L 284.113281 79.109375 L 283.945313 78.988281 L 283.761719 78.886719 L 283.570313 78.8125 L 283.367188 78.757813 L 283.160156 78.734375 L 282.953125 78.734375 L 282.746094 78.757813 L 282.546875 78.8125 L 282.351563 78.886719 L 282.171875 78.988281 L 282 79.109375 L 281.851563 79.25 L 281.71875 79.410156 L 281.605469 79.585938 L 281.519531 79.777344 L 281.453125 79.972656 L 281.414063 80.175781 L 281.402344 80.386719 L 281.414063 80.59375 L 281.453125 80.796875 L 281.519531 80.996094 L 281.605469 81.183594 L 281.71875 81.359375 L 281.851563 81.519531 L 282 81.660156 L 282.171875 81.78125 L 282.351563 81.882813 L 282.546875 81.960938 L 282.746094 82.011719 L 282.953125 82.039063 L 283.160156 82.039063 L 283.367188 82.011719 L 283.570313 81.960938 L 283.761719 81.882813 L 283.945313 81.78125 L 284.113281 81.660156 L 284.265625 81.519531 L 284.398438 81.359375 L 284.507813 81.183594 L 284.597656 80.996094 L 284.660156 80.796875 L 284.699219 80.59375 L 284.710938 80.386719 Z M 284.699219 80.175781 "/>
<path style="fill-rule:nonzero;fill:rgb(87.45098%,32.54902%,41.960784%);fill-opacity:1;stroke-width:0.75;stroke-linecap:round;stroke-linejoin:round;stroke:rgb(0%,0%,0%);stroke-opacity:1;stroke-miterlimit:10;" d="M 276.8125 128.496094 L 276.773438 128.292969 L 276.710938 128.09375 L 276.621094 127.90625 L 276.511719 127.730469 L 276.378906 127.570313 L 276.226563 127.425781 L 276.058594 127.304688 L 275.875 127.203125 L 275.683594 127.128906 L 275.480469 127.078125 L 275.273438 127.050781 L 275.066406 127.050781 L 274.859375 127.078125 L 274.660156 127.128906 L 274.464844 127.203125 L 274.285156 127.304688 L 274.117188 127.425781 L 273.964844 127.570313 L 273.832031 127.730469 L 273.71875 127.90625 L 273.632813 128.09375 L 273.566406 128.292969 L 273.527344 128.496094 L 273.515625 128.703125 L 273.527344 128.910156 L 273.566406 129.113281 L 273.632813 129.3125 L 273.71875 129.5 L 273.832031 129.675781 L 273.964844 129.835938 L 274.117188 129.976563 L 274.285156 130.101563 L 274.464844 130.199219 L 274.660156 130.277344 L 274.859375 130.328125 L 275.066406 130.355469 L 275.273438 130.355469 L 275.480469 130.328125 L 275.683594 130.277344 L 275.875 130.199219 L 276.058594 130.101563 L 276.226563 129.976563 L 276.378906 129.835938 L 276.511719 129.675781 L 276.621094 129.5 L 276.710938 129.3125 L 276.773438 129.113281 L 276.8125 128.910156 L 276.828125 128.703125 Z M 276.8125 128.496094 "/>
<path style="fill-rule:nonzero;fill:rgb(87.45098%,32.54902%,41.960784%);fill-opacity:1;stroke-width:0.75;stroke-linecap:round;stroke-linejoin:round;stroke:rgb(0%,0%,0%);stroke-opacity:1;stroke-miterlimit:10;" d="M 198.484375 51.621094 L 198.445313 51.414063 L 198.378906 51.21875 L 198.292969 51.03125 L 198.179688 50.855469 L 198.046875 50.695313 L 197.898438 50.550781 L 197.726563 50.429688 L 197.546875 50.328125 L 197.351563 50.253906 L 197.152344 50.203125 L 196.945313 50.175781 L 196.738281 50.175781 L 196.53125 50.203125 L 196.328125 50.253906 L 196.136719 50.328125 L 195.953125 50.429688 L 195.785156 50.550781 L 195.632813 50.695313 L 195.503906 50.855469 L 195.390625 51.03125 L 195.300781 51.21875 L 195.238281 51.414063 L 195.199219 51.621094 L 195.1875 51.828125 L 195.199219 52.035156 L 195.238281 52.238281 L 195.300781 52.4375 L 195.390625 52.625 L 195.503906 52.800781 L 195.632813 52.960938 L 195.785156 53.101563 L 195.953125 53.226563 L 196.136719 53.324219 L 196.328125 53.402344 L 196.53125 53.453125 L 196.738281 53.480469 L 196.945313 53.480469 L 197.152344 53.453125 L 197.351563 53.402344 L 197.546875 53.324219 L 197.726563 53.226563 L 197.898438 53.101563 L 198.046875 52.960938 L 198.179688 52.800781 L 198.292969 52.625 L 198.378906 52.4375 L 198.445313 52.238281 L 198.484375 52.035156 L 198.496094 51.828125 Z M 198.484375 51.621094 "/>
<path style="fill-rule:nonzero;fill:rgb(87.45098%,32.54902%,41.960784%);fill-opacity:1;stroke-width:0.75;stroke-linecap:round;stroke-linejoin:round;stroke:rgb(0%,0%,0%);stroke-opacity:1;stroke-miterlimit:10;" d="M 206.429688 36.683594 L 206.390625 36.480469 L 206.328125 36.28125 L 206.238281 36.09375 L 206.128906 35.917969 L 205.996094 35.757813 L 205.84375 35.617188 L 205.675781 35.492188 L 205.492188 35.394531 L 205.300781 35.316406 L 205.097656 35.265625 L 204.894531 35.238281 L 204.683594 35.238281 L 204.480469 35.265625 L 204.277344 35.316406 L 204.085938 35.394531 L 203.902344 35.492188 L 203.734375 35.617188 L 203.582031 35.757813 L 203.449219 35.917969 L 203.339844 36.09375 L 203.25 36.28125 L 203.183594 36.480469 L 203.148438 36.683594 L 203.132813 36.890625 L 203.148438 37.097656 L 203.183594 37.304688 L 203.25 37.5 L 203.339844 37.6875 L 203.449219 37.863281 L 203.582031 38.023438 L 203.734375 38.167969 L 203.902344 38.289063 L 204.085938 38.390625 L 204.277344 38.464844 L 204.480469 38.515625 L 204.683594 38.542969 L 204.894531 38.542969 L 205.097656 38.515625 L 205.300781 38.464844 L 205.492188 38.390625 L 205.675781 38.289063 L 205.84375 38.167969 L 205.996094 38.023438 L 206.128906 37.863281 L 206.238281 37.6875 L 206.328125 37.5 L 206.390625 37.304688 L 206.429688 37.097656 L 206.445313 36.890625 Z M 206.429688 36.683594 "/>
<path style="fill-rule:nonzero;fill:rgb(87.45098%,32.54902%,41.960784%);fill-opacity:1;stroke-width:0.75;stroke-linecap:round;stroke-linejoin:round;stroke:rgb(0%,0%,0%);stroke-opacity:1;stroke-miterlimit:10;" d="M 223.621094 30.089844 L 223.582031 29.882813 L 223.519531 29.6875 L 223.429688 29.5 L 223.316406 29.324219 L 223.1875 29.164063 L 223.035156 29.019531 L 222.867188 28.898438 L 222.683594 28.796875 L 222.492188 28.722656 L 222.289063 28.671875 L 222.082031 28.644531 L 221.875 28.644531 L 221.667969 28.671875 L 221.46875 28.722656 L 221.273438 28.796875 L 221.09375 28.898438 L 220.921875 29.019531 L 220.773438 29.164063 L 220.640625 29.324219 L 220.527344 29.5 L 220.441406 29.6875 L 220.375 29.882813 L 220.335938 30.089844 L 220.324219 30.296875 L 220.335938 30.503906 L 220.375 30.707031 L 220.441406 30.90625 L 220.527344 31.09375 L 220.640625 31.269531 L 220.773438 31.429688 L 220.921875 31.570313 L 221.09375 31.695313 L 221.273438 31.792969 L 221.46875 31.871094 L 221.667969 31.921875 L 221.875 31.949219 L 222.082031 31.949219 L 222.289063 31.921875 L 222.492188 31.871094 L 222.683594 31.792969 L 222.867188 31.695313 L 223.035156 31.570313 L 223.1875 31.429688 L 223.316406 31.269531 L 223.429688 31.09375 L 223.519531 30.90625 L 223.582031 30.707031 L 223.621094 30.503906 L 223.632813 30.296875 Z M 223.621094 30.089844 "/>
<path style="fill-rule:nonzero;fill:rgb(87.45098%,32.54902%,41.960784%);fill-opacity:1;stroke-width:0.75;stroke-linecap:round;stroke-linejoin:round;stroke:rgb(0%,0%,0%);stroke-opacity:1;stroke-miterlimit:10;" d="M 274.152344 70.058594 L 274.113281 69.855469 L 274.050781 69.65625 L 273.960938 69.46875 L 273.851563 69.292969 L 273.71875 69.132813 L 273.566406 68.992188 L 273.398438 68.867188 L 273.214844 68.769531 L 273.023438 68.691406 L 272.820313 68.640625 L 272.613281 68.613281 L 272.40625 68.613281 L 272.199219 68.640625 L 272 68.691406 L 271.804688 68.769531 L 271.625 68.867188 L 271.457031 68.992188 L 271.304688 69.132813 L 271.171875 69.292969 L 271.058594 69.46875 L 270.972656 69.65625 L 270.90625 69.855469 L 270.867188 70.058594 L 270.855469 70.265625 L 270.867188 70.472656 L 270.90625 70.675781 L 270.972656 70.875 L 271.058594 71.0625 L 271.171875 71.238281 L 271.304688 71.398438 L 271.457031 71.542969 L 271.625 71.664063 L 271.804688 71.765625 L 272 71.839844 L 272.199219 71.890625 L 272.40625 71.917969 L 272.613281 71.917969 L 272.820313 71.890625 L 273.023438 71.839844 L 273.214844 71.765625 L 273.398438 71.664063 L 273.566406 71.542969 L 273.71875 71.398438 L 273.851563 71.238281 L 273.960938 71.0625 L 274.050781 70.875 L 274.113281 70.675781 L 274.152344 70.472656 L 274.167969 70.265625 Z M 274.152344 70.058594 "/>
<path style="fill-rule:nonzero;fill:rgb(87.45098%,32.54902%,41.960784%);fill-opacity:1;stroke-width:0.75;stroke-linecap:round;stroke-linejoin:round;stroke:rgb(0%,0%,0%);stroke-opacity:1;stroke-miterlimit:10;" d="M 330.710938 92.894531 L 330.671875 92.691406 L 330.609375 92.492188 L 330.519531 92.304688 L 330.40625 92.128906 L 330.273438 91.96875 L 330.125 91.828125 L 329.957031 91.703125 L 329.773438 91.605469 L 329.578125 91.527344 L 329.378906 91.476563 L 329.171875 91.449219 L 328.964844 91.449219 L 328.757813 91.476563 L 328.558594 91.527344 L 328.363281 91.605469 L 328.179688 91.703125 L 328.011719 91.828125 L 327.863281 91.96875 L 327.730469 92.128906 L 327.617188 92.304688 L 327.527344 92.492188 L 327.464844 92.691406 L 327.425781 92.894531 L 327.414063 93.101563 L 327.425781 93.308594 L 327.464844 93.515625 L 327.527344 93.710938 L 327.617188 93.898438 L 327.730469 94.074219 L 327.863281 94.234375 L 328.011719 94.378906 L 328.179688 94.5 L 328.363281 94.601563 L 328.558594 94.675781 L 328.757813 94.726563 L 328.964844 94.753906 L 329.171875 94.753906 L 329.378906 94.726563 L 329.578125 94.675781 L 329.773438 94.601563 L 329.957031 94.5 L 330.125 94.378906 L 330.273438 94.234375 L 330.40625 94.074219 L 330.519531 93.898438 L 330.609375 93.710938 L 330.671875 93.515625 L 330.710938 93.308594 L 330.722656 93.101563 Z M 330.710938 92.894531 "/>
<path style="fill-rule:nonzero;fill:rgb(87.45098%,32.54902%,41.960784%);fill-opacity:1;stroke-width:0.75;stroke-linecap:round;stroke-linejoin:round;stroke:rgb(0%,0%,0%);stroke-opacity:1;stroke-miterlimit:10;" d="M 329.230469 127.332031 L 329.191406 127.128906 L 329.128906 126.929688 L 329.039063 126.742188 L 328.929688 126.566406 L 328.796875 126.40625 L 328.644531 126.265625 L 328.476563 126.144531 L 328.292969 126.042969 L 328.101563 125.964844 L 327.898438 125.914063 L 327.691406 125.886719 L 327.484375 125.886719 L 327.277344 125.914063 L 327.078125 125.964844 L 326.882813 126.042969 L 326.703125 126.144531 L 326.53125 126.265625 L 326.382813 126.40625 L 326.25 126.566406 L 326.136719 126.742188 L 326.050781 126.929688 L 325.984375 127.128906 L 325.945313 127.332031 L 325.933594 127.539063 L 325.945313 127.75 L 325.984375 127.953125 L 326.050781 128.148438 L 326.136719 128.339844 L 326.25 128.515625 L 326.382813 128.675781 L 326.53125 128.816406 L 326.703125 128.9375 L 326.882813 129.039063 L 327.078125 129.117188 L 327.277344 129.167969 L 327.484375 129.191406 L 327.691406 129.191406 L 327.898438 129.167969 L 328.101563 129.117188 L 328.292969 129.039063 L 328.476563 128.9375 L 328.644531 128.816406 L 328.796875 128.675781 L 328.929688 128.515625 L 329.039063 128.339844 L 329.128906 128.148438 L 329.191406 127.953125 L 329.230469 127.75 L 329.242188 127.539063 Z M 329.230469 127.332031 "/>
<path style="fill-rule:nonzero;fill:rgb(87.45098%,32.54902%,41.960784%);fill-opacity:1;stroke-width:0.75;stroke-linecap:round;stroke-linejoin:round;stroke:rgb(0%,0%,0%);stroke-opacity:1;stroke-miterlimit:10;" d="M 172.472656 89.035156 L 172.433594 88.832031 L 172.371094 88.632813 L 172.28125 88.445313 L 172.167969 88.269531 L 172.035156 88.109375 L 171.886719 87.964844 L 171.71875 87.84375 L 171.535156 87.742188 L 171.34375 87.667969 L 171.140625 87.617188 L 170.933594 87.589844 L 170.726563 87.589844 L 170.519531 87.617188 L 170.320313 87.667969 L 170.125 87.742188 L 169.941406 87.84375 L 169.773438 87.964844 L 169.625 88.109375 L 169.492188 88.269531 L 169.378906 88.445313 L 169.292969 88.632813 L 169.226563 88.832031 L 169.1875 89.035156 L 169.175781 89.242188 L 169.1875 89.449219 L 169.226563 89.652344 L 169.292969 89.851563 L 169.378906 90.039063 L 169.492188 90.214844 L 169.625 90.375 L 169.773438 90.519531 L 169.941406 90.640625 L 170.125 90.738281 L 170.320313 90.816406 L 170.519531 90.867188 L 170.726563 90.894531 L 170.933594 90.894531 L 171.140625 90.867188 L 171.34375 90.816406 L 171.535156 90.738281 L 171.71875 90.640625 L 171.886719 90.519531 L 172.035156 90.375 L 172.167969 90.214844 L 172.28125 90.039063 L 172.371094 89.851563 L 172.433594 89.652344 L 172.472656 89.449219 L 172.484375 89.242188 Z M 172.472656 89.035156 "/>
<path style="fill-rule:nonzero;fill:rgb(87.45098%,32.54902%,41.960784%);fill-opacity:1;stroke-width:0.75;stroke-linecap:round;stroke-linejoin:round;stroke:rgb(0%,0%,0%);stroke-opacity:1;stroke-miterlimit:10;" d="M 260.570313 23.703125 L 260.53125 23.5 L 260.46875 23.304688 L 260.378906 23.113281 L 260.269531 22.941406 L 260.136719 22.777344 L 259.984375 22.636719 L 259.816406 22.515625 L 259.632813 22.414063 L 259.441406 22.339844 L 259.238281 22.285156 L 259.03125 22.261719 L 258.824219 22.261719 L 258.617188 22.285156 L 258.417969 22.339844 L 258.222656 22.414063 L 258.042969 22.515625 L 257.875 22.636719 L 257.722656 22.777344 L 257.589844 22.941406 L 257.476563 23.113281 L 257.390625 23.304688 L 257.324219 23.5 L 257.285156 23.703125 L 257.273438 23.914063 L 257.285156 24.121094 L 257.324219 24.324219 L 257.390625 24.523438 L 257.476563 24.710938 L 257.589844 24.886719 L 257.722656 25.046875 L 257.875 25.1875 L 258.042969 25.308594 L 258.222656 25.410156 L 258.417969 25.488281 L 258.617188 25.539063 L 258.824219 25.566406 L 259.03125 25.566406 L 259.238281 25.539063 L 259.441406 25.488281 L 259.632813 25.410156 L 259.816406 25.308594 L 259.984375 25.1875 L 260.136719 25.046875 L 260.269531 24.886719 L 260.378906 24.710938 L 260.46875 24.523438 L 260.53125 24.324219 L 260.570313 24.121094 L 260.585938 23.914063 Z M 260.570313 23.703125 "/>
<path style="fill-rule:nonzero;fill:rgb(87.45098%,32.54902%,41.960784%);fill-opacity:1;stroke-width:0.75;stroke-linecap:round;stroke-linejoin:round;stroke:rgb(0%,0%,0%);stroke-opacity:1;stroke-miterlimit:10;" d="M 334.359375 117.875 L 334.320313 117.671875 L 334.253906 117.472656 L 334.164063 117.285156 L 334.054688 117.109375 L 333.921875 116.949219 L 333.769531 116.808594 L 333.601563 116.6875 L 333.421875 116.585938 L 333.226563 116.507813 L 333.027344 116.457031 L 332.820313 116.429688 L 332.609375 116.429688 L 332.40625 116.457031 L 332.203125 116.507813 L 332.011719 116.585938 L 331.828125 116.6875 L 331.660156 116.808594 L 331.507813 116.949219 L 331.375 117.109375 L 331.265625 117.285156 L 331.175781 117.472656 L 331.113281 117.671875 L 331.074219 117.875 L 331.058594 118.082031 L 331.074219 118.292969 L 331.113281 118.496094 L 331.175781 118.691406 L 331.265625 118.882813 L 331.375 119.058594 L 331.507813 119.21875 L 331.660156 119.359375 L 331.828125 119.480469 L 332.011719 119.582031 L 332.203125 119.660156 L 332.40625 119.710938 L 332.609375 119.734375 L 332.820313 119.734375 L 333.027344 119.710938 L 333.226563 119.660156 L 333.421875 119.582031 L 333.601563 119.480469 L 333.769531 119.359375 L 333.921875 119.21875 L 334.054688 119.058594 L 334.164063 118.882813 L 334.253906 118.691406 L 334.320313 118.496094 L 334.359375 118.292969 L 334.371094 118.082031 Z M 334.359375 117.875 "/>
<path style="fill-rule:nonzero;fill:rgb(87.45098%,32.54902%,41.960784%);fill-opacity:1;stroke-width:0.75;stroke-linecap:round;stroke-linejoin:round;stroke:rgb(0%,0%,0%);stroke-opacity:1;stroke-miterlimit:10;" d="M 286.46875 65.851563 L 286.429688 65.648438 L 286.367188 65.449219 L 286.277344 65.261719 L 286.167969 65.085938 L 286.035156 64.925781 L 285.882813 64.785156 L 285.714844 64.660156 L 285.53125 64.5625 L 285.339844 64.484375 L 285.136719 64.433594 L 284.933594 64.40625 L 284.722656 64.40625 L 284.519531 64.433594 L 284.316406 64.484375 L 284.125 64.5625 L 283.941406 64.660156 L 283.773438 64.785156 L 283.621094 64.925781 L 283.488281 65.085938 L 283.378906 65.261719 L 283.289063 65.449219 L 283.222656 65.648438 L 283.1875 65.851563 L 283.171875 66.058594 L 283.1875 66.265625 L 283.222656 66.472656 L 283.289063 66.667969 L 283.378906 66.855469 L 283.488281 67.03125 L 283.621094 67.191406 L 283.773438 67.335938 L 283.941406 67.457031 L 284.125 67.558594 L 284.316406 67.632813 L 284.519531 67.683594 L 284.722656 67.710938 L 284.933594 67.710938 L 285.136719 67.683594 L 285.339844 67.632813 L 285.53125 67.558594 L 285.714844 67.457031 L 285.882813 67.335938 L 286.035156 67.191406 L 286.167969 67.03125 L 286.277344 66.855469 L 286.367188 66.667969 L 286.429688 66.472656 L 286.46875 66.265625 L 286.484375 66.058594 Z M 286.46875 65.851563 "/>
<path style="fill-rule:nonzero;fill:rgb(87.45098%,32.54902%,41.960784%);fill-opacity:1;stroke-width:0.75;stroke-linecap:round;stroke-linejoin:round;stroke:rgb(0%,0%,0%);stroke-opacity:1;stroke-miterlimit:10;" d="M 334.8125 103.492188 L 334.773438 103.285156 L 334.707031 103.089844 L 334.621094 102.902344 L 334.507813 102.726563 L 334.375 102.566406 L 334.226563 102.421875 L 334.058594 102.300781 L 333.875 102.199219 L 333.679688 102.125 L 333.480469 102.070313 L 333.273438 102.046875 L 333.066406 102.046875 L 332.859375 102.070313 L 332.65625 102.125 L 332.464844 102.199219 L 332.28125 102.300781 L 332.113281 102.421875 L 331.964844 102.566406 L 331.832031 102.726563 L 331.71875 102.902344 L 331.628906 103.089844 L 331.566406 103.285156 L 331.527344 103.492188 L 331.515625 103.699219 L 331.527344 103.90625 L 331.566406 104.109375 L 331.628906 104.308594 L 331.71875 104.496094 L 331.832031 104.671875 L 331.964844 104.832031 L 332.113281 104.972656 L 332.28125 105.097656 L 332.464844 105.195313 L 332.65625 105.273438 L 332.859375 105.324219 L 333.066406 105.351563 L 333.273438 105.351563 L 333.480469 105.324219 L 333.679688 105.273438 L 333.875 105.195313 L 334.058594 105.097656 L 334.226563 104.972656 L 334.375 104.832031 L 334.507813 104.671875 L 334.621094 104.496094 L 334.707031 104.308594 L 334.773438 104.109375 L 334.8125 103.90625 L 334.824219 103.699219 Z M 334.8125 103.492188 "/>
<path style="fill-rule:nonzero;fill:rgb(87.45098%,32.54902%,41.960784%);fill-opacity:1;stroke-width:0.75;stroke-linecap:round;stroke-linejoin:round;stroke:rgb(0%,0%,0%);stroke-opacity:1;stroke-miterlimit:10;" d="M 247.175781 24.523438 L 247.136719 24.316406 L 247.070313 24.121094 L 246.984375 23.933594 L 246.871094 23.757813 L 246.738281 23.597656 L 246.585938 23.453125 L 246.417969 23.332031 L 246.238281 23.230469 L 246.042969 23.15625 L 245.84375 23.101563 L 245.636719 23.078125 L 245.429688 23.078125 L 245.222656 23.101563 L 245.019531 23.15625 L 244.828125 23.230469 L 244.644531 23.332031 L 244.476563 23.453125 L 244.324219 23.597656 L 244.191406 23.757813 L 244.082031 23.933594 L 243.992188 24.121094 L 243.929688 24.316406 L 243.890625 24.523438 L 243.878906 24.730469 L 243.890625 24.9375 L 243.929688 25.140625 L 243.992188 25.339844 L 244.082031 25.527344 L 244.191406 25.703125 L 244.324219 25.863281 L 244.476563 26.003906 L 244.644531 26.128906 L 244.828125 26.226563 L 245.019531 26.304688 L 245.222656 26.355469 L 245.429688 26.382813 L 245.636719 26.382813 L 245.84375 26.355469 L 246.042969 26.304688 L 246.238281 26.226563 L 246.417969 26.128906 L 246.585938 26.003906 L 246.738281 25.863281 L 246.871094 25.703125 L 246.984375 25.527344 L 247.070313 25.339844 L 247.136719 25.140625 L 247.175781 24.9375 L 247.1875 24.730469 Z M 247.175781 24.523438 "/>
<path style="fill-rule:nonzero;fill:rgb(87.45098%,32.54902%,41.960784%);fill-opacity:1;stroke-width:0.75;stroke-linecap:round;stroke-linejoin:round;stroke:rgb(0%,0%,0%);stroke-opacity:1;stroke-miterlimit:10;" d="M 331.480469 109.71875 L 331.441406 109.515625 L 331.375 109.316406 L 331.289063 109.128906 L 331.175781 108.953125 L 331.042969 108.792969 L 330.894531 108.652344 L 330.722656 108.527344 L 330.542969 108.429688 L 330.347656 108.351563 L 330.148438 108.300781 L 329.941406 108.273438 L 329.734375 108.273438 L 329.527344 108.300781 L 329.324219 108.351563 L 329.132813 108.429688 L 328.949219 108.527344 L 328.78125 108.652344 L 328.628906 108.792969 L 328.496094 108.953125 L 328.386719 109.128906 L 328.296875 109.316406 L 328.234375 109.515625 L 328.195313 109.71875 L 328.183594 109.925781 L 328.195313 110.132813 L 328.234375 110.339844 L 328.296875 110.535156 L 328.386719 110.722656 L 328.496094 110.898438 L 328.628906 111.058594 L 328.78125 111.203125 L 328.949219 111.324219 L 329.132813 111.425781 L 329.324219 111.5 L 329.527344 111.550781 L 329.734375 111.578125 L 329.941406 111.578125 L 330.148438 111.550781 L 330.347656 111.5 L 330.542969 111.425781 L 330.722656 111.324219 L 330.894531 111.203125 L 331.042969 111.058594 L 331.175781 110.898438 L 331.289063 110.722656 L 331.375 110.535156 L 331.441406 110.339844 L 331.480469 110.132813 L 331.492188 109.925781 Z M 331.480469 109.71875 "/>
<path style="fill-rule:nonzero;fill:rgb(87.45098%,32.54902%,41.960784%);fill-opacity:1;stroke-width:0.75;stroke-linecap:round;stroke-linejoin:round;stroke:rgb(0%,0%,0%);stroke-opacity:1;stroke-miterlimit:10;" d="M 289.8125 145.15625 L 289.773438 144.949219 L 289.710938 144.753906 L 289.621094 144.566406 L 289.511719 144.390625 L 289.378906 144.230469 L 289.226563 144.085938 L 289.058594 143.964844 L 288.875 143.863281 L 288.683594 143.789063 L 288.480469 143.734375 L 288.273438 143.710938 L 288.066406 143.710938 L 287.859375 143.734375 L 287.660156 143.789063 L 287.464844 143.863281 L 287.285156 143.964844 L 287.117188 144.085938 L 286.964844 144.230469 L 286.832031 144.390625 L 286.71875 144.566406 L 286.632813 144.753906 L 286.566406 144.949219 L 286.527344 145.15625 L 286.515625 145.363281 L 286.527344 145.570313 L 286.566406 145.773438 L 286.632813 145.972656 L 286.71875 146.160156 L 286.832031 146.335938 L 286.964844 146.496094 L 287.117188 146.636719 L 287.285156 146.761719 L 287.464844 146.859375 L 287.660156 146.9375 L 287.859375 146.988281 L 288.066406 147.015625 L 288.273438 147.015625 L 288.480469 146.988281 L 288.683594 146.9375 L 288.875 146.859375 L 289.058594 146.761719 L 289.226563 146.636719 L 289.378906 146.496094 L 289.511719 146.335938 L 289.621094 146.160156 L 289.710938 145.972656 L 289.773438 145.773438 L 289.8125 145.570313 L 289.828125 145.363281 Z M 289.8125 145.15625 "/>
<path style="fill-rule:nonzero;fill:rgb(87.45098%,32.54902%,41.960784%);fill-opacity:1;stroke-width:0.75;stroke-linecap:round;stroke-linejoin:round;stroke:rgb(0%,0%,0%);stroke-opacity:1;stroke-miterlimit:10;" d="M 235.515625 146.703125 L 235.476563 146.5 L 235.414063 146.300781 L 235.324219 146.113281 L 235.210938 145.9375 L 235.078125 145.777344 L 234.929688 145.632813 L 234.761719 145.511719 L 234.578125 145.414063 L 234.382813 145.335938 L 234.183594 145.285156 L 233.976563 145.257813 L 233.769531 145.257813 L 233.5625 145.285156 L 233.363281 145.335938 L 233.167969 145.414063 L 232.984375 145.511719 L 232.816406 145.632813 L 232.667969 145.777344 L 232.535156 145.9375 L 232.421875 146.113281 L 232.332031 146.300781 L 232.269531 146.5 L 232.230469 146.703125 L 232.21875 146.910156 L 232.230469 147.117188 L 232.269531 147.320313 L 232.332031 147.519531 L 232.421875 147.707031 L 232.535156 147.882813 L 232.667969 148.042969 L 232.816406 148.1875 L 232.984375 148.308594 L 233.167969 148.40625 L 233.363281 148.484375 L 233.5625 148.535156 L 233.769531 148.5625 L 233.976563 148.5625 L 234.183594 148.535156 L 234.382813 148.484375 L 234.578125 148.40625 L 234.761719 148.308594 L 234.929688 148.1875 L 235.078125 148.042969 L 235.210938 147.882813 L 235.324219 147.707031 L 235.414063 147.519531 L 235.476563 147.320313 L 235.515625 147.117188 L 235.527344 146.910156 Z M 235.515625 146.703125 "/>
<path style="fill-rule:nonzero;fill:rgb(87.45098%,32.54902%,41.960784%);fill-opacity:1;stroke-width:0.75;stroke-linecap:round;stroke-linejoin:round;stroke:rgb(0%,0%,0%);stroke-opacity:1;stroke-miterlimit:10;" d="M 256.167969 155.878906 L 256.128906 155.675781 L 256.066406 155.476563 L 255.976563 155.289063 L 255.867188 155.113281 L 255.734375 154.953125 L 255.582031 154.8125 L 255.414063 154.691406 L 255.230469 154.589844 L 255.039063 154.511719 L 254.835938 154.460938 L 254.628906 154.433594 L 254.421875 154.433594 L 254.214844 154.460938 L 254.015625 154.511719 L 253.820313 154.589844 L 253.640625 154.691406 L 253.472656 154.8125 L 253.320313 154.953125 L 253.1875 155.113281 L 253.074219 155.289063 L 252.988281 155.476563 L 252.921875 155.675781 L 252.882813 155.878906 L 252.871094 156.085938 L 252.882813 156.296875 L 252.921875 156.5 L 252.988281 156.695313 L 253.074219 156.886719 L 253.1875 157.058594 L 253.320313 157.222656 L 253.472656 157.363281 L 253.640625 157.484375 L 253.820313 157.585938 L 254.015625 157.660156 L 254.214844 157.714844 L 254.421875 157.738281 L 254.628906 157.738281 L 254.835938 157.714844 L 255.039063 157.660156 L 255.230469 157.585938 L 255.414063 157.484375 L 255.582031 157.363281 L 255.734375 157.222656 L 255.867188 157.058594 L 255.976563 156.886719 L 256.066406 156.695313 L 256.128906 156.5 L 256.167969 156.296875 L 256.183594 156.085938 Z M 256.167969 155.878906 "/>
<path style="fill-rule:nonzero;fill:rgb(87.45098%,32.54902%,41.960784%);fill-opacity:1;stroke-width:0.75;stroke-linecap:round;stroke-linejoin:round;stroke:rgb(0%,0%,0%);stroke-opacity:1;stroke-miterlimit:10;" d="M 326.976563 144.136719 L 326.9375 143.929688 L 326.871094 143.734375 L 326.78125 143.542969 L 326.671875 143.371094 L 326.539063 143.210938 L 326.386719 143.066406 L 326.21875 142.945313 L 326.039063 142.84375 L 325.84375 142.769531 L 325.640625 142.714844 L 325.4375 142.691406 L 325.226563 142.691406 L 325.023438 142.714844 L 324.820313 142.769531 L 324.628906 142.84375 L 324.445313 142.945313 L 324.277344 143.066406 L 324.125 143.210938 L 323.992188 143.371094 L 323.882813 143.542969 L 323.792969 143.734375 L 323.730469 143.929688 L 323.691406 144.136719 L 323.675781 144.34375 L 323.691406 144.550781 L 323.730469 144.753906 L 323.792969 144.953125 L 323.882813 145.140625 L 323.992188 145.316406 L 324.125 145.476563 L 324.277344 145.617188 L 324.445313 145.738281 L 324.628906 145.839844 L 324.820313 145.917969 L 325.023438 145.96875 L 325.226563 145.996094 L 325.4375 145.996094 L 325.640625 145.96875 L 325.84375 145.917969 L 326.039063 145.839844 L 326.21875 145.738281 L 326.386719 145.617188 L 326.539063 145.476563 L 326.671875 145.316406 L 326.78125 145.140625 L 326.871094 144.953125 L 326.9375 144.753906 L 326.976563 144.550781 L 326.988281 144.34375 Z M 326.976563 144.136719 "/>
<path style="fill-rule:nonzero;fill:rgb(87.45098%,32.54902%,41.960784%);fill-opacity:1;stroke-width:0.75;stroke-linecap:round;stroke-linejoin:round;stroke:rgb(0%,0%,0%);stroke-opacity:1;stroke-miterlimit:10;" d="M 263.769531 132.625 L 263.730469 132.421875 L 263.664063 132.222656 L 263.574219 132.035156 L 263.464844 131.859375 L 263.332031 131.699219 L 263.179688 131.558594 L 263.011719 131.433594 L 262.832031 131.335938 L 262.636719 131.257813 L 262.4375 131.207031 L 262.230469 131.179688 L 262.019531 131.179688 L 261.816406 131.207031 L 261.613281 131.257813 L 261.421875 131.335938 L 261.238281 131.433594 L 261.070313 131.558594 L 260.917969 131.699219 L 260.785156 131.859375 L 260.675781 132.035156 L 260.585938 132.222656 L 260.523438 132.421875 L 260.484375 132.625 L 260.46875 132.832031 L 260.484375 133.039063 L 260.523438 133.242188 L 260.585938 133.441406 L 260.675781 133.628906 L 260.785156 133.804688 L 260.917969 133.964844 L 261.070313 134.109375 L 261.238281 134.230469 L 261.421875 134.332031 L 261.613281 134.40625 L 261.816406 134.457031 L 262.019531 134.484375 L 262.230469 134.484375 L 262.4375 134.457031 L 262.636719 134.40625 L 262.832031 134.332031 L 263.011719 134.230469 L 263.179688 134.109375 L 263.332031 133.964844 L 263.464844 133.804688 L 263.574219 133.628906 L 263.664063 133.441406 L 263.730469 133.242188 L 263.769531 133.039063 L 263.78125 132.832031 Z M 263.769531 132.625 "/>
<path style="fill-rule:nonzero;fill:rgb(87.45098%,32.54902%,41.960784%);fill-opacity:1;stroke-width:0.75;stroke-linecap:round;stroke-linejoin:round;stroke:rgb(0%,0%,0%);stroke-opacity:1;stroke-miterlimit:10;" d="M 262.621094 123.949219 L 262.582031 123.746094 L 262.519531 123.546875 L 262.429688 123.359375 L 262.320313 123.183594 L 262.1875 123.023438 L 262.035156 122.882813 L 261.867188 122.757813 L 261.683594 122.660156 L 261.492188 122.582031 L 261.289063 122.53125 L 261.082031 122.503906 L 260.875 122.503906 L 260.667969 122.53125 L 260.46875 122.582031 L 260.273438 122.660156 L 260.09375 122.757813 L 259.925781 122.882813 L 259.773438 123.023438 L 259.640625 123.183594 L 259.527344 123.359375 L 259.441406 123.546875 L 259.375 123.746094 L 259.335938 123.949219 L 259.324219 124.15625 L 259.335938 124.363281 L 259.375 124.570313 L 259.441406 124.765625 L 259.527344 124.953125 L 259.640625 125.128906 L 259.773438 125.289063 L 259.925781 125.433594 L 260.09375 125.554688 L 260.273438 125.65625 L 260.46875 125.730469 L 260.667969 125.785156 L 260.875 125.808594 L 261.082031 125.808594 L 261.289063 125.785156 L 261.492188 125.730469 L 261.683594 125.65625 L 261.867188 125.554688 L 262.035156 125.433594 L 262.1875 125.289063 L 262.320313 125.128906 L 262.429688 124.953125 L 262.519531 124.765625 L 262.582031 124.570313 L 262.621094 124.363281 L 262.636719 124.15625 Z M 262.621094 123.949219 "/>
<path style="fill-rule:nonzero;fill:rgb(87.45098%,32.54902%,41.960784%);fill-opacity:1;stroke-width:0.75;stroke-linecap:round;stroke-linejoin:round;stroke:rgb(0%,0%,0%);stroke-opacity:1;stroke-miterlimit:10;" d="M 311.765625 141.5 L 311.726563 141.296875 L 311.660156 141.101563 L 311.570313 140.910156 L 311.460938 140.734375 L 311.328125 140.574219 L 311.175781 140.433594 L 311.007813 140.3125 L 310.824219 140.210938 L 310.632813 140.136719 L 310.429688 140.082031 L 310.226563 140.058594 L 310.015625 140.058594 L 309.8125 140.082031 L 309.609375 140.136719 L 309.417969 140.210938 L 309.234375 140.3125 L 309.066406 140.433594 L 308.914063 140.574219 L 308.78125 140.734375 L 308.671875 140.910156 L 308.582031 141.101563 L 308.519531 141.296875 L 308.480469 141.5 L 308.464844 141.710938 L 308.480469 141.917969 L 308.519531 142.121094 L 308.582031 142.320313 L 308.671875 142.507813 L 308.78125 142.683594 L 308.914063 142.84375 L 309.066406 142.984375 L 309.234375 143.105469 L 309.417969 143.207031 L 309.609375 143.285156 L 309.8125 143.335938 L 310.015625 143.363281 L 310.226563 143.363281 L 310.429688 143.335938 L 310.632813 143.285156 L 310.824219 143.207031 L 311.007813 143.105469 L 311.175781 142.984375 L 311.328125 142.84375 L 311.460938 142.683594 L 311.570313 142.507813 L 311.660156 142.320313 L 311.726563 142.121094 L 311.765625 141.917969 L 311.777344 141.710938 Z M 311.765625 141.5 "/>
<path style="fill-rule:nonzero;fill:rgb(87.45098%,32.54902%,41.960784%);fill-opacity:1;stroke-width:0.75;stroke-linecap:round;stroke-linejoin:round;stroke:rgb(0%,0%,0%);stroke-opacity:1;stroke-miterlimit:10;" d="M 308.90625 74.113281 L 308.867188 73.910156 L 308.804688 73.710938 L 308.714844 73.523438 L 308.601563 73.347656 L 308.46875 73.1875 L 308.320313 73.046875 L 308.152344 72.921875 L 307.96875 72.824219 L 307.777344 72.746094 L 307.574219 72.695313 L 307.367188 72.667969 L 307.160156 72.667969 L 306.953125 72.695313 L 306.753906 72.746094 L 306.558594 72.824219 L 306.375 72.921875 L 306.207031 73.046875 L 306.058594 73.1875 L 305.925781 73.347656 L 305.8125 73.523438 L 305.722656 73.710938 L 305.660156 73.910156 L 305.621094 74.113281 L 305.609375 74.320313 L 305.621094 74.527344 L 305.660156 74.734375 L 305.722656 74.929688 L 305.8125 75.117188 L 305.925781 75.292969 L 306.058594 75.453125 L 306.207031 75.597656 L 306.375 75.71875 L 306.558594 75.820313 L 306.753906 75.894531 L 306.953125 75.949219 L 307.160156 75.972656 L 307.367188 75.972656 L 307.574219 75.949219 L 307.777344 75.894531 L 307.96875 75.820313 L 308.152344 75.71875 L 308.320313 75.597656 L 308.46875 75.453125 L 308.601563 75.292969 L 308.714844 75.117188 L 308.804688 74.929688 L 308.867188 74.734375 L 308.90625 74.527344 L 308.917969 74.320313 Z M 308.90625 74.113281 "/>
<path style="fill-rule:nonzero;fill:rgb(87.45098%,32.54902%,41.960784%);fill-opacity:1;stroke-width:0.75;stroke-linecap:round;stroke-linejoin:round;stroke:rgb(0%,0%,0%);stroke-opacity:1;stroke-miterlimit:10;" d="M 257.953125 114.277344 L 257.914063 114.074219 L 257.851563 113.875 L 257.761719 113.6875 L 257.652344 113.511719 L 257.519531 113.351563 L 257.367188 113.210938 L 257.199219 113.085938 L 257.015625 112.988281 L 256.824219 112.910156 L 256.621094 112.859375 L 256.414063 112.832031 L 256.207031 112.832031 L 256 112.859375 L 255.800781 112.910156 L 255.605469 112.988281 L 255.425781 113.085938 L 255.257813 113.210938 L 255.105469 113.351563 L 254.972656 113.511719 L 254.859375 113.6875 L 254.773438 113.875 L 254.707031 114.074219 L 254.667969 114.277344 L 254.65625 114.484375 L 254.667969 114.691406 L 254.707031 114.898438 L 254.773438 115.09375 L 254.859375 115.28125 L 254.972656 115.457031 L 255.105469 115.617188 L 255.257813 115.761719 L 255.425781 115.882813 L 255.605469 115.984375 L 255.800781 116.058594 L 256 116.109375 L 256.207031 116.136719 L 256.414063 116.136719 L 256.621094 116.109375 L 256.824219 116.058594 L 257.015625 115.984375 L 257.199219 115.882813 L 257.367188 115.761719 L 257.519531 115.617188 L 257.652344 115.457031 L 257.761719 115.28125 L 257.851563 115.09375 L 257.914063 114.898438 L 257.953125 114.691406 L 257.96875 114.484375 Z M 257.953125 114.277344 "/>
<path style="fill-rule:nonzero;fill:rgb(87.45098%,32.54902%,41.960784%);fill-opacity:1;stroke-width:0.75;stroke-linecap:round;stroke-linejoin:round;stroke:rgb(0%,0%,0%);stroke-opacity:1;stroke-miterlimit:10;" d="M 304.09375 109.761719 L 304.054688 109.558594 L 303.992188 109.359375 L 303.902344 109.171875 L 303.792969 108.996094 L 303.660156 108.835938 L 303.507813 108.695313 L 303.339844 108.574219 L 303.15625 108.472656 L 302.964844 108.394531 L 302.761719 108.34375 L 302.554688 108.316406 L 302.347656 108.316406 L 302.140625 108.34375 L 301.941406 108.394531 L 301.746094 108.472656 L 301.566406 108.574219 L 301.398438 108.695313 L 301.246094 108.835938 L 301.113281 108.996094 L 301 109.171875 L 300.914063 109.359375 L 300.847656 109.558594 L 300.808594 109.761719 L 300.796875 109.96875 L 300.808594 110.179688 L 300.847656 110.382813 L 300.914063 110.578125 L 301 110.769531 L 301.113281 110.945313 L 301.246094 111.105469 L 301.398438 111.246094 L 301.566406 111.367188 L 301.746094 111.46875 L 301.941406 111.546875 L 302.140625 111.597656 L 302.347656 111.621094 L 302.554688 111.621094 L 302.761719 111.597656 L 302.964844 111.546875 L 303.15625 111.46875 L 303.339844 111.367188 L 303.507813 111.246094 L 303.660156 111.105469 L 303.792969 110.945313 L 303.902344 110.769531 L 303.992188 110.578125 L 304.054688 110.382813 L 304.09375 110.179688 L 304.109375 109.96875 Z M 304.09375 109.761719 "/>
<path style="fill-rule:nonzero;fill:rgb(87.45098%,32.54902%,41.960784%);fill-opacity:1;stroke-width:0.75;stroke-linecap:round;stroke-linejoin:round;stroke:rgb(0%,0%,0%);stroke-opacity:1;stroke-miterlimit:10;" d="M 299.40625 110.144531 L 299.367188 109.941406 L 299.304688 109.746094 L 299.214844 109.554688 L 299.105469 109.378906 L 298.972656 109.21875 L 298.820313 109.078125 L 298.652344 108.957031 L 298.46875 108.855469 L 298.277344 108.777344 L 298.074219 108.726563 L 297.871094 108.703125 L 297.660156 108.703125 L 297.453125 108.726563 L 297.253906 108.777344 L 297.058594 108.855469 L 296.878906 108.957031 L 296.710938 109.078125 L 296.558594 109.21875 L 296.425781 109.378906 L 296.316406 109.554688 L 296.226563 109.746094 L 296.160156 109.941406 L 296.121094 110.144531 L 296.109375 110.355469 L 296.121094 110.5625 L 296.160156 110.765625 L 296.226563 110.964844 L 296.316406 111.152344 L 296.425781 111.328125 L 296.558594 111.488281 L 296.710938 111.628906 L 296.878906 111.75 L 297.058594 111.851563 L 297.253906 111.929688 L 297.453125 111.980469 L 297.660156 112.007813 L 297.871094 112.007813 L 298.074219 111.980469 L 298.277344 111.929688 L 298.46875 111.851563 L 298.652344 111.75 L 298.820313 111.628906 L 298.972656 111.488281 L 299.105469 111.328125 L 299.214844 111.152344 L 299.304688 110.964844 L 299.367188 110.765625 L 299.40625 110.5625 L 299.421875 110.355469 Z M 299.40625 110.144531 "/>
</g>
</svg>
