<?xml version="1.0" encoding="UTF-8"?>
<svg xmlns="http://www.w3.org/2000/svg" xmlns:xlink="http://www.w3.org/1999/xlink" width="504pt" height="252pt" viewBox="0 0 504 252" version="1.1">
<g id="surface139">
<rect x="0" y="0" width="504" height="252" style="fill:rgb(100%,100%,100%);fill-opacity:1;stroke:none;"/>
<path style="fill-rule:nonzero;fill:rgb(0%,0%,0%);fill-opacity:1;stroke-width:0.75;stroke-linecap:round;stroke-linejoin:round;stroke:rgb(0%,0%,0%);stroke-opacity:1;stroke-miterlimit:10;" d="M 233.261719 149.148438 L 242.941406 139.433594 L 243.105469 139.597656 L 233.425781 149.3125 Z M 233.261719 149.148438 "/>
<path style="fill-rule:nonzero;fill:rgb(0%,0%,0%);fill-opacity:1;stroke-width:0.75;stroke-linecap:round;stroke-linejoin:round;stroke:rgb(0%,0%,0%);stroke-opacity:1;stroke-miterlimit:10;" d="M 231.683594 148.554688 L 233.675781 99.214844 L 233.90625 99.222656 L 231.917969 148.5625 Z M 231.683594 148.554688 "/>
<path style="fill-rule:nonzero;fill:rgb(0%,0%,0%);fill-opacity:1;stroke-width:0.75;stroke-linecap:round;stroke-linejoin:round;stroke:rgb(0%,0%,0%);stroke-opacity:1;stroke-miterlimit:10;" d="M 229.898438 149.421875 L 210.445313 132.113281 L 210.601563 131.941406 L 230.050781 149.246094 Z M 229.898438 149.421875 "/>
<path style="fill-rule:nonzero;fill:rgb(0%,0%,0%);fill-opacity:1;stroke-width:0.75;stroke-linecap:round;stroke-linejoin:round;stroke:rgb(0%,0%,0%);stroke-opacity:1;stroke-miterlimit:10;" d="M 233.257813 152.605469 L 265.039063 191.910156 L 264.855469 192.054688 L 233.074219 152.753906 Z M 233.257813 152.605469 "/>
<path style="fill-rule:nonzero;fill:rgb(0%,0%,0%);fill-opacity:1;stroke-width:0.75;stroke-linecap:round;stroke-linejoin:round;stroke:rgb(0%,0%,0%);stroke-opacity:1;stroke-miterlimit:10;" d="M 231.367188 153.171875 L 221.144531 204.261719 L 220.917969 204.214844 L 231.136719 153.128906 Z M 231.367188 153.171875 "/>
<path style="fill-rule:nonzero;fill:rgb(0%,0%,0%);fill-opacity:1;stroke-width:0.75;stroke-linecap:round;stroke-linejoin:round;stroke:rgb(0%,0%,0%);stroke-opacity:1;stroke-miterlimit:10;" d="M 232.441406 153.078125 L 246.917969 204.886719 L 246.695313 204.949219 L 232.21875 153.140625 Z M 232.441406 153.078125 "/>
<path style="fill-rule:nonzero;fill:rgb(0%,0%,0%);fill-opacity:1;stroke-width:0.75;stroke-linecap:round;stroke-linejoin:round;stroke:rgb(0%,0%,0%);stroke-opacity:1;stroke-miterlimit:10;" d="M 229.902344 149.410156 L 202.039063 124.375 L 202.195313 124.203125 L 230.058594 149.238281 Z M 229.902344 149.410156 "/>
<path style="fill-rule:nonzero;fill:rgb(0%,0%,0%);fill-opacity:1;stroke-width:0.75;stroke-linecap:round;stroke-linejoin:round;stroke:rgb(0%,0%,0%);stroke-opacity:1;stroke-miterlimit:10;" d="M 233.09375 149.011719 L 264.886719 110.402344 L 265.066406 110.550781 L 233.273438 149.160156 Z M 233.09375 149.011719 "/>
<path style="fill-rule:nonzero;fill:rgb(0%,0%,0%);fill-opacity:1;stroke-width:0.75;stroke-linecap:round;stroke-linejoin:round;stroke:rgb(0%,0%,0%);stroke-opacity:1;stroke-miterlimit:10;" d="M 232.078125 153.167969 L 236.492188 192.707031 L 236.261719 192.730469 L 231.847656 153.195313 Z M 232.078125 153.167969 "/>
<path style="fill-rule:nonzero;fill:rgb(0%,0%,0%);fill-opacity:1;stroke-width:0.75;stroke-linecap:round;stroke-linejoin:round;stroke:rgb(0%,0%,0%);stroke-opacity:1;stroke-miterlimit:10;" d="M 229.734375 152.101563 L 184.25 177.277344 L 184.140625 177.074219 L 229.621094 151.898438 Z M 229.734375 152.101563 "/>
<path style="fill-rule:nonzero;fill:rgb(0%,0%,0%);fill-opacity:1;stroke-width:0.75;stroke-linecap:round;stroke-linejoin:round;stroke:rgb(0%,0%,0%);stroke-opacity:1;stroke-miterlimit:10;" d="M 229.382813 150.859375 L 180.011719 148.011719 L 180.023438 147.78125 L 229.398438 150.625 Z M 229.382813 150.859375 "/>
<path style="fill-rule:nonzero;fill:rgb(0%,0%,0%);fill-opacity:1;stroke-width:0.75;stroke-linecap:round;stroke-linejoin:round;stroke:rgb(0%,0%,0%);stroke-opacity:1;stroke-miterlimit:10;" d="M 232.199219 148.605469 L 241.277344 114.949219 L 241.5 115.007813 L 232.421875 148.664063 Z M 232.199219 148.605469 "/>
<path style="fill-rule:nonzero;fill:rgb(0%,0%,0%);fill-opacity:1;stroke-width:0.75;stroke-linecap:round;stroke-linejoin:round;stroke:rgb(0%,0%,0%);stroke-opacity:1;stroke-miterlimit:10;" d="M 233.902344 151.636719 L 273.148438 167.476563 L 273.058594 167.691406 L 233.816406 151.851563 Z M 233.902344 151.636719 "/>
<path style="fill-rule:nonzero;fill:rgb(0%,0%,0%);fill-opacity:1;stroke-width:0.75;stroke-linecap:round;stroke-linejoin:round;stroke:rgb(0%,0%,0%);stroke-opacity:1;stroke-miterlimit:10;" d="M 233.675781 149.640625 L 273.222656 127.496094 L 273.335938 127.699219 L 233.789063 149.84375 Z M 233.675781 149.640625 "/>
<path style="fill-rule:nonzero;fill:rgb(0%,0%,0%);fill-opacity:1;stroke-width:0.75;stroke-linecap:round;stroke-linejoin:round;stroke:rgb(0%,0%,0%);stroke-opacity:1;stroke-miterlimit:10;" d="M 230.109375 152.5625 L 212.015625 169.867188 L 211.855469 169.703125 L 229.949219 152.394531 Z M 230.109375 152.5625 "/>
<path style="fill-rule:nonzero;fill:rgb(0%,0%,0%);fill-opacity:1;stroke-width:0.75;stroke-linecap:round;stroke-linejoin:round;stroke:rgb(0%,0%,0%);stroke-opacity:1;stroke-miterlimit:10;" d="M 231.460938 148.566406 L 227.828125 83.25 L 228.058594 83.238281 L 231.695313 148.554688 Z M 231.460938 148.566406 "/>
<path style="fill-rule:nonzero;fill:rgb(0%,0%,0%);fill-opacity:1;stroke-width:0.75;stroke-linecap:round;stroke-linejoin:round;stroke:rgb(0%,0%,0%);stroke-opacity:1;stroke-miterlimit:10;" d="M 243.957031 135.660156 L 234.363281 99.175781 L 234.585938 99.113281 L 244.183594 135.601563 Z M 243.957031 135.660156 "/>
<path style="fill-rule:nonzero;fill:rgb(0%,0%,0%);fill-opacity:1;stroke-width:0.75;stroke-linecap:round;stroke-linejoin:round;stroke:rgb(0%,0%,0%);stroke-opacity:1;stroke-miterlimit:10;" d="M 242.367188 137.519531 L 211.039063 131.066406 L 211.085938 130.839844 L 242.414063 137.292969 Z M 242.367188 137.519531 "/>
<path style="fill-rule:nonzero;fill:rgb(0%,0%,0%);fill-opacity:1;stroke-width:0.75;stroke-linecap:round;stroke-linejoin:round;stroke:rgb(0%,0%,0%);stroke-opacity:1;stroke-miterlimit:10;" d="M 242.429688 137.230469 L 202.546875 123.597656 L 202.625 123.378906 L 242.503906 137.011719 Z M 242.429688 137.230469 "/>
<path style="fill-rule:nonzero;fill:rgb(0%,0%,0%);fill-opacity:1;stroke-width:0.75;stroke-linecap:round;stroke-linejoin:round;stroke:rgb(0%,0%,0%);stroke-opacity:1;stroke-miterlimit:10;" d="M 244.300781 135.578125 L 242.121094 115.058594 L 242.351563 115.035156 L 244.53125 135.554688 Z M 244.300781 135.578125 "/>
<path style="fill-rule:nonzero;fill:rgb(0%,0%,0%);fill-opacity:1;stroke-width:0.75;stroke-linecap:round;stroke-linejoin:round;stroke:rgb(0%,0%,0%);stroke-opacity:1;stroke-miterlimit:10;" d="M 246.382813 139.429688 L 273.695313 166.730469 L 273.53125 166.894531 L 246.21875 139.59375 Z M 246.382813 139.429688 "/>
<path style="fill-rule:nonzero;fill:rgb(0%,0%,0%);fill-opacity:1;stroke-width:0.75;stroke-linecap:round;stroke-linejoin:round;stroke:rgb(0%,0%,0%);stroke-opacity:1;stroke-miterlimit:10;" d="M 246.796875 136.953125 L 273.089844 127.164063 L 273.171875 127.382813 L 246.875 137.171875 Z M 246.796875 136.953125 "/>
<path style="fill-rule:nonzero;fill:rgb(0%,0%,0%);fill-opacity:1;stroke-width:0.75;stroke-linecap:round;stroke-linejoin:round;stroke:rgb(0%,0%,0%);stroke-opacity:1;stroke-miterlimit:10;" d="M 243.082031 139.574219 L 212 169.851563 L 211.839844 169.6875 L 242.917969 139.410156 Z M 243.082031 139.574219 "/>
<path style="fill-rule:nonzero;fill:rgb(0%,0%,0%);fill-opacity:1;stroke-width:0.75;stroke-linecap:round;stroke-linejoin:round;stroke:rgb(0%,0%,0%);stroke-opacity:1;stroke-miterlimit:10;" d="M 246.59375 136.585938 L 288.6875 111.453125 L 288.808594 111.652344 L 246.710938 136.785156 Z M 246.59375 136.585938 "/>
<path style="fill-rule:nonzero;fill:rgb(0%,0%,0%);fill-opacity:1;stroke-width:0.75;stroke-linecap:round;stroke-linejoin:round;stroke:rgb(0%,0%,0%);stroke-opacity:1;stroke-miterlimit:10;" d="M 232.589844 98.828125 L 210.273438 128.695313 L 210.085938 128.554688 L 232.402344 98.691406 Z M 232.589844 98.828125 "/>
<path style="fill-rule:nonzero;fill:rgb(0%,0%,0%);fill-opacity:1;stroke-width:0.75;stroke-linecap:round;stroke-linejoin:round;stroke:rgb(0%,0%,0%);stroke-opacity:1;stroke-miterlimit:10;" d="M 232.117188 98.410156 L 202.296875 121.414063 L 202.15625 121.230469 L 231.976563 98.226563 Z M 232.117188 98.410156 "/>
<path style="fill-rule:nonzero;fill:rgb(0%,0%,0%);fill-opacity:1;stroke-width:0.75;stroke-linecap:round;stroke-linejoin:round;stroke:rgb(0%,0%,0%);stroke-opacity:1;stroke-miterlimit:10;" d="M 236.105469 97.582031 L 264.308594 107.789063 L 264.230469 108.003906 L 236.027344 97.800781 Z M 236.105469 97.582031 "/>
<path style="fill-rule:nonzero;fill:rgb(0%,0%,0%);fill-opacity:1;stroke-width:0.75;stroke-linecap:round;stroke-linejoin:round;stroke:rgb(0%,0%,0%);stroke-opacity:1;stroke-miterlimit:10;" d="M 234.15625 94.59375 L 241.3125 52.222656 L 241.542969 52.261719 L 234.386719 94.632813 Z M 234.15625 94.59375 "/>
<path style="fill-rule:nonzero;fill:rgb(0%,0%,0%);fill-opacity:1;stroke-width:0.75;stroke-linecap:round;stroke-linejoin:round;stroke:rgb(0%,0%,0%);stroke-opacity:1;stroke-miterlimit:10;" d="M 235.042969 98.914063 L 241.039063 110.621094 L 240.832031 110.726563 L 234.839844 99.019531 Z M 235.042969 98.914063 "/>
<path style="fill-rule:nonzero;fill:rgb(0%,0%,0%);fill-opacity:1;stroke-width:0.75;stroke-linecap:round;stroke-linejoin:round;stroke:rgb(0%,0%,0%);stroke-opacity:1;stroke-miterlimit:10;" d="M 233.335938 94.644531 L 224.914063 50.480469 L 225.140625 50.433594 L 233.5625 94.601563 Z M 233.335938 94.644531 "/>
<path style="fill-rule:nonzero;fill:rgb(0%,0%,0%);fill-opacity:1;stroke-width:0.75;stroke-linecap:round;stroke-linejoin:round;stroke:rgb(0%,0%,0%);stroke-opacity:1;stroke-miterlimit:10;" d="M 232.75 94.871094 L 219.25 67.570313 L 219.457031 67.46875 L 232.960938 94.769531 Z M 232.75 94.871094 "/>
<path style="fill-rule:nonzero;fill:rgb(0%,0%,0%);fill-opacity:1;stroke-width:0.75;stroke-linecap:round;stroke-linejoin:round;stroke:rgb(0%,0%,0%);stroke-opacity:1;stroke-miterlimit:10;" d="M 235.851563 95.664063 L 282.011719 69.765625 L 282.125 69.96875 L 235.964844 95.867188 Z M 235.851563 95.664063 "/>
<path style="fill-rule:nonzero;fill:rgb(0%,0%,0%);fill-opacity:1;stroke-width:0.75;stroke-linecap:round;stroke-linejoin:round;stroke:rgb(0%,0%,0%);stroke-opacity:1;stroke-miterlimit:10;" d="M 207.007813 128.996094 L 202.019531 124.398438 L 202.175781 124.226563 L 207.164063 128.828125 Z M 207.007813 128.996094 "/>
<path style="fill-rule:nonzero;fill:rgb(0%,0%,0%);fill-opacity:1;stroke-width:0.75;stroke-linecap:round;stroke-linejoin:round;stroke:rgb(0%,0%,0%);stroke-opacity:1;stroke-miterlimit:10;" d="M 206.820313 131.710938 L 179.785156 146.738281 L 179.671875 146.535156 L 206.707031 131.511719 Z M 206.820313 131.710938 "/>
<path style="fill-rule:nonzero;fill:rgb(0%,0%,0%);fill-opacity:1;stroke-width:0.75;stroke-linecap:round;stroke-linejoin:round;stroke:rgb(0%,0%,0%);stroke-opacity:1;stroke-miterlimit:10;" d="M 210.78125 129.289063 L 239.890625 113.730469 L 240 113.933594 L 210.890625 129.492188 Z M 210.78125 129.289063 "/>
<path style="fill-rule:nonzero;fill:rgb(0%,0%,0%);fill-opacity:1;stroke-width:0.75;stroke-linecap:round;stroke-linejoin:round;stroke:rgb(0%,0%,0%);stroke-opacity:1;stroke-miterlimit:10;" d="M 264.578125 195.214844 L 249.394531 205.914063 L 249.261719 205.722656 L 264.441406 195.027344 Z M 264.578125 195.214844 "/>
<path style="fill-rule:nonzero;fill:rgb(0%,0%,0%);fill-opacity:1;stroke-width:0.75;stroke-linecap:round;stroke-linejoin:round;stroke:rgb(0%,0%,0%);stroke-opacity:1;stroke-miterlimit:10;" d="M 264.09375 193.996094 L 238.957031 195.042969 L 238.949219 194.8125 L 264.082031 193.765625 Z M 264.09375 193.996094 "/>
<path style="fill-rule:nonzero;fill:rgb(0%,0%,0%);fill-opacity:1;stroke-width:0.75;stroke-linecap:round;stroke-linejoin:round;stroke:rgb(0%,0%,0%);stroke-opacity:1;stroke-miterlimit:10;" d="M 222.898438 206.453125 L 245.117188 206.984375 L 245.109375 207.214844 L 222.890625 206.683594 Z M 222.898438 206.453125 "/>
<path style="fill-rule:nonzero;fill:rgb(0%,0%,0%);fill-opacity:1;stroke-width:0.75;stroke-linecap:round;stroke-linejoin:round;stroke:rgb(0%,0%,0%);stroke-opacity:1;stroke-miterlimit:10;" d="M 222.394531 205.066406 L 234.679688 196.28125 L 234.816406 196.46875 L 222.53125 205.257813 Z M 222.394531 205.066406 "/>
<path style="fill-rule:nonzero;fill:rgb(0%,0%,0%);fill-opacity:1;stroke-width:0.75;stroke-linecap:round;stroke-linejoin:round;stroke:rgb(0%,0%,0%);stroke-opacity:1;stroke-miterlimit:10;" d="M 221.71875 208.535156 L 236.417969 237.894531 L 236.210938 237.996094 L 221.511719 208.636719 Z M 221.71875 208.535156 "/>
<path style="fill-rule:nonzero;fill:rgb(0%,0%,0%);fill-opacity:1;stroke-width:0.75;stroke-linecap:round;stroke-linejoin:round;stroke:rgb(0%,0%,0%);stroke-opacity:1;stroke-miterlimit:10;" d="M 246.863281 209.40625 L 238.144531 237.835938 L 237.925781 237.765625 L 246.640625 209.339844 Z M 246.863281 209.40625 "/>
<path style="fill-rule:nonzero;fill:rgb(0%,0%,0%);fill-opacity:1;stroke-width:0.75;stroke-linecap:round;stroke-linejoin:round;stroke:rgb(0%,0%,0%);stroke-opacity:1;stroke-miterlimit:10;" d="M 268.773438 108.730469 L 288.433594 110.089844 L 288.417969 110.320313 L 268.757813 108.960938 Z M 268.773438 108.730469 "/>
<path style="fill-rule:nonzero;fill:rgb(0%,0%,0%);fill-opacity:1;stroke-width:0.75;stroke-linecap:round;stroke-linejoin:round;stroke:rgb(0%,0%,0%);stroke-opacity:1;stroke-miterlimit:10;" d="M 267.28125 106.515625 L 283.046875 70.808594 L 283.257813 70.902344 L 267.496094 106.609375 Z M 267.28125 106.515625 "/>
<path style="fill-rule:nonzero;fill:rgb(0%,0%,0%);fill-opacity:1;stroke-width:0.75;stroke-linecap:round;stroke-linejoin:round;stroke:rgb(0%,0%,0%);stroke-opacity:1;stroke-miterlimit:10;" d="M 266.851563 106.398438 L 275.117188 69.875 L 275.34375 69.925781 L 267.078125 106.449219 Z M 266.851563 106.398438 "/>
<path style="fill-rule:nonzero;fill:rgb(0%,0%,0%);fill-opacity:1;stroke-width:0.75;stroke-linecap:round;stroke-linejoin:round;stroke:rgb(0%,0%,0%);stroke-opacity:1;stroke-miterlimit:10;" d="M 243.925781 50.925781 L 273.738281 66.464844 L 273.632813 66.667969 L 243.816406 51.128906 Z M 243.925781 50.925781 "/>
<path style="fill-rule:nonzero;fill:rgb(0%,0%,0%);fill-opacity:1;stroke-width:0.75;stroke-linecap:round;stroke-linejoin:round;stroke:rgb(0%,0%,0%);stroke-opacity:1;stroke-miterlimit:10;" d="M 243.289063 110.8125 L 274.261719 69.425781 L 274.445313 69.566406 L 243.476563 110.949219 Z M 243.289063 110.8125 "/>
<path style="fill-rule:nonzero;fill:rgb(0%,0%,0%);fill-opacity:1;stroke-width:0.75;stroke-linecap:round;stroke-linejoin:round;stroke:rgb(0%,0%,0%);stroke-opacity:1;stroke-miterlimit:10;" d="M 323.992188 75.566406 L 286.359375 69.234375 L 286.398438 69.003906 L 324.03125 75.339844 Z M 323.992188 75.566406 "/>
<path style="fill-rule:nonzero;fill:rgb(0%,0%,0%);fill-opacity:1;stroke-width:0.75;stroke-linecap:round;stroke-linejoin:round;stroke:rgb(0%,0%,0%);stroke-opacity:1;stroke-miterlimit:10;" d="M 323.992188 75.582031 L 278.015625 68.125 L 278.050781 67.894531 L 324.027344 75.351563 Z M 323.992188 75.582031 "/>
<path style="fill-rule:nonzero;fill:rgb(0%,0%,0%);fill-opacity:1;stroke-width:0.75;stroke-linecap:round;stroke-linejoin:round;stroke:rgb(0%,0%,0%);stroke-opacity:1;stroke-miterlimit:10;" d="M 318.632813 46.84375 L 286.109375 67.585938 L 285.984375 67.386719 L 318.507813 46.648438 Z M 318.632813 46.84375 "/>
<path style="fill-rule:nonzero;fill:rgb(0%,0%,0%);fill-opacity:1;stroke-width:0.75;stroke-linecap:round;stroke-linejoin:round;stroke:rgb(0%,0%,0%);stroke-opacity:1;stroke-miterlimit:10;" d="M 318.496094 46.628906 L 277.875 66.714844 L 277.773438 66.507813 L 318.394531 46.421875 Z M 318.496094 46.628906 "/>
<path style="fill-rule:nonzero;fill:rgb(0%,0%,0%);fill-opacity:1;stroke-width:0.75;stroke-linecap:round;stroke-linejoin:round;stroke:rgb(0%,0%,0%);stroke-opacity:1;stroke-miterlimit:10;" d="M 306.777344 35.09375 L 285.476563 66.871094 L 285.285156 66.742188 L 306.582031 34.964844 Z M 306.777344 35.09375 "/>
<path style="fill-rule:nonzero;fill:rgb(0%,0%,0%);fill-opacity:1;stroke-width:0.75;stroke-linecap:round;stroke-linejoin:round;stroke:rgb(0%,0%,0%);stroke-opacity:1;stroke-miterlimit:10;" d="M 306.472656 34.875 L 277.410156 66.023438 L 277.242188 65.863281 L 306.304688 34.71875 Z M 306.472656 34.875 "/>
<path style="fill-rule:nonzero;fill:rgb(0%,0%,0%);fill-opacity:1;stroke-width:0.75;stroke-linecap:round;stroke-linejoin:round;stroke:rgb(0%,0%,0%);stroke-opacity:1;stroke-miterlimit:10;" d="M 275.207031 124.144531 L 275.609375 69.957031 L 275.84375 69.960938 L 275.4375 124.144531 Z M 275.207031 124.144531 "/>
<path style="fill-rule:nonzero;fill:rgb(0%,0%,0%);fill-opacity:1;stroke-width:0.75;stroke-linecap:round;stroke-linejoin:round;stroke:rgb(0%,0%,0%);stroke-opacity:1;stroke-miterlimit:10;" d="M 323.941406 60.871094 L 286.386719 68.390625 L 286.34375 68.164063 L 323.894531 60.640625 Z M 323.941406 60.871094 "/>
<path style="fill-rule:nonzero;fill:rgb(0%,0%,0%);fill-opacity:1;stroke-width:0.75;stroke-linecap:round;stroke-linejoin:round;stroke:rgb(0%,0%,0%);stroke-opacity:1;stroke-miterlimit:10;" d="M 323.914063 60.75 L 278.054688 67.421875 L 278.023438 67.191406 L 323.878906 60.519531 Z M 323.914063 60.75 "/>
<path style="fill-rule:nonzero;fill:rgb(0%,0%,0%);fill-opacity:1;stroke-width:0.75;stroke-linecap:round;stroke-linejoin:round;stroke:rgb(0%,0%,0%);stroke-opacity:1;stroke-miterlimit:10;" d="M 318.0625 90.917969 L 285.972656 70.09375 L 286.097656 69.898438 L 318.1875 90.722656 Z M 318.0625 90.917969 "/>
<path style="fill-rule:nonzero;fill:rgb(0%,0%,0%);fill-opacity:1;stroke-width:0.75;stroke-linecap:round;stroke-linejoin:round;stroke:rgb(0%,0%,0%);stroke-opacity:1;stroke-miterlimit:10;" d="M 317.984375 91.066406 L 277.71875 68.859375 L 277.832031 68.65625 L 318.09375 90.863281 Z M 317.984375 91.066406 "/>
<path style="fill-rule:nonzero;fill:rgb(0%,0%,0%);fill-opacity:1;stroke-width:0.75;stroke-linecap:round;stroke-linejoin:round;stroke:rgb(0%,0%,0%);stroke-opacity:1;stroke-miterlimit:10;" d="M 248.441406 29.363281 L 207.449219 31.636719 L 207.433594 31.40625 L 248.425781 29.128906 Z M 248.441406 29.363281 "/>
<path style="fill-rule:nonzero;fill:rgb(0%,0%,0%);fill-opacity:1;stroke-width:0.75;stroke-linecap:round;stroke-linejoin:round;stroke:rgb(0%,0%,0%);stroke-opacity:1;stroke-miterlimit:10;" d="M 248.945313 30.578125 L 226.535156 46.90625 L 226.398438 46.71875 L 248.808594 30.390625 Z M 248.945313 30.578125 "/>
<path style="fill-rule:nonzero;fill:rgb(0%,0%,0%);fill-opacity:1;stroke-width:0.75;stroke-linecap:round;stroke-linejoin:round;stroke:rgb(0%,0%,0%);stroke-opacity:1;stroke-miterlimit:10;" d="M 253.011719 28.59375 L 275.949219 24.464844 L 275.992188 24.691406 L 253.054688 28.820313 Z M 253.011719 28.59375 "/>
<path style="fill-rule:nonzero;fill:rgb(0%,0%,0%);fill-opacity:1;stroke-width:0.75;stroke-linecap:round;stroke-linejoin:round;stroke:rgb(0%,0%,0%);stroke-opacity:1;stroke-miterlimit:10;" d="M 252.332031 30.816406 L 282.683594 66.882813 L 282.507813 67.035156 L 252.15625 30.96875 Z M 252.332031 30.816406 "/>
<path style="fill-rule:nonzero;fill:rgb(0%,0%,0%);fill-opacity:1;stroke-width:0.75;stroke-linecap:round;stroke-linejoin:round;stroke:rgb(0%,0%,0%);stroke-opacity:1;stroke-miterlimit:10;" d="M 252.109375 31 L 274.578125 65.628906 L 274.382813 65.757813 L 251.914063 31.125 Z M 252.109375 31 "/>
<path style="fill-rule:nonzero;fill:rgb(0%,0%,0%);fill-opacity:1;stroke-width:0.75;stroke-linecap:round;stroke-linejoin:round;stroke:rgb(0%,0%,0%);stroke-opacity:1;stroke-miterlimit:10;" d="M 186.503906 49.300781 L 203.367188 33.167969 L 203.527344 33.335938 L 186.664063 49.46875 Z M 186.503906 49.300781 "/>
<path style="fill-rule:nonzero;fill:rgb(0%,0%,0%);fill-opacity:1;stroke-width:0.75;stroke-linecap:round;stroke-linejoin:round;stroke:rgb(0%,0%,0%);stroke-opacity:1;stroke-miterlimit:10;" d="M 187.210938 50.707031 L 222.269531 48.226563 L 222.289063 48.457031 L 187.230469 50.9375 Z M 187.210938 50.707031 "/>
<path style="fill-rule:nonzero;fill:rgb(0%,0%,0%);fill-opacity:1;stroke-width:0.75;stroke-linecap:round;stroke-linejoin:round;stroke:rgb(0%,0%,0%);stroke-opacity:1;stroke-miterlimit:10;" d="M 186.875 52.21875 L 225.976563 79.507813 L 225.84375 79.695313 L 186.742188 52.410156 Z M 186.875 52.21875 "/>
<path style="fill-rule:nonzero;fill:rgb(0%,0%,0%);fill-opacity:1;stroke-width:0.75;stroke-linecap:round;stroke-linejoin:round;stroke:rgb(0%,0%,0%);stroke-opacity:1;stroke-miterlimit:10;" d="M 206.199219 33.707031 L 226.949219 78.773438 L 226.738281 78.871094 L 205.988281 33.804688 Z M 206.199219 33.707031 "/>
<path style="fill-rule:nonzero;fill:rgb(0%,0%,0%);fill-opacity:1;stroke-width:0.75;stroke-linecap:round;stroke-linejoin:round;stroke:rgb(0%,0%,0%);stroke-opacity:1;stroke-miterlimit:10;" d="M 290.988281 13.566406 L 280.101563 22.761719 L 279.953125 22.582031 L 290.835938 13.390625 Z M 290.988281 13.566406 "/>
<path style="fill-rule:nonzero;fill:rgb(0%,0%,0%);fill-opacity:1;stroke-width:0.75;stroke-linecap:round;stroke-linejoin:round;stroke:rgb(0%,0%,0%);stroke-opacity:1;stroke-miterlimit:10;" d="M 292.121094 14.234375 L 276.53125 65.453125 L 276.308594 65.386719 L 291.898438 14.167969 Z M 292.121094 14.234375 "/>
<path style="fill-rule:nonzero;fill:rgb(0%,0%,0%);fill-opacity:1;stroke-width:0.75;stroke-linecap:round;stroke-linejoin:round;stroke:rgb(0%,0%,0%);stroke-opacity:1;stroke-miterlimit:10;" d="M 226.804688 48.894531 L 273.617188 66.707031 L 273.535156 66.921875 L 226.71875 49.113281 Z M 226.804688 48.894531 "/>
<path style="fill-rule:nonzero;fill:rgb(0%,0%,0%);fill-opacity:1;stroke-width:0.75;stroke-linecap:round;stroke-linejoin:round;stroke:rgb(0%,0%,0%);stroke-opacity:1;stroke-miterlimit:10;" d="M 219.636719 67.355469 L 226.699219 78.890625 L 226.503906 79.011719 L 219.4375 67.476563 Z M 219.636719 67.355469 "/>
<path style="fill-rule:nonzero;fill:rgb(0%,0%,0%);fill-opacity:1;stroke-width:0.75;stroke-linecap:round;stroke-linejoin:round;stroke:rgb(0%,0%,0%);stroke-opacity:1;stroke-miterlimit:10;" d="M 220.648438 65.410156 L 273.429688 67.433594 L 273.421875 67.667969 L 220.640625 65.644531 Z M 220.648438 65.410156 "/>
<path style="fill-rule:nonzero;fill:rgb(0%,0%,0%);fill-opacity:1;stroke-width:0.75;stroke-linecap:round;stroke-linejoin:round;stroke:rgb(0%,0%,0%);stroke-opacity:1;stroke-miterlimit:10;" d="M 278.671875 26.453125 L 283.902344 66.417969 L 283.671875 66.449219 L 278.441406 26.484375 Z M 278.671875 26.453125 "/>
<path style="fill-rule:nonzero;fill:rgb(0%,0%,0%);fill-opacity:1;stroke-width:0.75;stroke-linecap:round;stroke-linejoin:round;stroke:rgb(0%,0%,0%);stroke-opacity:1;stroke-miterlimit:10;" d="M 278.238281 26.492188 L 275.992188 65.328125 L 275.761719 65.316406 L 278.003906 26.476563 Z M 278.238281 26.492188 "/>
<path style="fill-rule:nonzero;fill:rgb(0%,0%,0%);fill-opacity:1;stroke-width:0.75;stroke-linecap:round;stroke-linejoin:round;stroke:rgb(0%,0%,0%);stroke-opacity:1;stroke-miterlimit:10;" d="M 290.257813 108.089844 L 284.339844 71.042969 L 284.570313 71.007813 L 290.488281 108.054688 Z M 290.257813 108.089844 "/>
<path style="fill-rule:nonzero;fill:rgb(0%,0%,0%);fill-opacity:1;stroke-width:0.75;stroke-linecap:round;stroke-linejoin:round;stroke:rgb(0%,0%,0%);stroke-opacity:1;stroke-miterlimit:10;" d="M 289.863281 108.214844 L 276.402344 69.867188 L 276.621094 69.789063 L 290.082031 108.136719 Z M 289.863281 108.214844 "/>
<path style="fill-rule:nonzero;fill:rgb(0%,0%,0%);fill-opacity:1;stroke-width:0.75;stroke-linecap:round;stroke-linejoin:round;stroke:rgb(0%,0%,0%);stroke-opacity:1;stroke-miterlimit:10;" d="M 230.058594 80.324219 L 281.796875 69.113281 L 281.847656 69.339844 L 230.105469 80.550781 Z M 230.058594 80.324219 "/>
<path style="fill-rule:nonzero;fill:rgb(0%,0%,0%);fill-opacity:1;stroke-width:0.75;stroke-linecap:round;stroke-linejoin:round;stroke:rgb(0%,0%,0%);stroke-opacity:1;stroke-miterlimit:10;" d="M 230.019531 80.195313 L 273.476563 68.148438 L 273.539063 68.371094 L 230.082031 80.421875 Z M 230.019531 80.195313 "/>
<path style="fill-rule:nonzero;fill:rgb(0%,0%,0%);fill-opacity:1;stroke-width:0.75;stroke-linecap:round;stroke-linejoin:round;stroke:rgb(0%,0%,0%);stroke-opacity:1;stroke-miterlimit:10;" d="M 281.773438 68.546875 L 278.027344 68.054688 L 278.058594 67.824219 L 281.804688 68.316406 Z M 281.773438 68.546875 "/>
<path style="fill-rule:nonzero;fill:rgb(87.45098%,32.54902%,41.960784%);fill-opacity:1;stroke-width:0.75;stroke-linecap:round;stroke-linejoin:round;stroke:rgb(0%,0%,0%);stroke-opacity:1;stroke-miterlimit:10;" d="M 234.011719 150.585938 L 233.957031 150.296875 L 233.867188 150.019531 L 233.742188 149.757813 L 233.585938 149.511719 L 233.402344 149.285156 L 233.1875 149.085938 L 232.953125 148.914063 L 232.695313 148.773438 L 232.425781 148.667969 L 232.144531 148.59375 L 231.851563 148.558594 L 231.5625 148.558594 L 231.273438 148.59375 L 230.988281 148.667969 L 230.71875 148.773438 L 230.460938 148.914063 L 230.226563 149.085938 L 230.015625 149.285156 L 229.828125 149.511719 L 229.671875 149.757813 L 229.546875 150.019531 L 229.457031 150.296875 L 229.402344 150.585938 L 229.382813 150.875 L 229.402344 151.167969 L 229.457031 151.453125 L 229.546875 151.730469 L 229.671875 151.996094 L 229.828125 152.242188 L 230.015625 152.464844 L 230.226563 152.664063 L 230.460938 152.835938 L 230.71875 152.976563 L 230.988281 153.085938 L 231.273438 153.15625 L 231.5625 153.195313 L 231.851563 153.195313 L 232.144531 153.15625 L 232.425781 153.085938 L 232.695313 152.976563 L 232.953125 152.835938 L 233.1875 152.664063 L 233.402344 152.464844 L 233.585938 152.242188 L 233.742188 151.996094 L 233.867188 151.730469 L 233.957031 151.453125 L 234.011719 151.167969 L 234.03125 150.875 Z M 234.011719 150.585938 "/>
<path style="fill-rule:nonzero;fill:rgb(87.45098%,32.54902%,41.960784%);fill-opacity:1;stroke-width:0.75;stroke-linecap:round;stroke-linejoin:round;stroke:rgb(0%,0%,0%);stroke-opacity:1;stroke-miterlimit:10;" d="M 246.964844 137.582031 L 246.910156 137.296875 L 246.820313 137.019531 L 246.695313 136.753906 L 246.539063 136.507813 L 246.355469 136.28125 L 246.140625 136.082031 L 245.90625 135.910156 L 245.652344 135.769531 L 245.378906 135.664063 L 245.097656 135.589844 L 244.808594 135.554688 L 244.515625 135.554688 L 244.226563 135.589844 L 243.945313 135.664063 L 243.671875 135.769531 L 243.417969 135.910156 L 243.179688 136.082031 L 242.96875 136.28125 L 242.78125 136.507813 L 242.625 136.753906 L 242.5 137.019531 L 242.410156 137.296875 L 242.355469 137.582031 L 242.339844 137.871094 L 242.355469 138.164063 L 242.410156 138.449219 L 242.5 138.726563 L 242.625 138.992188 L 242.78125 139.238281 L 242.96875 139.464844 L 243.179688 139.664063 L 243.417969 139.835938 L 243.671875 139.976563 L 243.945313 140.082031 L 244.226563 140.15625 L 244.515625 140.191406 L 244.808594 140.191406 L 245.097656 140.15625 L 245.378906 140.082031 L 245.652344 139.976563 L 245.90625 139.835938 L 246.140625 139.664063 L 246.355469 139.464844 L 246.539063 139.238281 L 246.695313 138.992188 L 246.820313 138.726563 L 246.910156 138.449219 L 246.964844 138.164063 L 246.984375 137.871094 Z M 246.964844 137.582031 "/>
<path style="fill-rule:nonzero;fill:rgb(87.45098%,32.54902%,41.960784%);fill-opacity:1;stroke-width:0.75;stroke-linecap:round;stroke-linejoin:round;stroke:rgb(0%,0%,0%);stroke-opacity:1;stroke-miterlimit:10;" d="M 236.1875 96.609375 L 236.132813 96.324219 L 236.042969 96.046875 L 235.917969 95.78125 L 235.761719 95.535156 L 235.578125 95.308594 L 235.363281 95.109375 L 235.128906 94.9375 L 234.875 94.796875 L 234.601563 94.691406 L 234.320313 94.617188 L 234.03125 94.582031 L 233.738281 94.582031 L 233.449219 94.617188 L 233.167969 94.691406 L 232.894531 94.796875 L 232.640625 94.9375 L 232.402344 95.109375 L 232.191406 95.308594 L 232.003906 95.535156 L 231.847656 95.78125 L 231.722656 96.046875 L 231.632813 96.324219 L 231.578125 96.609375 L 231.5625 96.902344 L 231.578125 97.191406 L 231.632813 97.476563 L 231.722656 97.757813 L 231.847656 98.019531 L 232.003906 98.265625 L 232.191406 98.492188 L 232.402344 98.691406 L 232.640625 98.863281 L 232.894531 99.003906 L 233.167969 99.109375 L 233.449219 99.183594 L 233.738281 99.21875 L 234.03125 99.21875 L 234.320313 99.183594 L 234.601563 99.109375 L 234.875 99.003906 L 235.128906 98.863281 L 235.363281 98.691406 L 235.578125 98.492188 L 235.761719 98.265625 L 235.917969 98.019531 L 236.042969 97.757813 L 236.132813 97.476563 L 236.1875 97.191406 L 236.207031 96.902344 Z M 236.1875 96.609375 "/>
<path style="fill-rule:nonzero;fill:rgb(87.45098%,32.54902%,41.960784%);fill-opacity:1;stroke-width:0.75;stroke-linecap:round;stroke-linejoin:round;stroke:rgb(0%,0%,0%);stroke-opacity:1;stroke-miterlimit:10;" d="M 211.09375 130.191406 L 211.039063 129.90625 L 210.949219 129.628906 L 210.824219 129.367188 L 210.667969 129.117188 L 210.484375 128.894531 L 210.269531 128.695313 L 210.035156 128.523438 L 209.78125 128.382813 L 209.507813 128.273438 L 209.226563 128.203125 L 208.9375 128.164063 L 208.644531 128.164063 L 208.355469 128.203125 L 208.074219 128.273438 L 207.800781 128.382813 L 207.546875 128.523438 L 207.308594 128.695313 L 207.097656 128.894531 L 206.910156 129.117188 L 206.753906 129.367188 L 206.628906 129.628906 L 206.539063 129.90625 L 206.484375 130.191406 L 206.46875 130.484375 L 206.484375 130.777344 L 206.539063 131.0625 L 206.628906 131.339844 L 206.753906 131.605469 L 206.910156 131.851563 L 207.097656 132.074219 L 207.308594 132.273438 L 207.546875 132.445313 L 207.800781 132.585938 L 208.074219 132.695313 L 208.355469 132.765625 L 208.644531 132.804688 L 208.9375 132.804688 L 209.226563 132.765625 L 209.507813 132.695313 L 209.78125 132.585938 L 210.035156 132.445313 L 210.269531 132.273438 L 210.484375 132.074219 L 210.667969 131.851563 L 210.824219 131.605469 L 210.949219 131.339844 L 211.039063 131.0625 L 211.09375 130.777344 L 211.113281 130.484375 Z M 211.09375 130.191406 "/>
<path style="fill-rule:nonzero;fill:rgb(87.45098%,32.54902%,41.960784%);fill-opacity:1;stroke-width:0.75;stroke-linecap:round;stroke-linejoin:round;stroke:rgb(0%,0%,0%);stroke-opacity:1;stroke-miterlimit:10;" d="M 268.710938 193.496094 L 268.65625 193.207031 L 268.566406 192.929688 L 268.441406 192.667969 L 268.285156 192.421875 L 268.097656 192.195313 L 267.886719 191.996094 L 267.652344 191.824219 L 267.394531 191.683594 L 267.125 191.578125 L 266.839844 191.503906 L 266.550781 191.46875 L 266.261719 191.46875 L 265.96875 191.503906 L 265.6875 191.578125 L 265.417969 191.683594 L 265.160156 191.824219 L 264.925781 191.996094 L 264.710938 192.195313 L 264.527344 192.421875 L 264.371094 192.667969 L 264.246094 192.929688 L 264.15625 193.207031 L 264.101563 193.496094 L 264.082031 193.785156 L 264.101563 194.078125 L 264.15625 194.363281 L 264.246094 194.640625 L 264.371094 194.90625 L 264.527344 195.152344 L 264.710938 195.375 L 264.925781 195.574219 L 265.160156 195.746094 L 265.417969 195.886719 L 265.6875 195.996094 L 265.96875 196.066406 L 266.261719 196.105469 L 266.550781 196.105469 L 266.839844 196.066406 L 267.125 195.996094 L 267.394531 195.886719 L 267.652344 195.746094 L 267.886719 195.574219 L 268.097656 195.375 L 268.285156 195.152344 L 268.441406 194.90625 L 268.566406 194.640625 L 268.65625 194.363281 L 268.710938 194.078125 L 268.730469 193.785156 Z M 268.710938 193.496094 "/>
<path style="fill-rule:nonzero;fill:rgb(87.45098%,32.54902%,41.960784%);fill-opacity:1;stroke-width:0.75;stroke-linecap:round;stroke-linejoin:round;stroke:rgb(0%,0%,0%);stroke-opacity:1;stroke-miterlimit:10;" d="M 222.878906 206.222656 L 222.824219 205.933594 L 222.734375 205.65625 L 222.613281 205.394531 L 222.457031 205.148438 L 222.269531 204.921875 L 222.054688 204.722656 L 221.820313 204.550781 L 221.566406 204.410156 L 221.292969 204.304688 L 221.011719 204.230469 L 220.722656 204.195313 L 220.429688 204.195313 L 220.140625 204.230469 L 219.859375 204.304688 L 219.585938 204.410156 L 219.332031 204.550781 L 219.09375 204.722656 L 218.882813 204.921875 L 218.695313 205.148438 L 218.539063 205.394531 L 218.414063 205.65625 L 218.324219 205.933594 L 218.269531 206.222656 L 218.253906 206.511719 L 218.269531 206.804688 L 218.324219 207.089844 L 218.414063 207.367188 L 218.539063 207.632813 L 218.695313 207.878906 L 218.882813 208.101563 L 219.09375 208.300781 L 219.332031 208.472656 L 219.585938 208.613281 L 219.859375 208.722656 L 220.140625 208.792969 L 220.429688 208.832031 L 220.722656 208.832031 L 221.011719 208.792969 L 221.292969 208.722656 L 221.566406 208.613281 L 221.820313 208.472656 L 222.054688 208.300781 L 222.269531 208.101563 L 222.457031 207.878906 L 222.613281 207.632813 L 222.734375 207.367188 L 222.824219 207.089844 L 222.878906 206.804688 L 222.898438 206.511719 Z M 222.878906 206.222656 "/>
<path style="fill-rule:nonzero;fill:rgb(87.45098%,32.54902%,41.960784%);fill-opacity:1;stroke-width:0.75;stroke-linecap:round;stroke-linejoin:round;stroke:rgb(0%,0%,0%);stroke-opacity:1;stroke-miterlimit:10;" d="M 249.738281 206.863281 L 249.683594 206.578125 L 249.59375 206.300781 L 249.46875 206.035156 L 249.3125 205.789063 L 249.125 205.5625 L 248.914063 205.363281 L 248.675781 205.191406 L 248.421875 205.050781 L 248.148438 204.945313 L 247.867188 204.871094 L 247.578125 204.835938 L 247.285156 204.835938 L 246.996094 204.871094 L 246.714844 204.945313 L 246.441406 205.050781 L 246.1875 205.191406 L 245.953125 205.363281 L 245.738281 205.5625 L 245.550781 205.789063 L 245.394531 206.035156 L 245.273438 206.300781 L 245.183594 206.578125 L 245.128906 206.863281 L 245.109375 207.152344 L 245.128906 207.445313 L 245.183594 207.730469 L 245.273438 208.007813 L 245.394531 208.273438 L 245.550781 208.519531 L 245.738281 208.746094 L 245.953125 208.945313 L 246.1875 209.117188 L 246.441406 209.257813 L 246.714844 209.363281 L 246.996094 209.4375 L 247.285156 209.472656 L 247.578125 209.472656 L 247.867188 209.4375 L 248.148438 209.363281 L 248.421875 209.257813 L 248.675781 209.117188 L 248.914063 208.945313 L 249.125 208.746094 L 249.3125 208.519531 L 249.46875 208.273438 L 249.59375 208.007813 L 249.683594 207.730469 L 249.738281 207.445313 L 249.753906 207.152344 Z M 249.738281 206.863281 "/>
<path style="fill-rule:nonzero;fill:rgb(87.45098%,32.54902%,41.960784%);fill-opacity:1;stroke-width:0.75;stroke-linecap:round;stroke-linejoin:round;stroke:rgb(0%,0%,0%);stroke-opacity:1;stroke-miterlimit:10;" d="M 202.695313 122.449219 L 202.640625 122.160156 L 202.550781 121.882813 L 202.425781 121.621094 L 202.269531 121.375 L 202.085938 121.148438 L 201.871094 120.949219 L 201.636719 120.777344 L 201.378906 120.636719 L 201.109375 120.53125 L 200.824219 120.457031 L 200.535156 120.421875 L 200.246094 120.421875 L 199.957031 120.457031 L 199.671875 120.53125 L 199.402344 120.636719 L 199.144531 120.777344 L 198.910156 120.949219 L 198.699219 121.148438 L 198.511719 121.375 L 198.355469 121.621094 L 198.230469 121.882813 L 198.140625 122.160156 L 198.085938 122.449219 L 198.066406 122.738281 L 198.085938 123.03125 L 198.140625 123.316406 L 198.230469 123.59375 L 198.355469 123.859375 L 198.511719 124.105469 L 198.699219 124.328125 L 198.910156 124.527344 L 199.144531 124.699219 L 199.402344 124.839844 L 199.671875 124.949219 L 199.957031 125.019531 L 200.246094 125.058594 L 200.535156 125.058594 L 200.824219 125.019531 L 201.109375 124.949219 L 201.378906 124.839844 L 201.636719 124.699219 L 201.871094 124.527344 L 202.085938 124.328125 L 202.269531 124.105469 L 202.425781 123.859375 L 202.550781 123.59375 L 202.640625 123.316406 L 202.695313 123.03125 L 202.714844 122.738281 Z M 202.695313 122.449219 "/>
<path style="fill-rule:nonzero;fill:rgb(87.45098%,32.54902%,41.960784%);fill-opacity:1;stroke-width:0.75;stroke-linecap:round;stroke-linejoin:round;stroke:rgb(0%,0%,0%);stroke-opacity:1;stroke-miterlimit:10;" d="M 268.757813 108.394531 L 268.703125 108.109375 L 268.613281 107.832031 L 268.488281 107.566406 L 268.332031 107.320313 L 268.144531 107.097656 L 267.933594 106.894531 L 267.695313 106.726563 L 267.441406 106.585938 L 267.167969 106.476563 L 266.886719 106.402344 L 266.597656 106.367188 L 266.304688 106.367188 L 266.015625 106.402344 L 265.734375 106.476563 L 265.460938 106.585938 L 265.207031 106.726563 L 264.972656 106.894531 L 264.757813 107.097656 L 264.574219 107.320313 L 264.417969 107.566406 L 264.292969 107.832031 L 264.203125 108.109375 L 264.148438 108.394531 L 264.128906 108.6875 L 264.148438 108.976563 L 264.203125 109.265625 L 264.292969 109.542969 L 264.417969 109.804688 L 264.574219 110.050781 L 264.757813 110.277344 L 264.972656 110.476563 L 265.207031 110.648438 L 265.460938 110.789063 L 265.734375 110.894531 L 266.015625 110.96875 L 266.304688 111.003906 L 266.597656 111.003906 L 266.886719 110.96875 L 267.167969 110.894531 L 267.441406 110.789063 L 267.695313 110.648438 L 267.933594 110.476563 L 268.144531 110.277344 L 268.332031 110.050781 L 268.488281 109.804688 L 268.613281 109.542969 L 268.703125 109.265625 L 268.757813 108.976563 L 268.773438 108.6875 Z M 268.757813 108.394531 "/>
<path style="fill-rule:nonzero;fill:rgb(87.45098%,32.54902%,41.960784%);fill-opacity:1;stroke-width:0.75;stroke-linecap:round;stroke-linejoin:round;stroke:rgb(0%,0%,0%);stroke-opacity:1;stroke-miterlimit:10;" d="M 244.121094 49.664063 L 244.066406 49.378906 L 243.972656 49.101563 L 243.851563 48.835938 L 243.695313 48.589844 L 243.507813 48.363281 L 243.296875 48.164063 L 243.058594 47.992188 L 242.804688 47.851563 L 242.53125 47.746094 L 242.25 47.671875 L 241.960938 47.636719 L 241.667969 47.636719 L 241.378906 47.671875 L 241.097656 47.746094 L 240.824219 47.851563 L 240.570313 47.992188 L 240.332031 48.164063 L 240.121094 48.363281 L 239.933594 48.589844 L 239.777344 48.835938 L 239.65625 49.101563 L 239.5625 49.378906 L 239.507813 49.664063 L 239.492188 49.953125 L 239.507813 50.246094 L 239.5625 50.53125 L 239.65625 50.808594 L 239.777344 51.074219 L 239.933594 51.320313 L 240.121094 51.546875 L 240.332031 51.746094 L 240.570313 51.917969 L 240.824219 52.058594 L 241.097656 52.164063 L 241.378906 52.238281 L 241.667969 52.273438 L 241.960938 52.273438 L 242.25 52.238281 L 242.53125 52.164063 L 242.804688 52.058594 L 243.058594 51.917969 L 243.296875 51.746094 L 243.507813 51.546875 L 243.695313 51.320313 L 243.851563 51.074219 L 243.972656 50.808594 L 244.066406 50.53125 L 244.121094 50.246094 L 244.136719 49.953125 Z M 244.121094 49.664063 "/>
<path style="fill-rule:nonzero;fill:rgb(87.45098%,32.54902%,41.960784%);fill-opacity:1;stroke-width:0.75;stroke-linecap:round;stroke-linejoin:round;stroke:rgb(0%,0%,0%);stroke-opacity:1;stroke-miterlimit:10;" d="M 238.9375 194.734375 L 238.886719 194.445313 L 238.792969 194.167969 L 238.671875 193.90625 L 238.515625 193.660156 L 238.328125 193.433594 L 238.117188 193.234375 L 237.878906 193.0625 L 237.625 192.921875 L 237.351563 192.816406 L 237.070313 192.742188 L 236.78125 192.707031 L 236.488281 192.707031 L 236.199219 192.742188 L 235.917969 192.816406 L 235.644531 192.921875 L 235.390625 193.0625 L 235.152344 193.234375 L 234.941406 193.433594 L 234.753906 193.660156 L 234.597656 193.90625 L 234.476563 194.167969 L 234.382813 194.445313 L 234.328125 194.734375 L 234.3125 195.023438 L 234.328125 195.316406 L 234.382813 195.601563 L 234.476563 195.878906 L 234.597656 196.144531 L 234.753906 196.390625 L 234.941406 196.613281 L 235.152344 196.816406 L 235.390625 196.984375 L 235.644531 197.125 L 235.917969 197.234375 L 236.199219 197.304688 L 236.488281 197.34375 L 236.78125 197.34375 L 237.070313 197.304688 L 237.351563 197.234375 L 237.625 197.125 L 237.878906 196.984375 L 238.117188 196.816406 L 238.328125 196.613281 L 238.515625 196.390625 L 238.671875 196.144531 L 238.792969 195.878906 L 238.886719 195.601563 L 238.9375 195.316406 L 238.957031 195.023438 Z M 238.9375 194.734375 "/>
<path style="fill-rule:nonzero;fill:rgb(87.45098%,32.54902%,41.960784%);fill-opacity:1;stroke-width:0.75;stroke-linecap:round;stroke-linejoin:round;stroke:rgb(0%,0%,0%);stroke-opacity:1;stroke-miterlimit:10;" d="M 184.46875 178.007813 L 184.414063 177.71875 L 184.324219 177.441406 L 184.203125 177.179688 L 184.046875 176.933594 L 183.859375 176.707031 L 183.644531 176.507813 L 183.410156 176.335938 L 183.15625 176.195313 L 182.882813 176.089844 L 182.601563 176.015625 L 182.3125 175.980469 L 182.019531 175.980469 L 181.730469 176.015625 L 181.449219 176.089844 L 181.175781 176.195313 L 180.921875 176.335938 L 180.683594 176.507813 L 180.472656 176.707031 L 180.285156 176.933594 L 180.128906 177.179688 L 180.003906 177.441406 L 179.914063 177.71875 L 179.859375 178.007813 L 179.84375 178.296875 L 179.859375 178.589844 L 179.914063 178.875 L 180.003906 179.152344 L 180.128906 179.417969 L 180.285156 179.664063 L 180.472656 179.886719 L 180.683594 180.089844 L 180.921875 180.257813 L 181.175781 180.398438 L 181.449219 180.507813 L 181.730469 180.578125 L 182.019531 180.617188 L 182.3125 180.617188 L 182.601563 180.578125 L 182.882813 180.507813 L 183.15625 180.398438 L 183.410156 180.257813 L 183.644531 180.089844 L 183.859375 179.886719 L 184.046875 179.664063 L 184.203125 179.417969 L 184.324219 179.152344 L 184.414063 178.875 L 184.46875 178.589844 L 184.488281 178.296875 Z M 184.46875 178.007813 "/>
<path style="fill-rule:nonzero;fill:rgb(87.45098%,32.54902%,41.960784%);fill-opacity:1;stroke-width:0.75;stroke-linecap:round;stroke-linejoin:round;stroke:rgb(0%,0%,0%);stroke-opacity:1;stroke-miterlimit:10;" d="M 180.003906 147.472656 L 179.949219 147.183594 L 179.859375 146.90625 L 179.738281 146.644531 L 179.582031 146.398438 L 179.394531 146.171875 L 179.183594 145.972656 L 178.945313 145.800781 L 178.691406 145.660156 L 178.417969 145.554688 L 178.136719 145.480469 L 177.847656 145.445313 L 177.554688 145.445313 L 177.265625 145.480469 L 176.984375 145.554688 L 176.710938 145.660156 L 176.457031 145.800781 L 176.21875 145.972656 L 176.007813 146.171875 L 175.820313 146.398438 L 175.664063 146.644531 L 175.542969 146.90625 L 175.449219 147.183594 L 175.394531 147.472656 L 175.378906 147.761719 L 175.394531 148.054688 L 175.449219 148.339844 L 175.542969 148.617188 L 175.664063 148.882813 L 175.820313 149.128906 L 176.007813 149.351563 L 176.21875 149.550781 L 176.457031 149.722656 L 176.710938 149.863281 L 176.984375 149.972656 L 177.265625 150.042969 L 177.554688 150.082031 L 177.847656 150.082031 L 178.136719 150.042969 L 178.417969 149.972656 L 178.691406 149.863281 L 178.945313 149.722656 L 179.183594 149.550781 L 179.394531 149.351563 L 179.582031 149.128906 L 179.738281 148.882813 L 179.859375 148.617188 L 179.949219 148.339844 L 180.003906 148.054688 L 180.023438 147.761719 Z M 180.003906 147.472656 "/>
<path style="fill-rule:nonzero;fill:rgb(87.45098%,32.54902%,41.960784%);fill-opacity:1;stroke-width:0.75;stroke-linecap:round;stroke-linejoin:round;stroke:rgb(0%,0%,0%);stroke-opacity:1;stroke-miterlimit:10;" d="M 244.296875 112.449219 L 244.242188 112.160156 L 244.152344 111.882813 L 244.027344 111.621094 L 243.871094 111.375 L 243.683594 111.148438 L 243.472656 110.949219 L 243.238281 110.777344 L 242.980469 110.636719 L 242.710938 110.53125 L 242.425781 110.457031 L 242.136719 110.421875 L 241.847656 110.421875 L 241.558594 110.457031 L 241.273438 110.53125 L 241.003906 110.636719 L 240.746094 110.777344 L 240.511719 110.949219 L 240.296875 111.148438 L 240.113281 111.375 L 239.957031 111.621094 L 239.832031 111.882813 L 239.742188 112.160156 L 239.6875 112.449219 L 239.667969 112.738281 L 239.6875 113.03125 L 239.742188 113.316406 L 239.832031 113.59375 L 239.957031 113.859375 L 240.113281 114.105469 L 240.296875 114.328125 L 240.511719 114.527344 L 240.746094 114.699219 L 241.003906 114.839844 L 241.273438 114.949219 L 241.558594 115.019531 L 241.847656 115.058594 L 242.136719 115.058594 L 242.425781 115.019531 L 242.710938 114.949219 L 242.980469 114.839844 L 243.238281 114.699219 L 243.472656 114.527344 L 243.683594 114.328125 L 243.871094 114.105469 L 244.027344 113.859375 L 244.152344 113.59375 L 244.242188 113.316406 L 244.296875 113.03125 L 244.316406 112.738281 Z M 244.296875 112.449219 "/>
<path style="fill-rule:nonzero;fill:rgb(87.45098%,32.54902%,41.960784%);fill-opacity:1;stroke-width:0.75;stroke-linecap:round;stroke-linejoin:round;stroke:rgb(0%,0%,0%);stroke-opacity:1;stroke-miterlimit:10;" d="M 328.605469 75.546875 L 328.550781 75.261719 L 328.457031 74.984375 L 328.335938 74.71875 L 328.179688 74.472656 L 327.992188 74.246094 L 327.78125 74.046875 L 327.542969 73.875 L 327.289063 73.734375 L 327.015625 73.628906 L 326.734375 73.554688 L 326.445313 73.519531 L 326.152344 73.519531 L 325.863281 73.554688 L 325.582031 73.628906 L 325.308594 73.734375 L 325.054688 73.875 L 324.816406 74.046875 L 324.605469 74.246094 L 324.417969 74.472656 L 324.261719 74.71875 L 324.140625 74.984375 L 324.050781 75.261719 L 323.996094 75.546875 L 323.976563 75.839844 L 323.996094 76.128906 L 324.050781 76.414063 L 324.140625 76.695313 L 324.261719 76.957031 L 324.417969 77.203125 L 324.605469 77.429688 L 324.816406 77.628906 L 325.054688 77.800781 L 325.308594 77.941406 L 325.582031 78.046875 L 325.863281 78.121094 L 326.152344 78.15625 L 326.445313 78.15625 L 326.734375 78.121094 L 327.015625 78.046875 L 327.289063 77.941406 L 327.542969 77.800781 L 327.78125 77.628906 L 327.992188 77.429688 L 328.179688 77.203125 L 328.335938 76.957031 L 328.457031 76.695313 L 328.550781 76.414063 L 328.605469 76.128906 L 328.621094 75.839844 Z M 328.605469 75.546875 "/>
<path style="fill-rule:nonzero;fill:rgb(87.45098%,32.54902%,41.960784%);fill-opacity:1;stroke-width:0.75;stroke-linecap:round;stroke-linejoin:round;stroke:rgb(0%,0%,0%);stroke-opacity:1;stroke-miterlimit:10;" d="M 322.832031 45.207031 L 322.777344 44.921875 L 322.6875 44.644531 L 322.5625 44.378906 L 322.40625 44.132813 L 322.21875 43.910156 L 322.007813 43.707031 L 321.769531 43.539063 L 321.515625 43.398438 L 321.242188 43.289063 L 320.960938 43.214844 L 320.671875 43.179688 L 320.378906 43.179688 L 320.089844 43.214844 L 319.808594 43.289063 L 319.535156 43.398438 L 319.28125 43.539063 L 319.046875 43.707031 L 318.832031 43.910156 L 318.648438 44.132813 L 318.488281 44.378906 L 318.367188 44.644531 L 318.277344 44.921875 L 318.222656 45.207031 L 318.203125 45.5 L 318.222656 45.789063 L 318.277344 46.078125 L 318.367188 46.355469 L 318.488281 46.617188 L 318.648438 46.863281 L 318.832031 47.089844 L 319.046875 47.289063 L 319.28125 47.460938 L 319.535156 47.601563 L 319.808594 47.707031 L 320.089844 47.78125 L 320.378906 47.816406 L 320.671875 47.816406 L 320.960938 47.78125 L 321.242188 47.707031 L 321.515625 47.601563 L 321.769531 47.460938 L 322.007813 47.289063 L 322.21875 47.089844 L 322.40625 46.863281 L 322.5625 46.617188 L 322.6875 46.355469 L 322.777344 46.078125 L 322.832031 45.789063 L 322.847656 45.5 Z M 322.832031 45.207031 "/>
<path style="fill-rule:nonzero;fill:rgb(87.45098%,32.54902%,41.960784%);fill-opacity:1;stroke-width:0.75;stroke-linecap:round;stroke-linejoin:round;stroke:rgb(0%,0%,0%);stroke-opacity:1;stroke-miterlimit:10;" d="M 239.660156 239.726563 L 239.605469 239.441406 L 239.515625 239.164063 L 239.390625 238.898438 L 239.234375 238.652344 L 239.046875 238.429688 L 238.835938 238.230469 L 238.601563 238.058594 L 238.34375 237.917969 L 238.074219 237.808594 L 237.789063 237.738281 L 237.5 237.699219 L 237.210938 237.699219 L 236.917969 237.738281 L 236.636719 237.808594 L 236.367188 237.917969 L 236.109375 238.058594 L 235.875 238.230469 L 235.660156 238.429688 L 235.476563 238.652344 L 235.320313 238.898438 L 235.195313 239.164063 L 235.105469 239.441406 L 235.050781 239.726563 L 235.03125 240.019531 L 235.050781 240.308594 L 235.105469 240.597656 L 235.195313 240.875 L 235.320313 241.136719 L 235.476563 241.382813 L 235.660156 241.609375 L 235.875 241.808594 L 236.109375 241.980469 L 236.367188 242.121094 L 236.636719 242.226563 L 236.917969 242.300781 L 237.210938 242.335938 L 237.5 242.335938 L 237.789063 242.300781 L 238.074219 242.226563 L 238.34375 242.121094 L 238.601563 241.980469 L 238.835938 241.808594 L 239.046875 241.609375 L 239.234375 241.382813 L 239.390625 241.136719 L 239.515625 240.875 L 239.605469 240.597656 L 239.660156 240.308594 L 239.679688 240.019531 Z M 239.660156 239.726563 "/>
<path style="fill-rule:nonzero;fill:rgb(87.45098%,32.54902%,41.960784%);fill-opacity:1;stroke-width:0.75;stroke-linecap:round;stroke-linejoin:round;stroke:rgb(0%,0%,0%);stroke-opacity:1;stroke-miterlimit:10;" d="M 277.558594 168.160156 L 277.503906 167.875 L 277.414063 167.597656 L 277.289063 167.332031 L 277.132813 167.085938 L 276.949219 166.863281 L 276.734375 166.664063 L 276.5 166.492188 L 276.242188 166.351563 L 275.972656 166.242188 L 275.691406 166.171875 L 275.402344 166.132813 L 275.109375 166.132813 L 274.820313 166.171875 L 274.535156 166.242188 L 274.265625 166.351563 L 274.011719 166.492188 L 273.773438 166.664063 L 273.5625 166.863281 L 273.375 167.085938 L 273.21875 167.332031 L 273.09375 167.597656 L 273.003906 167.875 L 272.949219 168.160156 L 272.933594 168.453125 L 272.949219 168.742188 L 273.003906 169.03125 L 273.09375 169.308594 L 273.21875 169.570313 L 273.375 169.816406 L 273.5625 170.042969 L 273.773438 170.242188 L 274.011719 170.414063 L 274.265625 170.554688 L 274.535156 170.660156 L 274.820313 170.734375 L 275.109375 170.769531 L 275.402344 170.769531 L 275.691406 170.734375 L 275.972656 170.660156 L 276.242188 170.554688 L 276.5 170.414063 L 276.734375 170.242188 L 276.949219 170.042969 L 277.132813 169.816406 L 277.289063 169.570313 L 277.414063 169.308594 L 277.503906 169.03125 L 277.558594 168.742188 L 277.578125 168.453125 Z M 277.558594 168.160156 "/>
<path style="fill-rule:nonzero;fill:rgb(87.45098%,32.54902%,41.960784%);fill-opacity:1;stroke-width:0.75;stroke-linecap:round;stroke-linejoin:round;stroke:rgb(0%,0%,0%);stroke-opacity:1;stroke-miterlimit:10;" d="M 310.277344 32.808594 L 310.222656 32.523438 L 310.132813 32.246094 L 310.007813 31.980469 L 309.851563 31.734375 L 309.664063 31.511719 L 309.453125 31.3125 L 309.214844 31.140625 L 308.960938 31 L 308.6875 30.890625 L 308.40625 30.820313 L 308.117188 30.78125 L 307.824219 30.78125 L 307.535156 30.820313 L 307.253906 30.890625 L 306.980469 31 L 306.726563 31.140625 L 306.492188 31.3125 L 306.277344 31.511719 L 306.09375 31.734375 L 305.9375 31.980469 L 305.8125 32.246094 L 305.722656 32.523438 L 305.667969 32.808594 L 305.648438 33.101563 L 305.667969 33.390625 L 305.722656 33.679688 L 305.8125 33.957031 L 305.9375 34.21875 L 306.09375 34.464844 L 306.277344 34.691406 L 306.492188 34.890625 L 306.726563 35.0625 L 306.980469 35.203125 L 307.253906 35.308594 L 307.535156 35.382813 L 307.824219 35.417969 L 308.117188 35.417969 L 308.40625 35.382813 L 308.6875 35.308594 L 308.960938 35.203125 L 309.214844 35.0625 L 309.453125 34.890625 L 309.664063 34.691406 L 309.851563 34.464844 L 310.007813 34.21875 L 310.132813 33.957031 L 310.222656 33.679688 L 310.277344 33.390625 L 310.292969 33.101563 Z M 310.277344 32.808594 "/>
<path style="fill-rule:nonzero;fill:rgb(87.45098%,32.54902%,41.960784%);fill-opacity:1;stroke-width:0.75;stroke-linecap:round;stroke-linejoin:round;stroke:rgb(0%,0%,0%);stroke-opacity:1;stroke-miterlimit:10;" d="M 277.609375 126.171875 L 277.554688 125.886719 L 277.464844 125.609375 L 277.339844 125.34375 L 277.183594 125.097656 L 277 124.875 L 276.785156 124.671875 L 276.550781 124.503906 L 276.292969 124.363281 L 276.023438 124.253906 L 275.742188 124.183594 L 275.449219 124.144531 L 275.160156 124.144531 L 274.871094 124.183594 L 274.585938 124.253906 L 274.316406 124.363281 L 274.058594 124.503906 L 273.824219 124.671875 L 273.613281 124.875 L 273.425781 125.097656 L 273.269531 125.34375 L 273.144531 125.609375 L 273.054688 125.886719 L 273 126.171875 L 272.980469 126.464844 L 273 126.753906 L 273.054688 127.042969 L 273.144531 127.320313 L 273.269531 127.582031 L 273.425781 127.828125 L 273.613281 128.054688 L 273.824219 128.253906 L 274.058594 128.425781 L 274.316406 128.566406 L 274.585938 128.671875 L 274.871094 128.746094 L 275.160156 128.78125 L 275.449219 128.78125 L 275.742188 128.746094 L 276.023438 128.671875 L 276.292969 128.566406 L 276.550781 128.425781 L 276.785156 128.253906 L 277 128.054688 L 277.183594 127.828125 L 277.339844 127.582031 L 277.464844 127.320313 L 277.554688 127.042969 L 277.609375 126.753906 L 277.628906 126.464844 Z M 277.609375 126.171875 "/>
<path style="fill-rule:nonzero;fill:rgb(87.45098%,32.54902%,41.960784%);fill-opacity:1;stroke-width:0.75;stroke-linecap:round;stroke-linejoin:round;stroke:rgb(0%,0%,0%);stroke-opacity:1;stroke-miterlimit:10;" d="M 328.496094 60.007813 L 328.441406 59.722656 L 328.351563 59.445313 L 328.226563 59.179688 L 328.070313 58.933594 L 327.886719 58.710938 L 327.671875 58.511719 L 327.4375 58.339844 L 327.183594 58.199219 L 326.910156 58.089844 L 326.628906 58.019531 L 326.339844 57.980469 L 326.046875 57.980469 L 325.757813 58.019531 L 325.476563 58.089844 L 325.203125 58.199219 L 324.949219 58.339844 L 324.710938 58.511719 L 324.5 58.710938 L 324.3125 58.933594 L 324.15625 59.179688 L 324.03125 59.445313 L 323.941406 59.722656 L 323.886719 60.007813 L 323.871094 60.300781 L 323.886719 60.589844 L 323.941406 60.878906 L 324.03125 61.15625 L 324.15625 61.417969 L 324.3125 61.664063 L 324.5 61.890625 L 324.710938 62.089844 L 324.949219 62.261719 L 325.203125 62.402344 L 325.476563 62.507813 L 325.757813 62.582031 L 326.046875 62.617188 L 326.339844 62.617188 L 326.628906 62.582031 L 326.910156 62.507813 L 327.183594 62.402344 L 327.4375 62.261719 L 327.671875 62.089844 L 327.886719 61.890625 L 328.070313 61.664063 L 328.226563 61.417969 L 328.351563 61.15625 L 328.441406 60.878906 L 328.496094 60.589844 L 328.515625 60.300781 Z M 328.496094 60.007813 "/>
<path style="fill-rule:nonzero;fill:rgb(87.45098%,32.54902%,41.960784%);fill-opacity:1;stroke-width:0.75;stroke-linecap:round;stroke-linejoin:round;stroke:rgb(0%,0%,0%);stroke-opacity:1;stroke-miterlimit:10;" d="M 212.5625 171.097656 L 212.507813 170.8125 L 212.417969 170.535156 L 212.292969 170.269531 L 212.136719 170.023438 L 211.953125 169.796875 L 211.738281 169.597656 L 211.503906 169.425781 L 211.246094 169.285156 L 210.976563 169.179688 L 210.695313 169.105469 L 210.402344 169.070313 L 210.113281 169.070313 L 209.824219 169.105469 L 209.539063 169.179688 L 209.269531 169.285156 L 209.011719 169.425781 L 208.777344 169.597656 L 208.566406 169.796875 L 208.378906 170.023438 L 208.222656 170.269531 L 208.097656 170.535156 L 208.007813 170.8125 L 207.953125 171.097656 L 207.933594 171.386719 L 207.953125 171.679688 L 208.007813 171.964844 L 208.097656 172.242188 L 208.222656 172.507813 L 208.378906 172.753906 L 208.566406 172.980469 L 208.777344 173.179688 L 209.011719 173.351563 L 209.269531 173.492188 L 209.539063 173.597656 L 209.824219 173.671875 L 210.113281 173.707031 L 210.402344 173.707031 L 210.695313 173.671875 L 210.976563 173.597656 L 211.246094 173.492188 L 211.503906 173.351563 L 211.738281 173.179688 L 211.953125 172.980469 L 212.136719 172.753906 L 212.292969 172.507813 L 212.417969 172.242188 L 212.507813 171.964844 L 212.5625 171.679688 L 212.582031 171.386719 Z M 212.5625 171.097656 "/>
<path style="fill-rule:nonzero;fill:rgb(87.45098%,32.54902%,41.960784%);fill-opacity:1;stroke-width:0.75;stroke-linecap:round;stroke-linejoin:round;stroke:rgb(0%,0%,0%);stroke-opacity:1;stroke-miterlimit:10;" d="M 322.375 91.792969 L 322.320313 91.503906 L 322.230469 91.226563 L 322.105469 90.964844 L 321.949219 90.71875 L 321.765625 90.492188 L 321.550781 90.292969 L 321.316406 90.121094 L 321.058594 89.980469 L 320.789063 89.875 L 320.503906 89.800781 L 320.214844 89.765625 L 319.925781 89.765625 L 319.636719 89.800781 L 319.351563 89.875 L 319.082031 89.980469 L 318.824219 90.121094 L 318.589844 90.292969 L 318.378906 90.492188 L 318.191406 90.71875 L 318.035156 90.964844 L 317.910156 91.226563 L 317.820313 91.503906 L 317.765625 91.792969 L 317.746094 92.082031 L 317.765625 92.375 L 317.820313 92.660156 L 317.910156 92.9375 L 318.035156 93.203125 L 318.191406 93.449219 L 318.378906 93.671875 L 318.589844 93.875 L 318.824219 94.046875 L 319.082031 94.183594 L 319.351563 94.292969 L 319.636719 94.367188 L 319.925781 94.402344 L 320.214844 94.402344 L 320.503906 94.367188 L 320.789063 94.292969 L 321.058594 94.183594 L 321.316406 94.046875 L 321.550781 93.875 L 321.765625 93.671875 L 321.949219 93.449219 L 322.105469 93.203125 L 322.230469 92.9375 L 322.320313 92.660156 L 322.375 92.375 L 322.394531 92.082031 Z M 322.375 91.792969 "/>
<path style="fill-rule:nonzero;fill:rgb(87.45098%,32.54902%,41.960784%);fill-opacity:1;stroke-width:0.75;stroke-linecap:round;stroke-linejoin:round;stroke:rgb(0%,0%,0%);stroke-opacity:1;stroke-miterlimit:10;" d="M 253.054688 28.824219 L 253 28.539063 L 252.910156 28.261719 L 252.785156 28 L 252.628906 27.75 L 252.445313 27.527344 L 252.230469 27.328125 L 251.996094 27.15625 L 251.738281 27.015625 L 251.46875 26.90625 L 251.183594 26.835938 L 250.894531 26.796875 L 250.605469 26.796875 L 250.316406 26.835938 L 250.03125 26.90625 L 249.761719 27.015625 L 249.503906 27.15625 L 249.269531 27.328125 L 249.054688 27.527344 L 248.871094 27.75 L 248.714844 28 L 248.589844 28.261719 L 248.5 28.539063 L 248.445313 28.824219 L 248.425781 29.117188 L 248.445313 29.410156 L 248.5 29.695313 L 248.589844 29.972656 L 248.714844 30.238281 L 248.871094 30.484375 L 249.054688 30.707031 L 249.269531 30.90625 L 249.503906 31.078125 L 249.761719 31.21875 L 250.03125 31.328125 L 250.316406 31.398438 L 250.605469 31.4375 L 250.894531 31.4375 L 251.183594 31.398438 L 251.46875 31.328125 L 251.738281 31.21875 L 251.996094 31.078125 L 252.230469 30.90625 L 252.445313 30.707031 L 252.628906 30.484375 L 252.785156 30.238281 L 252.910156 29.972656 L 253 29.695313 L 253.054688 29.410156 L 253.074219 29.117188 Z M 253.054688 28.824219 "/>
<path style="fill-rule:nonzero;fill:rgb(87.45098%,32.54902%,41.960784%);fill-opacity:1;stroke-width:0.75;stroke-linecap:round;stroke-linejoin:round;stroke:rgb(0%,0%,0%);stroke-opacity:1;stroke-miterlimit:10;" d="M 187.210938 50.695313 L 187.15625 50.410156 L 187.066406 50.132813 L 186.941406 49.867188 L 186.785156 49.621094 L 186.601563 49.398438 L 186.386719 49.195313 L 186.152344 49.027344 L 185.894531 48.886719 L 185.625 48.777344 L 185.34375 48.703125 L 185.050781 48.667969 L 184.761719 48.667969 L 184.472656 48.703125 L 184.1875 48.777344 L 183.917969 48.886719 L 183.660156 49.027344 L 183.425781 49.195313 L 183.214844 49.398438 L 183.027344 49.621094 L 182.871094 49.867188 L 182.746094 50.132813 L 182.65625 50.410156 L 182.601563 50.695313 L 182.582031 50.988281 L 182.601563 51.277344 L 182.65625 51.566406 L 182.746094 51.84375 L 182.871094 52.105469 L 183.027344 52.351563 L 183.214844 52.578125 L 183.425781 52.777344 L 183.660156 52.949219 L 183.917969 53.089844 L 184.1875 53.195313 L 184.472656 53.269531 L 184.761719 53.304688 L 185.050781 53.304688 L 185.34375 53.269531 L 185.625 53.195313 L 185.894531 53.089844 L 186.152344 52.949219 L 186.386719 52.777344 L 186.601563 52.578125 L 186.785156 52.351563 L 186.941406 52.105469 L 187.066406 51.84375 L 187.15625 51.566406 L 187.210938 51.277344 L 187.230469 50.988281 Z M 187.210938 50.695313 "/>
<path style="fill-rule:nonzero;fill:rgb(87.45098%,32.54902%,41.960784%);fill-opacity:1;stroke-width:0.75;stroke-linecap:round;stroke-linejoin:round;stroke:rgb(0%,0%,0%);stroke-opacity:1;stroke-miterlimit:10;" d="M 207.429688 31.359375 L 207.375 31.070313 L 207.285156 30.792969 L 207.160156 30.53125 L 207.003906 30.285156 L 206.820313 30.058594 L 206.605469 29.859375 L 206.371094 29.6875 L 206.113281 29.546875 L 205.84375 29.441406 L 205.558594 29.367188 L 205.269531 29.332031 L 204.980469 29.332031 L 204.691406 29.367188 L 204.40625 29.441406 L 204.136719 29.546875 L 203.878906 29.6875 L 203.644531 29.859375 L 203.433594 30.058594 L 203.246094 30.285156 L 203.089844 30.53125 L 202.964844 30.792969 L 202.875 31.070313 L 202.820313 31.359375 L 202.800781 31.648438 L 202.820313 31.941406 L 202.875 32.226563 L 202.964844 32.503906 L 203.089844 32.769531 L 203.246094 33.015625 L 203.433594 33.238281 L 203.644531 33.4375 L 203.878906 33.609375 L 204.136719 33.75 L 204.40625 33.859375 L 204.691406 33.929688 L 204.980469 33.96875 L 205.269531 33.96875 L 205.558594 33.929688 L 205.84375 33.859375 L 206.113281 33.75 L 206.371094 33.609375 L 206.605469 33.4375 L 206.820313 33.238281 L 207.003906 33.015625 L 207.160156 32.769531 L 207.285156 32.503906 L 207.375 32.226563 L 207.429688 31.941406 L 207.449219 31.648438 Z M 207.429688 31.359375 "/>
<path style="fill-rule:nonzero;fill:rgb(87.45098%,32.54902%,41.960784%);fill-opacity:1;stroke-width:0.75;stroke-linecap:round;stroke-linejoin:round;stroke:rgb(0%,0%,0%);stroke-opacity:1;stroke-miterlimit:10;" d="M 294.988281 11.691406 L 294.933594 11.402344 L 294.84375 11.125 L 294.71875 10.863281 L 294.5625 10.617188 L 294.378906 10.390625 L 294.164063 10.191406 L 293.929688 10.019531 L 293.671875 9.878906 L 293.402344 9.773438 L 293.121094 9.699219 L 292.832031 9.664063 L 292.539063 9.664063 L 292.25 9.699219 L 291.964844 9.773438 L 291.695313 9.878906 L 291.441406 10.019531 L 291.203125 10.191406 L 290.992188 10.390625 L 290.804688 10.617188 L 290.648438 10.863281 L 290.523438 11.125 L 290.433594 11.402344 L 290.378906 11.691406 L 290.363281 11.980469 L 290.378906 12.273438 L 290.433594 12.558594 L 290.523438 12.835938 L 290.648438 13.101563 L 290.804688 13.347656 L 290.992188 13.570313 L 291.203125 13.769531 L 291.441406 13.941406 L 291.695313 14.082031 L 291.964844 14.191406 L 292.25 14.261719 L 292.539063 14.300781 L 292.832031 14.300781 L 293.121094 14.261719 L 293.402344 14.191406 L 293.671875 14.082031 L 293.929688 13.941406 L 294.164063 13.769531 L 294.378906 13.570313 L 294.5625 13.347656 L 294.71875 13.101563 L 294.84375 12.835938 L 294.933594 12.558594 L 294.988281 12.273438 L 295.007813 11.980469 Z M 294.988281 11.691406 "/>
<path style="fill-rule:nonzero;fill:rgb(87.45098%,32.54902%,41.960784%);fill-opacity:1;stroke-width:0.75;stroke-linecap:round;stroke-linejoin:round;stroke:rgb(0%,0%,0%);stroke-opacity:1;stroke-miterlimit:10;" d="M 226.898438 47.886719 L 226.84375 47.601563 L 226.753906 47.324219 L 226.628906 47.058594 L 226.472656 46.8125 L 226.285156 46.585938 L 226.074219 46.386719 L 225.839844 46.214844 L 225.582031 46.074219 L 225.3125 45.96875 L 225.027344 45.894531 L 224.738281 45.859375 L 224.449219 45.859375 L 224.15625 45.894531 L 223.875 45.96875 L 223.605469 46.074219 L 223.347656 46.214844 L 223.113281 46.386719 L 222.898438 46.585938 L 222.714844 46.8125 L 222.558594 47.058594 L 222.433594 47.324219 L 222.34375 47.601563 L 222.289063 47.886719 L 222.269531 48.179688 L 222.289063 48.46875 L 222.34375 48.753906 L 222.433594 49.03125 L 222.558594 49.296875 L 222.714844 49.542969 L 222.898438 49.769531 L 223.113281 49.96875 L 223.347656 50.140625 L 223.605469 50.28125 L 223.875 50.386719 L 224.15625 50.460938 L 224.449219 50.496094 L 224.738281 50.496094 L 225.027344 50.460938 L 225.3125 50.386719 L 225.582031 50.28125 L 225.839844 50.140625 L 226.074219 49.96875 L 226.285156 49.769531 L 226.472656 49.542969 L 226.628906 49.296875 L 226.753906 49.03125 L 226.84375 48.753906 L 226.898438 48.46875 L 226.917969 48.179688 Z M 226.898438 47.886719 "/>
<path style="fill-rule:nonzero;fill:rgb(87.45098%,32.54902%,41.960784%);fill-opacity:1;stroke-width:0.75;stroke-linecap:round;stroke-linejoin:round;stroke:rgb(0%,0%,0%);stroke-opacity:1;stroke-miterlimit:10;" d="M 220.632813 65.148438 L 220.578125 64.859375 L 220.488281 64.582031 L 220.363281 64.320313 L 220.207031 64.074219 L 220.019531 63.847656 L 219.808594 63.648438 L 219.570313 63.476563 L 219.316406 63.335938 L 219.042969 63.230469 L 218.761719 63.15625 L 218.472656 63.121094 L 218.179688 63.121094 L 217.890625 63.15625 L 217.609375 63.230469 L 217.335938 63.335938 L 217.082031 63.476563 L 216.847656 63.648438 L 216.632813 63.847656 L 216.445313 64.074219 L 216.289063 64.320313 L 216.167969 64.582031 L 216.078125 64.859375 L 216.023438 65.148438 L 216.003906 65.4375 L 216.023438 65.730469 L 216.078125 66.015625 L 216.167969 66.292969 L 216.289063 66.558594 L 216.445313 66.804688 L 216.632813 67.027344 L 216.847656 67.230469 L 217.082031 67.398438 L 217.335938 67.539063 L 217.609375 67.648438 L 217.890625 67.722656 L 218.179688 67.757813 L 218.472656 67.757813 L 218.761719 67.722656 L 219.042969 67.648438 L 219.316406 67.539063 L 219.570313 67.398438 L 219.808594 67.230469 L 220.019531 67.027344 L 220.207031 66.804688 L 220.363281 66.558594 L 220.488281 66.292969 L 220.578125 66.015625 L 220.632813 65.730469 L 220.648438 65.4375 Z M 220.632813 65.148438 "/>
<path style="fill-rule:nonzero;fill:rgb(87.45098%,32.54902%,41.960784%);fill-opacity:1;stroke-width:0.75;stroke-linecap:round;stroke-linejoin:round;stroke:rgb(0%,0%,0%);stroke-opacity:1;stroke-miterlimit:10;" d="M 280.558594 23.878906 L 280.503906 23.589844 L 280.414063 23.3125 L 280.289063 23.050781 L 280.132813 22.804688 L 279.949219 22.578125 L 279.734375 22.378906 L 279.5 22.207031 L 279.242188 22.066406 L 278.972656 21.957031 L 278.691406 21.886719 L 278.402344 21.851563 L 278.109375 21.851563 L 277.820313 21.886719 L 277.535156 21.957031 L 277.265625 22.066406 L 277.011719 22.207031 L 276.773438 22.378906 L 276.5625 22.578125 L 276.375 22.804688 L 276.21875 23.050781 L 276.09375 23.3125 L 276.003906 23.589844 L 275.949219 23.878906 L 275.929688 24.167969 L 275.949219 24.460938 L 276.003906 24.746094 L 276.09375 25.023438 L 276.21875 25.289063 L 276.375 25.535156 L 276.5625 25.757813 L 276.773438 25.957031 L 277.011719 26.128906 L 277.265625 26.269531 L 277.535156 26.378906 L 277.820313 26.449219 L 278.109375 26.488281 L 278.402344 26.488281 L 278.691406 26.449219 L 278.972656 26.378906 L 279.242188 26.269531 L 279.5 26.128906 L 279.734375 25.957031 L 279.949219 25.757813 L 280.132813 25.535156 L 280.289063 25.289063 L 280.414063 25.023438 L 280.503906 24.746094 L 280.558594 24.460938 L 280.578125 24.167969 Z M 280.558594 23.878906 "/>
<path style="fill-rule:nonzero;fill:rgb(87.45098%,32.54902%,41.960784%);fill-opacity:1;stroke-width:0.75;stroke-linecap:round;stroke-linejoin:round;stroke:rgb(0%,0%,0%);stroke-opacity:1;stroke-miterlimit:10;" d="M 293.042969 110.074219 L 292.992188 109.785156 L 292.898438 109.507813 L 292.777344 109.246094 L 292.621094 109 L 292.433594 108.773438 L 292.222656 108.574219 L 291.984375 108.402344 L 291.730469 108.261719 L 291.457031 108.15625 L 291.175781 108.082031 L 290.886719 108.046875 L 290.59375 108.046875 L 290.304688 108.082031 L 290.023438 108.15625 L 289.75 108.261719 L 289.496094 108.402344 L 289.257813 108.574219 L 289.046875 108.773438 L 288.859375 109 L 288.703125 109.246094 L 288.582031 109.507813 L 288.488281 109.785156 L 288.433594 110.074219 L 288.417969 110.363281 L 288.433594 110.65625 L 288.488281 110.941406 L 288.582031 111.21875 L 288.703125 111.484375 L 288.859375 111.730469 L 289.046875 111.953125 L 289.257813 112.152344 L 289.496094 112.324219 L 289.75 112.464844 L 290.023438 112.574219 L 290.304688 112.644531 L 290.59375 112.683594 L 290.886719 112.683594 L 291.175781 112.644531 L 291.457031 112.574219 L 291.730469 112.464844 L 291.984375 112.324219 L 292.222656 112.152344 L 292.433594 111.953125 L 292.621094 111.730469 L 292.777344 111.484375 L 292.898438 111.21875 L 292.992188 110.941406 L 293.042969 110.65625 L 293.0625 110.363281 Z M 293.042969 110.074219 "/>
<path style="fill-rule:nonzero;fill:rgb(87.45098%,32.54902%,41.960784%);fill-opacity:1;stroke-width:0.75;stroke-linecap:round;stroke-linejoin:round;stroke:rgb(0%,0%,0%);stroke-opacity:1;stroke-miterlimit:10;" d="M 230.117188 80.636719 L 230.0625 80.351563 L 229.972656 80.074219 L 229.847656 79.808594 L 229.691406 79.5625 L 229.507813 79.339844 L 229.292969 79.140625 L 229.058594 78.96875 L 228.804688 78.828125 L 228.53125 78.71875 L 228.25 78.648438 L 227.960938 78.609375 L 227.667969 78.609375 L 227.378906 78.648438 L 227.097656 78.71875 L 226.824219 78.828125 L 226.570313 78.96875 L 226.332031 79.140625 L 226.121094 79.339844 L 225.933594 79.5625 L 225.777344 79.808594 L 225.652344 80.074219 L 225.5625 80.351563 L 225.507813 80.636719 L 225.492188 80.929688 L 225.507813 81.21875 L 225.5625 81.507813 L 225.652344 81.785156 L 225.777344 82.046875 L 225.933594 82.292969 L 226.121094 82.519531 L 226.332031 82.71875 L 226.570313 82.890625 L 226.824219 83.03125 L 227.097656 83.136719 L 227.378906 83.210938 L 227.667969 83.246094 L 227.960938 83.246094 L 228.25 83.210938 L 228.53125 83.136719 L 228.804688 83.03125 L 229.058594 82.890625 L 229.292969 82.71875 L 229.507813 82.519531 L 229.691406 82.292969 L 229.847656 82.046875 L 229.972656 81.785156 L 230.0625 81.507813 L 230.117188 81.21875 L 230.136719 80.929688 Z M 230.117188 80.636719 "/>
<path style="fill-rule:nonzero;fill:rgb(87.45098%,32.54902%,41.960784%);fill-opacity:1;stroke-width:0.75;stroke-linecap:round;stroke-linejoin:round;stroke:rgb(0%,0%,0%);stroke-opacity:1;stroke-miterlimit:10;" d="M 286.394531 68.441406 L 286.339844 68.15625 L 286.25 67.878906 L 286.125 67.613281 L 285.96875 67.367188 L 285.785156 67.144531 L 285.570313 66.945313 L 285.335938 66.773438 L 285.078125 66.632813 L 284.808594 66.523438 L 284.523438 66.453125 L 284.234375 66.414063 L 283.945313 66.414063 L 283.65625 66.453125 L 283.371094 66.523438 L 283.101563 66.632813 L 282.84375 66.773438 L 282.609375 66.945313 L 282.398438 67.144531 L 282.210938 67.367188 L 282.054688 67.613281 L 281.929688 67.878906 L 281.839844 68.15625 L 281.785156 68.441406 L 281.765625 68.734375 L 281.785156 69.023438 L 281.839844 69.3125 L 281.929688 69.589844 L 282.054688 69.851563 L 282.210938 70.097656 L 282.398438 70.324219 L 282.609375 70.523438 L 282.84375 70.695313 L 283.101563 70.835938 L 283.371094 70.941406 L 283.65625 71.015625 L 283.945313 71.050781 L 284.234375 71.050781 L 284.523438 71.015625 L 284.808594 70.941406 L 285.078125 70.835938 L 285.335938 70.695313 L 285.570313 70.523438 L 285.785156 70.324219 L 285.96875 70.097656 L 286.125 69.851563 L 286.25 69.589844 L 286.339844 69.3125 L 286.394531 69.023438 L 286.414063 68.734375 Z M 286.394531 68.441406 "/>
<path style="fill-rule:nonzero;fill:rgb(87.45098%,32.54902%,41.960784%);fill-opacity:1;stroke-width:0.75;stroke-linecap:round;stroke-linejoin:round;stroke:rgb(0%,0%,0%);stroke-opacity:1;stroke-miterlimit:10;" d="M 278.046875 67.347656 L 277.992188 67.0625 L 277.902344 66.785156 L 277.78125 66.519531 L 277.621094 66.273438 L 277.4375 66.050781 L 277.222656 65.847656 L 276.988281 65.679688 L 276.734375 65.539063 L 276.460938 65.429688 L 276.179688 65.355469 L 275.890625 65.320313 L 275.597656 65.320313 L 275.308594 65.355469 L 275.027344 65.429688 L 274.753906 65.539063 L 274.5 65.679688 L 274.261719 65.847656 L 274.050781 66.050781 L 273.863281 66.273438 L 273.707031 66.519531 L 273.582031 66.785156 L 273.492188 67.0625 L 273.4375 67.347656 L 273.421875 67.640625 L 273.4375 67.929688 L 273.492188 68.21875 L 273.582031 68.496094 L 273.707031 68.757813 L 273.863281 69.003906 L 274.050781 69.230469 L 274.261719 69.429688 L 274.5 69.601563 L 274.753906 69.742188 L 275.027344 69.847656 L 275.308594 69.921875 L 275.597656 69.957031 L 275.890625 69.957031 L 276.179688 69.921875 L 276.460938 69.847656 L 276.734375 69.742188 L 276.988281 69.601563 L 277.222656 69.429688 L 277.4375 69.230469 L 277.621094 69.003906 L 277.78125 68.757813 L 277.902344 68.496094 L 277.992188 68.21875 L 278.046875 67.929688 L 278.066406 67.640625 Z M 278.046875 67.347656 "/>
</g>
</svg>
