<?xml version="1.0" encoding="UTF-8"?>
<svg xmlns="http://www.w3.org/2000/svg" xmlns:xlink="http://www.w3.org/1999/xlink" width="504pt" height="182pt" viewBox="0 0 504 182" version="1.1">
<defs>
<g>
<symbol overflow="visible" id="glyph0-0">
<path style="stroke:none;" d="M 1.664063 0 L 1.664063 -7.5 L 7.664063 -7.5 L 7.664063 0 Z M 1.851563 -0.1875 L 7.476563 -0.1875 L 7.476563 -7.3125 L 1.851563 -7.3125 Z M 1.851563 -0.1875 "/>
</symbol>
<symbol overflow="visible" id="glyph0-1">
<path style="stroke:none;" d="M 2.46875 -4.257813 L 6.15625 -4.257813 L 6.15625 -6.53125 C 6.152344 -6.933594 6.128906 -7.203125 6.082031 -7.335938 C 6.042969 -7.433594 5.960938 -7.515625 5.835938 -7.585938 C 5.667969 -7.675781 5.488281 -7.722656 5.304688 -7.726563 L 5.023438 -7.726563 L 5.023438 -7.945313 L 8.421875 -7.945313 L 8.421875 -7.726563 L 8.140625 -7.726563 C 7.949219 -7.722656 7.773438 -7.679688 7.605469 -7.59375 C 7.480469 -7.53125 7.394531 -7.433594 7.347656 -7.308594 C 7.300781 -7.175781 7.277344 -6.917969 7.28125 -6.53125 L 7.28125 -1.40625 C 7.277344 -1.003906 7.304688 -0.738281 7.359375 -0.609375 C 7.398438 -0.507813 7.476563 -0.421875 7.601563 -0.359375 C 7.769531 -0.261719 7.949219 -0.214844 8.140625 -0.21875 L 8.421875 -0.21875 L 8.421875 0 L 5.023438 0 L 5.023438 -0.21875 L 5.304688 -0.21875 C 5.625 -0.214844 5.863281 -0.3125 6.011719 -0.503906 C 6.105469 -0.628906 6.152344 -0.929688 6.15625 -1.40625 L 6.15625 -3.828125 L 2.46875 -3.828125 L 2.46875 -1.40625 C 2.464844 -1.003906 2.492188 -0.738281 2.542969 -0.609375 C 2.582031 -0.507813 2.664063 -0.421875 2.789063 -0.359375 C 2.953125 -0.261719 3.128906 -0.214844 3.320313 -0.21875 L 3.609375 -0.21875 L 3.609375 0 L 0.203125 0 L 0.203125 -0.21875 L 0.484375 -0.21875 C 0.808594 -0.214844 1.046875 -0.3125 1.203125 -0.503906 C 1.292969 -0.628906 1.339844 -0.929688 1.34375 -1.40625 L 1.34375 -6.53125 C 1.339844 -6.933594 1.316406 -7.203125 1.265625 -7.335938 C 1.226563 -7.433594 1.144531 -7.515625 1.023438 -7.585938 C 0.847656 -7.675781 0.667969 -7.722656 0.484375 -7.726563 L 0.203125 -7.726563 L 0.203125 -7.945313 L 3.609375 -7.945313 L 3.609375 -7.726563 L 3.320313 -7.726563 C 3.128906 -7.722656 2.953125 -7.679688 2.789063 -7.59375 C 2.667969 -7.53125 2.582031 -7.433594 2.539063 -7.308594 C 2.488281 -7.175781 2.464844 -6.917969 2.46875 -6.53125 Z M 2.46875 -4.257813 "/>
</symbol>
<symbol overflow="visible" id="glyph0-2">
<path style="stroke:none;" d="M 5.5 -1.53125 L 4.945313 0 L 0.257813 0 L 0.257813 -0.21875 C 1.636719 -1.46875 2.605469 -2.496094 3.171875 -3.296875 C 3.730469 -4.089844 4.011719 -4.820313 4.015625 -5.484375 C 4.011719 -5.988281 3.859375 -6.402344 3.550781 -6.726563 C 3.238281 -7.046875 2.867188 -7.207031 2.445313 -7.210938 C 2.050781 -7.207031 1.699219 -7.09375 1.390625 -6.867188 C 1.078125 -6.640625 0.851563 -6.304688 0.703125 -5.867188 L 0.484375 -5.867188 C 0.582031 -6.585938 0.832031 -7.140625 1.238281 -7.527344 C 1.636719 -7.914063 2.144531 -8.109375 2.753906 -8.109375 C 3.394531 -8.109375 3.929688 -7.902344 4.367188 -7.488281 C 4.796875 -7.074219 5.015625 -6.585938 5.015625 -6.023438 C 5.015625 -5.621094 4.921875 -5.21875 4.734375 -4.816406 C 4.445313 -4.183594 3.976563 -3.511719 3.328125 -2.804688 C 2.351563 -1.738281 1.742188 -1.097656 1.507813 -0.882813 L 3.578125 -0.882813 C 3.996094 -0.878906 4.292969 -0.894531 4.464844 -0.929688 C 4.636719 -0.957031 4.789063 -1.019531 4.925781 -1.121094 C 5.0625 -1.214844 5.183594 -1.351563 5.285156 -1.53125 Z M 5.5 -1.53125 "/>
</symbol>
<symbol overflow="visible" id="glyph0-3">
<path style="stroke:none;" d="M 0.609375 -6.433594 C 0.835938 -6.964844 1.121094 -7.375 1.464844 -7.671875 C 1.808594 -7.960938 2.238281 -8.109375 2.757813 -8.109375 C 3.394531 -8.109375 3.882813 -7.902344 4.226563 -7.488281 C 4.476563 -7.175781 4.605469 -6.84375 4.609375 -6.5 C 4.605469 -5.917969 4.242188 -5.320313 3.523438 -4.703125 C 4.007813 -4.511719 4.378906 -4.238281 4.628906 -3.882813 C 4.878906 -3.527344 5.003906 -3.109375 5.003906 -2.632813 C 5.003906 -1.941406 4.785156 -1.347656 4.347656 -0.84375 C 3.777344 -0.1875 2.949219 0.140625 1.867188 0.140625 C 1.332031 0.140625 0.96875 0.0742188 0.773438 -0.0585938 C 0.578125 -0.191406 0.480469 -0.332031 0.484375 -0.484375 C 0.480469 -0.597656 0.527344 -0.699219 0.621094 -0.785156 C 0.714844 -0.871094 0.824219 -0.914063 0.953125 -0.914063 C 1.050781 -0.914063 1.152344 -0.898438 1.253906 -0.867188 C 1.316406 -0.84375 1.464844 -0.769531 1.703125 -0.652344 C 1.933594 -0.527344 2.097656 -0.457031 2.191406 -0.433594 C 2.332031 -0.386719 2.484375 -0.363281 2.65625 -0.367188 C 3.046875 -0.363281 3.394531 -0.519531 3.691406 -0.832031 C 3.988281 -1.140625 4.136719 -1.503906 4.136719 -1.929688 C 4.136719 -2.234375 4.066406 -2.535156 3.929688 -2.828125 C 3.828125 -3.042969 3.71875 -3.210938 3.597656 -3.328125 C 3.425781 -3.484375 3.195313 -3.625 2.90625 -3.753906 C 2.613281 -3.878906 2.3125 -3.941406 2.007813 -3.945313 L 1.820313 -3.945313 L 1.820313 -4.117188 C 2.128906 -4.15625 2.4375 -4.269531 2.75 -4.453125 C 3.058594 -4.632813 3.285156 -4.851563 3.429688 -5.113281 C 3.566406 -5.367188 3.636719 -5.652344 3.640625 -5.964844 C 3.636719 -6.367188 3.511719 -6.691406 3.261719 -6.941406 C 3.007813 -7.1875 2.695313 -7.3125 2.320313 -7.3125 C 1.714844 -7.3125 1.207031 -6.988281 0.804688 -6.339844 Z M 0.609375 -6.433594 "/>
</symbol>
<symbol overflow="visible" id="glyph0-4">
<path style="stroke:none;" d="M 5.585938 -2.929688 L 5.585938 -2.097656 L 4.515625 -2.097656 L 4.515625 0 L 3.550781 0 L 3.550781 -2.097656 L 0.1875 -2.097656 L 0.1875 -2.847656 L 3.875 -8.109375 L 4.515625 -8.109375 L 4.515625 -2.929688 Z M 3.550781 -2.929688 L 3.550781 -6.875 L 0.761719 -2.929688 Z M 3.550781 -2.929688 "/>
</symbol>
<symbol overflow="visible" id="glyph0-5">
<path style="stroke:none;" d="M 5.210938 -7.945313 L 4.75 -6.949219 L 2.359375 -6.949219 L 1.839844 -5.882813 C 2.871094 -5.730469 3.691406 -5.34375 4.300781 -4.726563 C 4.816406 -4.191406 5.074219 -3.566406 5.078125 -2.851563 C 5.074219 -2.433594 4.988281 -2.046875 4.824219 -1.691406 C 4.652344 -1.335938 4.441406 -1.035156 4.183594 -0.785156 C 3.925781 -0.535156 3.636719 -0.332031 3.320313 -0.179688 C 2.871094 0.0351563 2.410156 0.140625 1.9375 0.140625 C 1.460938 0.140625 1.113281 0.0625 0.898438 -0.101563 C 0.679688 -0.257813 0.574219 -0.4375 0.574219 -0.640625 C 0.574219 -0.746094 0.617188 -0.84375 0.707031 -0.929688 C 0.796875 -1.011719 0.910156 -1.054688 1.046875 -1.054688 C 1.148438 -1.054688 1.238281 -1.039063 1.316406 -1.007813 C 1.390625 -0.976563 1.519531 -0.894531 1.703125 -0.765625 C 1.996094 -0.558594 2.292969 -0.457031 2.59375 -0.460938 C 3.050781 -0.457031 3.453125 -0.628906 3.800781 -0.980469 C 4.144531 -1.324219 4.316406 -1.746094 4.320313 -2.242188 C 4.316406 -2.722656 4.164063 -3.171875 3.855469 -3.585938 C 3.542969 -4 3.117188 -4.320313 2.578125 -4.554688 C 2.148438 -4.726563 1.566406 -4.828125 0.835938 -4.859375 L 2.359375 -7.945313 Z M 5.210938 -7.945313 "/>
</symbol>
<symbol overflow="visible" id="glyph0-6">
<path style="stroke:none;" d="M 5.378906 -8.109375 L 5.378906 -7.890625 C 4.863281 -7.839844 4.441406 -7.738281 4.113281 -7.582031 C 3.785156 -7.425781 3.460938 -7.191406 3.148438 -6.878906 C 2.828125 -6.5625 2.566406 -6.207031 2.359375 -5.820313 C 2.148438 -5.429688 1.972656 -4.96875 1.835938 -4.4375 C 2.394531 -4.820313 2.960938 -5.015625 3.527344 -5.015625 C 4.070313 -5.015625 4.539063 -4.796875 4.941406 -4.359375 C 5.335938 -3.921875 5.535156 -3.359375 5.539063 -2.671875 C 5.535156 -2.007813 5.335938 -1.402344 4.933594 -0.855469 C 4.449219 -0.191406 3.808594 0.140625 3.011719 0.140625 C 2.464844 0.140625 2.003906 -0.0390625 1.628906 -0.398438 C 0.886719 -1.09375 0.515625 -2 0.515625 -3.117188 C 0.515625 -3.828125 0.65625 -4.503906 0.941406 -5.144531 C 1.226563 -5.785156 1.632813 -6.351563 2.164063 -6.847656 C 2.691406 -7.34375 3.199219 -7.679688 3.6875 -7.851563 C 4.167969 -8.023438 4.621094 -8.109375 5.039063 -8.109375 Z M 1.734375 -4.007813 C 1.664063 -3.480469 1.628906 -3.054688 1.628906 -2.730469 C 1.628906 -2.355469 1.695313 -1.945313 1.835938 -1.507813 C 1.972656 -1.066406 2.179688 -0.71875 2.453125 -0.460938 C 2.652344 -0.277344 2.894531 -0.1875 3.179688 -0.1875 C 3.519531 -0.1875 3.824219 -0.347656 4.089844 -0.667969 C 4.355469 -0.988281 4.488281 -1.445313 4.492188 -2.039063 C 4.488281 -2.703125 4.355469 -3.28125 4.09375 -3.773438 C 3.824219 -4.261719 3.449219 -4.503906 2.964844 -4.507813 C 2.816406 -4.503906 2.65625 -4.472656 2.488281 -4.414063 C 2.316406 -4.347656 2.066406 -4.214844 1.734375 -4.007813 Z M 1.734375 -4.007813 "/>
</symbol>
<symbol overflow="visible" id="glyph0-7">
<path style="stroke:none;" d="M 1.207031 -7.945313 L 5.46875 -7.945313 L 5.46875 -7.722656 L 2.820313 0.164063 L 2.164063 0.164063 L 4.535156 -6.992188 L 2.351563 -6.992188 C 1.90625 -6.988281 1.59375 -6.9375 1.40625 -6.832031 C 1.078125 -6.652344 0.8125 -6.375 0.617188 -6 L 0.445313 -6.0625 Z M 1.207031 -7.945313 "/>
</symbol>
<symbol overflow="visible" id="glyph0-8">
<path style="stroke:none;" d="M 2.304688 -4 C 1.671875 -4.511719 1.265625 -4.925781 1.085938 -5.242188 C 0.898438 -5.550781 0.808594 -5.875 0.8125 -6.21875 C 0.808594 -6.730469 1.007813 -7.175781 1.410156 -7.550781 C 1.804688 -7.921875 2.335938 -8.109375 3 -8.109375 C 3.640625 -8.109375 4.15625 -7.933594 4.546875 -7.585938 C 4.9375 -7.238281 5.132813 -6.84375 5.132813 -6.398438 C 5.132813 -6.101563 5.027344 -5.796875 4.816406 -5.488281 C 4.605469 -5.179688 4.164063 -4.816406 3.5 -4.398438 C 4.183594 -3.863281 4.640625 -3.445313 4.863281 -3.148438 C 5.160156 -2.742188 5.308594 -2.324219 5.308594 -1.886719 C 5.308594 -1.324219 5.09375 -0.84375 4.667969 -0.453125 C 4.242188 -0.0546875 3.683594 0.140625 2.992188 0.140625 C 2.238281 0.140625 1.652344 -0.09375 1.230469 -0.570313 C 0.894531 -0.945313 0.726563 -1.359375 0.726563 -1.8125 C 0.726563 -2.15625 0.84375 -2.503906 1.082031 -2.855469 C 1.316406 -3.199219 1.722656 -3.582031 2.304688 -4 Z M 3.222656 -4.628906 C 3.691406 -5.050781 3.988281 -5.382813 4.113281 -5.625 C 4.238281 -5.867188 4.300781 -6.144531 4.300781 -6.457031 C 4.300781 -6.863281 4.183594 -7.183594 3.953125 -7.417969 C 3.722656 -7.652344 3.410156 -7.769531 3.011719 -7.769531 C 2.613281 -7.769531 2.289063 -7.652344 2.039063 -7.421875 C 1.789063 -7.191406 1.664063 -6.921875 1.664063 -6.617188 C 1.664063 -6.410156 1.714844 -6.207031 1.820313 -6.007813 C 1.921875 -5.800781 2.070313 -5.609375 2.261719 -5.425781 Z M 2.578125 -3.78125 C 2.253906 -3.5 2.011719 -3.203125 1.859375 -2.882813 C 1.699219 -2.5625 1.621094 -2.214844 1.625 -1.839844 C 1.621094 -1.335938 1.757813 -0.929688 2.035156 -0.628906 C 2.308594 -0.324219 2.660156 -0.175781 3.085938 -0.175781 C 3.503906 -0.175781 3.84375 -0.292969 4.101563 -0.53125 C 4.355469 -0.769531 4.480469 -1.058594 4.484375 -1.398438 C 4.480469 -1.675781 4.40625 -1.929688 4.257813 -2.15625 C 3.980469 -2.570313 3.421875 -3.109375 2.578125 -3.78125 Z M 2.578125 -3.78125 "/>
</symbol>
<symbol overflow="visible" id="glyph0-9">
<path style="stroke:none;" d="M 0.632813 0.164063 L 0.632813 -0.0546875 C 1.140625 -0.0546875 1.613281 -0.171875 2.050781 -0.40625 C 2.488281 -0.632813 2.910156 -1.035156 3.316406 -1.605469 C 3.722656 -2.175781 4.007813 -2.800781 4.171875 -3.484375 C 3.554688 -3.089844 3 -2.894531 2.507813 -2.894531 C 1.949219 -2.894531 1.46875 -3.109375 1.074219 -3.539063 C 0.671875 -3.96875 0.472656 -4.542969 0.476563 -5.261719 C 0.472656 -5.957031 0.671875 -6.574219 1.070313 -7.117188 C 1.550781 -7.777344 2.179688 -8.109375 2.953125 -8.109375 C 3.601563 -8.109375 4.160156 -7.839844 4.628906 -7.300781 C 5.199219 -6.628906 5.484375 -5.804688 5.484375 -4.828125 C 5.484375 -3.945313 5.265625 -3.121094 4.832031 -2.355469 C 4.398438 -1.589844 3.796875 -0.957031 3.023438 -0.457031 C 2.390625 -0.0429688 1.703125 0.164063 0.96875 0.164063 Z M 4.265625 -3.921875 C 4.335938 -4.421875 4.371094 -4.828125 4.371094 -5.140625 C 4.371094 -5.515625 4.304688 -5.925781 4.175781 -6.363281 C 4.046875 -6.800781 3.863281 -7.136719 3.628906 -7.375 C 3.386719 -7.605469 3.121094 -7.722656 2.824219 -7.726563 C 2.476563 -7.722656 2.171875 -7.566406 1.910156 -7.257813 C 1.644531 -6.941406 1.511719 -6.476563 1.515625 -5.867188 C 1.511719 -5.039063 1.6875 -4.394531 2.039063 -3.929688 C 2.292969 -3.59375 2.605469 -3.425781 2.976563 -3.429688 C 3.15625 -3.425781 3.367188 -3.46875 3.613281 -3.558594 C 3.859375 -3.640625 4.078125 -3.761719 4.265625 -3.921875 Z M 4.265625 -3.921875 "/>
</symbol>
<symbol overflow="visible" id="glyph0-10">
<path style="stroke:none;" d="M 1.40625 -7.164063 L 3.339844 -8.109375 L 3.53125 -8.109375 L 3.53125 -1.398438 C 3.527344 -0.953125 3.546875 -0.675781 3.585938 -0.570313 C 3.625 -0.457031 3.703125 -0.375 3.820313 -0.316406 C 3.9375 -0.253906 4.175781 -0.21875 4.535156 -0.21875 L 4.535156 0 L 1.546875 0 L 1.546875 -0.21875 C 1.921875 -0.21875 2.164063 -0.25 2.273438 -0.3125 C 2.382813 -0.367188 2.457031 -0.445313 2.5 -0.542969 C 2.542969 -0.636719 2.566406 -0.921875 2.566406 -1.398438 L 2.566406 -5.6875 C 2.566406 -6.261719 2.546875 -6.632813 2.507813 -6.804688 C 2.480469 -6.925781 2.429688 -7.019531 2.359375 -7.078125 C 2.285156 -7.132813 2.199219 -7.160156 2.097656 -7.164063 C 1.953125 -7.160156 1.75 -7.101563 1.492188 -6.984375 Z M 1.40625 -7.164063 "/>
</symbol>
<symbol overflow="visible" id="glyph0-11">
<path style="stroke:none;" d="M 0.433594 -3.925781 C 0.433594 -4.832031 0.570313 -5.609375 0.84375 -6.265625 C 1.117188 -6.917969 1.480469 -7.40625 1.933594 -7.726563 C 2.285156 -7.980469 2.648438 -8.109375 3.023438 -8.109375 C 3.632813 -8.109375 4.179688 -7.796875 4.664063 -7.179688 C 5.265625 -6.40625 5.566406 -5.363281 5.570313 -4.046875 C 5.566406 -3.121094 5.433594 -2.339844 5.171875 -1.699219 C 4.902344 -1.054688 4.5625 -0.585938 4.15625 -0.296875 C 3.742188 -0.00390625 3.347656 0.140625 2.964844 0.140625 C 2.207031 0.140625 1.574219 -0.304688 1.070313 -1.203125 C 0.644531 -1.953125 0.433594 -2.863281 0.433594 -3.925781 Z M 1.582031 -3.78125 C 1.582031 -2.683594 1.714844 -1.792969 1.984375 -1.101563 C 2.207031 -0.515625 2.539063 -0.222656 2.984375 -0.226563 C 3.1875 -0.222656 3.40625 -0.316406 3.636719 -0.511719 C 3.859375 -0.699219 4.03125 -1.019531 4.15625 -1.464844 C 4.328125 -2.136719 4.417969 -3.082031 4.421875 -4.304688 C 4.417969 -5.207031 4.324219 -5.964844 4.140625 -6.574219 C 3.996094 -7.023438 3.816406 -7.339844 3.597656 -7.53125 C 3.4375 -7.65625 3.242188 -7.722656 3.015625 -7.722656 C 2.746094 -7.722656 2.511719 -7.601563 2.308594 -7.367188 C 2.027344 -7.039063 1.835938 -6.53125 1.734375 -5.835938 C 1.632813 -5.140625 1.582031 -4.453125 1.582031 -3.78125 Z M 1.582031 -3.78125 "/>
</symbol>
<symbol overflow="visible" id="glyph0-12">
<path style="stroke:none;" d="M 5.492188 -2.660156 L 2.414063 -2.660156 L 1.875 -1.40625 C 1.742188 -1.097656 1.675781 -0.867188 1.675781 -0.714844 C 1.675781 -0.589844 1.730469 -0.480469 1.847656 -0.394531 C 1.960938 -0.300781 2.210938 -0.242188 2.59375 -0.21875 L 2.59375 0 L 0.09375 0 L 0.09375 -0.21875 C 0.425781 -0.273438 0.640625 -0.351563 0.738281 -0.445313 C 0.9375 -0.632813 1.15625 -1.011719 1.398438 -1.585938 L 4.195313 -8.125 L 4.398438 -8.125 L 7.164063 -1.515625 C 7.386719 -0.980469 7.589844 -0.636719 7.773438 -0.480469 C 7.953125 -0.324219 8.207031 -0.234375 8.53125 -0.21875 L 8.53125 0 L 5.398438 0 L 5.398438 -0.21875 C 5.710938 -0.230469 5.925781 -0.285156 6.035156 -0.375 C 6.144531 -0.460938 6.199219 -0.570313 6.203125 -0.703125 C 6.199219 -0.875 6.121094 -1.144531 5.96875 -1.515625 Z M 5.328125 -3.09375 L 3.976563 -6.304688 L 2.59375 -3.09375 Z M 5.328125 -3.09375 "/>
</symbol>
</g>
</defs>
<g id="surface149">
<rect x="0" y="0" width="504" height="182" style="fill:rgb(100%,100%,100%);fill-opacity:1;stroke:none;"/>
<path style="fill:none;stroke-width:0.75;stroke-linecap:round;stroke-linejoin:round;stroke:rgb(66.27451%,66.27451%,66.27451%);stroke-opacity:1;stroke-miterlimit:10;" d="M 230.316406 109.140625 L 234.777344 104.492188 "/>
<path style="fill:none;stroke-width:0.75;stroke-linecap:round;stroke-linejoin:round;stroke:rgb(66.27451%,66.27451%,66.27451%);stroke-opacity:1;stroke-miterlimit:10;" d="M 228.398438 107.917969 L 237.125 85.5625 "/>
<path style="fill:none;stroke-width:0.75;stroke-linecap:round;stroke-linejoin:round;stroke:rgb(66.27451%,66.27451%,66.27451%);stroke-opacity:1;stroke-miterlimit:10;" d="M 222.371094 109.019531 L 216.023438 101.992188 "/>
<path style="fill:none;stroke-width:0.75;stroke-linecap:round;stroke-linejoin:round;stroke:rgb(66.27451%,66.27451%,66.27451%);stroke-opacity:1;stroke-miterlimit:10;" d="M 223.683594 118.574219 L 214.84375 136.382813 "/>
<path style="fill:none;stroke-width:0.75;stroke-linecap:round;stroke-linejoin:round;stroke:rgb(66.27451%,66.27451%,66.27451%);stroke-opacity:1;stroke-miterlimit:10;" d="M 222.894531 118.097656 L 202.539063 146.675781 "/>
<path style="fill:none;stroke-width:0.75;stroke-linecap:round;stroke-linejoin:round;stroke:rgb(66.27451%,66.27451%,66.27451%);stroke-opacity:1;stroke-miterlimit:10;" d="M 221.878906 117.179688 L 194.203125 141.296875 "/>
<path style="fill:none;stroke-width:0.75;stroke-linecap:round;stroke-linejoin:round;stroke:rgb(66.27451%,66.27451%,66.27451%);stroke-opacity:1;stroke-miterlimit:10;" d="M 224.460938 107.808594 L 220.984375 97.191406 "/>
<path style="fill:none;stroke-width:0.75;stroke-linecap:round;stroke-linejoin:round;stroke:rgb(66.27451%,66.27451%,66.27451%);stroke-opacity:1;stroke-miterlimit:10;" d="M 230.449219 109.273438 L 259.539063 80.875 "/>
<path style="fill:none;stroke-width:0.75;stroke-linecap:round;stroke-linejoin:round;stroke:rgb(66.27451%,66.27451%,66.27451%);stroke-opacity:1;stroke-miterlimit:10;" d="M 225.152344 119.070313 L 219.195313 149.40625 "/>
<path style="fill:none;stroke-width:0.75;stroke-linecap:round;stroke-linejoin:round;stroke:rgb(66.27451%,66.27451%,66.27451%);stroke-opacity:1;stroke-miterlimit:10;" d="M 228.910156 118.554688 L 240.1875 140.839844 "/>
<path style="fill:none;stroke-width:0.75;stroke-linecap:round;stroke-linejoin:round;stroke:rgb(66.27451%,66.27451%,66.27451%);stroke-opacity:1;stroke-miterlimit:10;" d="M 220.589844 112.058594 L 181.691406 103.242188 "/>
<path style="fill:none;stroke-width:0.75;stroke-linecap:round;stroke-linejoin:round;stroke:rgb(66.27451%,66.27451%,66.27451%);stroke-opacity:1;stroke-miterlimit:10;" d="M 229.871094 108.757813 L 242.074219 93.167969 "/>
<path style="fill:none;stroke-width:0.75;stroke-linecap:round;stroke-linejoin:round;stroke:rgb(66.27451%,66.27451%,66.27451%);stroke-opacity:1;stroke-miterlimit:10;" d="M 220.546875 114.425781 L 196.023438 119.035156 "/>
<path style="fill:none;stroke-width:0.75;stroke-linecap:round;stroke-linejoin:round;stroke:rgb(66.27451%,66.27451%,66.27451%);stroke-opacity:1;stroke-miterlimit:10;" d="M 232.015625 112.296875 L 260.566406 107.066406 "/>
<path style="fill:none;stroke-width:0.75;stroke-linecap:round;stroke-linejoin:round;stroke:rgb(66.27451%,66.27451%,66.27451%);stroke-opacity:1;stroke-miterlimit:10;" d="M 231.210938 116.460938 L 247.6875 126.867188 "/>
<path style="fill:none;stroke-width:0.75;stroke-linecap:round;stroke-linejoin:round;stroke:rgb(66.27451%,66.27451%,66.27451%);stroke-opacity:1;stroke-miterlimit:10;" d="M 228.480469 107.949219 L 247.007813 62.53125 "/>
<path style="fill:none;stroke-width:0.75;stroke-linecap:round;stroke-linejoin:round;stroke:rgb(66.27451%,66.27451%,66.27451%);stroke-opacity:1;stroke-miterlimit:10;" d="M 238.941406 94.457031 L 239.121094 85.960938 "/>
<path style="fill:none;stroke-width:0.75;stroke-linecap:round;stroke-linejoin:round;stroke:rgb(66.27451%,66.27451%,66.27451%);stroke-opacity:1;stroke-miterlimit:10;" d="M 233.011719 99.714844 L 217.921875 98.230469 "/>
<path style="fill:none;stroke-width:0.75;stroke-linecap:round;stroke-linejoin:round;stroke:rgb(66.27451%,66.27451%,66.27451%);stroke-opacity:1;stroke-miterlimit:10;" d="M 233.476563 97.9375 L 224.507813 93.996094 "/>
<path style="fill:none;stroke-width:0.75;stroke-linecap:round;stroke-linejoin:round;stroke:rgb(66.27451%,66.27451%,66.27451%);stroke-opacity:1;stroke-miterlimit:10;" d="M 241.761719 95.25 L 242.722656 93.609375 "/>
<path style="fill:none;stroke-width:0.75;stroke-linecap:round;stroke-linejoin:round;stroke:rgb(66.27451%,66.27451%,66.27451%);stroke-opacity:1;stroke-miterlimit:10;" d="M 233.417969 102.492188 L 195.691406 117.90625 "/>
<path style="fill:none;stroke-width:0.75;stroke-linecap:round;stroke-linejoin:round;stroke:rgb(66.27451%,66.27451%,66.27451%);stroke-opacity:1;stroke-miterlimit:10;" d="M 244.527344 101.476563 L 260.59375 104.824219 "/>
<path style="fill:none;stroke-width:0.75;stroke-linecap:round;stroke-linejoin:round;stroke:rgb(66.27451%,66.27451%,66.27451%);stroke-opacity:1;stroke-miterlimit:10;" d="M 241.277344 105.574219 L 250.160156 124.691406 "/>
<path style="fill:none;stroke-width:0.75;stroke-linecap:round;stroke-linejoin:round;stroke:rgb(66.27451%,66.27451%,66.27451%);stroke-opacity:1;stroke-miterlimit:10;" d="M 243.941406 97.496094 L 276.074219 80 "/>
<path style="fill:none;stroke-width:0.75;stroke-linecap:round;stroke-linejoin:round;stroke:rgb(66.27451%,66.27451%,66.27451%);stroke-opacity:1;stroke-miterlimit:10;" d="M 234.347656 83.296875 L 217.015625 94.496094 "/>
<path style="fill:none;stroke-width:0.75;stroke-linecap:round;stroke-linejoin:round;stroke:rgb(66.27451%,66.27451%,66.27451%);stroke-opacity:1;stroke-miterlimit:10;" d="M 234.1875 83.035156 L 224.226563 88.746094 "/>
<path style="fill:none;stroke-width:0.75;stroke-linecap:round;stroke-linejoin:round;stroke:rgb(66.27451%,66.27451%,66.27451%);stroke-opacity:1;stroke-miterlimit:10;" d="M 245.023438 79.34375 L 257.933594 77.585938 "/>
<path style="fill:none;stroke-width:0.75;stroke-linecap:round;stroke-linejoin:round;stroke:rgb(66.27451%,66.27451%,66.27451%);stroke-opacity:1;stroke-miterlimit:10;" d="M 240.796875 74.507813 L 252.644531 31.582031 "/>
<path style="fill:none;stroke-width:0.75;stroke-linecap:round;stroke-linejoin:round;stroke:rgb(66.27451%,66.27451%,66.27451%);stroke-opacity:1;stroke-miterlimit:10;" d="M 242.777344 84.773438 L 242.136719 83.933594 "/>
<path style="fill:none;stroke-width:0.75;stroke-linecap:round;stroke-linejoin:round;stroke:rgb(66.27451%,66.27451%,66.27451%);stroke-opacity:1;stroke-miterlimit:10;" d="M 240.960938 74.558594 L 248.644531 49.550781 "/>
<path style="fill:none;stroke-width:0.75;stroke-linecap:round;stroke-linejoin:round;stroke:rgb(66.27451%,66.27451%,66.27451%);stroke-opacity:1;stroke-miterlimit:10;" d="M 237.316406 74.628906 L 232.390625 60.566406 "/>
<path style="fill:none;stroke-width:0.75;stroke-linecap:round;stroke-linejoin:round;stroke:rgb(66.27451%,66.27451%,66.27451%);stroke-opacity:1;stroke-miterlimit:10;" d="M 244.332031 77.277344 L 283.007813 55.59375 "/>
<path style="fill:none;stroke-width:0.75;stroke-linecap:round;stroke-linejoin:round;stroke:rgb(66.27451%,66.27451%,66.27451%);stroke-opacity:1;stroke-miterlimit:10;" d="M 216.554688 93.878906 L 214.730469 95.433594 "/>
<path style="fill:none;stroke-width:0.75;stroke-linecap:round;stroke-linejoin:round;stroke:rgb(66.27451%,66.27451%,66.27451%);stroke-opacity:1;stroke-miterlimit:10;" d="M 206.324219 98.351563 L 181.796875 101.261719 "/>
<path style="fill:none;stroke-width:0.75;stroke-linecap:round;stroke-linejoin:round;stroke:rgb(66.27451%,66.27451%,66.27451%);stroke-opacity:1;stroke-miterlimit:10;" d="M 217.746094 96.136719 L 240.039063 90.097656 "/>
<path style="fill:none;stroke-width:0.75;stroke-linecap:round;stroke-linejoin:round;stroke:rgb(66.27451%,66.27451%,66.27451%);stroke-opacity:1;stroke-miterlimit:10;" d="M 206.488281 142.511719 L 195.566406 144.222656 "/>
<path style="fill:none;stroke-width:0.75;stroke-linecap:round;stroke-linejoin:round;stroke:rgb(66.27451%,66.27451%,66.27451%);stroke-opacity:1;stroke-miterlimit:10;" d="M 214.558594 146.964844 L 215.765625 149.769531 "/>
<path style="fill:none;stroke-width:0.75;stroke-linecap:round;stroke-linejoin:round;stroke:rgb(66.27451%,66.27451%,66.27451%);stroke-opacity:1;stroke-miterlimit:10;" d="M 194.316406 148.167969 L 194.640625 148.386719 "/>
<path style="fill:none;stroke-width:0.75;stroke-linecap:round;stroke-linejoin:round;stroke:rgb(66.27451%,66.27451%,66.27451%);stroke-opacity:1;stroke-miterlimit:10;" d="M 204.878906 152.546875 L 212.347656 154.007813 "/>
<path style="fill:none;stroke-width:0.75;stroke-linecap:round;stroke-linejoin:round;stroke:rgb(66.27451%,66.27451%,66.27451%);stroke-opacity:1;stroke-miterlimit:10;" d="M 194.367188 154.757813 L 179.027344 165.429688 "/>
<path style="fill:none;stroke-width:0.75;stroke-linecap:round;stroke-linejoin:round;stroke:rgb(66.27451%,66.27451%,66.27451%);stroke-opacity:1;stroke-miterlimit:10;" d="M 186.597656 150 L 177.449219 163.890625 "/>
<path style="fill:none;stroke-width:0.75;stroke-linecap:round;stroke-linejoin:round;stroke:rgb(66.27451%,66.27451%,66.27451%);stroke-opacity:1;stroke-miterlimit:10;" d="M 269.542969 76.9375 L 275.367188 77.074219 "/>
<path style="fill:none;stroke-width:0.75;stroke-linecap:round;stroke-linejoin:round;stroke:rgb(66.27451%,66.27451%,66.27451%);stroke-opacity:1;stroke-miterlimit:10;" d="M 267.863281 72.703125 L 283.945313 56.835938 "/>
<path style="fill:none;stroke-width:0.75;stroke-linecap:round;stroke-linejoin:round;stroke:rgb(66.27451%,66.27451%,66.27451%);stroke-opacity:1;stroke-miterlimit:10;" d="M 267.023438 72 L 275.859375 59.203125 "/>
<path style="fill:none;stroke-width:0.75;stroke-linecap:round;stroke-linejoin:round;stroke:rgb(66.27451%,66.27451%,66.27451%);stroke-opacity:1;stroke-miterlimit:10;" d="M 258.046875 30.339844 L 275.324219 50.019531 "/>
<path style="fill:none;stroke-width:0.75;stroke-linecap:round;stroke-linejoin:round;stroke:rgb(66.27451%,66.27451%,66.27451%);stroke-opacity:1;stroke-miterlimit:10;" d="M 249.75 84.410156 L 275.085938 58.566406 "/>
<path style="fill:none;stroke-width:0.75;stroke-linecap:round;stroke-linejoin:round;stroke:rgb(66.27451%,66.27451%,66.27451%);stroke-opacity:1;stroke-miterlimit:10;" d="M 313.878906 57.011719 L 293.851563 53.695313 "/>
<path style="fill:none;stroke-width:0.75;stroke-linecap:round;stroke-linejoin:round;stroke:rgb(66.27451%,66.27451%,66.27451%);stroke-opacity:1;stroke-miterlimit:10;" d="M 313.824219 57.453125 L 284.980469 54.914063 "/>
<path style="fill:none;stroke-width:0.75;stroke-linecap:round;stroke-linejoin:round;stroke:rgb(66.27451%,66.27451%,66.27451%);stroke-opacity:1;stroke-miterlimit:10;" d="M 299.679688 44.730469 L 292.894531 49.421875 "/>
<path style="fill:none;stroke-width:0.75;stroke-linecap:round;stroke-linejoin:round;stroke:rgb(66.27451%,66.27451%,66.27451%);stroke-opacity:1;stroke-miterlimit:10;" d="M 299.285156 44.078125 L 284.359375 51.738281 "/>
<path style="fill:none;stroke-width:0.75;stroke-linecap:round;stroke-linejoin:round;stroke:rgb(66.27451%,66.27451%,66.27451%);stroke-opacity:1;stroke-miterlimit:10;" d="M 324.285156 66 L 293.570313 54.746094 "/>
<path style="fill:none;stroke-width:0.75;stroke-linecap:round;stroke-linejoin:round;stroke:rgb(66.27451%,66.27451%,66.27451%);stroke-opacity:1;stroke-miterlimit:10;" d="M 324.128906 66.492188 L 284.800781 55.917969 "/>
<path style="fill:none;stroke-width:0.75;stroke-linecap:round;stroke-linejoin:round;stroke:rgb(66.27451%,66.27451%,66.27451%);stroke-opacity:1;stroke-miterlimit:10;" d="M 267.714844 100.355469 L 277.761719 60.0625 "/>
<path style="fill:none;stroke-width:0.75;stroke-linecap:round;stroke-linejoin:round;stroke:rgb(66.27451%,66.27451%,66.27451%);stroke-opacity:1;stroke-miterlimit:10;" d="M 317.207031 34.121094 L 293.007813 49.597656 "/>
<path style="fill:none;stroke-width:0.75;stroke-linecap:round;stroke-linejoin:round;stroke:rgb(66.27451%,66.27451%,66.27451%);stroke-opacity:1;stroke-miterlimit:10;" d="M 317 33.769531 L 284.289063 51.609375 "/>
<path style="fill:none;stroke-width:0.75;stroke-linecap:round;stroke-linejoin:round;stroke:rgb(66.27451%,66.27451%,66.27451%);stroke-opacity:1;stroke-miterlimit:10;" d="M 314.703125 46.742188 L 293.785156 51.457031 "/>
<path style="fill:none;stroke-width:0.75;stroke-linecap:round;stroke-linejoin:round;stroke:rgb(66.27451%,66.27451%,66.27451%);stroke-opacity:1;stroke-miterlimit:10;" d="M 314.695313 46.695313 L 284.871094 53.164063 "/>
<path style="fill:none;stroke-width:0.75;stroke-linecap:round;stroke-linejoin:round;stroke:rgb(66.27451%,66.27451%,66.27451%);stroke-opacity:1;stroke-miterlimit:10;" d="M 264.789063 36.039063 L 248.960938 35.25 "/>
<path style="fill:none;stroke-width:0.75;stroke-linecap:round;stroke-linejoin:round;stroke:rgb(66.27451%,66.27451%,66.27451%);stroke-opacity:1;stroke-miterlimit:10;" d="M 265.160156 38.386719 L 255.816406 41.917969 "/>
<path style="fill:none;stroke-width:0.75;stroke-linecap:round;stroke-linejoin:round;stroke:rgb(66.27451%,66.27451%,66.27451%);stroke-opacity:1;stroke-miterlimit:10;" d="M 276.035156 34.179688 L 286.292969 30.113281 "/>
<path style="fill:none;stroke-width:0.75;stroke-linecap:round;stroke-linejoin:round;stroke:rgb(66.27451%,66.27451%,66.27451%);stroke-opacity:1;stroke-miterlimit:10;" d="M 274.867188 40.320313 L 283.84375 48.75 "/>
<path style="fill:none;stroke-width:0.75;stroke-linecap:round;stroke-linejoin:round;stroke:rgb(66.27451%,66.27451%,66.27451%);stroke-opacity:1;stroke-miterlimit:10;" d="M 273.109375 41.597656 L 276.675781 49.132813 "/>
<path style="fill:none;stroke-width:0.75;stroke-linecap:round;stroke-linejoin:round;stroke:rgb(66.27451%,66.27451%,66.27451%);stroke-opacity:1;stroke-miterlimit:10;" d="M 229.910156 29.742188 L 237.710938 32.820313 "/>
<path style="fill:none;stroke-width:0.75;stroke-linecap:round;stroke-linejoin:round;stroke:rgb(66.27451%,66.27451%,66.27451%);stroke-opacity:1;stroke-miterlimit:10;" d="M 229.414063 30.722656 L 245.429688 40.859375 "/>
<path style="fill:none;stroke-width:0.75;stroke-linecap:round;stroke-linejoin:round;stroke:rgb(66.27451%,66.27451%,66.27451%);stroke-opacity:1;stroke-miterlimit:10;" d="M 228.230469 32.074219 L 245.46875 52.65625 "/>
<path style="fill:none;stroke-width:0.75;stroke-linecap:round;stroke-linejoin:round;stroke:rgb(66.27451%,66.27451%,66.27451%);stroke-opacity:1;stroke-miterlimit:10;" d="M 244.675781 40.585938 L 247.671875 51.503906 "/>
<path style="fill:none;stroke-width:0.75;stroke-linecap:round;stroke-linejoin:round;stroke:rgb(66.27451%,66.27451%,66.27451%);stroke-opacity:1;stroke-miterlimit:10;" d="M 296.523438 18.445313 L 294.34375 22.757813 "/>
<path style="fill:none;stroke-width:0.75;stroke-linecap:round;stroke-linejoin:round;stroke:rgb(66.27451%,66.27451%,66.27451%);stroke-opacity:1;stroke-miterlimit:10;" d="M 296.609375 18.484375 L 281.71875 49.15625 "/>
<path style="fill:none;stroke-width:0.75;stroke-linecap:round;stroke-linejoin:round;stroke:rgb(66.27451%,66.27451%,66.27451%);stroke-opacity:1;stroke-miterlimit:10;" d="M 255.84375 45.960938 L 273.6875 52.417969 "/>
<path style="fill:none;stroke-width:0.75;stroke-linecap:round;stroke-linejoin:round;stroke:rgb(66.27451%,66.27451%,66.27451%);stroke-opacity:1;stroke-miterlimit:10;" d="M 236.257813 55.703125 L 243.414063 56.492188 "/>
<path style="fill:none;stroke-width:0.75;stroke-linecap:round;stroke-linejoin:round;stroke:rgb(66.27451%,66.27451%,66.27451%);stroke-opacity:1;stroke-miterlimit:10;" d="M 236.292969 54.984375 L 273.339844 54.480469 "/>
<path style="fill:none;stroke-width:0.75;stroke-linecap:round;stroke-linejoin:round;stroke:rgb(66.27451%,66.27451%,66.27451%);stroke-opacity:1;stroke-miterlimit:10;" d="M 290.871094 33.734375 L 288.9375 46.96875 "/>
<path style="fill:none;stroke-width:0.75;stroke-linecap:round;stroke-linejoin:round;stroke:rgb(66.27451%,66.27451%,66.27451%);stroke-opacity:1;stroke-miterlimit:10;" d="M 289.214844 33.234375 L 281.671875 49.132813 "/>
<path style="fill:none;stroke-width:0.75;stroke-linecap:round;stroke-linejoin:round;stroke:rgb(66.27451%,66.27451%,66.27451%);stroke-opacity:1;stroke-miterlimit:10;" d="M 282.78125 71.597656 L 286.515625 58.355469 "/>
<path style="fill:none;stroke-width:0.75;stroke-linecap:round;stroke-linejoin:round;stroke:rgb(66.27451%,66.27451%,66.27451%);stroke-opacity:1;stroke-miterlimit:10;" d="M 280.679688 71.402344 L 279.6875 60.210938 "/>
<path style="fill:none;stroke-width:0.75;stroke-linecap:round;stroke-linejoin:round;stroke:rgb(66.27451%,66.27451%,66.27451%);stroke-opacity:1;stroke-miterlimit:10;" d="M 255.007813 56.476563 L 282.300781 53.394531 "/>
<path style="fill:none;stroke-width:0.75;stroke-linecap:round;stroke-linejoin:round;stroke:rgb(66.27451%,66.27451%,66.27451%);stroke-opacity:1;stroke-miterlimit:10;" d="M 255.019531 56.601563 L 273.363281 54.929688 "/>
<path style="fill:none;stroke-width:0.75;stroke-linecap:round;stroke-linejoin:round;stroke:rgb(66.27451%,66.27451%,66.27451%);stroke-opacity:1;stroke-miterlimit:10;" d="M 282.363281 53.808594 L 284.902344 53.335938 "/>
<path style="fill-rule:nonzero;fill:rgb(90.196078%,62.352941%,0%);fill-opacity:1;stroke-width:0.75;stroke-linecap:round;stroke-linejoin:round;stroke:rgb(0%,0%,0%);stroke-opacity:1;stroke-miterlimit:10;" d="M 232.109375 113.347656 C 232.109375 116.570313 229.5 119.179688 226.277344 119.179688 C 223.054688 119.179688 220.445313 116.570313 220.445313 113.347656 C 220.445313 110.128906 223.054688 107.515625 226.277344 107.515625 C 229.5 107.515625 232.109375 110.128906 232.109375 113.347656 "/>
<path style="fill-rule:nonzero;fill:rgb(90.196078%,62.352941%,0%);fill-opacity:1;stroke-width:0.75;stroke-linecap:round;stroke-linejoin:round;stroke:rgb(0%,0%,0%);stroke-opacity:1;stroke-miterlimit:10;" d="M 244.648438 100.285156 C 244.648438 103.507813 242.039063 106.117188 238.816406 106.117188 C 235.597656 106.117188 232.984375 103.507813 232.984375 100.285156 C 232.984375 97.066406 235.597656 94.453125 238.816406 94.453125 C 242.039063 94.453125 244.648438 97.066406 244.648438 100.285156 "/>
<path style="fill-rule:nonzero;fill:rgb(90.196078%,62.352941%,0%);fill-opacity:1;stroke-width:0.75;stroke-linecap:round;stroke-linejoin:round;stroke:rgb(0%,0%,0%);stroke-opacity:1;stroke-miterlimit:10;" d="M 245.078125 80.132813 C 245.078125 83.351563 242.464844 85.964844 239.246094 85.964844 C 236.023438 85.964844 233.414063 83.351563 233.414063 80.132813 C 233.414063 76.910156 236.023438 74.300781 239.246094 74.300781 C 242.464844 74.300781 245.078125 76.910156 245.078125 80.132813 "/>
<path style="fill-rule:nonzero;fill:rgb(90.196078%,62.352941%,0%);fill-opacity:1;stroke-width:0.75;stroke-linecap:round;stroke-linejoin:round;stroke:rgb(0%,0%,0%);stroke-opacity:1;stroke-miterlimit:10;" d="M 217.949219 97.660156 C 217.949219 100.882813 215.335938 103.492188 212.117188 103.492188 C 208.894531 103.492188 206.285156 100.882813 206.285156 97.660156 C 206.285156 94.441406 208.894531 91.828125 212.117188 91.828125 C 215.335938 91.828125 217.949219 94.441406 217.949219 97.660156 "/>
<path style="fill-rule:nonzero;fill:rgb(90.196078%,62.352941%,0%);fill-opacity:1;stroke-width:0.75;stroke-linecap:round;stroke-linejoin:round;stroke:rgb(0%,0%,0%);stroke-opacity:1;stroke-miterlimit:10;" d="M 218.082031 141.605469 C 218.082031 144.828125 215.472656 147.4375 212.25 147.4375 C 209.03125 147.4375 206.417969 144.828125 206.417969 141.605469 C 206.417969 138.386719 209.03125 135.773438 212.25 135.773438 C 215.472656 135.773438 218.082031 138.386719 218.082031 141.605469 "/>
<path style="fill-rule:nonzero;fill:rgb(90.196078%,62.352941%,0%);fill-opacity:1;stroke-width:0.75;stroke-linecap:round;stroke-linejoin:round;stroke:rgb(0%,0%,0%);stroke-opacity:1;stroke-miterlimit:10;" d="M 204.984375 151.425781 C 204.984375 154.648438 202.375 157.257813 199.152344 157.257813 C 195.933594 157.257813 193.320313 154.648438 193.320313 151.425781 C 193.320313 148.207031 195.933594 145.59375 199.152344 145.59375 C 202.375 145.59375 204.984375 148.207031 204.984375 151.425781 "/>
<path style="fill-rule:nonzero;fill:rgb(90.196078%,62.352941%,0%);fill-opacity:1;stroke-width:0.75;stroke-linecap:round;stroke-linejoin:round;stroke:rgb(0%,0%,0%);stroke-opacity:1;stroke-miterlimit:10;" d="M 195.636719 145.128906 C 195.636719 148.347656 193.027344 150.960938 189.804688 150.960938 C 186.582031 150.960938 183.972656 148.347656 183.972656 145.128906 C 183.972656 141.90625 186.582031 139.296875 189.804688 139.296875 C 193.027344 139.296875 195.636719 141.90625 195.636719 145.128906 "/>
<path style="fill-rule:nonzero;fill:rgb(90.196078%,62.352941%,0%);fill-opacity:1;stroke-width:0.75;stroke-linecap:round;stroke-linejoin:round;stroke:rgb(0%,0%,0%);stroke-opacity:1;stroke-miterlimit:10;" d="M 225 91.648438 C 225 94.871094 222.390625 97.480469 219.167969 97.480469 C 215.949219 97.480469 213.335938 94.871094 213.335938 91.648438 C 213.335938 88.429688 215.949219 85.816406 219.167969 85.816406 C 222.390625 85.816406 225 88.429688 225 91.648438 "/>
<path style="fill-rule:nonzero;fill:rgb(33.72549%,70.588235%,91.372549%);fill-opacity:1;stroke-width:0.75;stroke-linecap:round;stroke-linejoin:round;stroke:rgb(0%,0%,0%);stroke-opacity:1;stroke-miterlimit:10;" d="M 269.542969 76.800781 C 269.542969 80.019531 266.933594 82.632813 263.710938 82.632813 C 260.492188 82.632813 257.878906 80.019531 257.878906 76.800781 C 257.878906 73.578125 260.492188 70.96875 263.710938 70.96875 C 266.933594 70.96875 269.542969 73.578125 269.542969 76.800781 "/>
<path style="fill-rule:nonzero;fill:rgb(33.72549%,70.588235%,91.372549%);fill-opacity:1;stroke-width:0.75;stroke-linecap:round;stroke-linejoin:round;stroke:rgb(0%,0%,0%);stroke-opacity:1;stroke-miterlimit:10;" d="M 260.03125 25.957031 C 260.03125 29.179688 257.417969 31.789063 254.199219 31.789063 C 250.976563 31.789063 248.367188 29.179688 248.367188 25.957031 C 248.367188 22.738281 250.976563 20.125 254.199219 20.125 C 257.417969 20.125 260.03125 22.738281 260.03125 25.957031 "/>
<path style="fill-rule:nonzero;fill:rgb(90.196078%,62.352941%,0%);fill-opacity:1;stroke-width:0.75;stroke-linecap:round;stroke-linejoin:round;stroke:rgb(0%,0%,0%);stroke-opacity:1;stroke-miterlimit:10;" d="M 223.90625 155.128906 C 223.90625 158.347656 221.292969 160.960938 218.074219 160.960938 C 214.851563 160.960938 212.242188 158.347656 212.242188 155.128906 C 212.242188 151.90625 214.851563 149.296875 218.074219 149.296875 C 221.292969 149.296875 223.90625 151.90625 223.90625 155.128906 "/>
<path style="fill-rule:nonzero;fill:rgb(90.196078%,62.352941%,0%);fill-opacity:1;stroke-width:0.75;stroke-linecap:round;stroke-linejoin:round;stroke:rgb(0%,0%,0%);stroke-opacity:1;stroke-miterlimit:10;" d="M 248.652344 146.046875 C 248.652344 149.265625 246.042969 151.878906 242.820313 151.878906 C 239.601563 151.878906 236.988281 149.265625 236.988281 146.046875 C 236.988281 142.824219 239.601563 140.214844 242.820313 140.214844 C 246.042969 140.214844 248.652344 142.824219 248.652344 146.046875 "/>
<path style="fill-rule:nonzero;fill:rgb(90.196078%,62.352941%,0%);fill-opacity:1;stroke-width:0.75;stroke-linecap:round;stroke-linejoin:round;stroke:rgb(0%,0%,0%);stroke-opacity:1;stroke-miterlimit:10;" d="M 181.835938 101.949219 C 181.835938 105.171875 179.226563 107.78125 176.003906 107.78125 C 172.785156 107.78125 170.171875 105.171875 170.171875 101.949219 C 170.171875 98.730469 172.785156 96.117188 176.003906 96.117188 C 179.226563 96.117188 181.835938 98.730469 181.835938 101.949219 "/>
<path style="fill-rule:nonzero;fill:rgb(90.196078%,62.352941%,0%);fill-opacity:1;stroke-width:0.75;stroke-linecap:round;stroke-linejoin:round;stroke:rgb(0%,0%,0%);stroke-opacity:1;stroke-miterlimit:10;" d="M 251.5 88.574219 C 251.5 91.796875 248.890625 94.40625 245.667969 94.40625 C 242.445313 94.40625 239.835938 91.796875 239.835938 88.574219 C 239.835938 85.355469 242.445313 82.742188 245.667969 82.742188 C 248.890625 82.742188 251.5 85.355469 251.5 88.574219 "/>
<path style="fill-rule:nonzero;fill:rgb(33.72549%,70.588235%,91.372549%);fill-opacity:1;stroke-width:0.75;stroke-linecap:round;stroke-linejoin:round;stroke:rgb(0%,0%,0%);stroke-opacity:1;stroke-miterlimit:10;" d="M 325.464844 57.964844 C 325.464844 61.183594 322.855469 63.796875 319.632813 63.796875 C 316.410156 63.796875 313.800781 61.183594 313.800781 57.964844 C 313.800781 54.742188 316.410156 52.132813 319.632813 52.132813 C 322.855469 52.132813 325.464844 54.742188 325.464844 57.964844 "/>
<path style="fill-rule:nonzero;fill:rgb(33.72549%,70.588235%,91.372549%);fill-opacity:1;stroke-width:0.75;stroke-linecap:round;stroke-linejoin:round;stroke:rgb(0%,0%,0%);stroke-opacity:1;stroke-miterlimit:10;" d="M 310.304688 41.414063 C 310.304688 44.632813 307.695313 47.246094 304.472656 47.246094 C 301.253906 47.246094 298.640625 44.632813 298.640625 41.414063 C 298.640625 38.191406 301.253906 35.582031 304.472656 35.582031 C 307.695313 35.582031 310.304688 38.191406 310.304688 41.414063 "/>
<path style="fill-rule:nonzero;fill:rgb(90.196078%,62.352941%,0%);fill-opacity:1;stroke-width:0.75;stroke-linecap:round;stroke-linejoin:round;stroke:rgb(0%,0%,0%);stroke-opacity:1;stroke-miterlimit:10;" d="M 180.070313 168.761719 C 180.070313 171.980469 177.460938 174.59375 174.238281 174.59375 C 171.019531 174.59375 168.40625 171.980469 168.40625 168.761719 C 168.40625 165.539063 171.019531 162.929688 174.238281 162.929688 C 177.460938 162.929688 180.070313 165.539063 180.070313 168.761719 "/>
<path style="fill-rule:nonzero;fill:rgb(90.196078%,62.352941%,0%);fill-opacity:1;stroke-width:0.75;stroke-linecap:round;stroke-linejoin:round;stroke:rgb(0%,0%,0%);stroke-opacity:1;stroke-miterlimit:10;" d="M 196.125 120.113281 C 196.125 123.335938 193.515625 125.945313 190.292969 125.945313 C 187.074219 125.945313 184.460938 123.335938 184.460938 120.113281 C 184.460938 116.890625 187.074219 114.28125 190.292969 114.28125 C 193.515625 114.28125 196.125 116.890625 196.125 120.113281 "/>
<path style="fill-rule:nonzero;fill:rgb(33.72549%,70.588235%,91.372549%);fill-opacity:1;stroke-width:0.75;stroke-linecap:round;stroke-linejoin:round;stroke:rgb(0%,0%,0%);stroke-opacity:1;stroke-miterlimit:10;" d="M 335.59375 68.007813 C 335.59375 71.226563 332.980469 73.839844 329.761719 73.839844 C 326.539063 73.839844 323.929688 71.226563 323.929688 68.007813 C 323.929688 64.785156 326.539063 62.175781 329.761719 62.175781 C 332.980469 62.175781 335.59375 64.785156 335.59375 68.007813 "/>
<path style="fill-rule:nonzero;fill:rgb(90.196078%,62.352941%,0%);fill-opacity:1;stroke-width:0.75;stroke-linecap:round;stroke-linejoin:round;stroke:rgb(0%,0%,0%);stroke-opacity:1;stroke-miterlimit:10;" d="M 272.136719 106.015625 C 272.136719 109.234375 269.523438 111.847656 266.304688 111.847656 C 263.082031 111.847656 260.472656 109.234375 260.472656 106.015625 C 260.472656 102.792969 263.082031 100.183594 266.304688 100.183594 C 269.523438 100.183594 272.136719 102.792969 272.136719 106.015625 "/>
<path style="fill-rule:nonzero;fill:rgb(33.72549%,70.588235%,91.372549%);fill-opacity:1;stroke-width:0.75;stroke-linecap:round;stroke-linejoin:round;stroke:rgb(0%,0%,0%);stroke-opacity:1;stroke-miterlimit:10;" d="M 327.953125 30.980469 C 327.953125 34.199219 325.339844 36.8125 322.121094 36.8125 C 318.898438 36.8125 316.289063 34.199219 316.289063 30.980469 C 316.289063 27.757813 318.898438 25.148438 322.121094 25.148438 C 325.339844 25.148438 327.953125 27.757813 327.953125 30.980469 "/>
<path style="fill-rule:nonzero;fill:rgb(90.196078%,62.352941%,0%);fill-opacity:1;stroke-width:0.75;stroke-linecap:round;stroke-linejoin:round;stroke:rgb(0%,0%,0%);stroke-opacity:1;stroke-miterlimit:10;" d="M 258.453125 129.980469 C 258.453125 133.199219 255.839844 135.8125 252.621094 135.8125 C 249.398438 135.8125 246.789063 133.199219 246.789063 129.980469 C 246.789063 126.757813 249.398438 124.148438 252.621094 124.148438 C 255.839844 124.148438 258.453125 126.757813 258.453125 129.980469 "/>
<path style="fill-rule:nonzero;fill:rgb(33.72549%,70.588235%,91.372549%);fill-opacity:1;stroke-width:0.75;stroke-linecap:round;stroke-linejoin:round;stroke:rgb(0%,0%,0%);stroke-opacity:1;stroke-miterlimit:10;" d="M 326.226563 45.460938 C 326.226563 48.679688 323.613281 51.292969 320.394531 51.292969 C 317.171875 51.292969 314.5625 48.679688 314.5625 45.460938 C 314.5625 42.238281 317.171875 39.628906 320.394531 39.628906 C 323.613281 39.628906 326.226563 42.238281 326.226563 45.460938 "/>
<path style="fill-rule:nonzero;fill:rgb(33.72549%,70.588235%,91.372549%);fill-opacity:1;stroke-width:0.75;stroke-linecap:round;stroke-linejoin:round;stroke:rgb(0%,0%,0%);stroke-opacity:1;stroke-miterlimit:10;" d="M 276.445313 36.328125 C 276.445313 39.546875 273.835938 42.160156 270.613281 42.160156 C 267.394531 42.160156 264.78125 39.546875 264.78125 36.328125 C 264.78125 33.105469 267.394531 30.496094 270.613281 30.496094 C 273.835938 30.496094 276.445313 33.105469 276.445313 36.328125 "/>
<path style="fill-rule:nonzero;fill:rgb(33.72549%,70.588235%,91.372549%);fill-opacity:1;stroke-width:0.75;stroke-linecap:round;stroke-linejoin:round;stroke:rgb(0%,0%,0%);stroke-opacity:1;stroke-miterlimit:10;" d="M 230.316406 27.601563 C 230.316406 30.824219 227.707031 33.433594 224.484375 33.433594 C 221.265625 33.433594 218.652344 30.824219 218.652344 27.601563 C 218.652344 24.382813 221.265625 21.769531 224.484375 21.769531 C 227.707031 21.769531 230.316406 24.382813 230.316406 27.601563 "/>
<path style="fill-rule:nonzero;fill:rgb(33.72549%,70.588235%,91.372549%);fill-opacity:1;stroke-width:0.75;stroke-linecap:round;stroke-linejoin:round;stroke:rgb(0%,0%,0%);stroke-opacity:1;stroke-miterlimit:10;" d="M 248.96875 34.960938 C 248.96875 38.179688 246.355469 40.792969 243.136719 40.792969 C 239.914063 40.792969 237.304688 38.179688 237.304688 34.960938 C 237.304688 31.738281 239.914063 29.128906 243.136719 29.128906 C 246.355469 29.128906 248.96875 31.738281 248.96875 34.960938 "/>
<path style="fill-rule:nonzero;fill:rgb(33.72549%,70.588235%,91.372549%);fill-opacity:1;stroke-width:0.75;stroke-linecap:round;stroke-linejoin:round;stroke:rgb(0%,0%,0%);stroke-opacity:1;stroke-miterlimit:10;" d="M 304.988281 13.238281 C 304.988281 16.460938 302.375 19.070313 299.15625 19.070313 C 295.933594 19.070313 293.324219 16.460938 293.324219 13.238281 C 293.324219 10.019531 295.933594 7.40625 299.15625 7.40625 C 302.375 7.40625 304.988281 10.019531 304.988281 13.238281 "/>
<path style="fill-rule:nonzero;fill:rgb(33.72549%,70.588235%,91.372549%);fill-opacity:1;stroke-width:0.75;stroke-linecap:round;stroke-linejoin:round;stroke:rgb(0%,0%,0%);stroke-opacity:1;stroke-miterlimit:10;" d="M 256.191406 43.976563 C 256.191406 47.199219 253.582031 49.808594 250.359375 49.808594 C 247.136719 49.808594 244.527344 47.199219 244.527344 43.976563 C 244.527344 40.757813 247.136719 38.144531 250.359375 38.144531 C 253.582031 38.144531 256.191406 40.757813 256.191406 43.976563 "/>
<path style="fill-rule:nonzero;fill:rgb(33.72549%,70.588235%,91.372549%);fill-opacity:1;stroke-width:0.75;stroke-linecap:round;stroke-linejoin:round;stroke:rgb(0%,0%,0%);stroke-opacity:1;stroke-miterlimit:10;" d="M 236.292969 55.0625 C 236.292969 58.285156 233.679688 60.894531 230.460938 60.894531 C 227.238281 60.894531 224.628906 58.285156 224.628906 55.0625 C 224.628906 51.84375 227.238281 49.230469 230.460938 49.230469 C 233.679688 49.230469 236.292969 51.84375 236.292969 55.0625 "/>
<path style="fill-rule:nonzero;fill:rgb(33.72549%,70.588235%,91.372549%);fill-opacity:1;stroke-width:0.75;stroke-linecap:round;stroke-linejoin:round;stroke:rgb(0%,0%,0%);stroke-opacity:1;stroke-miterlimit:10;" d="M 297.546875 27.964844 C 297.546875 31.183594 294.933594 33.796875 291.714844 33.796875 C 288.492188 33.796875 285.882813 31.183594 285.882813 27.964844 C 285.882813 24.742188 288.492188 22.132813 291.714844 22.132813 C 294.933594 22.132813 297.546875 24.742188 297.546875 27.964844 "/>
<path style="fill-rule:nonzero;fill:rgb(33.72549%,70.588235%,91.372549%);fill-opacity:1;stroke-width:0.75;stroke-linecap:round;stroke-linejoin:round;stroke:rgb(0%,0%,0%);stroke-opacity:1;stroke-miterlimit:10;" d="M 287.03125 77.210938 C 287.03125 80.433594 284.417969 83.042969 281.199219 83.042969 C 277.976563 83.042969 275.367188 80.433594 275.367188 77.210938 C 275.367188 73.992188 277.976563 71.378906 281.199219 71.378906 C 284.417969 71.378906 287.03125 73.992188 287.03125 77.210938 "/>
<path style="fill-rule:nonzero;fill:rgb(33.72549%,70.588235%,91.372549%);fill-opacity:1;stroke-width:0.75;stroke-linecap:round;stroke-linejoin:round;stroke:rgb(0%,0%,0%);stroke-opacity:1;stroke-miterlimit:10;" d="M 255.042969 57.128906 C 255.042969 60.351563 252.433594 62.960938 249.210938 62.960938 C 245.992188 62.960938 243.378906 60.351563 243.378906 57.128906 C 243.378906 53.910156 245.992188 51.296875 249.210938 51.296875 C 252.433594 51.296875 255.042969 53.910156 255.042969 57.128906 "/>
<path style="fill-rule:nonzero;fill:rgb(33.72549%,70.588235%,91.372549%);fill-opacity:1;stroke-width:0.75;stroke-linecap:round;stroke-linejoin:round;stroke:rgb(0%,0%,0%);stroke-opacity:1;stroke-miterlimit:10;" d="M 293.929688 52.742188 C 293.929688 55.960938 291.316406 58.574219 288.097656 58.574219 C 284.875 58.574219 282.265625 55.960938 282.265625 52.742188 C 282.265625 49.519531 284.875 46.910156 288.097656 46.910156 C 291.316406 46.910156 293.929688 49.519531 293.929688 52.742188 "/>
<path style="fill-rule:nonzero;fill:rgb(33.72549%,70.588235%,91.372549%);fill-opacity:1;stroke-width:0.75;stroke-linecap:round;stroke-linejoin:round;stroke:rgb(0%,0%,0%);stroke-opacity:1;stroke-miterlimit:10;" d="M 285.003906 54.402344 C 285.003906 57.625 282.390625 60.234375 279.171875 60.234375 C 275.949219 60.234375 273.339844 57.625 273.339844 54.402344 C 273.339844 51.179688 275.949219 48.570313 279.171875 48.570313 C 282.390625 48.570313 285.003906 51.179688 285.003906 54.402344 "/>
<g style="fill:rgb(0%,0%,54.509804%);fill-opacity:1;">
  <use xlink:href="#glyph0-1" x="221.945313" y="117.320313"/>
</g>
<g style="fill:rgb(0%,0%,54.509804%);fill-opacity:1;">
  <use xlink:href="#glyph0-2" x="235.816406" y="104.339844"/>
</g>
<g style="fill:rgb(0%,0%,54.509804%);fill-opacity:1;">
  <use xlink:href="#glyph0-3" x="236.246094" y="84.117188"/>
</g>
<g style="fill:rgb(0%,0%,54.509804%);fill-opacity:1;">
  <use xlink:href="#glyph0-4" x="209.117188" y="101.714844"/>
</g>
<g style="fill:rgb(0%,0%,54.509804%);fill-opacity:1;">
  <use xlink:href="#glyph0-5" x="209.25" y="145.507813"/>
</g>
<g style="fill:rgb(0%,0%,54.509804%);fill-opacity:1;">
  <use xlink:href="#glyph0-6" x="196.152344" y="155.410156"/>
</g>
<g style="fill:rgb(0%,0%,54.509804%);fill-opacity:1;">
  <use xlink:href="#glyph0-7" x="186.804688" y="149.019531"/>
</g>
<g style="fill:rgb(0%,0%,54.509804%);fill-opacity:1;">
  <use xlink:href="#glyph0-8" x="216.167969" y="95.632813"/>
</g>
<g style="fill:rgb(0%,0%,54.509804%);fill-opacity:1;">
  <use xlink:href="#glyph0-9" x="260.710938" y="80.773438"/>
</g>
<g style="fill:rgb(0%,0%,54.509804%);fill-opacity:1;">
  <use xlink:href="#glyph0-10" x="248.199219" y="29.941406"/>
  <use xlink:href="#glyph0-11" x="254.199219" y="29.941406"/>
</g>
<g style="fill:rgb(0%,0%,54.509804%);fill-opacity:1;">
  <use xlink:href="#glyph0-10" x="212.074219" y="159.183594"/>
  <use xlink:href="#glyph0-10" x="218.074219" y="159.183594"/>
</g>
<g style="fill:rgb(0%,0%,54.509804%);fill-opacity:1;">
  <use xlink:href="#glyph0-10" x="236.820313" y="150.101563"/>
  <use xlink:href="#glyph0-2" x="242.820313" y="150.101563"/>
</g>
<g style="fill:rgb(0%,0%,54.509804%);fill-opacity:1;">
  <use xlink:href="#glyph0-10" x="170.003906" y="105.933594"/>
  <use xlink:href="#glyph0-3" x="176.003906" y="105.933594"/>
</g>
<g style="fill:rgb(0%,0%,54.509804%);fill-opacity:1;">
  <use xlink:href="#glyph0-10" x="239.667969" y="92.628906"/>
  <use xlink:href="#glyph0-4" x="245.667969" y="92.628906"/>
</g>
<g style="fill:rgb(0%,0%,54.509804%);fill-opacity:1;">
  <use xlink:href="#glyph0-10" x="313.632813" y="61.949219"/>
  <use xlink:href="#glyph0-5" x="319.632813" y="61.949219"/>
</g>
<g style="fill:rgb(0%,0%,54.509804%);fill-opacity:1;">
  <use xlink:href="#glyph0-10" x="298.472656" y="45.398438"/>
  <use xlink:href="#glyph0-6" x="304.472656" y="45.398438"/>
</g>
<g style="fill:rgb(0%,0%,54.509804%);fill-opacity:1;">
  <use xlink:href="#glyph0-10" x="168.238281" y="172.734375"/>
  <use xlink:href="#glyph0-7" x="174.238281" y="172.734375"/>
</g>
<g style="fill:rgb(0%,0%,54.509804%);fill-opacity:1;">
  <use xlink:href="#glyph0-10" x="184.292969" y="124.097656"/>
  <use xlink:href="#glyph0-8" x="190.292969" y="124.097656"/>
</g>
<g style="fill:rgb(0%,0%,54.509804%);fill-opacity:1;">
  <use xlink:href="#glyph0-10" x="323.761719" y="71.980469"/>
  <use xlink:href="#glyph0-9" x="329.761719" y="71.980469"/>
</g>
<g style="fill:rgb(0%,0%,54.509804%);fill-opacity:1;">
  <use xlink:href="#glyph0-2" x="260.304688" y="110"/>
  <use xlink:href="#glyph0-11" x="266.304688" y="110"/>
</g>
<g style="fill:rgb(0%,0%,54.509804%);fill-opacity:1;">
  <use xlink:href="#glyph0-2" x="316.121094" y="35.035156"/>
  <use xlink:href="#glyph0-10" x="322.121094" y="35.035156"/>
</g>
<g style="fill:rgb(0%,0%,54.509804%);fill-opacity:1;">
  <use xlink:href="#glyph0-2" x="246.621094" y="134.035156"/>
  <use xlink:href="#glyph0-2" x="252.621094" y="134.035156"/>
</g>
<g style="fill:rgb(0%,0%,54.509804%);fill-opacity:1;">
  <use xlink:href="#glyph0-2" x="314.394531" y="49.445313"/>
  <use xlink:href="#glyph0-3" x="320.394531" y="49.445313"/>
</g>
<g style="fill:rgb(0%,0%,54.509804%);fill-opacity:1;">
  <use xlink:href="#glyph0-2" x="264.613281" y="40.382813"/>
  <use xlink:href="#glyph0-4" x="270.613281" y="40.382813"/>
</g>
<g style="fill:rgb(0%,0%,54.509804%);fill-opacity:1;">
  <use xlink:href="#glyph0-2" x="218.484375" y="31.585938"/>
  <use xlink:href="#glyph0-5" x="224.484375" y="31.585938"/>
</g>
<g style="fill:rgb(0%,0%,54.509804%);fill-opacity:1;">
  <use xlink:href="#glyph0-2" x="237.136719" y="38.945313"/>
  <use xlink:href="#glyph0-6" x="243.136719" y="38.945313"/>
</g>
<g style="fill:rgb(0%,0%,54.509804%);fill-opacity:1;">
  <use xlink:href="#glyph0-2" x="293.15625" y="17.210938"/>
  <use xlink:href="#glyph0-7" x="299.15625" y="17.210938"/>
</g>
<g style="fill:rgb(0%,0%,54.509804%);fill-opacity:1;">
  <use xlink:href="#glyph0-2" x="244.359375" y="47.960938"/>
  <use xlink:href="#glyph0-8" x="250.359375" y="47.960938"/>
</g>
<g style="fill:rgb(0%,0%,54.509804%);fill-opacity:1;">
  <use xlink:href="#glyph0-2" x="224.460938" y="59.035156"/>
  <use xlink:href="#glyph0-9" x="230.460938" y="59.035156"/>
</g>
<g style="fill:rgb(0%,0%,54.509804%);fill-opacity:1;">
  <use xlink:href="#glyph0-3" x="285.714844" y="31.949219"/>
  <use xlink:href="#glyph0-11" x="291.714844" y="31.949219"/>
</g>
<g style="fill:rgb(0%,0%,54.509804%);fill-opacity:1;">
  <use xlink:href="#glyph0-3" x="275.199219" y="81.195313"/>
  <use xlink:href="#glyph0-10" x="281.199219" y="81.195313"/>
</g>
<g style="fill:rgb(0%,0%,54.509804%);fill-opacity:1;">
  <use xlink:href="#glyph0-3" x="243.210938" y="61.113281"/>
  <use xlink:href="#glyph0-2" x="249.210938" y="61.113281"/>
</g>
<g style="fill:rgb(0%,0%,54.509804%);fill-opacity:1;">
  <use xlink:href="#glyph0-3" x="282.097656" y="56.726563"/>
  <use xlink:href="#glyph0-3" x="288.097656" y="56.726563"/>
</g>
<g style="fill:rgb(0%,0%,54.509804%);fill-opacity:1;">
  <use xlink:href="#glyph0-12" x="274.839844" y="58.464844"/>
</g>
</g>
</svg>
